<?xml version="1.0" encoding="utf-8" standalone="no"?>
<!DOCTYPE svg PUBLIC "-//W3C//DTD SVG 1.1//EN"
  "http://www.w3.org/Graphics/SVG/1.1/DTD/svg11.dtd">
<svg xmlns:xlink="http://www.w3.org/1999/xlink" width="460.8pt" height="345.6pt" viewBox="0 0 460.8 345.6" xmlns="http://www.w3.org/2000/svg" version="1.1">
 <metadata>
  <rdf:RDF xmlns:dc="http://purl.org/dc/elements/1.1/" xmlns:cc="http://creativecommons.org/ns#" xmlns:rdf="http://www.w3.org/1999/02/22-rdf-syntax-ns#">
   <cc:Work>
    <dc:type rdf:resource="http://purl.org/dc/dcmitype/StillImage"/>
    <dc:date>2024-02-21T13:17:47.178441</dc:date>
    <dc:format>image/svg+xml</dc:format>
    <dc:creator>
     <cc:Agent>
      <dc:title>Matplotlib v3.5.0, https://matplotlib.org/</dc:title>
     </cc:Agent>
    </dc:creator>
   </cc:Work>
  </rdf:RDF>
 </metadata>
 <defs>
  <style type="text/css">*{stroke-linejoin: round; stroke-linecap: butt}</style>
 </defs>
 <g id="figure_1">
  <g id="patch_1">
   <path d="M 0 345.6 
L 460.8 345.6 
L 460.8 0 
L 0 0 
z
" style="fill: #ffffff"/>
  </g>
  <g id="axes_1">
   <g id="patch_2">
    <path d="M 57.6 307.584 
L 414.72 307.584 
L 414.72 41.472 
L 57.6 41.472 
z
" style="fill: #ffffff"/>
   </g>
   <g id="matplotlib.axis_1">
    <g id="xtick_1">
     <g id="line2d_1">
      <defs>
       <path id="md210a7d2cb" d="M 0 0 
L 0 3.5 
" style="stroke: #000000; stroke-width: 0.8"/>
      </defs>
      <g>
       <use xlink:href="#md210a7d2cb" x="65.957011" y="307.584" style="stroke: #000000; stroke-width: 0.8"/>
      </g>
     </g>
     <g id="text_1">
      <!-- 0 -->
      <g transform="translate(59.594511 329.780875)scale(0.2 -0.2)">
       <defs>
        <path id="DejaVuSans-30" d="M 2034 4250 
Q 1547 4250 1301 3770 
Q 1056 3291 1056 2328 
Q 1056 1369 1301 889 
Q 1547 409 2034 409 
Q 2525 409 2770 889 
Q 3016 1369 3016 2328 
Q 3016 3291 2770 3770 
Q 2525 4250 2034 4250 
z
M 2034 4750 
Q 2819 4750 3233 4129 
Q 3647 3509 3647 2328 
Q 3647 1150 3233 529 
Q 2819 -91 2034 -91 
Q 1250 -91 836 529 
Q 422 1150 422 2328 
Q 422 3509 836 4129 
Q 1250 4750 2034 4750 
z
" transform="scale(0.015625)"/>
       </defs>
       <use xlink:href="#DejaVuSans-30"/>
      </g>
     </g>
    </g>
    <g id="xtick_2">
     <g id="line2d_2">
      <g>
       <use xlink:href="#md210a7d2cb" x="399.362352" y="307.584" style="stroke: #000000; stroke-width: 0.8"/>
      </g>
     </g>
     <g id="text_2">
      <!-- 1 -->
      <g transform="translate(392.999852 329.780875)scale(0.2 -0.2)">
       <defs>
        <path id="DejaVuSans-31" d="M 794 531 
L 1825 531 
L 1825 4091 
L 703 3866 
L 703 4441 
L 1819 4666 
L 2450 4666 
L 2450 531 
L 3481 531 
L 3481 0 
L 794 0 
L 794 531 
z
" transform="scale(0.015625)"/>
       </defs>
       <use xlink:href="#DejaVuSans-31"/>
      </g>
     </g>
    </g>
    <g id="text_3">
     <!-- Normalised X position -->
     <g transform="translate(111.795937 353.137125)scale(0.2 -0.2)">
      <defs>
       <path id="DejaVuSans-Bold-4e" d="M 588 4666 
L 1931 4666 
L 3628 1466 
L 3628 4666 
L 4769 4666 
L 4769 0 
L 3425 0 
L 1728 3200 
L 1728 0 
L 588 0 
L 588 4666 
z
" transform="scale(0.015625)"/>
       <path id="DejaVuSans-Bold-6f" d="M 2203 2784 
Q 1831 2784 1636 2517 
Q 1441 2250 1441 1747 
Q 1441 1244 1636 976 
Q 1831 709 2203 709 
Q 2569 709 2762 976 
Q 2956 1244 2956 1747 
Q 2956 2250 2762 2517 
Q 2569 2784 2203 2784 
z
M 2203 3584 
Q 3106 3584 3614 3096 
Q 4122 2609 4122 1747 
Q 4122 884 3614 396 
Q 3106 -91 2203 -91 
Q 1297 -91 786 396 
Q 275 884 275 1747 
Q 275 2609 786 3096 
Q 1297 3584 2203 3584 
z
" transform="scale(0.015625)"/>
       <path id="DejaVuSans-Bold-72" d="M 3138 2547 
Q 2991 2616 2845 2648 
Q 2700 2681 2553 2681 
Q 2122 2681 1889 2404 
Q 1656 2128 1656 1613 
L 1656 0 
L 538 0 
L 538 3500 
L 1656 3500 
L 1656 2925 
Q 1872 3269 2151 3426 
Q 2431 3584 2822 3584 
Q 2878 3584 2943 3579 
Q 3009 3575 3134 3559 
L 3138 2547 
z
" transform="scale(0.015625)"/>
       <path id="DejaVuSans-Bold-6d" d="M 3781 2919 
Q 3994 3244 4286 3414 
Q 4578 3584 4928 3584 
Q 5531 3584 5847 3212 
Q 6163 2841 6163 2131 
L 6163 0 
L 5038 0 
L 5038 1825 
Q 5041 1866 5042 1909 
Q 5044 1953 5044 2034 
Q 5044 2406 4934 2573 
Q 4825 2741 4581 2741 
Q 4263 2741 4089 2478 
Q 3916 2216 3909 1719 
L 3909 0 
L 2784 0 
L 2784 1825 
Q 2784 2406 2684 2573 
Q 2584 2741 2328 2741 
Q 2006 2741 1831 2477 
Q 1656 2213 1656 1722 
L 1656 0 
L 531 0 
L 531 3500 
L 1656 3500 
L 1656 2988 
Q 1863 3284 2130 3434 
Q 2397 3584 2719 3584 
Q 3081 3584 3359 3409 
Q 3638 3234 3781 2919 
z
" transform="scale(0.015625)"/>
       <path id="DejaVuSans-Bold-61" d="M 2106 1575 
Q 1756 1575 1579 1456 
Q 1403 1338 1403 1106 
Q 1403 894 1545 773 
Q 1688 653 1941 653 
Q 2256 653 2472 879 
Q 2688 1106 2688 1447 
L 2688 1575 
L 2106 1575 
z
M 3816 1997 
L 3816 0 
L 2688 0 
L 2688 519 
Q 2463 200 2181 54 
Q 1900 -91 1497 -91 
Q 953 -91 614 226 
Q 275 544 275 1050 
Q 275 1666 698 1953 
Q 1122 2241 2028 2241 
L 2688 2241 
L 2688 2328 
Q 2688 2594 2478 2717 
Q 2269 2841 1825 2841 
Q 1466 2841 1156 2769 
Q 847 2697 581 2553 
L 581 3406 
Q 941 3494 1303 3539 
Q 1666 3584 2028 3584 
Q 2975 3584 3395 3211 
Q 3816 2838 3816 1997 
z
" transform="scale(0.015625)"/>
       <path id="DejaVuSans-Bold-6c" d="M 538 4863 
L 1656 4863 
L 1656 0 
L 538 0 
L 538 4863 
z
" transform="scale(0.015625)"/>
       <path id="DejaVuSans-Bold-69" d="M 538 3500 
L 1656 3500 
L 1656 0 
L 538 0 
L 538 3500 
z
M 538 4863 
L 1656 4863 
L 1656 3950 
L 538 3950 
L 538 4863 
z
" transform="scale(0.015625)"/>
       <path id="DejaVuSans-Bold-73" d="M 3272 3391 
L 3272 2541 
Q 2913 2691 2578 2766 
Q 2244 2841 1947 2841 
Q 1628 2841 1473 2761 
Q 1319 2681 1319 2516 
Q 1319 2381 1436 2309 
Q 1553 2238 1856 2203 
L 2053 2175 
Q 2913 2066 3209 1816 
Q 3506 1566 3506 1031 
Q 3506 472 3093 190 
Q 2681 -91 1863 -91 
Q 1516 -91 1145 -36 
Q 775 19 384 128 
L 384 978 
Q 719 816 1070 734 
Q 1422 653 1784 653 
Q 2113 653 2278 743 
Q 2444 834 2444 1013 
Q 2444 1163 2330 1236 
Q 2216 1309 1875 1350 
L 1678 1375 
Q 931 1469 631 1722 
Q 331 1975 331 2491 
Q 331 3047 712 3315 
Q 1094 3584 1881 3584 
Q 2191 3584 2531 3537 
Q 2872 3491 3272 3391 
z
" transform="scale(0.015625)"/>
       <path id="DejaVuSans-Bold-65" d="M 4031 1759 
L 4031 1441 
L 1416 1441 
Q 1456 1047 1700 850 
Q 1944 653 2381 653 
Q 2734 653 3104 758 
Q 3475 863 3866 1075 
L 3866 213 
Q 3469 63 3072 -14 
Q 2675 -91 2278 -91 
Q 1328 -91 801 392 
Q 275 875 275 1747 
Q 275 2603 792 3093 
Q 1309 3584 2216 3584 
Q 3041 3584 3536 3087 
Q 4031 2591 4031 1759 
z
M 2881 2131 
Q 2881 2450 2695 2645 
Q 2509 2841 2209 2841 
Q 1884 2841 1681 2658 
Q 1478 2475 1428 2131 
L 2881 2131 
z
" transform="scale(0.015625)"/>
       <path id="DejaVuSans-Bold-64" d="M 2919 2988 
L 2919 4863 
L 4044 4863 
L 4044 0 
L 2919 0 
L 2919 506 
Q 2688 197 2409 53 
Q 2131 -91 1766 -91 
Q 1119 -91 703 423 
Q 288 938 288 1747 
Q 288 2556 703 3070 
Q 1119 3584 1766 3584 
Q 2128 3584 2408 3439 
Q 2688 3294 2919 2988 
z
M 2181 722 
Q 2541 722 2730 984 
Q 2919 1247 2919 1747 
Q 2919 2247 2730 2509 
Q 2541 2772 2181 2772 
Q 1825 2772 1636 2509 
Q 1447 2247 1447 1747 
Q 1447 1247 1636 984 
Q 1825 722 2181 722 
z
" transform="scale(0.015625)"/>
       <path id="DejaVuSans-Bold-20" transform="scale(0.015625)"/>
       <path id="DejaVuSans-Bold-58" d="M 3188 2381 
L 4806 0 
L 3553 0 
L 2463 1594 
L 1381 0 
L 122 0 
L 1741 2381 
L 184 4666 
L 1441 4666 
L 2463 3163 
L 3481 4666 
L 4744 4666 
L 3188 2381 
z
" transform="scale(0.015625)"/>
       <path id="DejaVuSans-Bold-70" d="M 1656 506 
L 1656 -1331 
L 538 -1331 
L 538 3500 
L 1656 3500 
L 1656 2988 
Q 1888 3294 2169 3439 
Q 2450 3584 2816 3584 
Q 3463 3584 3878 3070 
Q 4294 2556 4294 1747 
Q 4294 938 3878 423 
Q 3463 -91 2816 -91 
Q 2450 -91 2169 54 
Q 1888 200 1656 506 
z
M 2400 2772 
Q 2041 2772 1848 2508 
Q 1656 2244 1656 1747 
Q 1656 1250 1848 986 
Q 2041 722 2400 722 
Q 2759 722 2948 984 
Q 3138 1247 3138 1747 
Q 3138 2247 2948 2509 
Q 2759 2772 2400 2772 
z
" transform="scale(0.015625)"/>
       <path id="DejaVuSans-Bold-74" d="M 1759 4494 
L 1759 3500 
L 2913 3500 
L 2913 2700 
L 1759 2700 
L 1759 1216 
Q 1759 972 1856 886 
Q 1953 800 2241 800 
L 2816 800 
L 2816 0 
L 1856 0 
Q 1194 0 917 276 
Q 641 553 641 1216 
L 641 2700 
L 84 2700 
L 84 3500 
L 641 3500 
L 641 4494 
L 1759 4494 
z
" transform="scale(0.015625)"/>
       <path id="DejaVuSans-Bold-6e" d="M 4056 2131 
L 4056 0 
L 2931 0 
L 2931 347 
L 2931 1631 
Q 2931 2084 2911 2256 
Q 2891 2428 2841 2509 
Q 2775 2619 2662 2680 
Q 2550 2741 2406 2741 
Q 2056 2741 1856 2470 
Q 1656 2200 1656 1722 
L 1656 0 
L 538 0 
L 538 3500 
L 1656 3500 
L 1656 2988 
Q 1909 3294 2193 3439 
Q 2478 3584 2822 3584 
Q 3428 3584 3742 3212 
Q 4056 2841 4056 2131 
z
" transform="scale(0.015625)"/>
      </defs>
      <use xlink:href="#DejaVuSans-Bold-4e"/>
      <use xlink:href="#DejaVuSans-Bold-6f" x="83.691406"/>
      <use xlink:href="#DejaVuSans-Bold-72" x="152.392578"/>
      <use xlink:href="#DejaVuSans-Bold-6d" x="201.708984"/>
      <use xlink:href="#DejaVuSans-Bold-61" x="305.908203"/>
      <use xlink:href="#DejaVuSans-Bold-6c" x="373.388672"/>
      <use xlink:href="#DejaVuSans-Bold-69" x="407.666016"/>
      <use xlink:href="#DejaVuSans-Bold-73" x="441.943359"/>
      <use xlink:href="#DejaVuSans-Bold-65" x="501.464844"/>
      <use xlink:href="#DejaVuSans-Bold-64" x="569.287109"/>
      <use xlink:href="#DejaVuSans-Bold-20" x="640.869141"/>
      <use xlink:href="#DejaVuSans-Bold-58" x="675.683594"/>
      <use xlink:href="#DejaVuSans-Bold-20" x="752.783203"/>
      <use xlink:href="#DejaVuSans-Bold-70" x="787.597656"/>
      <use xlink:href="#DejaVuSans-Bold-6f" x="859.179688"/>
      <use xlink:href="#DejaVuSans-Bold-73" x="927.880859"/>
      <use xlink:href="#DejaVuSans-Bold-69" x="987.402344"/>
      <use xlink:href="#DejaVuSans-Bold-74" x="1021.679688"/>
      <use xlink:href="#DejaVuSans-Bold-69" x="1069.482422"/>
      <use xlink:href="#DejaVuSans-Bold-6f" x="1103.759766"/>
      <use xlink:href="#DejaVuSans-Bold-6e" x="1172.460938"/>
     </g>
    </g>
   </g>
   <g id="matplotlib.axis_2">
    <g id="ytick_1">
     <g id="line2d_3">
      <defs>
       <path id="m62681b6765" d="M 0 0 
L -3.5 0 
" style="stroke: #000000; stroke-width: 0.8"/>
      </defs>
      <g>
       <use xlink:href="#m62681b6765" x="57.6" y="307.214913" style="stroke: #000000; stroke-width: 0.8"/>
      </g>
     </g>
     <g id="text_4">
      <!-- 0 -->
      <g transform="translate(37.875 314.81335)scale(0.2 -0.2)">
       <use xlink:href="#DejaVuSans-30"/>
      </g>
     </g>
    </g>
    <g id="ytick_2">
     <g id="line2d_4">
      <g>
       <use xlink:href="#m62681b6765" x="57.6" y="41.472" style="stroke: #000000; stroke-width: 0.8"/>
      </g>
     </g>
     <g id="text_5">
      <!-- 1 -->
      <g transform="translate(37.875 49.070437)scale(0.2 -0.2)">
       <use xlink:href="#DejaVuSans-31"/>
      </g>
     </g>
    </g>
    <g id="text_6">
     <!-- Normalised Y position -->
     <g transform="translate(29.715625 298.423313)rotate(-90)scale(0.2 -0.2)">
      <defs>
       <path id="DejaVuSans-Bold-59" d="M -63 4666 
L 1253 4666 
L 2316 3003 
L 3378 4666 
L 4697 4666 
L 2919 1966 
L 2919 0 
L 1716 0 
L 1716 1966 
L -63 4666 
z
" transform="scale(0.015625)"/>
      </defs>
      <use xlink:href="#DejaVuSans-Bold-4e"/>
      <use xlink:href="#DejaVuSans-Bold-6f" x="83.691406"/>
      <use xlink:href="#DejaVuSans-Bold-72" x="152.392578"/>
      <use xlink:href="#DejaVuSans-Bold-6d" x="201.708984"/>
      <use xlink:href="#DejaVuSans-Bold-61" x="305.908203"/>
      <use xlink:href="#DejaVuSans-Bold-6c" x="373.388672"/>
      <use xlink:href="#DejaVuSans-Bold-69" x="407.666016"/>
      <use xlink:href="#DejaVuSans-Bold-73" x="441.943359"/>
      <use xlink:href="#DejaVuSans-Bold-65" x="501.464844"/>
      <use xlink:href="#DejaVuSans-Bold-64" x="569.287109"/>
      <use xlink:href="#DejaVuSans-Bold-20" x="640.869141"/>
      <use xlink:href="#DejaVuSans-Bold-59" x="675.683594"/>
      <use xlink:href="#DejaVuSans-Bold-20" x="748.095703"/>
      <use xlink:href="#DejaVuSans-Bold-70" x="782.910156"/>
      <use xlink:href="#DejaVuSans-Bold-6f" x="854.492188"/>
      <use xlink:href="#DejaVuSans-Bold-73" x="923.193359"/>
      <use xlink:href="#DejaVuSans-Bold-69" x="982.714844"/>
      <use xlink:href="#DejaVuSans-Bold-74" x="1016.992188"/>
      <use xlink:href="#DejaVuSans-Bold-69" x="1064.794922"/>
      <use xlink:href="#DejaVuSans-Bold-6f" x="1099.072266"/>
      <use xlink:href="#DejaVuSans-Bold-6e" x="1167.773438"/>
     </g>
    </g>
   </g>
   <g id="line2d_5">
    <path d="M 278.951394 182.860857 
L 278.776378 182.009117 
L 278.951394 180.873464 
L 279.826474 180.021724 
L 281.051585 179.453897 
L 282.976761 179.169984 
L 284.901936 179.169984 
L 288.227238 178.03433 
L 289.45235 177.18259 
L 290.152414 176.33085 
L 291.027493 175.763023 
L 292.427621 175.47911 
L 293.652732 175.47911 
L 296.277971 174.911283 
L 297.328067 174.343456 
L 298.378162 174.059543 
L 301.703465 173.491716 
L 301.878481 173.207803 
L 301.528449 172.923889 
L 300.478353 172.639976 
L 298.90321 172.356063 
L 297.503083 172.356063 
L 294.877844 171.788236 
L 294.17778 172.072149 
L 294.877844 172.072149 
L 295.577907 172.923889 
L 296.102955 173.207803 
L 299.428258 176.046937 
L 303.453624 176.046937 
L 303.978672 174.62737 
L 307.654006 175.195196 
L 308.004038 173.207803 
L 309.404166 172.072149 
L 310.629277 170.652583 
L 311.854389 169.516929 
L 313.604548 168.381276 
L 315.179691 168.097362 
L 317.279882 168.665189 
L 318.329978 169.800842 
L 318.68001 171.504323 
L 318.329978 172.356063 
L 317.104866 172.923889 
L 315.529723 173.207803 
L 314.304612 173.77563 
L 309.22915 173.77563 
L 306.953943 174.343456 
L 301.353433 174.911283 
L 298.378162 175.47911 
L 295.227876 178.318243 
L 291.727557 179.169984 
L 288.402254 179.453897 
L 272.125773 179.453897 
L 268.450439 179.169984 
L 265.650184 179.169984 
L 261.449802 178.602157 
L 258.474531 178.602157 
L 254.799196 178.03433 
L 250.77383 177.18259 
L 246.748464 176.898677 
L 238.522715 175.763023 
L 234.847381 175.763023 
L 231.522078 174.911283 
L 228.196775 174.911283 
L 225.746552 175.195196 
L 223.996393 175.763023 
L 222.42125 175.195196 
L 219.971027 173.207803 
L 218.395883 172.356063 
L 215.94566 171.220409 
L 213.670453 169.516929 
L 211.045214 167.813449 
L 207.36988 166.961709 
L 203.51953 165.542142 
L 201.419338 164.406488 
L 199.319147 163.554748 
L 195.118765 162.135181 
L 193.018574 161.851268 
L 190.918383 161.283441 
L 188.993208 160.999528 
L 186.017937 160.715615 
L 183.392698 160.147788 
L 180.942475 159.296048 
L 179.892379 158.728221 
L 178.667268 157.592568 
L 178.317236 156.456914 
L 178.492252 156.456914 
L 179.0173 155.605174 
L 179.367332 155.605174 
L 179.542347 155.321261 
L 180.067395 154.753434 
L 179.892379 154.185607 
L 179.0173 153.333867 
L 179.192316 152.198214 
L 179.0173 151.630387 
L 178.667268 151.06256 
L 177.792188 150.21082 
L 177.442156 149.642993 
L 177.092124 149.642993 
L 176.917109 149.35908 
L 176.917109 149.35908 
L 177.092124 149.35908 
L 177.442156 149.642993 
L 179.542347 150.21082 
L 181.117491 150.778647 
L 183.217682 151.346473 
L 184.792825 151.346473 
L 187.068032 151.9143 
L 190.743367 152.198214 
L 193.718638 152.198214 
L 196.168861 151.9143 
L 197.91902 151.9143 
L 200.369243 152.198214 
L 201.594354 151.9143 
L 201.069307 151.06256 
L 200.019211 150.494733 
L 196.343877 149.35908 
L 192.31851 148.50734 
L 187.943112 147.371686 
L 182.692634 146.236033 
L 176.742093 145.100379 
L 173.766822 144.248639 
L 150.839735 139.422112 
L 141.213859 137.718632 
L 132.638079 136.582978 
L 123.187219 135.731238 
L 114.436422 135.163412 
L 106.735722 134.879498 
L 95.009654 134.879498 
L 85.208763 135.447325 
L 81.533428 136.299065 
L 78.733173 138.286459 
L 76.457966 138.854285 
L 74.882823 139.422112 
L 73.832727 140.273852 
L 74.007743 140.841679 
L 76.28295 142.545159 
L 82.75854 143.680813 
L 93.609527 145.100379 
L 107.085753 145.952119 
L 113.911375 145.952119 
L 121.43706 145.100379 
L 126.337506 144.248639 
L 130.88792 143.964726 
L 137.888557 143.112986 
L 146.989385 141.125592 
L 150.839735 139.989939 
L 156.090213 138.002545 
L 160.11558 137.150805 
L 163.96593 136.015152 
L 167.466248 134.595585 
L 174.816917 130.620798 
L 178.842284 128.065577 
L 181.292507 126.362097 
L 187.068032 123.806877 
L 190.218319 122.955137 
L 195.993845 121.819483 
L 198.269052 121.251656 
L 199.844195 120.68383 
L 202.469434 120.116003 
L 206.4948 119.548176 
L 209.295055 119.548176 
L 211.570262 119.264263 
L 213.845469 118.696436 
L 215.595629 117.844696 
L 217.170772 117.276869 
L 218.395883 116.425129 
L 219.971027 115.857302 
L 221.896202 114.437736 
L 221.371154 113.302082 
L 222.596266 112.450342 
L 223.121313 111.882515 
L 224.346425 110.746862 
L 224.696457 109.895122 
L 224.696457 107.623815 
L 225.221505 104.784681 
L 225.571536 103.649028 
L 226.446616 102.229461 
L 229.771919 98.254674 
L 230.646998 97.11902 
L 230.99703 95.983367 
L 231.522078 95.131627 
L 230.121951 93.71206 
L 229.246871 92.86032 
L 228.021759 92.292493 
L 227.14668 91.724666 
L 221.371154 89.169446 
L 219.270963 87.749879 
L 213.670453 86.046399 
L 210.520167 85.194659 
L 206.844832 83.491178 
L 203.869561 83.491178 
L 201.069307 82.071612 
L 199.669179 81.503785 
L 198.794099 81.503785 
L 198.794099 80.652045 
L 198.094036 80.368131 
L 198.094036 80.084218 
L 198.094036 80.084218 
" clip-path="url(#p212b1c4287)" style="fill: none; stroke: #000000; stroke-width: 1.5; stroke-linecap: square"/>
   </g>
   <g id="line2d_6">
    <path d="M 278.951394 182.860857 
" clip-path="url(#p212b1c4287)" style="fill: none; stroke: #000000; stroke-width: 1.5; stroke-linecap: square"/>
    <defs>
     <path id="m9f6cafd223" d="M 0 5 
C 1.326016 5 2.597899 4.473168 3.535534 3.535534 
C 4.473168 2.597899 5 1.326016 5 0 
C 5 -1.326016 4.473168 -2.597899 3.535534 -3.535534 
C 2.597899 -4.473168 1.326016 -5 0 -5 
C -1.326016 -5 -2.597899 -4.473168 -3.535534 -3.535534 
C -4.473168 -2.597899 -5 -1.326016 -5 0 
C -5 1.326016 -4.473168 2.597899 -3.535534 3.535534 
C -2.597899 4.473168 -1.326016 5 0 5 
z
" style="stroke: #000000"/>
    </defs>
    <g clip-path="url(#p212b1c4287)">
     <use xlink:href="#m9f6cafd223" x="278.951394" y="182.860857" style="stroke: #000000"/>
    </g>
   </g>
   <g id="line2d_7">
    <path d="M 198.094036 80.084218 
" clip-path="url(#p212b1c4287)" style="fill: none; stroke: #000000; stroke-width: 1.5; stroke-linecap: square"/>
    <defs>
     <path id="ma6b8cc189c" d="M -5 5 
L 5 5 
L 5 -5 
L -5 -5 
z
" style="stroke: #000000; stroke-linejoin: miter"/>
    </defs>
    <g clip-path="url(#p212b1c4287)">
     <use xlink:href="#ma6b8cc189c" x="198.094036" y="80.084218" style="stroke: #000000; stroke-linejoin: miter"/>
    </g>
   </g>
   <g id="line2d_8">
    <path d="M 211.395246 72.986384 
L 211.22023 73.270297 
L 211.22023 73.270297 
L 211.745278 73.554211 
L 211.920294 73.838124 
L 211.745278 73.838124 
L 211.920294 73.838124 
L 211.920294 73.838124 
L 211.920294 74.122037 
L 211.570262 74.122037 
L 211.22023 74.122037 
L 211.045214 74.122037 
L 210.695183 74.122037 
L 210.345151 74.122037 
L 209.820103 74.122037 
L 209.470071 74.122037 
L 208.770007 73.838124 
L 208.24496 73.554211 
L 208.419975 73.554211 
L 208.069944 73.554211 
L 208.24496 73.554211 
L 208.770007 73.554211 
L 209.295055 73.554211 
L 209.820103 73.838124 
L 210.870198 74.122037 
L 212.97039 74.689864 
L 215.420613 75.825518 
L 218.220867 76.961171 
L 220.846106 77.812911 
L 223.646361 79.232478 
L 227.321696 81.219872 
L 230.296966 83.207265 
L 233.622269 85.762485 
L 237.297604 88.317706 
L 240.797922 90.872926 
L 244.473257 93.71206 
L 248.848655 96.835107 
L 253.224053 99.958154 
L 257.424435 103.081201 
L 260.749738 105.352508 
L 262.674913 110.179035 
L 264.07504 116.141216 
L 265.475168 121.819483 
L 266.700279 126.64601 
L 268.100407 131.188624 
L 269.500534 136.015152 
L 271.250693 139.989939 
L 274.225964 144.248639 
L 277.201235 148.791253 
L 279.476442 152.482127 
L 281.926665 155.605174 
L 284.72692 157.876481 
L 287.177143 159.863875 
L 288.927302 161.567355 
L 291.027493 163.270835 
L 292.427621 164.406488 
L 293.127684 164.974315 
L 293.827748 165.542142 
L 294.702828 166.109969 
L 296.102955 166.961709 
L 296.978035 168.097362 
L 297.328067 169.233016 
L 297.678099 170.368669 
L 297.503083 171.504323 
L 296.978035 172.356063 
L 296.978035 173.207803 
L 296.452987 174.343456 
L 296.102955 175.195196 
L 296.452987 176.33085 
L 296.628003 177.18259 
L 296.277971 177.466503 
L 296.277971 177.750417 
L 295.227876 178.03433 
L 295.05286 178.318243 
L 294.002764 178.602157 
L 293.652732 178.318243 
L 293.477716 179.169984 
L 292.427621 179.453897 
L 292.427621 179.453897 
L 292.602637 180.021724 
L 294.002764 180.58955 
L 294.877844 180.873464 
L 295.227876 181.441291 
L 295.577907 182.293031 
L 294.877844 182.576944 
L 294.352796 182.860857 
L 294.002764 183.144771 
L 293.652732 183.144771 
L 293.3027 182.860857 
L 292.777653 183.428684 
L 292.602637 182.860857 
L 292.077589 182.860857 
L 291.202509 182.860857 
L 290.852477 182.576944 
L 290.152414 182.576944 
L 289.627366 183.712597 
L 289.277334 183.712597 
L 288.927302 183.996511 
L 288.052222 185.132164 
L 287.352159 184.280424 
L 287.352159 185.416078 
L 287.002127 185.132164 
L 286.302063 185.132164 
" clip-path="url(#p212b1c4287)" style="fill: none; stroke: #ffa07a; stroke-width: 1.5; stroke-linecap: square"/>
   </g>
   <g id="line2d_9">
    <path d="M 211.395246 72.986384 
" clip-path="url(#p212b1c4287)" style="fill: none; stroke: #ffa07a; stroke-width: 1.5; stroke-linecap: square"/>
    <defs>
     <path id="m6b512c4cf9" d="M 0 5 
C 1.326016 5 2.597899 4.473168 3.535534 3.535534 
C 4.473168 2.597899 5 1.326016 5 0 
C 5 -1.326016 4.473168 -2.597899 3.535534 -3.535534 
C 2.597899 -4.473168 1.326016 -5 0 -5 
C -1.326016 -5 -2.597899 -4.473168 -3.535534 -3.535534 
C -4.473168 -2.597899 -5 -1.326016 -5 0 
C -5 1.326016 -4.473168 2.597899 -3.535534 3.535534 
C -2.597899 4.473168 -1.326016 5 0 5 
z
" style="stroke: #ffa07a"/>
    </defs>
    <g clip-path="url(#p212b1c4287)">
     <use xlink:href="#m6b512c4cf9" x="211.395246" y="72.986384" style="fill: #ffa07a; stroke: #ffa07a"/>
    </g>
   </g>
   <g id="line2d_10">
    <path d="M 286.302063 185.132164 
" clip-path="url(#p212b1c4287)" style="fill: none; stroke: #ffa07a; stroke-width: 1.5; stroke-linecap: square"/>
    <defs>
     <path id="mb3e6e91e36" d="M -5 5 
L 5 5 
L 5 -5 
L -5 -5 
z
" style="stroke: #ffa07a; stroke-linejoin: miter"/>
    </defs>
    <g clip-path="url(#p212b1c4287)">
     <use xlink:href="#mb3e6e91e36" x="286.302063" y="185.132164" style="fill: #ffa07a; stroke: #ffa07a; stroke-linejoin: miter"/>
    </g>
   </g>
   <g id="line2d_11">
    <path d="M 336.881666 55.383755 
L 332.156236 70.99899 
L 329.706013 80.652045 
L 326.555727 89.453359 
L 322.53036 102.229461 
L 317.979946 112.734255 
L 315.879755 124.658617 
L 312.379436 136.299065 
L 310.454261 147.371686 
L 309.404166 157.024741 
L 310.279245 165.542142 
L 312.904484 173.207803 
L 316.404803 179.73781 
L 320.955217 185.416078 
L 324.105504 187.971298 
L 331.106141 193.933479 
L 332.331252 195.636959 
L 336.006587 197.908266 
L 337.756746 199.327833 
L 338.806841 199.327833 
L 339.331889 198.192179 
L 340.206969 195.636959 
L 341.082049 193.649565 
L 342.132144 191.662172 
L 344.582367 187.403471 
L 346.857574 185.699991 
L 349.657829 184.280424 
L 354.733291 181.441291 
L 356.833482 181.441291 
L 359.283705 182.009117 
L 365.759294 184.848251 
L 369.784661 186.835645 
L 374.160059 188.823038 
L 378.360441 190.526518 
L 380.460632 191.946085 
L 383.260887 194.217392 
L 384.135967 196.204786 
L 382.210791 197.908266 
L 380.460632 199.611746 
L 377.660377 200.7474 
L 374.510091 202.166966 
L 371.359804 203.30262 
L 367.334438 203.870447 
L 362.433992 203.30262 
L 355.083323 202.166966 
L 350.88294 201.031313 
L 345.982494 200.179573 
L 337.056682 199.043919 
L 326.905758 196.772612 
L 318.68001 194.217392 
L 315.179691 192.797825 
L 312.029405 191.662172 
L 309.22915 190.526518 
L 306.428895 189.958692 
L 298.728194 189.958692 
L 297.678099 189.390865 
L 296.628003 189.390865 
L 294.527812 188.823038 
L 292.952668 189.106951 
L 292.427621 189.390865 
L 289.977398 189.390865 
L 289.102318 189.106951 
L 288.57727 189.106951 
L 288.227238 188.823038 
L 288.57727 188.255211 
L 289.802382 187.119558 
L 290.852477 187.119558 
L 291.027493 186.835645 
L 293.652732 187.403471 
L 294.352796 187.119558 
L 295.752923 185.983904 
L 295.752923 185.132164 
L 294.002764 184.280424 
L 292.602637 183.712597 
L 289.977398 182.009117 
L 286.302063 179.169984 
L 285.076952 178.318243 
L 281.751649 176.898677 
L 280.701554 176.614763 
L 280.351522 176.046937 
L 277.026219 173.491716 
L 275.801108 173.207803 
L 273.875932 172.639976 
L 270.200598 172.072149 
L 267.575359 172.072149 
L 250.073766 170.368669 
L 239.922842 168.665189 
L 236.422524 168.381276 
L 232.747189 167.813449 
L 222.246234 166.961709 
L 218.920931 166.677795 
L 211.395246 166.677795 
L 211.395246 166.677795 
L 206.669816 167.245622 
L 202.119402 166.677795 
L 198.969115 166.109969 
L 195.293781 166.393882 
L 193.718638 166.961709 
L 192.31851 167.245622 
L 191.093399 168.665189 
L 189.518255 169.516929 
L 188.643176 168.949102 
L 188.818192 168.949102 
L 189.518255 169.233016 
L 190.393335 169.233016 
L 190.743367 168.949102 
L 190.918383 169.233016 
L 190.568351 168.949102 
L 190.743367 168.949102 
L 191.093399 168.381276 
L 191.618446 168.097362 
L 191.618446 166.961709 
L 192.143494 166.109969 
L 194.593717 164.406488 
L 195.293781 163.270835 
L 196.343877 160.999528 
L 196.168861 160.147788 
L 195.293781 159.012134 
L 190.393335 157.308654 
L 188.46816 156.740827 
L 185.667905 156.173001 
L 183.567714 156.173001 
L 179.367332 154.753434 
L 177.792188 155.037347 
L 174.29187 157.024741 
L 172.716726 157.592568 
L 171.491615 157.876481 
L 170.091487 157.876481 
L 169.56644 158.160394 
L 169.041392 158.728221 
L 168.69136 159.579961 
L 169.041392 160.147788 
L 169.56644 160.715615 
L 170.966567 160.999528 
L 175.166949 163.270835 
L 180.242411 167.529535 
L 181.467523 168.097362 
L 181.99257 168.949102 
L 183.567714 170.368669 
L 183.392698 170.652583 
L 183.567714 170.368669 
L 184.442793 170.368669 
L 184.967841 169.800842 
L 185.492889 168.949102 
L 186.017937 167.813449 
L 188.643176 166.109969 
L 189.868287 165.258229 
L 191.968478 162.419095 
L 197.568988 159.012134 
L 201.069307 157.024741 
L 205.269689 155.037347 
L 209.295055 153.61778 
L 213.495437 151.9143 
L 219.620995 149.642993 
L 224.171409 148.223426 
L 229.246871 146.80386 
L 234.847381 145.952119 
L 240.097858 145.668206 
L 244.473257 145.100379 
L 244.473257 145.100379 
" clip-path="url(#p212b1c4287)" style="fill: none; stroke: #0000ff; stroke-width: 1.5; stroke-linecap: square"/>
   </g>
   <g id="line2d_12">
    <path d="M 336.881666 55.383755 
" clip-path="url(#p212b1c4287)" style="fill: none; stroke: #0000ff; stroke-width: 1.5; stroke-linecap: square"/>
    <defs>
     <path id="m33b14f9986" d="M 0 5 
C 1.326016 5 2.597899 4.473168 3.535534 3.535534 
C 4.473168 2.597899 5 1.326016 5 0 
C 5 -1.326016 4.473168 -2.597899 3.535534 -3.535534 
C 2.597899 -4.473168 1.326016 -5 0 -5 
C -1.326016 -5 -2.597899 -4.473168 -3.535534 -3.535534 
C -4.473168 -2.597899 -5 -1.326016 -5 0 
C -5 1.326016 -4.473168 2.597899 -3.535534 3.535534 
C -2.597899 4.473168 -1.326016 5 0 5 
z
" style="stroke: #0000ff"/>
    </defs>
    <g clip-path="url(#p212b1c4287)">
     <use xlink:href="#m33b14f9986" x="336.881666" y="55.383755" style="fill: #0000ff; stroke: #0000ff"/>
    </g>
   </g>
   <g id="line2d_13">
    <path d="M 244.473257 145.100379 
" clip-path="url(#p212b1c4287)" style="fill: none; stroke: #0000ff; stroke-width: 1.5; stroke-linecap: square"/>
    <defs>
     <path id="mca676f4a83" d="M -5 5 
L 5 5 
L 5 -5 
L -5 -5 
z
" style="stroke: #0000ff; stroke-linejoin: miter"/>
    </defs>
    <g clip-path="url(#p212b1c4287)">
     <use xlink:href="#mca676f4a83" x="244.473257" y="145.100379" style="fill: #0000ff; stroke: #0000ff; stroke-linejoin: miter"/>
    </g>
   </g>
   <g id="line2d_14">
    <path d="M 271.425709 157.876481 
L 272.125773 158.444308 
L 272.125773 159.012134 
L 271.775741 159.012134 
L 271.425709 159.012134 
L 270.900662 159.012134 
L 270.55063 158.728221 
L 270.025582 159.012134 
L 269.325518 159.012134 
L 269.325518 159.296048 
L 269.325518 159.579961 
L 269.150502 159.579961 
L 269.325518 159.579961 
L 269.67555 159.579961 
L 269.850566 159.579961 
L 270.725646 159.296048 
L 271.425709 159.579961 
L 271.950757 159.579961 
L 272.300789 159.579961 
L 273.175869 160.147788 
L 273.875932 159.863875 
L 274.575996 159.863875 
L 275.451076 160.147788 
L 275.801108 160.431701 
L 275.976123 160.715615 
L 276.151139 160.999528 
L 276.501171 161.283441 
L 276.326155 161.567355 
L 276.151139 161.567355 
L 275.451076 161.567355 
L 274.575996 161.567355 
L 273.525901 162.419095 
L 273.000853 162.986922 
L 272.475805 162.703008 
L 271.600725 161.851268 
L 270.900662 160.999528 
L 269.850566 160.147788 
L 268.450439 159.012134 
L 267.400343 158.444308 
L 266.525263 157.592568 
L 264.600088 157.024741 
L 262.849929 157.024741 
L 259.699642 157.024741 
L 256.549356 156.456914 
L 254.974212 156.456914 
L 250.073766 155.889087 
L 248.148591 155.321261 
L 241.848018 154.185607 
L 237.647635 153.901694 
L 235.72246 153.901694 
L 229.246871 152.482127 
L 227.671728 152.482127 
L 224.171409 152.198214 
L 219.620995 151.630387 
L 215.595629 151.346473 
L 211.22023 151.06256 
L 207.544896 151.06256 
L 204.744641 150.778647 
L 201.76937 150.21082 
L 199.669179 150.21082 
L 197.04394 150.494733 
L 194.243685 151.06256 
L 191.618446 151.630387 
L 188.818192 151.630387 
L 186.367969 151.630387 
L 183.567714 151.346473 
L 180.767459 151.06256 
L 178.317236 151.346473 
L 175.516981 151.346473 
L 173.941838 151.06256 
L 171.491615 150.21082 
L 170.791551 150.21082 
L 167.81628 150.494733 
L 164.665994 151.630387 
L 161.865739 151.346473 
L 159.765548 151.06256 
L 158.36542 151.06256 
L 157.140309 151.346473 
L 154.690086 152.198214 
L 153.464974 152.482127 
L 150.139672 152.482127 
" clip-path="url(#p212b1c4287)" style="fill: none; stroke: #00fa9a; stroke-width: 1.5; stroke-linecap: square"/>
   </g>
   <g id="line2d_15">
    <path d="M 271.425709 157.876481 
" clip-path="url(#p212b1c4287)" style="fill: none; stroke: #00fa9a; stroke-width: 1.5; stroke-linecap: square"/>
    <defs>
     <path id="m79659be759" d="M 0 5 
C 1.326016 5 2.597899 4.473168 3.535534 3.535534 
C 4.473168 2.597899 5 1.326016 5 0 
C 5 -1.326016 4.473168 -2.597899 3.535534 -3.535534 
C 2.597899 -4.473168 1.326016 -5 0 -5 
C -1.326016 -5 -2.597899 -4.473168 -3.535534 -3.535534 
C -4.473168 -2.597899 -5 -1.326016 -5 0 
C -5 1.326016 -4.473168 2.597899 -3.535534 3.535534 
C -2.597899 4.473168 -1.326016 5 0 5 
z
" style="stroke: #00fa9a"/>
    </defs>
    <g clip-path="url(#p212b1c4287)">
     <use xlink:href="#m79659be759" x="271.425709" y="157.876481" style="fill: #00fa9a; stroke: #00fa9a"/>
    </g>
   </g>
   <g id="line2d_16">
    <path d="M 150.139672 152.482127 
" clip-path="url(#p212b1c4287)" style="fill: none; stroke: #00fa9a; stroke-width: 1.5; stroke-linecap: square"/>
    <defs>
     <path id="m243b159297" d="M -5 5 
L 5 5 
L 5 -5 
L -5 -5 
z
" style="stroke: #00fa9a; stroke-linejoin: miter"/>
    </defs>
    <g clip-path="url(#p212b1c4287)">
     <use xlink:href="#m243b159297" x="150.139672" y="152.482127" style="fill: #00fa9a; stroke: #00fa9a; stroke-linejoin: miter"/>
    </g>
   </g>
   <g id="line2d_17">
    <path d="M 214.370517 286.77315 
L 218.220867 288.47663 
L 221.021122 290.747937 
L 222.771282 291.883591 
L 226.2716 291.883591 
L 227.671728 290.464024 
L 228.721823 290.464024 
L 229.071855 290.747937 
L 230.471982 290.747937 
L 230.822014 291.599677 
L 230.121951 291.883591 
L 229.946935 292.167504 
L 229.421887 291.599677 
L 229.071855 291.883591 
L 228.021759 291.315764 
L 226.971664 290.464024 
L 226.971664 291.031851 
L 226.796648 290.747937 
L 227.14668 290.464024 
L 228.021759 290.180111 
L 231.697094 290.747937 
L 237.997667 290.747937 
L 243.773193 290.180111 
L 249.023671 294.722724 
L 259.699642 295.574465 
L 264.07504 294.154898 
L 269.500534 291.883591 
L 275.27606 289.896197 
L 281.401617 287.62489 
L 287.002127 284.501843 
L 293.477716 281.378796 
L 299.603274 277.687922 
L 306.078863 273.997049 
L 312.029405 270.306175 
L 315.529723 266.047474 
L 320.955217 260.369207 
L 328.655918 255.258766 
L 333.556364 252.419633 
L 336.006587 251.283979 
L 339.681921 248.728759 
L 342.482176 247.025279 
L 343.882303 245.321798 
L 344.757383 243.618318 
L 344.932399 241.914838 
L 344.757383 240.495271 
L 344.057319 239.359618 
L 343.007224 239.927444 
L 342.657192 235.668744 
L 341.782112 232.82961 
L 340.557001 229.706563 
L 340.206969 229.138736 
L 338.806841 228.286996 
L 337.756746 226.583516 
L 336.531634 225.163949 
L 335.831571 224.028296 
L 335.831571 222.608729 
L 336.356618 221.473075 
L 337.406714 220.053509 
L 338.806841 218.917855 
L 340.732017 217.782202 
L 343.532272 216.930462 
L 348.957765 214.659155 
L 352.108052 212.387848 
L 354.383259 210.400454 
L 360.683832 205.290013 
L 362.784024 203.870447 
L 364.884215 201.315226 
L 366.109326 200.463486 
L 366.459358 199.611746 
L 366.459358 198.760006 
L 366.284342 197.624353 
L 367.159422 196.488699 
L 368.209517 195.353046 
L 367.509454 193.933479 
L 367.334438 192.513912 
L 366.634374 190.526518 
L 365.759294 188.539125 
L 365.409262 186.835645 
L 364.359167 184.848251 
L 363.659103 183.144771 
L 362.609008 181.441291 
L 361.733928 178.88607 
L 360.858848 175.195196 
L 358.933673 172.072149 
L 357.708562 170.652583 
L 355.783386 169.233016 
L 354.383259 168.381276 
L 352.108052 166.677795 
L 351.583004 165.826055 
L 350.88294 164.974315 
L 349.482813 163.838662 
L 348.432717 162.703008 
L 347.557638 161.567355 
L 346.682558 161.283441 
L 345.457447 159.296048 
L 344.757383 158.728221 
L 343.532272 157.308654 
L 341.082049 155.321261 
L 339.856937 155.037347 
L 338.631826 154.469521 
L 335.656555 153.333867 
L 334.256427 152.76604 
L 332.156236 151.346473 
L 330.756109 150.778647 
L 329.00595 149.926907 
L 327.780838 149.075167 
L 326.555727 148.50734 
L 325.855663 147.6556 
L 325.330615 146.80386 
L 324.980583 145.668206 
L 324.980583 143.680813 
L 324.630551 143.112986 
L 324.280519 142.829072 
L 323.755472 141.977332 
L 323.230424 141.409506 
L 322.180328 140.841679 
L 320.780201 140.557765 
L 319.380074 139.989939 
L 317.629914 139.706025 
L 316.229787 139.138199 
L 312.379436 138.286459 
L 311.329341 138.286459 
L 309.929213 138.002545 
L 309.054134 137.434718 
L 307.829022 136.866892 
L 307.47899 136.015152 
L 307.654006 135.731238 
L 307.654006 135.163412 
L 308.179054 134.879498 
L 308.179054 134.311671 
L 308.529086 133.743845 
L 308.529086 133.459931 
L 308.35407 132.892105 
L 308.35407 132.324278 
L 308.529086 131.472538 
L 308.35407 131.188624 
L 308.35407 131.188624 
L 308.35407 130.620798 
L 308.529086 130.620798 
L 308.35407 130.336884 
L 308.179054 130.336884 
L 307.654006 129.485144 
L 306.778927 128.633404 
L 306.953943 128.349491 
L 307.829022 127.497751 
L 308.529086 127.213837 
L 309.22915 126.64601 
L 309.579182 126.078184 
L 311.504357 124.94253 
L 312.904484 124.374704 
L 313.95458 123.806877 
L 315.529723 123.806877 
L 317.629914 123.23905 
L 318.504994 123.522963 
L 319.555089 123.522963 
L 320.080137 124.374704 
L 321.130233 124.09079 
L 322.705376 122.955137 
L 323.580456 122.38731 
L 324.805567 121.819483 
L 324.805567 121.819483 
" clip-path="url(#p212b1c4287)" style="fill: none; stroke: #008000; stroke-width: 1.5; stroke-linecap: square"/>
   </g>
   <g id="line2d_18">
    <path d="M 214.370517 286.77315 
" clip-path="url(#p212b1c4287)" style="fill: none; stroke: #008000; stroke-width: 1.5; stroke-linecap: square"/>
    <defs>
     <path id="me6a311b7df" d="M 0 5 
C 1.326016 5 2.597899 4.473168 3.535534 3.535534 
C 4.473168 2.597899 5 1.326016 5 0 
C 5 -1.326016 4.473168 -2.597899 3.535534 -3.535534 
C 2.597899 -4.473168 1.326016 -5 0 -5 
C -1.326016 -5 -2.597899 -4.473168 -3.535534 -3.535534 
C -4.473168 -2.597899 -5 -1.326016 -5 0 
C -5 1.326016 -4.473168 2.597899 -3.535534 3.535534 
C -2.597899 4.473168 -1.326016 5 0 5 
z
" style="stroke: #008000"/>
    </defs>
    <g clip-path="url(#p212b1c4287)">
     <use xlink:href="#me6a311b7df" x="214.370517" y="286.77315" style="fill: #008000; stroke: #008000"/>
    </g>
   </g>
   <g id="line2d_19">
    <path d="M 324.805567 121.819483 
" clip-path="url(#p212b1c4287)" style="fill: none; stroke: #008000; stroke-width: 1.5; stroke-linecap: square"/>
    <defs>
     <path id="m734b0cc873" d="M -5 5 
L 5 5 
L 5 -5 
L -5 -5 
z
" style="stroke: #008000; stroke-linejoin: miter"/>
    </defs>
    <g clip-path="url(#p212b1c4287)">
     <use xlink:href="#m734b0cc873" x="324.805567" y="121.819483" style="fill: #008000; stroke: #008000; stroke-linejoin: miter"/>
    </g>
   </g>
   <g id="line2d_20">
    <path d="M 312.729468 136.299065 
L 313.0795 137.434718 
L 313.604548 138.286459 
L 314.304612 138.570372 
L 315.179691 139.138199 
L 315.004675 139.138199 
L 315.529723 139.706025 
L 316.229787 139.989939 
L 316.404803 140.273852 
L 316.404803 140.841679 
L 315.704739 141.409506 
L 315.704739 141.693419 
L 316.229787 142.545159 
L 316.579819 142.829072 
L 321.830296 145.668206 
L 322.005312 146.236033 
L 322.880392 147.6556 
L 323.230424 148.791253 
L 323.055408 149.926907 
L 322.355344 151.06256 
L 321.130233 152.482127 
L 317.629914 155.037347 
L 316.054771 156.456914 
L 313.604548 158.444308 
L 310.804293 160.431701 
L 307.303975 162.135181 
L 303.103592 163.554748 
L 299.603274 165.542142 
L 295.577907 167.529535 
L 290.677461 169.516929 
L 286.127047 171.788236 
L 280.351522 173.207803 
L 274.751012 174.911283 
L 269.325518 177.18259 
L 255.849292 180.021724 
L 240.622906 182.293031 
L 234.497349 183.996511 
L 227.14668 184.280424 
L 220.846106 184.848251 
L 206.844832 186.551731 
L 201.069307 187.403471 
L 188.46816 188.539125 
L 181.817555 190.242605 
L 169.56644 191.946085 
L 164.84101 192.797825 
L 160.11558 192.797825 
L 155.565165 191.662172 
L 150.839735 190.242605 
L 142.789003 187.971298 
L 139.288684 186.835645 
L 132.638079 185.132164 
L 129.837824 184.280424 
L 127.212585 183.996511 
L 122.662171 182.860857 
L 120.56198 182.009117 
L 118.811821 181.441291 
L 117.061661 181.157377 
L 115.311502 180.58955 
L 114.086391 180.873464 
L 112.861279 180.873464 
L 111.986199 181.157377 
L 111.986199 182.009117 
L 112.511247 182.860857 
L 113.736359 183.712597 
L 115.136486 184.280424 
L 118.811821 187.687385 
L 122.662171 189.958692 
L 125.112394 191.946085 
L 125.987474 193.365652 
L 127.562617 194.785219 
L 128.787728 196.204786 
L 131.938015 198.476093 
L 132.463063 199.327833 
L 133.338143 200.179573 
L 133.513159 200.7474 
L 133.513159 202.166966 
L 133.688174 203.30262 
L 133.86319 203.586533 
L 133.513159 204.15436 
L 131.762999 204.15436 
L 130.187856 203.586533 
L 128.962744 202.45088 
L 129.13776 202.45088 
L 129.13776 202.166966 
L 129.13776 202.166966 
L 129.312776 201.883053 
L 131.587983 203.30262 
L 133.513159 204.15436 
L 133.338143 204.438273 
L 133.688174 205.0061 
L 133.163127 205.290013 
L 133.338143 205.85784 
L 133.163127 206.141754 
L 131.938015 206.141754 
L 131.237951 206.425667 
L 130.01284 206.70958 
L 128.787728 207.277407 
L 127.737633 210.400454 
L 127.387601 210.684367 
L 127.037569 210.684367 
L 127.212585 211.536108 
L 127.387601 211.820021 
L 128.262681 212.671761 
L 128.787728 213.239588 
L 130.187856 214.091328 
L 130.537888 214.659155 
L 131.412967 215.510895 
L 131.587983 216.078721 
L 131.062936 218.066115 
L 131.062936 218.917855 
L 130.537888 219.769595 
L 129.662808 220.621335 
L 129.487792 220.905249 
L 128.787728 221.189162 
L 128.612713 221.473075 
L 128.612713 223.176556 
L 129.662808 224.312209 
L 129.662808 224.312209 
" clip-path="url(#p212b1c4287)" style="fill: none; stroke: #ffd700; stroke-width: 1.5; stroke-linecap: square"/>
   </g>
   <g id="line2d_21">
    <path d="M 312.729468 136.299065 
" clip-path="url(#p212b1c4287)" style="fill: none; stroke: #ffd700; stroke-width: 1.5; stroke-linecap: square"/>
    <defs>
     <path id="m750f761bd1" d="M 0 5 
C 1.326016 5 2.597899 4.473168 3.535534 3.535534 
C 4.473168 2.597899 5 1.326016 5 0 
C 5 -1.326016 4.473168 -2.597899 3.535534 -3.535534 
C 2.597899 -4.473168 1.326016 -5 0 -5 
C -1.326016 -5 -2.597899 -4.473168 -3.535534 -3.535534 
C -4.473168 -2.597899 -5 -1.326016 -5 0 
C -5 1.326016 -4.473168 2.597899 -3.535534 3.535534 
C -2.597899 4.473168 -1.326016 5 0 5 
z
" style="stroke: #ffd700"/>
    </defs>
    <g clip-path="url(#p212b1c4287)">
     <use xlink:href="#m750f761bd1" x="312.729468" y="136.299065" style="fill: #ffd700; stroke: #ffd700"/>
    </g>
   </g>
   <g id="line2d_22">
    <path d="M 129.662808 224.312209 
" clip-path="url(#p212b1c4287)" style="fill: none; stroke: #ffd700; stroke-width: 1.5; stroke-linecap: square"/>
    <defs>
     <path id="mabafc00053" d="M -5 5 
L 5 5 
L 5 -5 
L -5 -5 
z
" style="stroke: #ffd700; stroke-linejoin: miter"/>
    </defs>
    <g clip-path="url(#p212b1c4287)">
     <use xlink:href="#mabafc00053" x="129.662808" y="224.312209" style="fill: #ffd700; stroke: #ffd700; stroke-linejoin: miter"/>
    </g>
   </g>
   <g id="line2d_23">
    <path d="M 359.458721 210.116541 
L 358.583641 209.264801 
L 358.233609 208.980887 
L 357.35853 208.696974 
L 355.783386 208.696974 
L 355.258339 208.129147 
L 354.033227 208.129147 
L 353.333163 207.845234 
L 351.407988 207.845234 
L 349.482813 207.277407 
L 348.782749 206.993494 
L 347.90767 206.425667 
L 347.382622 205.573927 
L 346.857574 205.573927 
L 346.15751 204.722187 
L 344.757383 204.15436 
L 343.532272 203.30262 
L 342.132144 202.166966 
L 338.806841 200.463486 
L 337.58173 199.895659 
L 333.73138 199.043919 
L 332.156236 198.476093 
L 330.756109 198.476093 
L 328.655918 198.192179 
L 326.555727 198.192179 
L 324.105504 197.908266 
L 315.529723 197.908266 
L 308.004038 197.340439 
L 299.078226 196.204786 
L 295.402891 195.353046 
L 291.902573 194.217392 
L 288.57727 192.513912 
L 285.076952 189.958692 
L 280.526538 188.823038 
L 274.926028 187.687385 
L 267.050311 187.971298 
L 261.09977 187.119558 
L 255.849292 185.699991 
L 244.823288 183.144771 
L 228.721823 180.58955 
L 223.121313 179.453897 
L 218.745915 178.88607 
L 209.820103 177.18259 
L 205.969753 176.046937 
L 202.119402 175.195196 
L 197.393972 173.491716 
L 194.418701 172.356063 
L 192.143494 171.788236 
L 186.893016 169.800842 
L 185.667905 168.949102 
L 183.392698 167.813449 
L 181.817555 167.245622 
L 179.892379 167.245622 
L 179.0173 167.529535 
L 177.792188 167.245622 
L 176.567077 167.245622 
L 174.641901 166.961709 
L 169.041392 166.961709 
L 165.541073 167.529535 
L 165.191041 167.529535 
L 163.96593 168.381276 
L 163.265866 168.665189 
L 162.215771 168.381276 
L 161.515707 167.245622 
L 161.515707 167.245622 
L 160.815643 166.677795 
L 160.290595 166.677795 
L 158.715452 166.109969 
L 156.965293 165.542142 
L 156.265229 164.974315 
L 153.464974 164.406488 
L 149.264592 163.270835 
L 140.688812 162.135181 
L 135.788366 160.715615 
L 134.038206 159.863875 
L 132.463063 158.728221 
L 131.062936 158.160394 
L 129.837824 157.308654 
L 128.437697 155.605174 
L 127.037569 152.482127 
L 125.462426 151.346473 
L 124.587346 150.778647 
L 122.312139 150.21082 
L 120.912012 149.642993 
L 115.486518 148.50734 
L 114.086391 147.939513 
L 112.861279 147.6556 
L 111.986199 147.087773 
L 110.23604 146.519946 
L 109.535976 145.952119 
L 108.310865 145.384293 
L 107.960833 144.816466 
L 107.610801 143.680813 
L 109.010929 142.545159 
L 109.710992 141.409506 
L 109.710992 140.841679 
L 109.886008 140.273852 
L 109.360961 138.854285 
L 108.835913 138.286459 
L 108.485881 138.286459 
L 107.610801 137.718632 
L 107.260769 137.718632 
L 104.810546 136.866892 
L 103.585435 136.299065 
L 101.135212 136.015152 
L 99.735085 134.879498 
L 97.809909 134.027758 
L 91.684352 132.324278 
L 90.45924 132.040364 
L 89.409145 132.040364 
L 88.884097 131.756451 
L 88.359049 131.756451 
L 88.534065 131.472538 
L 89.059113 130.336884 
L 90.809272 130.052971 
L 95.534702 130.052971 
L 97.459877 129.769058 
L 99.560069 129.769058 
L 102.010292 129.201231 
L 102.710355 129.201231 
L 103.585435 129.485144 
L 103.935467 129.769058 
L 104.635531 129.485144 
L 105.335594 129.769058 
L 106.210674 129.485144 
L 107.085753 129.769058 
L 107.610801 129.769058 
L 108.135849 130.336884 
L 108.135849 130.620798 
L 108.135849 130.620798 
L 108.310865 130.904711 
L 110.061024 132.324278 
L 110.761088 132.608191 
L 111.811184 132.608191 
L 112.686263 132.892105 
L 114.261407 132.892105 
L 116.186582 133.176018 
L 118.461789 132.892105 
L 121.43706 132.324278 
L 125.112394 132.040364 
L 125.112394 132.040364 
" clip-path="url(#p212b1c4287)" style="fill: none; stroke: #800080; stroke-width: 1.5; stroke-linecap: square"/>
   </g>
   <g id="line2d_24">
    <path d="M 359.458721 210.116541 
" clip-path="url(#p212b1c4287)" style="fill: none; stroke: #800080; stroke-width: 1.5; stroke-linecap: square"/>
    <defs>
     <path id="m471cbe00bb" d="M 0 5 
C 1.326016 5 2.597899 4.473168 3.535534 3.535534 
C 4.473168 2.597899 5 1.326016 5 0 
C 5 -1.326016 4.473168 -2.597899 3.535534 -3.535534 
C 2.597899 -4.473168 1.326016 -5 0 -5 
C -1.326016 -5 -2.597899 -4.473168 -3.535534 -3.535534 
C -4.473168 -2.597899 -5 -1.326016 -5 0 
C -5 1.326016 -4.473168 2.597899 -3.535534 3.535534 
C -2.597899 4.473168 -1.326016 5 0 5 
z
" style="stroke: #800080"/>
    </defs>
    <g clip-path="url(#p212b1c4287)">
     <use xlink:href="#m471cbe00bb" x="359.458721" y="210.116541" style="fill: #800080; stroke: #800080"/>
    </g>
   </g>
   <g id="line2d_25">
    <path d="M 125.112394 132.040364 
" clip-path="url(#p212b1c4287)" style="fill: none; stroke: #800080; stroke-width: 1.5; stroke-linecap: square"/>
    <defs>
     <path id="mdd8f9112e7" d="M -5 5 
L 5 5 
L 5 -5 
L -5 -5 
z
" style="stroke: #800080; stroke-linejoin: miter"/>
    </defs>
    <g clip-path="url(#p212b1c4287)">
     <use xlink:href="#mdd8f9112e7" x="125.112394" y="132.040364" style="fill: #800080; stroke: #800080; stroke-linejoin: miter"/>
    </g>
   </g>
   <g id="line2d_26">
    <path d="M 392.361715 223.176556 
L 394.111875 222.608729 
L 396.737113 220.337422 
L 398.487273 220.053509 
L 398.487273 213.239588 
L 398.312257 212.955674 
L 397.962225 211.820021 
L 396.212066 210.684367 
L 393.411811 209.548714 
L 391.836667 209.264801 
L 386.411174 209.264801 
L 383.610919 209.548714 
L 375.560186 209.548714 
L 371.709836 209.832627 
L 365.234247 209.264801 
L 352.108052 210.116541 
L 339.681921 208.980887 
L 334.431443 208.129147 
L 326.555727 207.56132 
L 322.180328 206.70958 
L 317.80493 205.573927 
L 313.254516 204.15436 
L 310.104229 202.734793 
L 306.603911 200.179573 
L 304.50372 198.760006 
L 299.253242 194.785219 
L 297.503083 192.797825 
L 294.877844 190.526518 
L 291.902573 188.539125 
L 288.57727 186.551731 
L 282.801745 182.576944 
L 277.026219 179.169984 
L 274.751012 178.318243 
L 272.125773 177.18259 
L 269.500534 176.33085 
L 267.225327 174.911283 
L 264.600088 173.491716 
L 262.149865 172.356063 
L 260.049674 172.072149 
L 258.124499 171.504323 
L 256.199324 171.220409 
L 254.799196 172.072149 
L 253.924117 171.504323 
L 250.248782 168.381276 
L 249.89875 167.529535 
L 250.073766 166.677795 
L 250.948846 166.393882 
L 251.998941 164.122575 
L 254.62418 157.308654 
L 254.62418 156.173001 
L 254.274148 155.037347 
L 253.749101 153.901694 
L 251.298878 151.06256 
L 250.423798 151.06256 
L 248.848655 146.236033 
L 247.273511 143.964726 
L 246.223416 141.977332 
L 244.123225 139.422112 
L 242.723097 138.570372 
L 238.872747 137.434718 
L 237.647635 137.434718 
L 237.472619 137.718632 
L 237.122588 138.002545 
L 236.422524 138.002545 
L 235.897476 138.286459 
L 235.197412 138.002545 
L 235.897476 138.286459 
L 236.772556 137.434718 
L 237.647635 136.015152 
L 239.047763 135.163412 
L 240.972938 133.459931 
L 242.198049 131.756451 
L 243.073129 129.769058 
L 243.948209 128.065577 
L 245.17332 126.64601 
L 245.873384 125.226444 
L 246.223416 123.522963 
L 247.098495 122.38731 
L 248.148591 121.251656 
L 249.023671 120.116003 
L 250.073766 119.264263 
L 250.948846 118.128609 
L 252.348973 117.560783 
L 252.874021 116.425129 
L 253.749101 115.573389 
L 254.449164 114.721649 
L 254.449164 114.437736 
L 253.924117 113.585996 
L 253.749101 113.585996 
L 253.574085 113.302082 
L 253.399069 113.302082 
L 252.173957 112.734255 
L 251.473894 112.734255 
L 250.77383 112.450342 
L 250.598814 112.166429 
L 250.073766 112.166429 
L 249.723734 111.882515 
L 249.89875 111.598602 
L 249.723734 111.598602 
L 249.89875 111.314689 
L 249.723734 111.030775 
L 249.723734 111.030775 
L 249.373703 110.746862 
L 249.373703 110.462948 
L 249.198687 110.179035 
L 248.673639 109.611208 
L 247.623543 108.759468 
L 247.273511 108.191642 
L 247.098495 107.623815 
L 247.098495 105.920335 
L 246.573448 103.649028 
L 246.223416 102.797288 
L 245.348336 102.229461 
L 245.348336 101.661634 
L 244.998304 101.093807 
L 244.998304 100.525981 
L 244.823288 99.958154 
L 244.823288 98.538587 
L 244.998304 97.686847 
L 244.823288 96.835107 
L 245.17332 95.983367 
L 245.348336 95.131627 
L 245.873384 94.5638 
L 246.223416 93.995973 
L 246.748464 92.292493 
L 247.098495 92.00858 
L 247.098495 91.440753 
L 247.623543 90.589013 
L 247.448527 90.021186 
L 247.448527 89.453359 
L 246.748464 88.601619 
L 246.0484 87.465966 
L 247.098495 85.762485 
L 247.623543 83.491178 
L 248.148591 82.355525 
L 248.848655 78.096824 
L 248.848655 78.096824 
" clip-path="url(#p212b1c4287)" style="fill: none; stroke: #87cefa; stroke-width: 1.5; stroke-linecap: square"/>
   </g>
   <g id="line2d_27">
    <path d="M 392.361715 223.176556 
" clip-path="url(#p212b1c4287)" style="fill: none; stroke: #87cefa; stroke-width: 1.5; stroke-linecap: square"/>
    <defs>
     <path id="m57b600b18a" d="M 0 5 
C 1.326016 5 2.597899 4.473168 3.535534 3.535534 
C 4.473168 2.597899 5 1.326016 5 0 
C 5 -1.326016 4.473168 -2.597899 3.535534 -3.535534 
C 2.597899 -4.473168 1.326016 -5 0 -5 
C -1.326016 -5 -2.597899 -4.473168 -3.535534 -3.535534 
C -4.473168 -2.597899 -5 -1.326016 -5 0 
C -5 1.326016 -4.473168 2.597899 -3.535534 3.535534 
C -2.597899 4.473168 -1.326016 5 0 5 
z
" style="stroke: #87cefa"/>
    </defs>
    <g clip-path="url(#p212b1c4287)">
     <use xlink:href="#m57b600b18a" x="392.361715" y="223.176556" style="fill: #87cefa; stroke: #87cefa"/>
    </g>
   </g>
   <g id="line2d_28">
    <path d="M 248.848655 78.096824 
" clip-path="url(#p212b1c4287)" style="fill: none; stroke: #87cefa; stroke-width: 1.5; stroke-linecap: square"/>
    <defs>
     <path id="mdb25385d0a" d="M -5 5 
L 5 5 
L 5 -5 
L -5 -5 
z
" style="stroke: #87cefa; stroke-linejoin: miter"/>
    </defs>
    <g clip-path="url(#p212b1c4287)">
     <use xlink:href="#mdb25385d0a" x="248.848655" y="78.096824" style="fill: #87cefa; stroke: #87cefa; stroke-linejoin: miter"/>
    </g>
   </g>
   <g id="line2d_29">
    <path d="M 223.121313 123.23905 
L 223.821377 123.522963 
L 224.521441 123.806877 
L 225.221505 123.806877 
L 226.096584 124.09079 
L 226.971664 124.374704 
L 227.496712 124.374704 
L 228.196775 124.374704 
L 229.246871 124.94253 
L 229.596903 124.94253 
L 229.946935 124.94253 
L 230.296966 125.226444 
L 230.99703 125.510357 
L 230.822014 125.510357 
L 230.99703 125.510357 
L 230.99703 125.510357 
L 230.471982 125.510357 
L 229.771919 125.226444 
L 229.596903 124.94253 
L 228.546807 124.658617 
L 227.14668 124.374704 
L 225.046489 124.09079 
L 223.471345 123.806877 
L 221.196138 123.23905 
L 219.620995 122.955137 
L 218.045852 122.955137 
L 216.120676 122.671223 
L 214.895565 122.38731 
L 213.495437 122.38731 
L 212.445342 122.103397 
L 211.045214 121.53557 
L 209.820103 120.68383 
L 209.645087 120.399916 
L 207.719912 119.548176 
L 206.669816 118.696436 
L 205.794737 118.412523 
L 204.394609 118.412523 
L 201.76937 118.412523 
L 199.494163 118.412523 
L 197.04394 118.696436 
L 194.068669 118.412523 
L 191.093399 118.412523 
L 187.943112 118.128609 
L 184.617809 117.560783 
L 181.117491 117.276869 
L 176.392061 116.425129 
L 173.591806 115.857302 
L 170.616535 115.289476 
L 167.291233 114.721649 
L 165.366057 114.437736 
L 163.09085 114.153822 
L 161.165675 113.869909 
L 160.640627 113.302082 
L 159.415516 113.018169 
L 159.2405 113.302082 
L 158.540436 113.869909 
L 157.140309 114.437736 
L 155.565165 115.005562 
L 152.939926 115.573389 
L 149.964656 116.141216 
L 146.814369 116.709043 
L 143.31405 116.992956 
L 139.638716 116.709043 
L 136.838461 116.709043 
L 133.86319 116.425129 
L 131.587983 115.857302 
L 130.537888 115.573389 
L 128.787728 115.005562 
L 127.387601 114.721649 
L 126.16249 114.153822 
L 124.937378 113.869909 
L 123.712267 113.585996 
L 122.837187 113.302082 
L 122.137123 113.302082 
L 121.262044 113.302082 
L 120.56198 113.302082 
L 120.036932 113.302082 
L 119.6869 113.302082 
L 119.336868 112.734255 
L 118.986837 112.450342 
L 118.636805 111.882515 
L 118.636805 111.598602 
L 118.461789 111.030775 
L 117.936741 110.462948 
L 117.411693 109.895122 
L 116.71163 109.327295 
L 115.311502 108.475555 
L 114.086391 107.339901 
L 114.086391 107.339901 
L 112.161215 105.636421 
" clip-path="url(#p212b1c4287)" style="fill: none; stroke: #ffa500; stroke-width: 1.5; stroke-linecap: square"/>
   </g>
   <g id="line2d_30">
    <path d="M 223.121313 123.23905 
" clip-path="url(#p212b1c4287)" style="fill: none; stroke: #ffa500; stroke-width: 1.5; stroke-linecap: square"/>
    <defs>
     <path id="m29bd14a8af" d="M 0 5 
C 1.326016 5 2.597899 4.473168 3.535534 3.535534 
C 4.473168 2.597899 5 1.326016 5 0 
C 5 -1.326016 4.473168 -2.597899 3.535534 -3.535534 
C 2.597899 -4.473168 1.326016 -5 0 -5 
C -1.326016 -5 -2.597899 -4.473168 -3.535534 -3.535534 
C -4.473168 -2.597899 -5 -1.326016 -5 0 
C -5 1.326016 -4.473168 2.597899 -3.535534 3.535534 
C -2.597899 4.473168 -1.326016 5 0 5 
z
" style="stroke: #ffa500"/>
    </defs>
    <g clip-path="url(#p212b1c4287)">
     <use xlink:href="#m29bd14a8af" x="223.121313" y="123.23905" style="fill: #ffa500; stroke: #ffa500"/>
    </g>
   </g>
   <g id="line2d_31">
    <path d="M 112.161215 105.636421 
" clip-path="url(#p212b1c4287)" style="fill: none; stroke: #ffa500; stroke-width: 1.5; stroke-linecap: square"/>
    <defs>
     <path id="me50eeff9f6" d="M -5 5 
L 5 5 
L 5 -5 
L -5 -5 
z
" style="stroke: #ffa500; stroke-linejoin: miter"/>
    </defs>
    <g clip-path="url(#p212b1c4287)">
     <use xlink:href="#me50eeff9f6" x="112.161215" y="105.636421" style="fill: #ffa500; stroke: #ffa500; stroke-linejoin: miter"/>
    </g>
   </g>
   <g id="line2d_32">
    <path d="M 144.714178 188.539125 
L 144.18913 189.106951 
L 144.014114 189.390865 
L 143.664082 189.674778 
L 143.139035 190.526518 
L 144.014114 191.094345 
L 144.714178 191.378258 
L 146.464337 191.662172 
L 148.564528 192.513912 
L 150.664719 193.649565 
L 151.889831 194.785219 
L 153.63999 196.204786 
L 155.390149 197.340439 
L 156.965293 198.476093 
L 157.840372 199.043919 
L 159.2405 200.179573 
L 160.640627 200.7474 
L 162.565802 201.315226 
L 164.490978 202.166966 
L 166.766185 203.018706 
L 169.041392 203.30262 
L 171.141583 203.586533 
L 172.54171 203.586533 
L 174.116854 203.870447 
L 176.217045 204.438273 
L 178.14222 204.438273 
L 180.067395 204.438273 
L 182.167586 204.438273 
L 184.092762 204.15436 
L 186.192953 204.438273 
L 187.768096 204.438273 
L 189.343239 204.438273 
L 189.868287 204.438273 
L 191.793462 204.438273 
L 192.668542 204.722187 
L 193.718638 205.0061 
L 195.468797 205.290013 
L 197.744004 205.85784 
L 199.844195 206.425667 
L 201.944386 207.277407 
L 204.044577 207.56132 
L 206.669816 207.845234 
L 209.295055 208.129147 
L 213.320421 208.696974 
L 217.520804 208.41306 
L 220.321059 208.696974 
L 223.646361 208.41306 
L 228.721823 208.129147 
L 233.447253 208.129147 
L 237.822651 207.845234 
L 241.32297 207.845234 
L 245.873384 208.129147 
L 252.173957 207.845234 
L 252.173957 208.696974 
L 255.324244 208.980887 
L 257.424435 208.696974 
L 258.474531 208.696974 
L 258.474531 208.41306 
L 256.899387 207.845234 
L 255.49926 207.56132 
L 253.224053 206.993494 
L 251.123862 206.425667 
L 249.548718 206.425667 
L 248.148591 206.425667 
L 247.623543 206.425667 
L 247.623543 206.70958 
L 248.323607 206.993494 
L 250.423798 207.277407 
L 251.64891 207.277407 
L 253.574085 207.277407 
L 254.62418 207.277407 
L 258.124499 206.70958 
L 263.549993 206.141754 
L 266.175232 205.573927 
L 269.150502 205.0061 
L 273.175869 204.722187 
L 276.676187 203.870447 
L 280.876569 203.30262 
L 283.676824 202.45088 
L 285.602 201.315226 
L 286.827111 200.463486 
L 287.877207 199.327833 
L 288.052222 198.192179 
L 288.927302 197.908266 
L 289.277334 197.340439 
L 288.927302 196.772612 
L 289.102318 196.772612 
L 288.752286 196.204786 
L 288.402254 195.636959 
L 287.877207 195.353046 
L 287.352159 195.069132 
L 286.652095 194.785219 
L 285.952031 194.785219 
" clip-path="url(#p212b1c4287)" style="fill: none; stroke: #ff69b4; stroke-width: 1.5; stroke-linecap: square"/>
   </g>
   <g id="line2d_33">
    <path d="M 144.714178 188.539125 
" clip-path="url(#p212b1c4287)" style="fill: none; stroke: #ff69b4; stroke-width: 1.5; stroke-linecap: square"/>
    <defs>
     <path id="m0cba46bf9f" d="M 0 5 
C 1.326016 5 2.597899 4.473168 3.535534 3.535534 
C 4.473168 2.597899 5 1.326016 5 0 
C 5 -1.326016 4.473168 -2.597899 3.535534 -3.535534 
C 2.597899 -4.473168 1.326016 -5 0 -5 
C -1.326016 -5 -2.597899 -4.473168 -3.535534 -3.535534 
C -4.473168 -2.597899 -5 -1.326016 -5 0 
C -5 1.326016 -4.473168 2.597899 -3.535534 3.535534 
C -2.597899 4.473168 -1.326016 5 0 5 
z
" style="stroke: #ff69b4"/>
    </defs>
    <g clip-path="url(#p212b1c4287)">
     <use xlink:href="#m0cba46bf9f" x="144.714178" y="188.539125" style="fill: #ff69b4; stroke: #ff69b4"/>
    </g>
   </g>
   <g id="line2d_34">
    <path d="M 285.952031 194.785219 
" clip-path="url(#p212b1c4287)" style="fill: none; stroke: #ff69b4; stroke-width: 1.5; stroke-linecap: square"/>
    <defs>
     <path id="m02e3d8a6a1" d="M -5 5 
L 5 5 
L 5 -5 
L -5 -5 
z
" style="stroke: #ff69b4; stroke-linejoin: miter"/>
    </defs>
    <g clip-path="url(#p212b1c4287)">
     <use xlink:href="#m02e3d8a6a1" x="285.952031" y="194.785219" style="fill: #ff69b4; stroke: #ff69b4; stroke-linejoin: miter"/>
    </g>
   </g>
   <g id="line2d_35">
    <path d="M 252.173957 190.810432 
L 252.874021 191.946085 
L 251.123862 192.229999 
L 251.998941 191.946085 
L 253.049037 191.946085 
L 255.49926 191.378258 
L 258.824563 190.810432 
L 260.049674 190.526518 
L 260.924754 190.526518 
L 260.924754 189.674778 
L 260.399706 189.390865 
L 259.874658 189.674778 
L 257.599451 189.674778 
L 253.574085 190.242605 
L 244.123225 190.242605 
L 235.72246 189.106951 
L 231.172046 188.823038 
L 215.595629 187.119558 
L 211.570262 187.119558 
L 208.24496 187.687385 
L 205.794737 188.539125 
L 204.394609 189.674778 
L 203.694545 191.378258 
L 203.51953 193.081739 
L 203.51953 194.217392 
L 203.344514 195.636959 
L 202.469434 197.056526 
L 201.594354 198.192179 
L 200.019211 199.043919 
L 197.568988 199.895659 
L 190.918383 200.463486 
L 184.267778 201.59914 
L 181.467523 202.45088 
L 174.29187 203.018706 
L 171.141583 203.586533 
L 167.641264 203.870447 
L 164.665994 203.586533 
L 161.865739 203.870447 
L 160.815643 204.438273 
L 157.840372 205.573927 
L 156.440245 205.85784 
L 152.064847 207.56132 
L 150.489704 209.264801 
L 150.489704 210.684367 
L 150.314688 211.252194 
L 150.664719 212.671761 
L 152.764911 216.646548 
L 154.865102 220.053509 
L 156.790277 222.040902 
L 156.615261 222.608729 
L 157.665357 224.028296 
L 158.190404 224.312209 
L 158.890468 225.447863 
L 158.715452 225.731776 
L 158.890468 226.015689 
L 157.665357 226.583516 
L 158.015388 226.867429 
L 158.36542 227.435256 
L 163.96593 229.990476 
L 168.166312 230.842217 
L 169.391424 231.410043 
L 170.791551 231.12613 
L 170.266503 231.12613 
L 168.866376 230.842217 
L 159.415516 227.71917 
L 156.965293 226.583516 
L 155.390149 226.015689 
L 153.990022 225.163949 
L 152.764911 224.596122 
L 152.239863 224.028296 
L 152.239863 223.744382 
L 152.764911 223.460469 
L 154.690086 224.028296 
L 155.565165 224.880036 
L 156.790277 225.163949 
L 158.715452 226.583516 
L 159.415516 227.151343 
L 159.765548 228.003083 
L 159.940564 228.286996 
L 159.590532 229.706563 
L 158.890468 230.27439 
L 155.040118 230.27439 
L 152.939926 229.706563 
L 151.714815 229.706563 
L 148.91456 229.138736 
L 148.039481 228.854823 
L 147.339417 229.42265 
L 147.689449 229.42265 
L 148.214496 230.558303 
L 148.564528 231.12613 
L 149.964656 232.261783 
L 151.014751 232.82961 
L 151.189767 233.397437 
L 152.414879 234.249177 
L 153.114942 234.53309 
L 153.464974 234.817004 
L 153.464974 235.100917 
L 153.63999 235.100917 
L 154.340054 235.668744 
L 154.340054 235.952657 
L 155.565165 237.088311 
L 155.390149 237.372224 
L 155.215134 237.372224 
L 154.865102 237.940051 
L 155.040118 237.940051 
L 155.390149 238.791791 
L 155.390149 238.791791 
L 155.215134 239.075704 
L 155.390149 239.075704 
L 155.040118 239.643531 
L 155.040118 240.211358 
L 154.690086 240.211358 
L 154.690086 240.211358 
L 154.340054 240.495271 
L 154.340054 240.779184 
L 154.865102 241.063098 
L 155.040118 241.063098 
L 155.040118 241.630925 
L 155.040118 241.630925 
L 153.63999 241.630925 
L 154.340054 242.198751 
L 154.690086 242.766578 
L 155.215134 243.050491 
L 155.740181 243.618318 
L 156.615261 245.037885 
L 156.265229 245.605712 
L 156.090213 245.605712 
L 155.740181 245.889625 
L 153.289958 245.889625 
L 152.414879 245.605712 
L 151.539799 245.605712 
L 150.489704 245.037885 
L 149.78964 245.037885 
L 149.264592 244.753972 
L 141.913923 242.766578 
L 140.33878 242.766578 
L 138.938652 242.482665 
L 135.788366 241.630925 
L 135.788366 241.630925 
" clip-path="url(#p212b1c4287)" style="fill: none; stroke: #00ffff; stroke-width: 1.5; stroke-linecap: square"/>
   </g>
   <g id="line2d_36">
    <path d="M 252.173957 190.810432 
" clip-path="url(#p212b1c4287)" style="fill: none; stroke: #00ffff; stroke-width: 1.5; stroke-linecap: square"/>
    <defs>
     <path id="m7589c43308" d="M 0 5 
C 1.326016 5 2.597899 4.473168 3.535534 3.535534 
C 4.473168 2.597899 5 1.326016 5 0 
C 5 -1.326016 4.473168 -2.597899 3.535534 -3.535534 
C 2.597899 -4.473168 1.326016 -5 0 -5 
C -1.326016 -5 -2.597899 -4.473168 -3.535534 -3.535534 
C -4.473168 -2.597899 -5 -1.326016 -5 0 
C -5 1.326016 -4.473168 2.597899 -3.535534 3.535534 
C -2.597899 4.473168 -1.326016 5 0 5 
z
" style="stroke: #00ffff"/>
    </defs>
    <g clip-path="url(#p212b1c4287)">
     <use xlink:href="#m7589c43308" x="252.173957" y="190.810432" style="fill: #00ffff; stroke: #00ffff"/>
    </g>
   </g>
   <g id="line2d_37">
    <path d="M 135.788366 241.630925 
" clip-path="url(#p212b1c4287)" style="fill: none; stroke: #00ffff; stroke-width: 1.5; stroke-linecap: square"/>
    <defs>
     <path id="m790206370c" d="M -5 5 
L 5 5 
L 5 -5 
L -5 -5 
z
" style="stroke: #00ffff; stroke-linejoin: miter"/>
    </defs>
    <g clip-path="url(#p212b1c4287)">
     <use xlink:href="#m790206370c" x="135.788366" y="241.630925" style="fill: #00ffff; stroke: #00ffff; stroke-linejoin: miter"/>
    </g>
   </g>
   <g id="line2d_38">
    <path d="M 300.828385 226.583516 
L 299.253242 226.299603 
L 299.078226 226.015689 
L 299.078226 225.731776 
L 298.90321 225.731776 
L 298.728194 225.447863 
L 298.553178 225.447863 
L 298.203146 225.447863 
L 298.02813 225.731776 
L 297.853114 225.731776 
L 296.978035 226.015689 
L 297.153051 226.015689 
L 297.678099 226.015689 
L 298.203146 226.015689 
L 299.428258 226.299603 
L 300.828385 226.583516 
L 301.878481 226.299603 
L 303.103592 226.299603 
L 304.328704 226.299603 
L 306.253879 226.583516 
L 309.054134 226.867429 
L 312.379436 227.151343 
L 315.704739 227.151343 
L 319.555089 227.151343 
L 322.705376 227.151343 
L 326.030679 227.435256 
L 329.355981 227.71917 
L 331.456173 227.71917 
L 333.556364 227.71917 
L 335.481539 227.71917 
L 336.70665 227.71917 
L 337.756746 228.003083 
L 338.106778 228.286996 
L 338.981857 228.57091 
L 339.506905 228.854823 
L 339.331889 229.138736 
L 339.331889 229.42265 
L 340.031953 231.97787 
L 339.331889 232.261783 
L 337.406714 231.693957 
L 335.131507 233.113524 
L 332.331252 233.965264 
L 329.180965 234.249177 
L 324.805567 233.965264 
L 319.730105 233.113524 
L 314.829659 232.545697 
L 308.529086 231.693957 
L 302.928576 231.410043 
L 297.678099 231.12613 
L 292.252605 229.706563 
L 285.602 229.138736 
L 279.12641 228.57091 
L 272.650821 228.286996 
L 267.050311 227.151343 
L 263.024945 226.015689 
L 258.824563 224.596122 
L 253.399069 224.028296 
L 246.748464 224.312209 
L 240.44789 224.028296 
L 236.947572 223.176556 
L 232.747189 221.756989 
L 227.846743 220.053509 
L 223.821377 218.066115 
L 220.496074 216.646548 
L 216.470708 215.510895 
L 213.145406 214.375241 
L 210.345151 213.523501 
L 207.36988 212.671761 
L 204.569625 211.820021 
L 200.719275 211.820021 
L 198.269052 210.684367 
L 195.468797 210.116541 
L 192.493526 209.264801 
L 189.693271 208.129147 
L 186.542985 207.277407 
L 183.74273 206.425667 
" clip-path="url(#p212b1c4287)" style="fill: none; stroke: #8a2be2; stroke-width: 1.5; stroke-linecap: square"/>
   </g>
   <g id="line2d_39">
    <path d="M 300.828385 226.583516 
" clip-path="url(#p212b1c4287)" style="fill: none; stroke: #8a2be2; stroke-width: 1.5; stroke-linecap: square"/>
    <defs>
     <path id="mb320d3de5a" d="M 0 5 
C 1.326016 5 2.597899 4.473168 3.535534 3.535534 
C 4.473168 2.597899 5 1.326016 5 0 
C 5 -1.326016 4.473168 -2.597899 3.535534 -3.535534 
C 2.597899 -4.473168 1.326016 -5 0 -5 
C -1.326016 -5 -2.597899 -4.473168 -3.535534 -3.535534 
C -4.473168 -2.597899 -5 -1.326016 -5 0 
C -5 1.326016 -4.473168 2.597899 -3.535534 3.535534 
C -2.597899 4.473168 -1.326016 5 0 5 
z
" style="stroke: #8a2be2"/>
    </defs>
    <g clip-path="url(#p212b1c4287)">
     <use xlink:href="#mb320d3de5a" x="300.828385" y="226.583516" style="fill: #8a2be2; stroke: #8a2be2"/>
    </g>
   </g>
   <g id="line2d_40">
    <path d="M 183.74273 206.425667 
" clip-path="url(#p212b1c4287)" style="fill: none; stroke: #8a2be2; stroke-width: 1.5; stroke-linecap: square"/>
    <defs>
     <path id="mfc1a9594e6" d="M -5 5 
L 5 5 
L 5 -5 
L -5 -5 
z
" style="stroke: #8a2be2; stroke-linejoin: miter"/>
    </defs>
    <g clip-path="url(#p212b1c4287)">
     <use xlink:href="#mfc1a9594e6" x="183.74273" y="206.425667" style="fill: #8a2be2; stroke: #8a2be2; stroke-linejoin: miter"/>
    </g>
   </g>
   <g id="line2d_41">
    <path d="M 237.647635 195.069132 
L 239.047763 195.353046 
L 240.097858 195.636959 
L 241.32297 195.636959 
L 242.373065 195.920872 
L 243.423161 195.920872 
L 244.648272 195.920872 
L 246.0484 196.204786 
L 247.098495 196.772612 
L 248.323607 197.340439 
L 249.548718 197.908266 
L 250.948846 198.476093 
L 252.523989 199.043919 
L 253.924117 199.611746 
L 255.324244 200.179573 
L 256.724371 200.7474 
L 257.774467 201.315226 
L 258.474531 201.59914 
L 259.174594 202.45088 
L 259.699642 203.018706 
L 260.399706 203.586533 
L 260.749738 204.438273 
L 260.574722 204.722187 
L 260.049674 205.290013 
L 259.524626 205.573927 
L 258.824563 205.573927 
L 257.949483 205.573927 
L 256.899387 205.290013 
L 256.37434 205.290013 
L 254.974212 205.0061 
L 253.399069 205.0061 
L 253.049037 203.870447 
L 251.998941 203.30262 
L 250.77383 202.166966 
L 249.723734 201.315226 
L 247.623543 198.760006 
L 245.698368 196.204786 
L 243.598177 193.933479 
L 241.147954 192.229999 
L 238.347699 190.242605 
L 236.247508 189.106951 
L 232.397158 187.119558 
L 228.546807 184.564338 
L 223.821377 182.009117 
L 218.745915 179.453897 
L 213.320421 176.898677 
L 208.594991 174.62737 
L 203.869561 172.923889 
L 197.568988 170.652583 
L 191.618446 168.097362 
L 186.718 166.109969 
L 182.342602 164.122575 
L 177.792188 161.851268 
L 172.891742 160.147788 
L 166.066121 157.024741 
L 161.340691 155.037347 
L 155.565165 153.049954 
L 150.489704 151.346473 
L 146.639353 150.21082 
L 142.964019 149.075167 
L 141.038843 148.50734 
L 136.838461 147.371686 
L 136.838461 147.371686 
L 132.988111 146.236033 
L 129.13776 145.100379 
L 123.537251 144.248639 
L 119.6869 143.680813 
L 117.936741 143.396899 
L 116.71163 143.396899 
L 115.486518 143.396899 
L 114.611438 143.112986 
L 114.086391 143.112986 
L 114.086391 142.829072 
L 114.086391 142.829072 
L 114.436422 142.829072 
L 114.96147 142.261246 
L 115.661534 141.977332 
L 116.536614 141.977332 
L 117.411693 142.261246 
L 118.461789 142.261246 
L 119.861916 142.829072 
L 121.087028 143.112986 
L 122.662171 143.396899 
L 124.062298 143.964726 
L 125.28741 144.248639 
L 126.687537 144.532553 
L 127.912649 144.816466 
L 129.13776 145.384293 
L 130.537888 145.668206 
L 132.113031 146.236033 
L 133.338143 146.80386 
L 134.388238 147.087773 
L 135.263318 147.371686 
L 135.788366 147.6556 
L 136.138397 147.939513 
L 136.313413 148.223426 
L 136.488429 149.075167 
L 137.188493 149.642993 
L 137.888557 149.926907 
L 138.413605 150.21082 
L 138.938652 150.494733 
L 139.4637 150.494733 
L 139.988748 150.21082 
L 140.513796 150.21082 
L 140.863827 149.926907 
L 141.213859 149.926907 
L 141.738907 150.21082 
L 142.438971 150.21082 
L 142.613987 149.926907 
L 143.31405 149.642993 
L 143.489066 149.35908 
L 144.18913 149.075167 
L 144.539162 148.791253 
L 145.06421 148.791253 
" clip-path="url(#p212b1c4287)" style="fill: none; stroke: #ff00ff; stroke-width: 1.5; stroke-linecap: square"/>
   </g>
   <g id="line2d_42">
    <path d="M 237.647635 195.069132 
" clip-path="url(#p212b1c4287)" style="fill: none; stroke: #ff00ff; stroke-width: 1.5; stroke-linecap: square"/>
    <defs>
     <path id="m283501be98" d="M 0 5 
C 1.326016 5 2.597899 4.473168 3.535534 3.535534 
C 4.473168 2.597899 5 1.326016 5 0 
C 5 -1.326016 4.473168 -2.597899 3.535534 -3.535534 
C 2.597899 -4.473168 1.326016 -5 0 -5 
C -1.326016 -5 -2.597899 -4.473168 -3.535534 -3.535534 
C -4.473168 -2.597899 -5 -1.326016 -5 0 
C -5 1.326016 -4.473168 2.597899 -3.535534 3.535534 
C -2.597899 4.473168 -1.326016 5 0 5 
z
" style="stroke: #ff00ff"/>
    </defs>
    <g clip-path="url(#p212b1c4287)">
     <use xlink:href="#m283501be98" x="237.647635" y="195.069132" style="fill: #ff00ff; stroke: #ff00ff"/>
    </g>
   </g>
   <g id="line2d_43">
    <path d="M 145.06421 148.791253 
" clip-path="url(#p212b1c4287)" style="fill: none; stroke: #ff00ff; stroke-width: 1.5; stroke-linecap: square"/>
    <defs>
     <path id="mc7e3d4c5c1" d="M -5 5 
L 5 5 
L 5 -5 
L -5 -5 
z
" style="stroke: #ff00ff; stroke-linejoin: miter"/>
    </defs>
    <g clip-path="url(#p212b1c4287)">
     <use xlink:href="#mc7e3d4c5c1" x="145.06421" y="148.791253" style="fill: #ff00ff; stroke: #ff00ff; stroke-linejoin: miter"/>
    </g>
   </g>
   <g id="line2d_44">
    <path d="M 204.394609 139.989939 
L 204.744641 140.273852 
L 205.794737 142.545159 
L 205.794737 143.680813 
L 206.319784 145.668206 
L 206.4948 146.519946 
L 206.844832 146.80386 
L 207.36988 147.6556 
L 207.719912 148.791253 
L 208.069944 148.791253 
L 208.945023 149.642993 
L 210.345151 151.06256 
L 211.395246 152.482127 
L 212.09531 153.049954 
L 213.145406 153.333867 
L 214.020485 153.61778 
L 215.595629 153.901694 
L 216.295692 153.901694 
L 216.470708 153.901694 
L 217.170772 153.901694 
L 217.870836 153.901694 
L 219.971027 153.901694 
L 222.071218 154.185607 
L 222.771282 154.469521 
L 223.646361 154.753434 
L 224.696457 154.753434 
L 226.796648 155.037347 
L 228.546807 153.333867 
L 229.596903 155.321261 
L 231.87211 156.173001 
L 234.847381 156.740827 
L 235.72246 157.024741 
L 236.422524 156.456914 
L 238.347699 156.456914 
L 240.972938 156.173001 
L 241.673002 156.456914 
L 244.473257 157.308654 
L 246.0484 157.876481 
L 248.673639 159.012134 
L 250.598814 160.431701 
L 251.298878 160.999528 
L 252.523989 161.567355 
L 253.049037 162.135181 
L 253.749101 162.419095 
L 253.924117 162.986922 
L 254.274148 162.986922 
L 254.974212 163.270835 
L 255.49926 164.122575 
L 255.674276 164.122575 
L 256.899387 164.406488 
L 257.249419 164.406488 
L 258.299515 164.690402 
L 259.174594 165.258229 
L 259.874658 165.826055 
L 260.399706 166.393882 
L 260.749738 166.961709 
L 260.924754 166.961709 
L 261.274786 167.245622 
L 261.449802 167.813449 
L 261.799833 168.097362 
L 261.449802 168.665189 
L 261.624817 168.949102 
L 260.924754 169.516929 
L 260.574722 169.516929 
L 260.924754 170.368669 
L 260.574722 170.652583 
L 260.574722 171.504323 
L 260.749738 171.788236 
L 260.574722 172.356063 
L 260.22469 172.639976 
L 260.049674 172.923889 
L 259.874658 173.77563 
L 259.524626 174.343456 
L 259.174594 174.62737 
L 258.999579 175.195196 
L 258.824563 175.763023 
L 258.824563 176.614763 
L 258.649547 176.898677 
L 258.649547 177.18259 
L 258.999579 177.466503 
L 259.34961 177.750417 
L 260.22469 178.602157 
L 260.399706 178.88607 
L 260.924754 179.453897 
L 261.274786 180.021724 
L 261.449802 180.58955 
L 261.449802 180.873464 
L 261.449802 181.441291 
L 261.799833 182.009117 
L 262.149865 182.576944 
L 262.674913 182.860857 
L 263.024945 183.144771 
L 263.725009 183.712597 
L 264.425072 184.280424 
L 264.775104 184.848251 
L 265.475168 185.416078 
L 266.350247 185.699991 
L 267.225327 186.267818 
L 267.750375 186.267818 
L 268.625455 186.835645 
L 269.150502 187.119558 
L 270.200598 187.687385 
L 271.075678 187.971298 
L 271.600725 187.971298 
L 272.300789 187.971298 
L 273.350885 188.539125 
L 274.225964 188.539125 
L 274.926028 188.539125 
L 275.801108 188.539125 
L 277.026219 188.539125 
L 278.251331 188.823038 
L 280.00149 189.106951 
L 281.401617 189.390865 
L 282.801745 189.390865 
" clip-path="url(#p212b1c4287)" style="fill: none; stroke: #20b2aa; stroke-width: 1.5; stroke-linecap: square"/>
   </g>
   <g id="line2d_45">
    <path d="M 204.394609 139.989939 
" clip-path="url(#p212b1c4287)" style="fill: none; stroke: #20b2aa; stroke-width: 1.5; stroke-linecap: square"/>
    <defs>
     <path id="m756cf26af3" d="M 0 5 
C 1.326016 5 2.597899 4.473168 3.535534 3.535534 
C 4.473168 2.597899 5 1.326016 5 0 
C 5 -1.326016 4.473168 -2.597899 3.535534 -3.535534 
C 2.597899 -4.473168 1.326016 -5 0 -5 
C -1.326016 -5 -2.597899 -4.473168 -3.535534 -3.535534 
C -4.473168 -2.597899 -5 -1.326016 -5 0 
C -5 1.326016 -4.473168 2.597899 -3.535534 3.535534 
C -2.597899 4.473168 -1.326016 5 0 5 
z
" style="stroke: #20b2aa"/>
    </defs>
    <g clip-path="url(#p212b1c4287)">
     <use xlink:href="#m756cf26af3" x="204.394609" y="139.989939" style="fill: #20b2aa; stroke: #20b2aa"/>
    </g>
   </g>
   <g id="line2d_46">
    <path d="M 282.801745 189.390865 
" clip-path="url(#p212b1c4287)" style="fill: none; stroke: #20b2aa; stroke-width: 1.5; stroke-linecap: square"/>
    <defs>
     <path id="mddda52770f" d="M -5 5 
L 5 5 
L 5 -5 
L -5 -5 
z
" style="stroke: #20b2aa; stroke-linejoin: miter"/>
    </defs>
    <g clip-path="url(#p212b1c4287)">
     <use xlink:href="#mddda52770f" x="282.801745" y="189.390865" style="fill: #20b2aa; stroke: #20b2aa; stroke-linejoin: miter"/>
    </g>
   </g>
   <g id="line2d_47">
    <path d="M 316.929851 182.860857 
L 317.279882 182.860857 
L 317.629914 183.428684 
L 317.454898 183.712597 
L 317.454898 183.996511 
L 316.754835 183.996511 
L 316.754835 184.280424 
L 316.229787 184.280424 
L 316.054771 184.564338 
L 315.354707 184.564338 
L 315.704739 184.848251 
L 315.354707 184.848251 
L 315.354707 185.416078 
L 315.179691 185.416078 
L 314.654643 185.699991 
L 314.129596 185.699991 
L 310.804293 186.267818 
L 308.35407 186.267818 
L 305.903847 186.835645 
L 295.577907 186.835645 
L 292.602637 187.119558 
L 289.102318 187.119558 
L 286.127047 185.983904 
L 282.101681 185.699991 
L 277.901299 185.132164 
L 274.225964 185.416078 
L 265.8252 184.280424 
L 261.449802 183.996511 
L 248.323607 183.996511 
L 244.823288 184.280424 
L 240.972938 184.848251 
L 236.772556 184.848251 
L 231.522078 184.564338 
L 227.496712 184.848251 
L 225.39652 184.848251 
L 214.895565 185.699991 
L 212.09531 185.983904 
L 206.669816 185.983904 
L 204.569625 185.132164 
L 204.044577 185.132164 
L 203.51953 185.416078 
L 200.544259 185.416078 
L 200.369243 185.699991 
L 200.894291 186.267818 
L 202.294418 186.267818 
L 202.819466 186.835645 
L 202.994482 187.403471 
L 202.994482 187.403471 
L 203.344514 187.687385 
L 203.169498 187.687385 
L 203.169498 187.971298 
L 205.444705 189.106951 
L 205.619721 189.106951 
L 206.144768 189.390865 
L 206.144768 189.390865 
L 206.669816 188.823038 
L 206.669816 189.390865 
L 206.144768 189.390865 
L 205.619721 189.674778 
L 205.444705 190.526518 
L 204.919657 190.242605 
L 204.219593 190.242605 
L 203.694545 190.526518 
L 201.594354 190.526518 
L 201.594354 190.526518 
L 201.069307 190.242605 
L 199.494163 190.242605 
L 199.669179 190.526518 
L 199.844195 191.094345 
L 199.144131 191.946085 
L 198.794099 191.946085 
L 198.794099 191.946085 
L 198.444068 191.378258 
L 198.269052 191.378258 
L 198.094036 191.946085 
L 198.444068 192.229999 
L 197.568988 191.378258 
L 197.744004 190.810432 
L 199.844195 189.958692 
L 200.894291 190.242605 
L 200.544259 191.662172 
L 201.069307 192.513912 
L 201.069307 193.081739 
L 203.694545 195.353046 
L 204.044577 196.488699 
L 203.869561 197.056526 
L 206.144768 198.760006 
L 206.844832 198.476093 
L 207.194864 198.760006 
L 208.419975 198.760006 
L 208.945023 199.043919 
L 209.470071 199.043919 
L 209.470071 199.043919 
" clip-path="url(#p212b1c4287)" style="fill: none; stroke: #a52a2a; stroke-width: 1.5; stroke-linecap: square"/>
   </g>
   <g id="line2d_48">
    <path d="M 316.929851 182.860857 
" clip-path="url(#p212b1c4287)" style="fill: none; stroke: #a52a2a; stroke-width: 1.5; stroke-linecap: square"/>
    <defs>
     <path id="m76c3a48543" d="M 0 5 
C 1.326016 5 2.597899 4.473168 3.535534 3.535534 
C 4.473168 2.597899 5 1.326016 5 0 
C 5 -1.326016 4.473168 -2.597899 3.535534 -3.535534 
C 2.597899 -4.473168 1.326016 -5 0 -5 
C -1.326016 -5 -2.597899 -4.473168 -3.535534 -3.535534 
C -4.473168 -2.597899 -5 -1.326016 -5 0 
C -5 1.326016 -4.473168 2.597899 -3.535534 3.535534 
C -2.597899 4.473168 -1.326016 5 0 5 
z
" style="stroke: #a52a2a"/>
    </defs>
    <g clip-path="url(#p212b1c4287)">
     <use xlink:href="#m76c3a48543" x="316.929851" y="182.860857" style="fill: #a52a2a; stroke: #a52a2a"/>
    </g>
   </g>
   <g id="line2d_49">
    <path d="M 209.470071 199.043919 
" clip-path="url(#p212b1c4287)" style="fill: none; stroke: #a52a2a; stroke-width: 1.5; stroke-linecap: square"/>
    <defs>
     <path id="m98b46c53f7" d="M -5 5 
L 5 5 
L 5 -5 
L -5 -5 
z
" style="stroke: #a52a2a; stroke-linejoin: miter"/>
    </defs>
    <g clip-path="url(#p212b1c4287)">
     <use xlink:href="#m98b46c53f7" x="209.470071" y="199.043919" style="fill: #a52a2a; stroke: #a52a2a; stroke-linejoin: miter"/>
    </g>
   </g>
   <g id="patch_3">
    <path d="M 57.6 307.584 
L 57.6 41.472 
" style="fill: none; stroke: #000000; stroke-width: 0.8; stroke-linejoin: miter; stroke-linecap: square"/>
   </g>
   <g id="patch_4">
    <path d="M 57.6 307.584 
L 414.72 307.584 
" style="fill: none; stroke: #000000; stroke-width: 0.8; stroke-linejoin: miter; stroke-linecap: square"/>
   </g>
   <g id="legend_1">
    <g id="patch_5">
     <path d="M 282.164531 119.523563 
L 404.22 119.523563 
Q 407.22 119.523563 407.22 116.523563 
L 407.22 51.972 
Q 407.22 48.972 404.22 48.972 
L 282.164531 48.972 
Q 279.164531 48.972 279.164531 51.972 
L 279.164531 116.523563 
Q 279.164531 119.523563 282.164531 119.523563 
z
" style="fill: #ffffff; opacity: 0.8; stroke: #cccccc; stroke-linejoin: miter"/>
    </g>
    <g id="line2d_50">
     <path d="M 285.164531 61.119656 
L 300.164531 61.119656 
L 315.164531 61.119656 
" style="fill: none; stroke: #000000; stroke-width: 1.5; stroke-linecap: square"/>
    </g>
    <g id="text_7">
     <!-- Trajectory -->
     <g transform="translate(327.164531 66.369656)scale(0.15 -0.15)">
      <defs>
       <path id="DejaVuSans-54" d="M -19 4666 
L 3928 4666 
L 3928 4134 
L 2272 4134 
L 2272 0 
L 1638 0 
L 1638 4134 
L -19 4134 
L -19 4666 
z
" transform="scale(0.015625)"/>
       <path id="DejaVuSans-72" d="M 2631 2963 
Q 2534 3019 2420 3045 
Q 2306 3072 2169 3072 
Q 1681 3072 1420 2755 
Q 1159 2438 1159 1844 
L 1159 0 
L 581 0 
L 581 3500 
L 1159 3500 
L 1159 2956 
Q 1341 3275 1631 3429 
Q 1922 3584 2338 3584 
Q 2397 3584 2469 3576 
Q 2541 3569 2628 3553 
L 2631 2963 
z
" transform="scale(0.015625)"/>
       <path id="DejaVuSans-61" d="M 2194 1759 
Q 1497 1759 1228 1600 
Q 959 1441 959 1056 
Q 959 750 1161 570 
Q 1363 391 1709 391 
Q 2188 391 2477 730 
Q 2766 1069 2766 1631 
L 2766 1759 
L 2194 1759 
z
M 3341 1997 
L 3341 0 
L 2766 0 
L 2766 531 
Q 2569 213 2275 61 
Q 1981 -91 1556 -91 
Q 1019 -91 701 211 
Q 384 513 384 1019 
Q 384 1609 779 1909 
Q 1175 2209 1959 2209 
L 2766 2209 
L 2766 2266 
Q 2766 2663 2505 2880 
Q 2244 3097 1772 3097 
Q 1472 3097 1187 3025 
Q 903 2953 641 2809 
L 641 3341 
Q 956 3463 1253 3523 
Q 1550 3584 1831 3584 
Q 2591 3584 2966 3190 
Q 3341 2797 3341 1997 
z
" transform="scale(0.015625)"/>
       <path id="DejaVuSans-6a" d="M 603 3500 
L 1178 3500 
L 1178 -63 
Q 1178 -731 923 -1031 
Q 669 -1331 103 -1331 
L -116 -1331 
L -116 -844 
L 38 -844 
Q 366 -844 484 -692 
Q 603 -541 603 -63 
L 603 3500 
z
M 603 4863 
L 1178 4863 
L 1178 4134 
L 603 4134 
L 603 4863 
z
" transform="scale(0.015625)"/>
       <path id="DejaVuSans-65" d="M 3597 1894 
L 3597 1613 
L 953 1613 
Q 991 1019 1311 708 
Q 1631 397 2203 397 
Q 2534 397 2845 478 
Q 3156 559 3463 722 
L 3463 178 
Q 3153 47 2828 -22 
Q 2503 -91 2169 -91 
Q 1331 -91 842 396 
Q 353 884 353 1716 
Q 353 2575 817 3079 
Q 1281 3584 2069 3584 
Q 2775 3584 3186 3129 
Q 3597 2675 3597 1894 
z
M 3022 2063 
Q 3016 2534 2758 2815 
Q 2500 3097 2075 3097 
Q 1594 3097 1305 2825 
Q 1016 2553 972 2059 
L 3022 2063 
z
" transform="scale(0.015625)"/>
       <path id="DejaVuSans-63" d="M 3122 3366 
L 3122 2828 
Q 2878 2963 2633 3030 
Q 2388 3097 2138 3097 
Q 1578 3097 1268 2742 
Q 959 2388 959 1747 
Q 959 1106 1268 751 
Q 1578 397 2138 397 
Q 2388 397 2633 464 
Q 2878 531 3122 666 
L 3122 134 
Q 2881 22 2623 -34 
Q 2366 -91 2075 -91 
Q 1284 -91 818 406 
Q 353 903 353 1747 
Q 353 2603 823 3093 
Q 1294 3584 2113 3584 
Q 2378 3584 2631 3529 
Q 2884 3475 3122 3366 
z
" transform="scale(0.015625)"/>
       <path id="DejaVuSans-74" d="M 1172 4494 
L 1172 3500 
L 2356 3500 
L 2356 3053 
L 1172 3053 
L 1172 1153 
Q 1172 725 1289 603 
Q 1406 481 1766 481 
L 2356 481 
L 2356 0 
L 1766 0 
Q 1100 0 847 248 
Q 594 497 594 1153 
L 594 3053 
L 172 3053 
L 172 3500 
L 594 3500 
L 594 4494 
L 1172 4494 
z
" transform="scale(0.015625)"/>
       <path id="DejaVuSans-6f" d="M 1959 3097 
Q 1497 3097 1228 2736 
Q 959 2375 959 1747 
Q 959 1119 1226 758 
Q 1494 397 1959 397 
Q 2419 397 2687 759 
Q 2956 1122 2956 1747 
Q 2956 2369 2687 2733 
Q 2419 3097 1959 3097 
z
M 1959 3584 
Q 2709 3584 3137 3096 
Q 3566 2609 3566 1747 
Q 3566 888 3137 398 
Q 2709 -91 1959 -91 
Q 1206 -91 779 398 
Q 353 888 353 1747 
Q 353 2609 779 3096 
Q 1206 3584 1959 3584 
z
" transform="scale(0.015625)"/>
       <path id="DejaVuSans-79" d="M 2059 -325 
Q 1816 -950 1584 -1140 
Q 1353 -1331 966 -1331 
L 506 -1331 
L 506 -850 
L 844 -850 
Q 1081 -850 1212 -737 
Q 1344 -625 1503 -206 
L 1606 56 
L 191 3500 
L 800 3500 
L 1894 763 
L 2988 3500 
L 3597 3500 
L 2059 -325 
z
" transform="scale(0.015625)"/>
      </defs>
      <use xlink:href="#DejaVuSans-54"/>
      <use xlink:href="#DejaVuSans-72" x="46.333984"/>
      <use xlink:href="#DejaVuSans-61" x="87.447266"/>
      <use xlink:href="#DejaVuSans-6a" x="148.726562"/>
      <use xlink:href="#DejaVuSans-65" x="176.509766"/>
      <use xlink:href="#DejaVuSans-63" x="238.033203"/>
      <use xlink:href="#DejaVuSans-74" x="293.013672"/>
      <use xlink:href="#DejaVuSans-6f" x="332.222656"/>
      <use xlink:href="#DejaVuSans-72" x="393.404297"/>
      <use xlink:href="#DejaVuSans-79" x="434.517578"/>
     </g>
    </g>
    <g id="line2d_51">
     <path d="M 285.164531 83.136844 
L 300.164531 83.136844 
L 315.164531 83.136844 
" style="fill: none; stroke: #000000; stroke-width: 1.5; stroke-linecap: square"/>
     <g>
      <use xlink:href="#m9f6cafd223" x="300.164531" y="83.136844" style="stroke: #000000"/>
     </g>
    </g>
    <g id="text_8">
     <!-- Start -->
     <g transform="translate(327.164531 88.386844)scale(0.15 -0.15)">
      <defs>
       <path id="DejaVuSans-53" d="M 3425 4513 
L 3425 3897 
Q 3066 4069 2747 4153 
Q 2428 4238 2131 4238 
Q 1616 4238 1336 4038 
Q 1056 3838 1056 3469 
Q 1056 3159 1242 3001 
Q 1428 2844 1947 2747 
L 2328 2669 
Q 3034 2534 3370 2195 
Q 3706 1856 3706 1288 
Q 3706 609 3251 259 
Q 2797 -91 1919 -91 
Q 1588 -91 1214 -16 
Q 841 59 441 206 
L 441 856 
Q 825 641 1194 531 
Q 1563 422 1919 422 
Q 2459 422 2753 634 
Q 3047 847 3047 1241 
Q 3047 1584 2836 1778 
Q 2625 1972 2144 2069 
L 1759 2144 
Q 1053 2284 737 2584 
Q 422 2884 422 3419 
Q 422 4038 858 4394 
Q 1294 4750 2059 4750 
Q 2388 4750 2728 4690 
Q 3069 4631 3425 4513 
z
" transform="scale(0.015625)"/>
      </defs>
      <use xlink:href="#DejaVuSans-53"/>
      <use xlink:href="#DejaVuSans-74" x="63.476562"/>
      <use xlink:href="#DejaVuSans-61" x="102.685547"/>
      <use xlink:href="#DejaVuSans-72" x="163.964844"/>
      <use xlink:href="#DejaVuSans-74" x="205.078125"/>
     </g>
    </g>
    <g id="line2d_52">
     <path d="M 285.164531 105.154031 
L 300.164531 105.154031 
L 315.164531 105.154031 
" style="fill: none; stroke: #000000; stroke-width: 1.5; stroke-linecap: square"/>
     <g>
      <use xlink:href="#ma6b8cc189c" x="300.164531" y="105.154031" style="stroke: #000000; stroke-linejoin: miter"/>
     </g>
    </g>
    <g id="text_9">
     <!-- End -->
     <g transform="translate(327.164531 110.404031)scale(0.15 -0.15)">
      <defs>
       <path id="DejaVuSans-45" d="M 628 4666 
L 3578 4666 
L 3578 4134 
L 1259 4134 
L 1259 2753 
L 3481 2753 
L 3481 2222 
L 1259 2222 
L 1259 531 
L 3634 531 
L 3634 0 
L 628 0 
L 628 4666 
z
" transform="scale(0.015625)"/>
       <path id="DejaVuSans-6e" d="M 3513 2113 
L 3513 0 
L 2938 0 
L 2938 2094 
Q 2938 2591 2744 2837 
Q 2550 3084 2163 3084 
Q 1697 3084 1428 2787 
Q 1159 2491 1159 1978 
L 1159 0 
L 581 0 
L 581 3500 
L 1159 3500 
L 1159 2956 
Q 1366 3272 1645 3428 
Q 1925 3584 2291 3584 
Q 2894 3584 3203 3211 
Q 3513 2838 3513 2113 
z
" transform="scale(0.015625)"/>
       <path id="DejaVuSans-64" d="M 2906 2969 
L 2906 4863 
L 3481 4863 
L 3481 0 
L 2906 0 
L 2906 525 
Q 2725 213 2448 61 
Q 2172 -91 1784 -91 
Q 1150 -91 751 415 
Q 353 922 353 1747 
Q 353 2572 751 3078 
Q 1150 3584 1784 3584 
Q 2172 3584 2448 3432 
Q 2725 3281 2906 2969 
z
M 947 1747 
Q 947 1113 1208 752 
Q 1469 391 1925 391 
Q 2381 391 2643 752 
Q 2906 1113 2906 1747 
Q 2906 2381 2643 2742 
Q 2381 3103 1925 3103 
Q 1469 3103 1208 2742 
Q 947 2381 947 1747 
z
" transform="scale(0.015625)"/>
      </defs>
      <use xlink:href="#DejaVuSans-45"/>
      <use xlink:href="#DejaVuSans-6e" x="63.183594"/>
      <use xlink:href="#DejaVuSans-64" x="126.5625"/>
     </g>
    </g>
   </g>
  </g>
 </g>
 <defs>
  <clipPath id="p212b1c4287">
   <rect x="57.6" y="41.472" width="357.12" height="266.112"/>
  </clipPath>
 </defs>
</svg>
