<?xml version="1.0" encoding="utf-8" standalone="no"?>
<!DOCTYPE svg PUBLIC "-//W3C//DTD SVG 1.1//EN"
  "http://www.w3.org/Graphics/SVG/1.1/DTD/svg11.dtd">
<svg xmlns:xlink="http://www.w3.org/1999/xlink" width="460.8pt" height="345.6pt" viewBox="0 0 460.8 345.6" xmlns="http://www.w3.org/2000/svg" version="1.1">
 <metadata>
  <rdf:RDF xmlns:dc="http://purl.org/dc/elements/1.1/" xmlns:cc="http://creativecommons.org/ns#" xmlns:rdf="http://www.w3.org/1999/02/22-rdf-syntax-ns#">
   <cc:Work>
    <dc:type rdf:resource="http://purl.org/dc/dcmitype/StillImage"/>
    <dc:date>2024-02-21T13:17:45.870466</dc:date>
    <dc:format>image/svg+xml</dc:format>
    <dc:creator>
     <cc:Agent>
      <dc:title>Matplotlib v3.5.0, https://matplotlib.org/</dc:title>
     </cc:Agent>
    </dc:creator>
   </cc:Work>
  </rdf:RDF>
 </metadata>
 <defs>
  <style type="text/css">*{stroke-linejoin: round; stroke-linecap: butt}</style>
 </defs>
 <g id="figure_1">
  <g id="patch_1">
   <path d="M 0 345.6 
L 460.8 345.6 
L 460.8 0 
L 0 0 
z
" style="fill: #ffffff"/>
  </g>
  <g id="axes_1">
   <g id="patch_2">
    <path d="M 57.6 307.584 
L 414.72 307.584 
L 414.72 41.472 
L 57.6 41.472 
z
" style="fill: #ffffff"/>
   </g>
   <g id="matplotlib.axis_1">
    <g id="xtick_1">
     <g id="line2d_1">
      <defs>
       <path id="m017d9fa598" d="M 0 0 
L 0 3.5 
" style="stroke: #000000; stroke-width: 0.8"/>
      </defs>
      <g>
       <use xlink:href="#m017d9fa598" x="73.832727" y="307.584" style="stroke: #000000; stroke-width: 0.8"/>
      </g>
     </g>
     <g id="text_1">
      <!-- 0 -->
      <g transform="translate(67.470227 329.780875)scale(0.2 -0.2)">
       <defs>
        <path id="DejaVuSans-30" d="M 2034 4250 
Q 1547 4250 1301 3770 
Q 1056 3291 1056 2328 
Q 1056 1369 1301 889 
Q 1547 409 2034 409 
Q 2525 409 2770 889 
Q 3016 1369 3016 2328 
Q 3016 3291 2770 3770 
Q 2525 4250 2034 4250 
z
M 2034 4750 
Q 2819 4750 3233 4129 
Q 3647 3509 3647 2328 
Q 3647 1150 3233 529 
Q 2819 -91 2034 -91 
Q 1250 -91 836 529 
Q 422 1150 422 2328 
Q 422 3509 836 4129 
Q 1250 4750 2034 4750 
z
" transform="scale(0.015625)"/>
       </defs>
       <use xlink:href="#DejaVuSans-30"/>
      </g>
     </g>
    </g>
    <g id="xtick_2">
     <g id="line2d_2">
      <g>
       <use xlink:href="#m017d9fa598" x="411.04189" y="307.584" style="stroke: #000000; stroke-width: 0.8"/>
      </g>
     </g>
     <g id="text_2">
      <!-- 1 -->
      <g transform="translate(404.67939 329.780875)scale(0.2 -0.2)">
       <defs>
        <path id="DejaVuSans-31" d="M 794 531 
L 1825 531 
L 1825 4091 
L 703 3866 
L 703 4441 
L 1819 4666 
L 2450 4666 
L 2450 531 
L 3481 531 
L 3481 0 
L 794 0 
L 794 531 
z
" transform="scale(0.015625)"/>
       </defs>
       <use xlink:href="#DejaVuSans-31"/>
      </g>
     </g>
    </g>
    <g id="text_3">
     <!-- Normalised X position -->
     <g transform="translate(111.795937 353.137125)scale(0.2 -0.2)">
      <defs>
       <path id="DejaVuSans-Bold-4e" d="M 588 4666 
L 1931 4666 
L 3628 1466 
L 3628 4666 
L 4769 4666 
L 4769 0 
L 3425 0 
L 1728 3200 
L 1728 0 
L 588 0 
L 588 4666 
z
" transform="scale(0.015625)"/>
       <path id="DejaVuSans-Bold-6f" d="M 2203 2784 
Q 1831 2784 1636 2517 
Q 1441 2250 1441 1747 
Q 1441 1244 1636 976 
Q 1831 709 2203 709 
Q 2569 709 2762 976 
Q 2956 1244 2956 1747 
Q 2956 2250 2762 2517 
Q 2569 2784 2203 2784 
z
M 2203 3584 
Q 3106 3584 3614 3096 
Q 4122 2609 4122 1747 
Q 4122 884 3614 396 
Q 3106 -91 2203 -91 
Q 1297 -91 786 396 
Q 275 884 275 1747 
Q 275 2609 786 3096 
Q 1297 3584 2203 3584 
z
" transform="scale(0.015625)"/>
       <path id="DejaVuSans-Bold-72" d="M 3138 2547 
Q 2991 2616 2845 2648 
Q 2700 2681 2553 2681 
Q 2122 2681 1889 2404 
Q 1656 2128 1656 1613 
L 1656 0 
L 538 0 
L 538 3500 
L 1656 3500 
L 1656 2925 
Q 1872 3269 2151 3426 
Q 2431 3584 2822 3584 
Q 2878 3584 2943 3579 
Q 3009 3575 3134 3559 
L 3138 2547 
z
" transform="scale(0.015625)"/>
       <path id="DejaVuSans-Bold-6d" d="M 3781 2919 
Q 3994 3244 4286 3414 
Q 4578 3584 4928 3584 
Q 5531 3584 5847 3212 
Q 6163 2841 6163 2131 
L 6163 0 
L 5038 0 
L 5038 1825 
Q 5041 1866 5042 1909 
Q 5044 1953 5044 2034 
Q 5044 2406 4934 2573 
Q 4825 2741 4581 2741 
Q 4263 2741 4089 2478 
Q 3916 2216 3909 1719 
L 3909 0 
L 2784 0 
L 2784 1825 
Q 2784 2406 2684 2573 
Q 2584 2741 2328 2741 
Q 2006 2741 1831 2477 
Q 1656 2213 1656 1722 
L 1656 0 
L 531 0 
L 531 3500 
L 1656 3500 
L 1656 2988 
Q 1863 3284 2130 3434 
Q 2397 3584 2719 3584 
Q 3081 3584 3359 3409 
Q 3638 3234 3781 2919 
z
" transform="scale(0.015625)"/>
       <path id="DejaVuSans-Bold-61" d="M 2106 1575 
Q 1756 1575 1579 1456 
Q 1403 1338 1403 1106 
Q 1403 894 1545 773 
Q 1688 653 1941 653 
Q 2256 653 2472 879 
Q 2688 1106 2688 1447 
L 2688 1575 
L 2106 1575 
z
M 3816 1997 
L 3816 0 
L 2688 0 
L 2688 519 
Q 2463 200 2181 54 
Q 1900 -91 1497 -91 
Q 953 -91 614 226 
Q 275 544 275 1050 
Q 275 1666 698 1953 
Q 1122 2241 2028 2241 
L 2688 2241 
L 2688 2328 
Q 2688 2594 2478 2717 
Q 2269 2841 1825 2841 
Q 1466 2841 1156 2769 
Q 847 2697 581 2553 
L 581 3406 
Q 941 3494 1303 3539 
Q 1666 3584 2028 3584 
Q 2975 3584 3395 3211 
Q 3816 2838 3816 1997 
z
" transform="scale(0.015625)"/>
       <path id="DejaVuSans-Bold-6c" d="M 538 4863 
L 1656 4863 
L 1656 0 
L 538 0 
L 538 4863 
z
" transform="scale(0.015625)"/>
       <path id="DejaVuSans-Bold-69" d="M 538 3500 
L 1656 3500 
L 1656 0 
L 538 0 
L 538 3500 
z
M 538 4863 
L 1656 4863 
L 1656 3950 
L 538 3950 
L 538 4863 
z
" transform="scale(0.015625)"/>
       <path id="DejaVuSans-Bold-73" d="M 3272 3391 
L 3272 2541 
Q 2913 2691 2578 2766 
Q 2244 2841 1947 2841 
Q 1628 2841 1473 2761 
Q 1319 2681 1319 2516 
Q 1319 2381 1436 2309 
Q 1553 2238 1856 2203 
L 2053 2175 
Q 2913 2066 3209 1816 
Q 3506 1566 3506 1031 
Q 3506 472 3093 190 
Q 2681 -91 1863 -91 
Q 1516 -91 1145 -36 
Q 775 19 384 128 
L 384 978 
Q 719 816 1070 734 
Q 1422 653 1784 653 
Q 2113 653 2278 743 
Q 2444 834 2444 1013 
Q 2444 1163 2330 1236 
Q 2216 1309 1875 1350 
L 1678 1375 
Q 931 1469 631 1722 
Q 331 1975 331 2491 
Q 331 3047 712 3315 
Q 1094 3584 1881 3584 
Q 2191 3584 2531 3537 
Q 2872 3491 3272 3391 
z
" transform="scale(0.015625)"/>
       <path id="DejaVuSans-Bold-65" d="M 4031 1759 
L 4031 1441 
L 1416 1441 
Q 1456 1047 1700 850 
Q 1944 653 2381 653 
Q 2734 653 3104 758 
Q 3475 863 3866 1075 
L 3866 213 
Q 3469 63 3072 -14 
Q 2675 -91 2278 -91 
Q 1328 -91 801 392 
Q 275 875 275 1747 
Q 275 2603 792 3093 
Q 1309 3584 2216 3584 
Q 3041 3584 3536 3087 
Q 4031 2591 4031 1759 
z
M 2881 2131 
Q 2881 2450 2695 2645 
Q 2509 2841 2209 2841 
Q 1884 2841 1681 2658 
Q 1478 2475 1428 2131 
L 2881 2131 
z
" transform="scale(0.015625)"/>
       <path id="DejaVuSans-Bold-64" d="M 2919 2988 
L 2919 4863 
L 4044 4863 
L 4044 0 
L 2919 0 
L 2919 506 
Q 2688 197 2409 53 
Q 2131 -91 1766 -91 
Q 1119 -91 703 423 
Q 288 938 288 1747 
Q 288 2556 703 3070 
Q 1119 3584 1766 3584 
Q 2128 3584 2408 3439 
Q 2688 3294 2919 2988 
z
M 2181 722 
Q 2541 722 2730 984 
Q 2919 1247 2919 1747 
Q 2919 2247 2730 2509 
Q 2541 2772 2181 2772 
Q 1825 2772 1636 2509 
Q 1447 2247 1447 1747 
Q 1447 1247 1636 984 
Q 1825 722 2181 722 
z
" transform="scale(0.015625)"/>
       <path id="DejaVuSans-Bold-20" transform="scale(0.015625)"/>
       <path id="DejaVuSans-Bold-58" d="M 3188 2381 
L 4806 0 
L 3553 0 
L 2463 1594 
L 1381 0 
L 122 0 
L 1741 2381 
L 184 4666 
L 1441 4666 
L 2463 3163 
L 3481 4666 
L 4744 4666 
L 3188 2381 
z
" transform="scale(0.015625)"/>
       <path id="DejaVuSans-Bold-70" d="M 1656 506 
L 1656 -1331 
L 538 -1331 
L 538 3500 
L 1656 3500 
L 1656 2988 
Q 1888 3294 2169 3439 
Q 2450 3584 2816 3584 
Q 3463 3584 3878 3070 
Q 4294 2556 4294 1747 
Q 4294 938 3878 423 
Q 3463 -91 2816 -91 
Q 2450 -91 2169 54 
Q 1888 200 1656 506 
z
M 2400 2772 
Q 2041 2772 1848 2508 
Q 1656 2244 1656 1747 
Q 1656 1250 1848 986 
Q 2041 722 2400 722 
Q 2759 722 2948 984 
Q 3138 1247 3138 1747 
Q 3138 2247 2948 2509 
Q 2759 2772 2400 2772 
z
" transform="scale(0.015625)"/>
       <path id="DejaVuSans-Bold-74" d="M 1759 4494 
L 1759 3500 
L 2913 3500 
L 2913 2700 
L 1759 2700 
L 1759 1216 
Q 1759 972 1856 886 
Q 1953 800 2241 800 
L 2816 800 
L 2816 0 
L 1856 0 
Q 1194 0 917 276 
Q 641 553 641 1216 
L 641 2700 
L 84 2700 
L 84 3500 
L 641 3500 
L 641 4494 
L 1759 4494 
z
" transform="scale(0.015625)"/>
       <path id="DejaVuSans-Bold-6e" d="M 4056 2131 
L 4056 0 
L 2931 0 
L 2931 347 
L 2931 1631 
Q 2931 2084 2911 2256 
Q 2891 2428 2841 2509 
Q 2775 2619 2662 2680 
Q 2550 2741 2406 2741 
Q 2056 2741 1856 2470 
Q 1656 2200 1656 1722 
L 1656 0 
L 538 0 
L 538 3500 
L 1656 3500 
L 1656 2988 
Q 1909 3294 2193 3439 
Q 2478 3584 2822 3584 
Q 3428 3584 3742 3212 
Q 4056 2841 4056 2131 
z
" transform="scale(0.015625)"/>
      </defs>
      <use xlink:href="#DejaVuSans-Bold-4e"/>
      <use xlink:href="#DejaVuSans-Bold-6f" x="83.691406"/>
      <use xlink:href="#DejaVuSans-Bold-72" x="152.392578"/>
      <use xlink:href="#DejaVuSans-Bold-6d" x="201.708984"/>
      <use xlink:href="#DejaVuSans-Bold-61" x="305.908203"/>
      <use xlink:href="#DejaVuSans-Bold-6c" x="373.388672"/>
      <use xlink:href="#DejaVuSans-Bold-69" x="407.666016"/>
      <use xlink:href="#DejaVuSans-Bold-73" x="441.943359"/>
      <use xlink:href="#DejaVuSans-Bold-65" x="501.464844"/>
      <use xlink:href="#DejaVuSans-Bold-64" x="569.287109"/>
      <use xlink:href="#DejaVuSans-Bold-20" x="640.869141"/>
      <use xlink:href="#DejaVuSans-Bold-58" x="675.683594"/>
      <use xlink:href="#DejaVuSans-Bold-20" x="752.783203"/>
      <use xlink:href="#DejaVuSans-Bold-70" x="787.597656"/>
      <use xlink:href="#DejaVuSans-Bold-6f" x="859.179688"/>
      <use xlink:href="#DejaVuSans-Bold-73" x="927.880859"/>
      <use xlink:href="#DejaVuSans-Bold-69" x="987.402344"/>
      <use xlink:href="#DejaVuSans-Bold-74" x="1021.679688"/>
      <use xlink:href="#DejaVuSans-Bold-69" x="1069.482422"/>
      <use xlink:href="#DejaVuSans-Bold-6f" x="1103.759766"/>
      <use xlink:href="#DejaVuSans-Bold-6e" x="1172.460938"/>
     </g>
    </g>
   </g>
   <g id="matplotlib.axis_2">
    <g id="ytick_1">
     <g id="line2d_3">
      <defs>
       <path id="me7f16576a6" d="M 0 0 
L -3.5 0 
" style="stroke: #000000; stroke-width: 0.8"/>
      </defs>
      <g>
       <use xlink:href="#me7f16576a6" x="57.6" y="297.739915" style="stroke: #000000; stroke-width: 0.8"/>
      </g>
     </g>
     <g id="text_4">
      <!-- 0 -->
      <g transform="translate(37.875 305.338352)scale(0.2 -0.2)">
       <use xlink:href="#DejaVuSans-30"/>
      </g>
     </g>
    </g>
    <g id="ytick_2">
     <g id="line2d_4">
      <g>
       <use xlink:href="#me7f16576a6" x="57.6" y="53.568" style="stroke: #000000; stroke-width: 0.8"/>
      </g>
     </g>
     <g id="text_5">
      <!-- 1 -->
      <g transform="translate(37.875 61.166438)scale(0.2 -0.2)">
       <use xlink:href="#DejaVuSans-31"/>
      </g>
     </g>
    </g>
    <g id="text_6">
     <!-- Normalised Y position -->
     <g transform="translate(29.715625 298.423313)rotate(-90)scale(0.2 -0.2)">
      <defs>
       <path id="DejaVuSans-Bold-59" d="M -63 4666 
L 1253 4666 
L 2316 3003 
L 3378 4666 
L 4697 4666 
L 2919 1966 
L 2919 0 
L 1716 0 
L 1716 1966 
L -63 4666 
z
" transform="scale(0.015625)"/>
      </defs>
      <use xlink:href="#DejaVuSans-Bold-4e"/>
      <use xlink:href="#DejaVuSans-Bold-6f" x="83.691406"/>
      <use xlink:href="#DejaVuSans-Bold-72" x="152.392578"/>
      <use xlink:href="#DejaVuSans-Bold-6d" x="201.708984"/>
      <use xlink:href="#DejaVuSans-Bold-61" x="305.908203"/>
      <use xlink:href="#DejaVuSans-Bold-6c" x="373.388672"/>
      <use xlink:href="#DejaVuSans-Bold-69" x="407.666016"/>
      <use xlink:href="#DejaVuSans-Bold-73" x="441.943359"/>
      <use xlink:href="#DejaVuSans-Bold-65" x="501.464844"/>
      <use xlink:href="#DejaVuSans-Bold-64" x="569.287109"/>
      <use xlink:href="#DejaVuSans-Bold-20" x="640.869141"/>
      <use xlink:href="#DejaVuSans-Bold-59" x="675.683594"/>
      <use xlink:href="#DejaVuSans-Bold-20" x="748.095703"/>
      <use xlink:href="#DejaVuSans-Bold-70" x="782.910156"/>
      <use xlink:href="#DejaVuSans-Bold-6f" x="854.492188"/>
      <use xlink:href="#DejaVuSans-Bold-73" x="923.193359"/>
      <use xlink:href="#DejaVuSans-Bold-69" x="982.714844"/>
      <use xlink:href="#DejaVuSans-Bold-74" x="1016.992188"/>
      <use xlink:href="#DejaVuSans-Bold-69" x="1064.794922"/>
      <use xlink:href="#DejaVuSans-Bold-6f" x="1099.072266"/>
      <use xlink:href="#DejaVuSans-Bold-6e" x="1167.773438"/>
     </g>
    </g>
   </g>
   <g id="line2d_5">
    <path d="M 260.190321 209.593532 
L 260.190321 209.593532 
L 260.190321 209.593532 
L 260.190321 209.593532 
L 260.190321 209.593532 
L 260.190321 209.593532 
L 260.190321 209.593532 
L 260.190321 209.593532 
L 260.190321 209.593532 
L 260.190321 209.593532 
L 260.190321 209.593532 
L 260.190321 209.593532 
L 260.190321 209.593532 
L 260.190321 209.593532 
L 260.190321 209.593532 
L 260.190321 209.593532 
L 260.190321 209.593532 
L 260.190321 209.593532 
L 260.190321 209.593532 
L 260.190321 209.593532 
L 260.190321 209.593532 
L 260.190321 209.593532 
L 260.190321 209.593532 
L 260.190321 209.593532 
L 260.190321 209.593532 
L 260.190321 209.593532 
L 260.190321 209.593532 
L 260.190321 209.593532 
L 260.190321 209.593532 
L 260.190321 209.593532 
L 260.190321 209.593532 
L 260.190321 209.593532 
L 260.190321 209.593532 
L 260.190321 209.593532 
L 260.190321 209.593532 
L 260.190321 209.593532 
L 260.190321 209.593532 
L 260.190321 209.593532 
L 260.190321 209.593532 
L 260.190321 209.593532 
L 260.190321 209.593532 
L 260.190321 209.593532 
L 260.190321 209.593532 
L 260.190321 209.593532 
L 260.190321 209.593532 
L 260.190321 209.593532 
L 260.190321 209.593532 
L 260.190321 209.593532 
L 260.190321 209.593532 
L 260.190321 209.593532 
L 260.190321 209.593532 
L 260.190321 209.593532 
L 260.190321 209.593532 
L 260.190321 209.593532 
L 260.190321 209.593532 
L 260.190321 209.593532 
L 260.190321 209.593532 
L 260.190321 209.593532 
L 260.190321 209.593532 
L 73.832727 65.149277 
L 73.832727 63.862468 
L 94.626311 60.967149 
L 108.55409 59.036936 
L 122.678034 57.750128 
L 136.998143 56.463319 
L 151.122087 55.176511 
L 165.049865 54.533106 
L 178.977644 53.889702 
L 193.297753 53.889702 
L 200.163559 53.568 
L 220.564812 54.211404 
L 227.430618 54.533106 
L 240.769898 55.498213 
L 255.286174 58.393532 
L 259.013326 59.358638 
L 269.80245 61.610553 
L 282.749399 65.792681 
L 287.065048 67.401191 
L 295.892513 70.618213 
L 300.404328 72.226723 
L 309.624125 75.443745 
L 318.059258 78.982468 
L 326.298226 82.521191 
L 332.379368 86.381617 
L 338.460511 90.242043 
L 343.168492 94.42417 
L 346.699478 98.928 
L 349.445801 105.04034 
L 348.661137 108.579064 
L 346.307146 112.117787 
L 341.991497 115.656511 
L 337.872013 118.55183 
L 331.987037 120.803745 
L 323.159572 123.05566 
L 313.939775 124.342468 
L 304.916144 125.307574 
L 293.146191 126.272681 
L 279.414578 126.594383 
L 266.859962 126.272681 
L 252.343686 125.629277 
L 236.846581 124.66417 
L 221.349475 123.377362 
L 204.086877 122.412255 
L 189.962933 121.447149 
L 172.896501 120.482043 
L 159.164889 119.838638 
" clip-path="url(#p8dc18503ef)" style="fill: none; stroke: #000000; stroke-width: 1.5; stroke-linecap: square"/>
   </g>
   <g id="line2d_6">
    <path d="M 260.190321 209.593532 
" clip-path="url(#p8dc18503ef)" style="fill: none; stroke: #000000; stroke-width: 1.5; stroke-linecap: square"/>
    <defs>
     <path id="mecfebac023" d="M 0 5 
C 1.326016 5 2.597899 4.473168 3.535534 3.535534 
C 4.473168 2.597899 5 1.326016 5 0 
C 5 -1.326016 4.473168 -2.597899 3.535534 -3.535534 
C 2.597899 -4.473168 1.326016 -5 0 -5 
C -1.326016 -5 -2.597899 -4.473168 -3.535534 -3.535534 
C -4.473168 -2.597899 -5 -1.326016 -5 0 
C -5 1.326016 -4.473168 2.597899 -3.535534 3.535534 
C -2.597899 4.473168 -1.326016 5 0 5 
z
" style="stroke: #000000"/>
    </defs>
    <g clip-path="url(#p8dc18503ef)">
     <use xlink:href="#mecfebac023" x="260.190321" y="209.593532" style="stroke: #000000"/>
    </g>
   </g>
   <g id="line2d_7">
    <path d="M 159.164889 119.838638 
" clip-path="url(#p8dc18503ef)" style="fill: none; stroke: #000000; stroke-width: 1.5; stroke-linecap: square"/>
    <defs>
     <path id="m00aa895338" d="M -5 5 
L 5 5 
L 5 -5 
L -5 -5 
z
" style="stroke: #000000; stroke-linejoin: miter"/>
    </defs>
    <g clip-path="url(#p8dc18503ef)">
     <use xlink:href="#m00aa895338" x="159.164889" y="119.838638" style="stroke: #000000; stroke-linejoin: miter"/>
    </g>
   </g>
   <g id="line2d_8">
    <path d="M 257.443999 184.179064 
L 256.855501 184.500766 
L 256.463169 184.500766 
L 256.267004 184.500766 
L 255.874672 184.500766 
L 255.678506 184.500766 
L 255.678506 184.500766 
L 255.48234 184.179064 
L 255.48234 184.179064 
L 255.48234 184.179064 
L 255.48234 184.179064 
L 255.48234 184.179064 
L 255.286174 184.179064 
L 255.090008 184.179064 
L 254.697676 184.500766 
L 253.716847 184.500766 
L 252.736018 184.822468 
L 251.362856 185.14417 
L 249.401197 185.465872 
L 246.851041 186.109277 
L 243.320055 186.752681 
L 237.82741 187.717787 
L 231.942433 188.682894 
L 225.468959 189.969702 
L 218.210821 191.256511 
L 210.952683 192.865021 
L 202.713716 194.15183 
L 195.455578 195.76034 
L 188.393606 197.047149 
L 182.116298 198.65566 
L 176.231321 200.26417 
L 171.131008 201.872681 
L 166.619193 203.481191 
L 161.715045 205.089702 
L 158.184059 206.376511 
L 154.260742 207.663319 
L 151.122087 208.950128 
L 148.375765 209.915234 
L 145.237111 211.202043 
L 142.490788 212.488851 
L 141.509959 212.810553 
L 139.155968 214.097362 
L 136.998143 215.38417 
L 134.447987 217.314383 
L 132.682494 218.601191 
L 130.917001 219.888 
L 128.955342 221.174809 
L 127.974512 221.818213 
L 125.620522 223.426723 
L 123.462697 224.713532 
L 121.304872 226.322043 
L 119.147048 227.608851 
L 117.57772 228.89566 
L 116.596891 229.860766 
L 115.616062 230.825872 
L 114.831398 232.112681 
L 114.635232 233.077787 
L 114.635232 234.042894 
L 114.831398 234.364596 
L 115.22373 235.008 
L 115.812227 235.651404 
L 116.793057 235.973106 
L 118.754716 236.616511 
L 120.716375 236.938213 
L 122.285702 237.259915 
L 123.855029 237.581617 
L 125.032024 237.581617 
L 126.012854 237.903319 
L 126.601351 238.225021 
L 126.797517 238.868426 
L 126.405185 239.51183 
L 125.620522 240.155234 
L 124.639692 240.798638 
L 123.462697 241.442043 
L 122.678034 242.085447 
L 122.089536 242.728851 
L 121.697204 243.050553 
L 121.304872 243.372255 
L 121.108706 243.693957 
L 121.304872 244.01566 
L 121.304872 244.01566 
L 121.304872 244.337362 
L 121.501038 244.659064 
L 121.697204 244.980766 
L 122.089536 245.302468 
L 122.285702 245.62417 
L 122.874199 245.945872 
L 123.462697 246.267574 
L 123.855029 246.589277 
L 124.247361 247.232681 
L 124.835858 247.876085 
L 125.032024 248.519489 
L 125.032024 249.162894 
L 124.639692 249.484596 
L 124.051195 250.128 
L 123.266531 250.771404 
L 122.481868 251.414809 
" clip-path="url(#p8dc18503ef)" style="fill: none; stroke: #00fa9a; stroke-width: 1.5; stroke-linecap: square"/>
   </g>
   <g id="line2d_9">
    <path d="M 257.443999 184.179064 
" clip-path="url(#p8dc18503ef)" style="fill: none; stroke: #00fa9a; stroke-width: 1.5; stroke-linecap: square"/>
    <defs>
     <path id="m488adf7194" d="M 0 5 
C 1.326016 5 2.597899 4.473168 3.535534 3.535534 
C 4.473168 2.597899 5 1.326016 5 0 
C 5 -1.326016 4.473168 -2.597899 3.535534 -3.535534 
C 2.597899 -4.473168 1.326016 -5 0 -5 
C -1.326016 -5 -2.597899 -4.473168 -3.535534 -3.535534 
C -4.473168 -2.597899 -5 -1.326016 -5 0 
C -5 1.326016 -4.473168 2.597899 -3.535534 3.535534 
C -2.597899 4.473168 -1.326016 5 0 5 
z
" style="stroke: #00fa9a"/>
    </defs>
    <g clip-path="url(#p8dc18503ef)">
     <use xlink:href="#m488adf7194" x="257.443999" y="184.179064" style="fill: #00fa9a; stroke: #00fa9a"/>
    </g>
   </g>
   <g id="line2d_10">
    <path d="M 122.481868 251.414809 
" clip-path="url(#p8dc18503ef)" style="fill: none; stroke: #00fa9a; stroke-width: 1.5; stroke-linecap: square"/>
    <defs>
     <path id="mb05117b532" d="M -5 5 
L 5 5 
L 5 -5 
L -5 -5 
z
" style="stroke: #00fa9a; stroke-linejoin: miter"/>
    </defs>
    <g clip-path="url(#p8dc18503ef)">
     <use xlink:href="#mb05117b532" x="122.481868" y="251.414809" style="fill: #00fa9a; stroke: #00fa9a; stroke-linejoin: miter"/>
    </g>
   </g>
   <g id="line2d_11">
    <path d="M 255.678506 197.047149 
L 255.678506 196.725447 
L 255.678506 196.725447 
L 255.678506 196.403745 
L 255.48234 196.403745 
L 255.48234 196.403745 
L 255.48234 196.403745 
L 255.678506 196.403745 
L 255.678506 196.403745 
L 255.678506 196.403745 
L 255.678506 196.403745 
L 255.678506 196.403745 
L 255.874672 196.403745 
L 256.267004 196.403745 
L 256.855501 196.403745 
L 257.443999 196.403745 
L 258.424828 196.725447 
L 259.601824 197.047149 
L 261.171151 197.690553 
L 262.936644 198.65566 
L 265.879132 200.26417 
L 268.429289 202.194383 
L 271.960275 204.768 
L 275.295095 206.698213 
L 279.610744 209.27183 
L 283.337896 212.167149 
L 287.065048 215.062468 
L 288.830541 216.670979 
L 292.165361 219.566298 
L 295.892513 222.461617 
L 299.619665 224.713532 
L 303.150651 227.287149 
L 306.877803 229.539064 
L 310.604955 232.112681 
L 313.939775 234.364596 
L 317.274595 236.616511 
L 320.609415 238.868426 
L 323.944235 241.12034 
L 327.082889 243.050553 
L 330.221544 244.980766 
L 333.360198 246.910979 
L 336.302686 248.519489 
L 339.049009 249.806298 
L 341.599165 251.093106 
L 343.75699 252.058213 
L 345.914815 253.023319 
L 347.484142 253.666723 
L 349.053469 254.63183 
L 350.622796 254.953532 
L 351.603625 255.596936 
L 352.780621 255.918638 
L 353.957616 256.24034 
L 354.546114 256.562043 
L 355.330777 256.883745 
L 356.311607 256.883745 
L 357.09627 257.205447 
L 357.880934 257.205447 
L 358.273266 257.527149 
L 359.254095 257.527149 
L 359.450261 257.848851 
L 359.450261 258.170553 
L 359.254095 258.492255 
L 359.254095 258.813957 
L 359.057929 259.457362 
L 359.057929 260.100766 
L 358.861763 260.74417 
L 358.665597 261.709277 
L 358.861763 262.030979 
L 359.057929 262.674383 
L 359.057929 262.996085 
L 358.861763 263.961191 
L 358.665597 264.926298 
L 358.273266 266.213106 
L 358.273266 267.178213 
L 358.0771 268.786723 
L 357.880934 270.395234 
L 357.684768 271.682043 
L 357.488602 272.968851 
L 357.488602 274.577362 
L 357.488602 275.86417 
L 357.488602 276.829277 
L 357.292436 278.116085 
L 357.09627 279.081191 
L 356.900104 280.046298 
L 356.703938 280.368 
L 356.703938 281.011404 
L 356.703938 281.654809 
L 356.900104 282.298213 
L 357.292436 282.941617 
L 357.684768 283.585021 
L 358.0771 284.550128 
L 358.469431 284.87183 
L 358.665597 285.836936 
L 359.254095 286.48034 
L 359.254095 287.445447 
L 359.254095 288.410553 
L 359.646427 288.732255 
L 359.842593 289.053957 
L 360.234924 289.37566 
L 360.823422 289.37566 
L 361.41192 289.37566 
L 362.196583 289.37566 
L 362.981247 289.37566 
L 363.962076 289.053957 
L 364.74674 289.053957 
L 365.727569 289.053957 
" clip-path="url(#p8dc18503ef)" style="fill: none; stroke: #008000; stroke-width: 1.5; stroke-linecap: square"/>
   </g>
   <g id="line2d_12">
    <path d="M 255.678506 197.047149 
" clip-path="url(#p8dc18503ef)" style="fill: none; stroke: #008000; stroke-width: 1.5; stroke-linecap: square"/>
    <defs>
     <path id="m98088727d7" d="M 0 5 
C 1.326016 5 2.597899 4.473168 3.535534 3.535534 
C 4.473168 2.597899 5 1.326016 5 0 
C 5 -1.326016 4.473168 -2.597899 3.535534 -3.535534 
C 2.597899 -4.473168 1.326016 -5 0 -5 
C -1.326016 -5 -2.597899 -4.473168 -3.535534 -3.535534 
C -4.473168 -2.597899 -5 -1.326016 -5 0 
C -5 1.326016 -4.473168 2.597899 -3.535534 3.535534 
C -2.597899 4.473168 -1.326016 5 0 5 
z
" style="stroke: #008000"/>
    </defs>
    <g clip-path="url(#p8dc18503ef)">
     <use xlink:href="#m98088727d7" x="255.678506" y="197.047149" style="fill: #008000; stroke: #008000"/>
    </g>
   </g>
   <g id="line2d_13">
    <path d="M 365.727569 289.053957 
" clip-path="url(#p8dc18503ef)" style="fill: none; stroke: #008000; stroke-width: 1.5; stroke-linecap: square"/>
    <defs>
     <path id="m8ee8080c98" d="M -5 5 
L 5 5 
L 5 -5 
L -5 -5 
z
" style="stroke: #008000; stroke-linejoin: miter"/>
    </defs>
    <g clip-path="url(#p8dc18503ef)">
     <use xlink:href="#m8ee8080c98" x="365.727569" y="289.053957" style="fill: #008000; stroke: #008000; stroke-linejoin: miter"/>
    </g>
   </g>
   <g id="line2d_14">
    <path d="M 260.974985 191.578213 
L 260.582653 191.578213 
L 260.190321 191.256511 
L 259.994155 191.256511 
L 259.79799 191.256511 
L 259.601824 190.934809 
L 259.405658 190.934809 
L 259.209492 190.934809 
L 258.81716 190.934809 
L 258.620994 190.934809 
L 258.424828 190.934809 
L 258.228662 190.934809 
L 258.032497 190.934809 
L 258.032497 190.934809 
L 257.836331 190.934809 
L 257.247833 190.934809 
L 256.070838 191.256511 
L 254.109179 191.578213 
L 251.755188 191.578213 
L 249.008866 191.256511 
L 245.47788 191.256511 
L 242.339225 190.613106 
L 238.808239 189.648 
L 235.473419 188.682894 
L 231.942433 187.396085 
L 228.999945 186.109277 
L 226.057457 184.500766 
L 224.48813 183.857362 
L 221.15331 182.570553 
L 218.210821 180.962043 
L 215.268333 179.675234 
L 212.52201 178.066723 
L 209.579522 176.779915 
L 207.029366 175.814809 
L 204.283043 174.528 
L 201.536721 173.241191 
L 198.790398 172.276085 
L 196.240242 171.310979 
L 193.886251 170.345872 
L 191.53226 169.702468 
L 189.374436 169.059064 
L 187.020445 168.41566 
L 184.470288 167.772255 
L 181.5278 167.450553 
L 178.19298 167.128851 
L 175.446658 166.807149 
L 172.504169 166.163745 
L 169.757847 165.842043 
L 167.011524 165.198638 
L 164.657534 164.555234 
L 162.499709 163.91183 
L 160.734216 162.946723 
L 158.772557 162.303319 
L 157.20323 161.338213 
L 155.633903 160.694809 
L 154.064576 160.373106 
L 152.299083 160.051404 
L 150.729756 159.729702 
L 149.356594 159.408 
L 148.179599 159.408 
L 146.610272 159.729702 
L 145.825608 159.408 
L 145.040945 159.408 
L 144.452447 159.086298 
L 143.863949 159.086298 
L 143.471618 158.764596 
L 142.686954 158.764596 
L 142.294622 158.442894 
L 141.902291 158.121191 
L 141.313793 157.799489 
L 140.921461 157.477787 
L 140.332963 157.156085 
L 139.744466 156.834383 
" clip-path="url(#p8dc18503ef)" style="fill: none; stroke: #ffd700; stroke-width: 1.5; stroke-linecap: square"/>
   </g>
   <g id="line2d_15">
    <path d="M 260.974985 191.578213 
" clip-path="url(#p8dc18503ef)" style="fill: none; stroke: #ffd700; stroke-width: 1.5; stroke-linecap: square"/>
    <defs>
     <path id="m60821dcb42" d="M 0 5 
C 1.326016 5 2.597899 4.473168 3.535534 3.535534 
C 4.473168 2.597899 5 1.326016 5 0 
C 5 -1.326016 4.473168 -2.597899 3.535534 -3.535534 
C 2.597899 -4.473168 1.326016 -5 0 -5 
C -1.326016 -5 -2.597899 -4.473168 -3.535534 -3.535534 
C -4.473168 -2.597899 -5 -1.326016 -5 0 
C -5 1.326016 -4.473168 2.597899 -3.535534 3.535534 
C -2.597899 4.473168 -1.326016 5 0 5 
z
" style="stroke: #ffd700"/>
    </defs>
    <g clip-path="url(#p8dc18503ef)">
     <use xlink:href="#m60821dcb42" x="260.974985" y="191.578213" style="fill: #ffd700; stroke: #ffd700"/>
    </g>
   </g>
   <g id="line2d_16">
    <path d="M 139.744466 156.834383 
" clip-path="url(#p8dc18503ef)" style="fill: none; stroke: #ffd700; stroke-width: 1.5; stroke-linecap: square"/>
    <defs>
     <path id="mf537c25c4e" d="M -5 5 
L 5 5 
L 5 -5 
L -5 -5 
z
" style="stroke: #ffd700; stroke-linejoin: miter"/>
    </defs>
    <g clip-path="url(#p8dc18503ef)">
     <use xlink:href="#mf537c25c4e" x="139.744466" y="156.834383" style="fill: #ffd700; stroke: #ffd700; stroke-linejoin: miter"/>
    </g>
   </g>
   <g id="line2d_17">
    <path d="M 252.736018 197.690553 
L 252.736018 197.690553 
L 252.736018 197.368851 
L 252.932183 197.368851 
L 252.932183 197.368851 
L 252.932183 197.368851 
L 252.932183 197.368851 
L 252.736018 197.368851 
L 252.736018 197.368851 
L 252.736018 197.368851 
L 252.736018 197.368851 
L 252.539852 197.690553 
L 252.343686 197.368851 
L 252.343686 197.368851 
L 252.343686 197.690553 
L 252.539852 198.012255 
L 252.932183 198.333957 
L 253.716847 198.977362 
L 254.893842 199.620766 
L 256.855501 200.585872 
L 259.405658 202.194383 
L 263.525141 204.446298 
L 267.252293 207.341617 
L 270.979445 210.558638 
L 275.883592 213.77566 
L 280.003076 217.636085 
L 284.12256 220.853106 
L 288.242043 224.39183 
L 291.969195 227.930553 
L 293.538522 229.539064 
L 297.46184 232.756085 
L 301.385158 235.973106 
L 305.504642 239.190128 
L 310.016457 242.085447 
L 314.332107 244.337362 
L 318.45159 246.589277 
L 322.374908 248.841191 
L 325.905894 250.771404 
L 329.044548 252.701617 
L 331.790871 254.310128 
L 334.341027 256.562043 
L 336.498852 258.170553 
L 338.852843 259.457362 
L 341.206833 260.74417 
L 343.560824 261.709277 
L 345.914815 262.996085 
L 347.876473 263.639489 
L 349.445801 264.604596 
L 351.015128 265.569702 
L 351.995957 266.534809 
L 352.584455 266.856511 
L 353.172952 268.143319 
L 353.76145 269.108426 
L 354.546114 270.073532 
L 354.74228 270.395234 
L 355.919275 271.36034 
L 356.703938 271.682043 
L 357.09627 271.682043 
L 357.09627 271.682043 
L 357.09627 271.682043 
L 357.488602 271.682043 
L 357.488602 271.682043 
L 358.861763 271.682043 
L 360.038759 271.682043 
L 361.41192 272.003745 
L 362.785081 272.325447 
L 363.373579 272.647149 
L 363.962076 273.290553 
L 364.550574 273.612255 
L 364.74674 273.933957 
L 365.139072 274.577362 
L 365.335238 274.899064 
L 365.923735 275.220766 
L 366.119901 275.86417 
L 366.708399 276.507574 
L 366.708399 277.150979 
L 366.904565 277.794383 
L 367.100731 278.437787 
L 367.100731 278.759489 
L 367.296896 279.081191 
L 367.296896 279.724596 
L 367.100731 280.046298 
L 367.100731 280.368 
L 366.904565 280.689702 
L 367.100731 281.011404 
L 367.296896 281.011404 
L 367.689228 281.333106 
L 367.885394 281.333106 
L 368.277726 281.654809 
L 368.473892 281.654809 
L 368.866224 281.976511 
L 369.062389 281.976511 
L 369.258555 282.298213 
L 369.650887 282.298213 
L 369.847053 282.619915 
" clip-path="url(#p8dc18503ef)" style="fill: none; stroke: #87cefa; stroke-width: 1.5; stroke-linecap: square"/>
   </g>
   <g id="line2d_18">
    <path d="M 252.736018 197.690553 
" clip-path="url(#p8dc18503ef)" style="fill: none; stroke: #87cefa; stroke-width: 1.5; stroke-linecap: square"/>
    <defs>
     <path id="m3e34c046a9" d="M 0 5 
C 1.326016 5 2.597899 4.473168 3.535534 3.535534 
C 4.473168 2.597899 5 1.326016 5 0 
C 5 -1.326016 4.473168 -2.597899 3.535534 -3.535534 
C 2.597899 -4.473168 1.326016 -5 0 -5 
C -1.326016 -5 -2.597899 -4.473168 -3.535534 -3.535534 
C -4.473168 -2.597899 -5 -1.326016 -5 0 
C -5 1.326016 -4.473168 2.597899 -3.535534 3.535534 
C -2.597899 4.473168 -1.326016 5 0 5 
z
" style="stroke: #87cefa"/>
    </defs>
    <g clip-path="url(#p8dc18503ef)">
     <use xlink:href="#m3e34c046a9" x="252.736018" y="197.690553" style="fill: #87cefa; stroke: #87cefa"/>
    </g>
   </g>
   <g id="line2d_19">
    <path d="M 369.847053 282.619915 
" clip-path="url(#p8dc18503ef)" style="fill: none; stroke: #87cefa; stroke-width: 1.5; stroke-linecap: square"/>
    <defs>
     <path id="m7c9ef4345e" d="M -5 5 
L 5 5 
L 5 -5 
L -5 -5 
z
" style="stroke: #87cefa; stroke-linejoin: miter"/>
    </defs>
    <g clip-path="url(#p8dc18503ef)">
     <use xlink:href="#m7c9ef4345e" x="369.847053" y="282.619915" style="fill: #87cefa; stroke: #87cefa; stroke-linejoin: miter"/>
    </g>
   </g>
   <g id="line2d_20">
    <path d="M 262.936644 188.682894 
L 262.936644 188.682894 
L 262.740478 188.682894 
L 262.348146 188.682894 
L 262.348146 188.682894 
L 262.348146 188.682894 
L 262.544312 188.682894 
L 262.740478 188.682894 
L 262.740478 188.682894 
L 262.740478 188.682894 
L 262.740478 188.682894 
L 262.740478 188.682894 
L 262.544312 188.682894 
L 262.348146 189.004596 
L 262.15198 189.326298 
L 261.955814 189.326298 
L 261.563483 189.326298 
L 261.171151 189.326298 
L 259.405658 189.326298 
L 257.051667 189.326298 
L 253.716847 189.004596 
L 249.793529 188.361191 
L 245.085548 187.717787 
L 240.181401 186.752681 
L 237.435078 186.109277 
L 229.588443 184.179064 
L 224.880461 182.248851 
L 220.17248 180.64034 
L 215.660665 178.710128 
L 213.306674 177.423319 
L 207.029366 174.849702 
L 203.106048 172.919489 
L 199.18273 171.310979 
L 195.259412 169.702468 
L 191.53226 168.41566 
L 187.608943 166.807149 
L 183.685625 165.198638 
L 179.762307 163.590128 
L 175.446658 162.625021 
L 170.934842 161.659915 
L 168.777017 161.659915 
L 163.676704 161.338213 
L 158.184059 161.659915 
L 153.672244 161.338213 
L 149.748926 160.694809 
L 145.825608 160.373106 
L 141.706125 159.086298 
L 139.155968 158.764596 
L 137.978973 158.442894 
L 134.447987 157.799489 
L 131.89783 157.477787 
L 129.54384 157.477787 
L 127.582181 157.156085 
L 125.816688 156.834383 
L 124.835858 156.512681 
L 122.874199 155.869277 
L 121.501038 155.225872 
L 120.912541 155.225872 
L 119.539379 154.260766 
L 119.343213 153.939064 
L 118.754716 153.29566 
L 118.362384 152.973957 
L 117.970052 152.008851 
L 117.773886 151.687149 
L 117.57772 151.365447 
L 117.381555 151.043745 
L 117.185389 150.722043 
L 116.989223 150.40034 
L 116.989223 150.078638 
L 116.989223 150.078638 
L 116.989223 149.756936 
L 117.185389 149.756936 
L 117.185389 149.435234 
L 117.185389 149.435234 
L 117.185389 149.435234 
L 117.185389 149.435234 
" clip-path="url(#p8dc18503ef)" style="fill: none; stroke: #ff00ff; stroke-width: 1.5; stroke-linecap: square"/>
   </g>
   <g id="line2d_21">
    <path d="M 262.936644 188.682894 
" clip-path="url(#p8dc18503ef)" style="fill: none; stroke: #ff00ff; stroke-width: 1.5; stroke-linecap: square"/>
    <defs>
     <path id="m9051dd2f8a" d="M 0 5 
C 1.326016 5 2.597899 4.473168 3.535534 3.535534 
C 4.473168 2.597899 5 1.326016 5 0 
C 5 -1.326016 4.473168 -2.597899 3.535534 -3.535534 
C 2.597899 -4.473168 1.326016 -5 0 -5 
C -1.326016 -5 -2.597899 -4.473168 -3.535534 -3.535534 
C -4.473168 -2.597899 -5 -1.326016 -5 0 
C -5 1.326016 -4.473168 2.597899 -3.535534 3.535534 
C -2.597899 4.473168 -1.326016 5 0 5 
z
" style="stroke: #ff00ff"/>
    </defs>
    <g clip-path="url(#p8dc18503ef)">
     <use xlink:href="#m9051dd2f8a" x="262.936644" y="188.682894" style="fill: #ff00ff; stroke: #ff00ff"/>
    </g>
   </g>
   <g id="line2d_22">
    <path d="M 117.185389 149.435234 
" clip-path="url(#p8dc18503ef)" style="fill: none; stroke: #ff00ff; stroke-width: 1.5; stroke-linecap: square"/>
    <defs>
     <path id="m6f623e3ab7" d="M -5 5 
L 5 5 
L 5 -5 
L -5 -5 
z
" style="stroke: #ff00ff; stroke-linejoin: miter"/>
    </defs>
    <g clip-path="url(#p8dc18503ef)">
     <use xlink:href="#m6f623e3ab7" x="117.185389" y="149.435234" style="fill: #ff00ff; stroke: #ff00ff; stroke-linejoin: miter"/>
    </g>
   </g>
   <g id="line2d_23">
    <path d="M 249.793529 182.570553 
L 249.793529 182.570553 
L 249.597363 182.892255 
L 249.793529 182.892255 
L 249.793529 182.570553 
L 249.793529 182.570553 
L 249.793529 182.570553 
L 249.793529 182.570553 
L 249.793529 182.570553 
L 249.793529 182.570553 
L 249.793529 182.570553 
L 249.793529 182.570553 
L 249.597363 182.892255 
L 249.597363 182.892255 
L 249.401197 183.213957 
L 249.401197 183.213957 
L 249.401197 183.213957 
L 249.401197 183.53566 
L 249.597363 183.53566 
L 250.185861 183.857362 
L 250.382027 183.857362 
L 251.559022 184.179064 
L 252.539852 184.500766 
L 254.305345 185.14417 
L 255.678506 186.109277 
L 257.443999 187.074383 
L 259.994155 189.004596 
L 262.544312 191.256511 
L 265.094469 194.15183 
L 267.644625 197.368851 
L 270.390948 201.229277 
L 272.744938 205.733106 
L 275.687427 210.558638 
L 279.218413 215.38417 
L 282.749399 219.888 
L 286.47655 224.070128 
L 290.399868 228.573957 
L 294.323186 232.434383 
L 298.638835 236.616511 
L 303.150651 240.155234 
L 307.858632 244.01566 
L 312.958945 247.554383 
L 318.059258 250.771404 
L 322.963406 253.988426 
L 327.671387 257.205447 
L 332.183202 260.422468 
L 336.498852 263.317787 
L 338.460511 264.926298 
L 340.42217 265.891404 
L 345.326317 269.108426 
L 348.661137 271.36034 
L 352.584455 273.933957 
L 353.76145 274.577362 
L 355.919275 276.185872 
L 357.880934 277.150979 
L 359.646427 278.116085 
L 360.43109 278.437787 
L 361.804252 279.081191 
L 363.177413 279.724596 
L 364.354408 280.689702 
L 365.139072 281.654809 
L 365.727569 281.976511 
L 368.866224 283.585021 
L 370.827882 284.228426 
L 372.593375 284.550128 
L 374.555034 284.87183 
L 376.320527 284.87183 
L 377.889854 284.87183 
L 379.263016 284.87183 
L 380.636177 284.228426 
L 381.813172 283.906723 
L 382.794002 283.585021 
L 383.970997 283.263319 
L 384.755661 282.941617 
L 385.540324 282.941617 
L 386.324988 282.941617 
L 386.913485 282.941617 
L 387.305817 283.263319 
L 387.698149 283.585021 
L 387.894315 283.906723 
L 388.286647 284.228426 
L 388.286647 284.550128 
L 388.482812 285.193532 
L 388.678978 285.515234 
L 388.678978 286.158638 
L 388.678978 286.802043 
L 388.678978 287.123745 
L 389.07131 287.767149 
L 389.267476 288.088851 
L 389.267476 288.410553 
L 389.267476 288.732255 
L 389.463642 289.37566 
L 389.659808 289.697362 
L 389.855974 290.019064 
L 390.248305 290.340766 
L 390.640637 290.662468 
L 391.032969 290.98417 
L 391.621467 291.305872 
L 392.209964 291.627574 
L 392.994628 291.949277 
L 393.779291 292.270979 
L 394.367789 292.592681 
L 394.956287 292.914383 
L 395.544784 293.236085 
L 396.133282 293.879489 
L 396.72178 294.201191 
L 397.114112 294.522894 
L 397.506443 294.844596 
L 397.898775 295.166298 
L 398.487273 295.488 
" clip-path="url(#p8dc18503ef)" style="fill: none; stroke: #20b2aa; stroke-width: 1.5; stroke-linecap: square"/>
   </g>
   <g id="line2d_24">
    <path d="M 249.793529 182.570553 
" clip-path="url(#p8dc18503ef)" style="fill: none; stroke: #20b2aa; stroke-width: 1.5; stroke-linecap: square"/>
    <defs>
     <path id="me3e60b0326" d="M 0 5 
C 1.326016 5 2.597899 4.473168 3.535534 3.535534 
C 4.473168 2.597899 5 1.326016 5 0 
C 5 -1.326016 4.473168 -2.597899 3.535534 -3.535534 
C 2.597899 -4.473168 1.326016 -5 0 -5 
C -1.326016 -5 -2.597899 -4.473168 -3.535534 -3.535534 
C -4.473168 -2.597899 -5 -1.326016 -5 0 
C -5 1.326016 -4.473168 2.597899 -3.535534 3.535534 
C -2.597899 4.473168 -1.326016 5 0 5 
z
" style="stroke: #20b2aa"/>
    </defs>
    <g clip-path="url(#p8dc18503ef)">
     <use xlink:href="#me3e60b0326" x="249.793529" y="182.570553" style="fill: #20b2aa; stroke: #20b2aa"/>
    </g>
   </g>
   <g id="line2d_25">
    <path d="M 398.487273 295.488 
" clip-path="url(#p8dc18503ef)" style="fill: none; stroke: #20b2aa; stroke-width: 1.5; stroke-linecap: square"/>
    <defs>
     <path id="m050acb8fe7" d="M -5 5 
L 5 5 
L 5 -5 
L -5 -5 
z
" style="stroke: #20b2aa; stroke-linejoin: miter"/>
    </defs>
    <g clip-path="url(#p8dc18503ef)">
     <use xlink:href="#m050acb8fe7" x="398.487273" y="295.488" style="fill: #20b2aa; stroke: #20b2aa; stroke-linejoin: miter"/>
    </g>
   </g>
   <g id="line2d_26">
    <path d="M 257.836331 197.047149 
L 257.836331 197.047149 
L 257.836331 197.047149 
L 257.836331 197.047149 
L 257.836331 197.047149 
L 257.836331 197.047149 
L 257.836331 197.047149 
L 257.836331 197.047149 
L 257.836331 197.047149 
L 257.836331 197.047149 
L 257.836331 197.047149 
L 257.836331 197.047149 
L 257.836331 197.047149 
L 258.032497 197.047149 
L 258.228662 197.047149 
L 258.620994 196.725447 
L 259.405658 196.725447 
L 260.386487 196.725447 
L 261.367317 196.403745 
L 263.13281 196.082043 
L 265.290634 196.082043 
L 268.233123 195.438638 
L 271.764109 195.116936 
L 275.883592 194.473532 
L 280.591574 193.508426 
L 285.691887 192.865021 
L 291.184532 191.578213 
L 296.873342 190.613106 
L 302.562153 189.326298 
L 308.44713 188.039489 
L 314.332107 186.430979 
L 320.217083 184.822468 
L 325.905894 183.213957 
L 331.594705 181.283745 
L 337.283516 179.675234 
L 342.579995 177.745021 
L 347.876473 175.814809 
L 352.388289 173.884596 
L 356.703938 171.954383 
L 360.627256 170.02417 
L 363.76591 168.093957 
L 366.904565 166.163745 
L 370.043219 164.233532 
L 372.593375 162.303319 
L 374.7512 160.694809 
L 376.712859 158.764596 
L 378.478352 157.156085 
L 379.851513 155.547574 
L 380.832343 153.939064 
L 381.813172 152.652255 
L 382.794002 151.043745 
L 383.774831 150.078638 
L 384.755661 148.79183 
L 385.932656 147.826723 
L 387.109651 146.539915 
L 388.678978 145.574809 
L 389.855974 144.931404 
L 391.229135 143.966298 
L 392.209964 143.322894 
L 393.190794 142.357787 
L 393.779291 141.714383 
L 394.367789 140.749277 
L 394.563955 140.105872 
L 394.367789 139.462468 
L 394.171623 138.497362 
L 393.779291 137.532255 
L 393.190794 136.567149 
L 392.602296 135.602043 
L 392.209964 134.636936 
L 391.621467 133.67183 
L 391.425301 132.706723 
L 391.032969 132.063319 
L 390.836803 131.419915 
L 390.640637 130.776511 
L 390.640637 130.133106 
L 390.836803 129.811404 
L 391.032969 129.168 
L 391.425301 128.846298 
L 391.817633 128.524596 
L 392.40613 128.202894 
L 392.994628 127.559489 
L 393.779291 127.237787 
L 394.367789 126.916085 
L 395.152453 126.594383 
L 395.74095 126.594383 
L 396.525614 126.272681 
L 397.114112 125.950979 
" clip-path="url(#p8dc18503ef)" style="fill: none; stroke: #a52a2a; stroke-width: 1.5; stroke-linecap: square"/>
   </g>
   <g id="line2d_27">
    <path d="M 257.836331 197.047149 
" clip-path="url(#p8dc18503ef)" style="fill: none; stroke: #a52a2a; stroke-width: 1.5; stroke-linecap: square"/>
    <defs>
     <path id="m641ccfa8c0" d="M 0 5 
C 1.326016 5 2.597899 4.473168 3.535534 3.535534 
C 4.473168 2.597899 5 1.326016 5 0 
C 5 -1.326016 4.473168 -2.597899 3.535534 -3.535534 
C 2.597899 -4.473168 1.326016 -5 0 -5 
C -1.326016 -5 -2.597899 -4.473168 -3.535534 -3.535534 
C -4.473168 -2.597899 -5 -1.326016 -5 0 
C -5 1.326016 -4.473168 2.597899 -3.535534 3.535534 
C -2.597899 4.473168 -1.326016 5 0 5 
z
" style="stroke: #a52a2a"/>
    </defs>
    <g clip-path="url(#p8dc18503ef)">
     <use xlink:href="#m641ccfa8c0" x="257.836331" y="197.047149" style="fill: #a52a2a; stroke: #a52a2a"/>
    </g>
   </g>
   <g id="line2d_28">
    <path d="M 397.114112 125.950979 
" clip-path="url(#p8dc18503ef)" style="fill: none; stroke: #a52a2a; stroke-width: 1.5; stroke-linecap: square"/>
    <defs>
     <path id="m703dd53ee9" d="M -5 5 
L 5 5 
L 5 -5 
L -5 -5 
z
" style="stroke: #a52a2a; stroke-linejoin: miter"/>
    </defs>
    <g clip-path="url(#p8dc18503ef)">
     <use xlink:href="#m703dd53ee9" x="397.114112" y="125.950979" style="fill: #a52a2a; stroke: #a52a2a; stroke-linejoin: miter"/>
    </g>
   </g>
   <g id="line2d_29">
    <path d="M 185.451118 202.194383 
L 185.451118 202.194383 
L 185.451118 202.194383 
L 185.451118 201.872681 
L 185.647284 201.872681 
L 185.84345 201.872681 
L 186.235781 201.872681 
L 186.431947 201.872681 
L 186.431947 201.872681 
L 186.628113 201.872681 
L 186.628113 201.872681 
L 186.628113 201.872681 
L 186.628113 201.872681 
L 186.431947 201.872681 
L 186.628113 201.872681 
L 186.824279 202.194383 
L 187.216611 202.194383 
L 188.19744 202.516085 
L 188.589772 202.516085 
L 189.570601 202.837787 
L 190.943763 203.481191 
L 192.905422 204.124596 
L 195.259412 205.411404 
L 198.201901 207.019915 
L 201.732887 209.27183 
L 206.048536 211.845447 
L 209.775688 214.419064 
L 215.268333 217.636085 
L 218.995485 220.531404 
L 224.095798 224.070128 
L 227.430618 226.965447 
L 232.923263 230.50417 
L 236.454249 233.399489 
L 241.946894 237.259915 
L 248.8127 241.442043 
L 251.559022 243.050553 
L 255.678506 245.945872 
L 260.778819 249.484596 
L 265.4868 252.379915 
L 270.587113 256.24034 
L 273.13727 257.527149 
L 276.275924 259.779064 
L 279.414578 262.030979 
L 284.12256 264.926298 
L 285.691887 265.891404 
L 289.026707 268.143319 
L 291.184532 269.430128 
L 292.950025 270.716936 
L 294.911684 271.682043 
L 296.677177 272.647149 
L 297.46184 272.968851 
L 298.835001 273.612255 
L 299.619665 273.933957 
L 300.79666 274.25566 
L 301.385158 274.577362 
L 301.77749 274.577362 
L 301.973656 274.25566 
L 301.973656 274.25566 
L 301.973656 273.933957 
L 302.169821 273.612255 
L 302.169821 273.290553 
L 302.169821 272.968851 
L 301.77749 272.968851 
L 301.385158 272.647149 
L 300.992826 272.647149 
L 300.600494 272.647149 
L 299.619665 272.647149 
L 299.031167 272.647149 
L 298.44267 272.647149 
L 297.658006 272.968851 
L 296.873342 273.290553 
L 296.088679 273.612255 
L 295.304015 273.612255 
L 294.12702 273.933957 
L 293.342356 274.25566 
" clip-path="url(#p8dc18503ef)" style="fill: none; stroke: #ff0000; stroke-width: 1.5; stroke-linecap: square"/>
   </g>
   <g id="line2d_30">
    <path d="M 185.451118 202.194383 
" clip-path="url(#p8dc18503ef)" style="fill: none; stroke: #ff0000; stroke-width: 1.5; stroke-linecap: square"/>
    <defs>
     <path id="m3de02cd089" d="M 0 5 
C 1.326016 5 2.597899 4.473168 3.535534 3.535534 
C 4.473168 2.597899 5 1.326016 5 0 
C 5 -1.326016 4.473168 -2.597899 3.535534 -3.535534 
C 2.597899 -4.473168 1.326016 -5 0 -5 
C -1.326016 -5 -2.597899 -4.473168 -3.535534 -3.535534 
C -4.473168 -2.597899 -5 -1.326016 -5 0 
C -5 1.326016 -4.473168 2.597899 -3.535534 3.535534 
C -2.597899 4.473168 -1.326016 5 0 5 
z
" style="stroke: #ff0000"/>
    </defs>
    <g clip-path="url(#p8dc18503ef)">
     <use xlink:href="#m3de02cd089" x="185.451118" y="202.194383" style="fill: #ff0000; stroke: #ff0000"/>
    </g>
   </g>
   <g id="line2d_31">
    <path d="M 293.342356 274.25566 
" clip-path="url(#p8dc18503ef)" style="fill: none; stroke: #ff0000; stroke-width: 1.5; stroke-linecap: square"/>
    <defs>
     <path id="md700dc273b" d="M -5 5 
L 5 5 
L 5 -5 
L -5 -5 
z
" style="stroke: #ff0000; stroke-linejoin: miter"/>
    </defs>
    <g clip-path="url(#p8dc18503ef)">
     <use xlink:href="#md700dc273b" x="293.342356" y="274.25566" style="fill: #ff0000; stroke: #ff0000; stroke-linejoin: miter"/>
    </g>
   </g>
   <g id="patch_3">
    <path d="M 57.6 307.584 
L 57.6 41.472 
" style="fill: none; stroke: #000000; stroke-width: 0.8; stroke-linejoin: miter; stroke-linecap: square"/>
   </g>
   <g id="patch_4">
    <path d="M 57.6 307.584 
L 414.72 307.584 
" style="fill: none; stroke: #000000; stroke-width: 0.8; stroke-linejoin: miter; stroke-linecap: square"/>
   </g>
   <g id="legend_1">
    <g id="patch_5">
     <path d="M 282.164531 119.523563 
L 404.22 119.523563 
Q 407.22 119.523563 407.22 116.523563 
L 407.22 51.972 
Q 407.22 48.972 404.22 48.972 
L 282.164531 48.972 
Q 279.164531 48.972 279.164531 51.972 
L 279.164531 116.523563 
Q 279.164531 119.523563 282.164531 119.523563 
z
" style="fill: #ffffff; opacity: 0.8; stroke: #cccccc; stroke-linejoin: miter"/>
    </g>
    <g id="line2d_32">
     <path d="M 285.164531 61.119656 
L 300.164531 61.119656 
L 315.164531 61.119656 
" style="fill: none; stroke: #000000; stroke-width: 1.5; stroke-linecap: square"/>
    </g>
    <g id="text_7">
     <!-- Trajectory -->
     <g transform="translate(327.164531 66.369656)scale(0.15 -0.15)">
      <defs>
       <path id="DejaVuSans-54" d="M -19 4666 
L 3928 4666 
L 3928 4134 
L 2272 4134 
L 2272 0 
L 1638 0 
L 1638 4134 
L -19 4134 
L -19 4666 
z
" transform="scale(0.015625)"/>
       <path id="DejaVuSans-72" d="M 2631 2963 
Q 2534 3019 2420 3045 
Q 2306 3072 2169 3072 
Q 1681 3072 1420 2755 
Q 1159 2438 1159 1844 
L 1159 0 
L 581 0 
L 581 3500 
L 1159 3500 
L 1159 2956 
Q 1341 3275 1631 3429 
Q 1922 3584 2338 3584 
Q 2397 3584 2469 3576 
Q 2541 3569 2628 3553 
L 2631 2963 
z
" transform="scale(0.015625)"/>
       <path id="DejaVuSans-61" d="M 2194 1759 
Q 1497 1759 1228 1600 
Q 959 1441 959 1056 
Q 959 750 1161 570 
Q 1363 391 1709 391 
Q 2188 391 2477 730 
Q 2766 1069 2766 1631 
L 2766 1759 
L 2194 1759 
z
M 3341 1997 
L 3341 0 
L 2766 0 
L 2766 531 
Q 2569 213 2275 61 
Q 1981 -91 1556 -91 
Q 1019 -91 701 211 
Q 384 513 384 1019 
Q 384 1609 779 1909 
Q 1175 2209 1959 2209 
L 2766 2209 
L 2766 2266 
Q 2766 2663 2505 2880 
Q 2244 3097 1772 3097 
Q 1472 3097 1187 3025 
Q 903 2953 641 2809 
L 641 3341 
Q 956 3463 1253 3523 
Q 1550 3584 1831 3584 
Q 2591 3584 2966 3190 
Q 3341 2797 3341 1997 
z
" transform="scale(0.015625)"/>
       <path id="DejaVuSans-6a" d="M 603 3500 
L 1178 3500 
L 1178 -63 
Q 1178 -731 923 -1031 
Q 669 -1331 103 -1331 
L -116 -1331 
L -116 -844 
L 38 -844 
Q 366 -844 484 -692 
Q 603 -541 603 -63 
L 603 3500 
z
M 603 4863 
L 1178 4863 
L 1178 4134 
L 603 4134 
L 603 4863 
z
" transform="scale(0.015625)"/>
       <path id="DejaVuSans-65" d="M 3597 1894 
L 3597 1613 
L 953 1613 
Q 991 1019 1311 708 
Q 1631 397 2203 397 
Q 2534 397 2845 478 
Q 3156 559 3463 722 
L 3463 178 
Q 3153 47 2828 -22 
Q 2503 -91 2169 -91 
Q 1331 -91 842 396 
Q 353 884 353 1716 
Q 353 2575 817 3079 
Q 1281 3584 2069 3584 
Q 2775 3584 3186 3129 
Q 3597 2675 3597 1894 
z
M 3022 2063 
Q 3016 2534 2758 2815 
Q 2500 3097 2075 3097 
Q 1594 3097 1305 2825 
Q 1016 2553 972 2059 
L 3022 2063 
z
" transform="scale(0.015625)"/>
       <path id="DejaVuSans-63" d="M 3122 3366 
L 3122 2828 
Q 2878 2963 2633 3030 
Q 2388 3097 2138 3097 
Q 1578 3097 1268 2742 
Q 959 2388 959 1747 
Q 959 1106 1268 751 
Q 1578 397 2138 397 
Q 2388 397 2633 464 
Q 2878 531 3122 666 
L 3122 134 
Q 2881 22 2623 -34 
Q 2366 -91 2075 -91 
Q 1284 -91 818 406 
Q 353 903 353 1747 
Q 353 2603 823 3093 
Q 1294 3584 2113 3584 
Q 2378 3584 2631 3529 
Q 2884 3475 3122 3366 
z
" transform="scale(0.015625)"/>
       <path id="DejaVuSans-74" d="M 1172 4494 
L 1172 3500 
L 2356 3500 
L 2356 3053 
L 1172 3053 
L 1172 1153 
Q 1172 725 1289 603 
Q 1406 481 1766 481 
L 2356 481 
L 2356 0 
L 1766 0 
Q 1100 0 847 248 
Q 594 497 594 1153 
L 594 3053 
L 172 3053 
L 172 3500 
L 594 3500 
L 594 4494 
L 1172 4494 
z
" transform="scale(0.015625)"/>
       <path id="DejaVuSans-6f" d="M 1959 3097 
Q 1497 3097 1228 2736 
Q 959 2375 959 1747 
Q 959 1119 1226 758 
Q 1494 397 1959 397 
Q 2419 397 2687 759 
Q 2956 1122 2956 1747 
Q 2956 2369 2687 2733 
Q 2419 3097 1959 3097 
z
M 1959 3584 
Q 2709 3584 3137 3096 
Q 3566 2609 3566 1747 
Q 3566 888 3137 398 
Q 2709 -91 1959 -91 
Q 1206 -91 779 398 
Q 353 888 353 1747 
Q 353 2609 779 3096 
Q 1206 3584 1959 3584 
z
" transform="scale(0.015625)"/>
       <path id="DejaVuSans-79" d="M 2059 -325 
Q 1816 -950 1584 -1140 
Q 1353 -1331 966 -1331 
L 506 -1331 
L 506 -850 
L 844 -850 
Q 1081 -850 1212 -737 
Q 1344 -625 1503 -206 
L 1606 56 
L 191 3500 
L 800 3500 
L 1894 763 
L 2988 3500 
L 3597 3500 
L 2059 -325 
z
" transform="scale(0.015625)"/>
      </defs>
      <use xlink:href="#DejaVuSans-54"/>
      <use xlink:href="#DejaVuSans-72" x="46.333984"/>
      <use xlink:href="#DejaVuSans-61" x="87.447266"/>
      <use xlink:href="#DejaVuSans-6a" x="148.726562"/>
      <use xlink:href="#DejaVuSans-65" x="176.509766"/>
      <use xlink:href="#DejaVuSans-63" x="238.033203"/>
      <use xlink:href="#DejaVuSans-74" x="293.013672"/>
      <use xlink:href="#DejaVuSans-6f" x="332.222656"/>
      <use xlink:href="#DejaVuSans-72" x="393.404297"/>
      <use xlink:href="#DejaVuSans-79" x="434.517578"/>
     </g>
    </g>
    <g id="line2d_33">
     <path d="M 285.164531 83.136844 
L 300.164531 83.136844 
L 315.164531 83.136844 
" style="fill: none; stroke: #000000; stroke-width: 1.5; stroke-linecap: square"/>
     <g>
      <use xlink:href="#mecfebac023" x="300.164531" y="83.136844" style="stroke: #000000"/>
     </g>
    </g>
    <g id="text_8">
     <!-- Start -->
     <g transform="translate(327.164531 88.386844)scale(0.15 -0.15)">
      <defs>
       <path id="DejaVuSans-53" d="M 3425 4513 
L 3425 3897 
Q 3066 4069 2747 4153 
Q 2428 4238 2131 4238 
Q 1616 4238 1336 4038 
Q 1056 3838 1056 3469 
Q 1056 3159 1242 3001 
Q 1428 2844 1947 2747 
L 2328 2669 
Q 3034 2534 3370 2195 
Q 3706 1856 3706 1288 
Q 3706 609 3251 259 
Q 2797 -91 1919 -91 
Q 1588 -91 1214 -16 
Q 841 59 441 206 
L 441 856 
Q 825 641 1194 531 
Q 1563 422 1919 422 
Q 2459 422 2753 634 
Q 3047 847 3047 1241 
Q 3047 1584 2836 1778 
Q 2625 1972 2144 2069 
L 1759 2144 
Q 1053 2284 737 2584 
Q 422 2884 422 3419 
Q 422 4038 858 4394 
Q 1294 4750 2059 4750 
Q 2388 4750 2728 4690 
Q 3069 4631 3425 4513 
z
" transform="scale(0.015625)"/>
      </defs>
      <use xlink:href="#DejaVuSans-53"/>
      <use xlink:href="#DejaVuSans-74" x="63.476562"/>
      <use xlink:href="#DejaVuSans-61" x="102.685547"/>
      <use xlink:href="#DejaVuSans-72" x="163.964844"/>
      <use xlink:href="#DejaVuSans-74" x="205.078125"/>
     </g>
    </g>
    <g id="line2d_34">
     <path d="M 285.164531 105.154031 
L 300.164531 105.154031 
L 315.164531 105.154031 
" style="fill: none; stroke: #000000; stroke-width: 1.5; stroke-linecap: square"/>
     <g>
      <use xlink:href="#m00aa895338" x="300.164531" y="105.154031" style="stroke: #000000; stroke-linejoin: miter"/>
     </g>
    </g>
    <g id="text_9">
     <!-- End -->
     <g transform="translate(327.164531 110.404031)scale(0.15 -0.15)">
      <defs>
       <path id="DejaVuSans-45" d="M 628 4666 
L 3578 4666 
L 3578 4134 
L 1259 4134 
L 1259 2753 
L 3481 2753 
L 3481 2222 
L 1259 2222 
L 1259 531 
L 3634 531 
L 3634 0 
L 628 0 
L 628 4666 
z
" transform="scale(0.015625)"/>
       <path id="DejaVuSans-6e" d="M 3513 2113 
L 3513 0 
L 2938 0 
L 2938 2094 
Q 2938 2591 2744 2837 
Q 2550 3084 2163 3084 
Q 1697 3084 1428 2787 
Q 1159 2491 1159 1978 
L 1159 0 
L 581 0 
L 581 3500 
L 1159 3500 
L 1159 2956 
Q 1366 3272 1645 3428 
Q 1925 3584 2291 3584 
Q 2894 3584 3203 3211 
Q 3513 2838 3513 2113 
z
" transform="scale(0.015625)"/>
       <path id="DejaVuSans-64" d="M 2906 2969 
L 2906 4863 
L 3481 4863 
L 3481 0 
L 2906 0 
L 2906 525 
Q 2725 213 2448 61 
Q 2172 -91 1784 -91 
Q 1150 -91 751 415 
Q 353 922 353 1747 
Q 353 2572 751 3078 
Q 1150 3584 1784 3584 
Q 2172 3584 2448 3432 
Q 2725 3281 2906 2969 
z
M 947 1747 
Q 947 1113 1208 752 
Q 1469 391 1925 391 
Q 2381 391 2643 752 
Q 2906 1113 2906 1747 
Q 2906 2381 2643 2742 
Q 2381 3103 1925 3103 
Q 1469 3103 1208 2742 
Q 947 2381 947 1747 
z
" transform="scale(0.015625)"/>
      </defs>
      <use xlink:href="#DejaVuSans-45"/>
      <use xlink:href="#DejaVuSans-6e" x="63.183594"/>
      <use xlink:href="#DejaVuSans-64" x="126.5625"/>
     </g>
    </g>
   </g>
  </g>
 </g>
 <defs>
  <clipPath id="p8dc18503ef">
   <rect x="57.6" y="41.472" width="357.12" height="266.112"/>
  </clipPath>
 </defs>
</svg>
