<?xml version="1.0" encoding="utf-8" standalone="no"?>
<!DOCTYPE svg PUBLIC "-//W3C//DTD SVG 1.1//EN"
  "http://www.w3.org/Graphics/SVG/1.1/DTD/svg11.dtd">
<svg xmlns:xlink="http://www.w3.org/1999/xlink" width="460.8pt" height="345.6pt" viewBox="0 0 460.8 345.6" xmlns="http://www.w3.org/2000/svg" version="1.1">
 <metadata>
  <rdf:RDF xmlns:dc="http://purl.org/dc/elements/1.1/" xmlns:cc="http://creativecommons.org/ns#" xmlns:rdf="http://www.w3.org/1999/02/22-rdf-syntax-ns#">
   <cc:Work>
    <dc:type rdf:resource="http://purl.org/dc/dcmitype/StillImage"/>
    <dc:date>2024-02-21T13:17:48.828777</dc:date>
    <dc:format>image/svg+xml</dc:format>
    <dc:creator>
     <cc:Agent>
      <dc:title>Matplotlib v3.5.0, https://matplotlib.org/</dc:title>
     </cc:Agent>
    </dc:creator>
   </cc:Work>
  </rdf:RDF>
 </metadata>
 <defs>
  <style type="text/css">*{stroke-linejoin: round; stroke-linecap: butt}</style>
 </defs>
 <g id="figure_1">
  <g id="patch_1">
   <path d="M 0 345.6 
L 460.8 345.6 
L 460.8 0 
L 0 0 
z
" style="fill: #ffffff"/>
  </g>
  <g id="axes_1">
   <g id="patch_2">
    <path d="M 57.6 307.584 
L 414.72 307.584 
L 414.72 41.472 
L 57.6 41.472 
z
" style="fill: #ffffff"/>
   </g>
   <g id="matplotlib.axis_1">
    <g id="xtick_1">
     <g id="line2d_1">
      <defs>
       <path id="m8962f39054" d="M 0 0 
L 0 3.5 
" style="stroke: #000000; stroke-width: 0.8"/>
      </defs>
      <g>
       <use xlink:href="#m8962f39054" x="57.6" y="307.584" style="stroke: #000000; stroke-width: 0.8"/>
      </g>
     </g>
     <g id="text_1">
      <!-- 0 -->
      <g transform="translate(51.2375 329.780875)scale(0.2 -0.2)">
       <defs>
        <path id="DejaVuSans-30" d="M 2034 4250 
Q 1547 4250 1301 3770 
Q 1056 3291 1056 2328 
Q 1056 1369 1301 889 
Q 1547 409 2034 409 
Q 2525 409 2770 889 
Q 3016 1369 3016 2328 
Q 3016 3291 2770 3770 
Q 2525 4250 2034 4250 
z
M 2034 4750 
Q 2819 4750 3233 4129 
Q 3647 3509 3647 2328 
Q 3647 1150 3233 529 
Q 2819 -91 2034 -91 
Q 1250 -91 836 529 
Q 422 1150 422 2328 
Q 422 3509 836 4129 
Q 1250 4750 2034 4750 
z
" transform="scale(0.015625)"/>
       </defs>
       <use xlink:href="#DejaVuSans-30"/>
      </g>
     </g>
    </g>
    <g id="xtick_2">
     <g id="line2d_2">
      <g>
       <use xlink:href="#m8962f39054" x="414.72" y="307.584" style="stroke: #000000; stroke-width: 0.8"/>
      </g>
     </g>
     <g id="text_2">
      <!-- 1 -->
      <g transform="translate(408.3575 329.780875)scale(0.2 -0.2)">
       <defs>
        <path id="DejaVuSans-31" d="M 794 531 
L 1825 531 
L 1825 4091 
L 703 3866 
L 703 4441 
L 1819 4666 
L 2450 4666 
L 2450 531 
L 3481 531 
L 3481 0 
L 794 0 
L 794 531 
z
" transform="scale(0.015625)"/>
       </defs>
       <use xlink:href="#DejaVuSans-31"/>
      </g>
     </g>
    </g>
    <g id="text_3">
     <!-- Normalised X position -->
     <g transform="translate(111.795937 353.137125)scale(0.2 -0.2)">
      <defs>
       <path id="DejaVuSans-Bold-4e" d="M 588 4666 
L 1931 4666 
L 3628 1466 
L 3628 4666 
L 4769 4666 
L 4769 0 
L 3425 0 
L 1728 3200 
L 1728 0 
L 588 0 
L 588 4666 
z
" transform="scale(0.015625)"/>
       <path id="DejaVuSans-Bold-6f" d="M 2203 2784 
Q 1831 2784 1636 2517 
Q 1441 2250 1441 1747 
Q 1441 1244 1636 976 
Q 1831 709 2203 709 
Q 2569 709 2762 976 
Q 2956 1244 2956 1747 
Q 2956 2250 2762 2517 
Q 2569 2784 2203 2784 
z
M 2203 3584 
Q 3106 3584 3614 3096 
Q 4122 2609 4122 1747 
Q 4122 884 3614 396 
Q 3106 -91 2203 -91 
Q 1297 -91 786 396 
Q 275 884 275 1747 
Q 275 2609 786 3096 
Q 1297 3584 2203 3584 
z
" transform="scale(0.015625)"/>
       <path id="DejaVuSans-Bold-72" d="M 3138 2547 
Q 2991 2616 2845 2648 
Q 2700 2681 2553 2681 
Q 2122 2681 1889 2404 
Q 1656 2128 1656 1613 
L 1656 0 
L 538 0 
L 538 3500 
L 1656 3500 
L 1656 2925 
Q 1872 3269 2151 3426 
Q 2431 3584 2822 3584 
Q 2878 3584 2943 3579 
Q 3009 3575 3134 3559 
L 3138 2547 
z
" transform="scale(0.015625)"/>
       <path id="DejaVuSans-Bold-6d" d="M 3781 2919 
Q 3994 3244 4286 3414 
Q 4578 3584 4928 3584 
Q 5531 3584 5847 3212 
Q 6163 2841 6163 2131 
L 6163 0 
L 5038 0 
L 5038 1825 
Q 5041 1866 5042 1909 
Q 5044 1953 5044 2034 
Q 5044 2406 4934 2573 
Q 4825 2741 4581 2741 
Q 4263 2741 4089 2478 
Q 3916 2216 3909 1719 
L 3909 0 
L 2784 0 
L 2784 1825 
Q 2784 2406 2684 2573 
Q 2584 2741 2328 2741 
Q 2006 2741 1831 2477 
Q 1656 2213 1656 1722 
L 1656 0 
L 531 0 
L 531 3500 
L 1656 3500 
L 1656 2988 
Q 1863 3284 2130 3434 
Q 2397 3584 2719 3584 
Q 3081 3584 3359 3409 
Q 3638 3234 3781 2919 
z
" transform="scale(0.015625)"/>
       <path id="DejaVuSans-Bold-61" d="M 2106 1575 
Q 1756 1575 1579 1456 
Q 1403 1338 1403 1106 
Q 1403 894 1545 773 
Q 1688 653 1941 653 
Q 2256 653 2472 879 
Q 2688 1106 2688 1447 
L 2688 1575 
L 2106 1575 
z
M 3816 1997 
L 3816 0 
L 2688 0 
L 2688 519 
Q 2463 200 2181 54 
Q 1900 -91 1497 -91 
Q 953 -91 614 226 
Q 275 544 275 1050 
Q 275 1666 698 1953 
Q 1122 2241 2028 2241 
L 2688 2241 
L 2688 2328 
Q 2688 2594 2478 2717 
Q 2269 2841 1825 2841 
Q 1466 2841 1156 2769 
Q 847 2697 581 2553 
L 581 3406 
Q 941 3494 1303 3539 
Q 1666 3584 2028 3584 
Q 2975 3584 3395 3211 
Q 3816 2838 3816 1997 
z
" transform="scale(0.015625)"/>
       <path id="DejaVuSans-Bold-6c" d="M 538 4863 
L 1656 4863 
L 1656 0 
L 538 0 
L 538 4863 
z
" transform="scale(0.015625)"/>
       <path id="DejaVuSans-Bold-69" d="M 538 3500 
L 1656 3500 
L 1656 0 
L 538 0 
L 538 3500 
z
M 538 4863 
L 1656 4863 
L 1656 3950 
L 538 3950 
L 538 4863 
z
" transform="scale(0.015625)"/>
       <path id="DejaVuSans-Bold-73" d="M 3272 3391 
L 3272 2541 
Q 2913 2691 2578 2766 
Q 2244 2841 1947 2841 
Q 1628 2841 1473 2761 
Q 1319 2681 1319 2516 
Q 1319 2381 1436 2309 
Q 1553 2238 1856 2203 
L 2053 2175 
Q 2913 2066 3209 1816 
Q 3506 1566 3506 1031 
Q 3506 472 3093 190 
Q 2681 -91 1863 -91 
Q 1516 -91 1145 -36 
Q 775 19 384 128 
L 384 978 
Q 719 816 1070 734 
Q 1422 653 1784 653 
Q 2113 653 2278 743 
Q 2444 834 2444 1013 
Q 2444 1163 2330 1236 
Q 2216 1309 1875 1350 
L 1678 1375 
Q 931 1469 631 1722 
Q 331 1975 331 2491 
Q 331 3047 712 3315 
Q 1094 3584 1881 3584 
Q 2191 3584 2531 3537 
Q 2872 3491 3272 3391 
z
" transform="scale(0.015625)"/>
       <path id="DejaVuSans-Bold-65" d="M 4031 1759 
L 4031 1441 
L 1416 1441 
Q 1456 1047 1700 850 
Q 1944 653 2381 653 
Q 2734 653 3104 758 
Q 3475 863 3866 1075 
L 3866 213 
Q 3469 63 3072 -14 
Q 2675 -91 2278 -91 
Q 1328 -91 801 392 
Q 275 875 275 1747 
Q 275 2603 792 3093 
Q 1309 3584 2216 3584 
Q 3041 3584 3536 3087 
Q 4031 2591 4031 1759 
z
M 2881 2131 
Q 2881 2450 2695 2645 
Q 2509 2841 2209 2841 
Q 1884 2841 1681 2658 
Q 1478 2475 1428 2131 
L 2881 2131 
z
" transform="scale(0.015625)"/>
       <path id="DejaVuSans-Bold-64" d="M 2919 2988 
L 2919 4863 
L 4044 4863 
L 4044 0 
L 2919 0 
L 2919 506 
Q 2688 197 2409 53 
Q 2131 -91 1766 -91 
Q 1119 -91 703 423 
Q 288 938 288 1747 
Q 288 2556 703 3070 
Q 1119 3584 1766 3584 
Q 2128 3584 2408 3439 
Q 2688 3294 2919 2988 
z
M 2181 722 
Q 2541 722 2730 984 
Q 2919 1247 2919 1747 
Q 2919 2247 2730 2509 
Q 2541 2772 2181 2772 
Q 1825 2772 1636 2509 
Q 1447 2247 1447 1747 
Q 1447 1247 1636 984 
Q 1825 722 2181 722 
z
" transform="scale(0.015625)"/>
       <path id="DejaVuSans-Bold-20" transform="scale(0.015625)"/>
       <path id="DejaVuSans-Bold-58" d="M 3188 2381 
L 4806 0 
L 3553 0 
L 2463 1594 
L 1381 0 
L 122 0 
L 1741 2381 
L 184 4666 
L 1441 4666 
L 2463 3163 
L 3481 4666 
L 4744 4666 
L 3188 2381 
z
" transform="scale(0.015625)"/>
       <path id="DejaVuSans-Bold-70" d="M 1656 506 
L 1656 -1331 
L 538 -1331 
L 538 3500 
L 1656 3500 
L 1656 2988 
Q 1888 3294 2169 3439 
Q 2450 3584 2816 3584 
Q 3463 3584 3878 3070 
Q 4294 2556 4294 1747 
Q 4294 938 3878 423 
Q 3463 -91 2816 -91 
Q 2450 -91 2169 54 
Q 1888 200 1656 506 
z
M 2400 2772 
Q 2041 2772 1848 2508 
Q 1656 2244 1656 1747 
Q 1656 1250 1848 986 
Q 2041 722 2400 722 
Q 2759 722 2948 984 
Q 3138 1247 3138 1747 
Q 3138 2247 2948 2509 
Q 2759 2772 2400 2772 
z
" transform="scale(0.015625)"/>
       <path id="DejaVuSans-Bold-74" d="M 1759 4494 
L 1759 3500 
L 2913 3500 
L 2913 2700 
L 1759 2700 
L 1759 1216 
Q 1759 972 1856 886 
Q 1953 800 2241 800 
L 2816 800 
L 2816 0 
L 1856 0 
Q 1194 0 917 276 
Q 641 553 641 1216 
L 641 2700 
L 84 2700 
L 84 3500 
L 641 3500 
L 641 4494 
L 1759 4494 
z
" transform="scale(0.015625)"/>
       <path id="DejaVuSans-Bold-6e" d="M 4056 2131 
L 4056 0 
L 2931 0 
L 2931 347 
L 2931 1631 
Q 2931 2084 2911 2256 
Q 2891 2428 2841 2509 
Q 2775 2619 2662 2680 
Q 2550 2741 2406 2741 
Q 2056 2741 1856 2470 
Q 1656 2200 1656 1722 
L 1656 0 
L 538 0 
L 538 3500 
L 1656 3500 
L 1656 2988 
Q 1909 3294 2193 3439 
Q 2478 3584 2822 3584 
Q 3428 3584 3742 3212 
Q 4056 2841 4056 2131 
z
" transform="scale(0.015625)"/>
      </defs>
      <use xlink:href="#DejaVuSans-Bold-4e"/>
      <use xlink:href="#DejaVuSans-Bold-6f" x="83.691406"/>
      <use xlink:href="#DejaVuSans-Bold-72" x="152.392578"/>
      <use xlink:href="#DejaVuSans-Bold-6d" x="201.708984"/>
      <use xlink:href="#DejaVuSans-Bold-61" x="305.908203"/>
      <use xlink:href="#DejaVuSans-Bold-6c" x="373.388672"/>
      <use xlink:href="#DejaVuSans-Bold-69" x="407.666016"/>
      <use xlink:href="#DejaVuSans-Bold-73" x="441.943359"/>
      <use xlink:href="#DejaVuSans-Bold-65" x="501.464844"/>
      <use xlink:href="#DejaVuSans-Bold-64" x="569.287109"/>
      <use xlink:href="#DejaVuSans-Bold-20" x="640.869141"/>
      <use xlink:href="#DejaVuSans-Bold-58" x="675.683594"/>
      <use xlink:href="#DejaVuSans-Bold-20" x="752.783203"/>
      <use xlink:href="#DejaVuSans-Bold-70" x="787.597656"/>
      <use xlink:href="#DejaVuSans-Bold-6f" x="859.179688"/>
      <use xlink:href="#DejaVuSans-Bold-73" x="927.880859"/>
      <use xlink:href="#DejaVuSans-Bold-69" x="987.402344"/>
      <use xlink:href="#DejaVuSans-Bold-74" x="1021.679688"/>
      <use xlink:href="#DejaVuSans-Bold-69" x="1069.482422"/>
      <use xlink:href="#DejaVuSans-Bold-6f" x="1103.759766"/>
      <use xlink:href="#DejaVuSans-Bold-6e" x="1172.460938"/>
     </g>
    </g>
   </g>
   <g id="matplotlib.axis_2">
    <g id="ytick_1">
     <g id="line2d_3">
      <defs>
       <path id="m8a6084fc48" d="M 0 0 
L -3.5 0 
" style="stroke: #000000; stroke-width: 0.8"/>
      </defs>
      <g>
       <use xlink:href="#m8a6084fc48" x="57.6" y="307.584" style="stroke: #000000; stroke-width: 0.8"/>
      </g>
     </g>
     <g id="text_4">
      <!-- 0 -->
      <g transform="translate(37.875 315.182437)scale(0.2 -0.2)">
       <use xlink:href="#DejaVuSans-30"/>
      </g>
     </g>
    </g>
    <g id="ytick_2">
     <g id="line2d_4">
      <g>
       <use xlink:href="#m8a6084fc48" x="57.6" y="41.472" style="stroke: #000000; stroke-width: 0.8"/>
      </g>
     </g>
     <g id="text_5">
      <!-- 1 -->
      <g transform="translate(37.875 49.070438)scale(0.2 -0.2)">
       <use xlink:href="#DejaVuSans-31"/>
      </g>
     </g>
    </g>
    <g id="text_6">
     <!-- Normalised Y position -->
     <g transform="translate(29.715625 298.423313)rotate(-90)scale(0.2 -0.2)">
      <defs>
       <path id="DejaVuSans-Bold-59" d="M -63 4666 
L 1253 4666 
L 2316 3003 
L 3378 4666 
L 4697 4666 
L 2919 1966 
L 2919 0 
L 1716 0 
L 1716 1966 
L -63 4666 
z
" transform="scale(0.015625)"/>
      </defs>
      <use xlink:href="#DejaVuSans-Bold-4e"/>
      <use xlink:href="#DejaVuSans-Bold-6f" x="83.691406"/>
      <use xlink:href="#DejaVuSans-Bold-72" x="152.392578"/>
      <use xlink:href="#DejaVuSans-Bold-6d" x="201.708984"/>
      <use xlink:href="#DejaVuSans-Bold-61" x="305.908203"/>
      <use xlink:href="#DejaVuSans-Bold-6c" x="373.388672"/>
      <use xlink:href="#DejaVuSans-Bold-69" x="407.666016"/>
      <use xlink:href="#DejaVuSans-Bold-73" x="441.943359"/>
      <use xlink:href="#DejaVuSans-Bold-65" x="501.464844"/>
      <use xlink:href="#DejaVuSans-Bold-64" x="569.287109"/>
      <use xlink:href="#DejaVuSans-Bold-20" x="640.869141"/>
      <use xlink:href="#DejaVuSans-Bold-59" x="675.683594"/>
      <use xlink:href="#DejaVuSans-Bold-20" x="748.095703"/>
      <use xlink:href="#DejaVuSans-Bold-70" x="782.910156"/>
      <use xlink:href="#DejaVuSans-Bold-6f" x="854.492188"/>
      <use xlink:href="#DejaVuSans-Bold-73" x="923.193359"/>
      <use xlink:href="#DejaVuSans-Bold-69" x="982.714844"/>
      <use xlink:href="#DejaVuSans-Bold-74" x="1016.992188"/>
      <use xlink:href="#DejaVuSans-Bold-69" x="1064.794922"/>
      <use xlink:href="#DejaVuSans-Bold-6f" x="1099.072266"/>
      <use xlink:href="#DejaVuSans-Bold-6e" x="1167.773438"/>
     </g>
    </g>
   </g>
   <g id="line2d_5">
    <path d="M 200.260535 182.795557 
L 203.447433 185.120808 
L 204.57222 186.154252 
L 207.00926 187.962781 
L 213.195591 192.096559 
L 221.631496 197.522144 
L 243.002457 210.956924 
L 252.000756 216.382509 
L 260.436661 221.291371 
L 279.745512 233.175984 
L 284.807055 236.276318 
L 300.554079 246.610765 
L 311.052094 253.586517 
L 321.362646 260.820629 
L 342.546142 276.063938 
L 353.606551 284.589856 
L 360.355276 290.273802 
L 360.54274 290.532163 
L 359.605417 290.273802 
L 357.730772 289.240357 
L 353.794016 286.656746 
L 350.607118 284.589856 
L 347.045291 282.006245 
L 342.733606 279.164272 
L 340.484031 277.355744 
L 337.484598 275.288854 
L 334.860094 272.963604 
L 333.735307 272.18852 
L 333.360378 271.671798 
L 329.611087 268.313103 
L 325.486866 265.212769 
L 317.050961 259.528823 
L 305.803087 252.294711 
L 301.116472 249.452738 
L 296.429858 246.094043 
L 294.555213 244.285515 
L 294.180283 243.768792 
L 291.743244 241.443542 
L 290.805921 240.926819 
L 289.681134 239.893375 
L 288.556346 239.118291 
L 286.494236 237.309763 
L 283.494803 234.726151 
L 283.119874 234.209429 
L 282.55748 233.692707 
L 279.745512 229.817289 
L 278.995654 228.267122 
L 276.558614 224.391705 
L 274.871433 222.066454 
L 273.93411 220.257926 
L 272.621858 216.382509 
L 270.559748 212.507091 
L 267.935244 208.373313 
L 266.622992 206.564784 
L 265.685669 205.014617 
L 264.935811 203.46445 
L 264.185953 202.172645 
L 263.811024 200.880839 
L 263.998488 200.622478 
L 264.560882 200.105755 
L 265.31074 200.105755 
L 266.622992 200.622478 
L 269.247496 201.1392 
L 270.559748 201.655922 
L 273.746646 202.689367 
L 275.058898 203.206089 
L 277.495937 203.206089 
L 279.558047 202.689367 
L 283.869732 202.689367 
L 286.119307 202.172645 
L 287.244094 202.172645 
L 288.368882 201.914283 
L 289.306205 201.914283 
L 289.868598 201.397561 
L 290.430992 201.1392 
L 291.368315 200.880839 
L 291.743244 200.622478 
L 293.242961 200.622478 
L 296.617323 201.655922 
L 304.115906 205.53134 
L 306.552945 207.339868 
L 311.801953 210.440202 
L 311.801953 210.440202 
" clip-path="url(#p11b9a56540)" style="fill: none; stroke: #000000; stroke-width: 1.5; stroke-linecap: square"/>
   </g>
   <g id="line2d_6">
    <path d="M 200.260535 182.795557 
" clip-path="url(#p11b9a56540)" style="fill: none; stroke: #000000; stroke-width: 1.5; stroke-linecap: square"/>
    <defs>
     <path id="m392b512d7c" d="M 0 5 
C 1.326016 5 2.597899 4.473168 3.535534 3.535534 
C 4.473168 2.597899 5 1.326016 5 0 
C 5 -1.326016 4.473168 -2.597899 3.535534 -3.535534 
C 2.597899 -4.473168 1.326016 -5 0 -5 
C -1.326016 -5 -2.597899 -4.473168 -3.535534 -3.535534 
C -4.473168 -2.597899 -5 -1.326016 -5 0 
C -5 1.326016 -4.473168 2.597899 -3.535534 3.535534 
C -2.597899 4.473168 -1.326016 5 0 5 
z
" style="stroke: #000000"/>
    </defs>
    <g clip-path="url(#p11b9a56540)">
     <use xlink:href="#m392b512d7c" x="200.260535" y="182.795557" style="stroke: #000000"/>
    </g>
   </g>
   <g id="line2d_7">
    <path d="M 311.801953 210.440202 
" clip-path="url(#p11b9a56540)" style="fill: none; stroke: #000000; stroke-width: 1.5; stroke-linecap: square"/>
    <defs>
     <path id="m40d4afa89c" d="M -5 5 
L 5 5 
L 5 -5 
L -5 -5 
z
" style="stroke: #000000; stroke-linejoin: miter"/>
    </defs>
    <g clip-path="url(#p11b9a56540)">
     <use xlink:href="#m40d4afa89c" x="311.801953" y="210.440202" style="stroke: #000000; stroke-linejoin: miter"/>
    </g>
   </g>
   <g id="line2d_8">
    <path d="M 320.800252 222.841538 
L 320.987717 222.841538 
L 321.362646 223.35826 
L 321.737575 223.35826 
L 321.925039 223.616621 
L 321.925039 223.35826 
L 322.112504 223.616621 
L 321.925039 223.616621 
L 321.737575 223.35826 
L 321.737575 223.35826 
L 320.800252 222.841538 
L 320.612787 222.841538 
L 320.612787 222.841538 
L 320.425323 223.099899 
L 320.425323 223.099899 
L 320.050394 223.099899 
L 316.863496 221.03301 
L 314.98885 219.999565 
L 305.053228 213.282175 
L 302.803654 211.990369 
L 300.554079 210.956924 
L 299.054362 210.440202 
L 297.554646 209.665118 
L 296.429858 209.406757 
L 295.68 209.665118 
L 294.930142 210.181841 
L 294.180283 211.215285 
L 293.805354 211.473647 
L 293.805354 211.473647 
L 293.055496 212.507091 
L 292.305638 212.765452 
L 291.743244 213.282175 
L 290.805921 213.798897 
L 289.306205 216.382509 
L 289.306205 218.96612 
L 289.681134 221.291371 
L 289.681134 222.324816 
L 289.868598 223.616621 
L 290.243528 224.908427 
L 290.805921 228.525483 
L 291.18085 229.817289 
L 291.368315 231.109095 
L 290.993386 232.917623 
L 290.243528 234.46779 
L 289.11874 234.726151 
L 284.244661 233.951068 
L 279.370583 232.14254 
L 276.746079 231.367456 
L 274.121575 230.334012 
L 262.123843 224.391705 
L 255.375118 221.549732 
L 254.437795 221.291371 
L 251.250898 219.999565 
L 249.188787 219.482843 
L 247.314142 219.482843 
L 246.564283 219.741204 
L 245.439496 219.741204 
L 243.56485 218.707759 
L 242.252598 218.449398 
L 242.065134 218.707759 
L 241.690205 218.96612 
L 241.690205 221.291371 
L 242.065134 222.324816 
L 241.877669 222.841538 
L 242.252598 224.133344 
L 242.065134 224.650066 
L 242.065134 225.166788 
L 243.377386 226.458594 
L 244.502173 228.008761 
L 244.127244 228.008761 
L 243.752315 228.267122 
L 244.127244 229.042206 
L 243.56485 229.042206 
L 243.377386 229.558928 
L 242.440063 230.07565 
L 241.690205 230.07565 
L 240.565417 229.817289 
L 239.815559 229.817289 
L 239.44063 230.334012 
L 238.128378 230.07565 
L 237.191055 230.07565 
L 236.441197 230.334012 
L 233.816693 229.817289 
L 231.942047 229.817289 
L 230.442331 229.558928 
L 228.942614 229.558928 
L 228.005291 229.817289 
L 227.067969 230.592373 
L 226.31811 232.659262 
L 226.31811 233.434346 
L 225.568252 233.692707 
L 225.943181 234.984513 
L 225.943181 235.501235 
L 225.755717 235.759596 
L 225.193323 237.568124 
L 226.130646 240.668458 
L 226.880504 241.701903 
L 227.442898 242.993709 
L 227.630362 244.027153 
L 227.630362 246.352404 
L 227.817827 247.127487 
L 227.817827 247.902571 
L 227.630362 248.160932 
L 227.630362 248.936016 
L 227.067969 248.677654 
L 226.505575 248.936016 
L 226.130646 248.936016 
L 225.755717 249.711099 
L 224.443465 249.711099 
L 224.256 249.96946 
L 223.131213 250.486183 
L 222.381354 251.002905 
L 221.444031 251.002905 
L 220.506709 250.744544 
L 219.944315 250.744544 
L 219.75685 251.002905 
L 218.069669 251.777988 
L 217.507276 251.777988 
L 217.507276 253.844878 
L 216.944882 254.619961 
L 216.382488 254.878322 
L 215.63263 254.878322 
L 215.257701 255.911767 
L 214.882772 256.428489 
L 214.507843 257.720295 
L 214.132913 257.978656 
L 214.507843 260.303907 
L 214.132913 260.562268 
L 213.757984 260.562268 
L 213.57052 260.820629 
L 213.57052 262.370796 
L 213.383055 262.370796 
L 213.008126 262.887518 
L 210.758551 262.887518 
L 209.633764 262.370796 
L 208.508976 261.595713 
L 207.384189 260.562268 
L 206.634331 260.045546 
L 206.634331 260.045546 
" clip-path="url(#p11b9a56540)" style="fill: none; stroke: #ffa07a; stroke-width: 1.5; stroke-linecap: square"/>
   </g>
   <g id="line2d_9">
    <path d="M 320.800252 222.841538 
" clip-path="url(#p11b9a56540)" style="fill: none; stroke: #ffa07a; stroke-width: 1.5; stroke-linecap: square"/>
    <defs>
     <path id="ma14c1e6afd" d="M 0 5 
C 1.326016 5 2.597899 4.473168 3.535534 3.535534 
C 4.473168 2.597899 5 1.326016 5 0 
C 5 -1.326016 4.473168 -2.597899 3.535534 -3.535534 
C 2.597899 -4.473168 1.326016 -5 0 -5 
C -1.326016 -5 -2.597899 -4.473168 -3.535534 -3.535534 
C -4.473168 -2.597899 -5 -1.326016 -5 0 
C -5 1.326016 -4.473168 2.597899 -3.535534 3.535534 
C -2.597899 4.473168 -1.326016 5 0 5 
z
" style="stroke: #ffa07a"/>
    </defs>
    <g clip-path="url(#p11b9a56540)">
     <use xlink:href="#ma14c1e6afd" x="320.800252" y="222.841538" style="fill: #ffa07a; stroke: #ffa07a"/>
    </g>
   </g>
   <g id="line2d_10">
    <path d="M 206.634331 260.045546 
" clip-path="url(#p11b9a56540)" style="fill: none; stroke: #ffa07a; stroke-width: 1.5; stroke-linecap: square"/>
    <defs>
     <path id="me15c4e1e5d" d="M -5 5 
L 5 5 
L 5 -5 
L -5 -5 
z
" style="stroke: #ffa07a; stroke-linejoin: miter"/>
    </defs>
    <g clip-path="url(#p11b9a56540)">
     <use xlink:href="#me15c4e1e5d" x="206.634331" y="260.045546" style="fill: #ffa07a; stroke: #ffa07a; stroke-linejoin: miter"/>
    </g>
   </g>
   <g id="line2d_11">
    <path d="M 207.946583 155.667635 
L 208.134047 155.925996 
L 208.508976 156.184357 
L 209.07137 156.70108 
L 209.446299 156.959441 
L 210.383622 157.476163 
L 211.320945 157.992885 
L 212.070803 158.509608 
L 213.008126 159.02633 
L 213.945449 159.801414 
L 214.882772 160.318136 
L 215.820094 161.093219 
L 216.569953 161.609942 
L 216.944882 162.126664 
L 217.132346 162.126664 
L 217.507276 162.643386 
L 218.069669 162.901748 
L 218.444598 163.160109 
L 218.819528 163.41847 
L 219.194457 163.41847 
L 219.569386 163.935192 
L 220.319244 164.193553 
L 220.881638 164.451915 
L 221.818961 164.968637 
L 222.568819 165.226998 
L 223.693606 166.002082 
L 224.818394 166.518804 
L 226.693039 167.81061 
L 227.442898 168.068971 
L 228.942614 169.102416 
L 231.567118 170.910944 
L 233.629228 172.20275 
L 235.503874 173.236194 
L 237.37852 174.528 
L 238.315843 175.303083 
L 240.190488 176.594889 
L 242.065134 177.886695 
L 243.93978 179.178501 
L 245.814425 180.470307 
L 247.876535 181.762113 
L 249.751181 183.31228 
L 252.750614 185.379169 
L 253.687937 185.895891 
L 255.562583 187.446058 
L 257.812157 188.737864 
L 259.874268 190.288031 
L 262.123843 191.838198 
L 264.373417 193.646726 
L 266.622992 195.196893 
L 269.247496 197.005421 
L 272.059465 199.072311 
L 274.496504 200.622478 
L 276.933543 202.431006 
L 279.558047 204.239534 
L 282.55748 206.306423 
L 285.744378 208.631674 
L 289.11874 210.956924 
L 292.305638 213.023814 
L 295.492535 215.349064 
L 298.679433 217.415953 
L 301.491402 219.482843 
L 304.490835 221.549732 
L 307.490268 223.874983 
L 310.302236 225.941872 
L 312.739276 227.7504 
L 315.176315 229.300567 
L 317.050961 230.850734 
L 318.550677 232.14254 
L 319.675465 232.917623 
L 320.050394 233.434346 
L 320.425323 233.951068 
L 320.612787 234.209429 
L 320.800252 234.46779 
L 320.612787 234.46779 
L 320.612787 234.46779 
L 320.237858 234.209429 
L 319.862929 233.951068 
L 319.488 233.951068 
L 319.300535 233.951068 
L 319.113071 233.692707 
L 318.738142 233.434346 
L 318.363213 233.175984 
L 318.175748 233.175984 
L 317.988283 232.917623 
L 317.613354 232.659262 
L 317.238425 232.659262 
L 317.238425 232.400901 
L 316.863496 232.400901 
L 316.676031 232.14254 
L 316.488567 232.14254 
L 316.488567 232.400901 
L 316.676031 232.400901 
L 316.863496 232.659262 
L 316.863496 232.917623 
L 317.050961 232.917623 
L 317.238425 233.175984 
L 317.42589 233.434346 
L 317.613354 233.692707 
L 317.800819 233.951068 
L 317.988283 234.209429 
L 318.363213 234.46779 
L 318.738142 234.984513 
L 319.113071 235.242874 
L 319.300535 235.242874 
L 319.488 235.501235 
L 319.862929 235.759596 
L 320.050394 236.017957 
L 320.237858 236.276318 
L 320.425323 236.276318 
" clip-path="url(#p11b9a56540)" style="fill: none; stroke: #0000ff; stroke-width: 1.5; stroke-linecap: square"/>
   </g>
   <g id="line2d_12">
    <path d="M 207.946583 155.667635 
" clip-path="url(#p11b9a56540)" style="fill: none; stroke: #0000ff; stroke-width: 1.5; stroke-linecap: square"/>
    <defs>
     <path id="m49d3a51af2" d="M 0 5 
C 1.326016 5 2.597899 4.473168 3.535534 3.535534 
C 4.473168 2.597899 5 1.326016 5 0 
C 5 -1.326016 4.473168 -2.597899 3.535534 -3.535534 
C 2.597899 -4.473168 1.326016 -5 0 -5 
C -1.326016 -5 -2.597899 -4.473168 -3.535534 -3.535534 
C -4.473168 -2.597899 -5 -1.326016 -5 0 
C -5 1.326016 -4.473168 2.597899 -3.535534 3.535534 
C -2.597899 4.473168 -1.326016 5 0 5 
z
" style="stroke: #0000ff"/>
    </defs>
    <g clip-path="url(#p11b9a56540)">
     <use xlink:href="#m49d3a51af2" x="207.946583" y="155.667635" style="fill: #0000ff; stroke: #0000ff"/>
    </g>
   </g>
   <g id="line2d_13">
    <path d="M 320.425323 236.276318 
" clip-path="url(#p11b9a56540)" style="fill: none; stroke: #0000ff; stroke-width: 1.5; stroke-linecap: square"/>
    <defs>
     <path id="m04396ef907" d="M -5 5 
L 5 5 
L 5 -5 
L -5 -5 
z
" style="stroke: #0000ff; stroke-linejoin: miter"/>
    </defs>
    <g clip-path="url(#p11b9a56540)">
     <use xlink:href="#m04396ef907" x="320.425323" y="236.276318" style="fill: #0000ff; stroke: #0000ff; stroke-linejoin: miter"/>
    </g>
   </g>
   <g id="line2d_14">
    <path d="M 204.759685 183.31228 
L 203.447433 182.795557 
L 202.697575 182.020474 
L 201.385323 180.987029 
L 200.635465 180.211946 
L 198.948283 178.661779 
L 197.073638 177.111612 
L 192.012094 172.20275 
L 189.012661 169.619138 
L 185.825764 166.518804 
L 182.638866 163.676831 
L 174.390425 155.925996 
L 167.266772 149.725328 
L 165.95452 148.691883 
L 165.392126 148.175161 
L 165.204661 148.175161 
L 165.204661 148.175161 
L 165.204661 148.433522 
L 166.141984 149.208606 
L 168.01663 151.017134 
L 170.828598 153.342384 
L 172.51578 154.892551 
L 174.390425 156.184357 
L 176.077606 157.734524 
L 178.889575 160.059775 
L 181.326614 161.609942 
L 187.138016 165.74372 
L 190.512378 167.81061 
L 197.073638 171.427666 
L 200.448 172.977833 
L 207.759118 176.594889 
L 219.569386 182.020474 
L 227.067969 185.120808 
L 231.004724 186.929336 
L 234.94148 188.479503 
L 239.253165 190.546392 
L 243.002457 191.838198 
L 247.689071 193.905087 
L 260.999055 199.330672 
L 265.498205 200.880839 
L 272.246929 203.46445 
L 276.558614 205.014617 
L 280.49537 206.306423 
L 284.057197 207.339868 
L 288.931276 208.373313 
L 291.18085 208.631674 
L 297.929575 209.92348 
L 299.80422 210.181841 
L 308.240126 212.765452 
L 313.114205 214.832342 
L 315.551244 216.124148 
L 319.862929 218.191037 
L 321.925039 219.224482 
L 329.236157 223.35826 
L 333.922772 226.458594 
L 336.547276 228.008761 
L 338.984315 229.817289 
L 349.107402 236.276318 
L 355.106268 239.118291 
L 358.293165 241.185181 
L 359.605417 241.701903 
L 359.792882 241.960264 
L 360.167811 241.701903 
L 359.980346 241.443542 
L 359.605417 241.185181 
L 359.605417 241.185181 
L 358.293165 239.376652 
L 357.918236 239.118291 
L 356.980913 237.826485 
L 356.980913 237.568124 
L 356.793449 237.309763 
L 356.793449 237.309763 
L 356.793449 237.051402 
L 357.355843 237.051402 
L 357.543307 237.309763 
L 358.293165 237.568124 
L 361.105134 239.376652 
L 361.667528 239.635014 
L 363.354709 240.668458 
L 364.104567 240.926819 
L 364.854425 240.926819 
L 365.416819 241.185181 
L 365.416819 241.185181 
" clip-path="url(#p11b9a56540)" style="fill: none; stroke: #00fa9a; stroke-width: 1.5; stroke-linecap: square"/>
   </g>
   <g id="line2d_15">
    <path d="M 204.759685 183.31228 
" clip-path="url(#p11b9a56540)" style="fill: none; stroke: #00fa9a; stroke-width: 1.5; stroke-linecap: square"/>
    <defs>
     <path id="m3d81f4b0a0" d="M 0 5 
C 1.326016 5 2.597899 4.473168 3.535534 3.535534 
C 4.473168 2.597899 5 1.326016 5 0 
C 5 -1.326016 4.473168 -2.597899 3.535534 -3.535534 
C 2.597899 -4.473168 1.326016 -5 0 -5 
C -1.326016 -5 -2.597899 -4.473168 -3.535534 -3.535534 
C -4.473168 -2.597899 -5 -1.326016 -5 0 
C -5 1.326016 -4.473168 2.597899 -3.535534 3.535534 
C -2.597899 4.473168 -1.326016 5 0 5 
z
" style="stroke: #00fa9a"/>
    </defs>
    <g clip-path="url(#p11b9a56540)">
     <use xlink:href="#m3d81f4b0a0" x="204.759685" y="183.31228" style="fill: #00fa9a; stroke: #00fa9a"/>
    </g>
   </g>
   <g id="line2d_16">
    <path d="M 365.416819 241.185181 
" clip-path="url(#p11b9a56540)" style="fill: none; stroke: #00fa9a; stroke-width: 1.5; stroke-linecap: square"/>
    <defs>
     <path id="m6df80a5a03" d="M -5 5 
L 5 5 
L 5 -5 
L -5 -5 
z
" style="stroke: #00fa9a; stroke-linejoin: miter"/>
    </defs>
    <g clip-path="url(#p11b9a56540)">
     <use xlink:href="#m6df80a5a03" x="365.416819" y="241.185181" style="fill: #00fa9a; stroke: #00fa9a; stroke-linejoin: miter"/>
    </g>
   </g>
   <g id="patch_3">
    <path d="M 57.6 307.584 
L 57.6 41.472 
" style="fill: none; stroke: #000000; stroke-width: 0.8; stroke-linejoin: miter; stroke-linecap: square"/>
   </g>
   <g id="patch_4">
    <path d="M 57.6 307.584 
L 414.72 307.584 
" style="fill: none; stroke: #000000; stroke-width: 0.8; stroke-linejoin: miter; stroke-linecap: square"/>
   </g>
   <g id="legend_1">
    <g id="patch_5">
     <path d="M 282.164531 119.523563 
L 404.22 119.523563 
Q 407.22 119.523563 407.22 116.523563 
L 407.22 51.972 
Q 407.22 48.972 404.22 48.972 
L 282.164531 48.972 
Q 279.164531 48.972 279.164531 51.972 
L 279.164531 116.523563 
Q 279.164531 119.523563 282.164531 119.523563 
z
" style="fill: #ffffff; opacity: 0.8; stroke: #cccccc; stroke-linejoin: miter"/>
    </g>
    <g id="line2d_17">
     <path d="M 285.164531 61.119656 
L 300.164531 61.119656 
L 315.164531 61.119656 
" style="fill: none; stroke: #000000; stroke-width: 1.5; stroke-linecap: square"/>
    </g>
    <g id="text_7">
     <!-- Trajectory -->
     <g transform="translate(327.164531 66.369656)scale(0.15 -0.15)">
      <defs>
       <path id="DejaVuSans-54" d="M -19 4666 
L 3928 4666 
L 3928 4134 
L 2272 4134 
L 2272 0 
L 1638 0 
L 1638 4134 
L -19 4134 
L -19 4666 
z
" transform="scale(0.015625)"/>
       <path id="DejaVuSans-72" d="M 2631 2963 
Q 2534 3019 2420 3045 
Q 2306 3072 2169 3072 
Q 1681 3072 1420 2755 
Q 1159 2438 1159 1844 
L 1159 0 
L 581 0 
L 581 3500 
L 1159 3500 
L 1159 2956 
Q 1341 3275 1631 3429 
Q 1922 3584 2338 3584 
Q 2397 3584 2469 3576 
Q 2541 3569 2628 3553 
L 2631 2963 
z
" transform="scale(0.015625)"/>
       <path id="DejaVuSans-61" d="M 2194 1759 
Q 1497 1759 1228 1600 
Q 959 1441 959 1056 
Q 959 750 1161 570 
Q 1363 391 1709 391 
Q 2188 391 2477 730 
Q 2766 1069 2766 1631 
L 2766 1759 
L 2194 1759 
z
M 3341 1997 
L 3341 0 
L 2766 0 
L 2766 531 
Q 2569 213 2275 61 
Q 1981 -91 1556 -91 
Q 1019 -91 701 211 
Q 384 513 384 1019 
Q 384 1609 779 1909 
Q 1175 2209 1959 2209 
L 2766 2209 
L 2766 2266 
Q 2766 2663 2505 2880 
Q 2244 3097 1772 3097 
Q 1472 3097 1187 3025 
Q 903 2953 641 2809 
L 641 3341 
Q 956 3463 1253 3523 
Q 1550 3584 1831 3584 
Q 2591 3584 2966 3190 
Q 3341 2797 3341 1997 
z
" transform="scale(0.015625)"/>
       <path id="DejaVuSans-6a" d="M 603 3500 
L 1178 3500 
L 1178 -63 
Q 1178 -731 923 -1031 
Q 669 -1331 103 -1331 
L -116 -1331 
L -116 -844 
L 38 -844 
Q 366 -844 484 -692 
Q 603 -541 603 -63 
L 603 3500 
z
M 603 4863 
L 1178 4863 
L 1178 4134 
L 603 4134 
L 603 4863 
z
" transform="scale(0.015625)"/>
       <path id="DejaVuSans-65" d="M 3597 1894 
L 3597 1613 
L 953 1613 
Q 991 1019 1311 708 
Q 1631 397 2203 397 
Q 2534 397 2845 478 
Q 3156 559 3463 722 
L 3463 178 
Q 3153 47 2828 -22 
Q 2503 -91 2169 -91 
Q 1331 -91 842 396 
Q 353 884 353 1716 
Q 353 2575 817 3079 
Q 1281 3584 2069 3584 
Q 2775 3584 3186 3129 
Q 3597 2675 3597 1894 
z
M 3022 2063 
Q 3016 2534 2758 2815 
Q 2500 3097 2075 3097 
Q 1594 3097 1305 2825 
Q 1016 2553 972 2059 
L 3022 2063 
z
" transform="scale(0.015625)"/>
       <path id="DejaVuSans-63" d="M 3122 3366 
L 3122 2828 
Q 2878 2963 2633 3030 
Q 2388 3097 2138 3097 
Q 1578 3097 1268 2742 
Q 959 2388 959 1747 
Q 959 1106 1268 751 
Q 1578 397 2138 397 
Q 2388 397 2633 464 
Q 2878 531 3122 666 
L 3122 134 
Q 2881 22 2623 -34 
Q 2366 -91 2075 -91 
Q 1284 -91 818 406 
Q 353 903 353 1747 
Q 353 2603 823 3093 
Q 1294 3584 2113 3584 
Q 2378 3584 2631 3529 
Q 2884 3475 3122 3366 
z
" transform="scale(0.015625)"/>
       <path id="DejaVuSans-74" d="M 1172 4494 
L 1172 3500 
L 2356 3500 
L 2356 3053 
L 1172 3053 
L 1172 1153 
Q 1172 725 1289 603 
Q 1406 481 1766 481 
L 2356 481 
L 2356 0 
L 1766 0 
Q 1100 0 847 248 
Q 594 497 594 1153 
L 594 3053 
L 172 3053 
L 172 3500 
L 594 3500 
L 594 4494 
L 1172 4494 
z
" transform="scale(0.015625)"/>
       <path id="DejaVuSans-6f" d="M 1959 3097 
Q 1497 3097 1228 2736 
Q 959 2375 959 1747 
Q 959 1119 1226 758 
Q 1494 397 1959 397 
Q 2419 397 2687 759 
Q 2956 1122 2956 1747 
Q 2956 2369 2687 2733 
Q 2419 3097 1959 3097 
z
M 1959 3584 
Q 2709 3584 3137 3096 
Q 3566 2609 3566 1747 
Q 3566 888 3137 398 
Q 2709 -91 1959 -91 
Q 1206 -91 779 398 
Q 353 888 353 1747 
Q 353 2609 779 3096 
Q 1206 3584 1959 3584 
z
" transform="scale(0.015625)"/>
       <path id="DejaVuSans-79" d="M 2059 -325 
Q 1816 -950 1584 -1140 
Q 1353 -1331 966 -1331 
L 506 -1331 
L 506 -850 
L 844 -850 
Q 1081 -850 1212 -737 
Q 1344 -625 1503 -206 
L 1606 56 
L 191 3500 
L 800 3500 
L 1894 763 
L 2988 3500 
L 3597 3500 
L 2059 -325 
z
" transform="scale(0.015625)"/>
      </defs>
      <use xlink:href="#DejaVuSans-54"/>
      <use xlink:href="#DejaVuSans-72" x="46.333984"/>
      <use xlink:href="#DejaVuSans-61" x="87.447266"/>
      <use xlink:href="#DejaVuSans-6a" x="148.726562"/>
      <use xlink:href="#DejaVuSans-65" x="176.509766"/>
      <use xlink:href="#DejaVuSans-63" x="238.033203"/>
      <use xlink:href="#DejaVuSans-74" x="293.013672"/>
      <use xlink:href="#DejaVuSans-6f" x="332.222656"/>
      <use xlink:href="#DejaVuSans-72" x="393.404297"/>
      <use xlink:href="#DejaVuSans-79" x="434.517578"/>
     </g>
    </g>
    <g id="line2d_18">
     <path d="M 285.164531 83.136844 
L 300.164531 83.136844 
L 315.164531 83.136844 
" style="fill: none; stroke: #000000; stroke-width: 1.5; stroke-linecap: square"/>
     <g>
      <use xlink:href="#m392b512d7c" x="300.164531" y="83.136844" style="stroke: #000000"/>
     </g>
    </g>
    <g id="text_8">
     <!-- Start -->
     <g transform="translate(327.164531 88.386844)scale(0.15 -0.15)">
      <defs>
       <path id="DejaVuSans-53" d="M 3425 4513 
L 3425 3897 
Q 3066 4069 2747 4153 
Q 2428 4238 2131 4238 
Q 1616 4238 1336 4038 
Q 1056 3838 1056 3469 
Q 1056 3159 1242 3001 
Q 1428 2844 1947 2747 
L 2328 2669 
Q 3034 2534 3370 2195 
Q 3706 1856 3706 1288 
Q 3706 609 3251 259 
Q 2797 -91 1919 -91 
Q 1588 -91 1214 -16 
Q 841 59 441 206 
L 441 856 
Q 825 641 1194 531 
Q 1563 422 1919 422 
Q 2459 422 2753 634 
Q 3047 847 3047 1241 
Q 3047 1584 2836 1778 
Q 2625 1972 2144 2069 
L 1759 2144 
Q 1053 2284 737 2584 
Q 422 2884 422 3419 
Q 422 4038 858 4394 
Q 1294 4750 2059 4750 
Q 2388 4750 2728 4690 
Q 3069 4631 3425 4513 
z
" transform="scale(0.015625)"/>
      </defs>
      <use xlink:href="#DejaVuSans-53"/>
      <use xlink:href="#DejaVuSans-74" x="63.476562"/>
      <use xlink:href="#DejaVuSans-61" x="102.685547"/>
      <use xlink:href="#DejaVuSans-72" x="163.964844"/>
      <use xlink:href="#DejaVuSans-74" x="205.078125"/>
     </g>
    </g>
    <g id="line2d_19">
     <path d="M 285.164531 105.154031 
L 300.164531 105.154031 
L 315.164531 105.154031 
" style="fill: none; stroke: #000000; stroke-width: 1.5; stroke-linecap: square"/>
     <g>
      <use xlink:href="#m40d4afa89c" x="300.164531" y="105.154031" style="stroke: #000000; stroke-linejoin: miter"/>
     </g>
    </g>
    <g id="text_9">
     <!-- End -->
     <g transform="translate(327.164531 110.404031)scale(0.15 -0.15)">
      <defs>
       <path id="DejaVuSans-45" d="M 628 4666 
L 3578 4666 
L 3578 4134 
L 1259 4134 
L 1259 2753 
L 3481 2753 
L 3481 2222 
L 1259 2222 
L 1259 531 
L 3634 531 
L 3634 0 
L 628 0 
L 628 4666 
z
" transform="scale(0.015625)"/>
       <path id="DejaVuSans-6e" d="M 3513 2113 
L 3513 0 
L 2938 0 
L 2938 2094 
Q 2938 2591 2744 2837 
Q 2550 3084 2163 3084 
Q 1697 3084 1428 2787 
Q 1159 2491 1159 1978 
L 1159 0 
L 581 0 
L 581 3500 
L 1159 3500 
L 1159 2956 
Q 1366 3272 1645 3428 
Q 1925 3584 2291 3584 
Q 2894 3584 3203 3211 
Q 3513 2838 3513 2113 
z
" transform="scale(0.015625)"/>
       <path id="DejaVuSans-64" d="M 2906 2969 
L 2906 4863 
L 3481 4863 
L 3481 0 
L 2906 0 
L 2906 525 
Q 2725 213 2448 61 
Q 2172 -91 1784 -91 
Q 1150 -91 751 415 
Q 353 922 353 1747 
Q 353 2572 751 3078 
Q 1150 3584 1784 3584 
Q 2172 3584 2448 3432 
Q 2725 3281 2906 2969 
z
M 947 1747 
Q 947 1113 1208 752 
Q 1469 391 1925 391 
Q 2381 391 2643 752 
Q 2906 1113 2906 1747 
Q 2906 2381 2643 2742 
Q 2381 3103 1925 3103 
Q 1469 3103 1208 2742 
Q 947 2381 947 1747 
z
" transform="scale(0.015625)"/>
      </defs>
      <use xlink:href="#DejaVuSans-45"/>
      <use xlink:href="#DejaVuSans-6e" x="63.183594"/>
      <use xlink:href="#DejaVuSans-64" x="126.5625"/>
     </g>
    </g>
   </g>
  </g>
 </g>
 <defs>
  <clipPath id="p11b9a56540">
   <rect x="57.6" y="41.472" width="357.12" height="266.112"/>
  </clipPath>
 </defs>
</svg>
