<?xml version="1.0" encoding="utf-8" standalone="no"?>
<!DOCTYPE svg PUBLIC "-//W3C//DTD SVG 1.1//EN"
  "http://www.w3.org/Graphics/SVG/1.1/DTD/svg11.dtd">
<svg xmlns:xlink="http://www.w3.org/1999/xlink" width="460.8pt" height="345.6pt" viewBox="0 0 460.8 345.6" xmlns="http://www.w3.org/2000/svg" version="1.1">
 <metadata>
  <rdf:RDF xmlns:dc="http://purl.org/dc/elements/1.1/" xmlns:cc="http://creativecommons.org/ns#" xmlns:rdf="http://www.w3.org/1999/02/22-rdf-syntax-ns#">
   <cc:Work>
    <dc:type rdf:resource="http://purl.org/dc/dcmitype/StillImage"/>
    <dc:date>2024-02-21T13:17:50.685002</dc:date>
    <dc:format>image/svg+xml</dc:format>
    <dc:creator>
     <cc:Agent>
      <dc:title>Matplotlib v3.5.0, https://matplotlib.org/</dc:title>
     </cc:Agent>
    </dc:creator>
   </cc:Work>
  </rdf:RDF>
 </metadata>
 <defs>
  <style type="text/css">*{stroke-linejoin: round; stroke-linecap: butt}</style>
 </defs>
 <g id="figure_1">
  <g id="patch_1">
   <path d="M 0 345.6 
L 460.8 345.6 
L 460.8 0 
L 0 0 
z
" style="fill: #ffffff"/>
  </g>
  <g id="axes_1">
   <g id="patch_2">
    <path d="M 57.6 307.584 
L 414.72 307.584 
L 414.72 41.472 
L 57.6 41.472 
z
" style="fill: #ffffff"/>
   </g>
   <g id="matplotlib.axis_1">
    <g id="xtick_1">
     <g id="line2d_1">
      <defs>
       <path id="m84253b1b17" d="M 0 0 
L 0 3.5 
" style="stroke: #000000; stroke-width: 0.8"/>
      </defs>
      <g>
       <use xlink:href="#m84253b1b17" x="73.832727" y="307.584" style="stroke: #000000; stroke-width: 0.8"/>
      </g>
     </g>
     <g id="text_1">
      <!-- 0 -->
      <g transform="translate(67.470227 329.780875)scale(0.2 -0.2)">
       <defs>
        <path id="DejaVuSans-30" d="M 2034 4250 
Q 1547 4250 1301 3770 
Q 1056 3291 1056 2328 
Q 1056 1369 1301 889 
Q 1547 409 2034 409 
Q 2525 409 2770 889 
Q 3016 1369 3016 2328 
Q 3016 3291 2770 3770 
Q 2525 4250 2034 4250 
z
M 2034 4750 
Q 2819 4750 3233 4129 
Q 3647 3509 3647 2328 
Q 3647 1150 3233 529 
Q 2819 -91 2034 -91 
Q 1250 -91 836 529 
Q 422 1150 422 2328 
Q 422 3509 836 4129 
Q 1250 4750 2034 4750 
z
" transform="scale(0.015625)"/>
       </defs>
       <use xlink:href="#DejaVuSans-30"/>
      </g>
     </g>
    </g>
    <g id="xtick_2">
     <g id="line2d_2">
      <g>
       <use xlink:href="#m84253b1b17" x="405.710495" y="307.584" style="stroke: #000000; stroke-width: 0.8"/>
      </g>
     </g>
     <g id="text_2">
      <!-- 1 -->
      <g transform="translate(399.347995 329.780875)scale(0.2 -0.2)">
       <defs>
        <path id="DejaVuSans-31" d="M 794 531 
L 1825 531 
L 1825 4091 
L 703 3866 
L 703 4441 
L 1819 4666 
L 2450 4666 
L 2450 531 
L 3481 531 
L 3481 0 
L 794 0 
L 794 531 
z
" transform="scale(0.015625)"/>
       </defs>
       <use xlink:href="#DejaVuSans-31"/>
      </g>
     </g>
    </g>
    <g id="text_3">
     <!-- Normalised X position -->
     <g transform="translate(111.795937 353.137125)scale(0.2 -0.2)">
      <defs>
       <path id="DejaVuSans-Bold-4e" d="M 588 4666 
L 1931 4666 
L 3628 1466 
L 3628 4666 
L 4769 4666 
L 4769 0 
L 3425 0 
L 1728 3200 
L 1728 0 
L 588 0 
L 588 4666 
z
" transform="scale(0.015625)"/>
       <path id="DejaVuSans-Bold-6f" d="M 2203 2784 
Q 1831 2784 1636 2517 
Q 1441 2250 1441 1747 
Q 1441 1244 1636 976 
Q 1831 709 2203 709 
Q 2569 709 2762 976 
Q 2956 1244 2956 1747 
Q 2956 2250 2762 2517 
Q 2569 2784 2203 2784 
z
M 2203 3584 
Q 3106 3584 3614 3096 
Q 4122 2609 4122 1747 
Q 4122 884 3614 396 
Q 3106 -91 2203 -91 
Q 1297 -91 786 396 
Q 275 884 275 1747 
Q 275 2609 786 3096 
Q 1297 3584 2203 3584 
z
" transform="scale(0.015625)"/>
       <path id="DejaVuSans-Bold-72" d="M 3138 2547 
Q 2991 2616 2845 2648 
Q 2700 2681 2553 2681 
Q 2122 2681 1889 2404 
Q 1656 2128 1656 1613 
L 1656 0 
L 538 0 
L 538 3500 
L 1656 3500 
L 1656 2925 
Q 1872 3269 2151 3426 
Q 2431 3584 2822 3584 
Q 2878 3584 2943 3579 
Q 3009 3575 3134 3559 
L 3138 2547 
z
" transform="scale(0.015625)"/>
       <path id="DejaVuSans-Bold-6d" d="M 3781 2919 
Q 3994 3244 4286 3414 
Q 4578 3584 4928 3584 
Q 5531 3584 5847 3212 
Q 6163 2841 6163 2131 
L 6163 0 
L 5038 0 
L 5038 1825 
Q 5041 1866 5042 1909 
Q 5044 1953 5044 2034 
Q 5044 2406 4934 2573 
Q 4825 2741 4581 2741 
Q 4263 2741 4089 2478 
Q 3916 2216 3909 1719 
L 3909 0 
L 2784 0 
L 2784 1825 
Q 2784 2406 2684 2573 
Q 2584 2741 2328 2741 
Q 2006 2741 1831 2477 
Q 1656 2213 1656 1722 
L 1656 0 
L 531 0 
L 531 3500 
L 1656 3500 
L 1656 2988 
Q 1863 3284 2130 3434 
Q 2397 3584 2719 3584 
Q 3081 3584 3359 3409 
Q 3638 3234 3781 2919 
z
" transform="scale(0.015625)"/>
       <path id="DejaVuSans-Bold-61" d="M 2106 1575 
Q 1756 1575 1579 1456 
Q 1403 1338 1403 1106 
Q 1403 894 1545 773 
Q 1688 653 1941 653 
Q 2256 653 2472 879 
Q 2688 1106 2688 1447 
L 2688 1575 
L 2106 1575 
z
M 3816 1997 
L 3816 0 
L 2688 0 
L 2688 519 
Q 2463 200 2181 54 
Q 1900 -91 1497 -91 
Q 953 -91 614 226 
Q 275 544 275 1050 
Q 275 1666 698 1953 
Q 1122 2241 2028 2241 
L 2688 2241 
L 2688 2328 
Q 2688 2594 2478 2717 
Q 2269 2841 1825 2841 
Q 1466 2841 1156 2769 
Q 847 2697 581 2553 
L 581 3406 
Q 941 3494 1303 3539 
Q 1666 3584 2028 3584 
Q 2975 3584 3395 3211 
Q 3816 2838 3816 1997 
z
" transform="scale(0.015625)"/>
       <path id="DejaVuSans-Bold-6c" d="M 538 4863 
L 1656 4863 
L 1656 0 
L 538 0 
L 538 4863 
z
" transform="scale(0.015625)"/>
       <path id="DejaVuSans-Bold-69" d="M 538 3500 
L 1656 3500 
L 1656 0 
L 538 0 
L 538 3500 
z
M 538 4863 
L 1656 4863 
L 1656 3950 
L 538 3950 
L 538 4863 
z
" transform="scale(0.015625)"/>
       <path id="DejaVuSans-Bold-73" d="M 3272 3391 
L 3272 2541 
Q 2913 2691 2578 2766 
Q 2244 2841 1947 2841 
Q 1628 2841 1473 2761 
Q 1319 2681 1319 2516 
Q 1319 2381 1436 2309 
Q 1553 2238 1856 2203 
L 2053 2175 
Q 2913 2066 3209 1816 
Q 3506 1566 3506 1031 
Q 3506 472 3093 190 
Q 2681 -91 1863 -91 
Q 1516 -91 1145 -36 
Q 775 19 384 128 
L 384 978 
Q 719 816 1070 734 
Q 1422 653 1784 653 
Q 2113 653 2278 743 
Q 2444 834 2444 1013 
Q 2444 1163 2330 1236 
Q 2216 1309 1875 1350 
L 1678 1375 
Q 931 1469 631 1722 
Q 331 1975 331 2491 
Q 331 3047 712 3315 
Q 1094 3584 1881 3584 
Q 2191 3584 2531 3537 
Q 2872 3491 3272 3391 
z
" transform="scale(0.015625)"/>
       <path id="DejaVuSans-Bold-65" d="M 4031 1759 
L 4031 1441 
L 1416 1441 
Q 1456 1047 1700 850 
Q 1944 653 2381 653 
Q 2734 653 3104 758 
Q 3475 863 3866 1075 
L 3866 213 
Q 3469 63 3072 -14 
Q 2675 -91 2278 -91 
Q 1328 -91 801 392 
Q 275 875 275 1747 
Q 275 2603 792 3093 
Q 1309 3584 2216 3584 
Q 3041 3584 3536 3087 
Q 4031 2591 4031 1759 
z
M 2881 2131 
Q 2881 2450 2695 2645 
Q 2509 2841 2209 2841 
Q 1884 2841 1681 2658 
Q 1478 2475 1428 2131 
L 2881 2131 
z
" transform="scale(0.015625)"/>
       <path id="DejaVuSans-Bold-64" d="M 2919 2988 
L 2919 4863 
L 4044 4863 
L 4044 0 
L 2919 0 
L 2919 506 
Q 2688 197 2409 53 
Q 2131 -91 1766 -91 
Q 1119 -91 703 423 
Q 288 938 288 1747 
Q 288 2556 703 3070 
Q 1119 3584 1766 3584 
Q 2128 3584 2408 3439 
Q 2688 3294 2919 2988 
z
M 2181 722 
Q 2541 722 2730 984 
Q 2919 1247 2919 1747 
Q 2919 2247 2730 2509 
Q 2541 2772 2181 2772 
Q 1825 2772 1636 2509 
Q 1447 2247 1447 1747 
Q 1447 1247 1636 984 
Q 1825 722 2181 722 
z
" transform="scale(0.015625)"/>
       <path id="DejaVuSans-Bold-20" transform="scale(0.015625)"/>
       <path id="DejaVuSans-Bold-58" d="M 3188 2381 
L 4806 0 
L 3553 0 
L 2463 1594 
L 1381 0 
L 122 0 
L 1741 2381 
L 184 4666 
L 1441 4666 
L 2463 3163 
L 3481 4666 
L 4744 4666 
L 3188 2381 
z
" transform="scale(0.015625)"/>
       <path id="DejaVuSans-Bold-70" d="M 1656 506 
L 1656 -1331 
L 538 -1331 
L 538 3500 
L 1656 3500 
L 1656 2988 
Q 1888 3294 2169 3439 
Q 2450 3584 2816 3584 
Q 3463 3584 3878 3070 
Q 4294 2556 4294 1747 
Q 4294 938 3878 423 
Q 3463 -91 2816 -91 
Q 2450 -91 2169 54 
Q 1888 200 1656 506 
z
M 2400 2772 
Q 2041 2772 1848 2508 
Q 1656 2244 1656 1747 
Q 1656 1250 1848 986 
Q 2041 722 2400 722 
Q 2759 722 2948 984 
Q 3138 1247 3138 1747 
Q 3138 2247 2948 2509 
Q 2759 2772 2400 2772 
z
" transform="scale(0.015625)"/>
       <path id="DejaVuSans-Bold-74" d="M 1759 4494 
L 1759 3500 
L 2913 3500 
L 2913 2700 
L 1759 2700 
L 1759 1216 
Q 1759 972 1856 886 
Q 1953 800 2241 800 
L 2816 800 
L 2816 0 
L 1856 0 
Q 1194 0 917 276 
Q 641 553 641 1216 
L 641 2700 
L 84 2700 
L 84 3500 
L 641 3500 
L 641 4494 
L 1759 4494 
z
" transform="scale(0.015625)"/>
       <path id="DejaVuSans-Bold-6e" d="M 4056 2131 
L 4056 0 
L 2931 0 
L 2931 347 
L 2931 1631 
Q 2931 2084 2911 2256 
Q 2891 2428 2841 2509 
Q 2775 2619 2662 2680 
Q 2550 2741 2406 2741 
Q 2056 2741 1856 2470 
Q 1656 2200 1656 1722 
L 1656 0 
L 538 0 
L 538 3500 
L 1656 3500 
L 1656 2988 
Q 1909 3294 2193 3439 
Q 2478 3584 2822 3584 
Q 3428 3584 3742 3212 
Q 4056 2841 4056 2131 
z
" transform="scale(0.015625)"/>
      </defs>
      <use xlink:href="#DejaVuSans-Bold-4e"/>
      <use xlink:href="#DejaVuSans-Bold-6f" x="83.691406"/>
      <use xlink:href="#DejaVuSans-Bold-72" x="152.392578"/>
      <use xlink:href="#DejaVuSans-Bold-6d" x="201.708984"/>
      <use xlink:href="#DejaVuSans-Bold-61" x="305.908203"/>
      <use xlink:href="#DejaVuSans-Bold-6c" x="373.388672"/>
      <use xlink:href="#DejaVuSans-Bold-69" x="407.666016"/>
      <use xlink:href="#DejaVuSans-Bold-73" x="441.943359"/>
      <use xlink:href="#DejaVuSans-Bold-65" x="501.464844"/>
      <use xlink:href="#DejaVuSans-Bold-64" x="569.287109"/>
      <use xlink:href="#DejaVuSans-Bold-20" x="640.869141"/>
      <use xlink:href="#DejaVuSans-Bold-58" x="675.683594"/>
      <use xlink:href="#DejaVuSans-Bold-20" x="752.783203"/>
      <use xlink:href="#DejaVuSans-Bold-70" x="787.597656"/>
      <use xlink:href="#DejaVuSans-Bold-6f" x="859.179688"/>
      <use xlink:href="#DejaVuSans-Bold-73" x="927.880859"/>
      <use xlink:href="#DejaVuSans-Bold-69" x="987.402344"/>
      <use xlink:href="#DejaVuSans-Bold-74" x="1021.679688"/>
      <use xlink:href="#DejaVuSans-Bold-69" x="1069.482422"/>
      <use xlink:href="#DejaVuSans-Bold-6f" x="1103.759766"/>
      <use xlink:href="#DejaVuSans-Bold-6e" x="1172.460938"/>
     </g>
    </g>
   </g>
   <g id="matplotlib.axis_2">
    <g id="ytick_1">
     <g id="line2d_3">
      <defs>
       <path id="m14eda727ba" d="M 0 0 
L -3.5 0 
" style="stroke: #000000; stroke-width: 0.8"/>
      </defs>
      <g>
       <use xlink:href="#m14eda727ba" x="57.6" y="297.007598" style="stroke: #000000; stroke-width: 0.8"/>
      </g>
     </g>
     <g id="text_4">
      <!-- 0 -->
      <g transform="translate(37.875 304.606035)scale(0.2 -0.2)">
       <use xlink:href="#DejaVuSans-30"/>
      </g>
     </g>
    </g>
    <g id="ytick_2">
     <g id="line2d_4">
      <g>
       <use xlink:href="#m14eda727ba" x="57.6" y="45.362171" style="stroke: #000000; stroke-width: 0.8"/>
      </g>
     </g>
     <g id="text_5">
      <!-- 1 -->
      <g transform="translate(37.875 52.960608)scale(0.2 -0.2)">
       <use xlink:href="#DejaVuSans-31"/>
      </g>
     </g>
    </g>
    <g id="text_6">
     <!-- Normalised Y position -->
     <g transform="translate(29.715625 298.423313)rotate(-90)scale(0.2 -0.2)">
      <defs>
       <path id="DejaVuSans-Bold-59" d="M -63 4666 
L 1253 4666 
L 2316 3003 
L 3378 4666 
L 4697 4666 
L 2919 1966 
L 2919 0 
L 1716 0 
L 1716 1966 
L -63 4666 
z
" transform="scale(0.015625)"/>
      </defs>
      <use xlink:href="#DejaVuSans-Bold-4e"/>
      <use xlink:href="#DejaVuSans-Bold-6f" x="83.691406"/>
      <use xlink:href="#DejaVuSans-Bold-72" x="152.392578"/>
      <use xlink:href="#DejaVuSans-Bold-6d" x="201.708984"/>
      <use xlink:href="#DejaVuSans-Bold-61" x="305.908203"/>
      <use xlink:href="#DejaVuSans-Bold-6c" x="373.388672"/>
      <use xlink:href="#DejaVuSans-Bold-69" x="407.666016"/>
      <use xlink:href="#DejaVuSans-Bold-73" x="441.943359"/>
      <use xlink:href="#DejaVuSans-Bold-65" x="501.464844"/>
      <use xlink:href="#DejaVuSans-Bold-64" x="569.287109"/>
      <use xlink:href="#DejaVuSans-Bold-20" x="640.869141"/>
      <use xlink:href="#DejaVuSans-Bold-59" x="675.683594"/>
      <use xlink:href="#DejaVuSans-Bold-20" x="748.095703"/>
      <use xlink:href="#DejaVuSans-Bold-70" x="782.910156"/>
      <use xlink:href="#DejaVuSans-Bold-6f" x="854.492188"/>
      <use xlink:href="#DejaVuSans-Bold-73" x="923.193359"/>
      <use xlink:href="#DejaVuSans-Bold-69" x="982.714844"/>
      <use xlink:href="#DejaVuSans-Bold-74" x="1016.992188"/>
      <use xlink:href="#DejaVuSans-Bold-69" x="1064.794922"/>
      <use xlink:href="#DejaVuSans-Bold-6f" x="1099.072266"/>
      <use xlink:href="#DejaVuSans-Bold-6e" x="1167.773438"/>
     </g>
    </g>
   </g>
   <g id="line2d_5">
    <path d="M 259.293833 139.577246 
L 375.255829 295.488 
L 277.059054 295.488 
L 256.951166 295.18408 
L 236.843278 294.272322 
L 217.906723 293.056643 
L 199.16539 290.321367 
L 181.985835 286.978251 
L 164.611058 282.723377 
L 148.017169 277.556744 
L 132.20417 271.174432 
L 116.586393 263.576442 
L 99.992504 254.762774 
L 85.741282 246.253025 
L 73.832727 237.135437 
L 73.832727 181.82207 
L 74.027949 178.175035 
L 75.199283 175.135839 
L 76.761061 172.400563 
L 78.322838 170.273126 
L 80.27506 168.145688 
L 82.03206 166.62609 
L 85.350838 164.194734 
L 87.498282 163.586894 
L 92.769282 162.979055 
L 95.697615 162.979055 
L 100.773393 162.371216 
L 104.87306 161.155538 
L 108.582282 159.33202 
L 113.072393 157.508503 
L 115.610282 156.900663 
L 117.757726 156.596744 
L 124.590503 156.596744 
L 125.761837 155.988905 
L 126.347503 155.988905 
L 128.104503 154.773226 
L 129.080614 154.469307 
L 129.861503 153.861467 
L 130.44717 153.253628 
L 131.423281 152.645789 
L 132.594614 150.822271 
L 133.570725 148.694834 
L 134.351614 147.175236 
L 134.937281 145.655638 
L 135.913392 144.13604 
L 138.646503 142.920362 
L 140.013059 142.616442 
L 141.184392 142.920362 
L 142.74617 142.920362 
L 143.917503 143.224281 
L 145.284058 143.224281 
L 148.407614 143.832121 
L 149.774169 144.13604 
L 157.387836 146.871317 
L 159.53528 147.783075 
L 173.396058 152.645789 
L 176.324391 153.557548 
L 179.447946 154.165387 
L 186.085502 155.988905 
L 189.013835 156.596744 
L 197.017946 157.508503 
L 199.555834 157.812422 
L 200.727168 157.812422 
L 205.217279 158.420261 
L 207.364723 158.420261 
L 209.316945 158.724181 
L 211.46439 158.724181 
L 216.930612 159.63594 
L 220.054167 160.547698 
L 221.2255 160.851618 
L 222.006389 160.851618 
L 222.9825 161.459457 
L 225.325167 162.067296 
L 226.4965 162.067296 
L 227.667834 162.371216 
L 231.377056 164.194734 
L 236.062389 166.322171 
L 239.381167 167.537849 
L 240.942944 168.449608 
L 250.118388 172.096643 
L 253.241944 173.616241 
L 253.241944 173.616241 
" clip-path="url(#pc8a35260e2)" style="fill: none; stroke: #000000; stroke-width: 1.5; stroke-linecap: square"/>
   </g>
   <g id="line2d_6">
    <path d="M 259.293833 139.577246 
" clip-path="url(#pc8a35260e2)" style="fill: none; stroke: #000000; stroke-width: 1.5; stroke-linecap: square"/>
    <defs>
     <path id="m5808c338e1" d="M 0 5 
C 1.326016 5 2.597899 4.473168 3.535534 3.535534 
C 4.473168 2.597899 5 1.326016 5 0 
C 5 -1.326016 4.473168 -2.597899 3.535534 -3.535534 
C 2.597899 -4.473168 1.326016 -5 0 -5 
C -1.326016 -5 -2.597899 -4.473168 -3.535534 -3.535534 
C -4.473168 -2.597899 -5 -1.326016 -5 0 
C -5 1.326016 -4.473168 2.597899 -3.535534 3.535534 
C -2.597899 4.473168 -1.326016 5 0 5 
z
" style="stroke: #000000"/>
    </defs>
    <g clip-path="url(#pc8a35260e2)">
     <use xlink:href="#m5808c338e1" x="259.293833" y="139.577246" style="stroke: #000000"/>
    </g>
   </g>
   <g id="line2d_7">
    <path d="M 253.241944 173.616241 
" clip-path="url(#pc8a35260e2)" style="fill: none; stroke: #000000; stroke-width: 1.5; stroke-linecap: square"/>
    <defs>
     <path id="mad59ad74cf" d="M -5 5 
L 5 5 
L 5 -5 
L -5 -5 
z
" style="stroke: #000000; stroke-linejoin: miter"/>
    </defs>
    <g clip-path="url(#pc8a35260e2)">
     <use xlink:href="#mad59ad74cf" x="253.241944" y="173.616241" style="stroke: #000000; stroke-linejoin: miter"/>
    </g>
   </g>
   <g id="line2d_8">
    <path d="M 173.396058 136.53805 
L 174.176946 136.53805 
L 174.957835 136.234131 
L 175.543502 136.234131 
L 175.933946 136.234131 
L 176.519613 135.930211 
L 177.495724 135.626291 
L 178.081391 135.626291 
L 178.471835 135.322372 
L 178.667057 135.322372 
L 178.86228 135.322372 
L 179.057502 135.322372 
L 179.252724 135.322372 
L 179.447946 135.626291 
L 180.228835 135.626291 
L 181.204946 135.626291 
L 182.961946 135.930211 
L 185.695057 135.930211 
L 189.599501 135.626291 
L 194.480057 136.234131 
L 200.141501 136.234131 
L 206.19339 136.84197 
L 213.416612 138.057648 
L 221.030278 138.665487 
L 229.034389 140.185085 
L 237.624167 142.008603 
L 246.409166 144.743879 
L 254.608499 145.959558 
L 262.807833 148.998754 
L 270.616721 150.822271 
L 277.839943 152.949709 
L 285.45361 155.988905 
L 292.481609 157.204583 
L 298.338276 159.33202 
L 303.99972 161.155538 
L 309.075498 162.979055 
L 313.175164 164.498653 
L 317.079609 166.322171 
L 320.203164 167.841769 
L 323.32672 169.665286 
L 325.669386 170.880965 
L 328.207275 172.096643 
L 330.745164 173.312322 
L 333.478275 173.920161 
L 336.60183 174.83192 
L 339.725386 175.439759 
L 342.848941 176.351518 
L 346.167719 177.263276 
L 349.291274 178.175035 
L 352.805274 179.390714 
L 355.92883 180.910312 
L 358.661941 182.42991 
L 361.395052 183.645588 
L 363.93294 185.165186 
L 366.470829 186.076945 
L 368.813496 187.900462 
L 370.96094 189.116141 
L 371.937051 190.027899 
L 373.694051 191.547497 
L 374.670162 192.459256 
L 375.451051 193.674935 
L 376.036718 194.890613 
L 376.23194 195.802372 
L 376.622385 197.01805 
L 376.622385 198.233729 
L 376.817607 199.145487 
L 377.208051 199.753327 
L 377.793718 200.057246 
L 378.574607 200.361166 
L 379.74594 200.969005 
L 380.722051 201.576844 
L 381.50294 201.576844 
L 383.064718 201.880764 
L 384.431273 201.576844 
L 385.407384 201.576844 
L 386.969162 201.576844 
L 388.140495 201.272925 
L 388.921384 201.576844 
L 389.897495 201.576844 
L 390.28794 201.576844 
L 390.873606 201.880764 
L 391.264051 202.184683 
L 391.459273 202.184683 
L 391.849717 202.488603 
L 392.240162 202.792523 
L 392.630606 203.400362 
L 392.825828 203.400362 
L 393.216273 203.400362 
L 393.411495 203.704281 
L 393.80194 204.008201 
L 393.80194 204.312121 
L 393.997162 204.61604 
L 393.997162 204.61604 
L 394.582828 204.91996 
L 395.168495 205.223879 
L 395.363717 205.223879 
L 395.754162 205.831719 
L 396.339828 206.439558 
L 396.535051 206.743477 
L 397.120717 207.351317 
L 397.706384 207.959156 
L 398.487273 208.263075 
" clip-path="url(#pc8a35260e2)" style="fill: none; stroke: #ffa07a; stroke-width: 1.5; stroke-linecap: square"/>
   </g>
   <g id="line2d_9">
    <path d="M 173.396058 136.53805 
" clip-path="url(#pc8a35260e2)" style="fill: none; stroke: #ffa07a; stroke-width: 1.5; stroke-linecap: square"/>
    <defs>
     <path id="m03b056a549" d="M 0 5 
C 1.326016 5 2.597899 4.473168 3.535534 3.535534 
C 4.473168 2.597899 5 1.326016 5 0 
C 5 -1.326016 4.473168 -2.597899 3.535534 -3.535534 
C 2.597899 -4.473168 1.326016 -5 0 -5 
C -1.326016 -5 -2.597899 -4.473168 -3.535534 -3.535534 
C -4.473168 -2.597899 -5 -1.326016 -5 0 
C -5 1.326016 -4.473168 2.597899 -3.535534 3.535534 
C -2.597899 4.473168 -1.326016 5 0 5 
z
" style="stroke: #ffa07a"/>
    </defs>
    <g clip-path="url(#pc8a35260e2)">
     <use xlink:href="#m03b056a549" x="173.396058" y="136.53805" style="fill: #ffa07a; stroke: #ffa07a"/>
    </g>
   </g>
   <g id="line2d_10">
    <path d="M 398.487273 208.263075 
" clip-path="url(#pc8a35260e2)" style="fill: none; stroke: #ffa07a; stroke-width: 1.5; stroke-linecap: square"/>
    <defs>
     <path id="m0dec6a5d10" d="M -5 5 
L 5 5 
L 5 -5 
L -5 -5 
z
" style="stroke: #ffa07a; stroke-linejoin: miter"/>
    </defs>
    <g clip-path="url(#pc8a35260e2)">
     <use xlink:href="#m0dec6a5d10" x="398.487273" y="208.263075" style="fill: #ffa07a; stroke: #ffa07a; stroke-linejoin: miter"/>
    </g>
   </g>
   <g id="line2d_11">
    <path d="M 258.317722 138.665487 
L 258.317722 138.361568 
L 258.512944 138.361568 
L 258.708166 138.361568 
L 258.708166 138.361568 
L 258.708166 138.361568 
L 258.708166 138.361568 
L 258.708166 138.361568 
L 258.708166 138.361568 
L 258.708166 138.361568 
L 258.903388 138.361568 
L 258.903388 138.057648 
L 258.903388 138.057648 
L 258.903388 138.361568 
L 259.09861 138.361568 
L 259.293833 138.361568 
L 259.684277 138.361568 
L 260.660388 138.361568 
L 262.417388 137.753729 
L 265.150499 136.84197 
L 268.274055 135.930211 
L 271.788054 134.410613 
L 275.497277 132.283176 
L 279.792165 130.155739 
L 284.087054 127.724382 
L 288.381943 125.596945 
L 293.067276 123.165588 
L 297.557387 120.734231 
L 302.24272 117.998955 
L 306.732831 115.263678 
L 311.222942 112.832322 
L 315.517831 110.097045 
L 319.617497 107.361769 
L 323.521942 104.626492 
L 327.426386 101.891216 
L 331.33083 99.459859 
L 335.040052 97.028503 
L 338.163608 94.597146 
L 341.482386 92.773628 
L 344.605941 90.646191 
L 347.924719 88.518754 
L 350.65783 87.303075 
L 353.976607 85.783477 
L 355.343163 85.175638 
L 356.319274 84.567799 
L 358.466718 83.352121 
L 361.199829 82.136442 
L 363.347274 80.616844 
L 366.275607 79.097246 
L 368.813496 77.881568 
L 370.375274 76.969809 
L 371.351385 76.05805 
L 372.327496 75.450211 
L 373.303607 74.538452 
L 374.279718 73.930613 
L 375.255829 73.322774 
L 375.646273 72.714935 
L 376.23194 72.107095 
L 376.622385 71.195337 
L 377.012829 70.283578 
L 377.403273 69.675739 
L 377.793718 68.76398 
L 378.184162 68.156141 
L 378.379384 67.548302 
L 378.379384 66.940462 
L 378.379384 66.636543 
L 378.769829 66.028704 
L 378.769829 65.724784 
L 378.574607 65.420864 
L 378.769829 65.116945 
L 378.769829 64.509106 
L 378.965051 64.205186 
L 379.160273 63.901266 
L 379.74594 63.293427 
L 380.722051 62.989508 
L 381.50294 62.381668 
L 382.479051 61.773829 
L 383.064718 61.46991 
L 383.845607 60.86207 
L 385.01694 60.558151 
L 386.188273 60.254231 
L 386.969162 59.646392 
L 387.750051 59.038553 
L 389.116606 58.126794 
L 390.28794 57.215035 
L 391.654495 56.303276 
L 392.825828 55.695437 
L 393.997162 54.783678 
L 394.973273 53.568 
" clip-path="url(#pc8a35260e2)" style="fill: none; stroke: #0000ff; stroke-width: 1.5; stroke-linecap: square"/>
   </g>
   <g id="line2d_12">
    <path d="M 258.317722 138.665487 
" clip-path="url(#pc8a35260e2)" style="fill: none; stroke: #0000ff; stroke-width: 1.5; stroke-linecap: square"/>
    <defs>
     <path id="m210eac36e7" d="M 0 5 
C 1.326016 5 2.597899 4.473168 3.535534 3.535534 
C 4.473168 2.597899 5 1.326016 5 0 
C 5 -1.326016 4.473168 -2.597899 3.535534 -3.535534 
C 2.597899 -4.473168 1.326016 -5 0 -5 
C -1.326016 -5 -2.597899 -4.473168 -3.535534 -3.535534 
C -4.473168 -2.597899 -5 -1.326016 -5 0 
C -5 1.326016 -4.473168 2.597899 -3.535534 3.535534 
C -2.597899 4.473168 -1.326016 5 0 5 
z
" style="stroke: #0000ff"/>
    </defs>
    <g clip-path="url(#pc8a35260e2)">
     <use xlink:href="#m210eac36e7" x="258.317722" y="138.665487" style="fill: #0000ff; stroke: #0000ff"/>
    </g>
   </g>
   <g id="line2d_13">
    <path d="M 394.973273 53.568 
" clip-path="url(#pc8a35260e2)" style="fill: none; stroke: #0000ff; stroke-width: 1.5; stroke-linecap: square"/>
    <defs>
     <path id="m6679d9d3d0" d="M -5 5 
L 5 5 
L 5 -5 
L -5 -5 
z
" style="stroke: #0000ff; stroke-linejoin: miter"/>
    </defs>
    <g clip-path="url(#pc8a35260e2)">
     <use xlink:href="#m6679d9d3d0" x="394.973273" y="53.568" style="fill: #0000ff; stroke: #0000ff; stroke-linejoin: miter"/>
    </g>
   </g>
   <g id="line2d_14">
    <path d="M 303.023609 134.410613 
L 303.023609 134.410613 
L 303.023609 134.410613 
L 303.023609 134.410613 
L 302.828387 134.410613 
L 302.828387 134.410613 
L 302.633165 134.106693 
L 302.437942 134.410613 
L 302.24272 134.410613 
L 302.24272 134.410613 
L 302.24272 134.410613 
L 302.437942 134.410613 
L 302.24272 134.410613 
L 302.047498 134.410613 
L 301.461831 134.410613 
L 301.266609 134.410613 
L 299.704831 134.410613 
L 298.923942 134.410613 
L 297.557387 134.106693 
L 295.605165 133.498854 
L 293.067276 132.891015 
L 290.138943 131.979256 
L 286.820165 131.067497 
L 282.915721 130.155739 
L 278.620832 129.24398 
L 273.740277 128.636141 
L 268.469277 128.028302 
L 262.61261 126.812623 
L 256.560722 126.508704 
L 250.704055 125.596945 
L 244.456944 124.685186 
L 238.014611 123.773427 
L 231.7675 122.861668 
L 225.910834 121.94991 
L 219.858945 121.038151 
L 213.416612 120.126392 
L 206.779056 119.214633 
L 200.531946 118.302874 
L 193.89439 117.695035 
L 187.256835 117.391116 
L 181.204946 116.783276 
L 175.738724 116.175437 
L 170.662946 115.567598 
L 166.172836 115.263678 
L 161.682725 114.655839 
L 157.583058 114.35192 
L 153.873836 113.440161 
L 150.945503 112.832322 
L 148.602836 111.920563 
L 146.845836 111.008804 
L 145.674503 109.793126 
L 144.50317 108.577447 
L 143.527058 107.665688 
L 142.941392 106.75393 
L 142.550947 105.842171 
L 142.160503 104.930412 
L 141.770058 104.322573 
L 140.98917 103.714734 
L 140.208281 103.410814 
L 139.23217 103.106894 
L 138.451281 102.802975 
L 137.670392 102.499055 
L 137.084725 102.195136 
L 136.694281 101.891216 
L 136.499059 101.587296 
L 136.108614 101.283377 
L 135.913392 100.979457 
L 135.522948 100.675538 
L 135.132503 100.675538 
L 134.546836 100.371618 
L 133.96117 100.067698 
L 133.375503 100.067698 
L 132.985059 99.763779 
L 132.594614 99.763779 
L 132.008948 99.459859 
L 131.813725 99.15594 
L 131.423281 98.85202 
" clip-path="url(#pc8a35260e2)" style="fill: none; stroke: #00fa9a; stroke-width: 1.5; stroke-linecap: square"/>
   </g>
   <g id="line2d_15">
    <path d="M 303.023609 134.410613 
" clip-path="url(#pc8a35260e2)" style="fill: none; stroke: #00fa9a; stroke-width: 1.5; stroke-linecap: square"/>
    <defs>
     <path id="m62a9610191" d="M 0 5 
C 1.326016 5 2.597899 4.473168 3.535534 3.535534 
C 4.473168 2.597899 5 1.326016 5 0 
C 5 -1.326016 4.473168 -2.597899 3.535534 -3.535534 
C 2.597899 -4.473168 1.326016 -5 0 -5 
C -1.326016 -5 -2.597899 -4.473168 -3.535534 -3.535534 
C -4.473168 -2.597899 -5 -1.326016 -5 0 
C -5 1.326016 -4.473168 2.597899 -3.535534 3.535534 
C -2.597899 4.473168 -1.326016 5 0 5 
z
" style="stroke: #00fa9a"/>
    </defs>
    <g clip-path="url(#pc8a35260e2)">
     <use xlink:href="#m62a9610191" x="303.023609" y="134.410613" style="fill: #00fa9a; stroke: #00fa9a"/>
    </g>
   </g>
   <g id="line2d_16">
    <path d="M 131.423281 98.85202 
" clip-path="url(#pc8a35260e2)" style="fill: none; stroke: #00fa9a; stroke-width: 1.5; stroke-linecap: square"/>
    <defs>
     <path id="m5445b838fd" d="M -5 5 
L 5 5 
L 5 -5 
L -5 -5 
z
" style="stroke: #00fa9a; stroke-linejoin: miter"/>
    </defs>
    <g clip-path="url(#pc8a35260e2)">
     <use xlink:href="#m5445b838fd" x="131.423281" y="98.85202" style="fill: #00fa9a; stroke: #00fa9a; stroke-linejoin: miter"/>
    </g>
   </g>
   <g id="line2d_17">
    <path d="M 245.237833 126.508704 
L 245.237833 126.204784 
L 245.237833 126.204784 
L 245.237833 126.204784 
L 245.237833 126.204784 
L 245.237833 126.204784 
L 245.433055 126.204784 
L 245.237833 126.204784 
L 245.237833 126.204784 
L 245.042611 126.204784 
L 245.042611 126.204784 
L 244.847389 126.204784 
L 244.847389 126.204784 
L 244.847389 126.204784 
L 245.237833 126.508704 
L 245.628277 126.508704 
L 246.018722 126.508704 
L 246.799611 126.508704 
L 247.385277 126.508704 
L 248.556611 126.812623 
L 250.313611 126.812623 
L 252.265833 127.420462 
L 254.998944 127.724382 
L 258.512944 128.332221 
L 262.61261 129.24398 
L 267.297943 130.155739 
L 272.568943 130.763578 
L 278.230388 131.675337 
L 284.087054 132.283176 
L 290.529387 133.194935 
L 297.166943 133.194935 
L 303.609276 133.802774 
L 309.465942 134.410613 
L 314.736942 135.018452 
L 319.81272 136.234131 
L 324.888497 136.84197 
L 329.183386 137.753729 
L 332.892608 138.665487 
L 336.60183 139.577246 
L 339.334941 140.489005 
L 342.263274 141.400764 
L 344.801163 142.312523 
L 346.753385 143.224281 
L 348.510385 144.13604 
L 350.267385 145.047799 
L 351.633941 145.959558 
L 353.195719 146.871317 
L 354.17183 147.479156 
L 355.538385 148.390915 
L 357.100163 148.998754 
L 358.271496 149.302673 
L 359.833274 149.606593 
L 361.199829 150.214432 
L 362.566385 150.518352 
L 364.128163 150.822271 
L 365.68994 151.430111 
L 367.251718 151.73403 
L 368.618274 152.341869 
L 369.984829 152.645789 
L 371.351385 153.253628 
L 372.71794 153.861467 
L 373.889273 154.165387 
L 375.060607 154.773226 
L 376.036718 155.077146 
L 377.012829 155.684985 
L 377.793718 155.988905 
L 378.574607 156.292824 
L 378.965051 156.596744 
L 379.355496 156.900663 
L 379.74594 157.204583 
L 379.941162 157.812422 
L 380.136384 157.812422 
L 380.136384 158.116342 
L 380.331607 158.116342 
L 380.331607 158.420261 
L 380.331607 158.420261 
L 380.331607 158.724181 
L 380.722051 158.724181 
L 380.917273 159.028101 
L 381.50294 159.028101 
" clip-path="url(#pc8a35260e2)" style="fill: none; stroke: #ff00ff; stroke-width: 1.5; stroke-linecap: square"/>
   </g>
   <g id="line2d_18">
    <path d="M 245.237833 126.508704 
" clip-path="url(#pc8a35260e2)" style="fill: none; stroke: #ff00ff; stroke-width: 1.5; stroke-linecap: square"/>
    <defs>
     <path id="mb1b9174979" d="M 0 5 
C 1.326016 5 2.597899 4.473168 3.535534 3.535534 
C 4.473168 2.597899 5 1.326016 5 0 
C 5 -1.326016 4.473168 -2.597899 3.535534 -3.535534 
C 2.597899 -4.473168 1.326016 -5 0 -5 
C -1.326016 -5 -2.597899 -4.473168 -3.535534 -3.535534 
C -4.473168 -2.597899 -5 -1.326016 -5 0 
C -5 1.326016 -4.473168 2.597899 -3.535534 3.535534 
C -2.597899 4.473168 -1.326016 5 0 5 
z
" style="stroke: #ff00ff"/>
    </defs>
    <g clip-path="url(#pc8a35260e2)">
     <use xlink:href="#mb1b9174979" x="245.237833" y="126.508704" style="fill: #ff00ff; stroke: #ff00ff"/>
    </g>
   </g>
   <g id="line2d_19">
    <path d="M 381.50294 159.028101 
" clip-path="url(#pc8a35260e2)" style="fill: none; stroke: #ff00ff; stroke-width: 1.5; stroke-linecap: square"/>
    <defs>
     <path id="ma35bda5afa" d="M -5 5 
L 5 5 
L 5 -5 
L -5 -5 
z
" style="stroke: #ff00ff; stroke-linejoin: miter"/>
    </defs>
    <g clip-path="url(#pc8a35260e2)">
     <use xlink:href="#ma35bda5afa" x="381.50294" y="159.028101" style="fill: #ff00ff; stroke: #ff00ff; stroke-linejoin: miter"/>
    </g>
   </g>
   <g id="line2d_20">
    <path d="M 255.194166 126.204784 
L 255.194166 126.204784 
L 255.194166 126.204784 
L 255.194166 126.204784 
L 255.194166 126.204784 
L 255.194166 126.204784 
L 255.194166 126.204784 
L 255.389388 126.204784 
L 255.389388 126.204784 
L 255.389388 126.204784 
L 255.389388 126.204784 
L 255.389388 126.204784 
L 255.584611 126.204784 
L 255.975055 126.204784 
L 256.170277 126.204784 
L 256.755944 126.508704 
L 257.536833 126.508704 
L 258.903388 126.508704 
L 261.441277 126.508704 
L 264.760055 126.204784 
L 269.054943 125.293025 
L 273.935499 124.077347 
L 279.206499 122.557749 
L 284.477498 120.734231 
L 290.138943 118.910714 
L 295.21472 117.087196 
L 299.314387 115.263678 
L 303.414053 113.136241 
L 307.51372 111.312724 
L 311.808609 109.185286 
L 315.908275 107.361769 
L 318.05572 106.45001 
L 323.912386 103.410814 
L 325.669386 102.499055 
L 329.183386 100.371618 
L 332.306941 98.244181 
L 335.430497 96.116744 
L 338.35883 94.293226 
L 341.091941 92.165789 
L 343.239386 90.342271 
L 345.191608 88.822673 
L 347.14383 87.303075 
L 349.096052 85.783477 
L 351.243496 84.567799 
L 353.000496 83.048201 
L 354.757496 82.136442 
L 356.514496 81.224683 
L 358.076274 80.312925 
L 359.442829 79.401166 
L 360.418941 78.489407 
L 361.395052 77.881568 
L 362.371163 76.665889 
L 362.956829 76.05805 
L 363.542496 75.450211 
L 363.93294 74.538452 
L 364.323385 74.234533 
L 364.323385 73.626693 
L 364.323385 73.322774 
L 364.518607 73.018854 
L 364.713829 72.411015 
L 365.299496 72.107095 
L 365.494718 71.803176 
L 365.68994 71.195337 
L 366.080385 70.891417 
L 366.275607 70.587497 
L 366.861274 69.979658 
L 367.44694 69.371819 
L 367.837385 69.067899 
L 368.227829 68.76398 
L 368.423051 68.156141 
L 369.008718 67.852221 
L 369.594385 67.244382 
L 370.180051 66.636543 
L 370.375274 66.332623 
L 370.765718 66.028704 
L 371.156162 65.724784 
L 371.351385 65.116945 
L 371.156162 64.509106 
L 371.156162 64.205186 
L 371.156162 63.901266 
L 371.156162 63.597347 
L 370.765718 62.989508 
L 370.765718 62.685588 
L 370.765718 62.381668 
L 370.570496 61.773829 
L 370.570496 61.46991 
L 370.570496 60.86207 
L 370.765718 60.558151 
L 370.765718 60.254231 
L 370.96094 59.950312 
L 371.156162 59.646392 
L 371.741829 59.342472 
L 372.132274 59.342472 
" clip-path="url(#pc8a35260e2)" style="fill: none; stroke: #a52a2a; stroke-width: 1.5; stroke-linecap: square"/>
   </g>
   <g id="line2d_21">
    <path d="M 255.194166 126.204784 
" clip-path="url(#pc8a35260e2)" style="fill: none; stroke: #a52a2a; stroke-width: 1.5; stroke-linecap: square"/>
    <defs>
     <path id="mddc4a90d58" d="M 0 5 
C 1.326016 5 2.597899 4.473168 3.535534 3.535534 
C 4.473168 2.597899 5 1.326016 5 0 
C 5 -1.326016 4.473168 -2.597899 3.535534 -3.535534 
C 2.597899 -4.473168 1.326016 -5 0 -5 
C -1.326016 -5 -2.597899 -4.473168 -3.535534 -3.535534 
C -4.473168 -2.597899 -5 -1.326016 -5 0 
C -5 1.326016 -4.473168 2.597899 -3.535534 3.535534 
C -2.597899 4.473168 -1.326016 5 0 5 
z
" style="stroke: #a52a2a"/>
    </defs>
    <g clip-path="url(#pc8a35260e2)">
     <use xlink:href="#mddc4a90d58" x="255.194166" y="126.204784" style="fill: #a52a2a; stroke: #a52a2a"/>
    </g>
   </g>
   <g id="line2d_22">
    <path d="M 372.132274 59.342472 
" clip-path="url(#pc8a35260e2)" style="fill: none; stroke: #a52a2a; stroke-width: 1.5; stroke-linecap: square"/>
    <defs>
     <path id="m1eae97c3e3" d="M -5 5 
L 5 5 
L 5 -5 
L -5 -5 
z
" style="stroke: #a52a2a; stroke-linejoin: miter"/>
    </defs>
    <g clip-path="url(#pc8a35260e2)">
     <use xlink:href="#m1eae97c3e3" x="372.132274" y="59.342472" style="fill: #a52a2a; stroke: #a52a2a; stroke-linejoin: miter"/>
    </g>
   </g>
   <g id="line2d_23">
    <path d="M 259.489055 130.155739 
L 259.293833 130.155739 
L 259.293833 130.155739 
L 259.09861 130.155739 
L 258.903388 130.155739 
L 258.708166 130.459658 
L 258.317722 130.459658 
L 258.122499 130.459658 
L 257.927277 130.763578 
L 257.927277 130.763578 
L 257.732055 130.763578 
L 257.732055 130.763578 
L 257.732055 131.067497 
L 257.927277 131.067497 
L 257.927277 131.067497 
L 258.317722 131.067497 
L 259.09861 131.371417 
L 260.660388 131.675337 
L 263.003055 132.587095 
L 265.736166 133.194935 
L 269.250166 134.410613 
L 273.15461 135.930211 
L 277.839943 137.753729 
L 282.720499 139.881166 
L 287.991498 142.312523 
L 293.45772 144.743879 
L 298.923942 147.175236 
L 304.194942 149.606593 
L 309.075498 152.645789 
L 312.589498 155.684985 
L 315.908275 159.028101 
L 319.227053 161.763377 
L 320.398386 163.282975 
L 324.693275 167.537849 
L 325.864608 168.753528 
L 328.012053 171.792724 
L 331.135608 174.528 
L 333.868719 177.567196 
L 336.797052 179.998553 
L 339.530163 182.733829 
L 342.458497 184.861266 
L 345.191608 186.684784 
L 347.729497 188.508302 
L 350.462608 190.331819 
L 352.610052 192.155337 
L 354.757496 193.978854 
L 356.709718 195.802372 
L 358.271496 197.32197 
L 359.442829 198.841568 
L 360.418941 200.361166 
L 361.395052 201.576844 
L 361.785496 202.792523 
L 362.371163 204.008201 
L 362.956829 205.223879 
L 363.347274 206.439558 
L 363.737718 207.351317 
L 364.128163 208.263075 
L 364.518607 209.174834 
L 365.104274 209.782673 
L 365.494718 210.390513 
L 365.885163 210.998352 
L 366.275607 211.910111 
L 366.470829 212.51795 
L 366.861274 213.125789 
L 367.251718 213.733628 
L 367.642163 214.037548 
L 368.032607 214.949307 
L 368.423051 215.253226 
L 369.20394 216.468905 
L 369.789607 217.380663 
L 370.180051 218.292422 
L 370.375274 218.596342 
L 370.570496 219.204181 
L 370.765718 220.11594 
L 370.96094 221.027698 
L 370.96094 221.939457 
L 370.96094 222.547296 
L 370.96094 223.459055 
L 371.351385 224.066894 
L 371.546607 224.674734 
L 371.937051 225.586492 
L 372.327496 226.194332 
L 372.327496 227.10609 
L 372.522718 228.017849 
" clip-path="url(#pc8a35260e2)" style="fill: none; stroke: #d2691e; stroke-width: 1.5; stroke-linecap: square"/>
   </g>
   <g id="line2d_24">
    <path d="M 259.489055 130.155739 
" clip-path="url(#pc8a35260e2)" style="fill: none; stroke: #d2691e; stroke-width: 1.5; stroke-linecap: square"/>
    <defs>
     <path id="m81d6fef42f" d="M 0 5 
C 1.326016 5 2.597899 4.473168 3.535534 3.535534 
C 4.473168 2.597899 5 1.326016 5 0 
C 5 -1.326016 4.473168 -2.597899 3.535534 -3.535534 
C 2.597899 -4.473168 1.326016 -5 0 -5 
C -1.326016 -5 -2.597899 -4.473168 -3.535534 -3.535534 
C -4.473168 -2.597899 -5 -1.326016 -5 0 
C -5 1.326016 -4.473168 2.597899 -3.535534 3.535534 
C -2.597899 4.473168 -1.326016 5 0 5 
z
" style="stroke: #d2691e"/>
    </defs>
    <g clip-path="url(#pc8a35260e2)">
     <use xlink:href="#m81d6fef42f" x="259.489055" y="130.155739" style="fill: #d2691e; stroke: #d2691e"/>
    </g>
   </g>
   <g id="line2d_25">
    <path d="M 372.522718 228.017849 
" clip-path="url(#pc8a35260e2)" style="fill: none; stroke: #d2691e; stroke-width: 1.5; stroke-linecap: square"/>
    <defs>
     <path id="m87232d82ff" d="M -5 5 
L 5 5 
L 5 -5 
L -5 -5 
z
" style="stroke: #d2691e; stroke-linejoin: miter"/>
    </defs>
    <g clip-path="url(#pc8a35260e2)">
     <use xlink:href="#m87232d82ff" x="372.522718" y="228.017849" style="fill: #d2691e; stroke: #d2691e; stroke-linejoin: miter"/>
    </g>
   </g>
   <g id="line2d_26">
    <path d="M 256.560722 128.94006 
L 256.560722 128.636141 
L 256.560722 128.636141 
L 256.560722 128.94006 
L 256.365499 128.636141 
L 256.365499 128.636141 
L 256.365499 128.636141 
L 256.365499 128.636141 
L 256.365499 128.636141 
L 256.365499 128.636141 
L 256.560722 128.636141 
L 256.560722 128.636141 
L 256.560722 128.636141 
L 256.170277 128.636141 
L 255.779833 128.636141 
L 255.194166 128.94006 
L 254.413277 128.94006 
L 253.241944 129.24398 
L 251.484944 128.94006 
L 248.947055 128.028302 
L 245.628277 126.508704 
L 242.114278 124.381266 
L 238.405055 122.253829 
L 234.110167 119.822472 
L 230.400945 117.998955 
L 225.520389 115.567598 
L 220.054167 112.832322 
L 214.392723 110.704884 
L 208.536056 108.273528 
L 203.069834 106.45001 
L 198.579723 104.626492 
L 193.113501 102.195136 
L 188.232946 99.763779 
L 184.328502 97.332422 
L 180.033613 94.597146 
L 175.153057 92.165789 
L 170.467724 90.342271 
L 165.977613 88.518754 
L 162.463613 86.999156 
L 158.949614 85.479558 
L 156.02128 83.95996 
L 153.678614 82.440362 
L 151.726392 81.224683 
L 150.164614 80.312925 
L 148.602836 79.401166 
L 147.431503 78.489407 
L 146.650614 77.577648 
L 145.674503 76.665889 
L 144.893614 76.05805 
L 144.112725 75.450211 
L 142.941392 74.842372 
L 141.770058 74.234533 
L 140.598725 73.930613 
L 139.817836 73.322774 
L 138.256059 73.018854 
L 137.084725 72.411015 
L 135.913392 71.803176 
L 134.742059 71.195337 
L 133.96117 70.587497 
L 133.180281 69.675739 
L 132.789837 68.76398 
L 132.20417 67.852221 
L 131.813725 66.940462 
L 131.423281 66.332623 
L 130.837614 65.420864 
L 130.251948 64.813025 
L 129.666281 64.205186 
L 129.080614 63.597347 
L 128.494948 62.989508 
L 127.714059 62.685588 
L 127.128392 62.381668 
L 126.542726 62.077749 
L 125.957059 61.773829 
L 125.17617 61.773829 
L 124.395281 61.46991 
L 123.41917 61.46991 
L 122.443059 61.46991 
L 121.466948 61.46991 
L 120.295615 61.46991 
L 119.319504 61.46991 
" clip-path="url(#pc8a35260e2)" style="fill: none; stroke: #ffc0cb; stroke-width: 1.5; stroke-linecap: square"/>
   </g>
   <g id="line2d_27">
    <path d="M 256.560722 128.94006 
" clip-path="url(#pc8a35260e2)" style="fill: none; stroke: #ffc0cb; stroke-width: 1.5; stroke-linecap: square"/>
    <defs>
     <path id="m3aa7be7a05" d="M 0 5 
C 1.326016 5 2.597899 4.473168 3.535534 3.535534 
C 4.473168 2.597899 5 1.326016 5 0 
C 5 -1.326016 4.473168 -2.597899 3.535534 -3.535534 
C 2.597899 -4.473168 1.326016 -5 0 -5 
C -1.326016 -5 -2.597899 -4.473168 -3.535534 -3.535534 
C -4.473168 -2.597899 -5 -1.326016 -5 0 
C -5 1.326016 -4.473168 2.597899 -3.535534 3.535534 
C -2.597899 4.473168 -1.326016 5 0 5 
z
" style="stroke: #ffc0cb"/>
    </defs>
    <g clip-path="url(#pc8a35260e2)">
     <use xlink:href="#m3aa7be7a05" x="256.560722" y="128.94006" style="fill: #ffc0cb; stroke: #ffc0cb"/>
    </g>
   </g>
   <g id="line2d_28">
    <path d="M 119.319504 61.46991 
" clip-path="url(#pc8a35260e2)" style="fill: none; stroke: #ffc0cb; stroke-width: 1.5; stroke-linecap: square"/>
    <defs>
     <path id="m788bfaebf2" d="M -5 5 
L 5 5 
L 5 -5 
L -5 -5 
z
" style="stroke: #ffc0cb; stroke-linejoin: miter"/>
    </defs>
    <g clip-path="url(#pc8a35260e2)">
     <use xlink:href="#m788bfaebf2" x="119.319504" y="61.46991" style="fill: #ffc0cb; stroke: #ffc0cb; stroke-linejoin: miter"/>
    </g>
   </g>
   <g id="patch_3">
    <path d="M 57.6 307.584 
L 57.6 41.472 
" style="fill: none; stroke: #000000; stroke-width: 0.8; stroke-linejoin: miter; stroke-linecap: square"/>
   </g>
   <g id="patch_4">
    <path d="M 57.6 307.584 
L 414.72 307.584 
" style="fill: none; stroke: #000000; stroke-width: 0.8; stroke-linejoin: miter; stroke-linecap: square"/>
   </g>
   <g id="legend_1">
    <g id="patch_5">
     <path d="M 282.164531 119.523563 
L 404.22 119.523563 
Q 407.22 119.523563 407.22 116.523563 
L 407.22 51.972 
Q 407.22 48.972 404.22 48.972 
L 282.164531 48.972 
Q 279.164531 48.972 279.164531 51.972 
L 279.164531 116.523563 
Q 279.164531 119.523563 282.164531 119.523563 
z
" style="fill: #ffffff; opacity: 0.8; stroke: #cccccc; stroke-linejoin: miter"/>
    </g>
    <g id="line2d_29">
     <path d="M 285.164531 61.119656 
L 300.164531 61.119656 
L 315.164531 61.119656 
" style="fill: none; stroke: #000000; stroke-width: 1.5; stroke-linecap: square"/>
    </g>
    <g id="text_7">
     <!-- Trajectory -->
     <g transform="translate(327.164531 66.369656)scale(0.15 -0.15)">
      <defs>
       <path id="DejaVuSans-54" d="M -19 4666 
L 3928 4666 
L 3928 4134 
L 2272 4134 
L 2272 0 
L 1638 0 
L 1638 4134 
L -19 4134 
L -19 4666 
z
" transform="scale(0.015625)"/>
       <path id="DejaVuSans-72" d="M 2631 2963 
Q 2534 3019 2420 3045 
Q 2306 3072 2169 3072 
Q 1681 3072 1420 2755 
Q 1159 2438 1159 1844 
L 1159 0 
L 581 0 
L 581 3500 
L 1159 3500 
L 1159 2956 
Q 1341 3275 1631 3429 
Q 1922 3584 2338 3584 
Q 2397 3584 2469 3576 
Q 2541 3569 2628 3553 
L 2631 2963 
z
" transform="scale(0.015625)"/>
       <path id="DejaVuSans-61" d="M 2194 1759 
Q 1497 1759 1228 1600 
Q 959 1441 959 1056 
Q 959 750 1161 570 
Q 1363 391 1709 391 
Q 2188 391 2477 730 
Q 2766 1069 2766 1631 
L 2766 1759 
L 2194 1759 
z
M 3341 1997 
L 3341 0 
L 2766 0 
L 2766 531 
Q 2569 213 2275 61 
Q 1981 -91 1556 -91 
Q 1019 -91 701 211 
Q 384 513 384 1019 
Q 384 1609 779 1909 
Q 1175 2209 1959 2209 
L 2766 2209 
L 2766 2266 
Q 2766 2663 2505 2880 
Q 2244 3097 1772 3097 
Q 1472 3097 1187 3025 
Q 903 2953 641 2809 
L 641 3341 
Q 956 3463 1253 3523 
Q 1550 3584 1831 3584 
Q 2591 3584 2966 3190 
Q 3341 2797 3341 1997 
z
" transform="scale(0.015625)"/>
       <path id="DejaVuSans-6a" d="M 603 3500 
L 1178 3500 
L 1178 -63 
Q 1178 -731 923 -1031 
Q 669 -1331 103 -1331 
L -116 -1331 
L -116 -844 
L 38 -844 
Q 366 -844 484 -692 
Q 603 -541 603 -63 
L 603 3500 
z
M 603 4863 
L 1178 4863 
L 1178 4134 
L 603 4134 
L 603 4863 
z
" transform="scale(0.015625)"/>
       <path id="DejaVuSans-65" d="M 3597 1894 
L 3597 1613 
L 953 1613 
Q 991 1019 1311 708 
Q 1631 397 2203 397 
Q 2534 397 2845 478 
Q 3156 559 3463 722 
L 3463 178 
Q 3153 47 2828 -22 
Q 2503 -91 2169 -91 
Q 1331 -91 842 396 
Q 353 884 353 1716 
Q 353 2575 817 3079 
Q 1281 3584 2069 3584 
Q 2775 3584 3186 3129 
Q 3597 2675 3597 1894 
z
M 3022 2063 
Q 3016 2534 2758 2815 
Q 2500 3097 2075 3097 
Q 1594 3097 1305 2825 
Q 1016 2553 972 2059 
L 3022 2063 
z
" transform="scale(0.015625)"/>
       <path id="DejaVuSans-63" d="M 3122 3366 
L 3122 2828 
Q 2878 2963 2633 3030 
Q 2388 3097 2138 3097 
Q 1578 3097 1268 2742 
Q 959 2388 959 1747 
Q 959 1106 1268 751 
Q 1578 397 2138 397 
Q 2388 397 2633 464 
Q 2878 531 3122 666 
L 3122 134 
Q 2881 22 2623 -34 
Q 2366 -91 2075 -91 
Q 1284 -91 818 406 
Q 353 903 353 1747 
Q 353 2603 823 3093 
Q 1294 3584 2113 3584 
Q 2378 3584 2631 3529 
Q 2884 3475 3122 3366 
z
" transform="scale(0.015625)"/>
       <path id="DejaVuSans-74" d="M 1172 4494 
L 1172 3500 
L 2356 3500 
L 2356 3053 
L 1172 3053 
L 1172 1153 
Q 1172 725 1289 603 
Q 1406 481 1766 481 
L 2356 481 
L 2356 0 
L 1766 0 
Q 1100 0 847 248 
Q 594 497 594 1153 
L 594 3053 
L 172 3053 
L 172 3500 
L 594 3500 
L 594 4494 
L 1172 4494 
z
" transform="scale(0.015625)"/>
       <path id="DejaVuSans-6f" d="M 1959 3097 
Q 1497 3097 1228 2736 
Q 959 2375 959 1747 
Q 959 1119 1226 758 
Q 1494 397 1959 397 
Q 2419 397 2687 759 
Q 2956 1122 2956 1747 
Q 2956 2369 2687 2733 
Q 2419 3097 1959 3097 
z
M 1959 3584 
Q 2709 3584 3137 3096 
Q 3566 2609 3566 1747 
Q 3566 888 3137 398 
Q 2709 -91 1959 -91 
Q 1206 -91 779 398 
Q 353 888 353 1747 
Q 353 2609 779 3096 
Q 1206 3584 1959 3584 
z
" transform="scale(0.015625)"/>
       <path id="DejaVuSans-79" d="M 2059 -325 
Q 1816 -950 1584 -1140 
Q 1353 -1331 966 -1331 
L 506 -1331 
L 506 -850 
L 844 -850 
Q 1081 -850 1212 -737 
Q 1344 -625 1503 -206 
L 1606 56 
L 191 3500 
L 800 3500 
L 1894 763 
L 2988 3500 
L 3597 3500 
L 2059 -325 
z
" transform="scale(0.015625)"/>
      </defs>
      <use xlink:href="#DejaVuSans-54"/>
      <use xlink:href="#DejaVuSans-72" x="46.333984"/>
      <use xlink:href="#DejaVuSans-61" x="87.447266"/>
      <use xlink:href="#DejaVuSans-6a" x="148.726562"/>
      <use xlink:href="#DejaVuSans-65" x="176.509766"/>
      <use xlink:href="#DejaVuSans-63" x="238.033203"/>
      <use xlink:href="#DejaVuSans-74" x="293.013672"/>
      <use xlink:href="#DejaVuSans-6f" x="332.222656"/>
      <use xlink:href="#DejaVuSans-72" x="393.404297"/>
      <use xlink:href="#DejaVuSans-79" x="434.517578"/>
     </g>
    </g>
    <g id="line2d_30">
     <path d="M 285.164531 83.136844 
L 300.164531 83.136844 
L 315.164531 83.136844 
" style="fill: none; stroke: #000000; stroke-width: 1.5; stroke-linecap: square"/>
     <g>
      <use xlink:href="#m5808c338e1" x="300.164531" y="83.136844" style="stroke: #000000"/>
     </g>
    </g>
    <g id="text_8">
     <!-- Start -->
     <g transform="translate(327.164531 88.386844)scale(0.15 -0.15)">
      <defs>
       <path id="DejaVuSans-53" d="M 3425 4513 
L 3425 3897 
Q 3066 4069 2747 4153 
Q 2428 4238 2131 4238 
Q 1616 4238 1336 4038 
Q 1056 3838 1056 3469 
Q 1056 3159 1242 3001 
Q 1428 2844 1947 2747 
L 2328 2669 
Q 3034 2534 3370 2195 
Q 3706 1856 3706 1288 
Q 3706 609 3251 259 
Q 2797 -91 1919 -91 
Q 1588 -91 1214 -16 
Q 841 59 441 206 
L 441 856 
Q 825 641 1194 531 
Q 1563 422 1919 422 
Q 2459 422 2753 634 
Q 3047 847 3047 1241 
Q 3047 1584 2836 1778 
Q 2625 1972 2144 2069 
L 1759 2144 
Q 1053 2284 737 2584 
Q 422 2884 422 3419 
Q 422 4038 858 4394 
Q 1294 4750 2059 4750 
Q 2388 4750 2728 4690 
Q 3069 4631 3425 4513 
z
" transform="scale(0.015625)"/>
      </defs>
      <use xlink:href="#DejaVuSans-53"/>
      <use xlink:href="#DejaVuSans-74" x="63.476562"/>
      <use xlink:href="#DejaVuSans-61" x="102.685547"/>
      <use xlink:href="#DejaVuSans-72" x="163.964844"/>
      <use xlink:href="#DejaVuSans-74" x="205.078125"/>
     </g>
    </g>
    <g id="line2d_31">
     <path d="M 285.164531 105.154031 
L 300.164531 105.154031 
L 315.164531 105.154031 
" style="fill: none; stroke: #000000; stroke-width: 1.5; stroke-linecap: square"/>
     <g>
      <use xlink:href="#mad59ad74cf" x="300.164531" y="105.154031" style="stroke: #000000; stroke-linejoin: miter"/>
     </g>
    </g>
    <g id="text_9">
     <!-- End -->
     <g transform="translate(327.164531 110.404031)scale(0.15 -0.15)">
      <defs>
       <path id="DejaVuSans-45" d="M 628 4666 
L 3578 4666 
L 3578 4134 
L 1259 4134 
L 1259 2753 
L 3481 2753 
L 3481 2222 
L 1259 2222 
L 1259 531 
L 3634 531 
L 3634 0 
L 628 0 
L 628 4666 
z
" transform="scale(0.015625)"/>
       <path id="DejaVuSans-6e" d="M 3513 2113 
L 3513 0 
L 2938 0 
L 2938 2094 
Q 2938 2591 2744 2837 
Q 2550 3084 2163 3084 
Q 1697 3084 1428 2787 
Q 1159 2491 1159 1978 
L 1159 0 
L 581 0 
L 581 3500 
L 1159 3500 
L 1159 2956 
Q 1366 3272 1645 3428 
Q 1925 3584 2291 3584 
Q 2894 3584 3203 3211 
Q 3513 2838 3513 2113 
z
" transform="scale(0.015625)"/>
       <path id="DejaVuSans-64" d="M 2906 2969 
L 2906 4863 
L 3481 4863 
L 3481 0 
L 2906 0 
L 2906 525 
Q 2725 213 2448 61 
Q 2172 -91 1784 -91 
Q 1150 -91 751 415 
Q 353 922 353 1747 
Q 353 2572 751 3078 
Q 1150 3584 1784 3584 
Q 2172 3584 2448 3432 
Q 2725 3281 2906 2969 
z
M 947 1747 
Q 947 1113 1208 752 
Q 1469 391 1925 391 
Q 2381 391 2643 752 
Q 2906 1113 2906 1747 
Q 2906 2381 2643 2742 
Q 2381 3103 1925 3103 
Q 1469 3103 1208 2742 
Q 947 2381 947 1747 
z
" transform="scale(0.015625)"/>
      </defs>
      <use xlink:href="#DejaVuSans-45"/>
      <use xlink:href="#DejaVuSans-6e" x="63.183594"/>
      <use xlink:href="#DejaVuSans-64" x="126.5625"/>
     </g>
    </g>
   </g>
  </g>
 </g>
 <defs>
  <clipPath id="pc8a35260e2">
   <rect x="57.6" y="41.472" width="357.12" height="266.112"/>
  </clipPath>
 </defs>
</svg>
