<?xml version="1.0" encoding="utf-8" standalone="no"?>
<!DOCTYPE svg PUBLIC "-//W3C//DTD SVG 1.1//EN"
  "http://www.w3.org/Graphics/SVG/1.1/DTD/svg11.dtd">
<svg xmlns:xlink="http://www.w3.org/1999/xlink" width="460.8pt" height="345.6pt" viewBox="0 0 460.8 345.6" xmlns="http://www.w3.org/2000/svg" version="1.1">
 <metadata>
  <rdf:RDF xmlns:dc="http://purl.org/dc/elements/1.1/" xmlns:cc="http://creativecommons.org/ns#" xmlns:rdf="http://www.w3.org/1999/02/22-rdf-syntax-ns#">
   <cc:Work>
    <dc:type rdf:resource="http://purl.org/dc/dcmitype/StillImage"/>
    <dc:date>2024-02-21T13:17:54.136826</dc:date>
    <dc:format>image/svg+xml</dc:format>
    <dc:creator>
     <cc:Agent>
      <dc:title>Matplotlib v3.5.0, https://matplotlib.org/</dc:title>
     </cc:Agent>
    </dc:creator>
   </cc:Work>
  </rdf:RDF>
 </metadata>
 <defs>
  <style type="text/css">*{stroke-linejoin: round; stroke-linecap: butt}</style>
 </defs>
 <g id="figure_1">
  <g id="patch_1">
   <path d="M 0 345.6 
L 460.8 345.6 
L 460.8 0 
L 0 0 
z
" style="fill: #ffffff"/>
  </g>
  <g id="axes_1">
   <g id="patch_2">
    <path d="M 57.6 307.584 
L 414.72 307.584 
L 414.72 41.472 
L 57.6 41.472 
z
" style="fill: #ffffff"/>
   </g>
   <g id="matplotlib.axis_1">
    <g id="xtick_1">
     <g id="line2d_1">
      <defs>
       <path id="mf24333a2d7" d="M 0 0 
L 0 3.5 
" style="stroke: #000000; stroke-width: 0.8"/>
      </defs>
      <g>
       <use xlink:href="#mf24333a2d7" x="57.6" y="307.584" style="stroke: #000000; stroke-width: 0.8"/>
      </g>
     </g>
     <g id="text_1">
      <!-- 0 -->
      <g transform="translate(51.2375 329.780875)scale(0.2 -0.2)">
       <defs>
        <path id="DejaVuSans-30" d="M 2034 4250 
Q 1547 4250 1301 3770 
Q 1056 3291 1056 2328 
Q 1056 1369 1301 889 
Q 1547 409 2034 409 
Q 2525 409 2770 889 
Q 3016 1369 3016 2328 
Q 3016 3291 2770 3770 
Q 2525 4250 2034 4250 
z
M 2034 4750 
Q 2819 4750 3233 4129 
Q 3647 3509 3647 2328 
Q 3647 1150 3233 529 
Q 2819 -91 2034 -91 
Q 1250 -91 836 529 
Q 422 1150 422 2328 
Q 422 3509 836 4129 
Q 1250 4750 2034 4750 
z
" transform="scale(0.015625)"/>
       </defs>
       <use xlink:href="#DejaVuSans-30"/>
      </g>
     </g>
    </g>
    <g id="xtick_2">
     <g id="line2d_2">
      <g>
       <use xlink:href="#mf24333a2d7" x="404.289262" y="307.584" style="stroke: #000000; stroke-width: 0.8"/>
      </g>
     </g>
     <g id="text_2">
      <!-- 1 -->
      <g transform="translate(397.926762 329.780875)scale(0.2 -0.2)">
       <defs>
        <path id="DejaVuSans-31" d="M 794 531 
L 1825 531 
L 1825 4091 
L 703 3866 
L 703 4441 
L 1819 4666 
L 2450 4666 
L 2450 531 
L 3481 531 
L 3481 0 
L 794 0 
L 794 531 
z
" transform="scale(0.015625)"/>
       </defs>
       <use xlink:href="#DejaVuSans-31"/>
      </g>
     </g>
    </g>
    <g id="text_3">
     <!-- Normalised X position -->
     <g transform="translate(111.795937 353.137125)scale(0.2 -0.2)">
      <defs>
       <path id="DejaVuSans-Bold-4e" d="M 588 4666 
L 1931 4666 
L 3628 1466 
L 3628 4666 
L 4769 4666 
L 4769 0 
L 3425 0 
L 1728 3200 
L 1728 0 
L 588 0 
L 588 4666 
z
" transform="scale(0.015625)"/>
       <path id="DejaVuSans-Bold-6f" d="M 2203 2784 
Q 1831 2784 1636 2517 
Q 1441 2250 1441 1747 
Q 1441 1244 1636 976 
Q 1831 709 2203 709 
Q 2569 709 2762 976 
Q 2956 1244 2956 1747 
Q 2956 2250 2762 2517 
Q 2569 2784 2203 2784 
z
M 2203 3584 
Q 3106 3584 3614 3096 
Q 4122 2609 4122 1747 
Q 4122 884 3614 396 
Q 3106 -91 2203 -91 
Q 1297 -91 786 396 
Q 275 884 275 1747 
Q 275 2609 786 3096 
Q 1297 3584 2203 3584 
z
" transform="scale(0.015625)"/>
       <path id="DejaVuSans-Bold-72" d="M 3138 2547 
Q 2991 2616 2845 2648 
Q 2700 2681 2553 2681 
Q 2122 2681 1889 2404 
Q 1656 2128 1656 1613 
L 1656 0 
L 538 0 
L 538 3500 
L 1656 3500 
L 1656 2925 
Q 1872 3269 2151 3426 
Q 2431 3584 2822 3584 
Q 2878 3584 2943 3579 
Q 3009 3575 3134 3559 
L 3138 2547 
z
" transform="scale(0.015625)"/>
       <path id="DejaVuSans-Bold-6d" d="M 3781 2919 
Q 3994 3244 4286 3414 
Q 4578 3584 4928 3584 
Q 5531 3584 5847 3212 
Q 6163 2841 6163 2131 
L 6163 0 
L 5038 0 
L 5038 1825 
Q 5041 1866 5042 1909 
Q 5044 1953 5044 2034 
Q 5044 2406 4934 2573 
Q 4825 2741 4581 2741 
Q 4263 2741 4089 2478 
Q 3916 2216 3909 1719 
L 3909 0 
L 2784 0 
L 2784 1825 
Q 2784 2406 2684 2573 
Q 2584 2741 2328 2741 
Q 2006 2741 1831 2477 
Q 1656 2213 1656 1722 
L 1656 0 
L 531 0 
L 531 3500 
L 1656 3500 
L 1656 2988 
Q 1863 3284 2130 3434 
Q 2397 3584 2719 3584 
Q 3081 3584 3359 3409 
Q 3638 3234 3781 2919 
z
" transform="scale(0.015625)"/>
       <path id="DejaVuSans-Bold-61" d="M 2106 1575 
Q 1756 1575 1579 1456 
Q 1403 1338 1403 1106 
Q 1403 894 1545 773 
Q 1688 653 1941 653 
Q 2256 653 2472 879 
Q 2688 1106 2688 1447 
L 2688 1575 
L 2106 1575 
z
M 3816 1997 
L 3816 0 
L 2688 0 
L 2688 519 
Q 2463 200 2181 54 
Q 1900 -91 1497 -91 
Q 953 -91 614 226 
Q 275 544 275 1050 
Q 275 1666 698 1953 
Q 1122 2241 2028 2241 
L 2688 2241 
L 2688 2328 
Q 2688 2594 2478 2717 
Q 2269 2841 1825 2841 
Q 1466 2841 1156 2769 
Q 847 2697 581 2553 
L 581 3406 
Q 941 3494 1303 3539 
Q 1666 3584 2028 3584 
Q 2975 3584 3395 3211 
Q 3816 2838 3816 1997 
z
" transform="scale(0.015625)"/>
       <path id="DejaVuSans-Bold-6c" d="M 538 4863 
L 1656 4863 
L 1656 0 
L 538 0 
L 538 4863 
z
" transform="scale(0.015625)"/>
       <path id="DejaVuSans-Bold-69" d="M 538 3500 
L 1656 3500 
L 1656 0 
L 538 0 
L 538 3500 
z
M 538 4863 
L 1656 4863 
L 1656 3950 
L 538 3950 
L 538 4863 
z
" transform="scale(0.015625)"/>
       <path id="DejaVuSans-Bold-73" d="M 3272 3391 
L 3272 2541 
Q 2913 2691 2578 2766 
Q 2244 2841 1947 2841 
Q 1628 2841 1473 2761 
Q 1319 2681 1319 2516 
Q 1319 2381 1436 2309 
Q 1553 2238 1856 2203 
L 2053 2175 
Q 2913 2066 3209 1816 
Q 3506 1566 3506 1031 
Q 3506 472 3093 190 
Q 2681 -91 1863 -91 
Q 1516 -91 1145 -36 
Q 775 19 384 128 
L 384 978 
Q 719 816 1070 734 
Q 1422 653 1784 653 
Q 2113 653 2278 743 
Q 2444 834 2444 1013 
Q 2444 1163 2330 1236 
Q 2216 1309 1875 1350 
L 1678 1375 
Q 931 1469 631 1722 
Q 331 1975 331 2491 
Q 331 3047 712 3315 
Q 1094 3584 1881 3584 
Q 2191 3584 2531 3537 
Q 2872 3491 3272 3391 
z
" transform="scale(0.015625)"/>
       <path id="DejaVuSans-Bold-65" d="M 4031 1759 
L 4031 1441 
L 1416 1441 
Q 1456 1047 1700 850 
Q 1944 653 2381 653 
Q 2734 653 3104 758 
Q 3475 863 3866 1075 
L 3866 213 
Q 3469 63 3072 -14 
Q 2675 -91 2278 -91 
Q 1328 -91 801 392 
Q 275 875 275 1747 
Q 275 2603 792 3093 
Q 1309 3584 2216 3584 
Q 3041 3584 3536 3087 
Q 4031 2591 4031 1759 
z
M 2881 2131 
Q 2881 2450 2695 2645 
Q 2509 2841 2209 2841 
Q 1884 2841 1681 2658 
Q 1478 2475 1428 2131 
L 2881 2131 
z
" transform="scale(0.015625)"/>
       <path id="DejaVuSans-Bold-64" d="M 2919 2988 
L 2919 4863 
L 4044 4863 
L 4044 0 
L 2919 0 
L 2919 506 
Q 2688 197 2409 53 
Q 2131 -91 1766 -91 
Q 1119 -91 703 423 
Q 288 938 288 1747 
Q 288 2556 703 3070 
Q 1119 3584 1766 3584 
Q 2128 3584 2408 3439 
Q 2688 3294 2919 2988 
z
M 2181 722 
Q 2541 722 2730 984 
Q 2919 1247 2919 1747 
Q 2919 2247 2730 2509 
Q 2541 2772 2181 2772 
Q 1825 2772 1636 2509 
Q 1447 2247 1447 1747 
Q 1447 1247 1636 984 
Q 1825 722 2181 722 
z
" transform="scale(0.015625)"/>
       <path id="DejaVuSans-Bold-20" transform="scale(0.015625)"/>
       <path id="DejaVuSans-Bold-58" d="M 3188 2381 
L 4806 0 
L 3553 0 
L 2463 1594 
L 1381 0 
L 122 0 
L 1741 2381 
L 184 4666 
L 1441 4666 
L 2463 3163 
L 3481 4666 
L 4744 4666 
L 3188 2381 
z
" transform="scale(0.015625)"/>
       <path id="DejaVuSans-Bold-70" d="M 1656 506 
L 1656 -1331 
L 538 -1331 
L 538 3500 
L 1656 3500 
L 1656 2988 
Q 1888 3294 2169 3439 
Q 2450 3584 2816 3584 
Q 3463 3584 3878 3070 
Q 4294 2556 4294 1747 
Q 4294 938 3878 423 
Q 3463 -91 2816 -91 
Q 2450 -91 2169 54 
Q 1888 200 1656 506 
z
M 2400 2772 
Q 2041 2772 1848 2508 
Q 1656 2244 1656 1747 
Q 1656 1250 1848 986 
Q 2041 722 2400 722 
Q 2759 722 2948 984 
Q 3138 1247 3138 1747 
Q 3138 2247 2948 2509 
Q 2759 2772 2400 2772 
z
" transform="scale(0.015625)"/>
       <path id="DejaVuSans-Bold-74" d="M 1759 4494 
L 1759 3500 
L 2913 3500 
L 2913 2700 
L 1759 2700 
L 1759 1216 
Q 1759 972 1856 886 
Q 1953 800 2241 800 
L 2816 800 
L 2816 0 
L 1856 0 
Q 1194 0 917 276 
Q 641 553 641 1216 
L 641 2700 
L 84 2700 
L 84 3500 
L 641 3500 
L 641 4494 
L 1759 4494 
z
" transform="scale(0.015625)"/>
       <path id="DejaVuSans-Bold-6e" d="M 4056 2131 
L 4056 0 
L 2931 0 
L 2931 347 
L 2931 1631 
Q 2931 2084 2911 2256 
Q 2891 2428 2841 2509 
Q 2775 2619 2662 2680 
Q 2550 2741 2406 2741 
Q 2056 2741 1856 2470 
Q 1656 2200 1656 1722 
L 1656 0 
L 538 0 
L 538 3500 
L 1656 3500 
L 1656 2988 
Q 1909 3294 2193 3439 
Q 2478 3584 2822 3584 
Q 3428 3584 3742 3212 
Q 4056 2841 4056 2131 
z
" transform="scale(0.015625)"/>
      </defs>
      <use xlink:href="#DejaVuSans-Bold-4e"/>
      <use xlink:href="#DejaVuSans-Bold-6f" x="83.691406"/>
      <use xlink:href="#DejaVuSans-Bold-72" x="152.392578"/>
      <use xlink:href="#DejaVuSans-Bold-6d" x="201.708984"/>
      <use xlink:href="#DejaVuSans-Bold-61" x="305.908203"/>
      <use xlink:href="#DejaVuSans-Bold-6c" x="373.388672"/>
      <use xlink:href="#DejaVuSans-Bold-69" x="407.666016"/>
      <use xlink:href="#DejaVuSans-Bold-73" x="441.943359"/>
      <use xlink:href="#DejaVuSans-Bold-65" x="501.464844"/>
      <use xlink:href="#DejaVuSans-Bold-64" x="569.287109"/>
      <use xlink:href="#DejaVuSans-Bold-20" x="640.869141"/>
      <use xlink:href="#DejaVuSans-Bold-58" x="675.683594"/>
      <use xlink:href="#DejaVuSans-Bold-20" x="752.783203"/>
      <use xlink:href="#DejaVuSans-Bold-70" x="787.597656"/>
      <use xlink:href="#DejaVuSans-Bold-6f" x="859.179688"/>
      <use xlink:href="#DejaVuSans-Bold-73" x="927.880859"/>
      <use xlink:href="#DejaVuSans-Bold-69" x="987.402344"/>
      <use xlink:href="#DejaVuSans-Bold-74" x="1021.679688"/>
      <use xlink:href="#DejaVuSans-Bold-69" x="1069.482422"/>
      <use xlink:href="#DejaVuSans-Bold-6f" x="1103.759766"/>
      <use xlink:href="#DejaVuSans-Bold-6e" x="1172.460938"/>
     </g>
    </g>
   </g>
   <g id="matplotlib.axis_2">
    <g id="ytick_1">
     <g id="line2d_3">
      <defs>
       <path id="m9ed6204ef4" d="M 0 0 
L -3.5 0 
" style="stroke: #000000; stroke-width: 0.8"/>
      </defs>
      <g>
       <use xlink:href="#m9ed6204ef4" x="57.6" y="305.383544" style="stroke: #000000; stroke-width: 0.8"/>
      </g>
     </g>
     <g id="text_4">
      <!-- 0 -->
      <g transform="translate(37.875 312.981981)scale(0.2 -0.2)">
       <use xlink:href="#DejaVuSans-30"/>
      </g>
     </g>
    </g>
    <g id="ytick_2">
     <g id="line2d_4">
      <g>
       <use xlink:href="#m9ed6204ef4" x="57.6" y="52.526364" style="stroke: #000000; stroke-width: 0.8"/>
      </g>
     </g>
     <g id="text_5">
      <!-- 1 -->
      <g transform="translate(37.875 60.124801)scale(0.2 -0.2)">
       <use xlink:href="#DejaVuSans-31"/>
      </g>
     </g>
    </g>
    <g id="text_6">
     <!-- Normalised Y position -->
     <g transform="translate(29.715625 298.423313)rotate(-90)scale(0.2 -0.2)">
      <defs>
       <path id="DejaVuSans-Bold-59" d="M -63 4666 
L 1253 4666 
L 2316 3003 
L 3378 4666 
L 4697 4666 
L 2919 1966 
L 2919 0 
L 1716 0 
L 1716 1966 
L -63 4666 
z
" transform="scale(0.015625)"/>
      </defs>
      <use xlink:href="#DejaVuSans-Bold-4e"/>
      <use xlink:href="#DejaVuSans-Bold-6f" x="83.691406"/>
      <use xlink:href="#DejaVuSans-Bold-72" x="152.392578"/>
      <use xlink:href="#DejaVuSans-Bold-6d" x="201.708984"/>
      <use xlink:href="#DejaVuSans-Bold-61" x="305.908203"/>
      <use xlink:href="#DejaVuSans-Bold-6c" x="373.388672"/>
      <use xlink:href="#DejaVuSans-Bold-69" x="407.666016"/>
      <use xlink:href="#DejaVuSans-Bold-73" x="441.943359"/>
      <use xlink:href="#DejaVuSans-Bold-65" x="501.464844"/>
      <use xlink:href="#DejaVuSans-Bold-64" x="569.287109"/>
      <use xlink:href="#DejaVuSans-Bold-20" x="640.869141"/>
      <use xlink:href="#DejaVuSans-Bold-59" x="675.683594"/>
      <use xlink:href="#DejaVuSans-Bold-20" x="748.095703"/>
      <use xlink:href="#DejaVuSans-Bold-70" x="782.910156"/>
      <use xlink:href="#DejaVuSans-Bold-6f" x="854.492188"/>
      <use xlink:href="#DejaVuSans-Bold-73" x="923.193359"/>
      <use xlink:href="#DejaVuSans-Bold-69" x="982.714844"/>
      <use xlink:href="#DejaVuSans-Bold-74" x="1016.992188"/>
      <use xlink:href="#DejaVuSans-Bold-69" x="1064.794922"/>
      <use xlink:href="#DejaVuSans-Bold-6f" x="1099.072266"/>
      <use xlink:href="#DejaVuSans-Bold-6e" x="1167.773438"/>
     </g>
    </g>
   </g>
   <g id="line2d_5">
    <path d="M 148.981678 74.400723 
L 145.975702 72.317451 
L 143.570921 70.494588 
L 141.366539 69.192543 
L 139.362554 68.150906 
L 137.759367 67.10927 
L 136.556977 66.848861 
L 135.955781 66.848861 
L 135.755383 67.369679 
L 135.955781 68.411315 
L 136.356578 69.452952 
L 137.158172 70.494588 
L 138.160164 71.796633 
L 139.362554 73.098678 
L 139.96375 73.619496 
L 141.16614 74.921541 
L 141.566937 75.18195 
L 142.368531 75.963178 
L 143.370523 76.483996 
L 144.572913 77.265223 
L 145.975702 78.04645 
L 147.178093 78.827677 
L 148.78128 79.869313 
L 150.384467 80.910949 
L 151.987655 82.212995 
L 153.590842 83.775449 
L 155.394428 85.337903 
L 157.398412 87.160766 
L 159.201998 88.98363 
L 161.005583 90.546084 
L 163.009568 92.368947 
L 165.21395 93.931402 
L 167.217934 95.493856 
L 169.221919 97.05631 
L 171.225903 98.358355 
L 173.029489 100.181219 
L 174.833074 101.743673 
L 176.235863 103.306127 
L 177.037457 104.868581 
L 177.438254 106.170626 
L 177.638652 107.472672 
L 177.237855 108.774717 
L 176.63666 110.076762 
L 176.035465 111.378807 
L 174.833074 112.420443 
L 173.630684 113.722489 
L 172.027496 115.024534 
L 170.223911 116.06617 
L 168.420325 117.368215 
L 166.215942 118.409851 
L 163.811161 119.191079 
L 161.40638 120.753533 
L 158.801201 122.315987 
L 156.196021 123.618032 
L 153.390444 125.180487 
L 150.785264 126.742941 
L 147.779288 128.044986 
L 144.97371 129.867849 
L 141.967734 131.169895 
L 139.362554 133.253167 
L 136.356578 134.555212 
L 135.354586 135.596848 
L 132.34861 137.419712 
L 129.543032 140.023802 
L 126.937852 142.627892 
L 124.533071 145.231983 
L 121.927892 148.356891 
L 119.723509 151.742209 
L 117.519127 154.606708 
L 115.715541 158.252435 
L 113.911955 161.898161 
L 111.707573 166.325115 
L 110.104385 170.752069 
L 108.901995 174.137386 
L 107.298808 177.262295 
L 105.896019 180.387203 
L 104.292831 182.730885 
L 102.689644 185.595384 
L 101.086457 187.418248 
L 99.683668 189.241111 
L 98.08048 190.543156 
L 96.677691 191.584792 
L 95.274902 192.366019 
L 93.872114 193.147247 
L 92.469325 193.928474 
L 91.066536 194.188883 
L 89.864145 194.709701 
L 89.062552 194.97011 
L 88.060559 195.230519 
L 87.459364 195.490928 
L 87.258966 196.011746 
L 86.657771 196.272155 
L 86.657771 196.792973 
L 86.657771 196.792973 
L 86.657771 196.532564 
L 86.256974 196.011746 
L 86.657771 195.751337 
L 86.657771 195.751337 
L 86.657771 195.230519 
L 87.058567 194.97011 
L 87.659763 195.230519 
L 88.661755 195.490928 
L 89.663747 196.011746 
L 90.665739 196.532564 
L 92.669723 197.834609 
L 93.270918 198.095018 
L 94.473309 199.136654 
L 95.876098 199.917882 
L 97.278887 201.219927 
L 98.481277 202.261563 
L 98.481277 202.261563 
L 100.68566 204.084426 
L 102.689644 206.688517 
L 103.892034 208.250971 
" clip-path="url(#p487a82f0d5)" style="fill: none; stroke: #000000; stroke-width: 1.5; stroke-linecap: square"/>
   </g>
   <g id="line2d_6">
    <path d="M 148.981678 74.400723 
" clip-path="url(#p487a82f0d5)" style="fill: none; stroke: #000000; stroke-width: 1.5; stroke-linecap: square"/>
    <defs>
     <path id="meb6395075c" d="M 0 5 
C 1.326016 5 2.597899 4.473168 3.535534 3.535534 
C 4.473168 2.597899 5 1.326016 5 0 
C 5 -1.326016 4.473168 -2.597899 3.535534 -3.535534 
C 2.597899 -4.473168 1.326016 -5 0 -5 
C -1.326016 -5 -2.597899 -4.473168 -3.535534 -3.535534 
C -4.473168 -2.597899 -5 -1.326016 -5 0 
C -5 1.326016 -4.473168 2.597899 -3.535534 3.535534 
C -2.597899 4.473168 -1.326016 5 0 5 
z
" style="stroke: #000000"/>
    </defs>
    <g clip-path="url(#p487a82f0d5)">
     <use xlink:href="#meb6395075c" x="148.981678" y="74.400723" style="stroke: #000000"/>
    </g>
   </g>
   <g id="line2d_7">
    <path d="M 103.892034 208.250971 
" clip-path="url(#p487a82f0d5)" style="fill: none; stroke: #000000; stroke-width: 1.5; stroke-linecap: square"/>
    <defs>
     <path id="m20a9b754d2" d="M -5 5 
L 5 5 
L 5 -5 
L -5 -5 
z
" style="stroke: #000000; stroke-linejoin: miter"/>
    </defs>
    <g clip-path="url(#p487a82f0d5)">
     <use xlink:href="#m20a9b754d2" x="103.892034" y="208.250971" style="stroke: #000000; stroke-linejoin: miter"/>
    </g>
   </g>
   <g id="line2d_8">
    <path d="M 206.696423 174.397795 
L 207.097219 174.658205 
L 207.698415 175.179023 
L 208.099212 175.699841 
L 208.29961 176.220659 
L 208.700407 177.001886 
L 208.700407 177.522704 
L 208.900805 177.783113 
L 208.900805 178.303931 
L 209.101204 178.824749 
L 209.301602 179.085158 
L 209.502001 179.345567 
L 209.702399 179.605976 
L 209.902797 179.605976 
L 210.103196 179.605976 
L 210.103196 179.605976 
L 210.303594 179.605976 
L 210.303594 179.345567 
L 210.303594 179.345567 
L 210.503993 179.085158 
L 210.704391 179.345567 
L 211.505985 179.605976 
L 212.307578 180.126794 
L 213.509969 180.908022 
L 215.113156 181.949658 
L 216.916742 183.251703 
L 219.121125 184.814157 
L 221.525906 186.376611 
L 224.331483 188.199475 
L 227.537858 190.282747 
L 230.744233 192.886837 
L 234.551803 195.490928 
L 238.359373 198.355427 
L 242.367341 201.219927 
L 246.776106 204.865653 
L 251.585668 208.771789 
L 256.996425 212.677925 
L 262.607581 217.104878 
L 268.218737 221.792241 
L 274.030291 226.479604 
L 279.641447 231.427376 
L 285.453001 236.375147 
L 290.66336 240.802101 
L 295.072125 244.708237 
L 299.681288 248.614372 
L 303.488858 252.260099 
L 306.695233 255.905826 
L 309.500811 258.770325 
L 312.506787 261.634825 
L 315.312365 264.759733 
L 317.717146 267.103414 
L 319.320333 268.926278 
L 320.522724 270.228323 
L 321.324317 271.00955 
L 321.725114 271.530368 
L 321.925513 272.051186 
L 321.925513 272.311595 
L 321.524716 272.311595 
L 320.923521 272.051186 
L 320.121927 271.530368 
L 319.119935 270.749141 
L 317.917544 269.707505 
L 316.715154 268.665869 
L 315.312365 266.843005 
L 313.909576 265.54096 
L 312.306389 263.978506 
L 310.502803 261.895234 
L 308.899616 260.07237 
L 307.697225 258.770325 
L 306.695233 257.46828 
L 305.092046 255.645417 
L 304.290452 254.864189 
L 304.090054 254.60378 
L 303.088062 253.301735 
L 302.086069 251.99969 
L 301.084077 250.958054 
L 300.282484 249.656009 
L 299.681288 248.353963 
L 298.679296 246.791509 
L 298.679296 245.749873 
L 298.679296 244.968646 
L 298.679296 243.92701 
L 298.679296 243.145783 
L 298.679296 242.364555 
L 298.679296 241.843737 
L 298.478898 240.802101 
L 298.478898 240.020874 
L 298.478898 239.239647 
L 298.478898 238.718829 
L 298.679296 238.198011 
L 298.679296 237.416784 
L 298.879695 236.635557 
" clip-path="url(#p487a82f0d5)" style="fill: none; stroke: #ffa07a; stroke-width: 1.5; stroke-linecap: square"/>
   </g>
   <g id="line2d_9">
    <path d="M 206.696423 174.397795 
" clip-path="url(#p487a82f0d5)" style="fill: none; stroke: #ffa07a; stroke-width: 1.5; stroke-linecap: square"/>
    <defs>
     <path id="m04901c8c21" d="M 0 5 
C 1.326016 5 2.597899 4.473168 3.535534 3.535534 
C 4.473168 2.597899 5 1.326016 5 0 
C 5 -1.326016 4.473168 -2.597899 3.535534 -3.535534 
C 2.597899 -4.473168 1.326016 -5 0 -5 
C -1.326016 -5 -2.597899 -4.473168 -3.535534 -3.535534 
C -4.473168 -2.597899 -5 -1.326016 -5 0 
C -5 1.326016 -4.473168 2.597899 -3.535534 3.535534 
C -2.597899 4.473168 -1.326016 5 0 5 
z
" style="stroke: #ffa07a"/>
    </defs>
    <g clip-path="url(#p487a82f0d5)">
     <use xlink:href="#m04901c8c21" x="206.696423" y="174.397795" style="fill: #ffa07a; stroke: #ffa07a"/>
    </g>
   </g>
   <g id="line2d_10">
    <path d="M 298.879695 236.635557 
" clip-path="url(#p487a82f0d5)" style="fill: none; stroke: #ffa07a; stroke-width: 1.5; stroke-linecap: square"/>
    <defs>
     <path id="mbb5f846d16" d="M -5 5 
L 5 5 
L 5 -5 
L -5 -5 
z
" style="stroke: #ffa07a; stroke-linejoin: miter"/>
    </defs>
    <g clip-path="url(#p487a82f0d5)">
     <use xlink:href="#mbb5f846d16" x="298.879695" y="236.635557" style="fill: #ffa07a; stroke: #ffa07a; stroke-linejoin: miter"/>
    </g>
   </g>
   <g id="line2d_11">
    <path d="M 253.990449 150.179755 
L 253.188856 149.398527 
L 252.186863 148.6173 
L 251.184871 148.096482 
L 249.982481 147.836073 
L 248.78009 147.315255 
L 247.778098 146.534028 
L 246.174911 145.752801 
L 244.772122 145.231983 
L 243.168935 144.450756 
L 241.766146 143.929938 
L 240.363357 143.929938 
L 238.960568 143.409119 
L 237.357381 142.888301 
L 235.754193 142.367483 
L 234.151006 141.846665 
L 232.34742 141.065438 
L 230.744233 140.284211 
L 229.141045 139.502984 
L 227.537858 139.242575 
L 225.934671 138.721757 
L 224.131085 138.200939 
L 221.926702 137.419712 
L 219.72232 136.898893 
L 217.718336 136.638484 
L 215.313555 136.117666 
L 212.507977 135.596848 
L 209.702399 135.336439 
L 206.696423 134.555212 
L 203.890845 134.034394 
L 200.68447 133.513576 
L 198.079291 133.253167 
L 194.872916 133.253167 
L 192.067338 133.513576 
L 189.061362 133.773985 
L 186.456182 134.294803 
L 184.051401 135.07603 
L 181.64662 136.117666 
L 179.241839 136.898893 
L 177.037457 138.200939 
L 174.833074 138.982166 
L 172.628692 140.284211 
L 170.424309 141.846665 
L 168.219926 143.14871 
L 166.215942 144.711165 
L 164.612755 146.794437 
L 162.608771 148.356891 
L 160.805185 149.658936 
L 159.001599 150.960982 
L 157.999607 152.783845 
L 156.797217 154.08589 
L 155.795225 155.387935 
L 154.793233 157.210799 
L 154.192037 158.512844 
L 153.190045 159.55448 
L 152.188053 160.075298 
L 151.586858 161.116934 
L 150.785264 161.637752 
L 149.98367 162.158571 
L 149.382475 162.939798 
L 148.78128 163.460616 
L 148.380483 163.721025 
L 148.180085 164.241843 
L 147.779288 164.502252 
L 147.779288 164.502252 
L 147.779288 164.762661 
L 147.979686 165.02307 
L 147.979686 165.283479 
L 147.979686 165.283479 
L 147.979686 165.543888 
L 147.779288 165.804297 
L 147.779288 165.804297 
L 147.578889 165.804297 
L 147.578889 165.804297 
L 147.378491 165.804297 
L 147.378491 165.804297 
L 147.378491 166.064706 
L 147.378491 166.325115 
L 147.578889 166.845933 
L 147.578889 167.106342 
L 147.578889 167.366751 
L 147.578889 167.62716 
L 147.378491 168.147978 
L 147.378491 168.929206 
L 147.378491 169.450024 
L 147.178093 169.970842 
L 146.977694 170.49166 
L 146.777296 170.752069 
L 146.376499 171.533296 
L 146.376499 172.054114 
L 146.376499 172.574932 
L 146.376499 173.356159 
L 146.777296 174.137386 
L 147.378491 175.179023 
L 147.979686 176.481068 
L 148.380483 177.522704 
L 148.981678 178.303931 
L 149.382475 179.345567 
L 149.783272 180.387203 
L 149.98367 181.168431 
" clip-path="url(#p487a82f0d5)" style="fill: none; stroke: #0000ff; stroke-width: 1.5; stroke-linecap: square"/>
   </g>
   <g id="line2d_12">
    <path d="M 253.990449 150.179755 
" clip-path="url(#p487a82f0d5)" style="fill: none; stroke: #0000ff; stroke-width: 1.5; stroke-linecap: square"/>
    <defs>
     <path id="ma9917265c6" d="M 0 5 
C 1.326016 5 2.597899 4.473168 3.535534 3.535534 
C 4.473168 2.597899 5 1.326016 5 0 
C 5 -1.326016 4.473168 -2.597899 3.535534 -3.535534 
C 2.597899 -4.473168 1.326016 -5 0 -5 
C -1.326016 -5 -2.597899 -4.473168 -3.535534 -3.535534 
C -4.473168 -2.597899 -5 -1.326016 -5 0 
C -5 1.326016 -4.473168 2.597899 -3.535534 3.535534 
C -2.597899 4.473168 -1.326016 5 0 5 
z
" style="stroke: #0000ff"/>
    </defs>
    <g clip-path="url(#p487a82f0d5)">
     <use xlink:href="#ma9917265c6" x="253.990449" y="150.179755" style="fill: #0000ff; stroke: #0000ff"/>
    </g>
   </g>
   <g id="line2d_13">
    <path d="M 149.98367 181.168431 
" clip-path="url(#p487a82f0d5)" style="fill: none; stroke: #0000ff; stroke-width: 1.5; stroke-linecap: square"/>
    <defs>
     <path id="m66090188f6" d="M -5 5 
L 5 5 
L 5 -5 
L -5 -5 
z
" style="stroke: #0000ff; stroke-linejoin: miter"/>
    </defs>
    <g clip-path="url(#p487a82f0d5)">
     <use xlink:href="#m66090188f6" x="149.98367" y="181.168431" style="fill: #0000ff; stroke: #0000ff; stroke-linejoin: miter"/>
    </g>
   </g>
   <g id="line2d_14">
    <path d="M 207.097219 205.90729 
L 208.500008 205.90729 
L 209.702399 205.90729 
L 210.904789 205.90729 
L 212.307578 206.167699 
L 213.30957 205.90729 
L 214.311563 205.646881 
L 215.513953 205.646881 
L 216.515945 205.126062 
L 217.317539 204.605244 
L 218.319531 204.605244 
L 219.521921 204.344835 
L 220.523913 204.344835 
L 221.726304 204.084426 
L 222.127101 203.824017 
L 223.930687 203.824017 
L 224.331483 203.824017 
L 225.934671 203.303199 
L 226.936663 203.04279 
L 228.339452 202.782381 
L 229.541842 202.521972 
L 230.944631 202.782381 
L 231.746225 202.782381 
L 233.549811 203.303199 
L 235.353396 203.563608 
L 237.156982 203.824017 
L 239.160966 204.344835 
L 241.16495 204.865653 
L 243.369333 204.865653 
L 245.774114 205.386471 
L 247.978497 205.386471 
L 250.182879 205.646881 
L 252.387262 205.646881 
L 254.190848 205.386471 
L 255.994433 204.865653 
L 257.597621 204.344835 
L 259.00041 203.303199 
L 260.002402 202.001154 
L 261.204792 200.4387 
L 262.407183 199.397064 
L 263.008378 197.313791 
L 263.809972 195.751337 
L 264.611565 194.188883 
L 265.413159 192.10561 
L 265.613557 190.543156 
L 265.813956 188.720293 
L 266.014354 186.63702 
L 266.214753 184.553748 
L 266.415151 182.730885 
L 266.415151 180.647612 
L 266.415151 178.56434 
L 266.415151 176.741477 
L 266.61555 175.179023 
L 266.415151 173.356159 
L 266.415151 171.793705 
L 266.415151 169.970842 
L 266.214753 168.408388 
L 265.613557 166.585524 
L 265.413159 164.762661 
L 265.613557 163.200207 
L 265.212761 161.377343 
L 264.611565 159.55448 
L 264.411167 157.992026 
L 264.210768 156.429572 
L 263.609573 154.606708 
L 263.008378 152.783845 
L 262.607581 151.221391 
L 262.407183 149.658936 
L 262.006386 147.575664 
L 261.805987 146.01321 
L 262.006386 144.711165 
L 261.805987 143.14871 
L 261.805987 141.586256 
L 262.206784 140.54462 
L 262.80798 139.763393 
L 263.409175 139.242575 
L 264.210768 138.461348 
L 265.012362 137.94053 
L 265.613557 137.159302 
L 266.214753 136.378075 
L 266.815948 135.857257 
L 267.417143 135.336439 
L 268.218737 135.07603 
L 269.020331 134.815621 
L 269.621526 134.555212 
L 270.222721 134.555212 
L 270.823916 134.294803 
L 271.62551 134.294803 
L 272.226705 134.294803 
L 273.028299 134.294803 
L 273.829893 134.555212 
L 274.831885 134.815621 
L 275.833877 135.336439 
L 276.63547 135.336439 
L 277.637462 135.857257 
L 278.639455 136.117666 
L 279.841845 136.638484 
L 281.044236 137.419712 
L 282.246626 138.200939 
L 283.248618 138.982166 
L 283.849813 139.242575 
L 285.252602 140.54462 
L 285.853798 140.805029 
L 286.655391 141.586256 
L 287.657383 142.627892 
L 288.05818 142.888301 
L 288.659375 143.409119 
" clip-path="url(#p487a82f0d5)" style="fill: none; stroke: #00fa9a; stroke-width: 1.5; stroke-linecap: square"/>
   </g>
   <g id="line2d_15">
    <path d="M 207.097219 205.90729 
" clip-path="url(#p487a82f0d5)" style="fill: none; stroke: #00fa9a; stroke-width: 1.5; stroke-linecap: square"/>
    <defs>
     <path id="m91790ea497" d="M 0 5 
C 1.326016 5 2.597899 4.473168 3.535534 3.535534 
C 4.473168 2.597899 5 1.326016 5 0 
C 5 -1.326016 4.473168 -2.597899 3.535534 -3.535534 
C 2.597899 -4.473168 1.326016 -5 0 -5 
C -1.326016 -5 -2.597899 -4.473168 -3.535534 -3.535534 
C -4.473168 -2.597899 -5 -1.326016 -5 0 
C -5 1.326016 -4.473168 2.597899 -3.535534 3.535534 
C -2.597899 4.473168 -1.326016 5 0 5 
z
" style="stroke: #00fa9a"/>
    </defs>
    <g clip-path="url(#p487a82f0d5)">
     <use xlink:href="#m91790ea497" x="207.097219" y="205.90729" style="fill: #00fa9a; stroke: #00fa9a"/>
    </g>
   </g>
   <g id="line2d_16">
    <path d="M 288.659375 143.409119 
" clip-path="url(#p487a82f0d5)" style="fill: none; stroke: #00fa9a; stroke-width: 1.5; stroke-linecap: square"/>
    <defs>
     <path id="m25a3924462" d="M -5 5 
L 5 5 
L 5 -5 
L -5 -5 
z
" style="stroke: #00fa9a; stroke-linejoin: miter"/>
    </defs>
    <g clip-path="url(#p487a82f0d5)">
     <use xlink:href="#m25a3924462" x="288.659375" y="143.409119" style="fill: #00fa9a; stroke: #00fa9a; stroke-linejoin: miter"/>
    </g>
   </g>
   <g id="line2d_17">
    <path d="M 205.494032 119.191079 
L 204.892837 119.711897 
L 203.890845 120.232715 
L 202.488056 121.53476 
L 201.486064 121.795169 
L 199.882876 122.836805 
L 199.281681 123.618032 
L 198.680486 124.13885 
L 198.680486 125.180487 
L 197.878892 126.742941 
L 197.878892 128.826213 
L 197.277697 129.347031 
L 195.874908 132.732349 
L 195.273713 133.513576 
L 194.271721 134.294803 
L 192.668533 136.638484 
L 192.267737 139.242575 
L 192.267737 144.971574 
L 193.06933 147.575664 
L 194.271721 150.179755 
L 196.075307 153.565072 
L 198.279689 156.95039 
L 200.884869 160.335707 
L 204.692438 163.981434 
L 208.700407 168.147978 
L 213.30957 172.574932 
L 228.139053 186.116202 
L 241.966544 198.615836 
L 249.581684 205.126062 
L 260.403199 212.938334 
L 264.210768 215.542424 
L 266.415151 217.104878 
L 268.018338 218.406924 
L 269.821924 219.708969 
L 277.036267 223.615104 
L 277.837861 223.875513 
L 278.839853 223.875513 
L 279.641447 224.396332 
L 280.242642 224.396332 
L 282.046228 224.91715 
L 284.851806 227.000422 
L 286.254594 228.302467 
L 287.456985 229.083694 
L 288.859774 230.38574 
L 292.066149 232.469012 
L 293.669336 233.250239 
L 297.076109 233.250239 
L 298.879695 232.729421 
L 300.282484 232.729421 
L 301.885671 232.98983 
L 303.088062 232.98983 
L 304.691249 233.510648 
L 308.899616 235.333511 
L 317.917544 240.541692 
L 320.522724 241.843737 
L 327.536668 246.270691 
L 336.354199 249.3956 
L 339.96137 249.916418 
L 342.165753 250.697645 
L 343.368143 250.437236 
L 347.57651 251.99969 
L 349.380096 252.260099 
L 350.983283 252.780917 
L 352.987267 253.562144 
L 354.991252 254.60378 
L 355.993244 254.864189 
L 358.398025 255.645417 
L 359.199618 255.645417 
L 360.201611 255.905826 
L 360.602407 255.645417 
L 360.602407 254.343371 
L 361.404001 254.343371 
L 361.604399 253.562144 
L 361.203603 251.478872 
L 360.201611 248.093554 
L 358.99922 246.270691 
L 353.388064 236.114738 
L 352.185674 233.510648 
L 349.179698 228.042058 
L 347.376112 224.91715 
L 346.574518 222.833877 
L 344.971331 220.229787 
L 343.969339 218.146515 
L 342.56655 215.542424 
L 341.965355 213.719561 
L 339.360175 208.250971 
L 338.959378 205.90729 
L 338.157785 203.824017 
L 337.957386 201.740745 
L 337.957386 200.178291 
L 337.756988 198.615836 
L 338.157785 194.97011 
L 338.358183 193.668065 
L 339.159777 192.886837 
L 340.362167 192.626428 
L 341.364159 192.10561 
L 342.165753 191.845201 
L 342.56655 191.063974 
L 343.76894 191.063974 
L 344.971331 191.324383 
L 345.772924 191.324383 
L 346.574518 191.845201 
L 348.378104 192.366019 
L 349.580494 192.886837 
L 349.981291 192.626428 
L 350.782885 193.147247 
L 351.584479 193.407656 
L 353.788861 195.230519 
L 354.790853 196.011746 
L 355.392048 196.792973 
L 356.394041 197.5742 
L 357.195634 198.615836 
L 357.796829 199.917882 
L 358.598423 200.699109 
L 358.99922 202.001154 
L 358.99922 202.261563 
L 361.203603 205.126062 
L 362.205595 206.167699 
L 362.205595 206.167699 
" clip-path="url(#p487a82f0d5)" style="fill: none; stroke: #008000; stroke-width: 1.5; stroke-linecap: square"/>
   </g>
   <g id="line2d_18">
    <path d="M 205.494032 119.191079 
" clip-path="url(#p487a82f0d5)" style="fill: none; stroke: #008000; stroke-width: 1.5; stroke-linecap: square"/>
    <defs>
     <path id="m33e52f4505" d="M 0 5 
C 1.326016 5 2.597899 4.473168 3.535534 3.535534 
C 4.473168 2.597899 5 1.326016 5 0 
C 5 -1.326016 4.473168 -2.597899 3.535534 -3.535534 
C 2.597899 -4.473168 1.326016 -5 0 -5 
C -1.326016 -5 -2.597899 -4.473168 -3.535534 -3.535534 
C -4.473168 -2.597899 -5 -1.326016 -5 0 
C -5 1.326016 -4.473168 2.597899 -3.535534 3.535534 
C -2.597899 4.473168 -1.326016 5 0 5 
z
" style="stroke: #008000"/>
    </defs>
    <g clip-path="url(#p487a82f0d5)">
     <use xlink:href="#m33e52f4505" x="205.494032" y="119.191079" style="fill: #008000; stroke: #008000"/>
    </g>
   </g>
   <g id="line2d_19">
    <path d="M 362.205595 206.167699 
" clip-path="url(#p487a82f0d5)" style="fill: none; stroke: #008000; stroke-width: 1.5; stroke-linecap: square"/>
    <defs>
     <path id="mf9a1d0b062" d="M -5 5 
L 5 5 
L 5 -5 
L -5 -5 
z
" style="stroke: #008000; stroke-linejoin: miter"/>
    </defs>
    <g clip-path="url(#p487a82f0d5)">
     <use xlink:href="#mf9a1d0b062" x="362.205595" y="206.167699" style="fill: #008000; stroke: #008000; stroke-linejoin: miter"/>
    </g>
   </g>
   <g id="line2d_20">
    <path d="M 207.898813 141.586256 
L 208.700407 142.888301 
L 209.301602 143.669529 
L 210.303594 144.711165 
L 211.706383 145.752801 
L 212.507977 146.794437 
L 213.109172 147.315255 
L 213.910766 148.356891 
L 214.311563 148.6173 
L 214.912758 149.658936 
L 215.91475 150.700573 
L 216.916742 152.523436 
L 217.317539 153.565072 
L 218.519929 155.648344 
L 218.720328 156.429572 
L 219.72232 158.773253 
L 220.724312 160.335707 
L 221.926702 162.41898 
L 224.531882 166.325115 
L 226.535866 169.189615 
L 229.141045 172.054114 
L 232.147022 174.918614 
L 235.353396 177.783113 
L 243.569731 184.03293 
L 247.778098 186.897429 
L 254.591644 190.543156 
L 259.601605 192.886837 
L 270.823916 196.792973 
L 277.437064 197.5742 
L 281.845829 197.5742 
L 285.653399 197.313791 
L 291.264555 196.532564 
L 294.871726 195.751337 
L 298.278499 195.230519 
L 303.689257 194.709701 
L 305.292444 194.188883 
L 308.699217 194.188883 
L 311.905592 193.668065 
L 315.312365 193.407656 
L 318.117943 192.626428 
L 320.723122 192.10561 
L 326.735075 191.584792 
L 329.340254 191.063974 
L 331.945434 190.803565 
L 334.95141 191.063974 
L 336.554597 190.543156 
L 339.360175 191.063974 
L 340.362167 190.022338 
L 341.764956 189.761929 
L 342.165753 188.199475 
L 342.967347 187.418248 
L 342.766948 185.855793 
L 343.368143 185.074566 
L 343.368143 184.03293 
L 343.568542 183.512112 
L 343.167745 182.210067 
L 341.764956 178.824749 
L 339.760972 173.876977 
L 337.155792 170.49166 
L 337.155792 170.231251 
L 335.151808 167.106342 
L 334.350215 166.325115 
L 332.747027 163.721025 
L 331.945434 162.158571 
L 330.141848 159.814889 
L 328.939457 157.471208 
L 327.536668 152.783845 
L 327.737067 151.221391 
L 327.737067 149.919346 
L 328.137864 148.356891 
L 329.340254 148.096482 
L 330.141848 147.315255 
L 331.945434 147.575664 
L 333.348223 147.315255 
L 335.352207 147.315255 
L 337.756988 148.096482 
L 340.762964 147.054846 
L 341.364159 146.01321 
L 344.570534 145.492392 
L 345.772924 144.971574 
L 347.175713 144.190347 
L 347.57651 142.888301 
L 348.979299 142.888301 
L 349.780893 141.846665 
L 350.382088 141.586256 
L 351.183682 140.023802 
L 350.983283 138.461348 
L 351.584479 137.680121 
L 351.584479 136.898893 
L 352.586471 136.898893 
L 352.987267 136.378075 
L 352.586471 135.336439 
L 353.187666 134.555212 
L 352.987267 134.034394 
L 352.386072 133.253167 
L 351.38408 131.430304 
L 351.38408 130.909485 
L 350.782885 130.388667 
L 350.382088 129.347031 
L 347.776909 125.961714 
L 347.776909 125.961714 
L 348.378104 126.222123 
L 349.580494 127.524168 
L 350.782885 128.565804 
L 352.386072 129.60744 
L 354.991252 132.211531 
L 354.991252 132.211531 
" clip-path="url(#p487a82f0d5)" style="fill: none; stroke: #ffd700; stroke-width: 1.5; stroke-linecap: square"/>
   </g>
   <g id="line2d_21">
    <path d="M 207.898813 141.586256 
" clip-path="url(#p487a82f0d5)" style="fill: none; stroke: #ffd700; stroke-width: 1.5; stroke-linecap: square"/>
    <defs>
     <path id="m4588cba0e7" d="M 0 5 
C 1.326016 5 2.597899 4.473168 3.535534 3.535534 
C 4.473168 2.597899 5 1.326016 5 0 
C 5 -1.326016 4.473168 -2.597899 3.535534 -3.535534 
C 2.597899 -4.473168 1.326016 -5 0 -5 
C -1.326016 -5 -2.597899 -4.473168 -3.535534 -3.535534 
C -4.473168 -2.597899 -5 -1.326016 -5 0 
C -5 1.326016 -4.473168 2.597899 -3.535534 3.535534 
C -2.597899 4.473168 -1.326016 5 0 5 
z
" style="stroke: #ffd700"/>
    </defs>
    <g clip-path="url(#p487a82f0d5)">
     <use xlink:href="#m4588cba0e7" x="207.898813" y="141.586256" style="fill: #ffd700; stroke: #ffd700"/>
    </g>
   </g>
   <g id="line2d_22">
    <path d="M 354.991252 132.211531 
" clip-path="url(#p487a82f0d5)" style="fill: none; stroke: #ffd700; stroke-width: 1.5; stroke-linecap: square"/>
    <defs>
     <path id="m6ddc106986" d="M -5 5 
L 5 5 
L 5 -5 
L -5 -5 
z
" style="stroke: #ffd700; stroke-linejoin: miter"/>
    </defs>
    <g clip-path="url(#p487a82f0d5)">
     <use xlink:href="#m6ddc106986" x="354.991252" y="132.211531" style="fill: #ffd700; stroke: #ffd700; stroke-linejoin: miter"/>
    </g>
   </g>
   <g id="line2d_23">
    <path d="M 234.151006 145.492392 
L 234.551803 145.492392 
L 234.551803 145.231983 
L 234.351404 144.971574 
L 234.351404 144.450756 
L 234.151006 144.190347 
L 234.151006 143.929938 
L 234.151006 143.929938 
L 233.549811 143.14871 
L 233.549811 142.107074 
L 233.750209 142.107074 
L 233.750209 141.846665 
L 233.750209 141.846665 
L 233.549811 141.846665 
L 233.750209 142.107074 
L 234.151006 143.14871 
L 235.553795 144.971574 
L 238.359373 148.096482 
L 241.16495 151.742209 
L 243.569731 154.606708 
L 246.174911 157.471208 
L 264.01037 179.085158 
L 265.012362 180.647612 
L 267.016346 183.512112 
L 271.62551 189.50152 
L 276.63547 194.97011 
L 278.839853 197.834609 
L 281.044236 200.178291 
L 283.248618 203.04279 
L 288.458977 208.771789 
L 294.070133 214.240379 
L 297.076109 217.104878 
L 303.088062 222.05265 
L 306.294436 224.656741 
L 309.701209 227.260831 
L 313.308381 229.864921 
L 319.72113 233.510648 
L 322.727106 235.073102 
L 325.933481 236.895966 
L 328.939457 237.937602 
L 330.542645 238.718829 
L 336.554597 241.06251 
L 343.167745 244.447828 
L 346.173721 246.270691 
L 349.580494 247.572736 
L 353.187666 249.3956 
L 356.594439 250.697645 
L 359.400017 251.478872 
L 367.616352 254.60378 
L 370.021133 254.864189 
L 373.027109 256.426644 
L 374.830695 256.426644 
L 376.834679 256.947462 
L 378.437867 256.947462 
L 379.840655 256.687053 
L 381.644241 257.46828 
L 382.245436 256.687053 
L 382.846632 256.166235 
L 383.04703 255.124598 
L 383.648225 254.082962 
L 383.648225 253.562144 
L 383.247429 251.99969 
L 382.045038 250.176827 
L 381.443843 248.614372 
L 380.241452 246.791509 
L 376.433882 241.843737 
L 374.630297 238.979238 
L 370.42193 233.510648 
L 368.017149 230.646149 
L 366.413961 228.302467 
L 363.407985 224.91715 
L 361.003204 222.573468 
L 353.187666 213.719561 
L 352.185674 212.938334 
L 350.582486 210.855061 
L 349.380096 209.032198 
L 348.979299 207.990562 
L 347.977307 206.428108 
L 346.574518 203.824017 
L 346.975315 202.782381 
L 346.975315 201.740745 
L 347.57651 201.219927 
L 348.578502 199.917882 
L 349.380096 199.657473 
L 349.780893 197.834609 
L 350.782885 197.5742 
L 350.983283 197.313791 
L 350.983283 195.751337 
L 351.183682 194.709701 
L 351.584479 193.928474 
L 351.985275 193.407656 
L 352.586471 192.886837 
L 353.388064 193.147247 
L 353.98926 193.147247 
L 354.189658 192.886837 
L 355.792845 192.886837 
L 356.594439 193.407656 
L 357.596431 193.407656 
L 358.598423 193.928474 
L 359.199618 193.928474 
L 359.800814 194.188883 
L 361.404001 195.490928 
L 361.804798 195.751337 
L 362.405993 196.532564 
L 362.405993 196.532564 
" clip-path="url(#p487a82f0d5)" style="fill: none; stroke: #800080; stroke-width: 1.5; stroke-linecap: square"/>
   </g>
   <g id="line2d_24">
    <path d="M 234.151006 145.492392 
" clip-path="url(#p487a82f0d5)" style="fill: none; stroke: #800080; stroke-width: 1.5; stroke-linecap: square"/>
    <defs>
     <path id="m32420363f0" d="M 0 5 
C 1.326016 5 2.597899 4.473168 3.535534 3.535534 
C 4.473168 2.597899 5 1.326016 5 0 
C 5 -1.326016 4.473168 -2.597899 3.535534 -3.535534 
C 2.597899 -4.473168 1.326016 -5 0 -5 
C -1.326016 -5 -2.597899 -4.473168 -3.535534 -3.535534 
C -4.473168 -2.597899 -5 -1.326016 -5 0 
C -5 1.326016 -4.473168 2.597899 -3.535534 3.535534 
C -2.597899 4.473168 -1.326016 5 0 5 
z
" style="stroke: #800080"/>
    </defs>
    <g clip-path="url(#p487a82f0d5)">
     <use xlink:href="#m32420363f0" x="234.151006" y="145.492392" style="fill: #800080; stroke: #800080"/>
    </g>
   </g>
   <g id="line2d_25">
    <path d="M 362.405993 196.532564 
" clip-path="url(#p487a82f0d5)" style="fill: none; stroke: #800080; stroke-width: 1.5; stroke-linecap: square"/>
    <defs>
     <path id="ma35c791530" d="M -5 5 
L 5 5 
L 5 -5 
L -5 -5 
z
" style="stroke: #800080; stroke-linejoin: miter"/>
    </defs>
    <g clip-path="url(#p487a82f0d5)">
     <use xlink:href="#ma35c791530" x="362.405993" y="196.532564" style="fill: #800080; stroke: #800080; stroke-linejoin: miter"/>
    </g>
   </g>
   <g id="line2d_26">
    <path d="M 272.8279 134.294803 
L 271.024315 134.034394 
L 269.421127 133.513576 
L 268.018338 133.513576 
L 266.815948 133.773985 
L 266.214753 133.773985 
L 265.012362 134.555212 
L 263.809972 135.07603 
L 262.006386 135.336439 
L 260.803995 135.857257 
L 259.601605 136.378075 
L 258.399214 136.898893 
L 257.196824 137.419712 
L 255.994433 138.721757 
L 255.19284 140.023802 
L 254.591644 141.065438 
L 254.591644 142.888301 
L 254.190848 144.971574 
L 253.589652 146.794437 
L 253.389254 149.398527 
L 252.387262 150.960982 
L 251.786067 153.044254 
L 250.182879 154.08589 
L 248.579692 155.127526 
L 246.375309 155.648344 
L 243.970528 155.648344 
L 241.365349 155.908753 
L 238.359373 155.648344 
L 235.152998 155.127526 
L 231.746225 154.346299 
L 227.938655 153.044254 
L 224.531882 152.002618 
L 221.125109 150.960982 
L 218.319531 149.919346 
L 215.113156 148.6173 
L 212.507977 147.315255 
L 209.902797 146.01321 
L 207.698415 145.231983 
L 205.293634 144.190347 
L 203.089251 142.888301 
L 202.287657 142.367483 
L 199.081283 140.54462 
L 198.079291 140.023802 
L 196.275705 138.982166 
L 195.67451 138.721757 
L 192.468135 136.898893 
L 190.864948 135.596848 
L 188.860963 134.034394 
L 187.057378 132.732349 
L 185.253792 131.169895 
L 183.851003 130.128258 
L 182.448214 129.347031 
L 181.245824 129.086622 
L 180.243832 128.565804 
L 179.041441 127.263759 
L 177.638652 126.482532 
L 176.63666 125.701305 
L 175.634668 125.180487 
L 174.632676 124.659668 
L 174.031481 124.399259 
L 172.82909 123.357623 
L 171.6267 122.836805 
L 170.825106 122.315987 
L 169.422317 121.274351 
L 168.219926 120.493124 
L 166.616739 119.191079 
L 164.612755 117.368215 
L 162.007576 115.024534 
L 158.200006 111.639216 
L 156.997615 110.337171 
L 154.592834 108.514308 
L 152.388452 106.691445 
L 149.98367 104.608172 
L 147.578889 103.045718 
L 145.174108 101.222855 
L 143.370523 100.181219 
L 141.566937 99.6604 
L 139.763351 99.139582 
L 138.160164 98.879173 
L 136.556977 98.879173 
L 134.953789 99.139582 
L 133.551 99.139582 
L 131.947813 99.399991 
L 130.545024 100.181219 
L 129.342633 100.962446 
L 128.340641 101.743673 
L 127.338649 103.306127 
L 126.737454 105.12899 
L 125.735462 106.691445 
L 125.535064 108.514308 
L 125.334665 110.59758 
L 125.334665 112.941262 
L 125.735462 115.545352 
L 126.336657 117.889033 
L 127.338649 121.013942 
L 128.340641 124.399259 
L 129.342633 127.524168 
L 130.545024 131.169895 
L 131.346618 134.555212 
L 132.34861 137.94053 
L 133.150203 141.065438 
L 133.551 144.190347 
L 133.951797 147.054846 
L 134.152196 149.658936 
L 134.352594 152.523436 
L 134.352594 155.127526 
L 134.352594 157.731617 
L 134.552992 159.814889 
L 134.152196 162.158571 
L 134.152196 164.502252 
L 133.951797 166.585524 
L 133.551 168.147978 
L 132.949805 169.970842 
L 132.148211 171.272887 
" clip-path="url(#p487a82f0d5)" style="fill: none; stroke: #87cefa; stroke-width: 1.5; stroke-linecap: square"/>
   </g>
   <g id="line2d_27">
    <path d="M 272.8279 134.294803 
" clip-path="url(#p487a82f0d5)" style="fill: none; stroke: #87cefa; stroke-width: 1.5; stroke-linecap: square"/>
    <defs>
     <path id="m002114aeea" d="M 0 5 
C 1.326016 5 2.597899 4.473168 3.535534 3.535534 
C 4.473168 2.597899 5 1.326016 5 0 
C 5 -1.326016 4.473168 -2.597899 3.535534 -3.535534 
C 2.597899 -4.473168 1.326016 -5 0 -5 
C -1.326016 -5 -2.597899 -4.473168 -3.535534 -3.535534 
C -4.473168 -2.597899 -5 -1.326016 -5 0 
C -5 1.326016 -4.473168 2.597899 -3.535534 3.535534 
C -2.597899 4.473168 -1.326016 5 0 5 
z
" style="stroke: #87cefa"/>
    </defs>
    <g clip-path="url(#p487a82f0d5)">
     <use xlink:href="#m002114aeea" x="272.8279" y="134.294803" style="fill: #87cefa; stroke: #87cefa"/>
    </g>
   </g>
   <g id="line2d_28">
    <path d="M 132.148211 171.272887 
" clip-path="url(#p487a82f0d5)" style="fill: none; stroke: #87cefa; stroke-width: 1.5; stroke-linecap: square"/>
    <defs>
     <path id="m35a1fb98e9" d="M -5 5 
L 5 5 
L 5 -5 
L -5 -5 
z
" style="stroke: #87cefa; stroke-linejoin: miter"/>
    </defs>
    <g clip-path="url(#p487a82f0d5)">
     <use xlink:href="#m35a1fb98e9" x="132.148211" y="171.272887" style="fill: #87cefa; stroke: #87cefa; stroke-linejoin: miter"/>
    </g>
   </g>
   <g id="line2d_29">
    <path d="M 200.884869 199.136654 
L 201.085267 200.178291 
L 201.085267 200.959518 
L 200.884869 201.219927 
L 200.68447 201.740745 
L 200.484072 202.001154 
L 200.283673 202.261563 
L 200.083275 202.521972 
L 200.083275 202.782381 
L 199.882876 202.782381 
L 200.083275 203.04279 
L 200.283673 203.303199 
L 200.884869 203.824017 
L 201.285665 204.344835 
L 201.886861 204.865653 
L 202.287657 205.126062 
L 202.688454 205.386471 
L 203.089251 205.386471 
L 203.490048 205.646881 
L 203.890845 205.90729 
L 204.291642 205.90729 
L 204.692438 206.167699 
L 204.892837 206.428108 
L 205.093235 206.167699 
L 205.093235 206.167699 
L 204.892837 205.386471 
L 204.692438 204.605244 
L 204.091243 203.303199 
L 203.28965 201.480336 
L 202.287657 199.397064 
L 201.085267 197.053382 
L 200.083275 194.709701 
L 199.281681 192.10561 
L 198.480088 189.241111 
L 197.878892 186.116202 
L 197.478095 182.991294 
L 197.077299 179.866385 
L 196.676502 176.481068 
L 196.8769 173.356159 
L 197.077299 170.231251 
L 197.678494 167.366751 
L 197.878892 163.721025 
L 198.279689 160.596116 
L 198.480088 157.471208 
L 198.279689 154.08589 
L 198.079291 150.700573 
L 197.478095 147.054846 
L 196.275705 143.14871 
L 195.073314 139.242575 
L 193.870924 135.857257 
L 192.067338 132.211531 
L 190.464151 128.826213 
L 188.460167 125.180487 
L 186.656581 122.315987 
L 184.452198 118.93067 
L 182.247816 116.326579 
L 179.843035 113.722489 
L 177.638652 111.378807 
L 175.43427 108.774717 
L 173.029489 106.431036 
L 170.624707 103.826945 
L 168.019528 101.222855 
L 165.414349 98.618764 
L 162.608771 96.275083 
L 159.602795 93.931402 
L 156.797217 91.066902 
L 153.991639 88.98363 
L 150.985663 86.379539 
L 148.380483 84.035858 
L 145.574905 81.952586 
L 142.769327 79.608904 
L 139.763351 77.265223 
L 137.158172 75.18195 
L 134.352594 73.098678 
L 131.547016 71.015406 
L 128.741438 69.192543 
L 126.136259 67.369679 
L 123.531079 65.546816 
L 121.326697 63.984362 
L 119.122314 62.421907 
L 116.917932 60.859453 
L 115.314744 59.296999 
L 113.711557 58.255363 
L 112.308768 57.213727 
L 111.106377 56.17209 
L 109.903987 55.390863 
L 109.102393 54.609636 
L 108.3008 54.088818 
L 107.499206 53.568 
L 106.898011 53.568 
L 106.497214 53.568 
L 106.096417 53.568 
L 105.495222 53.828409 
L 105.094425 54.349227 
L 104.49323 55.130454 
L 104.292831 55.651272 
L 103.691636 56.692909 
L 102.890042 57.474136 
L 102.489246 58.776181 
L 101.687652 60.338635 
L 101.487253 61.901089 
L 101.086457 63.723953 
L 100.68566 65.546816 
L 100.485261 67.369679 
L 100.084465 69.452952 
L 99.683668 71.536224 
L 99.282871 73.619496 
L 98.681676 75.702769 
L 98.280879 78.04645 
L 97.679684 79.869313 
" clip-path="url(#p487a82f0d5)" style="fill: none; stroke: #ffa500; stroke-width: 1.5; stroke-linecap: square"/>
   </g>
   <g id="line2d_30">
    <path d="M 200.884869 199.136654 
" clip-path="url(#p487a82f0d5)" style="fill: none; stroke: #ffa500; stroke-width: 1.5; stroke-linecap: square"/>
    <defs>
     <path id="m45a02e8113" d="M 0 5 
C 1.326016 5 2.597899 4.473168 3.535534 3.535534 
C 4.473168 2.597899 5 1.326016 5 0 
C 5 -1.326016 4.473168 -2.597899 3.535534 -3.535534 
C 2.597899 -4.473168 1.326016 -5 0 -5 
C -1.326016 -5 -2.597899 -4.473168 -3.535534 -3.535534 
C -4.473168 -2.597899 -5 -1.326016 -5 0 
C -5 1.326016 -4.473168 2.597899 -3.535534 3.535534 
C -2.597899 4.473168 -1.326016 5 0 5 
z
" style="stroke: #ffa500"/>
    </defs>
    <g clip-path="url(#p487a82f0d5)">
     <use xlink:href="#m45a02e8113" x="200.884869" y="199.136654" style="fill: #ffa500; stroke: #ffa500"/>
    </g>
   </g>
   <g id="line2d_31">
    <path d="M 97.679684 79.869313 
" clip-path="url(#p487a82f0d5)" style="fill: none; stroke: #ffa500; stroke-width: 1.5; stroke-linecap: square"/>
    <defs>
     <path id="me0542a8190" d="M -5 5 
L 5 5 
L 5 -5 
L -5 -5 
z
" style="stroke: #ffa500; stroke-linejoin: miter"/>
    </defs>
    <g clip-path="url(#p487a82f0d5)">
     <use xlink:href="#me0542a8190" x="97.679684" y="79.869313" style="fill: #ffa500; stroke: #ffa500; stroke-linejoin: miter"/>
    </g>
   </g>
   <g id="line2d_32">
    <path d="M 263.609573 180.908022 
L 263.208776 180.908022 
L 262.607581 180.647612 
L 262.006386 180.126794 
L 259.802003 177.262295 
L 258.599613 176.220659 
L 257.998418 175.439432 
L 257.397222 174.918614 
L 256.595629 174.397795 
L 256.194832 173.876977 
L 254.591644 172.835341 
L 253.990449 172.054114 
L 253.188856 171.533296 
L 252.186863 170.49166 
L 248.980489 167.887569 
L 246.976505 166.064706 
L 244.571724 164.241843 
L 241.766146 161.898161 
L 238.960568 159.814889 
L 235.754193 157.210799 
L 232.147022 154.08589 
L 228.53985 151.4818 
L 224.531882 148.096482 
L 216.515945 142.367483 
L 208.500008 136.117666 
L 204.091243 132.992758 
L 199.281681 129.347031 
L 195.474111 126.222123 
L 191.666541 123.357623 
L 187.858971 120.753533 
L 184.452198 118.149442 
L 178.039449 112.941262 
L 175.033473 110.857989 
L 172.428293 108.514308 
L 167.418333 104.608172 
L 163.009568 100.441628 
L 160.604787 98.358355 
L 154.993631 92.629356 
L 153.390444 90.285675 
L 150.184069 86.639948 
L 148.78128 84.817085 
L 145.174108 81.431767 
L 144.172116 80.129722 
L 143.370523 79.608904 
L 142.368531 78.567268 
L 140.765343 78.04645 
L 140.164148 78.04645 
L 139.362554 77.786041 
L 138.761359 78.04645 
L 136.556977 78.567268 
L 134.753391 78.567268 
L 133.751399 79.088086 
L 132.549008 79.088086 
L 131.346618 79.348495 
L 129.943829 79.348495 
L 128.941837 79.608904 
L 127.739446 79.608904 
L 126.937852 80.129722 
L 125.735462 80.390131 
L 124.132275 81.952586 
L 123.130283 82.473404 
L 122.328689 83.51504 
L 121.727494 84.817085 
L 120.9259 85.858721 
L 118.921916 90.806493 
L 118.521119 91.58772 
L 118.120322 92.629356 
L 117.318728 93.670992 
L 116.116338 94.712629 
L 115.515143 94.973038 
L 113.110362 94.973038 
L 111.306776 93.931402 
L 109.50319 93.410583 
L 107.499206 93.410583 
L 106.296815 93.670992 
L 105.094425 93.410583 
L 104.092433 93.410583 
L 101.88805 93.931402 
L 101.086457 93.931402 
L 100.084465 94.45222 
L 98.681676 95.754265 
L 97.078488 97.837537 
L 95.274902 99.6604 
L 94.673707 100.702037 
L 93.671715 101.483264 
L 92.469325 103.045718 
L 90.665739 105.910217 
L 90.264942 107.472672 
L 89.864145 108.514308 
L 89.663747 110.337171 
L 89.663747 115.024534 
L 89.864145 116.847397 
L 91.066536 122.055578 
L 91.868129 125.440896 
L 92.870121 128.565804 
L 93.07052 129.60744 
L 93.671715 130.649076 
L 94.673707 132.732349 
L 95.675699 134.034394 
L 96.076496 134.815621 
L 97.278887 135.857257 
L 98.280879 137.159302 
L 98.280879 137.159302 
" clip-path="url(#p487a82f0d5)" style="fill: none; stroke: #ff69b4; stroke-width: 1.5; stroke-linecap: square"/>
   </g>
   <g id="line2d_33">
    <path d="M 263.609573 180.908022 
" clip-path="url(#p487a82f0d5)" style="fill: none; stroke: #ff69b4; stroke-width: 1.5; stroke-linecap: square"/>
    <defs>
     <path id="m0fb66ea795" d="M 0 5 
C 1.326016 5 2.597899 4.473168 3.535534 3.535534 
C 4.473168 2.597899 5 1.326016 5 0 
C 5 -1.326016 4.473168 -2.597899 3.535534 -3.535534 
C 2.597899 -4.473168 1.326016 -5 0 -5 
C -1.326016 -5 -2.597899 -4.473168 -3.535534 -3.535534 
C -4.473168 -2.597899 -5 -1.326016 -5 0 
C -5 1.326016 -4.473168 2.597899 -3.535534 3.535534 
C -2.597899 4.473168 -1.326016 5 0 5 
z
" style="stroke: #ff69b4"/>
    </defs>
    <g clip-path="url(#p487a82f0d5)">
     <use xlink:href="#m0fb66ea795" x="263.609573" y="180.908022" style="fill: #ff69b4; stroke: #ff69b4"/>
    </g>
   </g>
   <g id="line2d_34">
    <path d="M 98.280879 137.159302 
" clip-path="url(#p487a82f0d5)" style="fill: none; stroke: #ff69b4; stroke-width: 1.5; stroke-linecap: square"/>
    <defs>
     <path id="m7977f65000" d="M -5 5 
L 5 5 
L 5 -5 
L -5 -5 
z
" style="stroke: #ff69b4; stroke-linejoin: miter"/>
    </defs>
    <g clip-path="url(#p487a82f0d5)">
     <use xlink:href="#m7977f65000" x="98.280879" y="137.159302" style="fill: #ff69b4; stroke: #ff69b4; stroke-linejoin: miter"/>
    </g>
   </g>
   <g id="line2d_35">
    <path d="M 237.958576 110.857989 
L 237.557779 110.857989 
L 236.956584 110.59758 
L 236.15499 110.59758 
L 235.954592 110.337171 
L 235.152998 110.337171 
L 235.152998 110.337171 
L 234.9526 110.59758 
L 235.152998 110.857989 
L 234.752201 111.378807 
L 234.752201 111.378807 
L 234.752201 111.639216 
L 234.9526 111.639216 
L 234.9526 111.899625 
L 234.9526 111.899625 
L 234.551803 112.420443 
L 233.950607 112.941262 
L 234.151006 113.201671 
L 233.750209 113.46208 
L 233.349412 114.764125 
L 232.948615 115.284943 
L 232.147022 118.93067 
L 232.147022 123.878441 
L 231.746225 127.263759 
L 231.345428 130.649076 
L 231.345428 135.596848 
L 230.944631 138.721757 
L 230.944631 141.846665 
L 230.543834 144.450756 
L 230.944631 148.356891 
L 230.543834 155.127526 
L 230.543834 162.939798 
L 229.942639 168.408388 
L 229.341444 177.783113 
L 229.341444 181.689249 
L 229.141045 183.512112 
L 229.141045 188.980702 
L 228.53985 191.845201 
L 228.740249 196.792973 
L 228.940647 201.480336 
L 228.740249 202.782381 
L 228.740249 205.126062 
L 229.141045 207.730153 
L 229.742241 212.417516 
L 230.143038 215.282015 
L 230.543834 217.104878 
L 232.147022 221.271423 
L 233.750209 223.354695 
L 234.351404 223.615104 
L 235.353396 224.656741 
L 237.958576 226.479604 
L 239.160966 226.740013 
L 240.764154 227.260831 
L 245.573716 229.604512 
L 246.976505 230.12533 
L 252.387262 233.510648 
L 256.595629 236.114738 
L 259.401206 238.198011 
L 262.407183 240.020874 
L 263.809972 241.06251 
L 273.228697 247.312327 
L 276.234674 249.3956 
L 277.236666 249.916418 
L 279.040251 251.478872 
L 280.44304 252.520508 
L 283.248618 254.864189 
L 286.85579 257.728689 
L 288.258579 258.509916 
L 288.659375 258.509916 
L 288.659375 258.249507 
L 289.260571 258.249507 
L 289.060172 257.46828 
L 289.260571 257.207871 
L 289.260571 256.947462 
L 289.060172 256.426644 
L 289.260571 256.166235 
L 289.060172 255.905826 
L 289.260571 255.905826 
L 289.060172 255.124598 
L 288.859774 255.124598 
L 288.859774 254.864189 
L 289.260571 254.864189 
L 288.859774 253.562144 
L 288.258579 252.780917 
L 288.458977 251.739281 
L 288.05818 250.958054 
L 287.657383 249.3956 
L 287.456985 248.093554 
L 287.056188 247.051918 
L 287.456985 246.010282 
L 287.456985 245.489464 
L 287.256587 244.708237 
L 288.458977 243.666601 
L 288.659375 243.145783 
L 288.859774 243.145783 
L 289.060172 242.364555 
L 290.262563 242.885374 
L 289.861766 242.624964 
L 291.264555 242.885374 
L 291.264555 242.104146 
L 291.464953 241.843737 
L 291.264555 241.06251 
L 291.264555 241.06251 
" clip-path="url(#p487a82f0d5)" style="fill: none; stroke: #00ffff; stroke-width: 1.5; stroke-linecap: square"/>
   </g>
   <g id="line2d_36">
    <path d="M 237.958576 110.857989 
" clip-path="url(#p487a82f0d5)" style="fill: none; stroke: #00ffff; stroke-width: 1.5; stroke-linecap: square"/>
    <defs>
     <path id="me2fbf29007" d="M 0 5 
C 1.326016 5 2.597899 4.473168 3.535534 3.535534 
C 4.473168 2.597899 5 1.326016 5 0 
C 5 -1.326016 4.473168 -2.597899 3.535534 -3.535534 
C 2.597899 -4.473168 1.326016 -5 0 -5 
C -1.326016 -5 -2.597899 -4.473168 -3.535534 -3.535534 
C -4.473168 -2.597899 -5 -1.326016 -5 0 
C -5 1.326016 -4.473168 2.597899 -3.535534 3.535534 
C -2.597899 4.473168 -1.326016 5 0 5 
z
" style="stroke: #00ffff"/>
    </defs>
    <g clip-path="url(#p487a82f0d5)">
     <use xlink:href="#me2fbf29007" x="237.958576" y="110.857989" style="fill: #00ffff; stroke: #00ffff"/>
    </g>
   </g>
   <g id="line2d_37">
    <path d="M 291.264555 241.06251 
" clip-path="url(#p487a82f0d5)" style="fill: none; stroke: #00ffff; stroke-width: 1.5; stroke-linecap: square"/>
    <defs>
     <path id="m78d900f452" d="M -5 5 
L 5 5 
L 5 -5 
L -5 -5 
z
" style="stroke: #00ffff; stroke-linejoin: miter"/>
    </defs>
    <g clip-path="url(#p487a82f0d5)">
     <use xlink:href="#m78d900f452" x="291.264555" y="241.06251" style="fill: #00ffff; stroke: #00ffff; stroke-linejoin: miter"/>
    </g>
   </g>
   <g id="line2d_38">
    <path d="M 251.986465 168.668797 
L 251.38527 168.408388 
L 250.784075 167.62716 
L 249.982481 167.366751 
L 249.180887 166.845933 
L 248.178895 166.325115 
L 247.176903 165.804297 
L 246.174911 165.543888 
L 245.172919 165.02307 
L 244.170927 164.502252 
L 243.168935 163.981434 
L 242.367341 163.460616 
L 241.565747 162.939798 
L 240.764154 162.41898 
L 239.96256 161.898161 
L 239.160966 161.637752 
L 238.359373 161.377343 
L 236.956584 160.856525 
L 235.954592 160.075298 
L 234.351404 159.294071 
L 232.547819 158.252435 
L 230.543834 156.95039 
L 228.53985 156.169163 
L 226.535866 155.127526 
L 224.331483 154.08589 
L 221.926702 152.783845 
L 219.321523 151.4818 
L 216.916742 149.919346 
L 214.511961 148.356891 
L 212.10718 146.794437 
L 209.902797 145.231983 
L 207.498016 143.669529 
L 205.494032 142.107074 
L 203.490048 140.54462 
L 201.686462 139.242575 
L 200.283673 138.200939 
L 198.680486 137.159302 
L 197.878892 136.638484 
L 197.077299 135.857257 
L 196.275705 135.336439 
L 195.474111 134.815621 
L 194.672518 134.034394 
L 194.271721 133.773985 
L 193.870924 133.513576 
L 193.269729 132.992758 
L 192.468135 132.211531 
L 191.86694 131.430304 
L 191.265745 130.649076 
L 190.864948 130.128258 
L 190.063354 129.60744 
L 189.462159 129.086622 
L 188.860963 128.826213 
L 188.460167 128.565804 
L 188.05937 128.305395 
L 187.458175 128.044986 
L 187.257776 127.784577 
L 187.057378 127.784577 
L 186.656581 127.524168 
L 186.255784 127.263759 
L 186.055386 127.263759 
L 185.654589 126.742941 
L 185.053394 126.482532 
L 184.2518 125.961714 
L 183.249808 125.440896 
L 182.247816 124.659668 
L 181.045425 124.13885 
L 179.843035 123.357623 
L 178.640644 122.576396 
L 177.438254 121.53476 
L 176.436262 120.753533 
L 175.43427 120.493124 
L 174.231879 119.711897 
L 173.229887 119.191079 
L 172.027496 118.67026 
L 171.025504 118.149442 
L 170.023512 117.628624 
L 169.221919 116.847397 
L 168.219926 116.326579 
L 167.418333 115.805761 
L 167.017536 115.545352 
L 165.815145 114.764125 
L 164.813153 114.243307 
L 164.01156 113.46208 
L 163.209966 113.201671 
L 162.608771 112.941262 
" clip-path="url(#p487a82f0d5)" style="fill: none; stroke: #8a2be2; stroke-width: 1.5; stroke-linecap: square"/>
   </g>
   <g id="line2d_39">
    <path d="M 251.986465 168.668797 
" clip-path="url(#p487a82f0d5)" style="fill: none; stroke: #8a2be2; stroke-width: 1.5; stroke-linecap: square"/>
    <defs>
     <path id="me8f0244775" d="M 0 5 
C 1.326016 5 2.597899 4.473168 3.535534 3.535534 
C 4.473168 2.597899 5 1.326016 5 0 
C 5 -1.326016 4.473168 -2.597899 3.535534 -3.535534 
C 2.597899 -4.473168 1.326016 -5 0 -5 
C -1.326016 -5 -2.597899 -4.473168 -3.535534 -3.535534 
C -4.473168 -2.597899 -5 -1.326016 -5 0 
C -5 1.326016 -4.473168 2.597899 -3.535534 3.535534 
C -2.597899 4.473168 -1.326016 5 0 5 
z
" style="stroke: #8a2be2"/>
    </defs>
    <g clip-path="url(#p487a82f0d5)">
     <use xlink:href="#me8f0244775" x="251.986465" y="168.668797" style="fill: #8a2be2; stroke: #8a2be2"/>
    </g>
   </g>
   <g id="line2d_40">
    <path d="M 162.608771 112.941262 
" clip-path="url(#p487a82f0d5)" style="fill: none; stroke: #8a2be2; stroke-width: 1.5; stroke-linecap: square"/>
    <defs>
     <path id="md4d8b87d84" d="M -5 5 
L 5 5 
L 5 -5 
L -5 -5 
z
" style="stroke: #8a2be2; stroke-linejoin: miter"/>
    </defs>
    <g clip-path="url(#p487a82f0d5)">
     <use xlink:href="#md4d8b87d84" x="162.608771" y="112.941262" style="fill: #8a2be2; stroke: #8a2be2; stroke-linejoin: miter"/>
    </g>
   </g>
   <g id="line2d_41">
    <path d="M 211.906782 170.231251 
L 212.307578 170.49166 
L 212.307578 170.752069 
L 212.708375 170.752069 
L 213.710367 171.533296 
L 213.710367 171.793705 
L 216.115148 174.918614 
L 216.716344 175.179023 
L 217.517937 175.179023 
L 218.119132 175.439432 
L 218.519929 175.439432 
L 219.121125 175.699841 
L 219.72232 176.481068 
L 219.72232 176.741477 
L 219.321523 177.001886 
L 218.720328 177.001886 
L 217.718336 176.741477 
L 214.111164 175.179023 
L 210.303594 173.09575 
L 209.301602 172.835341 
L 208.29961 172.314523 
L 204.291642 171.012478 
L 201.285665 170.49166 
L 199.081283 170.231251 
L 194.872916 170.231251 
L 193.06933 170.49166 
L 189.26176 171.533296 
L 187.257776 172.574932 
L 185.45419 173.356159 
L 183.450206 174.918614 
L 181.847019 176.481068 
L 180.243832 177.783113 
L 179.241839 180.908022 
L 178.239847 182.991294 
L 177.839051 186.376611 
L 177.638652 189.50152 
L 177.237855 192.886837 
L 177.438254 194.449292 
L 177.438254 204.084426 
L 177.638652 207.469744 
L 178.239847 210.594652 
L 178.440246 213.97997 
L 178.841043 217.104878 
L 179.041441 219.708969 
L 179.442238 222.313059 
L 179.642636 224.656741 
L 179.642636 226.740013 
L 179.442238 228.302467 
L 179.442238 230.12533 
L 179.241839 231.948194 
L 178.640644 233.250239 
L 178.239847 234.552284 
L 177.638652 235.59392 
L 176.436262 237.937602 
L 175.634668 238.979238 
L 174.432277 239.239647 
L 173.029489 239.239647 
L 172.027496 238.979238 
L 170.825106 238.45842 
L 167.618731 237.416784 
L 165.815145 236.635557 
L 158.400404 232.729421 
L 156.596818 231.687785 
L 155.194029 231.166967 
L 153.79124 230.38574 
L 149.382475 228.562876 
L 148.180085 228.562876 
L 147.979686 228.823285 
L 148.580882 230.12533 
L 149.182077 230.646149 
L 149.582874 231.427376 
L 149.98367 231.948194 
L 150.785264 233.510648 
L 152.789248 235.333511 
L 153.390444 236.114738 
L 154.793233 237.416784 
L 155.194029 238.198011 
L 156.196021 238.718829 
L 157.198014 239.239647 
L 155.795225 238.45842 
L 150.985663 233.510648 
L 148.580882 231.687785 
L 146.176101 230.906558 
L 144.97371 230.38574 
L 143.77132 230.12533 
L 140.965742 229.344103 
L 139.562953 228.823285 
L 139.162156 228.823285 
L 139.162156 228.823285 
" clip-path="url(#p487a82f0d5)" style="fill: none; stroke: #ff00ff; stroke-width: 1.5; stroke-linecap: square"/>
   </g>
   <g id="line2d_42">
    <path d="M 211.906782 170.231251 
" clip-path="url(#p487a82f0d5)" style="fill: none; stroke: #ff00ff; stroke-width: 1.5; stroke-linecap: square"/>
    <defs>
     <path id="m6ff1a5a3f6" d="M 0 5 
C 1.326016 5 2.597899 4.473168 3.535534 3.535534 
C 4.473168 2.597899 5 1.326016 5 0 
C 5 -1.326016 4.473168 -2.597899 3.535534 -3.535534 
C 2.597899 -4.473168 1.326016 -5 0 -5 
C -1.326016 -5 -2.597899 -4.473168 -3.535534 -3.535534 
C -4.473168 -2.597899 -5 -1.326016 -5 0 
C -5 1.326016 -4.473168 2.597899 -3.535534 3.535534 
C -2.597899 4.473168 -1.326016 5 0 5 
z
" style="stroke: #ff00ff"/>
    </defs>
    <g clip-path="url(#p487a82f0d5)">
     <use xlink:href="#m6ff1a5a3f6" x="211.906782" y="170.231251" style="fill: #ff00ff; stroke: #ff00ff"/>
    </g>
   </g>
   <g id="line2d_43">
    <path d="M 139.162156 228.823285 
" clip-path="url(#p487a82f0d5)" style="fill: none; stroke: #ff00ff; stroke-width: 1.5; stroke-linecap: square"/>
    <defs>
     <path id="m6a0ef8a0a0" d="M -5 5 
L 5 5 
L 5 -5 
L -5 -5 
z
" style="stroke: #ff00ff; stroke-linejoin: miter"/>
    </defs>
    <g clip-path="url(#p487a82f0d5)">
     <use xlink:href="#m6a0ef8a0a0" x="139.162156" y="228.823285" style="fill: #ff00ff; stroke: #ff00ff; stroke-linejoin: miter"/>
    </g>
   </g>
   <g id="line2d_44">
    <path d="M 268.819932 182.210067 
L 268.018338 184.03293 
L 267.417143 185.334975 
L 266.815948 187.157839 
L 266.214753 188.720293 
L 265.613557 190.543156 
L 264.611565 192.10561 
L 263.809972 193.407656 
L 262.607581 194.97011 
L 261.605589 196.011746 
L 260.2028 197.053382 
L 258.800011 197.834609 
L 257.397222 198.615836 
L 255.593637 198.876245 
L 253.790051 198.876245 
L 251.786067 198.615836 
L 249.180887 198.095018 
L 246.375309 196.792973 
L 243.569731 195.230519 
L 240.363357 193.407656 
L 237.156982 191.584792 
L 233.950607 189.50152 
L 230.343436 187.418248 
L 226.535866 185.334975 
L 222.728296 183.251703 
L 218.720328 180.647612 
L 214.912758 178.303931 
L 210.904789 175.96025 
L 206.896821 173.616568 
L 202.688454 170.49166 
L 198.680486 167.366751 
L 194.672518 164.241843 
L 191.065346 161.116934 
L 187.257776 157.992026 
L 183.851003 154.606708 
L 180.845027 151.221391 
L 177.839051 147.575664 
L 175.033473 144.450756 
L 172.428293 141.065438 
L 170.424309 137.94053 
L 168.420325 135.07603 
L 166.817138 132.211531 
L 165.614747 129.867849 
L 164.813153 127.524168 
L 164.211958 125.701305 
L 163.811161 123.618032 
L 163.811161 122.315987 
L 163.410364 120.753533 
L 163.009568 119.191079 
L 163.009568 117.628624 
L 162.809169 116.326579 
L 163.009568 115.284943 
L 163.209966 114.243307 
L 163.410364 113.46208 
L 163.610763 112.680853 
L 163.811161 112.160034 
L 164.211958 111.639216 
L 164.211958 110.857989 
L 164.612755 110.337171 
L 164.813153 110.076762 
L 164.813153 109.555944 
L 164.813153 109.295535 
L 164.612755 108.774717 
L 164.612755 108.514308 
L 164.412357 108.253899 
L 164.211958 107.99349 
L 164.01156 107.472672 
L 163.410364 107.212263 
L 162.809169 106.691445 
L 162.207974 106.431036 
L 161.40638 105.910217 
L 160.604787 105.389399 
L 159.803193 104.868581 
L 159.001599 104.347763 
L 158.400404 103.826945 
L 157.59881 103.566536 
L 156.997615 103.045718 
L 156.39642 102.785309 
L 155.795225 102.5249 
L 155.394428 102.5249 
L 154.793233 102.264491 
L 154.192037 102.264491 
L 153.991639 102.004082 
L 153.991639 102.264491 
L 154.392436 102.5249 
L 154.392436 102.5249 
L 153.190045 101.743673 
L 152.789248 101.483264 
L 152.789248 101.483264 
L 152.789248 101.483264 
L 152.58885 101.483264 
L 152.58885 101.483264 
L 152.58885 101.483264 
L 152.58885 101.483264 
L 152.58885 101.483264 
L 152.58885 101.483264 
L 152.388452 101.743673 
L 152.388452 101.743673 
L 152.388452 101.743673 
L 152.58885 102.004082 
L 152.58885 102.004082 
L 152.58885 102.264491 
L 152.388452 102.264491 
L 152.388452 102.264491 
L 152.188053 102.264491 
L 151.987655 102.004082 
L 151.787256 102.004082 
L 151.586858 102.004082 
L 151.386459 101.743673 
L 151.186061 101.743673 
L 150.985663 101.743673 
" clip-path="url(#p487a82f0d5)" style="fill: none; stroke: #20b2aa; stroke-width: 1.5; stroke-linecap: square"/>
   </g>
   <g id="line2d_45">
    <path d="M 268.819932 182.210067 
" clip-path="url(#p487a82f0d5)" style="fill: none; stroke: #20b2aa; stroke-width: 1.5; stroke-linecap: square"/>
    <defs>
     <path id="m62d81afe40" d="M 0 5 
C 1.326016 5 2.597899 4.473168 3.535534 3.535534 
C 4.473168 2.597899 5 1.326016 5 0 
C 5 -1.326016 4.473168 -2.597899 3.535534 -3.535534 
C 2.597899 -4.473168 1.326016 -5 0 -5 
C -1.326016 -5 -2.597899 -4.473168 -3.535534 -3.535534 
C -4.473168 -2.597899 -5 -1.326016 -5 0 
C -5 1.326016 -4.473168 2.597899 -3.535534 3.535534 
C -2.597899 4.473168 -1.326016 5 0 5 
z
" style="stroke: #20b2aa"/>
    </defs>
    <g clip-path="url(#p487a82f0d5)">
     <use xlink:href="#m62d81afe40" x="268.819932" y="182.210067" style="fill: #20b2aa; stroke: #20b2aa"/>
    </g>
   </g>
   <g id="line2d_46">
    <path d="M 150.985663 101.743673 
" clip-path="url(#p487a82f0d5)" style="fill: none; stroke: #20b2aa; stroke-width: 1.5; stroke-linecap: square"/>
    <defs>
     <path id="m819c316f6c" d="M -5 5 
L 5 5 
L 5 -5 
L -5 -5 
z
" style="stroke: #20b2aa; stroke-linejoin: miter"/>
    </defs>
    <g clip-path="url(#p487a82f0d5)">
     <use xlink:href="#m819c316f6c" x="150.985663" y="101.743673" style="fill: #20b2aa; stroke: #20b2aa; stroke-linejoin: miter"/>
    </g>
   </g>
   <g id="line2d_47">
    <path d="M 238.359373 177.262295 
L 240.764154 178.043522 
L 241.565747 178.043522 
L 244.170927 179.866385 
L 246.174911 181.42884 
L 248.579692 183.772521 
L 249.180887 184.814157 
L 249.982481 185.595384 
L 251.38527 187.418248 
L 252.58766 188.199475 
L 253.389254 189.241111 
L 254.391246 190.282747 
L 264.811964 198.615836 
L 271.224713 203.04279 
L 274.230689 205.386471 
L 277.236666 207.469744 
L 280.242642 210.073834 
L 283.248618 212.417516 
L 286.454993 214.761197 
L 296.074117 222.313059 
L 299.681288 225.437968 
L 303.088062 228.562876 
L 306.494835 231.166967 
L 310.102006 234.291875 
L 311.905592 236.114738 
L 315.111967 238.979238 
L 318.318341 241.583328 
L 324.330294 246.010282 
L 327.737067 248.353963 
L 329.941449 250.437236 
L 337.957386 257.46828 
L 340.762964 260.07237 
L 343.969339 262.676461 
L 348.378104 266.582596 
L 353.588463 271.530368 
L 356.394041 273.61364 
L 360.802806 277.259367 
L 362.005196 278.561412 
L 364.610376 280.644685 
L 367.215555 282.467548 
L 369.820735 284.030002 
L 373.227508 285.852865 
L 376.834679 287.154911 
L 378.237468 288.196547 
L 382.646233 290.01941 
L 384.049022 290.279819 
L 386.253405 290.540228 
L 389.860576 292.363091 
L 391.86456 293.144319 
L 393.868545 293.665137 
L 397.475716 295.488 
L 398.27731 295.227591 
L 398.477708 294.967182 
L 399.078904 295.227591 
L 396.874521 290.279819 
L 396.072927 287.936138 
L 393.066951 284.030002 
L 391.263365 281.425912 
L 389.259381 278.301003 
L 386.453803 274.915686 
L 383.648225 271.00955 
L 380.441851 266.843005 
L 373.828703 258.770325 
L 370.221531 254.60378 
L 355.592447 236.375147 
L 349.380096 226.740013 
L 343.568542 217.365287 
L 340.963362 212.417516 
L 337.155792 205.90729 
L 335.753004 202.521972 
L 333.348223 197.053382 
L 333.147824 194.97011 
L 331.344238 190.282747 
L 331.544637 188.459884 
L 329.941449 183.251703 
L 330.141848 181.949658 
L 329.340254 179.085158 
L 329.139856 177.001886 
L 329.340254 176.220659 
L 328.739059 174.397795 
L 328.739059 172.835341 
L 328.338262 171.012478 
L 329.340254 169.710433 
L 329.340254 168.147978 
L 329.741051 167.366751 
L 331.344238 167.366751 
L 332.546629 167.62716 
L 333.348223 167.366751 
L 335.151808 167.887569 
L 336.754996 167.366751 
L 338.358183 167.62716 
L 344.370136 171.533296 
L 344.971331 171.533296 
L 344.770932 171.272887 
L 346.37412 172.835341 
L 347.175713 173.876977 
L 347.977307 174.658205 
L 348.778901 175.699841 
L 350.18169 177.001886 
L 351.784877 179.085158 
L 353.388064 180.908022 
L 356.594439 185.074566 
L 359.600415 188.459884 
L 360.802806 190.543156 
L 362.205595 192.366019 
L 362.005196 193.407656 
L 362.80679 194.188883 
L 366.013165 197.834609 
L 367.81675 199.657473 
L 371.223523 202.521972 
L 372.826711 203.824017 
L 374.630297 205.646881 
L 380.441851 210.594652 
L 381.443843 211.375879 
L 382.445835 211.896698 
L 385.852608 214.240379 
L 386.053006 213.97997 
L 386.654202 214.500788 
L 386.8546 214.761197 
L 387.455795 215.282015 
L 386.654202 214.500788 
L 385.852608 213.459152 
L 385.65221 213.459152 
L 385.451811 213.198743 
L 384.850616 212.157107 
L 384.249421 211.636288 
L 383.848624 211.11547 
L 381.644241 207.730153 
L 380.642249 205.90729 
L 377.836671 199.657473 
L 376.834679 196.792973 
L 375.632289 193.928474 
L 374.830695 191.584792 
L 374.429898 189.761929 
L 373.628304 187.418248 
L 373.227508 185.595384 
L 373.227508 183.772521 
L 373.628304 182.210067 
L 374.2295 181.42884 
L 375.031093 180.126794 
L 375.632289 180.126794 
L 379.23946 180.387203 
L 382.045038 180.908022 
L 382.045038 180.908022 
" clip-path="url(#p487a82f0d5)" style="fill: none; stroke: #a52a2a; stroke-width: 1.5; stroke-linecap: square"/>
   </g>
   <g id="line2d_48">
    <path d="M 238.359373 177.262295 
" clip-path="url(#p487a82f0d5)" style="fill: none; stroke: #a52a2a; stroke-width: 1.5; stroke-linecap: square"/>
    <defs>
     <path id="m34e1a156fd" d="M 0 5 
C 1.326016 5 2.597899 4.473168 3.535534 3.535534 
C 4.473168 2.597899 5 1.326016 5 0 
C 5 -1.326016 4.473168 -2.597899 3.535534 -3.535534 
C 2.597899 -4.473168 1.326016 -5 0 -5 
C -1.326016 -5 -2.597899 -4.473168 -3.535534 -3.535534 
C -4.473168 -2.597899 -5 -1.326016 -5 0 
C -5 1.326016 -4.473168 2.597899 -3.535534 3.535534 
C -2.597899 4.473168 -1.326016 5 0 5 
z
" style="stroke: #a52a2a"/>
    </defs>
    <g clip-path="url(#p487a82f0d5)">
     <use xlink:href="#m34e1a156fd" x="238.359373" y="177.262295" style="fill: #a52a2a; stroke: #a52a2a"/>
    </g>
   </g>
   <g id="line2d_49">
    <path d="M 382.045038 180.908022 
" clip-path="url(#p487a82f0d5)" style="fill: none; stroke: #a52a2a; stroke-width: 1.5; stroke-linecap: square"/>
    <defs>
     <path id="m2d5b8cd472" d="M -5 5 
L 5 5 
L 5 -5 
L -5 -5 
z
" style="stroke: #a52a2a; stroke-linejoin: miter"/>
    </defs>
    <g clip-path="url(#p487a82f0d5)">
     <use xlink:href="#m2d5b8cd472" x="382.045038" y="180.908022" style="fill: #a52a2a; stroke: #a52a2a; stroke-linejoin: miter"/>
    </g>
   </g>
   <g id="patch_3">
    <path d="M 57.6 307.584 
L 57.6 41.472 
" style="fill: none; stroke: #000000; stroke-width: 0.8; stroke-linejoin: miter; stroke-linecap: square"/>
   </g>
   <g id="patch_4">
    <path d="M 57.6 307.584 
L 414.72 307.584 
" style="fill: none; stroke: #000000; stroke-width: 0.8; stroke-linejoin: miter; stroke-linecap: square"/>
   </g>
   <g id="legend_1">
    <g id="patch_5">
     <path d="M 282.164531 119.523563 
L 404.22 119.523563 
Q 407.22 119.523563 407.22 116.523563 
L 407.22 51.972 
Q 407.22 48.972 404.22 48.972 
L 282.164531 48.972 
Q 279.164531 48.972 279.164531 51.972 
L 279.164531 116.523563 
Q 279.164531 119.523563 282.164531 119.523563 
z
" style="fill: #ffffff; opacity: 0.8; stroke: #cccccc; stroke-linejoin: miter"/>
    </g>
    <g id="line2d_50">
     <path d="M 285.164531 61.119656 
L 300.164531 61.119656 
L 315.164531 61.119656 
" style="fill: none; stroke: #000000; stroke-width: 1.5; stroke-linecap: square"/>
    </g>
    <g id="text_7">
     <!-- Trajectory -->
     <g transform="translate(327.164531 66.369656)scale(0.15 -0.15)">
      <defs>
       <path id="DejaVuSans-54" d="M -19 4666 
L 3928 4666 
L 3928 4134 
L 2272 4134 
L 2272 0 
L 1638 0 
L 1638 4134 
L -19 4134 
L -19 4666 
z
" transform="scale(0.015625)"/>
       <path id="DejaVuSans-72" d="M 2631 2963 
Q 2534 3019 2420 3045 
Q 2306 3072 2169 3072 
Q 1681 3072 1420 2755 
Q 1159 2438 1159 1844 
L 1159 0 
L 581 0 
L 581 3500 
L 1159 3500 
L 1159 2956 
Q 1341 3275 1631 3429 
Q 1922 3584 2338 3584 
Q 2397 3584 2469 3576 
Q 2541 3569 2628 3553 
L 2631 2963 
z
" transform="scale(0.015625)"/>
       <path id="DejaVuSans-61" d="M 2194 1759 
Q 1497 1759 1228 1600 
Q 959 1441 959 1056 
Q 959 750 1161 570 
Q 1363 391 1709 391 
Q 2188 391 2477 730 
Q 2766 1069 2766 1631 
L 2766 1759 
L 2194 1759 
z
M 3341 1997 
L 3341 0 
L 2766 0 
L 2766 531 
Q 2569 213 2275 61 
Q 1981 -91 1556 -91 
Q 1019 -91 701 211 
Q 384 513 384 1019 
Q 384 1609 779 1909 
Q 1175 2209 1959 2209 
L 2766 2209 
L 2766 2266 
Q 2766 2663 2505 2880 
Q 2244 3097 1772 3097 
Q 1472 3097 1187 3025 
Q 903 2953 641 2809 
L 641 3341 
Q 956 3463 1253 3523 
Q 1550 3584 1831 3584 
Q 2591 3584 2966 3190 
Q 3341 2797 3341 1997 
z
" transform="scale(0.015625)"/>
       <path id="DejaVuSans-6a" d="M 603 3500 
L 1178 3500 
L 1178 -63 
Q 1178 -731 923 -1031 
Q 669 -1331 103 -1331 
L -116 -1331 
L -116 -844 
L 38 -844 
Q 366 -844 484 -692 
Q 603 -541 603 -63 
L 603 3500 
z
M 603 4863 
L 1178 4863 
L 1178 4134 
L 603 4134 
L 603 4863 
z
" transform="scale(0.015625)"/>
       <path id="DejaVuSans-65" d="M 3597 1894 
L 3597 1613 
L 953 1613 
Q 991 1019 1311 708 
Q 1631 397 2203 397 
Q 2534 397 2845 478 
Q 3156 559 3463 722 
L 3463 178 
Q 3153 47 2828 -22 
Q 2503 -91 2169 -91 
Q 1331 -91 842 396 
Q 353 884 353 1716 
Q 353 2575 817 3079 
Q 1281 3584 2069 3584 
Q 2775 3584 3186 3129 
Q 3597 2675 3597 1894 
z
M 3022 2063 
Q 3016 2534 2758 2815 
Q 2500 3097 2075 3097 
Q 1594 3097 1305 2825 
Q 1016 2553 972 2059 
L 3022 2063 
z
" transform="scale(0.015625)"/>
       <path id="DejaVuSans-63" d="M 3122 3366 
L 3122 2828 
Q 2878 2963 2633 3030 
Q 2388 3097 2138 3097 
Q 1578 3097 1268 2742 
Q 959 2388 959 1747 
Q 959 1106 1268 751 
Q 1578 397 2138 397 
Q 2388 397 2633 464 
Q 2878 531 3122 666 
L 3122 134 
Q 2881 22 2623 -34 
Q 2366 -91 2075 -91 
Q 1284 -91 818 406 
Q 353 903 353 1747 
Q 353 2603 823 3093 
Q 1294 3584 2113 3584 
Q 2378 3584 2631 3529 
Q 2884 3475 3122 3366 
z
" transform="scale(0.015625)"/>
       <path id="DejaVuSans-74" d="M 1172 4494 
L 1172 3500 
L 2356 3500 
L 2356 3053 
L 1172 3053 
L 1172 1153 
Q 1172 725 1289 603 
Q 1406 481 1766 481 
L 2356 481 
L 2356 0 
L 1766 0 
Q 1100 0 847 248 
Q 594 497 594 1153 
L 594 3053 
L 172 3053 
L 172 3500 
L 594 3500 
L 594 4494 
L 1172 4494 
z
" transform="scale(0.015625)"/>
       <path id="DejaVuSans-6f" d="M 1959 3097 
Q 1497 3097 1228 2736 
Q 959 2375 959 1747 
Q 959 1119 1226 758 
Q 1494 397 1959 397 
Q 2419 397 2687 759 
Q 2956 1122 2956 1747 
Q 2956 2369 2687 2733 
Q 2419 3097 1959 3097 
z
M 1959 3584 
Q 2709 3584 3137 3096 
Q 3566 2609 3566 1747 
Q 3566 888 3137 398 
Q 2709 -91 1959 -91 
Q 1206 -91 779 398 
Q 353 888 353 1747 
Q 353 2609 779 3096 
Q 1206 3584 1959 3584 
z
" transform="scale(0.015625)"/>
       <path id="DejaVuSans-79" d="M 2059 -325 
Q 1816 -950 1584 -1140 
Q 1353 -1331 966 -1331 
L 506 -1331 
L 506 -850 
L 844 -850 
Q 1081 -850 1212 -737 
Q 1344 -625 1503 -206 
L 1606 56 
L 191 3500 
L 800 3500 
L 1894 763 
L 2988 3500 
L 3597 3500 
L 2059 -325 
z
" transform="scale(0.015625)"/>
      </defs>
      <use xlink:href="#DejaVuSans-54"/>
      <use xlink:href="#DejaVuSans-72" x="46.333984"/>
      <use xlink:href="#DejaVuSans-61" x="87.447266"/>
      <use xlink:href="#DejaVuSans-6a" x="148.726562"/>
      <use xlink:href="#DejaVuSans-65" x="176.509766"/>
      <use xlink:href="#DejaVuSans-63" x="238.033203"/>
      <use xlink:href="#DejaVuSans-74" x="293.013672"/>
      <use xlink:href="#DejaVuSans-6f" x="332.222656"/>
      <use xlink:href="#DejaVuSans-72" x="393.404297"/>
      <use xlink:href="#DejaVuSans-79" x="434.517578"/>
     </g>
    </g>
    <g id="line2d_51">
     <path d="M 285.164531 83.136844 
L 300.164531 83.136844 
L 315.164531 83.136844 
" style="fill: none; stroke: #000000; stroke-width: 1.5; stroke-linecap: square"/>
     <g>
      <use xlink:href="#meb6395075c" x="300.164531" y="83.136844" style="stroke: #000000"/>
     </g>
    </g>
    <g id="text_8">
     <!-- Start -->
     <g transform="translate(327.164531 88.386844)scale(0.15 -0.15)">
      <defs>
       <path id="DejaVuSans-53" d="M 3425 4513 
L 3425 3897 
Q 3066 4069 2747 4153 
Q 2428 4238 2131 4238 
Q 1616 4238 1336 4038 
Q 1056 3838 1056 3469 
Q 1056 3159 1242 3001 
Q 1428 2844 1947 2747 
L 2328 2669 
Q 3034 2534 3370 2195 
Q 3706 1856 3706 1288 
Q 3706 609 3251 259 
Q 2797 -91 1919 -91 
Q 1588 -91 1214 -16 
Q 841 59 441 206 
L 441 856 
Q 825 641 1194 531 
Q 1563 422 1919 422 
Q 2459 422 2753 634 
Q 3047 847 3047 1241 
Q 3047 1584 2836 1778 
Q 2625 1972 2144 2069 
L 1759 2144 
Q 1053 2284 737 2584 
Q 422 2884 422 3419 
Q 422 4038 858 4394 
Q 1294 4750 2059 4750 
Q 2388 4750 2728 4690 
Q 3069 4631 3425 4513 
z
" transform="scale(0.015625)"/>
      </defs>
      <use xlink:href="#DejaVuSans-53"/>
      <use xlink:href="#DejaVuSans-74" x="63.476562"/>
      <use xlink:href="#DejaVuSans-61" x="102.685547"/>
      <use xlink:href="#DejaVuSans-72" x="163.964844"/>
      <use xlink:href="#DejaVuSans-74" x="205.078125"/>
     </g>
    </g>
    <g id="line2d_52">
     <path d="M 285.164531 105.154031 
L 300.164531 105.154031 
L 315.164531 105.154031 
" style="fill: none; stroke: #000000; stroke-width: 1.5; stroke-linecap: square"/>
     <g>
      <use xlink:href="#m20a9b754d2" x="300.164531" y="105.154031" style="stroke: #000000; stroke-linejoin: miter"/>
     </g>
    </g>
    <g id="text_9">
     <!-- End -->
     <g transform="translate(327.164531 110.404031)scale(0.15 -0.15)">
      <defs>
       <path id="DejaVuSans-45" d="M 628 4666 
L 3578 4666 
L 3578 4134 
L 1259 4134 
L 1259 2753 
L 3481 2753 
L 3481 2222 
L 1259 2222 
L 1259 531 
L 3634 531 
L 3634 0 
L 628 0 
L 628 4666 
z
" transform="scale(0.015625)"/>
       <path id="DejaVuSans-6e" d="M 3513 2113 
L 3513 0 
L 2938 0 
L 2938 2094 
Q 2938 2591 2744 2837 
Q 2550 3084 2163 3084 
Q 1697 3084 1428 2787 
Q 1159 2491 1159 1978 
L 1159 0 
L 581 0 
L 581 3500 
L 1159 3500 
L 1159 2956 
Q 1366 3272 1645 3428 
Q 1925 3584 2291 3584 
Q 2894 3584 3203 3211 
Q 3513 2838 3513 2113 
z
" transform="scale(0.015625)"/>
       <path id="DejaVuSans-64" d="M 2906 2969 
L 2906 4863 
L 3481 4863 
L 3481 0 
L 2906 0 
L 2906 525 
Q 2725 213 2448 61 
Q 2172 -91 1784 -91 
Q 1150 -91 751 415 
Q 353 922 353 1747 
Q 353 2572 751 3078 
Q 1150 3584 1784 3584 
Q 2172 3584 2448 3432 
Q 2725 3281 2906 2969 
z
M 947 1747 
Q 947 1113 1208 752 
Q 1469 391 1925 391 
Q 2381 391 2643 752 
Q 2906 1113 2906 1747 
Q 2906 2381 2643 2742 
Q 2381 3103 1925 3103 
Q 1469 3103 1208 2742 
Q 947 2381 947 1747 
z
" transform="scale(0.015625)"/>
      </defs>
      <use xlink:href="#DejaVuSans-45"/>
      <use xlink:href="#DejaVuSans-6e" x="63.183594"/>
      <use xlink:href="#DejaVuSans-64" x="126.5625"/>
     </g>
    </g>
   </g>
  </g>
 </g>
 <defs>
  <clipPath id="p487a82f0d5">
   <rect x="57.6" y="41.472" width="357.12" height="266.112"/>
  </clipPath>
 </defs>
</svg>
