<?xml version="1.0" encoding="utf-8" standalone="no"?>
<!DOCTYPE svg PUBLIC "-//W3C//DTD SVG 1.1//EN"
  "http://www.w3.org/Graphics/SVG/1.1/DTD/svg11.dtd">
<svg xmlns:xlink="http://www.w3.org/1999/xlink" width="460.8pt" height="345.6pt" viewBox="0 0 460.8 345.6" xmlns="http://www.w3.org/2000/svg" version="1.1">
 <metadata>
  <rdf:RDF xmlns:dc="http://purl.org/dc/elements/1.1/" xmlns:cc="http://creativecommons.org/ns#" xmlns:rdf="http://www.w3.org/1999/02/22-rdf-syntax-ns#">
   <cc:Work>
    <dc:type rdf:resource="http://purl.org/dc/dcmitype/StillImage"/>
    <dc:date>2024-02-21T13:17:54.846712</dc:date>
    <dc:format>image/svg+xml</dc:format>
    <dc:creator>
     <cc:Agent>
      <dc:title>Matplotlib v3.5.0, https://matplotlib.org/</dc:title>
     </cc:Agent>
    </dc:creator>
   </cc:Work>
  </rdf:RDF>
 </metadata>
 <defs>
  <style type="text/css">*{stroke-linejoin: round; stroke-linecap: butt}</style>
 </defs>
 <g id="figure_1">
  <g id="patch_1">
   <path d="M 0 345.6 
L 460.8 345.6 
L 460.8 0 
L 0 0 
z
" style="fill: #ffffff"/>
  </g>
  <g id="axes_1">
   <g id="patch_2">
    <path d="M 57.6 307.584 
L 414.72 307.584 
L 414.72 41.472 
L 57.6 41.472 
z
" style="fill: #ffffff"/>
   </g>
   <g id="matplotlib.axis_1">
    <g id="xtick_1">
     <g id="line2d_1">
      <defs>
       <path id="mb0d7ec8613" d="M 0 0 
L 0 3.5 
" style="stroke: #000000; stroke-width: 0.8"/>
      </defs>
      <g>
       <use xlink:href="#mb0d7ec8613" x="73.223938" y="307.584" style="stroke: #000000; stroke-width: 0.8"/>
      </g>
     </g>
     <g id="text_1">
      <!-- 0 -->
      <g transform="translate(66.861438 329.780875)scale(0.2 -0.2)">
       <defs>
        <path id="DejaVuSans-30" d="M 2034 4250 
Q 1547 4250 1301 3770 
Q 1056 3291 1056 2328 
Q 1056 1369 1301 889 
Q 1547 409 2034 409 
Q 2525 409 2770 889 
Q 3016 1369 3016 2328 
Q 3016 3291 2770 3770 
Q 2525 4250 2034 4250 
z
M 2034 4750 
Q 2819 4750 3233 4129 
Q 3647 3509 3647 2328 
Q 3647 1150 3233 529 
Q 2819 -91 2034 -91 
Q 1250 -91 836 529 
Q 422 1150 422 2328 
Q 422 3509 836 4129 
Q 1250 4750 2034 4750 
z
" transform="scale(0.015625)"/>
       </defs>
       <use xlink:href="#DejaVuSans-30"/>
      </g>
     </g>
    </g>
    <g id="xtick_2">
     <g id="line2d_2">
      <g>
       <use xlink:href="#mb0d7ec8613" x="414.72" y="307.584" style="stroke: #000000; stroke-width: 0.8"/>
      </g>
     </g>
     <g id="text_2">
      <!-- 1 -->
      <g transform="translate(408.3575 329.780875)scale(0.2 -0.2)">
       <defs>
        <path id="DejaVuSans-31" d="M 794 531 
L 1825 531 
L 1825 4091 
L 703 3866 
L 703 4441 
L 1819 4666 
L 2450 4666 
L 2450 531 
L 3481 531 
L 3481 0 
L 794 0 
L 794 531 
z
" transform="scale(0.015625)"/>
       </defs>
       <use xlink:href="#DejaVuSans-31"/>
      </g>
     </g>
    </g>
    <g id="text_3">
     <!-- Normalised X position -->
     <g transform="translate(111.795937 353.137125)scale(0.2 -0.2)">
      <defs>
       <path id="DejaVuSans-Bold-4e" d="M 588 4666 
L 1931 4666 
L 3628 1466 
L 3628 4666 
L 4769 4666 
L 4769 0 
L 3425 0 
L 1728 3200 
L 1728 0 
L 588 0 
L 588 4666 
z
" transform="scale(0.015625)"/>
       <path id="DejaVuSans-Bold-6f" d="M 2203 2784 
Q 1831 2784 1636 2517 
Q 1441 2250 1441 1747 
Q 1441 1244 1636 976 
Q 1831 709 2203 709 
Q 2569 709 2762 976 
Q 2956 1244 2956 1747 
Q 2956 2250 2762 2517 
Q 2569 2784 2203 2784 
z
M 2203 3584 
Q 3106 3584 3614 3096 
Q 4122 2609 4122 1747 
Q 4122 884 3614 396 
Q 3106 -91 2203 -91 
Q 1297 -91 786 396 
Q 275 884 275 1747 
Q 275 2609 786 3096 
Q 1297 3584 2203 3584 
z
" transform="scale(0.015625)"/>
       <path id="DejaVuSans-Bold-72" d="M 3138 2547 
Q 2991 2616 2845 2648 
Q 2700 2681 2553 2681 
Q 2122 2681 1889 2404 
Q 1656 2128 1656 1613 
L 1656 0 
L 538 0 
L 538 3500 
L 1656 3500 
L 1656 2925 
Q 1872 3269 2151 3426 
Q 2431 3584 2822 3584 
Q 2878 3584 2943 3579 
Q 3009 3575 3134 3559 
L 3138 2547 
z
" transform="scale(0.015625)"/>
       <path id="DejaVuSans-Bold-6d" d="M 3781 2919 
Q 3994 3244 4286 3414 
Q 4578 3584 4928 3584 
Q 5531 3584 5847 3212 
Q 6163 2841 6163 2131 
L 6163 0 
L 5038 0 
L 5038 1825 
Q 5041 1866 5042 1909 
Q 5044 1953 5044 2034 
Q 5044 2406 4934 2573 
Q 4825 2741 4581 2741 
Q 4263 2741 4089 2478 
Q 3916 2216 3909 1719 
L 3909 0 
L 2784 0 
L 2784 1825 
Q 2784 2406 2684 2573 
Q 2584 2741 2328 2741 
Q 2006 2741 1831 2477 
Q 1656 2213 1656 1722 
L 1656 0 
L 531 0 
L 531 3500 
L 1656 3500 
L 1656 2988 
Q 1863 3284 2130 3434 
Q 2397 3584 2719 3584 
Q 3081 3584 3359 3409 
Q 3638 3234 3781 2919 
z
" transform="scale(0.015625)"/>
       <path id="DejaVuSans-Bold-61" d="M 2106 1575 
Q 1756 1575 1579 1456 
Q 1403 1338 1403 1106 
Q 1403 894 1545 773 
Q 1688 653 1941 653 
Q 2256 653 2472 879 
Q 2688 1106 2688 1447 
L 2688 1575 
L 2106 1575 
z
M 3816 1997 
L 3816 0 
L 2688 0 
L 2688 519 
Q 2463 200 2181 54 
Q 1900 -91 1497 -91 
Q 953 -91 614 226 
Q 275 544 275 1050 
Q 275 1666 698 1953 
Q 1122 2241 2028 2241 
L 2688 2241 
L 2688 2328 
Q 2688 2594 2478 2717 
Q 2269 2841 1825 2841 
Q 1466 2841 1156 2769 
Q 847 2697 581 2553 
L 581 3406 
Q 941 3494 1303 3539 
Q 1666 3584 2028 3584 
Q 2975 3584 3395 3211 
Q 3816 2838 3816 1997 
z
" transform="scale(0.015625)"/>
       <path id="DejaVuSans-Bold-6c" d="M 538 4863 
L 1656 4863 
L 1656 0 
L 538 0 
L 538 4863 
z
" transform="scale(0.015625)"/>
       <path id="DejaVuSans-Bold-69" d="M 538 3500 
L 1656 3500 
L 1656 0 
L 538 0 
L 538 3500 
z
M 538 4863 
L 1656 4863 
L 1656 3950 
L 538 3950 
L 538 4863 
z
" transform="scale(0.015625)"/>
       <path id="DejaVuSans-Bold-73" d="M 3272 3391 
L 3272 2541 
Q 2913 2691 2578 2766 
Q 2244 2841 1947 2841 
Q 1628 2841 1473 2761 
Q 1319 2681 1319 2516 
Q 1319 2381 1436 2309 
Q 1553 2238 1856 2203 
L 2053 2175 
Q 2913 2066 3209 1816 
Q 3506 1566 3506 1031 
Q 3506 472 3093 190 
Q 2681 -91 1863 -91 
Q 1516 -91 1145 -36 
Q 775 19 384 128 
L 384 978 
Q 719 816 1070 734 
Q 1422 653 1784 653 
Q 2113 653 2278 743 
Q 2444 834 2444 1013 
Q 2444 1163 2330 1236 
Q 2216 1309 1875 1350 
L 1678 1375 
Q 931 1469 631 1722 
Q 331 1975 331 2491 
Q 331 3047 712 3315 
Q 1094 3584 1881 3584 
Q 2191 3584 2531 3537 
Q 2872 3491 3272 3391 
z
" transform="scale(0.015625)"/>
       <path id="DejaVuSans-Bold-65" d="M 4031 1759 
L 4031 1441 
L 1416 1441 
Q 1456 1047 1700 850 
Q 1944 653 2381 653 
Q 2734 653 3104 758 
Q 3475 863 3866 1075 
L 3866 213 
Q 3469 63 3072 -14 
Q 2675 -91 2278 -91 
Q 1328 -91 801 392 
Q 275 875 275 1747 
Q 275 2603 792 3093 
Q 1309 3584 2216 3584 
Q 3041 3584 3536 3087 
Q 4031 2591 4031 1759 
z
M 2881 2131 
Q 2881 2450 2695 2645 
Q 2509 2841 2209 2841 
Q 1884 2841 1681 2658 
Q 1478 2475 1428 2131 
L 2881 2131 
z
" transform="scale(0.015625)"/>
       <path id="DejaVuSans-Bold-64" d="M 2919 2988 
L 2919 4863 
L 4044 4863 
L 4044 0 
L 2919 0 
L 2919 506 
Q 2688 197 2409 53 
Q 2131 -91 1766 -91 
Q 1119 -91 703 423 
Q 288 938 288 1747 
Q 288 2556 703 3070 
Q 1119 3584 1766 3584 
Q 2128 3584 2408 3439 
Q 2688 3294 2919 2988 
z
M 2181 722 
Q 2541 722 2730 984 
Q 2919 1247 2919 1747 
Q 2919 2247 2730 2509 
Q 2541 2772 2181 2772 
Q 1825 2772 1636 2509 
Q 1447 2247 1447 1747 
Q 1447 1247 1636 984 
Q 1825 722 2181 722 
z
" transform="scale(0.015625)"/>
       <path id="DejaVuSans-Bold-20" transform="scale(0.015625)"/>
       <path id="DejaVuSans-Bold-58" d="M 3188 2381 
L 4806 0 
L 3553 0 
L 2463 1594 
L 1381 0 
L 122 0 
L 1741 2381 
L 184 4666 
L 1441 4666 
L 2463 3163 
L 3481 4666 
L 4744 4666 
L 3188 2381 
z
" transform="scale(0.015625)"/>
       <path id="DejaVuSans-Bold-70" d="M 1656 506 
L 1656 -1331 
L 538 -1331 
L 538 3500 
L 1656 3500 
L 1656 2988 
Q 1888 3294 2169 3439 
Q 2450 3584 2816 3584 
Q 3463 3584 3878 3070 
Q 4294 2556 4294 1747 
Q 4294 938 3878 423 
Q 3463 -91 2816 -91 
Q 2450 -91 2169 54 
Q 1888 200 1656 506 
z
M 2400 2772 
Q 2041 2772 1848 2508 
Q 1656 2244 1656 1747 
Q 1656 1250 1848 986 
Q 2041 722 2400 722 
Q 2759 722 2948 984 
Q 3138 1247 3138 1747 
Q 3138 2247 2948 2509 
Q 2759 2772 2400 2772 
z
" transform="scale(0.015625)"/>
       <path id="DejaVuSans-Bold-74" d="M 1759 4494 
L 1759 3500 
L 2913 3500 
L 2913 2700 
L 1759 2700 
L 1759 1216 
Q 1759 972 1856 886 
Q 1953 800 2241 800 
L 2816 800 
L 2816 0 
L 1856 0 
Q 1194 0 917 276 
Q 641 553 641 1216 
L 641 2700 
L 84 2700 
L 84 3500 
L 641 3500 
L 641 4494 
L 1759 4494 
z
" transform="scale(0.015625)"/>
       <path id="DejaVuSans-Bold-6e" d="M 4056 2131 
L 4056 0 
L 2931 0 
L 2931 347 
L 2931 1631 
Q 2931 2084 2911 2256 
Q 2891 2428 2841 2509 
Q 2775 2619 2662 2680 
Q 2550 2741 2406 2741 
Q 2056 2741 1856 2470 
Q 1656 2200 1656 1722 
L 1656 0 
L 538 0 
L 538 3500 
L 1656 3500 
L 1656 2988 
Q 1909 3294 2193 3439 
Q 2478 3584 2822 3584 
Q 3428 3584 3742 3212 
Q 4056 2841 4056 2131 
z
" transform="scale(0.015625)"/>
      </defs>
      <use xlink:href="#DejaVuSans-Bold-4e"/>
      <use xlink:href="#DejaVuSans-Bold-6f" x="83.691406"/>
      <use xlink:href="#DejaVuSans-Bold-72" x="152.392578"/>
      <use xlink:href="#DejaVuSans-Bold-6d" x="201.708984"/>
      <use xlink:href="#DejaVuSans-Bold-61" x="305.908203"/>
      <use xlink:href="#DejaVuSans-Bold-6c" x="373.388672"/>
      <use xlink:href="#DejaVuSans-Bold-69" x="407.666016"/>
      <use xlink:href="#DejaVuSans-Bold-73" x="441.943359"/>
      <use xlink:href="#DejaVuSans-Bold-65" x="501.464844"/>
      <use xlink:href="#DejaVuSans-Bold-64" x="569.287109"/>
      <use xlink:href="#DejaVuSans-Bold-20" x="640.869141"/>
      <use xlink:href="#DejaVuSans-Bold-58" x="675.683594"/>
      <use xlink:href="#DejaVuSans-Bold-20" x="752.783203"/>
      <use xlink:href="#DejaVuSans-Bold-70" x="787.597656"/>
      <use xlink:href="#DejaVuSans-Bold-6f" x="859.179688"/>
      <use xlink:href="#DejaVuSans-Bold-73" x="927.880859"/>
      <use xlink:href="#DejaVuSans-Bold-69" x="987.402344"/>
      <use xlink:href="#DejaVuSans-Bold-74" x="1021.679688"/>
      <use xlink:href="#DejaVuSans-Bold-69" x="1069.482422"/>
      <use xlink:href="#DejaVuSans-Bold-6f" x="1103.759766"/>
      <use xlink:href="#DejaVuSans-Bold-6e" x="1172.460938"/>
     </g>
    </g>
   </g>
   <g id="matplotlib.axis_2">
    <g id="ytick_1">
     <g id="line2d_3">
      <defs>
       <path id="m5ad0150209" d="M 0 0 
L -3.5 0 
" style="stroke: #000000; stroke-width: 0.8"/>
      </defs>
      <g>
       <use xlink:href="#m5ad0150209" x="57.6" y="296.740174" style="stroke: #000000; stroke-width: 0.8"/>
      </g>
     </g>
     <g id="text_4">
      <!-- 0 -->
      <g transform="translate(37.875 304.338611)scale(0.2 -0.2)">
       <use xlink:href="#DejaVuSans-30"/>
      </g>
     </g>
    </g>
    <g id="ytick_2">
     <g id="line2d_4">
      <g>
       <use xlink:href="#m5ad0150209" x="57.6" y="53.568" style="stroke: #000000; stroke-width: 0.8"/>
      </g>
     </g>
     <g id="text_5">
      <!-- 1 -->
      <g transform="translate(37.875 61.166437)scale(0.2 -0.2)">
       <use xlink:href="#DejaVuSans-31"/>
      </g>
     </g>
    </g>
    <g id="text_6">
     <!-- Normalised Y position -->
     <g transform="translate(29.715625 298.423313)rotate(-90)scale(0.2 -0.2)">
      <defs>
       <path id="DejaVuSans-Bold-59" d="M -63 4666 
L 1253 4666 
L 2316 3003 
L 3378 4666 
L 4697 4666 
L 2919 1966 
L 2919 0 
L 1716 0 
L 1716 1966 
L -63 4666 
z
" transform="scale(0.015625)"/>
      </defs>
      <use xlink:href="#DejaVuSans-Bold-4e"/>
      <use xlink:href="#DejaVuSans-Bold-6f" x="83.691406"/>
      <use xlink:href="#DejaVuSans-Bold-72" x="152.392578"/>
      <use xlink:href="#DejaVuSans-Bold-6d" x="201.708984"/>
      <use xlink:href="#DejaVuSans-Bold-61" x="305.908203"/>
      <use xlink:href="#DejaVuSans-Bold-6c" x="373.388672"/>
      <use xlink:href="#DejaVuSans-Bold-69" x="407.666016"/>
      <use xlink:href="#DejaVuSans-Bold-73" x="441.943359"/>
      <use xlink:href="#DejaVuSans-Bold-65" x="501.464844"/>
      <use xlink:href="#DejaVuSans-Bold-64" x="569.287109"/>
      <use xlink:href="#DejaVuSans-Bold-20" x="640.869141"/>
      <use xlink:href="#DejaVuSans-Bold-59" x="675.683594"/>
      <use xlink:href="#DejaVuSans-Bold-20" x="748.095703"/>
      <use xlink:href="#DejaVuSans-Bold-70" x="782.910156"/>
      <use xlink:href="#DejaVuSans-Bold-6f" x="854.492188"/>
      <use xlink:href="#DejaVuSans-Bold-73" x="923.193359"/>
      <use xlink:href="#DejaVuSans-Bold-69" x="982.714844"/>
      <use xlink:href="#DejaVuSans-Bold-74" x="1016.992188"/>
      <use xlink:href="#DejaVuSans-Bold-69" x="1064.794922"/>
      <use xlink:href="#DejaVuSans-Bold-6f" x="1099.072266"/>
      <use xlink:href="#DejaVuSans-Bold-6e" x="1167.773438"/>
     </g>
    </g>
   </g>
   <g id="line2d_5">
    <path d="M 260.750677 167.014957 
L 109.742303 190.054957 
L 113.887631 190.305391 
L 120.599115 190.555826 
L 123.16527 190.305391 
L 126.521012 190.555826 
L 130.07415 191.056696 
L 132.837702 191.056696 
L 133.627288 191.30713 
L 137.575219 191.30713 
L 138.759599 191.557565 
L 143.891909 191.056696 
L 148.629427 190.806261 
L 151.195582 191.30713 
L 156.52529 192.559304 
L 161.460204 194.813217 
L 173.501395 199.321043 
L 185.147792 204.329739 
L 192.056672 207.835826 
L 197.583776 209.58887 
L 205.282242 212.594087 
L 224.627106 221.359304 
L 232.720365 225.86713 
L 239.629245 230.124522 
L 245.353745 234.381913 
L 249.499073 238.639304 
L 255.42097 244.399304 
L 256.407953 246.903652 
L 256.210556 248.656696 
L 253.841798 249.90887 
L 250.091263 250.159304 
L 244.564159 249.157565 
L 237.852676 246.903652 
L 230.943796 243.648 
L 223.047933 240.392348 
L 206.071828 233.630609 
L 196.79419 229.373217 
L 187.319154 224.614957 
L 176.264947 218.604522 
L 155.9331 208.58713 
L 145.865875 203.328 
L 134.219478 198.06887 
L 113.492838 187.550609 
L 82.89637 170.270609 
L 73.618731 165.261913 
L 73.223938 160.503652 
L 73.223938 120.684522 
L 73.618731 118.681043 
L 74.605714 118.180174 
L 76.382283 117.42887 
L 81.317198 121.435826 
L 81.909387 122.18713 
L 81.317198 122.938435 
L 80.922404 123.18887 
L 78.751042 123.689739 
L 77.369266 123.689739 
L 75.790094 123.439304 
L 73.816128 122.688 
L 73.223938 121.936696 
L 73.223938 79.112348 
L 73.816128 76.858435 
L 74.803111 76.10713 
L 75.790094 75.856696 
L 77.17187 76.357565 
L 78.948439 77.609739 
L 80.527611 79.112348 
L 82.501577 80.614957 
L 85.462525 83.870609 
L 90.39744 89.129739 
L 96.12194 93.888 
L 105.991769 103.154087 
L 109.544907 106.159304 
L 113.098045 109.414957 
L 119.809528 115.174957 
L 123.16527 116.928 
L 124.941839 118.180174 
L 128.100184 120.934957 
L 130.863736 124.190609 
L 133.824685 127.195826 
L 136.588236 129.700174 
L 138.759599 132.204522 
L 140.536168 134.458435 
L 146.458065 142.722783 
L 146.655461 143.474087 
L 147.050255 143.974957 
L 147.642444 144.475826 
L 148.037237 144.976696 
L 149.419013 145.978435 
L 150.011203 146.729739 
L 151.195582 147.731478 
L 151.590376 148.482783 
L 151.985169 148.983652 
L 152.577358 150.235826 
L 152.774755 150.736696 
L 152.972152 150.736696 
L 152.972152 150.98713 
L 152.774755 150.98713 
L 152.774755 152.489739 
L 153.169548 153.741913 
L 153.169548 154.242783 
L 153.366945 154.743652 
L 153.366945 155.244522 
L 153.564341 155.995826 
L 153.564341 157.248 
L 152.774755 158.249739 
L 150.603393 159.752348 
L 150.405996 160.253217 
L 149.813806 160.754087 
L 149.61641 161.254957 
L 148.629427 162.006261 
L 148.432031 162.256696 
L 148.432031 163.759304 
L 149.02422 165.011478 
L 151.392979 168.016696 
L 151.787772 168.016696 
L 151.787772 168.016696 
L 151.985169 168.26713 
L 152.182565 168.26713 
L 152.182565 168.016696 
L 152.379962 168.016696 
L 152.182565 167.265391 
L 152.577358 166.013217 
L 152.182565 165.512348 
L 151.590376 165.011478 
L 150.800789 164.510609 
L 148.629427 163.50887 
L 147.642444 163.008 
L 146.655461 162.757565 
L 145.471082 162.256696 
L 143.29972 162.256696 
L 142.11534 162.50713 
L 138.956995 161.004522 
L 135.20646 158.500174 
L 133.429891 157.248 
L 131.455926 155.494957 
L 128.692374 152.239304 
L 124.744442 147.230609 
L 120.599115 142.472348 
L 116.25639 137.964522 
L 114.085028 135.961043 
L 111.913666 133.70713 
L 96.911526 119.933217 
L 94.542768 118.430609 
L 90.594836 114.924522 
L 88.423474 113.421913 
L 86.449508 111.66887 
L 84.475543 110.66713 
L 81.119801 108.413217 
L 78.158852 106.660174 
L 77.764059 106.660174 
L 77.369266 106.910609 
L 77.369266 108.413217 
L 77.764059 109.164522 
L 78.356249 109.915826 
L 78.948439 110.917565 
L 79.935422 111.919304 
L 81.119801 112.921043 
L 84.08075 115.174957 
L 86.054715 116.677565 
L 87.041698 117.679304 
L 89.21306 119.181913 
L 91.779216 121.435826 
L 94.740164 123.689739 
L 98.095906 126.444522 
L 99.872475 127.696696 
L 107.965734 134.70887 
L 116.651183 142.973217 
L 121.586097 147.481043 
L 126.521012 152.239304 
L 131.455926 157.498435 
L 136.785633 162.50713 
L 148.037237 173.776696 
L 153.564341 179.536696 
L 159.683635 185.54713 
L 178.238912 205.081043 
L 184.358206 211.341913 
L 210.217156 236.886261 
L 222.455743 248.406261 
L 238.839658 263.432348 
L 250.288659 274.701913 
L 253.052211 277.70713 
L 255.026177 280.211478 
L 256.407953 282.214957 
L 257.394936 283.968 
L 257.592332 285.220174 
L 256.802746 285.470609 
L 251.078246 281.714087 
L 248.51209 279.961043 
L 245.156349 277.456696 
L 241.405814 274.201043 
L 235.681313 269.693217 
L 229.167227 263.933217 
L 225.021899 259.926261 
L 223.047933 257.672348 
L 214.165087 248.406261 
L 204.887449 238.38887 
L 200.149931 233.380174 
L 195.215017 227.870609 
L 190.280103 222.611478 
L 185.147792 217.352348 
L 180.015481 211.842783 
L 163.236773 195.814957 
L 157.314876 190.305391 
L 140.930961 177.032348 
L 138.364806 175.279304 
L 129.876753 169.26887 
L 126.126218 167.265391 
L 123.16527 165.512348 
L 120.796511 164.510609 
L 119.217339 164.009739 
L 118.230356 164.009739 
L 118.230356 164.761043 
L 119.019942 166.263652 
L 120.401718 168.517565 
L 122.57308 171.522783 
L 125.336632 175.02887 
L 132.442909 183.543652 
L 136.785633 189.053217 
L 140.733564 194.813217 
L 145.668479 200.823652 
L 151.392979 207.585391 
L 157.314876 214.34713 
L 163.236773 221.359304 
L 176.264947 235.383652 
L 183.371223 242.646261 
L 201.334311 260.42713 
L 208.637984 267.18887 
L 216.139053 274.451478 
L 223.442726 281.213217 
L 230.943796 286.973217 
L 238.050072 292.733217 
L 245.551142 295.488 
L 327.273321 295.488 
L 328.062907 294.486261 
L 329.04989 294.486261 
L 329.04989 292.733217 
L 329.247286 291.230609 
L 329.04989 289.728 
L 328.4577 287.724522 
L 327.075924 285.470609 
L 325.299355 282.966261 
L 323.325389 280.461913 
L 321.154027 278.208 
L 310.692009 268.941913 
L 305.954491 265.185391 
L 301.019577 261.679304 
L 295.492473 257.922783 
L 282.266903 249.408 
L 274.568437 243.898435 
L 265.882988 237.38713 
L 257.000143 230.374957 
L 247.722504 222.611478 
L 238.642262 214.597565 
L 229.56202 207.084522 
L 220.876571 199.321043 
L 211.401536 191.557565 
L 196.596793 178.034087 
L 191.464482 173.025391 
L 180.410274 164.761043 
L 178.633705 163.008 
L 175.870153 161.004522 
L 172.711808 158.249739 
L 165.013342 153.241043 
L 157.907066 148.482783 
L 152.972152 145.477565 
L 148.629427 142.973217 
L 144.681496 139.968 
L 140.141375 137.213217 
L 131.850719 130.701913 
L 131.061133 129.950609 
L 131.455926 129.950609 
L 132.640305 130.451478 
L 134.219478 131.453217 
L 150.998186 140.218435 
L 156.52529 142.973217 
L 162.052394 145.978435 
L 174.488377 151.98887 
L 180.212878 154.743652 
L 185.147792 156.246261 
L 189.490517 155.995826 
L 193.438448 153.741913 
L 196.991586 149.985391 
L 202.321293 147.230609 
L 208.440587 145.22713 
L 213.967691 143.974957 
L 218.902605 142.973217 
L 223.047933 141.971478 
L 226.601071 141.721043 
L 230.154209 141.721043 
L 233.707348 142.221913 
L 237.457882 144.726261 
L 240.221434 148.232348 
L 240.813624 150.98713 
L 243.379779 155.244522 
L 246.538125 160.002783 
L 250.683452 163.50887 
L 253.249608 166.013217 
L 258.184522 171.021913 
L 262.32985 176.281043 
L 265.488195 181.289739 
L 268.449144 187.300174 
L 276.14761 199.821913 
L 280.687731 206.583652 
L 286.017438 212.594087 
L 291.347145 218.354087 
L 306.546681 232.879304 
L 310.297216 237.136696 
L 317.600889 244.900174 
L 320.167044 248.406261 
L 320.167044 248.406261 
" clip-path="url(#p7ec6444c57)" style="fill: none; stroke: #000000; stroke-width: 1.5; stroke-linecap: square"/>
   </g>
   <g id="line2d_6">
    <path d="M 260.750677 167.014957 
" clip-path="url(#p7ec6444c57)" style="fill: none; stroke: #000000; stroke-width: 1.5; stroke-linecap: square"/>
    <defs>
     <path id="m45054311ae" d="M 0 5 
C 1.326016 5 2.597899 4.473168 3.535534 3.535534 
C 4.473168 2.597899 5 1.326016 5 0 
C 5 -1.326016 4.473168 -2.597899 3.535534 -3.535534 
C 2.597899 -4.473168 1.326016 -5 0 -5 
C -1.326016 -5 -2.597899 -4.473168 -3.535534 -3.535534 
C -4.473168 -2.597899 -5 -1.326016 -5 0 
C -5 1.326016 -4.473168 2.597899 -3.535534 3.535534 
C -2.597899 4.473168 -1.326016 5 0 5 
z
" style="stroke: #000000"/>
    </defs>
    <g clip-path="url(#p7ec6444c57)">
     <use xlink:href="#m45054311ae" x="260.750677" y="167.014957" style="stroke: #000000"/>
    </g>
   </g>
   <g id="line2d_7">
    <path d="M 320.167044 248.406261 
" clip-path="url(#p7ec6444c57)" style="fill: none; stroke: #000000; stroke-width: 1.5; stroke-linecap: square"/>
    <defs>
     <path id="m6bd5bcef43" d="M -5 5 
L 5 5 
L 5 -5 
L -5 -5 
z
" style="stroke: #000000; stroke-linejoin: miter"/>
    </defs>
    <g clip-path="url(#p7ec6444c57)">
     <use xlink:href="#m6bd5bcef43" x="320.167044" y="248.406261" style="stroke: #000000; stroke-linejoin: miter"/>
    </g>
   </g>
   <g id="line2d_8">
    <path d="M 229.56202 143.223652 
L 220.876571 150.98713 
L 211.401536 158.750609 
L 196.596793 172.274087 
L 191.464482 177.282783 
L 180.410274 185.54713 
L 178.633705 187.300174 
L 175.870153 189.303652 
L 172.711808 192.058435 
L 165.013342 197.06713 
L 157.907066 201.825391 
L 152.972152 204.830609 
L 148.629427 207.334957 
L 144.681496 210.340174 
L 140.141375 213.094957 
L 131.850719 219.606261 
L 131.061133 220.357565 
L 131.455926 220.357565 
L 132.640305 219.856696 
L 134.219478 218.854957 
L 150.998186 210.089739 
L 156.52529 207.334957 
L 162.052394 204.329739 
L 174.488377 198.319304 
L 180.212878 195.564522 
L 185.147792 194.061913 
L 189.490517 194.312348 
L 193.438448 196.566261 
L 196.991586 200.322783 
L 202.321293 203.077565 
L 208.440587 205.081043 
L 213.967691 206.333217 
L 218.902605 207.334957 
L 223.047933 208.336696 
L 226.601071 208.58713 
L 230.154209 208.58713 
L 233.707348 208.086261 
L 237.457882 205.581913 
L 240.221434 202.075826 
L 240.813624 199.321043 
L 243.379779 195.063652 
L 246.538125 190.305391 
L 250.683452 186.799304 
L 253.249608 184.294957 
L 258.184522 179.286261 
L 262.32985 174.02713 
L 265.488195 169.018435 
L 268.449144 163.008 
L 276.14761 150.486261 
L 280.687731 143.724522 
L 286.017438 137.714087 
L 291.347145 131.954087 
L 306.546681 117.42887 
L 310.297216 113.171478 
L 317.600889 105.408 
L 320.167044 101.901913 
L 323.917579 252.663652 
L 328.4577 258.423652 
L 330.431666 261.42887 
L 332.405631 264.684522 
L 332.603028 265.936696 
L 333.590011 268.941913 
L 334.77439 271.94713 
L 335.761373 275.954087 
L 335.761373 277.206261 
L 335.95877 277.957565 
L 335.761373 278.208 
L 335.36658 278.458435 
L 333.590011 277.70713 
L 331.813442 276.454957 
L 329.444683 274.952348 
L 321.351424 268.190609 
L 318.587872 265.936696 
L 313.850354 261.178435 
L 303.388336 249.408 
L 299.637801 245.150609 
L 295.09768 239.641043 
L 287.399214 230.625391 
L 272.397075 212.343652 
L 250.880849 189.053217 
L 246.932918 183.293217 
L 244.366762 178.785391 
L 242.392797 174.528 
L 238.642262 163.50887 
L 237.260486 160.754087 
L 235.681313 158.249739 
L 234.102141 156.496696 
L 232.720365 155.745391 
L 231.535985 155.995826 
L 229.956813 157.248 
L 229.56202 157.74887 
L 229.364623 157.74887 
L 230.154209 157.248 
L 231.141192 157.498435 
L 232.720365 158.750609 
L 232.522968 159.251478 
L 231.733382 159.251478 
L 230.943796 159.501913 
L 229.56202 159.501913 
L 228.772433 159.251478 
L 228.96983 159.251478 
L 229.167227 159.251478 
L 229.364623 159.501913 
L 231.535985 161.004522 
L 232.720365 162.006261 
L 233.115158 162.757565 
L 232.917761 163.258435 
L 232.522968 163.50887 
L 231.733382 163.759304 
L 230.746399 163.759304 
L 227.982847 164.260174 
L 226.601071 165.011478 
L 223.442726 166.013217 
L 221.863554 166.764522 
L 220.284381 167.014957 
L 218.902605 167.515826 
L 217.520829 167.766261 
L 214.757277 167.766261 
L 213.770294 168.016696 
L 212.388518 168.016696 
L 212.388518 168.016696 
L 211.993725 167.766261 
L 213.770294 169.018435 
L 213.967691 169.769739 
L 213.967691 169.769739 
L 212.388518 169.769739 
L 209.822363 169.018435 
L 208.24319 168.016696 
L 207.058811 166.514087 
L 207.453604 166.263652 
L 207.848397 166.263652 
L 207.651001 166.514087 
L 207.256208 166.764522 
L 206.861414 167.265391 
L 206.269225 167.515826 
L 205.084845 167.515826 
L 202.913483 167.265391 
L 200.544724 166.514087 
L 195.215017 166.514087 
L 191.661879 165.512348 
L 189.095723 165.261913 
L 187.713947 165.011478 
L 185.147792 164.260174 
L 184.160809 164.510609 
L 183.766016 164.761043 
L 185.345189 165.512348 
L 193.438448 170.521043 
L 196.399396 171.272348 
L 200.347328 172.524522 
L 203.900466 173.526261 
L 208.24319 174.528 
L 226.995864 180.538435 
L 241.011021 184.294957 
L 247.130314 186.298435 
L 255.026177 188.301913 
L 299.243008 201.074087 
L 307.336267 203.578435 
L 322.338406 208.837565 
L 329.444683 211.592348 
L 335.563976 213.595826 
L 341.880667 216.601043 
L 345.828598 217.602783 
L 349.973926 219.606261 
L 354.514047 222.361043 
L 356.290616 224.114087 
L 356.685409 224.364522 
L 354.119254 222.861913 
L 353.329668 222.611478 
L 350.171322 222.611478 
L 349.973926 223.112348 
L 350.368719 224.364522 
L 352.145288 228.121043 
L 351.750495 228.621913 
L 352.934874 231.376696 
L 352.145288 231.62713 
L 352.737478 233.129739 
L 352.145288 234.381913 
L 349.579133 234.882783 
L 348.59215 234.632348 
L 347.012977 234.632348 
L 342.27546 233.630609 
L 340.104098 234.131478 
L 339.117115 233.881043 
L 337.143149 234.632348 
L 335.169183 235.133217 
L 332.997821 236.385391 
L 329.839476 238.38887 
L 326.878527 239.140174 
L 322.930596 239.641043 
L 318.390475 239.641043 
L 314.442544 239.390609 
L 309.112836 237.888 
L 304.770112 236.134957 
L 302.796146 235.383652 
L 301.809163 233.881043 
L 301.216974 232.62887 
L 300.624784 230.625391 
L 300.624784 229.122783 
L 301.41437 227.620174 
L 302.401353 226.117565 
L 303.388336 224.364522 
L 306.744078 222.861913 
L 309.705026 220.357565 
L 310.297216 220.10713 
L 310.692009 220.357565 
L 312.468578 220.858435 
L 313.060768 221.359304 
L 313.850354 221.609739 
L 314.047751 221.860174 
L 314.442544 221.860174 
L 314.047751 221.860174 
L 313.850354 221.609739 
L 315.034733 221.609739 
L 315.626923 221.359304 
L 315.82432 220.858435 
L 316.021716 220.858435 
L 316.613906 221.10887 
L 317.206096 220.858435 
L 318.587872 220.858435 
L 319.574854 220.10713 
L 319.574854 219.105391 
L 319.969648 217.853217 
L 320.95663 216.350609 
L 322.535803 215.098435 
L 324.904562 214.597565 
L 330.629062 213.595826 
L 333.392614 212.343652 
L 339.709304 210.841043 
L 343.065046 210.590609 
L 346.420788 210.590609 
L 349.381736 211.091478 
L 352.737478 212.093217 
L 357.672392 214.848 
L 361.422927 218.854957 
L 362.607306 220.858435 
L 365.568255 224.614957 
L 367.147427 226.368 
L 368.923996 228.621913 
L 373.069324 232.879304 
L 376.819859 236.886261 
L 378.399032 239.140174 
L 382.346963 244.14887 
L 383.333946 246.402783 
L 384.518325 248.656696 
L 385.307911 250.660174 
L 385.702705 254.416696 
L 385.307911 255.418435 
L 384.518325 255.66887 
L 383.136549 255.66887 
L 382.149566 255.919304 
L 380.570394 255.418435 
L 378.596428 254.66713 
L 374.845893 252.162783 
L 370.503169 248.656696 
L 364.186479 242.646261 
L 359.054168 237.136696 
L 352.145288 229.373217 
L 348.59215 224.614957 
L 345.236408 220.357565 
L 342.078063 216.100174 
L 338.722322 211.341913 
L 335.36658 207.084522 
L 332.208235 202.576696 
L 326.286338 193.561043 
L 322.930596 188.552348 
L 320.364441 183.794087 
L 317.206096 178.284522 
L 314.442544 172.774957 
L 311.678992 167.515826 
L 303.980526 151.738435 
L 302.993543 149.234087 
L 300.624784 144.475826 
L 297.466439 137.463652 
L 293.715904 128.197565 
L 292.531525 125.943652 
L 290.162766 120.684522 
L 286.609628 110.416696 
L 284.043472 100.900174 
L 283.253886 96.642783 
L 283.05649 92.635826 
L 283.451283 89.129739 
L 283.648679 86.124522 
L 284.833059 83.620174 
L 287.399214 77.10887 
L 288.583593 75.355826 
L 288.78099 74.354087 
L 290.162766 68.844522 
L 290.162766 66.841043 
L 290.360163 65.839304 
L 289.965369 61.832348 
L 289.570576 60.079304 
L 289.37318 58.576696 
L 289.37318 57.324522 
L 288.978387 56.072348 
L 288.583593 55.321043 
L 288.1888 53.818435 
L 287.596611 53.568 
L 287.399214 54.06887 
L 287.004421 54.319304 
L 286.017438 55.571478 
L 285.820041 57.074087 
L 285.227852 58.576696 
L 284.833059 60.580174 
L 284.635662 65.088 
L 283.451283 74.854957 
L 282.4643 79.112348 
L 279.503351 94.138435 
L 277.924179 99.648 
L 276.345006 105.658435 
L 273.384058 118.430609 
L 271.607489 124.941913 
L 270.225713 132.204522 
L 268.449144 138.966261 
L 265.093402 159.251478 
L 263.119436 182.792348 
L 261.935057 192.559304 
L 260.750677 212.844522 
L 258.776712 233.630609 
L 257.000143 243.898435 
L 255.026177 254.416696 
L 252.460022 264.183652 
L 250.091263 273.700174 
L 247.525107 282.214957 
L 242.392797 295.488 
L 234.102141 295.488 
L 232.128175 294.486261 
L 230.549003 292.733217 
L 229.167227 290.22887 
L 228.575037 288.726261 
L 227.390657 284.969739 
L 226.798468 280.962783 
L 226.403675 275.703652 
L 226.403675 270.444522 
L 228.37764 251.161043 
L 229.956813 244.399304 
L 231.535985 237.136696 
L 233.904744 230.374957 
L 236.4709 223.613217 
L 237.852676 220.357565 
L 240.418831 213.345391 
L 243.379779 206.834087 
L 245.945935 200.072348 
L 248.314694 193.310609 
L 250.683452 187.049739 
L 252.657418 180.538435 
L 252.854815 173.776696 
L 250.288659 166.764522 
L 245.156349 158.750609 
L 239.037055 151.237565 
L 232.128175 144.726261 
L 226.206278 138.966261 
L 217.520829 131.703652 
L 215.546863 130.451478 
L 216.33645 131.453217 
L 219.100002 134.70887 
L 229.759416 146.22887 
L 238.444865 155.244522 
L 247.722504 164.260174 
L 258.776712 175.279304 
L 270.620506 187.300174 
L 283.253886 199.821913 
L 317.798285 236.134957 
L 336.353563 255.919304 
L 338.524925 257.672348 
L 338.919718 257.421913 
L 337.932735 255.66887 
L 336.353563 253.164522 
L 334.1822 250.159304 
L 327.470717 239.390609 
L 324.114976 234.632348 
L 320.561837 229.373217 
L 317.798285 224.865391 
L 316.021716 222.361043 
L 311.678992 216.851478 
L 302.796146 206.583652 
L 297.861232 201.324522 
L 292.728921 196.065391 
L 287.201817 190.806261 
L 274.765834 178.284522 
L 268.843937 171.773217 
L 265.488195 168.26713 
L 233.707348 133.957565 
L 219.494795 119.432348 
L 214.362484 114.674087 
L 209.822363 110.166261 
L 205.282242 106.159304 
L 200.742121 102.402783 
L 191.859275 95.641043 
L 184.160809 89.129739 
L 180.607671 86.374957 
L 176.857136 83.620174 
L 173.106601 81.115826 
L 169.75086 78.611478 
L 166.197722 76.357565 
L 163.236773 275.703652 
L 160.275825 277.70713 
L 157.907066 279.460174 
L 155.735704 280.712348 
L 153.761738 281.714087 
L 152.182565 282.715826 
L 150.998186 282.966261 
L 150.405996 282.966261 
L 150.2086 282.465391 
L 150.405996 281.463652 
L 150.800789 280.461913 
L 152.577358 278.208 
L 155.538307 275.202783 
L 155.9331 274.952348 
L 156.722686 274.201043 
L 157.709669 273.700174 
L 166.197722 268.190609 
L 167.776894 266.688 
L 171.527429 263.432348 
L 173.303998 261.679304 
L 177.054533 258.423652 
L 179.225895 256.921043 
L 183.173826 253.915826 
L 185.147792 252.663652 
L 186.924361 250.910609 
L 188.70093 249.408 
L 190.082706 247.905391 
L 190.872293 246.402783 
L 191.267086 245.150609 
L 191.464482 243.898435 
L 191.069689 242.646261 
L 189.88531 240.141913 
L 188.70093 239.140174 
L 187.516551 237.888 
L 185.937378 236.635826 
L 184.160809 235.634087 
L 182.38424 234.381913 
L 180.212878 233.380174 
L 177.844119 232.62887 
L 172.909205 229.623652 
L 170.343049 228.371478 
L 165.013342 225.366261 
L 162.052394 224.114087 
L 159.288842 222.361043 
L 156.327893 221.10887 
L 153.761738 219.105391 
L 150.800789 217.853217 
L 149.813806 216.851478 
L 146.852858 215.098435 
L 144.089306 212.594087 
L 141.523151 210.089739 
L 139.154392 207.585391 
L 136.588236 204.580174 
L 134.416874 201.324522 
L 132.245512 198.569739 
L 130.468943 195.063652 
L 130.468943 195.063652 
" clip-path="url(#p7ec6444c57)" style="fill: none; stroke: #ffa07a; stroke-width: 1.5; stroke-linecap: square"/>
   </g>
   <g id="line2d_9">
    <path d="M 229.56202 143.223652 
" clip-path="url(#p7ec6444c57)" style="fill: none; stroke: #ffa07a; stroke-width: 1.5; stroke-linecap: square"/>
    <defs>
     <path id="mf4518a0b0c" d="M 0 5 
C 1.326016 5 2.597899 4.473168 3.535534 3.535534 
C 4.473168 2.597899 5 1.326016 5 0 
C 5 -1.326016 4.473168 -2.597899 3.535534 -3.535534 
C 2.597899 -4.473168 1.326016 -5 0 -5 
C -1.326016 -5 -2.597899 -4.473168 -3.535534 -3.535534 
C -4.473168 -2.597899 -5 -1.326016 -5 0 
C -5 1.326016 -4.473168 2.597899 -3.535534 3.535534 
C -2.597899 4.473168 -1.326016 5 0 5 
z
" style="stroke: #ffa07a"/>
    </defs>
    <g clip-path="url(#p7ec6444c57)">
     <use xlink:href="#mf4518a0b0c" x="229.56202" y="143.223652" style="fill: #ffa07a; stroke: #ffa07a"/>
    </g>
   </g>
   <g id="line2d_10">
    <path d="M 130.468943 195.063652 
" clip-path="url(#p7ec6444c57)" style="fill: none; stroke: #ffa07a; stroke-width: 1.5; stroke-linecap: square"/>
    <defs>
     <path id="m21c5276407" d="M -5 5 
L 5 5 
L 5 -5 
L -5 -5 
z
" style="stroke: #ffa07a; stroke-linejoin: miter"/>
    </defs>
    <g clip-path="url(#p7ec6444c57)">
     <use xlink:href="#m21c5276407" x="130.468943" y="195.063652" style="fill: #ffa07a; stroke: #ffa07a; stroke-linejoin: miter"/>
    </g>
   </g>
   <g id="line2d_11">
    <path d="M 158.957423 224.144383 
" clip-path="url(#p7ec6444c57)" style="fill: none; stroke: #ff0000; stroke-width: 1.5; stroke-linecap: square"/>
    <defs>
     <path id="m46553e8fed" d="M -2.5 5 
L 0 2.5 
L 2.5 5 
L 5 2.5 
L 2.5 0 
L 5 -2.5 
L 2.5 -5 
L 0 -2.5 
L -2.5 -5 
L -5 -2.5 
L -2.5 0 
L -5 2.5 
z
" style="stroke: #ff0000; stroke-linejoin: miter"/>
    </defs>
    <g clip-path="url(#p7ec6444c57)">
     <use xlink:href="#m46553e8fed" x="158.957423" y="224.144383" style="fill: #ff0000; stroke: #ff0000; stroke-linejoin: miter"/>
    </g>
   </g>
   <g id="line2d_12">
    <path d="M 285.490701 240.751264 
" clip-path="url(#p7ec6444c57)" style="fill: none; stroke: #ffa07a; stroke-width: 1.5; stroke-linecap: square"/>
    <defs>
     <path id="m6bc04c7b46" d="M -2.5 5 
L 0 2.5 
L 2.5 5 
L 5 2.5 
L 2.5 0 
L 5 -2.5 
L 2.5 -5 
L 0 -2.5 
L -2.5 -5 
L -5 -2.5 
L -2.5 0 
L -5 2.5 
z
" style="stroke: #ffa07a; stroke-linejoin: miter"/>
    </defs>
    <g clip-path="url(#p7ec6444c57)">
     <use xlink:href="#m6bc04c7b46" x="285.490701" y="240.751264" style="fill: #ffa07a; stroke: #ffa07a; stroke-linejoin: miter"/>
    </g>
   </g>
   <g id="patch_3">
    <path d="M 57.6 307.584 
L 57.6 41.472 
" style="fill: none; stroke: #000000; stroke-width: 0.8; stroke-linejoin: miter; stroke-linecap: square"/>
   </g>
   <g id="patch_4">
    <path d="M 57.6 307.584 
L 414.72 307.584 
" style="fill: none; stroke: #000000; stroke-width: 0.8; stroke-linejoin: miter; stroke-linecap: square"/>
   </g>
   <g id="legend_1">
    <g id="patch_5">
     <path d="M 241.591875 141.54075 
L 404.22 141.54075 
Q 407.22 141.54075 407.22 138.54075 
L 407.22 51.972 
Q 407.22 48.972 404.22 48.972 
L 241.591875 48.972 
Q 238.591875 48.972 238.591875 51.972 
L 238.591875 138.54075 
Q 238.591875 141.54075 241.591875 141.54075 
z
" style="fill: #ffffff; opacity: 0.8; stroke: #cccccc; stroke-linejoin: miter"/>
    </g>
    <g id="line2d_13">
     <path d="M 244.591875 61.119656 
L 259.591875 61.119656 
L 274.591875 61.119656 
" style="fill: none; stroke: #000000; stroke-width: 1.5; stroke-linecap: square"/>
    </g>
    <g id="text_7">
     <!-- Trajectory -->
     <g transform="translate(286.591875 66.369656)scale(0.15 -0.15)">
      <defs>
       <path id="DejaVuSans-54" d="M -19 4666 
L 3928 4666 
L 3928 4134 
L 2272 4134 
L 2272 0 
L 1638 0 
L 1638 4134 
L -19 4134 
L -19 4666 
z
" transform="scale(0.015625)"/>
       <path id="DejaVuSans-72" d="M 2631 2963 
Q 2534 3019 2420 3045 
Q 2306 3072 2169 3072 
Q 1681 3072 1420 2755 
Q 1159 2438 1159 1844 
L 1159 0 
L 581 0 
L 581 3500 
L 1159 3500 
L 1159 2956 
Q 1341 3275 1631 3429 
Q 1922 3584 2338 3584 
Q 2397 3584 2469 3576 
Q 2541 3569 2628 3553 
L 2631 2963 
z
" transform="scale(0.015625)"/>
       <path id="DejaVuSans-61" d="M 2194 1759 
Q 1497 1759 1228 1600 
Q 959 1441 959 1056 
Q 959 750 1161 570 
Q 1363 391 1709 391 
Q 2188 391 2477 730 
Q 2766 1069 2766 1631 
L 2766 1759 
L 2194 1759 
z
M 3341 1997 
L 3341 0 
L 2766 0 
L 2766 531 
Q 2569 213 2275 61 
Q 1981 -91 1556 -91 
Q 1019 -91 701 211 
Q 384 513 384 1019 
Q 384 1609 779 1909 
Q 1175 2209 1959 2209 
L 2766 2209 
L 2766 2266 
Q 2766 2663 2505 2880 
Q 2244 3097 1772 3097 
Q 1472 3097 1187 3025 
Q 903 2953 641 2809 
L 641 3341 
Q 956 3463 1253 3523 
Q 1550 3584 1831 3584 
Q 2591 3584 2966 3190 
Q 3341 2797 3341 1997 
z
" transform="scale(0.015625)"/>
       <path id="DejaVuSans-6a" d="M 603 3500 
L 1178 3500 
L 1178 -63 
Q 1178 -731 923 -1031 
Q 669 -1331 103 -1331 
L -116 -1331 
L -116 -844 
L 38 -844 
Q 366 -844 484 -692 
Q 603 -541 603 -63 
L 603 3500 
z
M 603 4863 
L 1178 4863 
L 1178 4134 
L 603 4134 
L 603 4863 
z
" transform="scale(0.015625)"/>
       <path id="DejaVuSans-65" d="M 3597 1894 
L 3597 1613 
L 953 1613 
Q 991 1019 1311 708 
Q 1631 397 2203 397 
Q 2534 397 2845 478 
Q 3156 559 3463 722 
L 3463 178 
Q 3153 47 2828 -22 
Q 2503 -91 2169 -91 
Q 1331 -91 842 396 
Q 353 884 353 1716 
Q 353 2575 817 3079 
Q 1281 3584 2069 3584 
Q 2775 3584 3186 3129 
Q 3597 2675 3597 1894 
z
M 3022 2063 
Q 3016 2534 2758 2815 
Q 2500 3097 2075 3097 
Q 1594 3097 1305 2825 
Q 1016 2553 972 2059 
L 3022 2063 
z
" transform="scale(0.015625)"/>
       <path id="DejaVuSans-63" d="M 3122 3366 
L 3122 2828 
Q 2878 2963 2633 3030 
Q 2388 3097 2138 3097 
Q 1578 3097 1268 2742 
Q 959 2388 959 1747 
Q 959 1106 1268 751 
Q 1578 397 2138 397 
Q 2388 397 2633 464 
Q 2878 531 3122 666 
L 3122 134 
Q 2881 22 2623 -34 
Q 2366 -91 2075 -91 
Q 1284 -91 818 406 
Q 353 903 353 1747 
Q 353 2603 823 3093 
Q 1294 3584 2113 3584 
Q 2378 3584 2631 3529 
Q 2884 3475 3122 3366 
z
" transform="scale(0.015625)"/>
       <path id="DejaVuSans-74" d="M 1172 4494 
L 1172 3500 
L 2356 3500 
L 2356 3053 
L 1172 3053 
L 1172 1153 
Q 1172 725 1289 603 
Q 1406 481 1766 481 
L 2356 481 
L 2356 0 
L 1766 0 
Q 1100 0 847 248 
Q 594 497 594 1153 
L 594 3053 
L 172 3053 
L 172 3500 
L 594 3500 
L 594 4494 
L 1172 4494 
z
" transform="scale(0.015625)"/>
       <path id="DejaVuSans-6f" d="M 1959 3097 
Q 1497 3097 1228 2736 
Q 959 2375 959 1747 
Q 959 1119 1226 758 
Q 1494 397 1959 397 
Q 2419 397 2687 759 
Q 2956 1122 2956 1747 
Q 2956 2369 2687 2733 
Q 2419 3097 1959 3097 
z
M 1959 3584 
Q 2709 3584 3137 3096 
Q 3566 2609 3566 1747 
Q 3566 888 3137 398 
Q 2709 -91 1959 -91 
Q 1206 -91 779 398 
Q 353 888 353 1747 
Q 353 2609 779 3096 
Q 1206 3584 1959 3584 
z
" transform="scale(0.015625)"/>
       <path id="DejaVuSans-79" d="M 2059 -325 
Q 1816 -950 1584 -1140 
Q 1353 -1331 966 -1331 
L 506 -1331 
L 506 -850 
L 844 -850 
Q 1081 -850 1212 -737 
Q 1344 -625 1503 -206 
L 1606 56 
L 191 3500 
L 800 3500 
L 1894 763 
L 2988 3500 
L 3597 3500 
L 2059 -325 
z
" transform="scale(0.015625)"/>
      </defs>
      <use xlink:href="#DejaVuSans-54"/>
      <use xlink:href="#DejaVuSans-72" x="46.333984"/>
      <use xlink:href="#DejaVuSans-61" x="87.447266"/>
      <use xlink:href="#DejaVuSans-6a" x="148.726562"/>
      <use xlink:href="#DejaVuSans-65" x="176.509766"/>
      <use xlink:href="#DejaVuSans-63" x="238.033203"/>
      <use xlink:href="#DejaVuSans-74" x="293.013672"/>
      <use xlink:href="#DejaVuSans-6f" x="332.222656"/>
      <use xlink:href="#DejaVuSans-72" x="393.404297"/>
      <use xlink:href="#DejaVuSans-79" x="434.517578"/>
     </g>
    </g>
    <g id="line2d_14">
     <path d="M 244.591875 83.136844 
L 259.591875 83.136844 
L 274.591875 83.136844 
" style="fill: none; stroke: #000000; stroke-width: 1.5; stroke-linecap: square"/>
     <g>
      <use xlink:href="#m45054311ae" x="259.591875" y="83.136844" style="stroke: #000000"/>
     </g>
    </g>
    <g id="text_8">
     <!-- Start -->
     <g transform="translate(286.591875 88.386844)scale(0.15 -0.15)">
      <defs>
       <path id="DejaVuSans-53" d="M 3425 4513 
L 3425 3897 
Q 3066 4069 2747 4153 
Q 2428 4238 2131 4238 
Q 1616 4238 1336 4038 
Q 1056 3838 1056 3469 
Q 1056 3159 1242 3001 
Q 1428 2844 1947 2747 
L 2328 2669 
Q 3034 2534 3370 2195 
Q 3706 1856 3706 1288 
Q 3706 609 3251 259 
Q 2797 -91 1919 -91 
Q 1588 -91 1214 -16 
Q 841 59 441 206 
L 441 856 
Q 825 641 1194 531 
Q 1563 422 1919 422 
Q 2459 422 2753 634 
Q 3047 847 3047 1241 
Q 3047 1584 2836 1778 
Q 2625 1972 2144 2069 
L 1759 2144 
Q 1053 2284 737 2584 
Q 422 2884 422 3419 
Q 422 4038 858 4394 
Q 1294 4750 2059 4750 
Q 2388 4750 2728 4690 
Q 3069 4631 3425 4513 
z
" transform="scale(0.015625)"/>
      </defs>
      <use xlink:href="#DejaVuSans-53"/>
      <use xlink:href="#DejaVuSans-74" x="63.476562"/>
      <use xlink:href="#DejaVuSans-61" x="102.685547"/>
      <use xlink:href="#DejaVuSans-72" x="163.964844"/>
      <use xlink:href="#DejaVuSans-74" x="205.078125"/>
     </g>
    </g>
    <g id="line2d_15">
     <path d="M 244.591875 105.154031 
L 259.591875 105.154031 
L 274.591875 105.154031 
" style="fill: none; stroke: #000000; stroke-width: 1.5; stroke-linecap: square"/>
     <g>
      <use xlink:href="#m6bd5bcef43" x="259.591875" y="105.154031" style="stroke: #000000; stroke-linejoin: miter"/>
     </g>
    </g>
    <g id="text_9">
     <!-- End -->
     <g transform="translate(286.591875 110.404031)scale(0.15 -0.15)">
      <defs>
       <path id="DejaVuSans-45" d="M 628 4666 
L 3578 4666 
L 3578 4134 
L 1259 4134 
L 1259 2753 
L 3481 2753 
L 3481 2222 
L 1259 2222 
L 1259 531 
L 3634 531 
L 3634 0 
L 628 0 
L 628 4666 
z
" transform="scale(0.015625)"/>
       <path id="DejaVuSans-6e" d="M 3513 2113 
L 3513 0 
L 2938 0 
L 2938 2094 
Q 2938 2591 2744 2837 
Q 2550 3084 2163 3084 
Q 1697 3084 1428 2787 
Q 1159 2491 1159 1978 
L 1159 0 
L 581 0 
L 581 3500 
L 1159 3500 
L 1159 2956 
Q 1366 3272 1645 3428 
Q 1925 3584 2291 3584 
Q 2894 3584 3203 3211 
Q 3513 2838 3513 2113 
z
" transform="scale(0.015625)"/>
       <path id="DejaVuSans-64" d="M 2906 2969 
L 2906 4863 
L 3481 4863 
L 3481 0 
L 2906 0 
L 2906 525 
Q 2725 213 2448 61 
Q 2172 -91 1784 -91 
Q 1150 -91 751 415 
Q 353 922 353 1747 
Q 353 2572 751 3078 
Q 1150 3584 1784 3584 
Q 2172 3584 2448 3432 
Q 2725 3281 2906 2969 
z
M 947 1747 
Q 947 1113 1208 752 
Q 1469 391 1925 391 
Q 2381 391 2643 752 
Q 2906 1113 2906 1747 
Q 2906 2381 2643 2742 
Q 2381 3103 1925 3103 
Q 1469 3103 1208 2742 
Q 947 2381 947 1747 
z
" transform="scale(0.015625)"/>
      </defs>
      <use xlink:href="#DejaVuSans-45"/>
      <use xlink:href="#DejaVuSans-6e" x="63.183594"/>
      <use xlink:href="#DejaVuSans-64" x="126.5625"/>
     </g>
    </g>
    <g id="line2d_16">
     <path d="M 244.591875 127.171219 
L 259.591875 127.171219 
L 274.591875 127.171219 
" style="fill: none; stroke: #ff0000; stroke-width: 1.5; stroke-linecap: square"/>
     <g>
      <use xlink:href="#m46553e8fed" x="259.591875" y="127.171219" style="fill: #ff0000; stroke: #ff0000; stroke-linejoin: miter"/>
     </g>
    </g>
    <g id="text_10">
     <!-- Target Location -->
     <g transform="translate(286.591875 132.421219)scale(0.15 -0.15)">
      <defs>
       <path id="DejaVuSans-67" d="M 2906 1791 
Q 2906 2416 2648 2759 
Q 2391 3103 1925 3103 
Q 1463 3103 1205 2759 
Q 947 2416 947 1791 
Q 947 1169 1205 825 
Q 1463 481 1925 481 
Q 2391 481 2648 825 
Q 2906 1169 2906 1791 
z
M 3481 434 
Q 3481 -459 3084 -895 
Q 2688 -1331 1869 -1331 
Q 1566 -1331 1297 -1286 
Q 1028 -1241 775 -1147 
L 775 -588 
Q 1028 -725 1275 -790 
Q 1522 -856 1778 -856 
Q 2344 -856 2625 -561 
Q 2906 -266 2906 331 
L 2906 616 
Q 2728 306 2450 153 
Q 2172 0 1784 0 
Q 1141 0 747 490 
Q 353 981 353 1791 
Q 353 2603 747 3093 
Q 1141 3584 1784 3584 
Q 2172 3584 2450 3431 
Q 2728 3278 2906 2969 
L 2906 3500 
L 3481 3500 
L 3481 434 
z
" transform="scale(0.015625)"/>
       <path id="DejaVuSans-20" transform="scale(0.015625)"/>
       <path id="DejaVuSans-4c" d="M 628 4666 
L 1259 4666 
L 1259 531 
L 3531 531 
L 3531 0 
L 628 0 
L 628 4666 
z
" transform="scale(0.015625)"/>
       <path id="DejaVuSans-69" d="M 603 3500 
L 1178 3500 
L 1178 0 
L 603 0 
L 603 3500 
z
M 603 4863 
L 1178 4863 
L 1178 4134 
L 603 4134 
L 603 4863 
z
" transform="scale(0.015625)"/>
      </defs>
      <use xlink:href="#DejaVuSans-54"/>
      <use xlink:href="#DejaVuSans-61" x="44.583984"/>
      <use xlink:href="#DejaVuSans-72" x="105.863281"/>
      <use xlink:href="#DejaVuSans-67" x="145.226562"/>
      <use xlink:href="#DejaVuSans-65" x="208.703125"/>
      <use xlink:href="#DejaVuSans-74" x="270.226562"/>
      <use xlink:href="#DejaVuSans-20" x="309.435547"/>
      <use xlink:href="#DejaVuSans-4c" x="341.222656"/>
      <use xlink:href="#DejaVuSans-6f" x="395.185547"/>
      <use xlink:href="#DejaVuSans-63" x="456.367188"/>
      <use xlink:href="#DejaVuSans-61" x="511.347656"/>
      <use xlink:href="#DejaVuSans-74" x="572.626953"/>
      <use xlink:href="#DejaVuSans-69" x="611.835938"/>
      <use xlink:href="#DejaVuSans-6f" x="639.619141"/>
      <use xlink:href="#DejaVuSans-6e" x="700.800781"/>
     </g>
    </g>
   </g>
  </g>
 </g>
 <defs>
  <clipPath id="p7ec6444c57">
   <rect x="57.6" y="41.472" width="357.12" height="266.112"/>
  </clipPath>
 </defs>
</svg>
