<?xml version="1.0" encoding="utf-8" standalone="no"?>
<!DOCTYPE svg PUBLIC "-//W3C//DTD SVG 1.1//EN"
  "http://www.w3.org/Graphics/SVG/1.1/DTD/svg11.dtd">
<svg xmlns:xlink="http://www.w3.org/1999/xlink" width="460.8pt" height="345.6pt" viewBox="0 0 460.8 345.6" xmlns="http://www.w3.org/2000/svg" version="1.1">
 <metadata>
  <rdf:RDF xmlns:dc="http://purl.org/dc/elements/1.1/" xmlns:cc="http://creativecommons.org/ns#" xmlns:rdf="http://www.w3.org/1999/02/22-rdf-syntax-ns#">
   <cc:Work>
    <dc:type rdf:resource="http://purl.org/dc/dcmitype/StillImage"/>
    <dc:date>2024-02-21T13:17:52.877671</dc:date>
    <dc:format>image/svg+xml</dc:format>
    <dc:creator>
     <cc:Agent>
      <dc:title>Matplotlib v3.5.0, https://matplotlib.org/</dc:title>
     </cc:Agent>
    </dc:creator>
   </cc:Work>
  </rdf:RDF>
 </metadata>
 <defs>
  <style type="text/css">*{stroke-linejoin: round; stroke-linecap: butt}</style>
 </defs>
 <g id="figure_1">
  <g id="patch_1">
   <path d="M 0 345.6 
L 460.8 345.6 
L 460.8 0 
L 0 0 
z
" style="fill: #ffffff"/>
  </g>
  <g id="axes_1">
   <g id="patch_2">
    <path d="M 57.6 307.584 
L 414.72 307.584 
L 414.72 41.472 
L 57.6 41.472 
z
" style="fill: #ffffff"/>
   </g>
   <g id="matplotlib.axis_1">
    <g id="xtick_1">
     <g id="line2d_1">
      <defs>
       <path id="mb52a8b3559" d="M 0 0 
L 0 3.5 
" style="stroke: #000000; stroke-width: 0.8"/>
      </defs>
      <g>
       <use xlink:href="#mb52a8b3559" x="73.832727" y="307.584" style="stroke: #000000; stroke-width: 0.8"/>
      </g>
     </g>
     <g id="text_1">
      <!-- 0 -->
      <g transform="translate(67.470227 329.780875)scale(0.2 -0.2)">
       <defs>
        <path id="DejaVuSans-30" d="M 2034 4250 
Q 1547 4250 1301 3770 
Q 1056 3291 1056 2328 
Q 1056 1369 1301 889 
Q 1547 409 2034 409 
Q 2525 409 2770 889 
Q 3016 1369 3016 2328 
Q 3016 3291 2770 3770 
Q 2525 4250 2034 4250 
z
M 2034 4750 
Q 2819 4750 3233 4129 
Q 3647 3509 3647 2328 
Q 3647 1150 3233 529 
Q 2819 -91 2034 -91 
Q 1250 -91 836 529 
Q 422 1150 422 2328 
Q 422 3509 836 4129 
Q 1250 4750 2034 4750 
z
" transform="scale(0.015625)"/>
       </defs>
       <use xlink:href="#DejaVuSans-30"/>
      </g>
     </g>
    </g>
    <g id="xtick_2">
     <g id="line2d_2">
      <g>
       <use xlink:href="#mb52a8b3559" x="399.341627" y="307.584" style="stroke: #000000; stroke-width: 0.8"/>
      </g>
     </g>
     <g id="text_2">
      <!-- 1 -->
      <g transform="translate(392.979127 329.780875)scale(0.2 -0.2)">
       <defs>
        <path id="DejaVuSans-31" d="M 794 531 
L 1825 531 
L 1825 4091 
L 703 3866 
L 703 4441 
L 1819 4666 
L 2450 4666 
L 2450 531 
L 3481 531 
L 3481 0 
L 794 0 
L 794 531 
z
" transform="scale(0.015625)"/>
       </defs>
       <use xlink:href="#DejaVuSans-31"/>
      </g>
     </g>
    </g>
    <g id="text_3">
     <!-- Normalised X position -->
     <g transform="translate(111.795937 353.137125)scale(0.2 -0.2)">
      <defs>
       <path id="DejaVuSans-Bold-4e" d="M 588 4666 
L 1931 4666 
L 3628 1466 
L 3628 4666 
L 4769 4666 
L 4769 0 
L 3425 0 
L 1728 3200 
L 1728 0 
L 588 0 
L 588 4666 
z
" transform="scale(0.015625)"/>
       <path id="DejaVuSans-Bold-6f" d="M 2203 2784 
Q 1831 2784 1636 2517 
Q 1441 2250 1441 1747 
Q 1441 1244 1636 976 
Q 1831 709 2203 709 
Q 2569 709 2762 976 
Q 2956 1244 2956 1747 
Q 2956 2250 2762 2517 
Q 2569 2784 2203 2784 
z
M 2203 3584 
Q 3106 3584 3614 3096 
Q 4122 2609 4122 1747 
Q 4122 884 3614 396 
Q 3106 -91 2203 -91 
Q 1297 -91 786 396 
Q 275 884 275 1747 
Q 275 2609 786 3096 
Q 1297 3584 2203 3584 
z
" transform="scale(0.015625)"/>
       <path id="DejaVuSans-Bold-72" d="M 3138 2547 
Q 2991 2616 2845 2648 
Q 2700 2681 2553 2681 
Q 2122 2681 1889 2404 
Q 1656 2128 1656 1613 
L 1656 0 
L 538 0 
L 538 3500 
L 1656 3500 
L 1656 2925 
Q 1872 3269 2151 3426 
Q 2431 3584 2822 3584 
Q 2878 3584 2943 3579 
Q 3009 3575 3134 3559 
L 3138 2547 
z
" transform="scale(0.015625)"/>
       <path id="DejaVuSans-Bold-6d" d="M 3781 2919 
Q 3994 3244 4286 3414 
Q 4578 3584 4928 3584 
Q 5531 3584 5847 3212 
Q 6163 2841 6163 2131 
L 6163 0 
L 5038 0 
L 5038 1825 
Q 5041 1866 5042 1909 
Q 5044 1953 5044 2034 
Q 5044 2406 4934 2573 
Q 4825 2741 4581 2741 
Q 4263 2741 4089 2478 
Q 3916 2216 3909 1719 
L 3909 0 
L 2784 0 
L 2784 1825 
Q 2784 2406 2684 2573 
Q 2584 2741 2328 2741 
Q 2006 2741 1831 2477 
Q 1656 2213 1656 1722 
L 1656 0 
L 531 0 
L 531 3500 
L 1656 3500 
L 1656 2988 
Q 1863 3284 2130 3434 
Q 2397 3584 2719 3584 
Q 3081 3584 3359 3409 
Q 3638 3234 3781 2919 
z
" transform="scale(0.015625)"/>
       <path id="DejaVuSans-Bold-61" d="M 2106 1575 
Q 1756 1575 1579 1456 
Q 1403 1338 1403 1106 
Q 1403 894 1545 773 
Q 1688 653 1941 653 
Q 2256 653 2472 879 
Q 2688 1106 2688 1447 
L 2688 1575 
L 2106 1575 
z
M 3816 1997 
L 3816 0 
L 2688 0 
L 2688 519 
Q 2463 200 2181 54 
Q 1900 -91 1497 -91 
Q 953 -91 614 226 
Q 275 544 275 1050 
Q 275 1666 698 1953 
Q 1122 2241 2028 2241 
L 2688 2241 
L 2688 2328 
Q 2688 2594 2478 2717 
Q 2269 2841 1825 2841 
Q 1466 2841 1156 2769 
Q 847 2697 581 2553 
L 581 3406 
Q 941 3494 1303 3539 
Q 1666 3584 2028 3584 
Q 2975 3584 3395 3211 
Q 3816 2838 3816 1997 
z
" transform="scale(0.015625)"/>
       <path id="DejaVuSans-Bold-6c" d="M 538 4863 
L 1656 4863 
L 1656 0 
L 538 0 
L 538 4863 
z
" transform="scale(0.015625)"/>
       <path id="DejaVuSans-Bold-69" d="M 538 3500 
L 1656 3500 
L 1656 0 
L 538 0 
L 538 3500 
z
M 538 4863 
L 1656 4863 
L 1656 3950 
L 538 3950 
L 538 4863 
z
" transform="scale(0.015625)"/>
       <path id="DejaVuSans-Bold-73" d="M 3272 3391 
L 3272 2541 
Q 2913 2691 2578 2766 
Q 2244 2841 1947 2841 
Q 1628 2841 1473 2761 
Q 1319 2681 1319 2516 
Q 1319 2381 1436 2309 
Q 1553 2238 1856 2203 
L 2053 2175 
Q 2913 2066 3209 1816 
Q 3506 1566 3506 1031 
Q 3506 472 3093 190 
Q 2681 -91 1863 -91 
Q 1516 -91 1145 -36 
Q 775 19 384 128 
L 384 978 
Q 719 816 1070 734 
Q 1422 653 1784 653 
Q 2113 653 2278 743 
Q 2444 834 2444 1013 
Q 2444 1163 2330 1236 
Q 2216 1309 1875 1350 
L 1678 1375 
Q 931 1469 631 1722 
Q 331 1975 331 2491 
Q 331 3047 712 3315 
Q 1094 3584 1881 3584 
Q 2191 3584 2531 3537 
Q 2872 3491 3272 3391 
z
" transform="scale(0.015625)"/>
       <path id="DejaVuSans-Bold-65" d="M 4031 1759 
L 4031 1441 
L 1416 1441 
Q 1456 1047 1700 850 
Q 1944 653 2381 653 
Q 2734 653 3104 758 
Q 3475 863 3866 1075 
L 3866 213 
Q 3469 63 3072 -14 
Q 2675 -91 2278 -91 
Q 1328 -91 801 392 
Q 275 875 275 1747 
Q 275 2603 792 3093 
Q 1309 3584 2216 3584 
Q 3041 3584 3536 3087 
Q 4031 2591 4031 1759 
z
M 2881 2131 
Q 2881 2450 2695 2645 
Q 2509 2841 2209 2841 
Q 1884 2841 1681 2658 
Q 1478 2475 1428 2131 
L 2881 2131 
z
" transform="scale(0.015625)"/>
       <path id="DejaVuSans-Bold-64" d="M 2919 2988 
L 2919 4863 
L 4044 4863 
L 4044 0 
L 2919 0 
L 2919 506 
Q 2688 197 2409 53 
Q 2131 -91 1766 -91 
Q 1119 -91 703 423 
Q 288 938 288 1747 
Q 288 2556 703 3070 
Q 1119 3584 1766 3584 
Q 2128 3584 2408 3439 
Q 2688 3294 2919 2988 
z
M 2181 722 
Q 2541 722 2730 984 
Q 2919 1247 2919 1747 
Q 2919 2247 2730 2509 
Q 2541 2772 2181 2772 
Q 1825 2772 1636 2509 
Q 1447 2247 1447 1747 
Q 1447 1247 1636 984 
Q 1825 722 2181 722 
z
" transform="scale(0.015625)"/>
       <path id="DejaVuSans-Bold-20" transform="scale(0.015625)"/>
       <path id="DejaVuSans-Bold-58" d="M 3188 2381 
L 4806 0 
L 3553 0 
L 2463 1594 
L 1381 0 
L 122 0 
L 1741 2381 
L 184 4666 
L 1441 4666 
L 2463 3163 
L 3481 4666 
L 4744 4666 
L 3188 2381 
z
" transform="scale(0.015625)"/>
       <path id="DejaVuSans-Bold-70" d="M 1656 506 
L 1656 -1331 
L 538 -1331 
L 538 3500 
L 1656 3500 
L 1656 2988 
Q 1888 3294 2169 3439 
Q 2450 3584 2816 3584 
Q 3463 3584 3878 3070 
Q 4294 2556 4294 1747 
Q 4294 938 3878 423 
Q 3463 -91 2816 -91 
Q 2450 -91 2169 54 
Q 1888 200 1656 506 
z
M 2400 2772 
Q 2041 2772 1848 2508 
Q 1656 2244 1656 1747 
Q 1656 1250 1848 986 
Q 2041 722 2400 722 
Q 2759 722 2948 984 
Q 3138 1247 3138 1747 
Q 3138 2247 2948 2509 
Q 2759 2772 2400 2772 
z
" transform="scale(0.015625)"/>
       <path id="DejaVuSans-Bold-74" d="M 1759 4494 
L 1759 3500 
L 2913 3500 
L 2913 2700 
L 1759 2700 
L 1759 1216 
Q 1759 972 1856 886 
Q 1953 800 2241 800 
L 2816 800 
L 2816 0 
L 1856 0 
Q 1194 0 917 276 
Q 641 553 641 1216 
L 641 2700 
L 84 2700 
L 84 3500 
L 641 3500 
L 641 4494 
L 1759 4494 
z
" transform="scale(0.015625)"/>
       <path id="DejaVuSans-Bold-6e" d="M 4056 2131 
L 4056 0 
L 2931 0 
L 2931 347 
L 2931 1631 
Q 2931 2084 2911 2256 
Q 2891 2428 2841 2509 
Q 2775 2619 2662 2680 
Q 2550 2741 2406 2741 
Q 2056 2741 1856 2470 
Q 1656 2200 1656 1722 
L 1656 0 
L 538 0 
L 538 3500 
L 1656 3500 
L 1656 2988 
Q 1909 3294 2193 3439 
Q 2478 3584 2822 3584 
Q 3428 3584 3742 3212 
Q 4056 2841 4056 2131 
z
" transform="scale(0.015625)"/>
      </defs>
      <use xlink:href="#DejaVuSans-Bold-4e"/>
      <use xlink:href="#DejaVuSans-Bold-6f" x="83.691406"/>
      <use xlink:href="#DejaVuSans-Bold-72" x="152.392578"/>
      <use xlink:href="#DejaVuSans-Bold-6d" x="201.708984"/>
      <use xlink:href="#DejaVuSans-Bold-61" x="305.908203"/>
      <use xlink:href="#DejaVuSans-Bold-6c" x="373.388672"/>
      <use xlink:href="#DejaVuSans-Bold-69" x="407.666016"/>
      <use xlink:href="#DejaVuSans-Bold-73" x="441.943359"/>
      <use xlink:href="#DejaVuSans-Bold-65" x="501.464844"/>
      <use xlink:href="#DejaVuSans-Bold-64" x="569.287109"/>
      <use xlink:href="#DejaVuSans-Bold-20" x="640.869141"/>
      <use xlink:href="#DejaVuSans-Bold-58" x="675.683594"/>
      <use xlink:href="#DejaVuSans-Bold-20" x="752.783203"/>
      <use xlink:href="#DejaVuSans-Bold-70" x="787.597656"/>
      <use xlink:href="#DejaVuSans-Bold-6f" x="859.179688"/>
      <use xlink:href="#DejaVuSans-Bold-73" x="927.880859"/>
      <use xlink:href="#DejaVuSans-Bold-69" x="987.402344"/>
      <use xlink:href="#DejaVuSans-Bold-74" x="1021.679688"/>
      <use xlink:href="#DejaVuSans-Bold-69" x="1069.482422"/>
      <use xlink:href="#DejaVuSans-Bold-6f" x="1103.759766"/>
      <use xlink:href="#DejaVuSans-Bold-6e" x="1172.460938"/>
     </g>
    </g>
   </g>
   <g id="matplotlib.axis_2">
    <g id="ytick_1">
     <g id="line2d_3">
      <defs>
       <path id="m1433117916" d="M 0 0 
L -3.5 0 
" style="stroke: #000000; stroke-width: 0.8"/>
      </defs>
      <g>
       <use xlink:href="#m1433117916" x="57.6" y="295.488" style="stroke: #000000; stroke-width: 0.8"/>
      </g>
     </g>
     <g id="text_4">
      <!-- 0 -->
      <g transform="translate(37.875 303.086437)scale(0.2 -0.2)">
       <use xlink:href="#DejaVuSans-30"/>
      </g>
     </g>
    </g>
    <g id="ytick_2">
     <g id="line2d_4">
      <g>
       <use xlink:href="#m1433117916" x="57.6" y="53.568" style="stroke: #000000; stroke-width: 0.8"/>
      </g>
     </g>
     <g id="text_5">
      <!-- 1 -->
      <g transform="translate(37.875 61.166438)scale(0.2 -0.2)">
       <use xlink:href="#DejaVuSans-31"/>
      </g>
     </g>
    </g>
    <g id="text_6">
     <!-- Normalised Y position -->
     <g transform="translate(29.715625 298.423313)rotate(-90)scale(0.2 -0.2)">
      <defs>
       <path id="DejaVuSans-Bold-59" d="M -63 4666 
L 1253 4666 
L 2316 3003 
L 3378 4666 
L 4697 4666 
L 2919 1966 
L 2919 0 
L 1716 0 
L 1716 1966 
L -63 4666 
z
" transform="scale(0.015625)"/>
      </defs>
      <use xlink:href="#DejaVuSans-Bold-4e"/>
      <use xlink:href="#DejaVuSans-Bold-6f" x="83.691406"/>
      <use xlink:href="#DejaVuSans-Bold-72" x="152.392578"/>
      <use xlink:href="#DejaVuSans-Bold-6d" x="201.708984"/>
      <use xlink:href="#DejaVuSans-Bold-61" x="305.908203"/>
      <use xlink:href="#DejaVuSans-Bold-6c" x="373.388672"/>
      <use xlink:href="#DejaVuSans-Bold-69" x="407.666016"/>
      <use xlink:href="#DejaVuSans-Bold-73" x="441.943359"/>
      <use xlink:href="#DejaVuSans-Bold-65" x="501.464844"/>
      <use xlink:href="#DejaVuSans-Bold-64" x="569.287109"/>
      <use xlink:href="#DejaVuSans-Bold-20" x="640.869141"/>
      <use xlink:href="#DejaVuSans-Bold-59" x="675.683594"/>
      <use xlink:href="#DejaVuSans-Bold-20" x="748.095703"/>
      <use xlink:href="#DejaVuSans-Bold-70" x="782.910156"/>
      <use xlink:href="#DejaVuSans-Bold-6f" x="854.492188"/>
      <use xlink:href="#DejaVuSans-Bold-73" x="923.193359"/>
      <use xlink:href="#DejaVuSans-Bold-69" x="982.714844"/>
      <use xlink:href="#DejaVuSans-Bold-74" x="1016.992188"/>
      <use xlink:href="#DejaVuSans-Bold-69" x="1064.794922"/>
      <use xlink:href="#DejaVuSans-Bold-6f" x="1099.072266"/>
      <use xlink:href="#DejaVuSans-Bold-6e" x="1167.773438"/>
     </g>
    </g>
   </g>
   <g id="line2d_5">
    <path d="M 236.16 173.823379 
L 73.832727 53.568 
L 73.832727 53.568 
L 73.832727 294.313631 
L 73.832727 255.324583 
" clip-path="url(#p88b25fc0fb)" style="fill: none; stroke: #000000; stroke-width: 1.5; stroke-linecap: square"/>
   </g>
   <g id="line2d_6">
    <path d="M 236.16 173.823379 
" clip-path="url(#p88b25fc0fb)" style="fill: none; stroke: #000000; stroke-width: 1.5; stroke-linecap: square"/>
    <defs>
     <path id="m45b62b3793" d="M 0 5 
C 1.326016 5 2.597899 4.473168 3.535534 3.535534 
C 4.473168 2.597899 5 1.326016 5 0 
C 5 -1.326016 4.473168 -2.597899 3.535534 -3.535534 
C 2.597899 -4.473168 1.326016 -5 0 -5 
C -1.326016 -5 -2.597899 -4.473168 -3.535534 -3.535534 
C -4.473168 -2.597899 -5 -1.326016 -5 0 
C -5 1.326016 -4.473168 2.597899 -3.535534 3.535534 
C -2.597899 4.473168 -1.326016 5 0 5 
z
" style="stroke: #000000"/>
    </defs>
    <g clip-path="url(#p88b25fc0fb)">
     <use xlink:href="#m45b62b3793" x="236.16" y="173.823379" style="stroke: #000000"/>
    </g>
   </g>
   <g id="line2d_7">
    <path d="M 73.832727 255.324583 
" clip-path="url(#p88b25fc0fb)" style="fill: none; stroke: #000000; stroke-width: 1.5; stroke-linecap: square"/>
    <defs>
     <path id="me5b31ef269" d="M -5 5 
L 5 5 
L 5 -5 
L -5 -5 
z
" style="stroke: #000000; stroke-linejoin: miter"/>
    </defs>
    <g clip-path="url(#p88b25fc0fb)">
     <use xlink:href="#me5b31ef269" x="73.832727" y="255.324583" style="stroke: #000000; stroke-linejoin: miter"/>
    </g>
   </g>
   <g id="line2d_8">
    <path d="M 73.832727 176.172117 
L 73.832727 295.488 
L 73.832727 53.568 
L 73.832727 53.568 
L 227.445589 53.568 
L 74.516211 53.568 
" clip-path="url(#p88b25fc0fb)" style="fill: none; stroke: #ffa07a; stroke-width: 1.5; stroke-linecap: square"/>
   </g>
   <g id="line2d_9">
    <path d="M 73.832727 176.172117 
" clip-path="url(#p88b25fc0fb)" style="fill: none; stroke: #ffa07a; stroke-width: 1.5; stroke-linecap: square"/>
    <defs>
     <path id="mbea3f66820" d="M 0 5 
C 1.326016 5 2.597899 4.473168 3.535534 3.535534 
C 4.473168 2.597899 5 1.326016 5 0 
C 5 -1.326016 4.473168 -2.597899 3.535534 -3.535534 
C 2.597899 -4.473168 1.326016 -5 0 -5 
C -1.326016 -5 -2.597899 -4.473168 -3.535534 -3.535534 
C -4.473168 -2.597899 -5 -1.326016 -5 0 
C -5 1.326016 -4.473168 2.597899 -3.535534 3.535534 
C -2.597899 4.473168 -1.326016 5 0 5 
z
" style="stroke: #ffa07a"/>
    </defs>
    <g clip-path="url(#p88b25fc0fb)">
     <use xlink:href="#mbea3f66820" x="73.832727" y="176.172117" style="fill: #ffa07a; stroke: #ffa07a"/>
    </g>
   </g>
   <g id="line2d_10">
    <path d="M 74.516211 53.568 
" clip-path="url(#p88b25fc0fb)" style="fill: none; stroke: #ffa07a; stroke-width: 1.5; stroke-linecap: square"/>
    <defs>
     <path id="m77674efcc3" d="M -5 5 
L 5 5 
L 5 -5 
L -5 -5 
z
" style="stroke: #ffa07a; stroke-linejoin: miter"/>
    </defs>
    <g clip-path="url(#p88b25fc0fb)">
     <use xlink:href="#m77674efcc3" x="74.516211" y="53.568" style="fill: #ffa07a; stroke: #ffa07a; stroke-linejoin: miter"/>
    </g>
   </g>
   <g id="line2d_11">
    <path d="M 73.832727 295.488 
L 227.445589 295.488 
L 74.516211 295.488 
L 74.34534 53.568 
L 73.832727 53.568 
L 73.832727 53.568 
L 73.832727 78.464621 
L 73.832727 53.568 
L 373.198392 53.568 
L 73.832727 53.568 
L 73.832727 294.313631 
L 73.832727 134.364583 
" clip-path="url(#p88b25fc0fb)" style="fill: none; stroke: #0000ff; stroke-width: 1.5; stroke-linecap: square"/>
   </g>
   <g id="line2d_12">
    <path d="M 73.832727 295.488 
" clip-path="url(#p88b25fc0fb)" style="fill: none; stroke: #0000ff; stroke-width: 1.5; stroke-linecap: square"/>
    <defs>
     <path id="m66febb3f2b" d="M 0 5 
C 1.326016 5 2.597899 4.473168 3.535534 3.535534 
C 4.473168 2.597899 5 1.326016 5 0 
C 5 -1.326016 4.473168 -2.597899 3.535534 -3.535534 
C 2.597899 -4.473168 1.326016 -5 0 -5 
C -1.326016 -5 -2.597899 -4.473168 -3.535534 -3.535534 
C -4.473168 -2.597899 -5 -1.326016 -5 0 
C -5 1.326016 -4.473168 2.597899 -3.535534 3.535534 
C -2.597899 4.473168 -1.326016 5 0 5 
z
" style="stroke: #0000ff"/>
    </defs>
    <g clip-path="url(#p88b25fc0fb)">
     <use xlink:href="#m66febb3f2b" x="73.832727" y="295.488" style="fill: #0000ff; stroke: #0000ff"/>
    </g>
   </g>
   <g id="line2d_13">
    <path d="M 73.832727 134.364583 
" clip-path="url(#p88b25fc0fb)" style="fill: none; stroke: #0000ff; stroke-width: 1.5; stroke-linecap: square"/>
    <defs>
     <path id="mb4aecb3fbc" d="M -5 5 
L 5 5 
L 5 -5 
L -5 -5 
z
" style="stroke: #0000ff; stroke-linejoin: miter"/>
    </defs>
    <g clip-path="url(#p88b25fc0fb)">
     <use xlink:href="#mb4aecb3fbc" x="73.832727" y="134.364583" style="fill: #0000ff; stroke: #0000ff; stroke-linejoin: miter"/>
    </g>
   </g>
   <g id="line2d_14">
    <path d="M 73.832727 233.716194 
L 73.832727 295.488 
L 73.832727 53.568 
L 73.832727 291.730019 
L 138.763636 293.374136 
L 203.011062 294.078757 
L 398.487273 294.313631 
L 346.713416 294.313631 
L 81.863656 294.313631 
L 77.762756 267.538019 
L 75.712306 237.943922 
L 74.687081 216.10066 
L 73.832727 182.748583 
L 73.832727 174.058252 
L 73.832727 293.139262 
L 125.435713 293.843883 
L 253.759694 294.313631 
L 398.487273 294.313631 
L 74.34534 294.313631 
L 74.174469 288.206913 
L 74.003598 288.206913 
L 73.832727 283.979184 
L 73.832727 77.290252 
L 73.832727 294.313631 
L 73.832727 291.495146 
L 89.381971 293.374136 
L 151.237206 294.078757 
L 221.294239 294.313631 
L 395.924211 294.313631 
L 395.924211 294.313631 
" clip-path="url(#p88b25fc0fb)" style="fill: none; stroke: #00fa9a; stroke-width: 1.5; stroke-linecap: square"/>
   </g>
   <g id="line2d_15">
    <path d="M 73.832727 233.716194 
" clip-path="url(#p88b25fc0fb)" style="fill: none; stroke: #00fa9a; stroke-width: 1.5; stroke-linecap: square"/>
    <defs>
     <path id="m81a5f59021" d="M 0 5 
C 1.326016 5 2.597899 4.473168 3.535534 3.535534 
C 4.473168 2.597899 5 1.326016 5 0 
C 5 -1.326016 4.473168 -2.597899 3.535534 -3.535534 
C 2.597899 -4.473168 1.326016 -5 0 -5 
C -1.326016 -5 -2.597899 -4.473168 -3.535534 -3.535534 
C -4.473168 -2.597899 -5 -1.326016 -5 0 
C -5 1.326016 -4.473168 2.597899 -3.535534 3.535534 
C -2.597899 4.473168 -1.326016 5 0 5 
z
" style="stroke: #00fa9a"/>
    </defs>
    <g clip-path="url(#p88b25fc0fb)">
     <use xlink:href="#m81a5f59021" x="73.832727" y="233.716194" style="fill: #00fa9a; stroke: #00fa9a"/>
    </g>
   </g>
   <g id="line2d_16">
    <path d="M 395.924211 294.313631 
" clip-path="url(#p88b25fc0fb)" style="fill: none; stroke: #00fa9a; stroke-width: 1.5; stroke-linecap: square"/>
    <defs>
     <path id="m6d0b0f15c6" d="M -5 5 
L 5 5 
L 5 -5 
L -5 -5 
z
" style="stroke: #00fa9a; stroke-linejoin: miter"/>
    </defs>
    <g clip-path="url(#p88b25fc0fb)">
     <use xlink:href="#m6d0b0f15c6" x="395.924211" y="294.313631" style="fill: #00fa9a; stroke: #00fa9a; stroke-linejoin: miter"/>
    </g>
   </g>
   <g id="line2d_17">
    <path d="M 73.832727 86.685204 
L 73.832727 271.765748 
L 73.832727 57.560854 
L 89.381971 55.681864 
L 151.237206 54.977243 
L 221.294239 54.742369 
L 395.924211 54.742369 
L 397.291177 294.313631 
L 398.487273 294.313631 
L 139.959732 294.313631 
L 106.127311 256.498951 
L 89.552842 219.154019 
L 81.521914 189.559922 
L 74.003598 151.040621 
L 74.003598 155.503223 
L 73.832727 165.367922 
L 73.832727 122.855767 
L 73.832727 290.790524 
L 150.211981 293.139262 
L 178.405665 293.843883 
L 269.82155 294.313631 
L 318.348861 294.313631 
L 73.832727 294.313631 
L 73.832727 294.313631 
L 73.832727 53.568 
L 73.832727 53.568 
L 269.82155 53.568 
L 87.502392 53.568 
" clip-path="url(#p88b25fc0fb)" style="fill: none; stroke: #008000; stroke-width: 1.5; stroke-linecap: square"/>
   </g>
   <g id="line2d_18">
    <path d="M 73.832727 86.685204 
" clip-path="url(#p88b25fc0fb)" style="fill: none; stroke: #008000; stroke-width: 1.5; stroke-linecap: square"/>
    <defs>
     <path id="m926b9dd976" d="M 0 5 
C 1.326016 5 2.597899 4.473168 3.535534 3.535534 
C 4.473168 2.597899 5 1.326016 5 0 
C 5 -1.326016 4.473168 -2.597899 3.535534 -3.535534 
C 2.597899 -4.473168 1.326016 -5 0 -5 
C -1.326016 -5 -2.597899 -4.473168 -3.535534 -3.535534 
C -4.473168 -2.597899 -5 -1.326016 -5 0 
C -5 1.326016 -4.473168 2.597899 -3.535534 3.535534 
C -2.597899 4.473168 -1.326016 5 0 5 
z
" style="stroke: #008000"/>
    </defs>
    <g clip-path="url(#p88b25fc0fb)">
     <use xlink:href="#m926b9dd976" x="73.832727" y="86.685204" style="fill: #008000; stroke: #008000"/>
    </g>
   </g>
   <g id="line2d_19">
    <path d="M 87.502392 53.568 
" clip-path="url(#p88b25fc0fb)" style="fill: none; stroke: #008000; stroke-width: 1.5; stroke-linecap: square"/>
    <defs>
     <path id="m9affa115e8" d="M -5 5 
L 5 5 
L 5 -5 
L -5 -5 
z
" style="stroke: #008000; stroke-linejoin: miter"/>
    </defs>
    <g clip-path="url(#p88b25fc0fb)">
     <use xlink:href="#m9affa115e8" x="87.502392" y="53.568" style="fill: #008000; stroke: #008000; stroke-linejoin: miter"/>
    </g>
   </g>
   <g id="line2d_20">
    <path d="M 225.224268 295.488 
L 87.502392 295.488 
L 87.160651 53.568 
L 314.760574 53.568 
L 73.832727 53.568 
L 73.832727 53.568 
L 73.832727 294.313631 
L 73.832727 294.313631 
" clip-path="url(#p88b25fc0fb)" style="fill: none; stroke: #ffd700; stroke-width: 1.5; stroke-linecap: square"/>
   </g>
   <g id="line2d_21">
    <path d="M 225.224268 295.488 
" clip-path="url(#p88b25fc0fb)" style="fill: none; stroke: #ffd700; stroke-width: 1.5; stroke-linecap: square"/>
    <defs>
     <path id="m6c7c98305e" d="M 0 5 
C 1.326016 5 2.597899 4.473168 3.535534 3.535534 
C 4.473168 2.597899 5 1.326016 5 0 
C 5 -1.326016 4.473168 -2.597899 3.535534 -3.535534 
C 2.597899 -4.473168 1.326016 -5 0 -5 
C -1.326016 -5 -2.597899 -4.473168 -3.535534 -3.535534 
C -4.473168 -2.597899 -5 -1.326016 -5 0 
C -5 1.326016 -4.473168 2.597899 -3.535534 3.535534 
C -2.597899 4.473168 -1.326016 5 0 5 
z
" style="stroke: #ffd700"/>
    </defs>
    <g clip-path="url(#p88b25fc0fb)">
     <use xlink:href="#m6c7c98305e" x="225.224268" y="295.488" style="fill: #ffd700; stroke: #ffd700"/>
    </g>
   </g>
   <g id="line2d_22">
    <path d="M 73.832727 294.313631 
" clip-path="url(#p88b25fc0fb)" style="fill: none; stroke: #ffd700; stroke-width: 1.5; stroke-linecap: square"/>
    <defs>
     <path id="mc8b7492a7c" d="M -5 5 
L 5 5 
L 5 -5 
L -5 -5 
z
" style="stroke: #ffd700; stroke-linejoin: miter"/>
    </defs>
    <g clip-path="url(#p88b25fc0fb)">
     <use xlink:href="#mc8b7492a7c" x="73.832727" y="294.313631" style="fill: #ffd700; stroke: #ffd700; stroke-linejoin: miter"/>
    </g>
   </g>
   <g id="line2d_23">
    <path d="M 73.832727 168.186408 
L 73.832727 53.568 
L 73.832727 294.313631 
L 73.832727 57.795728 
" clip-path="url(#p88b25fc0fb)" style="fill: none; stroke: #800080; stroke-width: 1.5; stroke-linecap: square"/>
   </g>
   <g id="line2d_24">
    <path d="M 73.832727 168.186408 
" clip-path="url(#p88b25fc0fb)" style="fill: none; stroke: #800080; stroke-width: 1.5; stroke-linecap: square"/>
    <defs>
     <path id="m118690ad04" d="M 0 5 
C 1.326016 5 2.597899 4.473168 3.535534 3.535534 
C 4.473168 2.597899 5 1.326016 5 0 
C 5 -1.326016 4.473168 -2.597899 3.535534 -3.535534 
C 2.597899 -4.473168 1.326016 -5 0 -5 
C -1.326016 -5 -2.597899 -4.473168 -3.535534 -3.535534 
C -4.473168 -2.597899 -5 -1.326016 -5 0 
C -5 1.326016 -4.473168 2.597899 -3.535534 3.535534 
C -2.597899 4.473168 -1.326016 5 0 5 
z
" style="stroke: #800080"/>
    </defs>
    <g clip-path="url(#p88b25fc0fb)">
     <use xlink:href="#m118690ad04" x="73.832727" y="168.186408" style="fill: #800080; stroke: #800080"/>
    </g>
   </g>
   <g id="line2d_25">
    <path d="M 73.832727 57.795728 
" clip-path="url(#p88b25fc0fb)" style="fill: none; stroke: #800080; stroke-width: 1.5; stroke-linecap: square"/>
    <defs>
     <path id="m3ecb8cc69c" d="M -5 5 
L 5 5 
L 5 -5 
L -5 -5 
z
" style="stroke: #800080; stroke-linejoin: miter"/>
    </defs>
    <g clip-path="url(#p88b25fc0fb)">
     <use xlink:href="#m3ecb8cc69c" x="73.832727" y="57.795728" style="fill: #800080; stroke: #800080; stroke-linejoin: miter"/>
    </g>
   </g>
   <g id="line2d_26">
    <path d="M 73.832727 295.488 
L 73.832727 53.568 
L 73.832727 59.439845 
L 162.172938 83.162097 
L 281.269895 107.588971 
L 341.416421 128.02299 
L 370.63533 144.229282 
L 384.988478 156.677592 
L 395.240727 169.360777 
L 396.949435 171.004893 
L 397.803789 172.64901 
L 398.145531 175.467495 
L 398.316402 178.755728 
L 398.316402 178.285981 
L 398.487273 174.293126 
L 398.487273 141.175922 
L 396.607694 137.183068 
L 353.206507 127.553243 
L 324.32934 121.446524 
L 290.496919 114.870058 
L 261.961493 108.998214 
L 237.526967 103.361243 
L 225.56601 100.307883 
L 223.002947 98.898641 
L 220.781627 98.428893 
L 192.246201 95.610408 
L 164.565129 91.617553 
L 124.410488 85.275961 
L 109.886469 83.396971 
L 93.141129 81.048233 
L 83.230622 77.525126 
L 78.446239 76.115883 
L 74.857952 72.82765 
L 74.34534 71.888155 
L 73.832727 69.774291 
L 73.832727 72.123029 
L 83.914105 74.471767 
L 97.071158 77.055379 
L 159.439005 91.147806 
L 192.929684 98.898641 
L 205.232383 101.482252 
L 211.896344 102.186874 
L 221.977722 104.535612 
L 231.033876 107.588971 
L 229.83778 108.058718 
L 220.098144 106.179728 
L 210.87112 103.596117 
L 207.282833 102.891495 
L 217.705952 108.058718 
L 220.439885 109.937709 
L 220.952498 110.877204 
L 219.585531 110.877204 
L 217.535081 110.64233 
L 217.364211 111.346951 
L 218.902048 112.756194 
L 217.19334 113.225942 
L 218.218565 114.165437 
L 217.364211 114.635184 
L 215.484632 114.870058 
L 209.162411 114.400311 
L 209.333282 115.57468 
L 209.333282 116.983922 
L 208.82067 118.628039 
L 208.82067 120.272155 
L 208.649799 122.620893 
L 206.941091 126.378874 
L 206.77022 128.727612 
L 208.308057 135.773825 
L 208.82067 138.827184 
L 210.700249 146.343146 
L 213.09244 152.449864 
L 209.675024 167.951534 
L 208.649799 175.937243 
L 198.910163 201.773359 
L 186.265722 232.306951 
L 184.044402 273.17499 
L 182.164823 287.032544 
L 181.823081 291.964893 
L 181.139598 293.374136 
L 181.652211 294.078757 
L 183.019177 294.313631 
L 189.512268 294.313631 
L 188.999656 294.313631 
L 186.607464 293.374136 
L 186.949206 292.904388 
L 192.929684 292.434641 
L 194.638392 291.730019 
L 197.543196 289.616155 
L 199.081033 285.858175 
L 208.991541 279.751456 
L 213.775923 277.637592 
L 222.148593 273.644738 
L 227.103847 268.947262 
L 228.299943 263.545165 
L 226.762105 255.089709 
L 223.002947 243.580893 
L 216.509856 230.193087 
L 207.282833 217.040155 
L 195.663617 203.182602 
L 183.873531 188.385553 
L 177.722182 174.762874 
L 173.792153 156.442718 
L 172.083445 150.805748 
L 168.8369 140.941049 
L 167.299062 132.250718 
L 167.640804 130.136854 
L 168.495158 130.606602 
L 169.691254 132.485592 
L 169.691254 135.069204 
L 168.666029 138.592311 
L 167.299062 140.941049 
L 165.590354 142.350291 
L 163.369033 140.941049 
L 163.539904 138.827184 
L 164.906871 137.417942 
L 166.273837 137.417942 
L 171.912574 138.357437 
L 172.425187 137.887689 
L 174.988249 136.243573 
L 177.722182 132.250718 
L 179.601761 126.378874 
L 181.823081 120.272155 
L 182.677435 114.165437 
L 183.70266 107.823845 
L 183.360919 100.307883 
L 181.48134 91.617553 
L 179.089148 82.222602 
L 175.32999 71.888155 
L 171.229091 61.553709 
L 167.982545 56.386485 
L 165.590354 54.507495 
L 163.369033 53.802874 
L 161.660325 53.568 
L 97.925512 53.568 
L 162.514679 53.568 
L 133.29577 53.568 
L 134.833608 56.151612 
L 136.884057 58.735223 
L 139.276249 60.37934 
L 138.763636 60.849087 
L 137.738411 61.553709 
L 136.542316 64.13732 
L 135.517091 69.304544 
L 133.979254 76.115883 
L 131.245321 83.162097 
L 129.024 91.852427 
L 127.315292 99.838136 
L 127.144421 108.058718 
L 127.315292 112.051573 
L 127.827904 118.862913 
L 128.853129 124.499883 
L 128.853129 124.499883 
L 131.928804 128.492738 
L 136.713187 127.553243 
L 139.276249 127.788117 
L 140.301474 127.318369 
L 140.984957 125.909126 
L 140.984957 124.26501 
L 141.497569 122.620893 
L 140.814086 120.037282 
L 140.643215 118.158291 
L 140.643215 116.514175 
L 140.984957 115.104932 
L 139.276249 110.877204 
L 138.592766 109.702835 
L 138.080153 108.528466 
L 138.251024 106.88435 
L 138.592766 105.944854 
L 138.934507 105.709981 
L 141.497569 107.354097 
L 143.035407 108.058718 
L 145.427598 108.998214 
L 152.775043 112.051573 
L 161.660325 114.870058 
L 170.203866 117.218796 
L 181.993952 120.272155 
L 194.296651 123.090641 
L 207.795445 126.378874 
L 265.54978 139.062058 
L 303.824842 147.047767 
L 352.181282 157.851961 
L 375.932325 169.59565 
L 387.551541 181.104466 
L 393.190278 192.143534 
L 395.924211 202.008233 
L 397.291177 210.463689 
L 398.145531 220.798136 
L 398.487273 226.200233 
L 398.487273 245.22501 
L 398.487273 171.239767 
L 396.949435 167.481786 
L 387.38067 164.428427 
L 378.324517 162.079689 
L 366.36356 158.556583 
L 348.251254 154.093981 
L 325.867177 149.161631 
L 303.141359 144.464155 
L 284.003828 140.236427 
L 269.650679 136.948194 
L 254.784919 133.190214 
L 241.286124 129.432233 
L 234.10955 126.848621 
L 232.571713 125.439379 
L 232.742584 124.499883 
L 230.863005 122.855767 
L 228.812555 121.446524 
L 228.983426 120.507029 
L 226.932976 119.802408 
L 222.148593 118.393165 
L 220.098144 117.923417 
L 219.585531 117.218796 
L 218.047694 116.514175 
L 217.19334 115.809553 
L 218.389435 116.749049 
L 219.243789 116.983922 
L 218.731177 116.749049 
L 216.851598 116.044427 
L 214.459407 114.635184 
L 211.896344 112.991068 
L 210.358507 112.051573 
L 206.599349 110.407456 
L 203.523675 109.467961 
L 201.302354 108.998214 
L 200.960612 108.76334 
L 196.859713 107.588971 
L 194.12578 106.649476 
L 191.904459 105.709981 
L 189.170526 104.770485 
L 176.526086 101.717126 
L 165.590354 98.898641 
L 158.926392 97.01965 
L 156.192459 96.080155 
L 156.534201 95.845282 
L 156.021589 95.14066 
L 153.629397 93.966291 
L 142.693665 90.208311 
L 140.643215 89.268816 
L 138.763636 88.564194 
L 130.561837 85.980583 
L 130.903579 85.745709 
L 132.270545 86.215456 
L 136.029703 87.154951 
L 137.39667 87.859573 
L 138.080153 88.799068 
L 141.66844 90.678058 
L 141.155828 91.147806 
L 139.276249 92.087301 
L 135.004478 92.791922 
L 127.657033 92.322175 
L 124.239617 92.791922 
L 122.872651 93.731417 
L 120.309589 95.845282 
L 116.721301 98.194019 
L 112.791273 100.542757 
L 110.911694 103.83099 
L 111.936919 105.475107 
L 113.474756 107.119223 
L 112.962144 111.346951 
L 111.424306 115.57468 
L 108.690373 118.862913 
L 105.785569 120.507029 
L 104.589474 120.507029 
L 105.443828 120.272155 
L 105.785569 120.037282 
L 105.614699 228.783845 
L 105.614699 228.548971 
L 104.931215 227.609476 
L 102.026411 225.260738 
L 101.513799 223.851495 
L 101.68467 222.207379 
L 101.001187 218.919146 
L 98.950737 214.22167 
L 91.945033 201.068738 
L 86.477167 190.499417 
L 83.401493 177.346485 
L 81.863656 164.663301 
L 81.351043 155.738097 
L 83.059751 151.980117 
L 85.793684 153.154485 
L 88.185876 156.677592 
L 91.603292 167.481786 
L 92.457646 171.239767 
L 92.457646 174.528 
L 92.286775 176.172117 
L 92.628517 177.346485 
L 93.995483 178.990602 
L 97.242029 179.46035 
L 105.443828 178.520854 
L 119.796976 177.816233 
L 122.872651 177.816233 
L 123.043522 178.520854 
L 121.334813 180.164971 
L 120.822201 180.634718 
L 119.455234 180.164971 
L 116.892172 180.869592 
L 113.474756 183.922951 
L 105.785569 189.559922 
L 100.146833 194.492272 
L 96.558545 198.72 
L 94.849837 202.947728 
L 93.824612 207.41033 
L 94.337225 211.638058 
L 93.995483 214.456544 
L 94.337225 218.214524 
L 95.875062 225.965359 
L 98.096383 238.648544 
L 101.342928 253.445592 
L 102.709895 266.833398 
L 101.513799 278.811961 
L 100.146833 288.441786 
L 99.121608 293.139262 
L 99.121608 294.783379 
L 98.950737 295.253126 
L 99.805091 295.488 
L 108.861244 295.488 
L 102.709895 295.488 
" clip-path="url(#p88b25fc0fb)" style="fill: none; stroke: #87cefa; stroke-width: 1.5; stroke-linecap: square"/>
   </g>
   <g id="line2d_27">
    <path d="M 73.832727 295.488 
" clip-path="url(#p88b25fc0fb)" style="fill: none; stroke: #87cefa; stroke-width: 1.5; stroke-linecap: square"/>
    <defs>
     <path id="m2d2f75c145" d="M 0 5 
C 1.326016 5 2.597899 4.473168 3.535534 3.535534 
C 4.473168 2.597899 5 1.326016 5 0 
C 5 -1.326016 4.473168 -2.597899 3.535534 -3.535534 
C 2.597899 -4.473168 1.326016 -5 0 -5 
C -1.326016 -5 -2.597899 -4.473168 -3.535534 -3.535534 
C -4.473168 -2.597899 -5 -1.326016 -5 0 
C -5 1.326016 -4.473168 2.597899 -3.535534 3.535534 
C -2.597899 4.473168 -1.326016 5 0 5 
z
" style="stroke: #87cefa"/>
    </defs>
    <g clip-path="url(#p88b25fc0fb)">
     <use xlink:href="#m2d2f75c145" x="73.832727" y="295.488" style="fill: #87cefa; stroke: #87cefa"/>
    </g>
   </g>
   <g id="line2d_28">
    <path d="M 102.709895 295.488 
" clip-path="url(#p88b25fc0fb)" style="fill: none; stroke: #87cefa; stroke-width: 1.5; stroke-linecap: square"/>
    <defs>
     <path id="m361aed1a04" d="M -5 5 
L 5 5 
L 5 -5 
L -5 -5 
z
" style="stroke: #87cefa; stroke-linejoin: miter"/>
    </defs>
    <g clip-path="url(#p88b25fc0fb)">
     <use xlink:href="#m361aed1a04" x="102.709895" y="295.488" style="fill: #87cefa; stroke: #87cefa; stroke-linejoin: miter"/>
    </g>
   </g>
   <g id="line2d_29">
    <path d="M 208.649799 127.788117 
L 209.162411 127.788117 
L 209.675024 127.553243 
L 209.675024 127.553243 
L 209.845895 127.318369 
L 209.845895 127.318369 
L 211.383732 126.613748 
L 211.383732 126.613748 
L 214.630278 126.613748 
L 214.801148 126.378874 
L 214.801148 126.378874 
L 215.14289 126.144 
L 214.972019 125.909126 
L 215.484632 125.439379 
L 214.972019 124.969631 
L 214.459407 123.795262 
L 214.117665 123.325515 
L 213.434182 121.681398 
L 213.09244 121.21165 
L 213.434182 120.741903 
L 213.605053 120.272155 
L 213.434182 120.037282 
L 213.775923 119.567534 
L 214.117665 119.567534 
L 214.972019 119.33266 
L 216.168115 119.33266 
L 217.022469 119.097786 
L 217.364211 118.862913 
L 217.364211 118.628039 
L 216.680727 117.923417 
L 215.655502 117.45367 
L 216.680727 115.339806 
L 217.19334 115.57468 
L 217.022469 116.044427 
L 216.509856 116.044427 
L 216.851598 116.279301 
L 215.484632 115.809553 
L 215.997244 115.57468 
L 217.535081 115.57468 
L 217.876823 115.809553 
L 217.876823 115.104932 
L 217.364211 113.460816 
L 216.509856 112.756194 
L 216.509856 112.52132 
L 218.731177 112.52132 
L 218.731177 112.286447 
L 218.047694 111.581825 
L 216.680727 111.112078 
L 215.14289 110.172583 
L 214.459407 109.233087 
L 212.579828 107.588971 
L 212.408957 106.649476 
L 213.434182 106.179728 
L 213.605053 104.770485 
L 212.921569 103.126369 
L 211.896344 102.891495 
L 212.238086 102.891495 
L 213.263311 103.361243 
L 212.579828 103.83099 
L 212.750699 101.717126 
L 212.067215 90.208311 
L 215.14289 79.404117 
L 217.19334 75.411262 
L 219.585531 75.88101 
L 222.661206 76.585631 
L 223.002947 76.350757 
L 222.832077 75.411262 
L 222.490335 70.94866 
L 223.686431 59.439845 
L 221.977722 55.44699 
L 219.756402 54.272621 
L 219.756402 53.802874 
L 221.294239 53.568 
L 227.445589 53.568 
L 206.257608 53.568 
L 205.574124 70.244039 
L 206.428478 82.457476 
L 206.77022 92.322175 
L 201.985837 101.717126 
L 199.764517 102.421748 
L 194.12578 102.421748 
L 191.220976 104.065864 
L 188.999656 107.119223 
L 186.094852 112.286447 
L 180.285244 134.364583 
L 176.696957 146.578019 
L 173.450411 152.919612 
L 172.425187 155.972971 
L 166.615579 175.467495 
L 165.248612 188.15068 
L 161.660325 206.470835 
L 156.705072 228.548971 
L 151.066335 250.392233 
L 143.548019 276.698097 
L 135.687962 288.441786 
L 132.099675 292.199767 
L 130.220096 293.60901 
L 128.682258 294.078757 
L 126.290067 294.313631 
L 122.189167 294.313631 
L 158.41378 294.313631 
L 165.077742 267.538019 
L 165.761225 228.314097 
L 161.318584 192.378408 
L 159.097263 169.360777 
L 165.248612 140.001553 
L 168.495158 113.225942 
L 164.736 86.45033 
L 159.951617 68.834796 
L 152.604172 58.735223 
L 147.819789 55.212117 
L 139.44712 54.272621 
L 133.979254 53.802874 
L 126.802679 53.568 
L 81.521914 53.568 
L 137.738411 53.568 
L 113.303885 53.568 
L 113.303885 63.197825 
L 112.27866 84.806214 
L 111.253435 96.315029 
L 107.323407 126.848621 
L 108.690373 166.072544 
L 107.494278 179.930097 
L 106.469053 186.976311 
L 104.931215 199.424621 
L 104.931215 212.577553 
L 105.272957 215.396039 
L 106.810794 218.919146 
L 107.836019 220.328388 
L 108.690373 221.267883 
L 109.373856 222.442252 
L 109.544727 223.146874 
L 110.05734 222.207379 
L 111.082565 219.858641 
L 113.303885 213.751922 
L 113.987368 210.933437 
L 118.60088 197.545631 
L 121.676555 191.438913 
L 128.511388 179.225476 
L 131.928804 172.414136 
L 135.004478 164.193553 
L 136.884057 157.851961 
L 137.567541 152.449864 
L 140.643215 142.820039 
L 139.959732 144.229282 
L 137.738411 147.987262 
L 137.39667 150.805748 
L 139.61799 156.442718 
L 140.984957 162.314563 
L 142.351923 164.428427 
L 145.940211 165.83767 
L 148.161531 165.83767 
L 148.161531 165.367922 
L 146.281952 164.428427 
L 141.497569 164.428427 
L 141.839311 164.663301 
L 143.71889 165.602796 
L 142.864536 166.777165 
L 142.522794 169.360777 
L 143.206278 170.770019 
L 145.085856 171.944388 
L 144.744115 172.414136 
L 144.914986 172.883883 
L 137.225799 194.022524 
L 132.954029 206.470835 
L 125.093971 233.951068 
L 119.626105 273.879612 
L 122.530909 287.502291 
L 129.878354 291.964893 
L 136.029703 293.60901 
L 136.713187 294.078757 
L 134.150124 294.313631 
L 134.833608 294.313631 
L 135.858833 291.964893 
L 137.909282 290.320777 
L 138.934507 290.085903 
L 143.206278 287.032544 
L 145.085856 284.448932 
L 145.256727 282.804816 
L 146.452823 278.342214 
L 151.578947 275.993476 
L 158.072038 273.409864 
L 163.027292 271.765748 
L 164.736 270.591379 
L 164.736 268.947262 
L 164.394258 265.893903 
L 164.223388 263.310291 
L 165.077742 253.680466 
L 168.8369 242.876272 
L 173.450411 228.783845 
L 175.15912 222.207379 
L 178.234794 209.28932 
L 177.38044 206.705709 
L 176.526086 205.53134 
L 176.867828 204.826718 
L 178.918278 204.122097 
L 179.601761 204.122097 
L 180.285244 204.356971 
L 177.893053 203.417476 
L 174.133895 201.773359 
L 173.621282 201.303612 
L 173.450411 201.303612 
L 173.450411 201.303612 
L 173.450411 201.773359 
L 174.304766 202.243107 
L 175.671732 203.182602 
L 176.867828 203.65235 
L 177.722182 204.356971 
L 178.918278 204.826718 
L 180.456115 205.296466 
L 182.848306 206.235961 
L 184.386144 206.470835 
L 186.094852 206.470835 
L 186.265722 206.705709 
L 186.436593 207.175456 
L 187.632689 208.349825 
L 189.85401 209.28932 
L 192.587943 210.228816 
L 194.467522 210.463689 
L 195.834488 210.228816 
L 195.492746 209.28932 
L 191.733589 206.470835 
L 190.366622 205.061592 
L 188.999656 203.887223 
L 188.145301 203.417476 
L 189.512268 203.417476 
L 192.07533 203.65235 
L 194.12578 203.65235 
L 194.12578 203.182602 
L 191.391847 201.538485 
L 188.487043 200.364117 
L 185.923981 198.485126 
L 183.531789 197.545631 
L 178.234794 196.606136 
L 172.937799 195.666641 
L 151.408077 192.848155 
L 117.917397 187.915806 
L 95.36245 181.33934 
L 84.255847 174.762874 
L 78.958852 168.656155 
L 76.395789 162.784311 
L 75.028823 158.791456 
L 74.34534 157.14734 
L 73.832727 146.343146 
L 73.832727 143.994408 
L 73.832727 159.261204 
L 105.272957 167.012039 
L 150.04111 173.353631 
L 183.360919 177.581359 
L 202.669321 178.990602 
L 214.288536 179.695223 
L 214.801148 178.520854 
L 210.358507 176.641864 
L 209.333282 175.702369 
L 213.09244 175.467495 
L 215.826373 174.528 
L 215.484632 172.179262 
L 214.117665 170.065398 
L 212.067215 167.71666 
L 211.04199 166.072544 
L 207.453703 163.488932 
L 205.744995 162.314563 
L 203.352804 161.609942 
L 199.935388 160.435573 
L 199.251904 160.90532 
L 198.055809 161.140194 
L 197.543196 160.90532 
L 199.081033 161.140194 
L 200.106258 160.90532 
L 199.935388 160.670447 
L 199.593646 160.435573 
L 199.251904 160.670447 
L 198.055809 160.670447 
L 197.372325 160.90532 
L 196.005359 161.609942 
L 196.17623 161.609942 
L 195.663617 161.609942 
L 196.005359 161.140194 
L 194.638392 159.965825 
L 196.005359 160.200699 
L 197.714067 160.670447 
L 199.081033 160.670447 
L 200.618871 161.140194 
L 203.523675 161.140194 
L 205.915866 160.670447 
L 211.725474 161.375068 
L 217.705952 162.549437 
L 232.913455 166.307417 
L 251.196632 170.535146 
L 270.505033 174.528 
L 332.360268 188.15068 
L 366.36356 202.243107 
L 382.767158 211.872932 
L 390.798086 215.865786 
L 394.728115 216.805282 
L 396.607694 219.388893 
L 397.97466 222.442252 
L 398.316402 221.972505 
L 398.316402 220.563262 
L 398.487273 217.509903 
L 398.487273 219.623767 
L 398.487273 220.563262 
L 398.487273 219.858641 
L 397.462048 218.449398 
L 387.038928 216.570408 
L 374.73623 214.691417 
L 369.439234 214.22167 
L 368.755751 214.926291 
L 362.433531 213.986796 
L 316.640153 205.766214 
L 286.054278 200.59899 
L 261.961493 196.371262 
L 258.544077 152.21499 
L 252.050986 150.336 
L 247.608344 148.691883 
L 231.88823 148.691883 
L 204.036287 151.745243 
L 180.456115 154.093981 
L 160.293359 155.972971 
L 132.441416 159.965825 
L 101.68467 164.663301 
L 107.836019 163.95868 
L 110.911694 164.428427 
L 113.645627 165.602796 
L 118.942622 168.656155 
L 121.505684 171.474641 
L 122.360038 178.520854 
L 126.119196 179.930097 
L 129.194871 180.164971 
L 140.301474 179.46035 
L 156.021589 177.346485 
L 170.374737 175.232621 
L 179.772632 173.118757 
L 184.044402 171.944388 
L 203.523675 167.71666 
L 247.779215 158.086835 
L 304.337455 146.343146 
L 352.693895 134.83433 
L 356.282182 134.364583 
L 345.004708 136.478447 
L 344.321225 135.773825 
L 345.688191 134.599456 
L 348.080383 133.190214 
L 348.422124 132.485592 
L 346.713416 132.720466 
L 341.929033 133.659961 
L 332.360268 134.83433 
L 329.797206 134.129709 
L 329.113722 133.659961 
L 328.259368 132.720466 
L 326.892402 132.485592 
L 324.500211 132.250718 
L 322.962373 131.780971 
L 322.620632 130.606602 
L 321.424536 129.667107 
L 319.544957 129.197359 
L 317.494507 128.962485 
L 315.95667 128.962485 
L 315.102316 129.197359 
L 315.102316 129.197359 
L 313.393608 129.667107 
L 307.925742 132.250718 
L 298.698718 135.773825 
L 297.502622 136.478447 
L 296.477397 136.948194 
L 296.477397 137.183068 
L 297.16088 136.71332 
L 297.502622 136.008699 
L 298.186105 135.538951 
L 298.186105 135.304078 
L 298.186105 135.773825 
L 298.869589 137.417942 
L 300.236555 140.001553 
L 301.26178 142.350291 
L 301.26178 142.350291 
" clip-path="url(#p88b25fc0fb)" style="fill: none; stroke: #ffa500; stroke-width: 1.5; stroke-linecap: square"/>
   </g>
   <g id="line2d_30">
    <path d="M 208.649799 127.788117 
" clip-path="url(#p88b25fc0fb)" style="fill: none; stroke: #ffa500; stroke-width: 1.5; stroke-linecap: square"/>
    <defs>
     <path id="m182385fa5f" d="M 0 5 
C 1.326016 5 2.597899 4.473168 3.535534 3.535534 
C 4.473168 2.597899 5 1.326016 5 0 
C 5 -1.326016 4.473168 -2.597899 3.535534 -3.535534 
C 2.597899 -4.473168 1.326016 -5 0 -5 
C -1.326016 -5 -2.597899 -4.473168 -3.535534 -3.535534 
C -4.473168 -2.597899 -5 -1.326016 -5 0 
C -5 1.326016 -4.473168 2.597899 -3.535534 3.535534 
C -2.597899 4.473168 -1.326016 5 0 5 
z
" style="stroke: #ffa500"/>
    </defs>
    <g clip-path="url(#p88b25fc0fb)">
     <use xlink:href="#m182385fa5f" x="208.649799" y="127.788117" style="fill: #ffa500; stroke: #ffa500"/>
    </g>
   </g>
   <g id="line2d_31">
    <path d="M 301.26178 142.350291 
" clip-path="url(#p88b25fc0fb)" style="fill: none; stroke: #ffa500; stroke-width: 1.5; stroke-linecap: square"/>
    <defs>
     <path id="m442e0c86ec" d="M -5 5 
L 5 5 
L 5 -5 
L -5 -5 
z
" style="stroke: #ffa500; stroke-linejoin: miter"/>
    </defs>
    <g clip-path="url(#p88b25fc0fb)">
     <use xlink:href="#m442e0c86ec" x="301.26178" y="142.350291" style="fill: #ffa500; stroke: #ffa500; stroke-linejoin: miter"/>
    </g>
   </g>
   <g id="line2d_32">
    <path d="M 162.234092 191.403395 
" clip-path="url(#p88b25fc0fb)" style="fill: none; stroke: #ff0000; stroke-width: 1.5; stroke-linecap: square"/>
    <defs>
     <path id="mc2622544a8" d="M -2.5 5 
L 0 2.5 
L 2.5 5 
L 5 2.5 
L 2.5 0 
L 5 -2.5 
L 2.5 -5 
L 0 -2.5 
L -2.5 -5 
L -5 -2.5 
L -2.5 0 
L -5 2.5 
z
" style="stroke: #ff0000; stroke-linejoin: miter"/>
    </defs>
    <g clip-path="url(#p88b25fc0fb)">
     <use xlink:href="#mc2622544a8" x="162.234092" y="191.403395" style="fill: #ff0000; stroke: #ff0000; stroke-linejoin: miter"/>
    </g>
   </g>
   <g id="line2d_33">
    <path d="M 202.494403 225.154185 
" clip-path="url(#p88b25fc0fb)" style="fill: none; stroke: #ffa07a; stroke-width: 1.5; stroke-linecap: square"/>
    <defs>
     <path id="me3bcae231b" d="M -2.5 5 
L 0 2.5 
L 2.5 5 
L 5 2.5 
L 2.5 0 
L 5 -2.5 
L 2.5 -5 
L 0 -2.5 
L -2.5 -5 
L -5 -2.5 
L -2.5 0 
L -5 2.5 
z
" style="stroke: #ffa07a; stroke-linejoin: miter"/>
    </defs>
    <g clip-path="url(#p88b25fc0fb)">
     <use xlink:href="#me3bcae231b" x="202.494403" y="225.154185" style="fill: #ffa07a; stroke: #ffa07a; stroke-linejoin: miter"/>
    </g>
   </g>
   <g id="line2d_34">
    <path d="M 155.038632 226.806322 
" clip-path="url(#p88b25fc0fb)" style="fill: none; stroke: #0000ff; stroke-width: 1.5; stroke-linecap: square"/>
    <defs>
     <path id="m984eaa9dd5" d="M -2.5 5 
L 0 2.5 
L 2.5 5 
L 5 2.5 
L 2.5 0 
L 5 -2.5 
L 2.5 -5 
L 0 -2.5 
L -2.5 -5 
L -5 -2.5 
L -2.5 0 
L -5 2.5 
z
" style="stroke: #0000ff; stroke-linejoin: miter"/>
    </defs>
    <g clip-path="url(#p88b25fc0fb)">
     <use xlink:href="#m984eaa9dd5" x="155.038632" y="226.806322" style="fill: #0000ff; stroke: #0000ff; stroke-linejoin: miter"/>
    </g>
   </g>
   <g id="line2d_35">
    <path d="M 344.176434 187.627083 
" clip-path="url(#p88b25fc0fb)" style="fill: none; stroke: #00fa9a; stroke-width: 1.5; stroke-linecap: square"/>
    <defs>
     <path id="mdd95563bb3" d="M -2.5 5 
L 0 2.5 
L 2.5 5 
L 5 2.5 
L 2.5 0 
L 5 -2.5 
L 2.5 -5 
L 0 -2.5 
L -2.5 -5 
L -5 -2.5 
L -2.5 0 
L -5 2.5 
z
" style="stroke: #00fa9a; stroke-linejoin: miter"/>
    </defs>
    <g clip-path="url(#p88b25fc0fb)">
     <use xlink:href="#mdd95563bb3" x="344.176434" y="187.627083" style="fill: #00fa9a; stroke: #00fa9a; stroke-linejoin: miter"/>
    </g>
   </g>
   <g id="line2d_36">
    <path d="M 295.864061 207.216702 
" clip-path="url(#p88b25fc0fb)" style="fill: none; stroke: #008000; stroke-width: 1.5; stroke-linecap: square"/>
    <defs>
     <path id="m4e0f2ce47c" d="M -2.5 5 
L 0 2.5 
L 2.5 5 
L 5 2.5 
L 2.5 0 
L 5 -2.5 
L 2.5 -5 
L 0 -2.5 
L -2.5 -5 
L -5 -2.5 
L -2.5 0 
L -5 2.5 
z
" style="stroke: #008000; stroke-linejoin: miter"/>
    </defs>
    <g clip-path="url(#p88b25fc0fb)">
     <use xlink:href="#m4e0f2ce47c" x="295.864061" y="207.216702" style="fill: #008000; stroke: #008000; stroke-linejoin: miter"/>
    </g>
   </g>
   <g id="line2d_37">
    <path d="M 336.980974 122.721717 
" clip-path="url(#p88b25fc0fb)" style="fill: none; stroke: #ffd700; stroke-width: 1.5; stroke-linecap: square"/>
    <defs>
     <path id="m338fbb5076" d="M -2.5 5 
L 0 2.5 
L 2.5 5 
L 5 2.5 
L 2.5 0 
L 5 -2.5 
L 2.5 -5 
L 0 -2.5 
L -2.5 -5 
L -5 -2.5 
L -2.5 0 
L -5 2.5 
z
" style="stroke: #ffd700; stroke-linejoin: miter"/>
    </defs>
    <g clip-path="url(#p88b25fc0fb)">
     <use xlink:href="#m338fbb5076" x="336.980974" y="122.721717" style="fill: #ffd700; stroke: #ffd700; stroke-linejoin: miter"/>
    </g>
   </g>
   <g id="line2d_38">
    <path d="M 257.659595 142.311337 
" clip-path="url(#p88b25fc0fb)" style="fill: none; stroke: #800080; stroke-width: 1.5; stroke-linecap: square"/>
    <defs>
     <path id="me66b26cd07" d="M -2.5 5 
L 0 2.5 
L 2.5 5 
L 5 2.5 
L 2.5 0 
L 5 -2.5 
L 2.5 -5 
L 0 -2.5 
L -2.5 -5 
L -5 -2.5 
L -2.5 0 
L -5 2.5 
z
" style="stroke: #800080; stroke-linejoin: miter"/>
    </defs>
    <g clip-path="url(#p88b25fc0fb)">
     <use xlink:href="#me66b26cd07" x="257.659595" y="142.311337" style="fill: #800080; stroke: #800080; stroke-linejoin: miter"/>
    </g>
   </g>
   <g id="line2d_39">
    <path d="M 125.057549 100.299863 
" clip-path="url(#p88b25fc0fb)" style="fill: none; stroke: #87cefa; stroke-width: 1.5; stroke-linecap: square"/>
    <defs>
     <path id="m6684cf5f09" d="M -2.5 5 
L 0 2.5 
L 2.5 5 
L 5 2.5 
L 2.5 0 
L 5 -2.5 
L 2.5 -5 
L 0 -2.5 
L -2.5 -5 
L -5 -2.5 
L -2.5 0 
L -5 2.5 
z
" style="stroke: #87cefa; stroke-linejoin: miter"/>
    </defs>
    <g clip-path="url(#p88b25fc0fb)">
     <use xlink:href="#m6684cf5f09" x="125.057549" y="100.299863" style="fill: #87cefa; stroke: #87cefa; stroke-linejoin: miter"/>
    </g>
   </g>
   <g id="line2d_40">
    <path d="M 277.704091 103.840156 
" clip-path="url(#p88b25fc0fb)" style="fill: none; stroke: #ffa500; stroke-width: 1.5; stroke-linecap: square"/>
    <defs>
     <path id="mc0f6786718" d="M -2.5 5 
L 0 2.5 
L 2.5 5 
L 5 2.5 
L 2.5 0 
L 5 -2.5 
L 2.5 -5 
L 0 -2.5 
L -2.5 -5 
L -5 -2.5 
L -2.5 0 
L -5 2.5 
z
" style="stroke: #ffa500; stroke-linejoin: miter"/>
    </defs>
    <g clip-path="url(#p88b25fc0fb)">
     <use xlink:href="#mc0f6786718" x="277.704091" y="103.840156" style="fill: #ffa500; stroke: #ffa500; stroke-linejoin: miter"/>
    </g>
   </g>
   <g id="patch_3">
    <path d="M 57.6 307.584 
L 57.6 41.472 
" style="fill: none; stroke: #000000; stroke-width: 0.8; stroke-linejoin: miter; stroke-linecap: square"/>
   </g>
   <g id="patch_4">
    <path d="M 57.6 307.584 
L 414.72 307.584 
" style="fill: none; stroke: #000000; stroke-width: 0.8; stroke-linejoin: miter; stroke-linecap: square"/>
   </g>
   <g id="legend_1">
    <g id="patch_5">
     <path d="M 241.591875 141.54075 
L 404.22 141.54075 
Q 407.22 141.54075 407.22 138.54075 
L 407.22 51.972 
Q 407.22 48.972 404.22 48.972 
L 241.591875 48.972 
Q 238.591875 48.972 238.591875 51.972 
L 238.591875 138.54075 
Q 238.591875 141.54075 241.591875 141.54075 
z
" style="fill: #ffffff; opacity: 0.8; stroke: #cccccc; stroke-linejoin: miter"/>
    </g>
    <g id="line2d_41">
     <path d="M 244.591875 61.119656 
L 259.591875 61.119656 
L 274.591875 61.119656 
" style="fill: none; stroke: #000000; stroke-width: 1.5; stroke-linecap: square"/>
    </g>
    <g id="text_7">
     <!-- Trajectory -->
     <g transform="translate(286.591875 66.369656)scale(0.15 -0.15)">
      <defs>
       <path id="DejaVuSans-54" d="M -19 4666 
L 3928 4666 
L 3928 4134 
L 2272 4134 
L 2272 0 
L 1638 0 
L 1638 4134 
L -19 4134 
L -19 4666 
z
" transform="scale(0.015625)"/>
       <path id="DejaVuSans-72" d="M 2631 2963 
Q 2534 3019 2420 3045 
Q 2306 3072 2169 3072 
Q 1681 3072 1420 2755 
Q 1159 2438 1159 1844 
L 1159 0 
L 581 0 
L 581 3500 
L 1159 3500 
L 1159 2956 
Q 1341 3275 1631 3429 
Q 1922 3584 2338 3584 
Q 2397 3584 2469 3576 
Q 2541 3569 2628 3553 
L 2631 2963 
z
" transform="scale(0.015625)"/>
       <path id="DejaVuSans-61" d="M 2194 1759 
Q 1497 1759 1228 1600 
Q 959 1441 959 1056 
Q 959 750 1161 570 
Q 1363 391 1709 391 
Q 2188 391 2477 730 
Q 2766 1069 2766 1631 
L 2766 1759 
L 2194 1759 
z
M 3341 1997 
L 3341 0 
L 2766 0 
L 2766 531 
Q 2569 213 2275 61 
Q 1981 -91 1556 -91 
Q 1019 -91 701 211 
Q 384 513 384 1019 
Q 384 1609 779 1909 
Q 1175 2209 1959 2209 
L 2766 2209 
L 2766 2266 
Q 2766 2663 2505 2880 
Q 2244 3097 1772 3097 
Q 1472 3097 1187 3025 
Q 903 2953 641 2809 
L 641 3341 
Q 956 3463 1253 3523 
Q 1550 3584 1831 3584 
Q 2591 3584 2966 3190 
Q 3341 2797 3341 1997 
z
" transform="scale(0.015625)"/>
       <path id="DejaVuSans-6a" d="M 603 3500 
L 1178 3500 
L 1178 -63 
Q 1178 -731 923 -1031 
Q 669 -1331 103 -1331 
L -116 -1331 
L -116 -844 
L 38 -844 
Q 366 -844 484 -692 
Q 603 -541 603 -63 
L 603 3500 
z
M 603 4863 
L 1178 4863 
L 1178 4134 
L 603 4134 
L 603 4863 
z
" transform="scale(0.015625)"/>
       <path id="DejaVuSans-65" d="M 3597 1894 
L 3597 1613 
L 953 1613 
Q 991 1019 1311 708 
Q 1631 397 2203 397 
Q 2534 397 2845 478 
Q 3156 559 3463 722 
L 3463 178 
Q 3153 47 2828 -22 
Q 2503 -91 2169 -91 
Q 1331 -91 842 396 
Q 353 884 353 1716 
Q 353 2575 817 3079 
Q 1281 3584 2069 3584 
Q 2775 3584 3186 3129 
Q 3597 2675 3597 1894 
z
M 3022 2063 
Q 3016 2534 2758 2815 
Q 2500 3097 2075 3097 
Q 1594 3097 1305 2825 
Q 1016 2553 972 2059 
L 3022 2063 
z
" transform="scale(0.015625)"/>
       <path id="DejaVuSans-63" d="M 3122 3366 
L 3122 2828 
Q 2878 2963 2633 3030 
Q 2388 3097 2138 3097 
Q 1578 3097 1268 2742 
Q 959 2388 959 1747 
Q 959 1106 1268 751 
Q 1578 397 2138 397 
Q 2388 397 2633 464 
Q 2878 531 3122 666 
L 3122 134 
Q 2881 22 2623 -34 
Q 2366 -91 2075 -91 
Q 1284 -91 818 406 
Q 353 903 353 1747 
Q 353 2603 823 3093 
Q 1294 3584 2113 3584 
Q 2378 3584 2631 3529 
Q 2884 3475 3122 3366 
z
" transform="scale(0.015625)"/>
       <path id="DejaVuSans-74" d="M 1172 4494 
L 1172 3500 
L 2356 3500 
L 2356 3053 
L 1172 3053 
L 1172 1153 
Q 1172 725 1289 603 
Q 1406 481 1766 481 
L 2356 481 
L 2356 0 
L 1766 0 
Q 1100 0 847 248 
Q 594 497 594 1153 
L 594 3053 
L 172 3053 
L 172 3500 
L 594 3500 
L 594 4494 
L 1172 4494 
z
" transform="scale(0.015625)"/>
       <path id="DejaVuSans-6f" d="M 1959 3097 
Q 1497 3097 1228 2736 
Q 959 2375 959 1747 
Q 959 1119 1226 758 
Q 1494 397 1959 397 
Q 2419 397 2687 759 
Q 2956 1122 2956 1747 
Q 2956 2369 2687 2733 
Q 2419 3097 1959 3097 
z
M 1959 3584 
Q 2709 3584 3137 3096 
Q 3566 2609 3566 1747 
Q 3566 888 3137 398 
Q 2709 -91 1959 -91 
Q 1206 -91 779 398 
Q 353 888 353 1747 
Q 353 2609 779 3096 
Q 1206 3584 1959 3584 
z
" transform="scale(0.015625)"/>
       <path id="DejaVuSans-79" d="M 2059 -325 
Q 1816 -950 1584 -1140 
Q 1353 -1331 966 -1331 
L 506 -1331 
L 506 -850 
L 844 -850 
Q 1081 -850 1212 -737 
Q 1344 -625 1503 -206 
L 1606 56 
L 191 3500 
L 800 3500 
L 1894 763 
L 2988 3500 
L 3597 3500 
L 2059 -325 
z
" transform="scale(0.015625)"/>
      </defs>
      <use xlink:href="#DejaVuSans-54"/>
      <use xlink:href="#DejaVuSans-72" x="46.333984"/>
      <use xlink:href="#DejaVuSans-61" x="87.447266"/>
      <use xlink:href="#DejaVuSans-6a" x="148.726562"/>
      <use xlink:href="#DejaVuSans-65" x="176.509766"/>
      <use xlink:href="#DejaVuSans-63" x="238.033203"/>
      <use xlink:href="#DejaVuSans-74" x="293.013672"/>
      <use xlink:href="#DejaVuSans-6f" x="332.222656"/>
      <use xlink:href="#DejaVuSans-72" x="393.404297"/>
      <use xlink:href="#DejaVuSans-79" x="434.517578"/>
     </g>
    </g>
    <g id="line2d_42">
     <path d="M 244.591875 83.136844 
L 259.591875 83.136844 
L 274.591875 83.136844 
" style="fill: none; stroke: #000000; stroke-width: 1.5; stroke-linecap: square"/>
     <g>
      <use xlink:href="#m45b62b3793" x="259.591875" y="83.136844" style="stroke: #000000"/>
     </g>
    </g>
    <g id="text_8">
     <!-- Start -->
     <g transform="translate(286.591875 88.386844)scale(0.15 -0.15)">
      <defs>
       <path id="DejaVuSans-53" d="M 3425 4513 
L 3425 3897 
Q 3066 4069 2747 4153 
Q 2428 4238 2131 4238 
Q 1616 4238 1336 4038 
Q 1056 3838 1056 3469 
Q 1056 3159 1242 3001 
Q 1428 2844 1947 2747 
L 2328 2669 
Q 3034 2534 3370 2195 
Q 3706 1856 3706 1288 
Q 3706 609 3251 259 
Q 2797 -91 1919 -91 
Q 1588 -91 1214 -16 
Q 841 59 441 206 
L 441 856 
Q 825 641 1194 531 
Q 1563 422 1919 422 
Q 2459 422 2753 634 
Q 3047 847 3047 1241 
Q 3047 1584 2836 1778 
Q 2625 1972 2144 2069 
L 1759 2144 
Q 1053 2284 737 2584 
Q 422 2884 422 3419 
Q 422 4038 858 4394 
Q 1294 4750 2059 4750 
Q 2388 4750 2728 4690 
Q 3069 4631 3425 4513 
z
" transform="scale(0.015625)"/>
      </defs>
      <use xlink:href="#DejaVuSans-53"/>
      <use xlink:href="#DejaVuSans-74" x="63.476562"/>
      <use xlink:href="#DejaVuSans-61" x="102.685547"/>
      <use xlink:href="#DejaVuSans-72" x="163.964844"/>
      <use xlink:href="#DejaVuSans-74" x="205.078125"/>
     </g>
    </g>
    <g id="line2d_43">
     <path d="M 244.591875 105.154031 
L 259.591875 105.154031 
L 274.591875 105.154031 
" style="fill: none; stroke: #000000; stroke-width: 1.5; stroke-linecap: square"/>
     <g>
      <use xlink:href="#me5b31ef269" x="259.591875" y="105.154031" style="stroke: #000000; stroke-linejoin: miter"/>
     </g>
    </g>
    <g id="text_9">
     <!-- End -->
     <g transform="translate(286.591875 110.404031)scale(0.15 -0.15)">
      <defs>
       <path id="DejaVuSans-45" d="M 628 4666 
L 3578 4666 
L 3578 4134 
L 1259 4134 
L 1259 2753 
L 3481 2753 
L 3481 2222 
L 1259 2222 
L 1259 531 
L 3634 531 
L 3634 0 
L 628 0 
L 628 4666 
z
" transform="scale(0.015625)"/>
       <path id="DejaVuSans-6e" d="M 3513 2113 
L 3513 0 
L 2938 0 
L 2938 2094 
Q 2938 2591 2744 2837 
Q 2550 3084 2163 3084 
Q 1697 3084 1428 2787 
Q 1159 2491 1159 1978 
L 1159 0 
L 581 0 
L 581 3500 
L 1159 3500 
L 1159 2956 
Q 1366 3272 1645 3428 
Q 1925 3584 2291 3584 
Q 2894 3584 3203 3211 
Q 3513 2838 3513 2113 
z
" transform="scale(0.015625)"/>
       <path id="DejaVuSans-64" d="M 2906 2969 
L 2906 4863 
L 3481 4863 
L 3481 0 
L 2906 0 
L 2906 525 
Q 2725 213 2448 61 
Q 2172 -91 1784 -91 
Q 1150 -91 751 415 
Q 353 922 353 1747 
Q 353 2572 751 3078 
Q 1150 3584 1784 3584 
Q 2172 3584 2448 3432 
Q 2725 3281 2906 2969 
z
M 947 1747 
Q 947 1113 1208 752 
Q 1469 391 1925 391 
Q 2381 391 2643 752 
Q 2906 1113 2906 1747 
Q 2906 2381 2643 2742 
Q 2381 3103 1925 3103 
Q 1469 3103 1208 2742 
Q 947 2381 947 1747 
z
" transform="scale(0.015625)"/>
      </defs>
      <use xlink:href="#DejaVuSans-45"/>
      <use xlink:href="#DejaVuSans-6e" x="63.183594"/>
      <use xlink:href="#DejaVuSans-64" x="126.5625"/>
     </g>
    </g>
    <g id="line2d_44">
     <path d="M 244.591875 127.171219 
L 259.591875 127.171219 
L 274.591875 127.171219 
" style="fill: none; stroke: #ff0000; stroke-width: 1.5; stroke-linecap: square"/>
     <g>
      <use xlink:href="#mc2622544a8" x="259.591875" y="127.171219" style="fill: #ff0000; stroke: #ff0000; stroke-linejoin: miter"/>
     </g>
    </g>
    <g id="text_10">
     <!-- Target Location -->
     <g transform="translate(286.591875 132.421219)scale(0.15 -0.15)">
      <defs>
       <path id="DejaVuSans-67" d="M 2906 1791 
Q 2906 2416 2648 2759 
Q 2391 3103 1925 3103 
Q 1463 3103 1205 2759 
Q 947 2416 947 1791 
Q 947 1169 1205 825 
Q 1463 481 1925 481 
Q 2391 481 2648 825 
Q 2906 1169 2906 1791 
z
M 3481 434 
Q 3481 -459 3084 -895 
Q 2688 -1331 1869 -1331 
Q 1566 -1331 1297 -1286 
Q 1028 -1241 775 -1147 
L 775 -588 
Q 1028 -725 1275 -790 
Q 1522 -856 1778 -856 
Q 2344 -856 2625 -561 
Q 2906 -266 2906 331 
L 2906 616 
Q 2728 306 2450 153 
Q 2172 0 1784 0 
Q 1141 0 747 490 
Q 353 981 353 1791 
Q 353 2603 747 3093 
Q 1141 3584 1784 3584 
Q 2172 3584 2450 3431 
Q 2728 3278 2906 2969 
L 2906 3500 
L 3481 3500 
L 3481 434 
z
" transform="scale(0.015625)"/>
       <path id="DejaVuSans-20" transform="scale(0.015625)"/>
       <path id="DejaVuSans-4c" d="M 628 4666 
L 1259 4666 
L 1259 531 
L 3531 531 
L 3531 0 
L 628 0 
L 628 4666 
z
" transform="scale(0.015625)"/>
       <path id="DejaVuSans-69" d="M 603 3500 
L 1178 3500 
L 1178 0 
L 603 0 
L 603 3500 
z
M 603 4863 
L 1178 4863 
L 1178 4134 
L 603 4134 
L 603 4863 
z
" transform="scale(0.015625)"/>
      </defs>
      <use xlink:href="#DejaVuSans-54"/>
      <use xlink:href="#DejaVuSans-61" x="44.583984"/>
      <use xlink:href="#DejaVuSans-72" x="105.863281"/>
      <use xlink:href="#DejaVuSans-67" x="145.226562"/>
      <use xlink:href="#DejaVuSans-65" x="208.703125"/>
      <use xlink:href="#DejaVuSans-74" x="270.226562"/>
      <use xlink:href="#DejaVuSans-20" x="309.435547"/>
      <use xlink:href="#DejaVuSans-4c" x="341.222656"/>
      <use xlink:href="#DejaVuSans-6f" x="395.185547"/>
      <use xlink:href="#DejaVuSans-63" x="456.367188"/>
      <use xlink:href="#DejaVuSans-61" x="511.347656"/>
      <use xlink:href="#DejaVuSans-74" x="572.626953"/>
      <use xlink:href="#DejaVuSans-69" x="611.835938"/>
      <use xlink:href="#DejaVuSans-6f" x="639.619141"/>
      <use xlink:href="#DejaVuSans-6e" x="700.800781"/>
     </g>
    </g>
   </g>
  </g>
 </g>
 <defs>
  <clipPath id="p88b25fc0fb">
   <rect x="57.6" y="41.472" width="357.12" height="266.112"/>
  </clipPath>
 </defs>
</svg>
