<?xml version="1.0" encoding="utf-8" standalone="no"?>
<!DOCTYPE svg PUBLIC "-//W3C//DTD SVG 1.1//EN"
  "http://www.w3.org/Graphics/SVG/1.1/DTD/svg11.dtd">
<svg xmlns:xlink="http://www.w3.org/1999/xlink" width="460.8pt" height="345.6pt" viewBox="0 0 460.8 345.6" xmlns="http://www.w3.org/2000/svg" version="1.1">
 <metadata>
  <rdf:RDF xmlns:dc="http://purl.org/dc/elements/1.1/" xmlns:cc="http://creativecommons.org/ns#" xmlns:rdf="http://www.w3.org/1999/02/22-rdf-syntax-ns#">
   <cc:Work>
    <dc:type rdf:resource="http://purl.org/dc/dcmitype/StillImage"/>
    <dc:date>2024-02-21T13:17:23.899597</dc:date>
    <dc:format>image/svg+xml</dc:format>
    <dc:creator>
     <cc:Agent>
      <dc:title>Matplotlib v3.5.0, https://matplotlib.org/</dc:title>
     </cc:Agent>
    </dc:creator>
   </cc:Work>
  </rdf:RDF>
 </metadata>
 <defs>
  <style type="text/css">*{stroke-linejoin: round; stroke-linecap: butt}</style>
 </defs>
 <g id="figure_1">
  <g id="patch_1">
   <path d="M 0 345.6 
L 460.8 345.6 
L 460.8 0 
L 0 0 
z
" style="fill: #ffffff"/>
  </g>
  <g id="axes_1">
   <g id="patch_2">
    <path d="M 369.216 174.528 
C 369.216 157.055246 365.774248 139.752393 359.087715 123.609673 
C 352.401182 107.466954 342.599903 92.798303 330.2448 80.4432 
C 317.889697 68.088097 303.221046 58.286818 287.078327 51.600285 
C 270.935607 44.913752 253.632754 41.472 236.16 41.472 
C 218.687246 41.472 201.384393 44.913752 185.241673 51.600285 
C 169.098954 58.286818 154.430303 68.088097 142.0752 80.4432 
C 129.720097 92.798303 119.918818 107.466954 113.232285 123.609673 
C 106.545752 139.752393 103.104 157.055246 103.104 174.528 
C 103.104 192.000754 106.545752 209.303607 113.232285 225.446327 
C 119.918818 241.589046 129.720097 256.257697 142.0752 268.6128 
C 154.430303 280.967903 169.098954 290.769182 185.241673 297.455715 
C 201.384393 304.142248 218.687246 307.584 236.16 307.584 
C 253.632754 307.584 270.935607 304.142248 287.078327 297.455715 
C 303.221046 290.769182 317.889697 280.967903 330.2448 268.6128 
C 342.599903 256.257697 352.401182 241.589046 359.087715 225.446327 
C 365.774248 209.303607 369.216 192.000754 369.216 174.528 
M 236.16 174.528 
C 236.16 174.528 236.16 174.528 236.16 174.528 
C 236.16 174.528 236.16 174.528 236.16 174.528 
C 236.16 174.528 236.16 174.528 236.16 174.528 
C 236.16 174.528 236.16 174.528 236.16 174.528 
C 236.16 174.528 236.16 174.528 236.16 174.528 
C 236.16 174.528 236.16 174.528 236.16 174.528 
C 236.16 174.528 236.16 174.528 236.16 174.528 
C 236.16 174.528 236.16 174.528 236.16 174.528 
C 236.16 174.528 236.16 174.528 236.16 174.528 
C 236.16 174.528 236.16 174.528 236.16 174.528 
C 236.16 174.528 236.16 174.528 236.16 174.528 
C 236.16 174.528 236.16 174.528 236.16 174.528 
C 236.16 174.528 236.16 174.528 236.16 174.528 
C 236.16 174.528 236.16 174.528 236.16 174.528 
C 236.16 174.528 236.16 174.528 236.16 174.528 
C 236.16 174.528 236.16 174.528 236.16 174.528 
M 369.216 174.528 
z
" style="fill: #ffffff"/>
   </g>
   <g id="PathCollection_1">
    <defs>
     <path id="m379c4b15a2" d="M 0 3 
C 0.795609 3 1.55874 2.683901 2.12132 2.12132 
C 2.683901 1.55874 3 0.795609 3 0 
C 3 -0.795609 2.683901 -1.55874 2.12132 -2.12132 
C 1.55874 -2.683901 0.795609 -3 0 -3 
C -0.795609 -3 -1.55874 -2.683901 -2.12132 -2.12132 
C -2.683901 -1.55874 -3 -0.795609 -3 0 
C -3 0.795609 -2.683901 1.55874 -2.12132 2.12132 
C -1.55874 2.683901 -0.795609 3 0 3 
z
" style="stroke: #f50505"/>
    </defs>
    <g clip-path="url(#p9339548d61)">
     <use xlink:href="#m379c4b15a2" x="323.797169" y="222.734556" style="fill: #f50505; stroke: #f50505"/>
     <use xlink:href="#m379c4b15a2" x="325.213198" y="199.686598" style="fill: #f50505; stroke: #f50505"/>
     <use xlink:href="#m379c4b15a2" x="321.845555" y="159.963336" style="fill: #f50505; stroke: #f50505"/>
     <use xlink:href="#m379c4b15a2" x="256.638088" y="89.508456" style="fill: #f50505; stroke: #f50505"/>
     <use xlink:href="#m379c4b15a2" x="312.251505" y="130.297894" style="fill: #f50505; stroke: #f50505"/>
     <use xlink:href="#m379c4b15a2" x="303.403931" y="119.898704" style="fill: #f50505; stroke: #f50505"/>
     <use xlink:href="#m379c4b15a2" x="232.977065" y="264.714407" style="fill: #f50505; stroke: #f50505"/>
     <use xlink:href="#m379c4b15a2" x="321.841522" y="182.31742" style="fill: #f50505; stroke: #f50505"/>
     <use xlink:href="#m379c4b15a2" x="279.357431" y="248.748112" style="fill: #f50505; stroke: #f50505"/>
     <use xlink:href="#m379c4b15a2" x="325.120746" y="168.923824" style="fill: #f50505; stroke: #f50505"/>
     <use xlink:href="#m379c4b15a2" x="297.552007" y="240.579274" style="fill: #f50505; stroke: #f50505"/>
     <use xlink:href="#m379c4b15a2" x="286.238673" y="247.226483" style="fill: #f50505; stroke: #f50505"/>
     <use xlink:href="#m379c4b15a2" x="317.85228" y="203.977551" style="fill: #f50505; stroke: #f50505"/>
     <use xlink:href="#m379c4b15a2" x="320.646094" y="198.611397" style="fill: #f50505; stroke: #f50505"/>
     <use xlink:href="#m379c4b15a2" x="295.652532" y="109.023889" style="fill: #f50505; stroke: #f50505"/>
     <use xlink:href="#m379c4b15a2" x="331.063157" y="181.747567" style="fill: #f50505; stroke: #f50505"/>
     <use xlink:href="#m379c4b15a2" x="300.162087" y="241.510234" style="fill: #f50505; stroke: #f50505"/>
     <use xlink:href="#m379c4b15a2" x="323.478584" y="168.153133" style="fill: #f50505; stroke: #f50505"/>
     <use xlink:href="#m379c4b15a2" x="324.150043" y="178.733787" style="fill: #f50505; stroke: #f50505"/>
     <use xlink:href="#m379c4b15a2" x="322.844815" y="155.039205" style="fill: #f50505; stroke: #f50505"/>
     <use xlink:href="#m379c4b15a2" x="323.346171" y="196.782464" style="fill: #f50505; stroke: #f50505"/>
     <use xlink:href="#m379c4b15a2" x="327.089041" y="164.255326" style="fill: #f50505; stroke: #f50505"/>
     <use xlink:href="#m379c4b15a2" x="246.604459" y="260.794866" style="fill: #f50505; stroke: #f50505"/>
     <use xlink:href="#m379c4b15a2" x="309.081255" y="222.541237" style="fill: #f50505; stroke: #f50505"/>
     <use xlink:href="#m379c4b15a2" x="311.803313" y="220.053354" style="fill: #f50505; stroke: #f50505"/>
     <use xlink:href="#m379c4b15a2" x="327.969464" y="165.489014" style="fill: #f50505; stroke: #f50505"/>
     <use xlink:href="#m379c4b15a2" x="288.800572" y="248.555994" style="fill: #f50505; stroke: #f50505"/>
     <use xlink:href="#m379c4b15a2" x="279.217447" y="255.397853" style="fill: #f50505; stroke: #f50505"/>
    </g>
   </g>
   <g id="PathCollection_2">
    <defs>
     <path id="m232e1163f7" d="M 0 3 
C 0.795609 3 1.55874 2.683901 2.12132 2.12132 
C 2.683901 1.55874 3 0.795609 3 0 
C 3 -0.795609 2.683901 -1.55874 2.12132 -2.12132 
C 1.55874 -2.683901 0.795609 -3 0 -3 
C -0.795609 -3 -1.55874 -2.683901 -2.12132 -2.12132 
C -2.683901 -1.55874 -3 -0.795609 -3 0 
C -3 0.795609 -2.683901 1.55874 -2.12132 2.12132 
C -1.55874 2.683901 -0.795609 3 0 3 
z
" style="stroke: #3505f5"/>
    </defs>
    <g clip-path="url(#p9339548d61)">
     <use xlink:href="#m232e1163f7" x="328.936763" y="174.528" style="fill: #3505f5; stroke: #3505f5"/>
     <use xlink:href="#m232e1163f7" x="327.367705" y="175.248818" style="fill: #3505f5; stroke: #3505f5"/>
     <use xlink:href="#m232e1163f7" x="332.32633" y="153.916351" style="fill: #3505f5; stroke: #3505f5"/>
     <use xlink:href="#m232e1163f7" x="300.696064" y="101.601558" style="fill: #3505f5; stroke: #3505f5"/>
     <use xlink:href="#m232e1163f7" x="156.369881" y="211.385263" style="fill: #3505f5; stroke: #3505f5"/>
     <use xlink:href="#m232e1163f7" x="219.236208" y="267.207674" style="fill: #3505f5; stroke: #3505f5"/>
     <use xlink:href="#m232e1163f7" x="328.936763" y="174.528" style="fill: #3505f5; stroke: #3505f5"/>
     <use xlink:href="#m232e1163f7" x="333.485915" y="145.302346" style="fill: #3505f5; stroke: #3505f5"/>
     <use xlink:href="#m232e1163f7" x="328.619232" y="146.043967" style="fill: #3505f5; stroke: #3505f5"/>
     <use xlink:href="#m232e1163f7" x="325.798745" y="121.228754" style="fill: #3505f5; stroke: #3505f5"/>
     <use xlink:href="#m232e1163f7" x="328.936763" y="174.528" style="fill: #3505f5; stroke: #3505f5"/>
     <use xlink:href="#m232e1163f7" x="319.368291" y="233.800505" style="fill: #3505f5; stroke: #3505f5"/>
     <use xlink:href="#m232e1163f7" x="316.639065" y="138.96" style="fill: #3505f5; stroke: #3505f5"/>
     <use xlink:href="#m232e1163f7" x="291.608487" y="87.215333" style="fill: #3505f5; stroke: #3505f5"/>
     <use xlink:href="#m232e1163f7" x="328.936763" y="174.528" style="fill: #3505f5; stroke: #3505f5"/>
     <use xlink:href="#m232e1163f7" x="198.019505" y="263.909059" style="fill: #3505f5; stroke: #3505f5"/>
     <use xlink:href="#m232e1163f7" x="328.936763" y="174.528" style="fill: #3505f5; stroke: #3505f5"/>
     <use xlink:href="#m232e1163f7" x="328.936763" y="174.528" style="fill: #3505f5; stroke: #3505f5"/>
     <use xlink:href="#m232e1163f7" x="333.92166" y="166.908523" style="fill: #3505f5; stroke: #3505f5"/>
     <use xlink:href="#m232e1163f7" x="330.984931" y="166.813535" style="fill: #3505f5; stroke: #3505f5"/>
     <use xlink:href="#m232e1163f7" x="211.023114" y="71.948741" style="fill: #3505f5; stroke: #3505f5"/>
     <use xlink:href="#m232e1163f7" x="230.97621" y="273.483311" style="fill: #3505f5; stroke: #3505f5"/>
     <use xlink:href="#m232e1163f7" x="314.220364" y="240.250448" style="fill: #3505f5; stroke: #3505f5"/>
     <use xlink:href="#m232e1163f7" x="186.024805" y="264.94158" style="fill: #3505f5; stroke: #3505f5"/>
     <use xlink:href="#m232e1163f7" x="334.295592" y="152.088142" style="fill: #3505f5; stroke: #3505f5"/>
     <use xlink:href="#m232e1163f7" x="207.600529" y="273.997415" style="fill: #3505f5; stroke: #3505f5"/>
     <use xlink:href="#m232e1163f7" x="339.767622" y="193.977048" style="fill: #3505f5; stroke: #3505f5"/>
     <use xlink:href="#m232e1163f7" x="326.864806" y="118.675004" style="fill: #3505f5; stroke: #3505f5"/>
    </g>
   </g>
   <g id="PathCollection_3">
    <defs>
     <path id="m67d3d01f27" d="M 0 3 
C 0.795609 3 1.55874 2.683901 2.12132 2.12132 
C 2.683901 1.55874 3 0.795609 3 0 
C 3 -0.795609 2.683901 -1.55874 2.12132 -2.12132 
C 1.55874 -2.683901 0.795609 -3 0 -3 
C -0.795609 -3 -1.55874 -2.683901 -2.12132 -2.12132 
C -2.683901 -1.55874 -3 -0.795609 -3 0 
C -3 0.795609 -2.683901 1.55874 -2.12132 2.12132 
C -1.55874 2.683901 -0.795609 3 0 3 
z
" style="stroke: #02faf2"/>
    </defs>
    <g clip-path="url(#p9339548d61)">
     <use xlink:href="#m67d3d01f27" x="334.452184" y="121.402676" style="fill: #02faf2; stroke: #02faf2"/>
     <use xlink:href="#m67d3d01f27" x="333.61129" y="119.46425" style="fill: #02faf2; stroke: #02faf2"/>
     <use xlink:href="#m67d3d01f27" x="268.854329" y="67.506633" style="fill: #02faf2; stroke: #02faf2"/>
     <use xlink:href="#m67d3d01f27" x="127.995532" y="203.03226" style="fill: #02faf2; stroke: #02faf2"/>
     <use xlink:href="#m67d3d01f27" x="192.5078" y="278.002473" style="fill: #02faf2; stroke: #02faf2"/>
     <use xlink:href="#m67d3d01f27" x="325.943408" y="240.713147" style="fill: #02faf2; stroke: #02faf2"/>
     <use xlink:href="#m67d3d01f27" x="264.775275" y="285.417324" style="fill: #02faf2; stroke: #02faf2"/>
     <use xlink:href="#m67d3d01f27" x="150.830398" y="98.841676" style="fill: #02faf2; stroke: #02faf2"/>
     <use xlink:href="#m67d3d01f27" x="156.812255" y="93.851012" style="fill: #02faf2; stroke: #02faf2"/>
     <use xlink:href="#m67d3d01f27" x="334.272368" y="120.510659" style="fill: #02faf2; stroke: #02faf2"/>
     <use xlink:href="#m67d3d01f27" x="342.927465" y="218.041343" style="fill: #02faf2; stroke: #02faf2"/>
     <use xlink:href="#m67d3d01f27" x="331.302383" y="241.519771" style="fill: #02faf2; stroke: #02faf2"/>
     <use xlink:href="#m67d3d01f27" x="301.201586" y="89.832779" style="fill: #02faf2; stroke: #02faf2"/>
     <use xlink:href="#m67d3d01f27" x="125.387493" y="192.014695" style="fill: #02faf2; stroke: #02faf2"/>
     <use xlink:href="#m67d3d01f27" x="349.107423" y="186.911854" style="fill: #02faf2; stroke: #02faf2"/>
     <use xlink:href="#m67d3d01f27" x="263.673841" y="285.913164" style="fill: #02faf2; stroke: #02faf2"/>
     <use xlink:href="#m67d3d01f27" x="360.966142" y="150.981046" style="fill: #02faf2; stroke: #02faf2"/>
     <use xlink:href="#m67d3d01f27" x="232.074505" y="61.449492" style="fill: #02faf2; stroke: #02faf2"/>
     <use xlink:href="#m67d3d01f27" x="280.715789" y="73.162597" style="fill: #02faf2; stroke: #02faf2"/>
     <use xlink:href="#m67d3d01f27" x="214.916162" y="66.760774" style="fill: #02faf2; stroke: #02faf2"/>
     <use xlink:href="#m67d3d01f27" x="171.426447" y="78.981922" style="fill: #02faf2; stroke: #02faf2"/>
     <use xlink:href="#m67d3d01f27" x="340.833728" y="228.743757" style="fill: #02faf2; stroke: #02faf2"/>
     <use xlink:href="#m67d3d01f27" x="124.52947" y="143.630864" style="fill: #02faf2; stroke: #02faf2"/>
     <use xlink:href="#m67d3d01f27" x="304.570504" y="265.141452" style="fill: #02faf2; stroke: #02faf2"/>
     <use xlink:href="#m67d3d01f27" x="231.769052" y="62.846366" style="fill: #02faf2; stroke: #02faf2"/>
     <use xlink:href="#m67d3d01f27" x="281.301117" y="281.043117" style="fill: #02faf2; stroke: #02faf2"/>
     <use xlink:href="#m67d3d01f27" x="173.152877" y="80.045821" style="fill: #02faf2; stroke: #02faf2"/>
     <use xlink:href="#m67d3d01f27" x="237.834773" y="56.038916" style="fill: #02faf2; stroke: #02faf2"/>
    </g>
   </g>
   <g id="PathCollection_4">
    <defs>
     <path id="m0cf610c147" d="M 0 3 
C 0.795609 3 1.55874 2.683901 2.12132 2.12132 
C 2.683901 1.55874 3 0.795609 3 0 
C 3 -0.795609 2.683901 -1.55874 2.12132 -2.12132 
C 1.55874 -2.683901 0.795609 -3 0 -3 
C -0.795609 -3 -1.55874 -2.683901 -2.12132 -2.12132 
C -2.683901 -1.55874 -3 -0.795609 -3 0 
C -3 0.795609 -2.683901 1.55874 -2.12132 2.12132 
C -1.55874 2.683901 -0.795609 3 0 3 
z
" style="stroke: #f5ed05"/>
    </defs>
    <g clip-path="url(#p9339548d61)">
     <use xlink:href="#m0cf610c147" x="327.856951" y="198.568294" style="fill: #f5ed05; stroke: #f5ed05"/>
     <use xlink:href="#m0cf610c147" x="329.322005" y="178.153337" style="fill: #f5ed05; stroke: #f5ed05"/>
     <use xlink:href="#m0cf610c147" x="328.677079" y="170.441547" style="fill: #f5ed05; stroke: #f5ed05"/>
     <use xlink:href="#m0cf610c147" x="327.149992" y="181.540165" style="fill: #f5ed05; stroke: #f5ed05"/>
     <use xlink:href="#m0cf610c147" x="327.467601" y="174.051955" style="fill: #f5ed05; stroke: #f5ed05"/>
     <use xlink:href="#m0cf610c147" x="318.06107" y="134.580041" style="fill: #f5ed05; stroke: #f5ed05"/>
     <use xlink:href="#m0cf610c147" x="297.87602" y="243.356306" style="fill: #f5ed05; stroke: #f5ed05"/>
     <use xlink:href="#m0cf610c147" x="327.471591" y="177.035938" style="fill: #f5ed05; stroke: #f5ed05"/>
     <use xlink:href="#m0cf610c147" x="307.904022" y="230.647119" style="fill: #f5ed05; stroke: #f5ed05"/>
     <use xlink:href="#m0cf610c147" x="328.084699" y="168.025141" style="fill: #f5ed05; stroke: #f5ed05"/>
     <use xlink:href="#m0cf610c147" x="327.915503" y="165.283505" style="fill: #f5ed05; stroke: #f5ed05"/>
     <use xlink:href="#m0cf610c147" x="325.892046" y="193.546359" style="fill: #f5ed05; stroke: #f5ed05"/>
     <use xlink:href="#m0cf610c147" x="327.919282" y="182.726467" style="fill: #f5ed05; stroke: #f5ed05"/>
     <use xlink:href="#m0cf610c147" x="315.280878" y="220.298263" style="fill: #f5ed05; stroke: #f5ed05"/>
     <use xlink:href="#m0cf610c147" x="328.61499" y="171.188892" style="fill: #f5ed05; stroke: #f5ed05"/>
     <use xlink:href="#m0cf610c147" x="327.224536" y="196.317499" style="fill: #f5ed05; stroke: #f5ed05"/>
     <use xlink:href="#m0cf610c147" x="303.994881" y="237.604833" style="fill: #f5ed05; stroke: #f5ed05"/>
     <use xlink:href="#m0cf610c147" x="327.236404" y="177.17197" style="fill: #f5ed05; stroke: #f5ed05"/>
     <use xlink:href="#m0cf610c147" x="328.17461" y="174.196464" style="fill: #f5ed05; stroke: #f5ed05"/>
     <use xlink:href="#m0cf610c147" x="329.373139" y="171.044968" style="fill: #f5ed05; stroke: #f5ed05"/>
     <use xlink:href="#m0cf610c147" x="326.932689" y="187.948161" style="fill: #f5ed05; stroke: #f5ed05"/>
     <use xlink:href="#m0cf610c147" x="327.843465" y="185.529547" style="fill: #f5ed05; stroke: #f5ed05"/>
     <use xlink:href="#m0cf610c147" x="325.234347" y="196.140889" style="fill: #f5ed05; stroke: #f5ed05"/>
     <use xlink:href="#m0cf610c147" x="326.812876" y="187.614859" style="fill: #f5ed05; stroke: #f5ed05"/>
     <use xlink:href="#m0cf610c147" x="327.42781" y="185.925889" style="fill: #f5ed05; stroke: #f5ed05"/>
     <use xlink:href="#m0cf610c147" x="328.947821" y="169.368433" style="fill: #f5ed05; stroke: #f5ed05"/>
     <use xlink:href="#m0cf610c147" x="328.3477" y="180.693174" style="fill: #f5ed05; stroke: #f5ed05"/>
     <use xlink:href="#m0cf610c147" x="313.637082" y="225.715265" style="fill: #f5ed05; stroke: #f5ed05"/>
    </g>
   </g>
   <g id="PathCollection_5">
    <defs>
     <path id="mb1c0327b5f" d="M 0 3 
C 0.795609 3 1.55874 2.683901 2.12132 2.12132 
C 2.683901 1.55874 3 0.795609 3 0 
C 3 -0.795609 2.683901 -1.55874 2.12132 -2.12132 
C 1.55874 -2.683901 0.795609 -3 0 -3 
C -0.795609 -3 -1.55874 -2.683901 -2.12132 -2.12132 
C -2.683901 -1.55874 -3 -0.795609 -3 0 
C -3 0.795609 -2.683901 1.55874 -2.12132 2.12132 
C -1.55874 2.683901 -0.795609 3 0 3 
z
" style="stroke: #518e37"/>
    </defs>
    <g clip-path="url(#p9339548d61)">
     <use xlink:href="#mb1c0327b5f" x="342.430807" y="148.894966" style="fill: #518e37; stroke: #518e37"/>
     <use xlink:href="#mb1c0327b5f" x="341.631166" y="156.154313" style="fill: #518e37; stroke: #518e37"/>
     <use xlink:href="#mb1c0327b5f" x="343.677036" y="160.644553" style="fill: #518e37; stroke: #518e37"/>
     <use xlink:href="#mb1c0327b5f" x="207.675148" y="71.463779" style="fill: #518e37; stroke: #518e37"/>
     <use xlink:href="#mb1c0327b5f" x="338.836311" y="199.778099" style="fill: #518e37; stroke: #518e37"/>
     <use xlink:href="#mb1c0327b5f" x="304.944909" y="255.601798" style="fill: #518e37; stroke: #518e37"/>
     <use xlink:href="#mb1c0327b5f" x="168.004287" y="260.317896" style="fill: #518e37; stroke: #518e37"/>
     <use xlink:href="#mb1c0327b5f" x="158.425878" y="94.460828" style="fill: #518e37; stroke: #518e37"/>
     <use xlink:href="#mb1c0327b5f" x="300.983133" y="86.87611" style="fill: #518e37; stroke: #518e37"/>
     <use xlink:href="#mb1c0327b5f" x="281.729935" y="274.759069" style="fill: #518e37; stroke: #518e37"/>
     <use xlink:href="#mb1c0327b5f" x="160.299592" y="259.258563" style="fill: #518e37; stroke: #518e37"/>
     <use xlink:href="#mb1c0327b5f" x="196.700202" y="280.269582" style="fill: #518e37; stroke: #518e37"/>
     <use xlink:href="#mb1c0327b5f" x="342.812005" y="172.9644" style="fill: #518e37; stroke: #518e37"/>
     <use xlink:href="#mb1c0327b5f" x="332.988477" y="123.451839" style="fill: #518e37; stroke: #518e37"/>
     <use xlink:href="#mb1c0327b5f" x="228.626843" y="285.745913" style="fill: #518e37; stroke: #518e37"/>
     <use xlink:href="#mb1c0327b5f" x="254.609036" y="283.852043" style="fill: #518e37; stroke: #518e37"/>
     <use xlink:href="#mb1c0327b5f" x="270.951347" y="294.061841" style="fill: #518e37; stroke: #518e37"/>
     <use xlink:href="#mb1c0327b5f" x="317.438161" y="99.571173" style="fill: #518e37; stroke: #518e37"/>
     <use xlink:href="#mb1c0327b5f" x="290.065105" y="79.980448" style="fill: #518e37; stroke: #518e37"/>
     <use xlink:href="#mb1c0327b5f" x="308.266109" y="95.397391" style="fill: #518e37; stroke: #518e37"/>
     <use xlink:href="#mb1c0327b5f" x="319.562459" y="96.506755" style="fill: #518e37; stroke: #518e37"/>
     <use xlink:href="#mb1c0327b5f" x="297.203742" y="270.930214" style="fill: #518e37; stroke: #518e37"/>
     <use xlink:href="#mb1c0327b5f" x="168.932644" y="83.062091" style="fill: #518e37; stroke: #518e37"/>
     <use xlink:href="#mb1c0327b5f" x="127.058047" y="155.449772" style="fill: #518e37; stroke: #518e37"/>
     <use xlink:href="#mb1c0327b5f" x="345.296584" y="161.802449" style="fill: #518e37; stroke: #518e37"/>
     <use xlink:href="#mb1c0327b5f" x="125.65653" y="196.73098" style="fill: #518e37; stroke: #518e37"/>
     <use xlink:href="#mb1c0327b5f" x="318.517923" y="99.182746" style="fill: #518e37; stroke: #518e37"/>
     <use xlink:href="#mb1c0327b5f" x="156.916361" y="89.298907" style="fill: #518e37; stroke: #518e37"/>
    </g>
   </g>
   <g id="PathCollection_6">
    <defs>
     <path id="m1cad0fb996" d="M 0 3 
C 0.795609 3 1.55874 2.683901 2.12132 2.12132 
C 2.683901 1.55874 3 0.795609 3 0 
C 3 -0.795609 2.683901 -1.55874 2.12132 -2.12132 
C 1.55874 -2.683901 0.795609 -3 0 -3 
C -0.795609 -3 -1.55874 -2.683901 -2.12132 -2.12132 
C -2.683901 -1.55874 -3 -0.795609 -3 0 
C -3 0.795609 -2.683901 1.55874 -2.12132 2.12132 
C -1.55874 2.683901 -0.795609 3 0 3 
z
" style="stroke: #ff14f2"/>
    </defs>
    <g clip-path="url(#p9339548d61)">
     <use xlink:href="#m1cad0fb996" x="296.60719" y="266.682063" style="fill: #ff14f2; stroke: #ff14f2"/>
     <use xlink:href="#m1cad0fb996" x="340.340595" y="160.091898" style="fill: #ff14f2; stroke: #ff14f2"/>
     <use xlink:href="#m1cad0fb996" x="342.248645" y="153.861543" style="fill: #ff14f2; stroke: #ff14f2"/>
     <use xlink:href="#m1cad0fb996" x="157.203228" y="106.69724" style="fill: #ff14f2; stroke: #ff14f2"/>
     <use xlink:href="#m1cad0fb996" x="330.842756" y="196.515289" style="fill: #ff14f2; stroke: #ff14f2"/>
     <use xlink:href="#m1cad0fb996" x="322.066713" y="118.962672" style="fill: #ff14f2; stroke: #ff14f2"/>
     <use xlink:href="#m1cad0fb996" x="130.586156" y="174.326971" style="fill: #ff14f2; stroke: #ff14f2"/>
     <use xlink:href="#m1cad0fb996" x="128.112163" y="184.370449" style="fill: #ff14f2; stroke: #ff14f2"/>
     <use xlink:href="#m1cad0fb996" x="165.645071" y="97.41814" style="fill: #ff14f2; stroke: #ff14f2"/>
     <use xlink:href="#m1cad0fb996" x="269.295594" y="70.435365" style="fill: #ff14f2; stroke: #ff14f2"/>
     <use xlink:href="#m1cad0fb996" x="338.098689" y="146.816992" style="fill: #ff14f2; stroke: #ff14f2"/>
     <use xlink:href="#m1cad0fb996" x="342.835451" y="205.777095" style="fill: #ff14f2; stroke: #ff14f2"/>
     <use xlink:href="#m1cad0fb996" x="318.495768" y="236.020365" style="fill: #ff14f2; stroke: #ff14f2"/>
     <use xlink:href="#m1cad0fb996" x="130.893915" y="192.984329" style="fill: #ff14f2; stroke: #ff14f2"/>
     <use xlink:href="#m1cad0fb996" x="324.614701" y="106.291857" style="fill: #ff14f2; stroke: #ff14f2"/>
     <use xlink:href="#m1cad0fb996" x="308.440677" y="250.310999" style="fill: #ff14f2; stroke: #ff14f2"/>
     <use xlink:href="#m1cad0fb996" x="302.759911" y="276.112883" style="fill: #ff14f2; stroke: #ff14f2"/>
     <use xlink:href="#m1cad0fb996" x="129.934477" y="163.738679" style="fill: #ff14f2; stroke: #ff14f2"/>
     <use xlink:href="#m1cad0fb996" x="294.02403" y="85.556057" style="fill: #ff14f2; stroke: #ff14f2"/>
     <use xlink:href="#m1cad0fb996" x="341.285989" y="152.951976" style="fill: #ff14f2; stroke: #ff14f2"/>
     <use xlink:href="#m1cad0fb996" x="126.954912" y="155.156863" style="fill: #ff14f2; stroke: #ff14f2"/>
     <use xlink:href="#m1cad0fb996" x="296.115775" y="260.819167" style="fill: #ff14f2; stroke: #ff14f2"/>
     <use xlink:href="#m1cad0fb996" x="129.451988" y="151.703019" style="fill: #ff14f2; stroke: #ff14f2"/>
     <use xlink:href="#m1cad0fb996" x="333.486032" y="223.622953" style="fill: #ff14f2; stroke: #ff14f2"/>
     <use xlink:href="#m1cad0fb996" x="344.876578" y="170.721312" style="fill: #ff14f2; stroke: #ff14f2"/>
     <use xlink:href="#m1cad0fb996" x="343.35781" y="159.655167" style="fill: #ff14f2; stroke: #ff14f2"/>
     <use xlink:href="#m1cad0fb996" x="182.769833" y="77.507763" style="fill: #ff14f2; stroke: #ff14f2"/>
     <use xlink:href="#m1cad0fb996" x="239.575647" y="59.954155" style="fill: #ff14f2; stroke: #ff14f2"/>
    </g>
   </g>
   <g id="PathCollection_7">
    <defs>
     <path id="mf4c319e3f4" d="M 0 3 
C 0.795609 3 1.55874 2.683901 2.12132 2.12132 
C 2.683901 1.55874 3 0.795609 3 0 
C 3 -0.795609 2.683901 -1.55874 2.12132 -2.12132 
C 1.55874 -2.683901 0.795609 -3 0 -3 
C -0.795609 -3 -1.55874 -2.683901 -2.12132 -2.12132 
C -2.683901 -1.55874 -3 -0.795609 -3 0 
C -3 0.795609 -2.683901 1.55874 -2.12132 2.12132 
C -1.55874 2.683901 -0.795609 3 0 3 
z
" style="stroke: #7703fc"/>
    </defs>
    <g clip-path="url(#p9339548d61)">
     <use xlink:href="#mf4c319e3f4" x="313.472279" y="149.968816" style="fill: #7703fc; stroke: #7703fc"/>
     <use xlink:href="#mf4c319e3f4" x="239.287137" y="184.912328" style="fill: #7703fc; stroke: #7703fc"/>
     <use xlink:href="#mf4c319e3f4" x="242.465172" y="220.829726" style="fill: #7703fc; stroke: #7703fc"/>
     <use xlink:href="#mf4c319e3f4" x="283.500664" y="99.515822" style="fill: #7703fc; stroke: #7703fc"/>
     <use xlink:href="#mf4c319e3f4" x="158.14749" y="185.150941" style="fill: #7703fc; stroke: #7703fc"/>
     <use xlink:href="#mf4c319e3f4" x="292.871848" y="236.592613" style="fill: #7703fc; stroke: #7703fc"/>
     <use xlink:href="#mf4c319e3f4" x="170.73354" y="149.926678" style="fill: #7703fc; stroke: #7703fc"/>
     <use xlink:href="#mf4c319e3f4" x="219.679638" y="92.429496" style="fill: #7703fc; stroke: #7703fc"/>
     <use xlink:href="#mf4c319e3f4" x="280.539147" y="108.050581" style="fill: #7703fc; stroke: #7703fc"/>
     <use xlink:href="#mf4c319e3f4" x="273.69046" y="219.352832" style="fill: #7703fc; stroke: #7703fc"/>
     <use xlink:href="#mf4c319e3f4" x="211.255702" y="255.208343" style="fill: #7703fc; stroke: #7703fc"/>
     <use xlink:href="#mf4c319e3f4" x="228.223864" y="212.858713" style="fill: #7703fc; stroke: #7703fc"/>
     <use xlink:href="#mf4c319e3f4" x="263.727995" y="204.192413" style="fill: #7703fc; stroke: #7703fc"/>
     <use xlink:href="#mf4c319e3f4" x="306.472072" y="125.938466" style="fill: #7703fc; stroke: #7703fc"/>
     <use xlink:href="#mf4c319e3f4" x="297.253924" y="142.706008" style="fill: #7703fc; stroke: #7703fc"/>
     <use xlink:href="#mf4c319e3f4" x="169.664683" y="147.314906" style="fill: #7703fc; stroke: #7703fc"/>
     <use xlink:href="#mf4c319e3f4" x="235.809485" y="180.565834" style="fill: #7703fc; stroke: #7703fc"/>
     <use xlink:href="#mf4c319e3f4" x="189.452929" y="144.392976" style="fill: #7703fc; stroke: #7703fc"/>
     <use xlink:href="#mf4c319e3f4" x="277.17127" y="203.375102" style="fill: #7703fc; stroke: #7703fc"/>
     <use xlink:href="#mf4c319e3f4" x="281.761054" y="226.090236" style="fill: #7703fc; stroke: #7703fc"/>
     <use xlink:href="#mf4c319e3f4" x="146.593054" y="145.687364" style="fill: #7703fc; stroke: #7703fc"/>
     <use xlink:href="#mf4c319e3f4" x="192.068848" y="218.564158" style="fill: #7703fc; stroke: #7703fc"/>
     <use xlink:href="#mf4c319e3f4" x="189.306456" y="100.086501" style="fill: #7703fc; stroke: #7703fc"/>
     <use xlink:href="#mf4c319e3f4" x="191.676508" y="252.881422" style="fill: #7703fc; stroke: #7703fc"/>
     <use xlink:href="#mf4c319e3f4" x="215.676669" y="222.024358" style="fill: #7703fc; stroke: #7703fc"/>
     <use xlink:href="#mf4c319e3f4" x="165.344978" y="185.484106" style="fill: #7703fc; stroke: #7703fc"/>
     <use xlink:href="#mf4c319e3f4" x="189.147819" y="92.829256" style="fill: #7703fc; stroke: #7703fc"/>
     <use xlink:href="#mf4c319e3f4" x="213.69875" y="90.227826" style="fill: #7703fc; stroke: #7703fc"/>
    </g>
   </g>
   <g id="matplotlib.axis_1">
    <g id="xtick_1">
     <g id="line2d_1">
      <path d="M 236.16 174.528 
L 369.216 174.528 
" clip-path="url(#p9339548d61)" style="fill: none; stroke: #b0b0b0; stroke-width: 0.8; stroke-linecap: square"/>
     </g>
     <g id="text_1">
      <!-- 0° -->
      <g transform="translate(377.53475 177.287375)scale(0.1 -0.1)">
       <defs>
        <path id="DejaVuSans-30" d="M 2034 4250 
Q 1547 4250 1301 3770 
Q 1056 3291 1056 2328 
Q 1056 1369 1301 889 
Q 1547 409 2034 409 
Q 2525 409 2770 889 
Q 3016 1369 3016 2328 
Q 3016 3291 2770 3770 
Q 2525 4250 2034 4250 
z
M 2034 4750 
Q 2819 4750 3233 4129 
Q 3647 3509 3647 2328 
Q 3647 1150 3233 529 
Q 2819 -91 2034 -91 
Q 1250 -91 836 529 
Q 422 1150 422 2328 
Q 422 3509 836 4129 
Q 1250 4750 2034 4750 
z
" transform="scale(0.015625)"/>
        <path id="DejaVuSans-b0" d="M 1600 4347 
Q 1350 4347 1178 4173 
Q 1006 4000 1006 3750 
Q 1006 3503 1178 3333 
Q 1350 3163 1600 3163 
Q 1850 3163 2022 3333 
Q 2194 3503 2194 3750 
Q 2194 3997 2020 4172 
Q 1847 4347 1600 4347 
z
M 1600 4750 
Q 1800 4750 1984 4673 
Q 2169 4597 2303 4453 
Q 2447 4313 2519 4134 
Q 2591 3956 2591 3750 
Q 2591 3338 2302 3052 
Q 2013 2766 1594 2766 
Q 1172 2766 890 3047 
Q 609 3328 609 3750 
Q 609 4169 896 4459 
Q 1184 4750 1600 4750 
z
" transform="scale(0.015625)"/>
       </defs>
       <use xlink:href="#DejaVuSans-30"/>
       <use xlink:href="#DejaVuSans-b0" x="63.623047"/>
      </g>
     </g>
    </g>
    <g id="xtick_2">
     <g id="line2d_2">
      <path d="M 236.16 174.528 
L 330.2448 80.4432 
" clip-path="url(#p9339548d61)" style="fill: none; stroke: #b0b0b0; stroke-width: 0.8; stroke-linecap: square"/>
     </g>
     <g id="text_2">
      <!-- 45° -->
      <g transform="translate(331.281795 73.30308)scale(0.1 -0.1)">
       <defs>
        <path id="DejaVuSans-34" d="M 2419 4116 
L 825 1625 
L 2419 1625 
L 2419 4116 
z
M 2253 4666 
L 3047 4666 
L 3047 1625 
L 3713 1625 
L 3713 1100 
L 3047 1100 
L 3047 0 
L 2419 0 
L 2419 1100 
L 313 1100 
L 313 1709 
L 2253 4666 
z
" transform="scale(0.015625)"/>
        <path id="DejaVuSans-35" d="M 691 4666 
L 3169 4666 
L 3169 4134 
L 1269 4134 
L 1269 2991 
Q 1406 3038 1543 3061 
Q 1681 3084 1819 3084 
Q 2600 3084 3056 2656 
Q 3513 2228 3513 1497 
Q 3513 744 3044 326 
Q 2575 -91 1722 -91 
Q 1428 -91 1123 -41 
Q 819 9 494 109 
L 494 744 
Q 775 591 1075 516 
Q 1375 441 1709 441 
Q 2250 441 2565 725 
Q 2881 1009 2881 1497 
Q 2881 1984 2565 2268 
Q 2250 2553 1709 2553 
Q 1456 2553 1204 2497 
Q 953 2441 691 2322 
L 691 4666 
z
" transform="scale(0.015625)"/>
       </defs>
       <use xlink:href="#DejaVuSans-34"/>
       <use xlink:href="#DejaVuSans-35" x="63.623047"/>
       <use xlink:href="#DejaVuSans-b0" x="127.246094"/>
      </g>
     </g>
    </g>
    <g id="xtick_3">
     <g id="line2d_3">
      <path d="M 236.16 174.528 
L 236.16 41.472 
" clip-path="url(#p9339548d61)" style="fill: none; stroke: #b0b0b0; stroke-width: 0.8; stroke-linecap: square"/>
     </g>
     <g id="text_3">
      <!-- 90° -->
      <g transform="translate(227.2975 30.231375)scale(0.1 -0.1)">
       <defs>
        <path id="DejaVuSans-39" d="M 703 97 
L 703 672 
Q 941 559 1184 500 
Q 1428 441 1663 441 
Q 2288 441 2617 861 
Q 2947 1281 2994 2138 
Q 2813 1869 2534 1725 
Q 2256 1581 1919 1581 
Q 1219 1581 811 2004 
Q 403 2428 403 3163 
Q 403 3881 828 4315 
Q 1253 4750 1959 4750 
Q 2769 4750 3195 4129 
Q 3622 3509 3622 2328 
Q 3622 1225 3098 567 
Q 2575 -91 1691 -91 
Q 1453 -91 1209 -44 
Q 966 3 703 97 
z
M 1959 2075 
Q 2384 2075 2632 2365 
Q 2881 2656 2881 3163 
Q 2881 3666 2632 3958 
Q 2384 4250 1959 4250 
Q 1534 4250 1286 3958 
Q 1038 3666 1038 3163 
Q 1038 2656 1286 2365 
Q 1534 2075 1959 2075 
z
" transform="scale(0.015625)"/>
       </defs>
       <use xlink:href="#DejaVuSans-39"/>
       <use xlink:href="#DejaVuSans-30" x="63.623047"/>
       <use xlink:href="#DejaVuSans-b0" x="127.246094"/>
      </g>
     </g>
    </g>
    <g id="xtick_4">
     <g id="line2d_4">
      <path d="M 236.16 174.528 
L 142.0752 80.4432 
" clip-path="url(#p9339548d61)" style="fill: none; stroke: #b0b0b0; stroke-width: 0.8; stroke-linecap: square"/>
     </g>
     <g id="text_4">
      <!-- 135° -->
      <g transform="translate(120.131955 73.30308)scale(0.1 -0.1)">
       <defs>
        <path id="DejaVuSans-31" d="M 794 531 
L 1825 531 
L 1825 4091 
L 703 3866 
L 703 4441 
L 1819 4666 
L 2450 4666 
L 2450 531 
L 3481 531 
L 3481 0 
L 794 0 
L 794 531 
z
" transform="scale(0.015625)"/>
        <path id="DejaVuSans-33" d="M 2597 2516 
Q 3050 2419 3304 2112 
Q 3559 1806 3559 1356 
Q 3559 666 3084 287 
Q 2609 -91 1734 -91 
Q 1441 -91 1130 -33 
Q 819 25 488 141 
L 488 750 
Q 750 597 1062 519 
Q 1375 441 1716 441 
Q 2309 441 2620 675 
Q 2931 909 2931 1356 
Q 2931 1769 2642 2001 
Q 2353 2234 1838 2234 
L 1294 2234 
L 1294 2753 
L 1863 2753 
Q 2328 2753 2575 2939 
Q 2822 3125 2822 3475 
Q 2822 3834 2567 4026 
Q 2313 4219 1838 4219 
Q 1578 4219 1281 4162 
Q 984 4106 628 3988 
L 628 4550 
Q 988 4650 1302 4700 
Q 1616 4750 1894 4750 
Q 2613 4750 3031 4423 
Q 3450 4097 3450 3541 
Q 3450 3153 3228 2886 
Q 3006 2619 2597 2516 
z
" transform="scale(0.015625)"/>
       </defs>
       <use xlink:href="#DejaVuSans-31"/>
       <use xlink:href="#DejaVuSans-33" x="63.623047"/>
       <use xlink:href="#DejaVuSans-35" x="127.246094"/>
       <use xlink:href="#DejaVuSans-b0" x="190.869141"/>
      </g>
     </g>
    </g>
    <g id="xtick_5">
     <g id="line2d_5">
      <path d="M 236.16 174.528 
L 103.104 174.528 
" clip-path="url(#p9339548d61)" style="fill: none; stroke: #b0b0b0; stroke-width: 0.8; stroke-linecap: square"/>
     </g>
     <g id="text_5">
      <!-- 180° -->
      <g transform="translate(77.06025 177.287375)scale(0.1 -0.1)">
       <defs>
        <path id="DejaVuSans-38" d="M 2034 2216 
Q 1584 2216 1326 1975 
Q 1069 1734 1069 1313 
Q 1069 891 1326 650 
Q 1584 409 2034 409 
Q 2484 409 2743 651 
Q 3003 894 3003 1313 
Q 3003 1734 2745 1975 
Q 2488 2216 2034 2216 
z
M 1403 2484 
Q 997 2584 770 2862 
Q 544 3141 544 3541 
Q 544 4100 942 4425 
Q 1341 4750 2034 4750 
Q 2731 4750 3128 4425 
Q 3525 4100 3525 3541 
Q 3525 3141 3298 2862 
Q 3072 2584 2669 2484 
Q 3125 2378 3379 2068 
Q 3634 1759 3634 1313 
Q 3634 634 3220 271 
Q 2806 -91 2034 -91 
Q 1263 -91 848 271 
Q 434 634 434 1313 
Q 434 1759 690 2068 
Q 947 2378 1403 2484 
z
M 1172 3481 
Q 1172 3119 1398 2916 
Q 1625 2713 2034 2713 
Q 2441 2713 2670 2916 
Q 2900 3119 2900 3481 
Q 2900 3844 2670 4047 
Q 2441 4250 2034 4250 
Q 1625 4250 1398 4047 
Q 1172 3844 1172 3481 
z
" transform="scale(0.015625)"/>
       </defs>
       <use xlink:href="#DejaVuSans-31"/>
       <use xlink:href="#DejaVuSans-38" x="63.623047"/>
       <use xlink:href="#DejaVuSans-30" x="127.246094"/>
       <use xlink:href="#DejaVuSans-b0" x="190.869141"/>
      </g>
     </g>
    </g>
    <g id="xtick_6">
     <g id="line2d_6">
      <path d="M 236.16 174.528 
L 142.0752 268.6128 
" clip-path="url(#p9339548d61)" style="fill: none; stroke: #b0b0b0; stroke-width: 0.8; stroke-linecap: square"/>
     </g>
     <g id="text_6">
      <!-- 225° -->
      <g transform="translate(120.131955 281.27167)scale(0.1 -0.1)">
       <defs>
        <path id="DejaVuSans-32" d="M 1228 531 
L 3431 531 
L 3431 0 
L 469 0 
L 469 531 
Q 828 903 1448 1529 
Q 2069 2156 2228 2338 
Q 2531 2678 2651 2914 
Q 2772 3150 2772 3378 
Q 2772 3750 2511 3984 
Q 2250 4219 1831 4219 
Q 1534 4219 1204 4116 
Q 875 4013 500 3803 
L 500 4441 
Q 881 4594 1212 4672 
Q 1544 4750 1819 4750 
Q 2544 4750 2975 4387 
Q 3406 4025 3406 3419 
Q 3406 3131 3298 2873 
Q 3191 2616 2906 2266 
Q 2828 2175 2409 1742 
Q 1991 1309 1228 531 
z
" transform="scale(0.015625)"/>
       </defs>
       <use xlink:href="#DejaVuSans-32"/>
       <use xlink:href="#DejaVuSans-32" x="63.623047"/>
       <use xlink:href="#DejaVuSans-35" x="127.246094"/>
       <use xlink:href="#DejaVuSans-b0" x="190.869141"/>
      </g>
     </g>
    </g>
    <g id="xtick_7">
     <g id="line2d_7">
      <path d="M 236.16 174.528 
L 236.16 307.584 
" clip-path="url(#p9339548d61)" style="fill: none; stroke: #b0b0b0; stroke-width: 0.8; stroke-linecap: square"/>
     </g>
     <g id="text_7">
      <!-- 270° -->
      <g transform="translate(224.11625 324.343375)scale(0.1 -0.1)">
       <defs>
        <path id="DejaVuSans-37" d="M 525 4666 
L 3525 4666 
L 3525 4397 
L 1831 0 
L 1172 0 
L 2766 4134 
L 525 4134 
L 525 4666 
z
" transform="scale(0.015625)"/>
       </defs>
       <use xlink:href="#DejaVuSans-32"/>
       <use xlink:href="#DejaVuSans-37" x="63.623047"/>
       <use xlink:href="#DejaVuSans-30" x="127.246094"/>
       <use xlink:href="#DejaVuSans-b0" x="190.869141"/>
      </g>
     </g>
    </g>
    <g id="xtick_8">
     <g id="line2d_8">
      <path d="M 236.16 174.528 
L 330.2448 268.6128 
" clip-path="url(#p9339548d61)" style="fill: none; stroke: #b0b0b0; stroke-width: 0.8; stroke-linecap: square"/>
     </g>
     <g id="text_8">
      <!-- 315° -->
      <g transform="translate(328.100545 281.27167)scale(0.1 -0.1)">
       <use xlink:href="#DejaVuSans-33"/>
       <use xlink:href="#DejaVuSans-31" x="63.623047"/>
       <use xlink:href="#DejaVuSans-35" x="127.246094"/>
       <use xlink:href="#DejaVuSans-b0" x="190.869141"/>
      </g>
     </g>
    </g>
   </g>
   <g id="matplotlib.axis_2">
    <g id="ytick_1">
     <g id="line2d_9">
      <path d="M 338.623707 174.528 
C 338.623707 161.072589 335.973284 147.748016 330.824121 135.316837 
C 325.674959 122.885658 318.127194 111.58963 308.612782 102.075218 
C 299.09837 92.560806 287.802342 85.013041 275.371163 79.863879 
C 262.939984 74.714716 249.615411 72.064293 236.16 72.064293 
C 222.704589 72.064293 209.380016 74.714716 196.948837 79.863879 
C 184.517658 85.013041 173.22163 92.560806 163.707218 102.075218 
C 154.192806 111.58963 146.645041 122.885658 141.495879 135.316837 
C 136.346716 147.748016 133.696293 161.072589 133.696293 174.528 
C 133.696293 187.983411 136.346716 201.307984 141.495879 213.739163 
C 146.645041 226.170342 154.192806 237.46637 163.707218 246.980782 
C 173.22163 256.495194 184.517658 264.042959 196.948837 269.192121 
C 209.380016 274.341284 222.704589 276.991707 236.16 276.991707 
C 249.615411 276.991707 262.939984 274.341284 275.371163 269.192121 
C 287.802342 264.042959 299.09837 256.495194 308.612782 246.980782 
C 318.127194 237.46637 325.674959 226.170342 330.824121 213.739163 
C 335.973284 201.307984 338.623707 187.983411 338.623707 174.528 
" clip-path="url(#p9339548d61)" style="fill: none; stroke: #b0b0b0; stroke-width: 0.8; stroke-linecap: square"/>
     </g>
     <g id="text_9">
      <!-- 0.02 -->
      <g transform="translate(330.824121 133.23715)scale(0.1 -0.1)">
       <defs>
        <path id="DejaVuSans-2e" d="M 684 794 
L 1344 794 
L 1344 0 
L 684 0 
L 684 794 
z
" transform="scale(0.015625)"/>
       </defs>
       <use xlink:href="#DejaVuSans-30"/>
       <use xlink:href="#DejaVuSans-2e" x="63.623047"/>
       <use xlink:href="#DejaVuSans-30" x="95.410156"/>
       <use xlink:href="#DejaVuSans-32" x="159.033203"/>
      </g>
     </g>
    </g>
   </g>
   <g id="patch_3">
    <path d="M 369.216 174.528 
C 369.216 157.055246 365.774248 139.752393 359.087715 123.609673 
C 352.401182 107.466954 342.599903 92.798303 330.2448 80.4432 
C 317.889697 68.088097 303.221046 58.286818 287.078327 51.600285 
C 270.935607 44.913752 253.632754 41.472 236.16 41.472 
C 218.687246 41.472 201.384393 44.913752 185.241673 51.600285 
C 169.098954 58.286818 154.430303 68.088097 142.0752 80.4432 
C 129.720097 92.798303 119.918818 107.466954 113.232285 123.609673 
C 106.545752 139.752393 103.104 157.055246 103.104 174.528 
C 103.104 192.000754 106.545752 209.303607 113.232285 225.446327 
C 119.918818 241.589046 129.720097 256.257697 142.0752 268.6128 
C 154.430303 280.967903 169.098954 290.769182 185.241673 297.455715 
C 201.384393 304.142248 218.687246 307.584 236.16 307.584 
C 253.632754 307.584 270.935607 304.142248 287.078327 297.455715 
C 303.221046 290.769182 317.889697 280.967903 330.2448 268.6128 
C 342.599903 256.257697 352.401182 241.589046 359.087715 225.446327 
C 365.774248 209.303607 369.216 192.000754 369.216 174.528 
" style="fill: none; stroke: #000000; stroke-width: 0.8; stroke-linejoin: miter; stroke-linecap: square"/>
   </g>
  </g>
  <g id="legend_1">
   <g id="patch_4">
    <path d="M 368.790625 110.746875 
L 453.8 110.746875 
Q 455.8 110.746875 455.8 108.746875 
L 455.8 7 
Q 455.8 5 453.8 5 
L 368.790625 5 
Q 366.790625 5 366.790625 7 
L 366.790625 108.746875 
Q 366.790625 110.746875 368.790625 110.746875 
z
" style="fill: #ffffff; opacity: 0.8; stroke: #cccccc; stroke-linejoin: miter"/>
   </g>
   <g id="PathCollection_8">
    <g>
     <use xlink:href="#m379c4b15a2" x="380.790625" y="13.973437" style="fill: #f50505; stroke: #f50505"/>
    </g>
   </g>
   <g id="text_10">
    <!-- Decoder E -->
    <g transform="translate(398.790625 16.598437)scale(0.1 -0.1)">
     <defs>
      <path id="DejaVuSans-44" d="M 1259 4147 
L 1259 519 
L 2022 519 
Q 2988 519 3436 956 
Q 3884 1394 3884 2338 
Q 3884 3275 3436 3711 
Q 2988 4147 2022 4147 
L 1259 4147 
z
M 628 4666 
L 1925 4666 
Q 3281 4666 3915 4102 
Q 4550 3538 4550 2338 
Q 4550 1131 3912 565 
Q 3275 0 1925 0 
L 628 0 
L 628 4666 
z
" transform="scale(0.015625)"/>
      <path id="DejaVuSans-65" d="M 3597 1894 
L 3597 1613 
L 953 1613 
Q 991 1019 1311 708 
Q 1631 397 2203 397 
Q 2534 397 2845 478 
Q 3156 559 3463 722 
L 3463 178 
Q 3153 47 2828 -22 
Q 2503 -91 2169 -91 
Q 1331 -91 842 396 
Q 353 884 353 1716 
Q 353 2575 817 3079 
Q 1281 3584 2069 3584 
Q 2775 3584 3186 3129 
Q 3597 2675 3597 1894 
z
M 3022 2063 
Q 3016 2534 2758 2815 
Q 2500 3097 2075 3097 
Q 1594 3097 1305 2825 
Q 1016 2553 972 2059 
L 3022 2063 
z
" transform="scale(0.015625)"/>
      <path id="DejaVuSans-63" d="M 3122 3366 
L 3122 2828 
Q 2878 2963 2633 3030 
Q 2388 3097 2138 3097 
Q 1578 3097 1268 2742 
Q 959 2388 959 1747 
Q 959 1106 1268 751 
Q 1578 397 2138 397 
Q 2388 397 2633 464 
Q 2878 531 3122 666 
L 3122 134 
Q 2881 22 2623 -34 
Q 2366 -91 2075 -91 
Q 1284 -91 818 406 
Q 353 903 353 1747 
Q 353 2603 823 3093 
Q 1294 3584 2113 3584 
Q 2378 3584 2631 3529 
Q 2884 3475 3122 3366 
z
" transform="scale(0.015625)"/>
      <path id="DejaVuSans-6f" d="M 1959 3097 
Q 1497 3097 1228 2736 
Q 959 2375 959 1747 
Q 959 1119 1226 758 
Q 1494 397 1959 397 
Q 2419 397 2687 759 
Q 2956 1122 2956 1747 
Q 2956 2369 2687 2733 
Q 2419 3097 1959 3097 
z
M 1959 3584 
Q 2709 3584 3137 3096 
Q 3566 2609 3566 1747 
Q 3566 888 3137 398 
Q 2709 -91 1959 -91 
Q 1206 -91 779 398 
Q 353 888 353 1747 
Q 353 2609 779 3096 
Q 1206 3584 1959 3584 
z
" transform="scale(0.015625)"/>
      <path id="DejaVuSans-64" d="M 2906 2969 
L 2906 4863 
L 3481 4863 
L 3481 0 
L 2906 0 
L 2906 525 
Q 2725 213 2448 61 
Q 2172 -91 1784 -91 
Q 1150 -91 751 415 
Q 353 922 353 1747 
Q 353 2572 751 3078 
Q 1150 3584 1784 3584 
Q 2172 3584 2448 3432 
Q 2725 3281 2906 2969 
z
M 947 1747 
Q 947 1113 1208 752 
Q 1469 391 1925 391 
Q 2381 391 2643 752 
Q 2906 1113 2906 1747 
Q 2906 2381 2643 2742 
Q 2381 3103 1925 3103 
Q 1469 3103 1208 2742 
Q 947 2381 947 1747 
z
" transform="scale(0.015625)"/>
      <path id="DejaVuSans-72" d="M 2631 2963 
Q 2534 3019 2420 3045 
Q 2306 3072 2169 3072 
Q 1681 3072 1420 2755 
Q 1159 2438 1159 1844 
L 1159 0 
L 581 0 
L 581 3500 
L 1159 3500 
L 1159 2956 
Q 1341 3275 1631 3429 
Q 1922 3584 2338 3584 
Q 2397 3584 2469 3576 
Q 2541 3569 2628 3553 
L 2631 2963 
z
" transform="scale(0.015625)"/>
      <path id="DejaVuSans-20" transform="scale(0.015625)"/>
      <path id="DejaVuSans-45" d="M 628 4666 
L 3578 4666 
L 3578 4134 
L 1259 4134 
L 1259 2753 
L 3481 2753 
L 3481 2222 
L 1259 2222 
L 1259 531 
L 3634 531 
L 3634 0 
L 628 0 
L 628 4666 
z
" transform="scale(0.015625)"/>
     </defs>
     <use xlink:href="#DejaVuSans-44"/>
     <use xlink:href="#DejaVuSans-65" x="77.001953"/>
     <use xlink:href="#DejaVuSans-63" x="138.525391"/>
     <use xlink:href="#DejaVuSans-6f" x="193.505859"/>
     <use xlink:href="#DejaVuSans-64" x="254.6875"/>
     <use xlink:href="#DejaVuSans-65" x="318.164062"/>
     <use xlink:href="#DejaVuSans-72" x="379.6875"/>
     <use xlink:href="#DejaVuSans-20" x="420.800781"/>
     <use xlink:href="#DejaVuSans-45" x="452.587891"/>
    </g>
   </g>
   <g id="PathCollection_9">
    <g>
     <use xlink:href="#m232e1163f7" x="380.790625" y="28.651563" style="fill: #3505f5; stroke: #3505f5"/>
    </g>
   </g>
   <g id="text_11">
    <!-- Decoder F -->
    <g transform="translate(398.790625 31.276563)scale(0.1 -0.1)">
     <defs>
      <path id="DejaVuSans-46" d="M 628 4666 
L 3309 4666 
L 3309 4134 
L 1259 4134 
L 1259 2759 
L 3109 2759 
L 3109 2228 
L 1259 2228 
L 1259 0 
L 628 0 
L 628 4666 
z
" transform="scale(0.015625)"/>
     </defs>
     <use xlink:href="#DejaVuSans-44"/>
     <use xlink:href="#DejaVuSans-65" x="77.001953"/>
     <use xlink:href="#DejaVuSans-63" x="138.525391"/>
     <use xlink:href="#DejaVuSans-6f" x="193.505859"/>
     <use xlink:href="#DejaVuSans-64" x="254.6875"/>
     <use xlink:href="#DejaVuSans-65" x="318.164062"/>
     <use xlink:href="#DejaVuSans-72" x="379.6875"/>
     <use xlink:href="#DejaVuSans-20" x="420.800781"/>
     <use xlink:href="#DejaVuSans-46" x="452.587891"/>
    </g>
   </g>
   <g id="PathCollection_10">
    <g>
     <use xlink:href="#m67d3d01f27" x="380.790625" y="43.329687" style="fill: #02faf2; stroke: #02faf2"/>
    </g>
   </g>
   <g id="text_12">
    <!-- Decoder G -->
    <g transform="translate(398.790625 45.954687)scale(0.1 -0.1)">
     <defs>
      <path id="DejaVuSans-47" d="M 3809 666 
L 3809 1919 
L 2778 1919 
L 2778 2438 
L 4434 2438 
L 4434 434 
Q 4069 175 3628 42 
Q 3188 -91 2688 -91 
Q 1594 -91 976 548 
Q 359 1188 359 2328 
Q 359 3472 976 4111 
Q 1594 4750 2688 4750 
Q 3144 4750 3555 4637 
Q 3966 4525 4313 4306 
L 4313 3634 
Q 3963 3931 3569 4081 
Q 3175 4231 2741 4231 
Q 1884 4231 1454 3753 
Q 1025 3275 1025 2328 
Q 1025 1384 1454 906 
Q 1884 428 2741 428 
Q 3075 428 3337 486 
Q 3600 544 3809 666 
z
" transform="scale(0.015625)"/>
     </defs>
     <use xlink:href="#DejaVuSans-44"/>
     <use xlink:href="#DejaVuSans-65" x="77.001953"/>
     <use xlink:href="#DejaVuSans-63" x="138.525391"/>
     <use xlink:href="#DejaVuSans-6f" x="193.505859"/>
     <use xlink:href="#DejaVuSans-64" x="254.6875"/>
     <use xlink:href="#DejaVuSans-65" x="318.164062"/>
     <use xlink:href="#DejaVuSans-72" x="379.6875"/>
     <use xlink:href="#DejaVuSans-20" x="420.800781"/>
     <use xlink:href="#DejaVuSans-47" x="452.587891"/>
    </g>
   </g>
   <g id="PathCollection_11">
    <g>
     <use xlink:href="#m0cf610c147" x="380.790625" y="58.007812" style="fill: #f5ed05; stroke: #f5ed05"/>
    </g>
   </g>
   <g id="text_13">
    <!-- Decoder H -->
    <g transform="translate(398.790625 60.632812)scale(0.1 -0.1)">
     <defs>
      <path id="DejaVuSans-48" d="M 628 4666 
L 1259 4666 
L 1259 2753 
L 3553 2753 
L 3553 4666 
L 4184 4666 
L 4184 0 
L 3553 0 
L 3553 2222 
L 1259 2222 
L 1259 0 
L 628 0 
L 628 4666 
z
" transform="scale(0.015625)"/>
     </defs>
     <use xlink:href="#DejaVuSans-44"/>
     <use xlink:href="#DejaVuSans-65" x="77.001953"/>
     <use xlink:href="#DejaVuSans-63" x="138.525391"/>
     <use xlink:href="#DejaVuSans-6f" x="193.505859"/>
     <use xlink:href="#DejaVuSans-64" x="254.6875"/>
     <use xlink:href="#DejaVuSans-65" x="318.164062"/>
     <use xlink:href="#DejaVuSans-72" x="379.6875"/>
     <use xlink:href="#DejaVuSans-20" x="420.800781"/>
     <use xlink:href="#DejaVuSans-48" x="452.587891"/>
    </g>
   </g>
   <g id="PathCollection_12">
    <g>
     <use xlink:href="#mb1c0327b5f" x="380.790625" y="72.685937" style="fill: #518e37; stroke: #518e37"/>
    </g>
   </g>
   <g id="text_14">
    <!-- Decoder I -->
    <g transform="translate(398.790625 75.310937)scale(0.1 -0.1)">
     <defs>
      <path id="DejaVuSans-49" d="M 628 4666 
L 1259 4666 
L 1259 0 
L 628 0 
L 628 4666 
z
" transform="scale(0.015625)"/>
     </defs>
     <use xlink:href="#DejaVuSans-44"/>
     <use xlink:href="#DejaVuSans-65" x="77.001953"/>
     <use xlink:href="#DejaVuSans-63" x="138.525391"/>
     <use xlink:href="#DejaVuSans-6f" x="193.505859"/>
     <use xlink:href="#DejaVuSans-64" x="254.6875"/>
     <use xlink:href="#DejaVuSans-65" x="318.164062"/>
     <use xlink:href="#DejaVuSans-72" x="379.6875"/>
     <use xlink:href="#DejaVuSans-20" x="420.800781"/>
     <use xlink:href="#DejaVuSans-49" x="452.587891"/>
    </g>
   </g>
   <g id="PathCollection_13">
    <g>
     <use xlink:href="#m1cad0fb996" x="380.790625" y="87.364062" style="fill: #ff14f2; stroke: #ff14f2"/>
    </g>
   </g>
   <g id="text_15">
    <!-- Decoder J -->
    <g transform="translate(398.790625 89.989062)scale(0.1 -0.1)">
     <defs>
      <path id="DejaVuSans-4a" d="M 628 4666 
L 1259 4666 
L 1259 325 
Q 1259 -519 939 -900 
Q 619 -1281 -91 -1281 
L -331 -1281 
L -331 -750 
L -134 -750 
Q 284 -750 456 -515 
Q 628 -281 628 325 
L 628 4666 
z
" transform="scale(0.015625)"/>
     </defs>
     <use xlink:href="#DejaVuSans-44"/>
     <use xlink:href="#DejaVuSans-65" x="77.001953"/>
     <use xlink:href="#DejaVuSans-63" x="138.525391"/>
     <use xlink:href="#DejaVuSans-6f" x="193.505859"/>
     <use xlink:href="#DejaVuSans-64" x="254.6875"/>
     <use xlink:href="#DejaVuSans-65" x="318.164062"/>
     <use xlink:href="#DejaVuSans-72" x="379.6875"/>
     <use xlink:href="#DejaVuSans-20" x="420.800781"/>
     <use xlink:href="#DejaVuSans-4a" x="452.587891"/>
    </g>
   </g>
   <g id="PathCollection_14">
    <g>
     <use xlink:href="#mf4c319e3f4" x="380.790625" y="102.042187" style="fill: #7703fc; stroke: #7703fc"/>
    </g>
   </g>
   <g id="text_16">
    <!-- Decoder K -->
    <g transform="translate(398.790625 104.667187)scale(0.1 -0.1)">
     <defs>
      <path id="DejaVuSans-4b" d="M 628 4666 
L 1259 4666 
L 1259 2694 
L 3353 4666 
L 4166 4666 
L 1850 2491 
L 4331 0 
L 3500 0 
L 1259 2247 
L 1259 0 
L 628 0 
L 628 4666 
z
" transform="scale(0.015625)"/>
     </defs>
     <use xlink:href="#DejaVuSans-44"/>
     <use xlink:href="#DejaVuSans-65" x="77.001953"/>
     <use xlink:href="#DejaVuSans-63" x="138.525391"/>
     <use xlink:href="#DejaVuSans-6f" x="193.505859"/>
     <use xlink:href="#DejaVuSans-64" x="254.6875"/>
     <use xlink:href="#DejaVuSans-65" x="318.164062"/>
     <use xlink:href="#DejaVuSans-72" x="379.6875"/>
     <use xlink:href="#DejaVuSans-20" x="420.800781"/>
     <use xlink:href="#DejaVuSans-4b" x="452.587891"/>
    </g>
   </g>
  </g>
 </g>
 <defs>
  <clipPath id="p9339548d61">
   <path d="M 369.216 174.528 
C 369.216 157.055246 365.774248 139.752393 359.087715 123.609673 
C 352.401182 107.466954 342.599903 92.798303 330.2448 80.4432 
C 317.889697 68.088097 303.221046 58.286818 287.078327 51.600285 
C 270.935607 44.913752 253.632754 41.472 236.16 41.472 
C 218.687246 41.472 201.384393 44.913752 185.241673 51.600285 
C 169.098954 58.286818 154.430303 68.088097 142.0752 80.4432 
C 129.720097 92.798303 119.918818 107.466954 113.232285 123.609673 
C 106.545752 139.752393 103.104 157.055246 103.104 174.528 
C 103.104 192.000754 106.545752 209.303607 113.232285 225.446327 
C 119.918818 241.589046 129.720097 256.257697 142.0752 268.6128 
C 154.430303 280.967903 169.098954 290.769182 185.241673 297.455715 
C 201.384393 304.142248 218.687246 307.584 236.16 307.584 
C 253.632754 307.584 270.935607 304.142248 287.078327 297.455715 
C 303.221046 290.769182 317.889697 280.967903 330.2448 268.6128 
C 342.599903 256.257697 352.401182 241.589046 359.087715 225.446327 
C 365.774248 209.303607 369.216 192.000754 369.216 174.528 
M 236.16 174.528 
C 236.16 174.528 236.16 174.528 236.16 174.528 
C 236.16 174.528 236.16 174.528 236.16 174.528 
C 236.16 174.528 236.16 174.528 236.16 174.528 
C 236.16 174.528 236.16 174.528 236.16 174.528 
C 236.16 174.528 236.16 174.528 236.16 174.528 
C 236.16 174.528 236.16 174.528 236.16 174.528 
C 236.16 174.528 236.16 174.528 236.16 174.528 
C 236.16 174.528 236.16 174.528 236.16 174.528 
C 236.16 174.528 236.16 174.528 236.16 174.528 
C 236.16 174.528 236.16 174.528 236.16 174.528 
C 236.16 174.528 236.16 174.528 236.16 174.528 
C 236.16 174.528 236.16 174.528 236.16 174.528 
C 236.16 174.528 236.16 174.528 236.16 174.528 
C 236.16 174.528 236.16 174.528 236.16 174.528 
C 236.16 174.528 236.16 174.528 236.16 174.528 
C 236.16 174.528 236.16 174.528 236.16 174.528 
M 369.216 174.528 
z
"/>
  </clipPath>
 </defs>
</svg>
