<?xml version="1.0" encoding="utf-8" standalone="no"?>
<!DOCTYPE svg PUBLIC "-//W3C//DTD SVG 1.1//EN"
  "http://www.w3.org/Graphics/SVG/1.1/DTD/svg11.dtd">
<svg xmlns:xlink="http://www.w3.org/1999/xlink" width="460.8pt" height="345.6pt" viewBox="0 0 460.8 345.6" xmlns="http://www.w3.org/2000/svg" version="1.1">
 <metadata>
  <rdf:RDF xmlns:dc="http://purl.org/dc/elements/1.1/" xmlns:cc="http://creativecommons.org/ns#" xmlns:rdf="http://www.w3.org/1999/02/22-rdf-syntax-ns#">
   <cc:Work>
    <dc:type rdf:resource="http://purl.org/dc/dcmitype/StillImage"/>
    <dc:date>2024-02-20T18:22:16.007559</dc:date>
    <dc:format>image/svg+xml</dc:format>
    <dc:creator>
     <cc:Agent>
      <dc:title>Matplotlib v3.5.0, https://matplotlib.org/</dc:title>
     </cc:Agent>
    </dc:creator>
   </cc:Work>
  </rdf:RDF>
 </metadata>
 <defs>
  <style type="text/css">*{stroke-linejoin: round; stroke-linecap: butt}</style>
 </defs>
 <g id="figure_1">
  <g id="patch_1">
   <path d="M 0 345.6 
L 460.8 345.6 
L 460.8 0 
L 0 0 
z
" style="fill: #ffffff"/>
  </g>
  <g id="axes_1">
   <g id="patch_2">
    <path d="M 57.6 307.584 
L 414.72 307.584 
L 414.72 41.472 
L 57.6 41.472 
z
" style="fill: #ffffff"/>
   </g>
   <g id="matplotlib.axis_1">
    <g id="xtick_1">
     <g id="line2d_1">
      <defs>
       <path id="mb6c0cf1ee8" d="M 0 0 
L 0 3.5 
" style="stroke: #000000; stroke-width: 0.8"/>
      </defs>
      <g>
       <use xlink:href="#mb6c0cf1ee8" x="73.832727" y="307.584" style="stroke: #000000; stroke-width: 0.8"/>
      </g>
     </g>
     <g id="text_1">
      <!-- 0 -->
      <g transform="translate(67.470227 329.780875)scale(0.2 -0.2)">
       <defs>
        <path id="DejaVuSans-30" d="M 2034 4250 
Q 1547 4250 1301 3770 
Q 1056 3291 1056 2328 
Q 1056 1369 1301 889 
Q 1547 409 2034 409 
Q 2525 409 2770 889 
Q 3016 1369 3016 2328 
Q 3016 3291 2770 3770 
Q 2525 4250 2034 4250 
z
M 2034 4750 
Q 2819 4750 3233 4129 
Q 3647 3509 3647 2328 
Q 3647 1150 3233 529 
Q 2819 -91 2034 -91 
Q 1250 -91 836 529 
Q 422 1150 422 2328 
Q 422 3509 836 4129 
Q 1250 4750 2034 4750 
z
" transform="scale(0.015625)"/>
       </defs>
       <use xlink:href="#DejaVuSans-30"/>
      </g>
     </g>
    </g>
    <g id="xtick_2">
     <g id="line2d_2">
      <g>
       <use xlink:href="#mb6c0cf1ee8" x="399.341627" y="307.584" style="stroke: #000000; stroke-width: 0.8"/>
      </g>
     </g>
     <g id="text_2">
      <!-- 1 -->
      <g transform="translate(392.979127 329.780875)scale(0.2 -0.2)">
       <defs>
        <path id="DejaVuSans-31" d="M 794 531 
L 1825 531 
L 1825 4091 
L 703 3866 
L 703 4441 
L 1819 4666 
L 2450 4666 
L 2450 531 
L 3481 531 
L 3481 0 
L 794 0 
L 794 531 
z
" transform="scale(0.015625)"/>
       </defs>
       <use xlink:href="#DejaVuSans-31"/>
      </g>
     </g>
    </g>
    <g id="text_3">
     <!-- Normalised X position -->
     <g transform="translate(111.795937 353.137125)scale(0.2 -0.2)">
      <defs>
       <path id="DejaVuSans-Bold-4e" d="M 588 4666 
L 1931 4666 
L 3628 1466 
L 3628 4666 
L 4769 4666 
L 4769 0 
L 3425 0 
L 1728 3200 
L 1728 0 
L 588 0 
L 588 4666 
z
" transform="scale(0.015625)"/>
       <path id="DejaVuSans-Bold-6f" d="M 2203 2784 
Q 1831 2784 1636 2517 
Q 1441 2250 1441 1747 
Q 1441 1244 1636 976 
Q 1831 709 2203 709 
Q 2569 709 2762 976 
Q 2956 1244 2956 1747 
Q 2956 2250 2762 2517 
Q 2569 2784 2203 2784 
z
M 2203 3584 
Q 3106 3584 3614 3096 
Q 4122 2609 4122 1747 
Q 4122 884 3614 396 
Q 3106 -91 2203 -91 
Q 1297 -91 786 396 
Q 275 884 275 1747 
Q 275 2609 786 3096 
Q 1297 3584 2203 3584 
z
" transform="scale(0.015625)"/>
       <path id="DejaVuSans-Bold-72" d="M 3138 2547 
Q 2991 2616 2845 2648 
Q 2700 2681 2553 2681 
Q 2122 2681 1889 2404 
Q 1656 2128 1656 1613 
L 1656 0 
L 538 0 
L 538 3500 
L 1656 3500 
L 1656 2925 
Q 1872 3269 2151 3426 
Q 2431 3584 2822 3584 
Q 2878 3584 2943 3579 
Q 3009 3575 3134 3559 
L 3138 2547 
z
" transform="scale(0.015625)"/>
       <path id="DejaVuSans-Bold-6d" d="M 3781 2919 
Q 3994 3244 4286 3414 
Q 4578 3584 4928 3584 
Q 5531 3584 5847 3212 
Q 6163 2841 6163 2131 
L 6163 0 
L 5038 0 
L 5038 1825 
Q 5041 1866 5042 1909 
Q 5044 1953 5044 2034 
Q 5044 2406 4934 2573 
Q 4825 2741 4581 2741 
Q 4263 2741 4089 2478 
Q 3916 2216 3909 1719 
L 3909 0 
L 2784 0 
L 2784 1825 
Q 2784 2406 2684 2573 
Q 2584 2741 2328 2741 
Q 2006 2741 1831 2477 
Q 1656 2213 1656 1722 
L 1656 0 
L 531 0 
L 531 3500 
L 1656 3500 
L 1656 2988 
Q 1863 3284 2130 3434 
Q 2397 3584 2719 3584 
Q 3081 3584 3359 3409 
Q 3638 3234 3781 2919 
z
" transform="scale(0.015625)"/>
       <path id="DejaVuSans-Bold-61" d="M 2106 1575 
Q 1756 1575 1579 1456 
Q 1403 1338 1403 1106 
Q 1403 894 1545 773 
Q 1688 653 1941 653 
Q 2256 653 2472 879 
Q 2688 1106 2688 1447 
L 2688 1575 
L 2106 1575 
z
M 3816 1997 
L 3816 0 
L 2688 0 
L 2688 519 
Q 2463 200 2181 54 
Q 1900 -91 1497 -91 
Q 953 -91 614 226 
Q 275 544 275 1050 
Q 275 1666 698 1953 
Q 1122 2241 2028 2241 
L 2688 2241 
L 2688 2328 
Q 2688 2594 2478 2717 
Q 2269 2841 1825 2841 
Q 1466 2841 1156 2769 
Q 847 2697 581 2553 
L 581 3406 
Q 941 3494 1303 3539 
Q 1666 3584 2028 3584 
Q 2975 3584 3395 3211 
Q 3816 2838 3816 1997 
z
" transform="scale(0.015625)"/>
       <path id="DejaVuSans-Bold-6c" d="M 538 4863 
L 1656 4863 
L 1656 0 
L 538 0 
L 538 4863 
z
" transform="scale(0.015625)"/>
       <path id="DejaVuSans-Bold-69" d="M 538 3500 
L 1656 3500 
L 1656 0 
L 538 0 
L 538 3500 
z
M 538 4863 
L 1656 4863 
L 1656 3950 
L 538 3950 
L 538 4863 
z
" transform="scale(0.015625)"/>
       <path id="DejaVuSans-Bold-73" d="M 3272 3391 
L 3272 2541 
Q 2913 2691 2578 2766 
Q 2244 2841 1947 2841 
Q 1628 2841 1473 2761 
Q 1319 2681 1319 2516 
Q 1319 2381 1436 2309 
Q 1553 2238 1856 2203 
L 2053 2175 
Q 2913 2066 3209 1816 
Q 3506 1566 3506 1031 
Q 3506 472 3093 190 
Q 2681 -91 1863 -91 
Q 1516 -91 1145 -36 
Q 775 19 384 128 
L 384 978 
Q 719 816 1070 734 
Q 1422 653 1784 653 
Q 2113 653 2278 743 
Q 2444 834 2444 1013 
Q 2444 1163 2330 1236 
Q 2216 1309 1875 1350 
L 1678 1375 
Q 931 1469 631 1722 
Q 331 1975 331 2491 
Q 331 3047 712 3315 
Q 1094 3584 1881 3584 
Q 2191 3584 2531 3537 
Q 2872 3491 3272 3391 
z
" transform="scale(0.015625)"/>
       <path id="DejaVuSans-Bold-65" d="M 4031 1759 
L 4031 1441 
L 1416 1441 
Q 1456 1047 1700 850 
Q 1944 653 2381 653 
Q 2734 653 3104 758 
Q 3475 863 3866 1075 
L 3866 213 
Q 3469 63 3072 -14 
Q 2675 -91 2278 -91 
Q 1328 -91 801 392 
Q 275 875 275 1747 
Q 275 2603 792 3093 
Q 1309 3584 2216 3584 
Q 3041 3584 3536 3087 
Q 4031 2591 4031 1759 
z
M 2881 2131 
Q 2881 2450 2695 2645 
Q 2509 2841 2209 2841 
Q 1884 2841 1681 2658 
Q 1478 2475 1428 2131 
L 2881 2131 
z
" transform="scale(0.015625)"/>
       <path id="DejaVuSans-Bold-64" d="M 2919 2988 
L 2919 4863 
L 4044 4863 
L 4044 0 
L 2919 0 
L 2919 506 
Q 2688 197 2409 53 
Q 2131 -91 1766 -91 
Q 1119 -91 703 423 
Q 288 938 288 1747 
Q 288 2556 703 3070 
Q 1119 3584 1766 3584 
Q 2128 3584 2408 3439 
Q 2688 3294 2919 2988 
z
M 2181 722 
Q 2541 722 2730 984 
Q 2919 1247 2919 1747 
Q 2919 2247 2730 2509 
Q 2541 2772 2181 2772 
Q 1825 2772 1636 2509 
Q 1447 2247 1447 1747 
Q 1447 1247 1636 984 
Q 1825 722 2181 722 
z
" transform="scale(0.015625)"/>
       <path id="DejaVuSans-Bold-20" transform="scale(0.015625)"/>
       <path id="DejaVuSans-Bold-58" d="M 3188 2381 
L 4806 0 
L 3553 0 
L 2463 1594 
L 1381 0 
L 122 0 
L 1741 2381 
L 184 4666 
L 1441 4666 
L 2463 3163 
L 3481 4666 
L 4744 4666 
L 3188 2381 
z
" transform="scale(0.015625)"/>
       <path id="DejaVuSans-Bold-70" d="M 1656 506 
L 1656 -1331 
L 538 -1331 
L 538 3500 
L 1656 3500 
L 1656 2988 
Q 1888 3294 2169 3439 
Q 2450 3584 2816 3584 
Q 3463 3584 3878 3070 
Q 4294 2556 4294 1747 
Q 4294 938 3878 423 
Q 3463 -91 2816 -91 
Q 2450 -91 2169 54 
Q 1888 200 1656 506 
z
M 2400 2772 
Q 2041 2772 1848 2508 
Q 1656 2244 1656 1747 
Q 1656 1250 1848 986 
Q 2041 722 2400 722 
Q 2759 722 2948 984 
Q 3138 1247 3138 1747 
Q 3138 2247 2948 2509 
Q 2759 2772 2400 2772 
z
" transform="scale(0.015625)"/>
       <path id="DejaVuSans-Bold-74" d="M 1759 4494 
L 1759 3500 
L 2913 3500 
L 2913 2700 
L 1759 2700 
L 1759 1216 
Q 1759 972 1856 886 
Q 1953 800 2241 800 
L 2816 800 
L 2816 0 
L 1856 0 
Q 1194 0 917 276 
Q 641 553 641 1216 
L 641 2700 
L 84 2700 
L 84 3500 
L 641 3500 
L 641 4494 
L 1759 4494 
z
" transform="scale(0.015625)"/>
       <path id="DejaVuSans-Bold-6e" d="M 4056 2131 
L 4056 0 
L 2931 0 
L 2931 347 
L 2931 1631 
Q 2931 2084 2911 2256 
Q 2891 2428 2841 2509 
Q 2775 2619 2662 2680 
Q 2550 2741 2406 2741 
Q 2056 2741 1856 2470 
Q 1656 2200 1656 1722 
L 1656 0 
L 538 0 
L 538 3500 
L 1656 3500 
L 1656 2988 
Q 1909 3294 2193 3439 
Q 2478 3584 2822 3584 
Q 3428 3584 3742 3212 
Q 4056 2841 4056 2131 
z
" transform="scale(0.015625)"/>
      </defs>
      <use xlink:href="#DejaVuSans-Bold-4e"/>
      <use xlink:href="#DejaVuSans-Bold-6f" x="83.691406"/>
      <use xlink:href="#DejaVuSans-Bold-72" x="152.392578"/>
      <use xlink:href="#DejaVuSans-Bold-6d" x="201.708984"/>
      <use xlink:href="#DejaVuSans-Bold-61" x="305.908203"/>
      <use xlink:href="#DejaVuSans-Bold-6c" x="373.388672"/>
      <use xlink:href="#DejaVuSans-Bold-69" x="407.666016"/>
      <use xlink:href="#DejaVuSans-Bold-73" x="441.943359"/>
      <use xlink:href="#DejaVuSans-Bold-65" x="501.464844"/>
      <use xlink:href="#DejaVuSans-Bold-64" x="569.287109"/>
      <use xlink:href="#DejaVuSans-Bold-20" x="640.869141"/>
      <use xlink:href="#DejaVuSans-Bold-58" x="675.683594"/>
      <use xlink:href="#DejaVuSans-Bold-20" x="752.783203"/>
      <use xlink:href="#DejaVuSans-Bold-70" x="787.597656"/>
      <use xlink:href="#DejaVuSans-Bold-6f" x="859.179688"/>
      <use xlink:href="#DejaVuSans-Bold-73" x="927.880859"/>
      <use xlink:href="#DejaVuSans-Bold-69" x="987.402344"/>
      <use xlink:href="#DejaVuSans-Bold-74" x="1021.679688"/>
      <use xlink:href="#DejaVuSans-Bold-69" x="1069.482422"/>
      <use xlink:href="#DejaVuSans-Bold-6f" x="1103.759766"/>
      <use xlink:href="#DejaVuSans-Bold-6e" x="1172.460938"/>
     </g>
    </g>
   </g>
   <g id="matplotlib.axis_2">
    <g id="ytick_1">
     <g id="line2d_3">
      <defs>
       <path id="m7cfe054556" d="M 0 0 
L -3.5 0 
" style="stroke: #000000; stroke-width: 0.8"/>
      </defs>
      <g>
       <use xlink:href="#m7cfe054556" x="57.6" y="297.635888" style="stroke: #000000; stroke-width: 0.8"/>
      </g>
     </g>
     <g id="text_4">
      <!-- 0 -->
      <g transform="translate(37.875 305.234325)scale(0.2 -0.2)">
       <use xlink:href="#DejaVuSans-30"/>
      </g>
     </g>
    </g>
    <g id="ytick_2">
     <g id="line2d_4">
      <g>
       <use xlink:href="#m7cfe054556" x="57.6" y="41.472" style="stroke: #000000; stroke-width: 0.8"/>
      </g>
     </g>
     <g id="text_5">
      <!-- 1 -->
      <g transform="translate(37.875 49.070438)scale(0.2 -0.2)">
       <use xlink:href="#DejaVuSans-31"/>
      </g>
     </g>
    </g>
    <g id="text_6">
     <!-- Normalised Y position -->
     <g transform="translate(29.715625 298.423313)rotate(-90)scale(0.2 -0.2)">
      <defs>
       <path id="DejaVuSans-Bold-59" d="M -63 4666 
L 1253 4666 
L 2316 3003 
L 3378 4666 
L 4697 4666 
L 2919 1966 
L 2919 0 
L 1716 0 
L 1716 1966 
L -63 4666 
z
" transform="scale(0.015625)"/>
      </defs>
      <use xlink:href="#DejaVuSans-Bold-4e"/>
      <use xlink:href="#DejaVuSans-Bold-6f" x="83.691406"/>
      <use xlink:href="#DejaVuSans-Bold-72" x="152.392578"/>
      <use xlink:href="#DejaVuSans-Bold-6d" x="201.708984"/>
      <use xlink:href="#DejaVuSans-Bold-61" x="305.908203"/>
      <use xlink:href="#DejaVuSans-Bold-6c" x="373.388672"/>
      <use xlink:href="#DejaVuSans-Bold-69" x="407.666016"/>
      <use xlink:href="#DejaVuSans-Bold-73" x="441.943359"/>
      <use xlink:href="#DejaVuSans-Bold-65" x="501.464844"/>
      <use xlink:href="#DejaVuSans-Bold-64" x="569.287109"/>
      <use xlink:href="#DejaVuSans-Bold-20" x="640.869141"/>
      <use xlink:href="#DejaVuSans-Bold-59" x="675.683594"/>
      <use xlink:href="#DejaVuSans-Bold-20" x="748.095703"/>
      <use xlink:href="#DejaVuSans-Bold-70" x="782.910156"/>
      <use xlink:href="#DejaVuSans-Bold-6f" x="854.492188"/>
      <use xlink:href="#DejaVuSans-Bold-73" x="923.193359"/>
      <use xlink:href="#DejaVuSans-Bold-69" x="982.714844"/>
      <use xlink:href="#DejaVuSans-Bold-74" x="1016.992188"/>
      <use xlink:href="#DejaVuSans-Bold-69" x="1064.794922"/>
      <use xlink:href="#DejaVuSans-Bold-6f" x="1099.072266"/>
      <use xlink:href="#DejaVuSans-Bold-6e" x="1167.773438"/>
     </g>
    </g>
   </g>
   <g id="line2d_5">
    <path d="M 252.050986 125.284845 
L 253.076211 126.279656 
L 253.759694 127.274467 
L 254.784919 129.015387 
L 254.614048 130.010198 
L 254.614048 131.502415 
L 254.443177 131.751118 
L 254.443177 131.253712 
L 254.272306 131.253712 
L 254.101435 131.751118 
L 254.101435 132.497226 
L 253.417952 132.497226 
L 253.930565 132.497226 
L 254.614048 132.994632 
L 257.006239 134.238146 
L 258.544077 134.735551 
L 260.252785 135.48166 
L 262.132364 136.476471 
L 264.011943 137.222579 
L 265.891522 138.217391 
L 267.429359 139.460905 
L 269.992421 140.953121 
L 269.992421 140.953121 
L 269.479809 140.455716 
L 268.625455 139.95831 
L 267.429359 138.963499 
L 265.720651 137.968688 
L 263.841072 136.476471 
L 261.619751 134.984254 
L 259.569301 133.243335 
L 257.347981 131.751118 
L 253.759694 130.258901 
L 252.392727 130.010198 
L 250.000536 134.238146 
L 246.924861 141.201824 
L 246.75399 142.196636 
L 246.75399 143.191447 
L 247.266603 143.937555 
L 248.120957 144.683664 
L 249.146182 145.181069 
L 250.171407 145.429772 
L 252.221856 146.424583 
L 253.247081 146.673286 
L 257.518852 148.165503 
L 259.22756 148.414206 
L 260.936268 148.911611 
L 262.474105 149.65772 
L 265.378909 151.647342 
L 266.745876 151.149936 
L 269.308938 151.896045 
L 270.334163 151.149936 
L 272.384612 151.647342 
L 273.238967 150.901234 
L 274.264191 151.149936 
L 274.605933 150.403828 
L 274.264191 149.409017 
L 274.435062 149.409017 
L 274.776804 150.901234 
L 276.656383 148.414206 
L 280.073799 143.688852 
L 281.269895 144.186258 
L 282.978603 147.170692 
L 285.541665 148.165503 
L 288.104727 149.906422 
L 292.718239 160.103237 
L 298.527847 162.590265 
L 300.749167 162.590265 
L 306.387904 165.077293 
L 307.413129 164.828591 
L 307.754871 164.331185 
L 307.413129 163.087671 
L 306.558775 161.098049 
L 305.53355 159.108426 
L 304.850067 157.118804 
L 303.653971 154.631776 
L 301.432651 151.896045 
L 299.382201 148.911611 
L 296.99001 145.927178 
L 294.256077 143.937555 
L 292.547368 141.201824 
L 291.180402 139.460905 
L 287.592115 136.973877 
L 284.858182 134.735551 
L 281.099024 132.745929 
L 277.510737 131.005009 
L 272.042871 130.010198 
L 267.087617 129.512793 
L 265.54978 128.517981 
L 264.011943 127.274467 
L 260.594526 123.792628 
L 256.151885 119.813383 
L 255.12666 118.818572 
L 253.930565 117.823761 
L 251.367502 113.34711 
L 250.85489 112.103596 
L 250.513148 109.616568 
L 251.025761 108.621757 
L 254.955789 106.632135 
L 254.101435 104.642512 
L 252.90534 103.896404 
L 252.563598 102.65289 
L 253.076211 102.155484 
L 254.101435 102.65289 
L 255.468402 102.65289 
L 257.17711 102.404187 
L 259.22756 102.65289 
L 260.936268 102.65289 
L 262.474105 101.906781 
L 264.866297 101.409376 
L 270.163292 100.91197 
L 273.92245 100.91197 
L 278.535962 100.663267 
L 287.762986 100.663267 
L 290.667789 100.91197 
L 293.230852 100.91197 
L 295.793914 100.663267 
L 298.356976 99.917159 
L 301.432651 99.419753 
L 308.609225 97.927536 
L 312.539254 97.181428 
L 321.253665 96.186617 
L 325.183694 95.937914 
L 328.259368 95.440508 
L 331.164172 95.191806 
L 333.556364 95.191806 
L 335.265072 94.943103 
L 336.119426 94.943103 
L 336.461167 94.6944 
L 336.461167 95.440508 
L 334.068976 96.186617 
L 334.068976 96.932725 
L 335.094201 97.678834 
L 337.144651 98.176239 
L 337.999005 98.176239 
L 338.853359 97.927536 
L 339.1951 97.678834 
L 339.707713 95.937914 
L 339.365971 95.191806 
L 338.853359 94.445697 
L 338.340746 93.948292 
L 337.828134 93.202183 
L 337.486392 92.456075 
L 336.97378 91.709966 
L 336.461167 90.715155 
L 335.948555 89.969047 
L 335.435943 88.725533 
L 334.752459 87.730721 
L 334.068976 86.487207 
L 333.214622 85.741099 
L 332.531139 84.994991 
L 331.676785 84.248882 
L 329.626335 83.254071 
L 327.746756 82.756665 
L 326.379789 82.756665 
L 325.696306 82.507963 
L 325.183694 82.507963 
L 324.500211 82.25926 
L 321.766278 82.25926 
L 321.082794 82.507963 
L 320.399311 82.507963 
L 319.886699 82.756665 
L 319.032344 82.756665 
L 318.690603 83.005368 
L 317.665378 83.005368 
L 315.614928 84.000179 
L 315.273187 84.497585 
L 315.614928 84.497585 
L 316.469282 84.746288 
L 320.057569 84.746288 
L 323.987598 85.243693 
L 325.183694 85.492396 
L 326.379789 85.989802 
L 326.721531 86.487207 
L 326.379789 86.73591 
L 325.183694 87.233316 
L 321.082794 87.730721 
L 318.519732 87.979424 
L 316.640153 88.47683 
L 314.931445 88.725533 
L 313.564478 88.47683 
L 312.368383 87.482019 
L 310.659675 87.482019 
L 307.071388 85.741099 
L 305.362679 85.492396 
L 301.090909 85.989802 
L 299.040459 87.233316 
L 296.99001 88.228127 
L 294.93956 89.720344 
L 293.059981 91.709966 
L 291.522144 94.445697 
L 290.83866 96.932725 
L 290.83866 99.668456 
L 291.351273 102.65289 
L 292.88911 105.388621 
L 294.597818 108.124351 
L 298.186105 110.611379 
L 301.945263 112.352299 
L 307.925742 115.336733 
L 311.172287 116.580247 
L 314.077091 118.569869 
L 318.690603 123.295222 
L 321.766278 125.533548 
L 323.816727 128.020576 
L 325.183694 130.258901 
L 326.379789 132.745929 
L 327.917627 134.984254 
L 329.284593 137.471282 
L 330.309818 139.95831 
L 330.993301 142.196636 
L 332.360268 147.668097 
L 330.65156 149.65772 
L 331.164172 154.383073 
L 332.189397 156.123993 
L 334.068976 157.616209 
L 335.777684 158.362318 
L 342.954258 159.357129 
L 347.226029 159.357129 
L 347.56777 157.367507 
L 349.447349 155.87529 
L 351.326928 154.13437 
L 352.693895 151.896045 
L 354.231732 150.155125 
L 354.915215 148.165503 
L 355.086086 145.927178 
L 354.402603 143.688852 
L 353.035636 140.704419 
L 351.156057 138.466093 
L 349.789091 137.471282 
L 348.592995 136.973877 
L 347.226029 136.227768 
L 343.808612 133.989443 
L 341.24555 132.745929 
L 338.682488 131.005009 
L 329.626335 125.533548 
L 323.474986 122.051708 
L 318.348861 119.813383 
L 317.494507 119.56468 
L 317.323636 119.315978 
L 317.836249 119.067275 
L 319.203215 118.818572 
L 320.741053 118.818572 
L 322.449761 118.321166 
L 328.430239 117.077652 
L 330.822431 115.834138 
L 332.87288 113.844516 
L 334.581589 112.352299 
L 336.119426 110.860082 
L 336.97378 109.616568 
L 338.682488 107.626946 
L 341.074679 105.637323 
L 342.954258 105.139918 
L 347.3969 102.65289 
L 348.422124 102.404187 
L 349.61822 102.404187 
L 350.814316 102.65289 
L 351.839541 103.150295 
L 352.523024 104.145107 
L 353.206507 105.388621 
L 353.548249 106.880837 
L 353.377378 108.87046 
L 353.035636 110.611379 
L 352.864766 112.601002 
L 352.523024 114.341921 
L 352.352153 116.082841 
L 352.010411 117.575058 
L 351.66867 120.310789 
L 351.66867 121.554303 
L 352.010411 122.797817 
L 352.352153 123.543925 
L 352.864766 124.290034 
L 354.402603 124.290034 
L 355.086086 123.792628 
L 355.94044 123.543925 
L 356.794794 122.549114 
L 359.016115 120.808194 
L 360.04134 119.813383 
L 361.408306 118.818572 
L 362.604402 117.575058 
L 363.800498 116.580247 
L 364.483981 115.585436 
L 365.167464 114.839327 
L 365.338335 114.093219 
L 365.338335 113.34711 
L 365.167464 113.098407 
L 364.142239 113.098407 
L 362.433531 113.595813 
L 359.870469 115.08803 
L 357.649148 116.82895 
L 356.623923 117.575058 
L 356.111311 118.321166 
L 355.769569 118.569869 
L 355.769569 118.818572 
L 356.111311 118.321166 
L 356.965665 117.823761 
L 357.136536 117.823761 
L 356.623923 117.823761 
L 356.111311 118.072464 
L 353.88999 118.818572 
L 351.326928 119.56468 
L 350.301703 119.813383 
L 347.909512 120.559492 
L 341.416421 121.554303 
L 336.632038 122.549114 
L 330.138947 124.538736 
L 327.234144 127.274467 
L 326.208919 128.766684 
L 323.987598 131.502415 
L 323.987598 131.502415 
L 322.962373 131.751118 
L 312.026641 130.756307 
L 304.166584 131.502415 
L 298.527847 132.745929 
L 295.452172 133.989443 
L 291.522144 134.984254 
L 286.396019 136.725174 
L 282.124249 137.968688 
L 277.168995 138.466093 
L 272.042871 137.471282 
L 261.790622 136.973877 
L 258.202335 136.227768 
L 255.468402 134.486849 
L 253.247081 132.745929 
L 251.367502 130.756307 
L 250.000536 128.766684 
L 249.146182 126.777062 
L 249.146182 124.290034 
L 250.342278 122.797817 
L 252.221856 121.3056 
L 254.101435 119.56468 
L 256.151885 119.56468 
L 257.689722 119.315978 
L 258.885818 119.315978 
L 259.740172 118.818572 
L 260.252785 117.326355 
L 260.252785 115.08803 
L 259.740172 112.103596 
L 258.885818 108.87046 
L 256.322756 100.663267 
L 252.734469 91.212561 
L 250.171407 86.238505 
L 247.266603 81.761854 
L 244.703541 79.026123 
L 241.627866 76.539095 
L 239.064804 74.30077 
L 236.501742 73.057256 
L 234.280421 72.55985 
L 232.913455 73.057256 
L 232.229971 76.539095 
L 232.400842 77.782609 
L 232.400842 79.274826 
L 232.571713 81.264449 
L 233.084325 83.254071 
L 233.767809 87.482019 
L 234.280421 89.471641 
L 234.451292 91.709966 
L 234.451292 93.450886 
L 232.913455 96.932725 
L 230.008651 99.917159 
L 229.666909 101.160673 
L 229.666909 102.155484 
L 230.179522 103.150295 
L 230.863005 104.145107 
L 231.88823 105.388621 
L 233.596938 106.383432 
L 234.963904 107.626946 
L 236.501742 108.124351 
L 237.356096 107.875649 
L 238.723062 107.875649 
L 239.919158 107.378243 
L 242.311349 107.12954 
L 244.190928 106.632135 
L 248.291828 104.891215 
L 250.342278 103.896404 
L 252.392727 102.404187 
L 254.101435 100.91197 
L 256.322756 99.419753 
L 258.544077 98.424942 
L 263.670201 95.689211 
L 265.54978 93.948292 
L 269.650679 91.709966 
L 271.872 89.969047 
L 271.530258 89.969047 
L 271.530258 89.969047 
L 271.530258 90.21775 
L 271.359388 90.21775 
L 271.359388 90.466452 
L 271.188517 90.466452 
L 271.188517 90.715155 
L 271.359388 90.466452 
L 271.017646 88.725533 
L 271.530258 87.730721 
L 271.701129 87.730721 
L 272.384612 87.482019 
L 272.897225 87.979424 
L 273.409837 88.228127 
L 273.409837 89.222938 
L 273.751579 90.466452 
L 273.92245 91.709966 
L 274.776804 94.943103 
L 275.289416 96.684022 
L 276.14377 98.424942 
L 276.656383 99.917159 
L 277.168995 102.901593 
L 277.168995 104.642512 
L 276.656383 106.134729 
L 276.314641 107.626946 
L 276.314641 109.119163 
L 276.14377 110.860082 
L 276.314641 112.103596 
L 276.827254 113.844516 
L 277.681608 114.839327 
L 278.365091 115.834138 
L 279.219445 116.82895 
L 281.953378 118.072464 
L 283.320344 118.072464 
L 284.345569 118.321166 
L 285.029053 118.321166 
L 286.054278 117.823761 
L 286.737761 117.823761 
L 287.421244 117.575058 
L 289.300823 117.077652 
L 290.155177 116.580247 
L 291.009531 116.082841 
L 291.351273 116.082841 
L 291.180402 116.331544 
L 291.180402 116.580247 
L 291.522144 116.580247 
L 291.522144 117.077652 
L 291.863885 118.072464 
L 291.863885 118.569869 
L 292.034756 119.067275 
L 292.376498 119.56468 
L 292.88911 119.56468 
L 292.88911 119.56468 
L 292.718239 119.813383 
L 290.155177 119.813383 
L 288.959081 120.062086 
L 287.079502 120.808194 
L 287.250373 121.554303 
L 288.446469 122.549114 
L 290.155177 123.792628 
L 292.034756 125.78225 
L 293.914335 128.020576 
L 295.452172 130.756307 
L 296.306526 133.492037 
L 296.477397 136.227768 
L 295.452172 138.466093 
L 291.693014 142.694041 
L 282.978603 147.170692 
L 278.535962 148.911611 
L 269.308938 151.398639 
L 249.317053 159.854535 
L 238.381321 166.072105 
L 229.496038 173.781892 
L 223.002947 181.740381 
L 219.072919 188.952763 
L 217.19334 195.916441 
L 219.243789 199.895686 
L 224.199043 201.1392 
L 231.204746 199.895686 
L 238.381321 196.911252 
L 244.874411 193.678116 
L 249.658794 189.201465 
L 255.639273 185.222221 
L 261.27801 180.248164 
L 265.208038 178.755948 
L 267.941971 175.771514 
L 269.82155 173.533189 
L 271.188517 172.289675 
L 271.872 173.035783 
L 271.359388 175.522811 
L 268.967196 178.507245 
L 252.734469 194.92163 
L 244.874411 202.88012 
L 236.16 208.351581 
L 226.762105 214.071746 
L 216.851598 219.79191 
L 204.207158 226.506886 
L 192.417072 233.221862 
L 180.456115 239.688135 
L 180.456115 239.688135 
" clip-path="url(#pd3e06d8580)" style="fill: none; stroke: #000000; stroke-width: 1.5; stroke-linecap: square"/>
   </g>
   <g id="line2d_6">
    <path d="M 252.050986 125.284845 
" clip-path="url(#pd3e06d8580)" style="fill: none; stroke: #000000; stroke-width: 1.5; stroke-linecap: square"/>
    <defs>
     <path id="me88c1fffb8" d="M 0 5 
C 1.326016 5 2.597899 4.473168 3.535534 3.535534 
C 4.473168 2.597899 5 1.326016 5 0 
C 5 -1.326016 4.473168 -2.597899 3.535534 -3.535534 
C 2.597899 -4.473168 1.326016 -5 0 -5 
C -1.326016 -5 -2.597899 -4.473168 -3.535534 -3.535534 
C -4.473168 -2.597899 -5 -1.326016 -5 0 
C -5 1.326016 -4.473168 2.597899 -3.535534 3.535534 
C -2.597899 4.473168 -1.326016 5 0 5 
z
" style="stroke: #000000"/>
    </defs>
    <g clip-path="url(#pd3e06d8580)">
     <use xlink:href="#me88c1fffb8" x="252.050986" y="125.284845" style="stroke: #000000"/>
    </g>
   </g>
   <g id="line2d_7">
    <path d="M 180.456115 239.688135 
" clip-path="url(#pd3e06d8580)" style="fill: none; stroke: #000000; stroke-width: 1.5; stroke-linecap: square"/>
    <defs>
     <path id="m73b33723c2" d="M -5 5 
L 5 5 
L 5 -5 
L -5 -5 
z
" style="stroke: #000000; stroke-linejoin: miter"/>
    </defs>
    <g clip-path="url(#pd3e06d8580)">
     <use xlink:href="#m73b33723c2" x="180.456115" y="239.688135" style="stroke: #000000; stroke-linejoin: miter"/>
    </g>
   </g>
   <g id="line2d_8">
    <path d="M 288.446469 221.781533 
L 289.813435 222.278938 
L 291.009531 223.025047 
L 291.351273 223.025047 
L 291.180402 222.776344 
L 291.180402 222.527641 
L 291.522144 222.527641 
L 291.522144 222.030236 
L 291.863885 221.035424 
L 291.863885 220.538019 
L 292.034756 220.040613 
L 292.376498 219.543207 
L 292.88911 219.543207 
L 292.88911 219.543207 
L 292.718239 219.294505 
L 290.155177 219.294505 
L 288.959081 219.045802 
L 287.079502 218.299693 
L 287.250373 217.553585 
L 288.446469 216.558774 
L 290.155177 215.31526 
L 292.034756 213.325637 
L 293.914335 211.087312 
L 295.452172 208.351581 
L 296.306526 205.61585 
L 296.477397 202.88012 
L 295.452172 200.641794 
L 291.693014 196.413847 
L 282.978603 191.937196 
L 278.535962 190.196277 
L 269.308938 187.709249 
L 249.317053 179.253353 
L 238.381321 173.035783 
L 229.496038 165.325996 
L 223.002947 157.367507 
L 219.072919 150.155125 
L 217.19334 143.191447 
L 219.243789 139.212202 
L 224.199043 137.968688 
L 231.204746 139.212202 
L 238.381321 142.196636 
L 244.874411 145.429772 
L 249.658794 149.906422 
L 255.639273 153.885667 
L 261.27801 158.859723 
L 265.208038 160.35194 
L 267.941971 163.336374 
L 269.82155 165.574699 
L 271.188517 166.818213 
L 271.872 166.072105 
L 271.359388 163.585077 
L 268.967196 160.600643 
L 252.734469 144.186258 
L 244.874411 136.227768 
L 236.16 130.756307 
L 226.762105 125.036142 
L 216.851598 119.315978 
L 204.207158 112.601002 
L 192.417072 105.886026 
L 180.456115 99.419753 
L 169.349512 244.910893 
L 160.293359 248.392733 
L 151.578947 250.382355 
L 144.402373 252.371978 
L 135.34622 255.605114 
L 126.97355 257.843439 
L 119.455234 259.086953 
L 106.639923 261.573981 
L 100.830316 262.32009 
L 91.945033 261.325279 
L 88.015005 260.57917 
L 84.768459 260.57917 
L 80.325818 261.076576 
L 78.958852 261.822684 
L 77.762756 262.817495 
L 76.908402 263.314901 
L 76.224919 263.314901 
L 75.712306 263.066198 
L 74.857952 259.833062 
L 74.34534 252.62068 
L 74.174469 249.387544 
L 74.174469 246.40311 
L 74.003598 243.418677 
L 76.56666 240.682946 
L 83.572364 235.460187 
L 87.502392 233.719267 
L 91.774163 230.734834 
L 96.045933 228.496508 
L 99.63422 226.00948 
L 109.032115 220.538019 
L 110.399081 220.040613 
L 109.032115 221.284127 
L 103.051636 225.263372 
L 99.121608 227.501697 
L 87.844134 234.714079 
L 85.964555 236.206295 
L 83.230622 237.698512 
L 82.88888 237.201107 
L 85.793684 236.206295 
L 89.894584 233.719267 
L 95.191579 230.237428 
L 101.172057 226.00948 
L 107.152536 222.030236 
L 112.449531 218.797099 
L 116.721301 217.056179 
L 119.626105 216.558774 
L 122.70178 215.563963 
L 126.290067 214.817854 
L 130.390967 213.57434 
L 135.858833 211.584718 
L 142.181053 208.848987 
L 152.945914 205.118445 
L 157.046813 203.874931 
L 158.755522 204.123634 
L 158.584651 205.367148 
L 158.755522 206.610662 
L 157.730297 208.351581 
L 155.850718 210.341204 
L 151.920689 213.57434 
L 152.09156 213.076935 
L 153.116785 211.833421 
L 154.996364 209.843798 
L 157.046813 207.108067 
L 159.609876 204.372336 
L 165.248612 197.657361 
L 167.811675 194.175521 
L 169.862124 190.942385 
L 171.399962 188.206654 
L 172.083445 185.719626 
L 172.766928 182.735193 
L 172.766928 181.740381 
L 172.083445 179.502056 
L 171.399962 178.507245 
L 170.716478 177.263731 
L 170.032995 175.771514 
L 169.520383 174.030594 
L 167.640804 168.31043 
L 165.932096 163.087671 
L 164.565129 161.098049 
L 163.027292 160.103237 
L 161.147713 159.854535 
L 159.609876 160.103237 
L 159.268134 160.600643 
L 156.705072 162.341563 
L 156.875943 162.09286 
L 156.534201 162.09286 
L 155.508976 162.590265 
L 151.237206 163.336374 
L 149.870239 163.336374 
L 149.015885 162.838968 
L 149.528498 161.346751 
L 150.382852 159.357129 
L 151.920689 156.870101 
L 153.971139 153.885667 
L 156.534201 150.403828 
L 163.539904 141.450527 
L 165.419483 138.217391 
L 168.495158 133.74074 
L 170.887349 129.015387 
L 172.425187 125.284845 
L 174.133895 121.803006 
L 175.32999 118.321166 
L 176.696957 115.08803 
L 177.722182 111.854893 
L 178.234794 109.367865 
L 178.234794 107.378243 
L 178.405665 105.886026 
L 178.234794 104.642512 
L 178.234794 103.647701 
L 177.722182 103.647701 
L 177.038699 103.896404 
L 176.526086 103.647701 
L 176.355215 103.398998 
L 176.867828 101.409376 
L 178.918278 99.668456 
L 179.601761 98.424942 
L 180.797856 93.699589 
L 180.626986 92.95348 
L 180.626986 92.207372 
L 180.285244 91.709966 
L 179.43089 91.461264 
L 178.747407 91.958669 
L 177.551311 92.207372 
L 176.355215 92.704778 
L 175.500861 93.202183 
L 174.475636 93.202183 
L 174.133895 92.704778 
L 173.792153 92.704778 
L 173.450411 92.95348 
L 172.937799 92.95348 
L 172.425187 93.202183 
L 171.912574 93.699589 
L 171.229091 94.196994 
L 170.374737 95.440508 
L 169.349512 95.937914 
L 169.00777 96.43532 
L 168.8369 96.932725 
L 169.691254 96.932725 
L 169.691254 96.932725 
L 169.691254 97.430131 
L 169.178641 98.176239 
L 169.349512 98.673645 
L 168.666029 99.668456 
L 168.666029 100.414564 
L 168.8369 101.409376 
L 170.203866 103.398998 
L 172.254316 104.642512 
L 173.279541 104.891215 
L 176.184344 106.383432 
L 176.867828 107.12954 
L 176.355215 110.362677 
L 176.696957 111.357488 
L 177.893053 111.357488 
L 179.772632 110.860082 
L 185.240498 107.626946 
L 188.145301 105.637323 
L 191.220976 103.896404 
L 194.809263 101.409376 
L 200.448 98.424942 
L 200.618871 98.424942 
L 200.789742 98.673645 
L 200.618871 98.922348 
L 201.985837 99.668456 
L 202.49845 101.409376 
L 201.985837 102.155484 
L 200.277129 103.896404 
L 197.714067 106.134729 
L 194.12578 108.87046 
L 185.069627 114.590624 
L 178.405665 118.321166 
L 160.122488 129.761495 
L 148.161531 136.725174 
L 121.676555 152.642153 
L 102.539024 166.818213 
L 96.045933 172.040972 
L 91.090679 176.26892 
L 84.255847 183.481301 
L 81.863656 185.470923 
L 79.984077 188.206654 
L 78.61711 191.688493 
L 77.591885 194.92163 
L 76.737531 199.149578 
L 76.054048 204.123634 
L 75.541435 208.848987 
L 74.857952 218.797099 
L 74.516211 226.00948 
L 74.174469 230.237428 
L 74.174469 232.724456 
L 74.003598 234.465376 
L 74.003598 239.439432 
L 73.832727 241.429054 
L 73.832727 240.931649 
L 73.832727 158.859723 
L 79.984077 153.636964 
L 88.015005 148.662908 
L 96.387675 143.937555 
L 104.589474 139.709607 
L 112.962144 134.984254 
L 120.309589 131.005009 
L 133.466641 124.538736 
L 138.251024 122.797817 
L 141.497569 120.808194 
L 144.402373 119.56468 
L 147.478048 118.072464 
L 149.186756 116.580247 
L 151.066335 116.331544 
L 151.749818 116.082841 
L 151.920689 116.331544 
L 152.604172 116.331544 
L 155.508976 115.834138 
L 165.077742 112.849705 
L 167.811675 111.606191 
L 169.862124 110.362677 
L 170.887349 110.113974 
L 168.153416 110.860082 
L 165.932096 111.606191 
L 163.198163 111.854893 
L 158.755522 113.844516 
L 157.388555 114.839327 
L 155.338105 115.585436 
L 153.287656 116.82895 
L 147.99066 119.315978 
L 144.744115 121.554303 
L 142.181053 123.04652 
L 140.472344 124.290034 
L 136.029703 126.528359 
L 133.637512 128.020576 
L 131.416191 129.26409 
L 128.682258 131.005009 
L 126.631809 131.751118 
L 125.093971 131.502415 
L 123.727005 131.005009 
L 121.676555 131.005009 
L 119.455234 131.253712 
L 118.259139 130.756307 
L 116.721301 131.005009 
L 115.012593 131.999821 
L 113.474756 133.243335 
L 112.107789 134.735551 
L 110.569952 136.973877 
L 110.740823 137.719985 
L 111.424306 138.217391 
L 112.962144 138.217391 
L 115.183464 137.719985 
L 120.480459 137.222579 
L 128.682258 135.730363 
L 141.326699 134.984254 
L 145.427598 135.730363 
L 150.04111 135.730363 
L 154.14201 136.476471 
L 159.609876 135.48166 
L 164.394258 134.984254 
L 169.00777 133.989443 
L 174.988249 132.994632 
L 181.652211 132.248523 
L 188.487043 130.756307 
L 194.467522 130.010198 
L 200.960612 129.015387 
L 207.111962 128.269279 
L 217.022469 128.766684 
L 225.56601 129.761495 
L 233.426067 131.253712 
L 237.185225 131.999821 
L 240.944383 132.497226 
L 244.874411 134.238146 
L 248.291828 135.48166 
L 251.538373 136.227768 
L 254.614048 137.222579 
L 256.835368 137.719985 
L 258.714947 138.963499 
L 260.423656 139.709607 
L 261.107139 142.196636 
L 262.132364 143.44015 
L 262.986718 145.678475 
L 264.524555 147.9168 
L 265.891522 149.65772 
L 267.429359 150.652531 
L 268.454584 152.144748 
L 269.650679 153.139559 
L 271.701129 154.13437 
L 272.384612 153.636964 
L 273.238967 153.388262 
L 274.435062 152.642153 
L 275.289416 151.398639 
L 275.9729 149.906422 
L 276.314641 147.419394 
L 276.656383 143.937555 
L 277.168995 140.207013 
L 277.681608 133.492037 
L 277.339866 127.025764 
L 276.827254 123.543925 
L 276.314641 123.295222 
L 275.289416 122.300411 
L 274.093321 122.797817 
L 272.726354 124.041331 
L 271.188517 125.284845 
L 269.650679 126.777062 
L 268.112842 129.015387 
L 266.745876 131.253712 
L 265.208038 135.48166 
L 264.524555 136.725174 
L 263.841072 136.973877 
L 264.011943 137.471282 
L 263.49933 136.476471 
L 262.815847 135.979065 
L 262.474105 135.48166 
L 262.303234 134.735551 
L 262.303234 132.745929 
L 262.474105 132.248523 
L 262.986718 131.253712 
L 264.011943 130.258901 
L 266.916746 128.269279 
L 270.163292 126.279656 
L 272.555483 125.036142 
L 274.435062 124.290034 
L 280.757282 122.549114 
L 284.345569 121.056897 
L 286.56689 119.813383 
L 287.592115 119.067275 
L 289.984306 118.072464 
L 296.306526 116.331544 
L 296.306526 116.331544 
L 300.578297 114.590624 
L 303.995713 112.103596 
L 306.387904 108.87046 
L 307.071388 107.626946 
L 307.413129 106.134729 
L 307.413129 104.891215 
L 307.242258 104.145107 
L 307.242258 103.398998 
L 307.754871 101.409376 
L 307.925742 101.160673 
L 307.925742 100.663267 
L 308.438354 101.160673 
L 308.096612 99.17105 
L 308.096612 98.176239 
L 308.267483 97.678834 
L 308.096612 97.181428 
L 308.609225 96.932725 
L 308.609225 98.176239 
L 308.438354 98.424942 
L 308.438354 99.419753 
L 308.609225 99.917159 
L 308.609225 100.414564 
L 309.463579 101.658079 
L 309.976191 102.65289 
L 310.488804 235.957593 
L 311.001416 235.460187 
L 311.343158 234.962781 
L 311.85577 233.96797 
L 313.564478 233.221862 
L 314.418833 232.973159 
L 314.931445 232.973159 
L 315.273187 231.978348 
L 315.95667 230.983536 
L 315.785799 230.734834 
L 315.273187 230.734834 
L 315.444057 230.734834 
L 315.102316 230.486131 
L 314.077091 230.237428 
L 313.90622 230.734834 
L 313.393608 231.480942 
L 312.880995 231.978348 
L 312.197512 232.475753 
L 311.001416 232.973159 
L 309.805321 233.221862 
L 308.267483 233.221862 
L 306.558775 233.470564 
L 304.850067 234.216673 
L 303.141359 234.714079 
L 301.432651 234.962781 
L 297.16088 234.962781 
L 296.819139 234.714079 
L 296.648268 233.96797 
L 296.648268 234.465376 
L 296.306526 236.952404 
L 296.99001 237.449809 
L 298.356976 237.947215 
L 300.578297 237.947215 
L 302.628746 237.449809 
L 307.925742 237.449809 
L 310.488804 236.206295 
L 313.051866 234.714079 
L 315.273187 232.973159 
L 319.032344 228.745211 
L 321.253665 225.014669 
L 322.27889 221.781533 
L 322.962373 220.040613 
L 323.133244 219.79191 
L 322.962373 220.538019 
L 322.620632 221.284127 
L 322.449761 223.27375 
L 321.766278 224.517264 
L 321.253665 224.019858 
L 320.741053 224.268561 
L 320.570182 224.517264 
L 320.570182 224.517264 
L 320.741053 224.517264 
L 320.911923 224.765966 
L 322.27889 223.771155 
L 322.962373 223.771155 
L 323.304115 223.522452 
L 323.645856 223.771155 
L 324.158469 223.522452 
L 324.841952 222.278938 
L 324.841952 222.278938 
" clip-path="url(#pd3e06d8580)" style="fill: none; stroke: #ffa07a; stroke-width: 1.5; stroke-linecap: square"/>
   </g>
   <g id="line2d_9">
    <path d="M 288.446469 221.781533 
" clip-path="url(#pd3e06d8580)" style="fill: none; stroke: #ffa07a; stroke-width: 1.5; stroke-linecap: square"/>
    <defs>
     <path id="m7c59451140" d="M 0 5 
C 1.326016 5 2.597899 4.473168 3.535534 3.535534 
C 4.473168 2.597899 5 1.326016 5 0 
C 5 -1.326016 4.473168 -2.597899 3.535534 -3.535534 
C 2.597899 -4.473168 1.326016 -5 0 -5 
C -1.326016 -5 -2.597899 -4.473168 -3.535534 -3.535534 
C -4.473168 -2.597899 -5 -1.326016 -5 0 
C -5 1.326016 -4.473168 2.597899 -3.535534 3.535534 
C -2.597899 4.473168 -1.326016 5 0 5 
z
" style="stroke: #ffa07a"/>
    </defs>
    <g clip-path="url(#pd3e06d8580)">
     <use xlink:href="#m7c59451140" x="288.446469" y="221.781533" style="fill: #ffa07a; stroke: #ffa07a"/>
    </g>
   </g>
   <g id="line2d_10">
    <path d="M 324.841952 222.278938 
" clip-path="url(#pd3e06d8580)" style="fill: none; stroke: #ffa07a; stroke-width: 1.5; stroke-linecap: square"/>
    <defs>
     <path id="ma93083f957" d="M -5 5 
L 5 5 
L 5 -5 
L -5 -5 
z
" style="stroke: #ffa07a; stroke-linejoin: miter"/>
    </defs>
    <g clip-path="url(#pd3e06d8580)">
     <use xlink:href="#ma93083f957" x="324.841952" y="222.278938" style="fill: #ffa07a; stroke: #ffa07a; stroke-linejoin: miter"/>
    </g>
   </g>
   <g id="line2d_11">
    <path d="M 266.575005 108.124351 
L 268.796325 108.124351 
L 269.138067 107.875649 
L 269.992421 107.875649 
L 270.846775 107.626946 
L 274.264191 102.65289 
L 274.947675 101.906781 
L 275.631158 101.409376 
L 277.168995 101.160673 
L 278.365091 100.663267 
L 281.099024 100.663267 
L 283.832957 101.658079 
L 284.174699 102.404187 
L 284.174699 103.150295 
L 283.662086 103.896404 
L 281.269895 105.637323 
L 277.510737 106.383432 
L 274.605933 106.383432 
L 273.068096 106.880837 
L 272.042871 106.880837 
L 271.701129 107.378243 
L 271.530258 108.124351 
L 271.188517 108.87046 
L 269.138067 116.331544 
L 268.283713 117.823761 
L 267.7711 119.56468 
L 267.429359 121.3056 
L 267.258488 123.04652 
L 267.429359 125.036142 
L 268.283713 130.756307 
L 269.650679 134.984254 
L 270.334163 136.725174 
L 272.897225 139.709607 
L 275.118545 140.953121 
L 276.827254 141.69923 
L 280.586411 143.688852 
L 282.46599 145.181069 
L 284.687311 146.17588 
L 288.61734 149.160314 
L 294.597818 155.626587 
L 296.135656 157.616209 
L 297.16088 159.605832 
L 302.116134 165.325996 
L 305.191809 169.305241 
L 305.875292 170.548755 
L 307.925742 174.528 
L 309.121837 176.517622 
L 308.267483 178.258542 
L 311.6849 179.502056 
L 311.514029 180.74557 
L 312.710124 181.989084 
L 314.077091 181.242976 
L 315.102316 183.232598 
L 316.981895 182.983895 
L 318.348861 183.481301 
L 318.519732 183.730004 
L 317.494507 185.968329 
L 317.323636 187.211843 
L 318.00712 187.460546 
L 318.00712 187.709249 
L 318.17799 187.709249 
L 317.836249 187.709249 
L 317.836249 187.709249 
L 318.348861 187.460546 
L 318.519732 187.460546 
L 319.032344 187.709249 
L 319.203215 187.957951 
L 320.057569 187.957951 
L 320.057569 192.434602 
L 321.937148 191.688493 
L 323.304115 190.196277 
L 323.987598 185.719626 
L 322.27889 180.994273 
L 319.203215 178.258542 
L 317.152766 177.015028 
L 317.152766 177.015028 
L 316.811024 178.009839 
L 316.640153 179.253353 
L 316.981895 179.999462 
L 317.152766 179.999462 
L 317.152766 179.750759 
L 316.811024 179.502056 
L 316.127541 179.750759 
L 315.444057 179.253353 
L 314.589703 177.512434 
L 312.880995 175.522811 
L 312.197512 174.279297 
L 311.172287 172.78708 
L 310.488804 170.300052 
L 310.488804 169.305241 
L 310.147062 166.818213 
L 310.317933 165.574699 
L 310.317933 164.331185 
L 309.63445 163.087671 
L 309.63445 162.590265 
L 310.488804 168.559133 
L 309.976191 170.548755 
L 307.584 171.543566 
L 301.603522 171.543566 
L 294.93956 172.289675 
L 292.88911 172.040972 
L 290.83866 173.781892 
L 281.269895 192.683305 
L 296.135656 192.434602 
L 305.362679 192.932007 
L 310.659675 190.942385 
L 312.368383 188.70406 
L 312.880995 187.211843 
L 313.222737 185.719626 
L 313.393608 184.227409 
L 312.880995 182.983895 
L 312.880995 182.735193 
L 312.880995 182.735193 
L 313.051866 182.48649 
L 313.051866 182.48649 
L 313.051866 182.735193 
L 313.051866 182.237787 
L 312.880995 181.989084 
L 312.880995 181.242976 
L 312.368383 180.74557 
L 311.514029 180.248164 
L 310.147062 179.999462 
L 308.950967 179.253353 
L 307.413129 178.755948 
L 303.824842 176.766325 
L 301.603522 175.274108 
L 299.553072 174.030594 
L 298.698718 173.284486 
L 297.673493 172.538378 
L 296.819139 172.289675 
L 296.135656 170.797458 
L 296.135656 170.05135 
L 295.793914 169.802647 
L 295.964785 169.305241 
L 295.793914 169.056538 
L 295.623043 168.559133 
L 295.623043 168.061727 
L 295.452172 167.564321 
L 295.110431 167.066916 
L 294.93956 166.56951 
L 294.256077 165.574699 
L 293.914335 164.828591 
L 293.572593 163.087671 
L 293.059981 162.590265 
L 292.88911 161.595454 
L 292.376498 160.849346 
L 292.034756 159.854535 
L 290.667789 159.854535 
L 290.496919 158.362318 
L 289.642565 157.616209 
L 288.788211 156.123993 
L 288.446469 154.631776 
L 287.250373 153.139559 
L 286.56689 151.398639 
L 286.054278 149.65772 
L 284.51644 146.17588 
L 282.46599 139.709607 
L 280.757282 135.48166 
L 279.902928 134.735551 
L 279.902928 134.238146 
L 279.561187 132.497226 
L 279.902928 131.502415 
L 280.586411 131.502415 
L 280.757282 131.253712 
L 281.099024 131.502415 
L 281.782507 131.502415 
L 282.46599 131.999821 
L 283.662086 132.497226 
L 284.687311 133.243335 
L 286.054278 133.989443 
L 287.079502 134.238146 
L 287.762986 133.74074 
L 288.104727 137.222579 
L 289.642565 138.466093 
L 291.180402 136.227768 
L 291.351273 135.232957 
L 292.547368 134.735551 
L 293.059981 134.238146 
L 293.401722 133.74074 
L 293.572593 133.989443 
L 293.230852 133.74074 
L 293.230852 133.492037 
L 293.059981 133.74074 
L 293.401722 135.730363 
L 294.085206 137.222579 
L 295.964785 137.968688 
L 297.16088 138.963499 
L 299.040459 139.460905 
L 300.920038 140.207013 
L 304.508325 141.201824 
L 307.584 141.201824 
L 308.267483 141.450527 
L 308.950967 141.947933 
L 309.976191 140.455716 
L 311.172287 135.48166 
L 311.343158 130.010198 
L 312.026641 138.714796 
L 316.469282 141.69923 
L 319.715828 142.694041 
L 322.962373 142.694041 
L 324.32934 142.196636 
L 324.841952 141.450527 
L 324.841952 141.201824 
L 323.987598 139.95831 
L 322.791502 139.460905 
L 321.766278 139.460905 
L 320.741053 139.709607 
L 319.715828 140.207013 
L 317.494507 140.953121 
L 316.469282 142.445338 
L 317.152766 144.186258 
L 318.00712 145.429772 
L 318.690603 145.678475 
L 319.886699 145.181069 
L 320.741053 145.181069 
L 323.133244 143.937555 
L 320.911923 145.678475 
L 320.570182 146.17588 
L 320.057569 146.17588 
L 320.057569 146.17588 
L 319.203215 146.424583 
L 317.494507 145.927178 
L 315.785799 144.932366 
L 311.85577 143.44015 
L 310.147062 143.191447 
L 306.558775 140.953121 
L 305.020938 140.207013 
L 303.4831 139.212202 
L 298.527847 136.476471 
L 294.256077 133.243335 
L 288.788211 128.020576 
L 283.832957 124.538736 
L 280.586411 122.797817 
L 276.998124 120.062086 
L 274.093321 112.601002 
L 272.042871 112.352299 
L 269.82155 112.352299 
L 264.011943 111.357488 
L 260.936268 111.854893 
L 257.518852 112.103596 
L 253.930565 112.601002 
L 250.000536 112.849705 
L 245.557895 112.849705 
L 241.115254 112.352299 
L 236.16 111.606191 
L 232.229971 108.373054 
L 229.496038 101.906781 
L 226.591234 96.186617 
L 223.344689 93.202183 
L 219.585531 92.704778 
L 217.364211 94.196994 
L 214.630278 96.684022 
L 194.296651 126.279656 
L 187.461818 134.238146 
L 169.520383 152.39345 
L 147.99066 169.056538 
L 131.245321 192.434602 
L 118.43001 209.346393 
L 108.348632 231.480942 
L 100.488574 253.366789 
L 94.508096 275.501338 
L 89.894584 296.392374 
L 74.174469 296.392374 
L 74.174469 295.14886 
L 74.003598 292.164426 
L 74.003598 267.045443 
L 73.832727 256.599925 
L 73.832727 184.724815 
L 83.572364 179.00465 
L 139.105378 175.025406 
L 182.848306 172.538378 
L 213.09244 171.792269 
L 231.546488 171.792269 
L 247.437474 169.553944 
L 255.981014 168.807836 
L 261.619751 167.315619 
L 266.233263 165.077293 
L 274.264191 159.357129 
L 277.339866 156.621398 
L 279.390316 154.631776 
L 279.902928 153.636964 
L 280.586411 151.896045 
L 278.365091 150.403828 
L 271.530258 148.911611 
L 259.22756 147.668097 
L 237.868708 147.419394 
L 205.915866 148.414206 
L 176.184344 150.901234 
L 153.116785 154.13437 
L 135.34622 160.103237 
L 121.505684 166.56951 
L 110.740823 173.781892 
L 102.368153 181.242976 
L 96.045933 189.201465 
L 90.919809 196.413847 
L 87.160651 203.377525 
L 81.863656 214.320449 
L 78.61711 219.543207 
L 77.591885 219.045802 
L 76.737531 216.061368 
L 76.054048 211.087312 
L 75.541435 204.621039 
L 74.857952 192.434602 
L 74.516211 180.74557 
L 106.469053 174.776703 
L 143.035407 170.05135 
L 171.912574 166.072105 
L 196.517971 162.341563 
L 216.168115 158.611021 
L 232.229971 154.880479 
L 242.311349 149.65772 
L 256.151885 147.9168 
L 275.289416 142.942744 
L 286.054278 138.466093 
L 289.129952 134.238146 
L 288.446469 130.507604 
L 286.908632 126.777062 
L 287.762986 124.787439 
L 289.642565 122.549114 
L 292.205627 120.310789 
L 295.281301 118.321166 
L 299.21133 116.82895 
L 303.995713 115.585436 
L 310.659675 113.595813 
L 316.981895 112.849705 
L 328.259368 111.357488 
L 343.466871 110.860082 
L 360.04134 110.860082 
L 373.369263 112.601002 
L 384.646737 114.590624 
L 394.215502 116.82895 
L 398.487273 119.813383 
L 398.487273 122.797817 
L 396.436823 123.792628 
L 392.848536 124.787439 
L 387.551541 126.030953 
L 376.95755 127.025764 
L 363.287885 127.52317 
L 356.282182 125.78225 
L 349.61822 125.036142 
L 337.144651 126.030953 
L 328.430239 127.025764 
L 323.133244 129.015387 
L 320.057569 131.005009 
L 317.323636 132.497226 
L 315.444057 133.74074 
L 316.469282 133.74074 
L 322.108019 131.005009 
L 328.430239 129.512793 
L 337.828134 127.52317 
L 350.301703 125.533548 
L 364.825722 124.041331 
L 380.033225 123.295222 
L 395.75334 122.797817 
L 398.487273 123.04652 
L 398.487273 123.04652 
L 398.487273 122.549114 
L 395.924211 121.3056 
L 387.551541 119.813383 
L 374.565359 118.569869 
L 359.186986 118.569869 
L 342.270775 118.818572 
L 325.696306 120.559492 
L 309.121837 122.797817 
L 294.256077 126.279656 
L 266.916746 134.238146 
L 255.639273 137.719985 
L 246.58312 140.704419 
L 239.064804 142.942744 
L 234.280421 144.683664 
L 231.033876 145.181069 
L 233.767809 143.688852 
L 239.406545 141.450527 
L 246.58312 138.217391 
L 254.443177 135.232957 
L 263.328459 132.248523 
L 272.213742 130.258901 
L 280.928153 128.517981 
L 289.129952 128.269279 
L 294.597818 129.761495 
L 301.432651 132.745929 
L 312.710124 138.714796 
L 316.811024 142.445338 
L 321.766278 148.662908 
L 323.133244 151.896045 
L 322.962373 158.859723 
L 320.057569 162.341563 
L 315.444057 163.336374 
L 308.609225 163.585077 
L 298.356976 164.579888 
L 287.250373 165.325996 
L 263.157589 168.559133 
L 248.975311 170.05135 
L 231.204746 171.792269 
L 210.529378 173.533189 
L 185.411368 176.020217 
L 154.996364 178.507245 
L 130.903579 158.362318 
L 113.987368 153.636964 
L 102.026411 148.662908 
L 93.653742 144.434961 
L 87.844134 140.704419 
L 83.572364 137.471282 
L 78.61711 132.745929 
L 77.250144 131.005009 
L 76.224919 130.010198 
L 75.541435 129.761495 
L 75.028823 130.507604 
L 74.687081 132.994632 
L 74.34534 134.238146 
L 74.174469 136.725174 
L 74.174469 141.947933 
L 74.003598 145.678475 
L 89.04023 149.160314 
L 114.499981 152.890856 
L 167.811675 159.854535 
L 195.492746 163.087671 
L 222.832077 165.823402 
L 248.291828 167.813024 
L 269.992421 169.056538 
L 287.762986 169.305241 
L 302.116134 169.056538 
L 310.317933 168.559133 
L 314.418833 166.56951 
L 315.95667 164.828591 
L 315.273187 162.838968 
L 310.830545 160.35194 
L 306.387904 158.859723 
L 302.287005 158.859723 
L 303.995713 159.357129 
L 306.387904 160.849346 
L 313.735349 166.818213 
L 317.494507 170.548755 
L 322.108019 174.528 
L 324.671081 177.512434 
L 325.696306 179.00465 
L 325.867177 180.496867 
L 325.354565 181.491679 
L 325.354565 181.989084 
L 325.867177 182.48649 
L 326.721531 182.983895 
L 328.259368 183.232598 
L 329.626335 185.719626 
L 329.455464 188.70406 
L 329.284593 189.450168 
L 329.797206 189.201465 
L 329.797206 188.206654 
L 330.138947 188.70406 
L 330.65156 188.455357 
L 330.480689 187.957951 
L 328.942852 187.460546 
L 324.500211 186.96314 
L 318.348861 186.96314 
L 282.46599 185.719626 
L 282.46599 185.719626 
" clip-path="url(#pd3e06d8580)" style="fill: none; stroke: #0000ff; stroke-width: 1.5; stroke-linecap: square"/>
   </g>
   <g id="line2d_12">
    <path d="M 266.575005 108.124351 
" clip-path="url(#pd3e06d8580)" style="fill: none; stroke: #0000ff; stroke-width: 1.5; stroke-linecap: square"/>
    <defs>
     <path id="ma4e3c2e595" d="M 0 5 
C 1.326016 5 2.597899 4.473168 3.535534 3.535534 
C 4.473168 2.597899 5 1.326016 5 0 
C 5 -1.326016 4.473168 -2.597899 3.535534 -3.535534 
C 2.597899 -4.473168 1.326016 -5 0 -5 
C -1.326016 -5 -2.597899 -4.473168 -3.535534 -3.535534 
C -4.473168 -2.597899 -5 -1.326016 -5 0 
C -5 1.326016 -4.473168 2.597899 -3.535534 3.535534 
C -2.597899 4.473168 -1.326016 5 0 5 
z
" style="stroke: #0000ff"/>
    </defs>
    <g clip-path="url(#pd3e06d8580)">
     <use xlink:href="#ma4e3c2e595" x="266.575005" y="108.124351" style="fill: #0000ff; stroke: #0000ff"/>
    </g>
   </g>
   <g id="line2d_13">
    <path d="M 282.46599 185.719626 
" clip-path="url(#pd3e06d8580)" style="fill: none; stroke: #0000ff; stroke-width: 1.5; stroke-linecap: square"/>
    <defs>
     <path id="m55cc262c23" d="M -5 5 
L 5 5 
L 5 -5 
L -5 -5 
z
" style="stroke: #0000ff; stroke-linejoin: miter"/>
    </defs>
    <g clip-path="url(#pd3e06d8580)">
     <use xlink:href="#m55cc262c23" x="282.46599" y="185.719626" style="fill: #0000ff; stroke: #0000ff; stroke-linejoin: miter"/>
    </g>
   </g>
   <g id="line2d_14">
    <path d="M 303.31223 150.652531 
L 303.141359 150.403828 
L 302.287005 150.403828 
L 301.774392 151.149936 
L 301.432651 151.896045 
L 300.920038 152.642153 
L 300.407426 154.13437 
L 299.382201 155.377884 
L 299.040459 155.377884 
L 297.502622 158.611021 
L 295.110431 160.35194 
L 293.230852 162.09286 
L 289.300823 165.077293 
L 286.908632 166.320807 
L 284.858182 167.564321 
L 282.807732 169.553944 
L 282.636861 169.802647 
L 282.978603 169.802647 
L 283.832957 169.305241 
L 284.174699 168.31043 
L 283.832957 166.818213 
L 282.807732 164.579888 
L 280.586411 161.098049 
L 276.656383 156.870101 
L 272.042871 153.388262 
L 266.916746 150.652531 
L 260.936268 146.673286 
L 255.468402 144.186258 
L 249.317053 140.953121 
L 245.899636 138.714796 
L 243.336574 135.730363 
L 243.507445 132.745929 
L 247.266603 130.507604 
L 252.050986 128.766684 
L 255.639273 127.274467 
L 256.493627 126.528359 
L 255.12666 126.528359 
L 252.734469 126.777062 
L 249.658794 126.777062 
L 248.462699 126.528359 
L 248.120957 125.78225 
L 246.070507 124.290034 
L 244.361799 123.792628 
L 241.798737 123.792628 
L 238.381321 124.538736 
L 233.255196 126.030953 
L 227.616459 127.52317 
L 222.148593 129.26409 
L 217.022469 130.756307 
L 213.434182 131.502415 
L 206.77022 132.497226 
L 205.232383 132.497226 
L 203.694545 132.248523 
L 200.448 132.248523 
L 195.834488 133.243335 
L 193.271426 133.243335 
L 190.366622 133.492037 
L 178.234794 133.492037 
L 171.741703 134.486849 
L 166.615579 135.730363 
L 163.881646 136.973877 
L 161.831196 137.719985 
L 159.780746 138.963499 
L 156.875943 140.455716 
L 145.427598 147.170692 
L 133.808383 155.129181 
L 130.561837 157.864912 
L 130.732708 159.108426 
L 132.099675 160.600643 
L 134.150124 162.09286 
L 135.34622 162.590265 
L 140.472344 162.590265 
L 147.136306 161.595454 
L 151.237206 160.849346 
L 156.021589 159.854535 
L 159.268134 159.357129 
L 162.68555 159.108426 
L 166.102967 158.611021 
L 171.741703 158.611021 
L 173.621282 159.357129 
L 175.15912 160.103237 
L 177.893053 163.336374 
L 178.234794 164.579888 
L 178.405665 165.823402 
L 178.747407 167.315619 
L 179.601761 168.31043 
L 180.285244 169.305241 
L 180.626986 170.300052 
L 180.797856 171.543566 
L 181.48134 172.538378 
L 181.139598 173.781892 
L 180.114373 175.522811 
L 175.500861 180.74557 
L 174.133895 182.237787 
L 172.425187 184.724815 
L 171.741703 186.217032 
L 171.741703 186.714437 
L 172.083445 187.957951 
L 171.912574 188.455357 
L 171.570833 188.952763 
L 171.912574 188.952763 
L 171.570833 189.947574 
L 172.083445 190.196277 
L 173.621282 189.947574 
L 174.646507 189.947574 
L 179.943502 188.952763 
L 180.968727 188.455357 
L 186.436593 187.211843 
L 190.02488 186.217032 
L 192.758813 186.217032 
L 196.3471 185.719626 
L 204.890641 185.719626 
L 206.086737 185.968329 
L 207.966316 185.968329 
L 208.991541 186.217032 
L 210.187636 186.217032 
L 210.187636 186.465735 
L 210.358507 186.465735 
L 209.504153 187.211843 
L 208.991541 187.709249 
L 203.694545 189.201465 
L 202.49845 189.450168 
L 201.814967 189.450168 
L 200.618871 189.698871 
L 199.593646 189.698871 
L 198.910163 189.947574 
L 196.688842 189.947574 
L 196.005359 189.698871 
L 195.492746 189.698871 
L 195.151005 189.450168 
L 195.151005 189.201465 
L 195.834488 188.952763 
L 196.517971 188.455357 
L 197.714067 187.957951 
L 199.081033 187.211843 
L 205.061512 184.724815 
L 210.358507 182.237787 
L 213.263311 180.994273 
L 221.977722 176.766325 
L 230.692134 171.792269 
L 231.546488 171.046161 
L 231.88823 170.548755 
L 231.88823 170.05135 
L 231.717359 169.802647 
L 230.863005 169.802647 
L 229.666909 170.300052 
L 226.591234 171.294864 
L 220.439885 174.030594 
L 218.389435 175.025406 
L 216.168115 175.771514 
L 214.288536 176.766325 
L 212.238086 177.512434 
L 210.529378 178.009839 
L 208.991541 178.755948 
L 206.257608 179.750759 
L 203.694545 180.994273 
L 203.011062 181.491679 
L 202.49845 181.491679 
L 202.49845 181.491679 
L 202.49845 180.994273 
L 202.327579 180.74557 
L 202.49845 180.248164 
L 202.156708 179.750759 
L 201.644096 179.253353 
L 201.644096 179.00465 
L 201.302354 178.507245 
L 200.618871 178.258542 
L 200.106258 177.761136 
L 199.422775 177.512434 
L 198.568421 177.512434 
L 197.714067 177.263731 
L 194.638392 177.263731 
L 193.613167 177.015028 
L 190.708364 177.015028 
L 190.02488 176.766325 
L 189.170526 176.766325 
L 188.487043 176.517622 
L 188.145301 176.517622 
L 187.290947 176.020217 
L 186.607464 176.020217 
L 186.607464 175.522811 
L 186.949206 175.025406 
L 188.316172 175.025406 
L 188.657914 175.522811 
L 189.683139 176.26892 
L 190.537493 177.512434 
L 190.879234 177.761136 
L 191.391847 179.00465 
L 191.562718 179.253353 
L 191.562718 179.750759 
L 191.733589 180.248164 
L 192.07533 180.74557 
L 192.929684 181.242976 
L 194.12578 181.740381 
L 194.809263 181.740381 
L 195.492746 181.989084 
L 196.688842 181.989084 
L 197.201455 182.48649 
L 197.372325 182.735193 
L 197.372325 183.232598 
L 197.201455 183.481301 
L 197.030584 183.978707 
L 197.030584 184.476112 
L 196.517971 185.719626 
L 196.005359 186.465735 
L 195.834488 186.96314 
L 195.321876 187.211843 
L 194.638392 187.709249 
L 193.954909 188.455357 
L 189.341397 191.688493 
L 188.145301 192.434602 
L 184.044402 195.419036 
L 184.215273 195.419036 
L 184.386144 195.667738 
L 185.582239 196.165144 
L 186.094852 196.66255 
L 187.120077 197.408658 
L 189.341397 199.646983 
L 191.391847 200.890497 
L 193.442297 202.382714 
L 195.321876 204.123634 
L 200.277129 206.610662 
L 203.352804 207.35677 
L 205.915866 207.854176 
L 209.162411 208.102879 
L 213.09244 207.854176 
L 222.661206 205.864553 
L 228.812555 204.621039 
L 235.989129 202.88012 
L 243.678316 201.1392 
L 275.631158 195.667738 
L 287.079502 192.932007 
L 292.205627 192.185899 
L 297.331751 191.937196 
L 301.26178 191.937196 
L 307.584 191.439791 
L 313.051866 191.191088 
L 315.785799 190.693682 
L 320.741053 190.444979 
L 323.816727 190.444979 
L 326.892402 190.196277 
L 331.847656 190.196277 
L 333.043751 190.444979 
L 333.385493 190.942385 
L 333.385493 191.191088 
L 332.189397 191.937196 
L 327.746756 194.175521 
L 326.038048 195.170333 
L 324.158469 195.419036 
L 323.133244 195.419036 
L 321.937148 196.165144 
L 322.620632 195.667738 
L 322.791502 194.92163 
L 323.133244 194.424224 
L 323.304115 193.926819 
L 326.379789 193.926819 
L 328.088498 194.92163 
L 329.113722 194.92163 
L 330.309818 194.424224 
L 331.505914 194.424224 
L 332.360268 194.672927 
L 333.727234 194.672927 
L 334.239847 194.424224 
L 334.581589 195.667738 
L 334.92333 195.419036 
L 334.752459 195.916441 
L 336.97378 196.66255 
L 337.828134 196.66255 
L 339.365971 196.165144 
L 341.758163 195.916441 
L 343.637742 195.916441 
L 346.029933 196.66255 
L 349.959962 197.408658 
L 351.326928 197.408658 
L 353.71912 198.154766 
L 360.383081 198.900875 
L 363.458756 199.895686 
L 366.534431 203.128822 
L 370.464459 203.874931 
L 376.103196 203.377525 
L 379.520612 203.377525 
L 382.254545 203.128822 
L 388.576766 202.134011 
L 390.798086 201.387903 
L 391.994182 200.393092 
L 393.190278 199.895686 
L 392.335923 198.900875 
L 392.335923 197.408658 
L 388.918507 193.678116 
L 386.355445 191.688493 
L 383.27977 190.196277 
L 380.716708 188.70406 
L 377.128421 187.460546 
L 372.514909 186.714437 
L 363.117014 183.730004 
L 357.649148 182.237787 
L 345.517321 179.253353 
L 328.60111 175.522811 
L 326.208919 174.776703 
L 321.253665 173.035783 
L 316.811024 171.294864 
L 308.780096 167.564321 
L 304.850067 165.574699 
L 298.356976 161.595454 
L 295.281301 159.357129 
L 288.61734 156.870101 
L 285.029053 156.123993 
L 281.782507 155.626587 
L 275.802029 155.129181 
L 273.068096 155.377884 
L 271.188517 155.377884 
L 269.479809 156.123993 
L 269.479809 156.123993 
L 270.163292 156.123993 
L 271.017646 156.372695 
L 271.872 156.372695 
L 272.726354 156.621398 
L 275.631158 156.123993 
L 275.802029 156.372695 
L 275.802029 156.372695 
L 276.998124 156.372695 
L 278.877703 156.870101 
L 280.586411 157.118804 
L 282.46599 157.864912 
L 291.180402 158.611021 
L 294.256077 158.859723 
L 297.16088 158.859723 
L 300.065684 159.108426 
L 305.191809 159.108426 
L 307.413129 158.859723 
L 309.463579 158.859723 
L 312.197512 158.362318 
L 312.880995 158.113615 
L 312.880995 158.113615 
L 311.6849 157.118804 
L 311.343158 156.621398 
L 307.242258 154.13437 
L 305.704421 153.636964 
L 305.191809 153.388262 
L 302.799617 153.388262 
L 302.116134 153.139559 
L 301.26178 155.87529 
L 302.799617 156.372695 
L 303.995713 156.372695 
L 304.508325 156.123993 
L 303.4831 156.123993 
L 303.141359 155.87529 
L 303.4831 155.87529 
L 302.457876 155.87529 
L 301.432651 156.123993 
L 299.553072 157.616209 
L 299.553072 158.113615 
L 300.236555 159.108426 
L 300.407426 179.502056 
L 302.116134 178.755948 
L 302.799617 178.507245 
L 303.4831 178.009839 
L 304.337455 177.761136 
L 305.020938 177.263731 
L 306.046163 176.766325 
L 310.830545 173.284486 
L 312.026641 172.040972 
L 313.051866 170.548755 
L 315.444057 167.564321 
L 316.127541 166.072105 
L 318.17799 164.082482 
L 319.544957 163.336374 
L 320.741053 162.838968 
L 321.766278 162.590265 
L 322.620632 162.838968 
L 322.962373 163.585077 
L 322.620632 164.828591 
L 321.424536 166.072105 
L 318.861474 167.066916 
L 313.90622 167.315619 
L 304.679196 167.066916 
L 276.827254 166.818213 
L 256.835368 167.066916 
L 240.43177 165.823402 
L 222.490335 161.844157 
L 214.288536 158.113615 
L 210.87112 155.87529 
L 210.700249 156.123993 
L 218.389435 160.103237 
L 226.420364 164.082482 
L 226.762105 165.823402 
L 220.098144 166.56951 
L 202.840191 167.066916 
L 195.151005 168.061727 
L 177.893053 172.78708 
L 173.792153 174.279297 
L 170.032995 175.771514 
L 165.590354 177.015028 
L 160.46423 177.512434 
L 149.015885 178.009839 
L 138.934507 178.009839 
L 135.517091 178.258542 
L 130.903579 179.00465 
L 128.853129 179.999462 
L 126.290067 180.74557 
L 123.897876 181.740381 
L 120.993072 182.48649 
L 117.233914 183.232598 
L 113.303885 183.730004 
L 104.760344 184.476112 
L 99.975962 184.973518 
L 96.558545 185.719626 
L 96.558545 185.719626 
" clip-path="url(#pd3e06d8580)" style="fill: none; stroke: #00fa9a; stroke-width: 1.5; stroke-linecap: square"/>
   </g>
   <g id="line2d_15">
    <path d="M 303.31223 150.652531 
" clip-path="url(#pd3e06d8580)" style="fill: none; stroke: #00fa9a; stroke-width: 1.5; stroke-linecap: square"/>
    <defs>
     <path id="mea87d67e47" d="M 0 5 
C 1.326016 5 2.597899 4.473168 3.535534 3.535534 
C 4.473168 2.597899 5 1.326016 5 0 
C 5 -1.326016 4.473168 -2.597899 3.535534 -3.535534 
C 2.597899 -4.473168 1.326016 -5 0 -5 
C -1.326016 -5 -2.597899 -4.473168 -3.535534 -3.535534 
C -4.473168 -2.597899 -5 -1.326016 -5 0 
C -5 1.326016 -4.473168 2.597899 -3.535534 3.535534 
C -2.597899 4.473168 -1.326016 5 0 5 
z
" style="stroke: #00fa9a"/>
    </defs>
    <g clip-path="url(#pd3e06d8580)">
     <use xlink:href="#mea87d67e47" x="303.31223" y="150.652531" style="fill: #00fa9a; stroke: #00fa9a"/>
    </g>
   </g>
   <g id="line2d_16">
    <path d="M 96.558545 185.719626 
" clip-path="url(#pd3e06d8580)" style="fill: none; stroke: #00fa9a; stroke-width: 1.5; stroke-linecap: square"/>
    <defs>
     <path id="m699431061f" d="M -5 5 
L 5 5 
L 5 -5 
L -5 -5 
z
" style="stroke: #00fa9a; stroke-linejoin: miter"/>
    </defs>
    <g clip-path="url(#pd3e06d8580)">
     <use xlink:href="#m699431061f" x="96.558545" y="185.719626" style="fill: #00fa9a; stroke: #00fa9a; stroke-linejoin: miter"/>
    </g>
   </g>
   <g id="line2d_17">
    <path d="M 239.064804 92.456075 
L 237.185225 95.440508 
L 235.647388 98.176239 
L 234.622163 100.663267 
L 233.084325 103.896404 
L 232.742584 104.891215 
L 232.742584 105.886026 
L 232.913455 107.12954 
L 233.426067 107.378243 
L 234.451292 106.880837 
L 235.476517 105.886026 
L 236.16 103.398998 
L 236.330871 102.901593 
L 236.843483 102.404187 
L 236.672612 102.155484 
L 235.989129 100.91197 
L 235.818258 99.917159 
L 235.476517 99.419753 
L 234.793033 98.922348 
L 233.767809 98.922348 
L 232.742584 99.668456 
L 232.571713 100.663267 
L 232.571713 102.404187 
L 232.0591 104.145107 
L 231.375617 105.139918 
L 231.033876 105.886026 
L 230.008651 106.383432 
L 229.154297 106.632135 
L 228.129072 106.632135 
L 226.591234 106.383432 
L 225.053397 105.886026 
L 223.51556 105.139918 
L 221.806852 104.642512 
L 219.927273 103.647701 
L 218.047694 102.901593 
L 213.605053 102.901593 
L 211.554603 102.65289 
L 208.649799 103.398998 
L 200.618871 105.886026 
L 197.543196 107.12954 
L 188.316172 109.865271 
L 185.411368 110.611379 
L 183.360919 110.860082 
L 179.260019 113.844516 
L 176.526086 114.839327 
L 170.545608 116.082841 
L 167.299062 115.585436 
L 166.273837 115.08803 
L 165.761225 115.08803 
L 164.736 114.839327 
L 164.223388 114.590624 
L 162.002067 114.590624 
L 161.489455 114.341921 
L 160.46423 114.341921 
L 159.780746 114.093219 
L 158.755522 113.595813 
L 158.584651 113.34711 
L 158.242909 113.34711 
L 157.046813 112.601002 
L 155.850718 112.352299 
L 154.825493 112.352299 
L 154.31288 112.103596 
L 153.971139 112.103596 
L 153.116785 111.357488 
L 153.116785 110.860082 
L 152.945914 110.362677 
L 153.116785 110.113974 
L 153.458526 109.367865 
L 153.629397 108.124351 
L 153.287656 108.124351 
L 153.458526 107.875649 
L 153.458526 106.880837 
L 154.14201 106.880837 
L 154.31288 106.632135 
L 154.825493 106.383432 
L 155.167234 105.886026 
L 156.36333 104.891215 
L 157.730297 103.398998 
L 158.584651 102.65289 
L 159.268134 101.906781 
L 159.951617 101.409376 
L 160.6351 101.160673 
L 161.147713 100.663267 
L 161.147713 100.414564 
L 160.293359 100.91197 
L 159.268134 101.160673 
L 154.654622 103.150295 
L 151.749818 104.145107 
L 148.674144 104.891215 
L 144.231502 105.637323 
L 139.788861 109.367865 
L 138.251024 110.362677 
L 136.884057 110.860082 
L 133.29577 111.357488 
L 131.757933 111.108785 
L 130.049225 111.108785 
L 128.853129 110.611379 
L 126.97355 109.367865 
L 125.606584 109.367865 
L 125.093971 109.616568 
L 124.9231 109.616568 
L 124.581359 108.87046 
L 123.897876 107.626946 
L 123.214392 106.880837 
L 121.334813 105.388621 
L 121.163943 104.891215 
L 121.163943 104.145107 
L 121.334813 103.896404 
L 121.505684 104.145107 
L 121.334813 104.642512 
L 119.796976 106.134729 
L 119.284364 106.134729 
L 117.404785 107.12954 
L 115.012593 108.124351 
L 116.037818 108.124351 
L 119.284364 107.626946 
L 121.334813 107.378243 
L 123.727005 107.378243 
L 126.290067 107.12954 
L 132.099675 107.12954 
L 135.004478 107.378243 
L 138.080153 107.378243 
L 141.155828 107.12954 
L 144.231502 107.12954 
L 150.553722 106.632135 
L 153.458526 106.632135 
L 158.584651 106.134729 
L 162.856421 105.139918 
L 169.691254 102.155484 
L 170.545608 101.906781 
L 171.570833 101.906781 
L 171.741703 102.155484 
L 171.399962 102.65289 
L 171.399962 102.901593 
L 171.229091 103.398998 
L 170.545608 103.896404 
L 169.349512 103.398998 
L 168.666029 103.150295 
L 167.982545 102.65289 
L 166.957321 101.658079 
L 166.102967 101.160673 
L 161.489455 98.922348 
L 159.097263 98.176239 
L 152.775043 97.430131 
L 150.553722 97.430131 
L 148.161531 97.181428 
L 146.111081 97.181428 
L 141.66844 96.684022 
L 139.44712 95.937914 
L 136.884057 95.440508 
L 134.491866 94.6944 
L 132.270545 94.196994 
L 126.802679 92.704778 
L 124.239617 92.207372 
L 118.771751 90.466452 
L 117.404785 89.471641 
L 115.696077 89.471641 
L 115.525206 89.720344 
L 115.183464 89.720344 
L 115.183464 89.969047 
L 115.354335 89.969047 
L 115.525206 89.720344 
L 117.063043 88.725533 
L 118.43001 88.228127 
L 119.113493 88.228127 
L 119.796976 87.979424 
L 121.163943 87.979424 
L 121.334813 87.730721 
L 121.676555 87.730721 
L 122.360038 87.482019 
L 122.360038 87.233316 
L 121.334813 87.233316 
L 119.455234 87.730721 
L 117.404785 88.974236 
L 116.892172 89.720344 
L 117.233914 89.720344 
L 117.575656 89.969047 
L 115.354335 91.461264 
L 112.107789 93.202183 
L 107.152536 95.689211 
L 96.387675 101.409376 
L 89.381971 104.891215 
L 82.547139 108.373054 
L 77.762756 111.108785 
L 75.028823 113.098407 
L 74.516211 113.844516 
L 74.516211 114.341921 
L 74.857952 114.341921 
L 75.541435 113.595813 
L 76.56666 111.854893 
L 76.737531 111.108785 
L 76.395789 111.357488 
L 75.199694 117.326355 
L 76.737531 118.818572 
L 80.325818 119.56468 
L 78.787981 121.803006 
L 79.129722 122.300411 
L 79.813206 122.797817 
L 81.009301 123.04652 
L 82.547139 123.543925 
L 84.426718 124.290034 
L 86.477167 124.787439 
L 89.894584 126.279656 
L 90.919809 127.274467 
L 91.774163 130.010198 
L 91.774163 131.253712 
L 87.502392 139.95831 
L 86.818909 142.196636 
L 86.306297 142.942744 
L 85.964555 143.937555 
L 85.964555 145.429772 
L 86.477167 145.927178 
L 89.552842 146.424583 
L 93.482871 146.921989 
L 95.875062 146.921989 
L 100.659445 147.419394 
L 103.051636 147.419394 
L 105.102086 147.9168 
L 107.152536 148.165503 
L 112.107789 148.911611 
L 119.284364 150.901234 
L 119.796976 151.149936 
L 121.163943 151.647342 
L 124.410488 152.144748 
L 128.511388 152.144748 
L 129.365742 152.39345 
L 129.878354 152.39345 
L 129.878354 152.642153 
L 129.707483 152.890856 
L 129.878354 152.890856 
L 129.878354 152.890856 
L 130.049225 152.642153 
L 130.220096 152.642153 
L 130.561837 152.144748 
L 130.903579 152.144748 
L 131.587062 151.149936 
L 131.587062 150.901234 
L 131.928804 149.906422 
L 131.587062 149.160314 
L 131.07445 148.911611 
L 130.732708 148.414206 
L 130.732708 148.414206 
L 130.732708 148.165503 
L 130.903579 148.165503 
L 130.732708 148.165503 
L 130.732708 148.911611 
L 130.903579 148.911611 
L 131.07445 149.160314 
L 131.245321 149.160314 
L 131.245321 149.409017 
L 131.416191 149.65772 
L 131.928804 149.65772 
L 132.099675 149.906422 
L 132.441416 149.906422 
L 132.783158 150.155125 
L 133.29577 150.155125 
L 133.808383 150.403828 
L 135.175349 150.901234 
L 136.200574 151.896045 
L 137.39667 152.144748 
L 138.763636 152.144748 
L 140.301474 151.647342 
L 141.839311 150.901234 
L 143.377148 150.403828 
L 145.598469 149.409017 
L 150.724593 147.419394 
L 156.875943 144.434961 
L 159.951617 143.191447 
L 165.761225 140.455716 
L 168.495158 139.212202 
L 171.399962 138.217391 
L 176.355215 135.730363 
L 178.576536 134.486849 
L 182.848306 131.502415 
L 185.069627 130.258901 
L 187.461818 128.517981 
L 189.85401 127.274467 
L 195.492746 123.792628 
L 198.39755 122.549114 
L 201.302354 120.808194 
L 207.624574 118.072464 
L 213.263311 116.082841 
L 216.338986 115.585436 
L 219.243789 114.839327 
L 228.983426 111.606191 
L 234.963904 109.865271 
L 241.798737 107.626946 
L 243.336574 106.880837 
L 250.684019 103.647701 
L 255.12666 100.91197 
L 258.031464 98.673645 
L 258.373206 97.678834 
L 258.544077 95.937914 
L 258.373206 93.202183 
L 257.518852 92.704778 
L 256.493627 90.466452 
L 253.930565 86.984613 
L 251.196632 84.994991 
L 249.487923 82.756665 
L 245.728766 81.761854 
L 244.190928 81.015746 
L 241.798737 80.020935 
L 240.773512 79.772232 
L 240.944383 79.772232 
L 242.48222 79.523529 
L 246.58312 79.523529 
L 253.076211 80.767043 
L 254.443177 81.513151 
L 255.12666 82.507963 
L 255.12666 83.254071 
L 254.784919 84.000179 
L 253.759694 84.994991 
L 251.709244 85.492396 
L 249.658794 85.492396 
L 249.487923 85.741099 
L 249.487923 85.741099 
L 249.829665 86.238505 
L 249.829665 86.487207 
L 250.171407 87.233316 
L 250.513148 87.233316 
L 250.171407 87.233316 
L 250.171407 86.984613 
L 249.829665 86.487207 
L 250.000536 86.238505 
L 249.829665 86.238505 
L 249.658794 85.989802 
L 250.000536 85.492396 
L 250.342278 85.243693 
L 250.342278 84.746288 
L 250.513148 84.497585 
L 250.342278 84.248882 
L 250.684019 84.000179 
L 251.367502 83.005368 
L 252.050986 82.756665 
L 252.563598 82.756665 
L 253.076211 82.507963 
L 254.443177 83.502774 
L 254.784919 83.502774 
L 255.12666 84.000179 
L 255.810144 84.497585 
L 256.322756 85.492396 
L 257.17711 86.238505 
L 258.031464 87.233316 
L 258.714947 88.47683 
L 259.398431 89.471641 
L 259.911043 90.715155 
L 260.594526 92.95348 
L 260.765397 94.445697 
L 260.765397 98.176239 
L 260.594526 99.419753 
L 261.107139 102.901593 
L 262.132364 104.642512 
L 262.815847 105.139918 
L 265.037167 105.139918 
L 266.916746 104.891215 
L 267.7711 104.891215 
L 269.82155 106.134729 
L 270.334163 106.632135 
L 270.846775 106.880837 
L 271.188517 106.880837 
L 271.530258 107.378243 
L 271.530258 231.729645 
L 271.359388 231.480942 
L 271.188517 231.480942 
L 270.334163 230.983536 
L 269.308938 230.734834 
L 268.454584 230.734834 
L 264.695426 229.740022 
L 257.518852 229.740022 
L 252.392727 230.734834 
L 246.924861 231.729645 
L 242.311349 232.22705 
L 233.426067 232.724456 
L 222.661206 234.216673 
L 216.338986 234.714079 
L 211.896344 234.714079 
L 206.086737 234.216673 
L 199.251904 232.475753 
L 191.733589 229.49132 
L 185.411368 225.760778 
L 179.601761 220.289316 
L 172.425187 214.320449 
L 157.559426 203.626228 
L 149.699368 196.413847 
L 144.231502 196.413847 
L 134.150124 195.419036 
L 124.9231 194.672927 
L 120.993072 194.175521 
L 115.012593 193.926819 
L 111.253435 194.92163 
L 110.569952 197.159955 
L 112.27866 201.636606 
L 117.746526 211.336015 
L 119.455234 216.310071 
L 119.796976 218.050991 
L 119.284364 219.294505 
L 117.917397 219.543207 
L 114.499981 219.543207 
L 113.474756 220.289316 
L 112.791273 223.771155 
L 112.107789 225.263372 
L 111.082565 225.760778 
L 110.399081 227.004292 
L 110.399081 227.501697 
L 110.569952 228.496508 
L 111.253435 229.740022 
L 111.595177 229.988725 
L 113.816498 232.22705 
L 115.696077 233.719267 
L 119.626105 237.449809 
L 121.163943 238.444621 
L 121.163943 238.444621 
" clip-path="url(#pd3e06d8580)" style="fill: none; stroke: #008000; stroke-width: 1.5; stroke-linecap: square"/>
   </g>
   <g id="line2d_18">
    <path d="M 239.064804 92.456075 
" clip-path="url(#pd3e06d8580)" style="fill: none; stroke: #008000; stroke-width: 1.5; stroke-linecap: square"/>
    <defs>
     <path id="maf9c5de61f" d="M 0 5 
C 1.326016 5 2.597899 4.473168 3.535534 3.535534 
C 4.473168 2.597899 5 1.326016 5 0 
C 5 -1.326016 4.473168 -2.597899 3.535534 -3.535534 
C 2.597899 -4.473168 1.326016 -5 0 -5 
C -1.326016 -5 -2.597899 -4.473168 -3.535534 -3.535534 
C -4.473168 -2.597899 -5 -1.326016 -5 0 
C -5 1.326016 -4.473168 2.597899 -3.535534 3.535534 
C -2.597899 4.473168 -1.326016 5 0 5 
z
" style="stroke: #008000"/>
    </defs>
    <g clip-path="url(#pd3e06d8580)">
     <use xlink:href="#maf9c5de61f" x="239.064804" y="92.456075" style="fill: #008000; stroke: #008000"/>
    </g>
   </g>
   <g id="line2d_19">
    <path d="M 121.163943 238.444621 
" clip-path="url(#pd3e06d8580)" style="fill: none; stroke: #008000; stroke-width: 1.5; stroke-linecap: square"/>
    <defs>
     <path id="ma25a7d8b7d" d="M -5 5 
L 5 5 
L 5 -5 
L -5 -5 
z
" style="stroke: #008000; stroke-linejoin: miter"/>
    </defs>
    <g clip-path="url(#pd3e06d8580)">
     <use xlink:href="#ma25a7d8b7d" x="121.163943" y="238.444621" style="fill: #008000; stroke: #008000; stroke-linejoin: miter"/>
    </g>
   </g>
   <g id="line2d_20">
    <path d="M 360.451879 220.411848 
" clip-path="url(#pd3e06d8580)" style="fill: none; stroke: #ff0000; stroke-width: 1.5; stroke-linecap: square"/>
    <defs>
     <path id="m9f10fca4f4" d="M -2.5 5 
L 0 2.5 
L 2.5 5 
L 5 2.5 
L 2.5 0 
L 5 -2.5 
L 2.5 -5 
L 0 -2.5 
L -2.5 -5 
L -5 -2.5 
L -2.5 0 
L -5 2.5 
z
" style="stroke: #ff0000; stroke-linejoin: miter"/>
    </defs>
    <g clip-path="url(#pd3e06d8580)">
     <use xlink:href="#m9f10fca4f4" x="360.451879" y="220.411848" style="fill: #ff0000; stroke: #ff0000; stroke-linejoin: miter"/>
    </g>
   </g>
   <g id="line2d_21">
    <path d="M 128.826599 238.655715 
" clip-path="url(#pd3e06d8580)" style="fill: none; stroke: #ffa07a; stroke-width: 1.5; stroke-linecap: square"/>
    <defs>
     <path id="m10ac5ac1bb" d="M -2.5 5 
L 0 2.5 
L 2.5 5 
L 5 2.5 
L 2.5 0 
L 5 -2.5 
L 2.5 -5 
L 0 -2.5 
L -2.5 -5 
L -5 -2.5 
L -2.5 0 
L -5 2.5 
z
" style="stroke: #ffa07a; stroke-linejoin: miter"/>
    </defs>
    <g clip-path="url(#pd3e06d8580)">
     <use xlink:href="#m10ac5ac1bb" x="128.826599" y="238.655715" style="fill: #ffa07a; stroke: #ffa07a; stroke-linejoin: miter"/>
    </g>
   </g>
   <g id="line2d_22">
    <path d="M 213.972875 92.704778 
" clip-path="url(#pd3e06d8580)" style="fill: none; stroke: #0000ff; stroke-width: 1.5; stroke-linecap: square"/>
    <defs>
     <path id="m6af66e6d37" d="M -2.5 5 
L 0 2.5 
L 2.5 5 
L 5 2.5 
L 2.5 0 
L 5 -2.5 
L 2.5 -5 
L 0 -2.5 
L -2.5 -5 
L -5 -2.5 
L -2.5 0 
L -5 2.5 
z
" style="stroke: #0000ff; stroke-linejoin: miter"/>
    </defs>
    <g clip-path="url(#pd3e06d8580)">
     <use xlink:href="#m6af66e6d37" x="213.972875" y="92.704778" style="fill: #0000ff; stroke: #0000ff; stroke-linejoin: miter"/>
    </g>
   </g>
   <g id="line2d_23">
    <path d="M 200.095916 176.176718 
" clip-path="url(#pd3e06d8580)" style="fill: none; stroke: #00fa9a; stroke-width: 1.5; stroke-linecap: square"/>
    <defs>
     <path id="mfa01f5c643" d="M -2.5 5 
L 0 2.5 
L 2.5 5 
L 5 2.5 
L 2.5 0 
L 5 -2.5 
L 2.5 -5 
L 0 -2.5 
L -2.5 -5 
L -5 -2.5 
L -2.5 0 
L -5 2.5 
z
" style="stroke: #00fa9a; stroke-linejoin: miter"/>
    </defs>
    <g clip-path="url(#pd3e06d8580)">
     <use xlink:href="#mfa01f5c643" x="200.095916" y="176.176718" style="fill: #00fa9a; stroke: #00fa9a; stroke-linejoin: miter"/>
    </g>
   </g>
   <g id="line2d_24">
    <path d="M 135.679418 208.665796 
" clip-path="url(#pd3e06d8580)" style="fill: none; stroke: #008000; stroke-width: 1.5; stroke-linecap: square"/>
    <defs>
     <path id="m688c09b72c" d="M -2.5 5 
L 0 2.5 
L 2.5 5 
L 5 2.5 
L 2.5 0 
L 5 -2.5 
L 2.5 -5 
L 0 -2.5 
L -2.5 -5 
L -5 -2.5 
L -2.5 0 
L -5 2.5 
z
" style="stroke: #008000; stroke-linejoin: miter"/>
    </defs>
    <g clip-path="url(#pd3e06d8580)">
     <use xlink:href="#m688c09b72c" x="135.679418" y="208.665796" style="fill: #008000; stroke: #008000; stroke-linejoin: miter"/>
    </g>
   </g>
   <g id="patch_3">
    <path d="M 57.6 307.584 
L 57.6 41.472 
" style="fill: none; stroke: #000000; stroke-width: 0.8; stroke-linejoin: miter; stroke-linecap: square"/>
   </g>
   <g id="patch_4">
    <path d="M 57.6 307.584 
L 414.72 307.584 
" style="fill: none; stroke: #000000; stroke-width: 0.8; stroke-linejoin: miter; stroke-linecap: square"/>
   </g>
   <g id="legend_1">
    <g id="patch_5">
     <path d="M 241.591875 141.54075 
L 404.22 141.54075 
Q 407.22 141.54075 407.22 138.54075 
L 407.22 51.972 
Q 407.22 48.972 404.22 48.972 
L 241.591875 48.972 
Q 238.591875 48.972 238.591875 51.972 
L 238.591875 138.54075 
Q 238.591875 141.54075 241.591875 141.54075 
z
" style="fill: #ffffff; opacity: 0.8; stroke: #cccccc; stroke-linejoin: miter"/>
    </g>
    <g id="line2d_25">
     <path d="M 244.591875 61.119656 
L 259.591875 61.119656 
L 274.591875 61.119656 
" style="fill: none; stroke: #000000; stroke-width: 1.5; stroke-linecap: square"/>
    </g>
    <g id="text_7">
     <!-- Trajectory -->
     <g transform="translate(286.591875 66.369656)scale(0.15 -0.15)">
      <defs>
       <path id="DejaVuSans-54" d="M -19 4666 
L 3928 4666 
L 3928 4134 
L 2272 4134 
L 2272 0 
L 1638 0 
L 1638 4134 
L -19 4134 
L -19 4666 
z
" transform="scale(0.015625)"/>
       <path id="DejaVuSans-72" d="M 2631 2963 
Q 2534 3019 2420 3045 
Q 2306 3072 2169 3072 
Q 1681 3072 1420 2755 
Q 1159 2438 1159 1844 
L 1159 0 
L 581 0 
L 581 3500 
L 1159 3500 
L 1159 2956 
Q 1341 3275 1631 3429 
Q 1922 3584 2338 3584 
Q 2397 3584 2469 3576 
Q 2541 3569 2628 3553 
L 2631 2963 
z
" transform="scale(0.015625)"/>
       <path id="DejaVuSans-61" d="M 2194 1759 
Q 1497 1759 1228 1600 
Q 959 1441 959 1056 
Q 959 750 1161 570 
Q 1363 391 1709 391 
Q 2188 391 2477 730 
Q 2766 1069 2766 1631 
L 2766 1759 
L 2194 1759 
z
M 3341 1997 
L 3341 0 
L 2766 0 
L 2766 531 
Q 2569 213 2275 61 
Q 1981 -91 1556 -91 
Q 1019 -91 701 211 
Q 384 513 384 1019 
Q 384 1609 779 1909 
Q 1175 2209 1959 2209 
L 2766 2209 
L 2766 2266 
Q 2766 2663 2505 2880 
Q 2244 3097 1772 3097 
Q 1472 3097 1187 3025 
Q 903 2953 641 2809 
L 641 3341 
Q 956 3463 1253 3523 
Q 1550 3584 1831 3584 
Q 2591 3584 2966 3190 
Q 3341 2797 3341 1997 
z
" transform="scale(0.015625)"/>
       <path id="DejaVuSans-6a" d="M 603 3500 
L 1178 3500 
L 1178 -63 
Q 1178 -731 923 -1031 
Q 669 -1331 103 -1331 
L -116 -1331 
L -116 -844 
L 38 -844 
Q 366 -844 484 -692 
Q 603 -541 603 -63 
L 603 3500 
z
M 603 4863 
L 1178 4863 
L 1178 4134 
L 603 4134 
L 603 4863 
z
" transform="scale(0.015625)"/>
       <path id="DejaVuSans-65" d="M 3597 1894 
L 3597 1613 
L 953 1613 
Q 991 1019 1311 708 
Q 1631 397 2203 397 
Q 2534 397 2845 478 
Q 3156 559 3463 722 
L 3463 178 
Q 3153 47 2828 -22 
Q 2503 -91 2169 -91 
Q 1331 -91 842 396 
Q 353 884 353 1716 
Q 353 2575 817 3079 
Q 1281 3584 2069 3584 
Q 2775 3584 3186 3129 
Q 3597 2675 3597 1894 
z
M 3022 2063 
Q 3016 2534 2758 2815 
Q 2500 3097 2075 3097 
Q 1594 3097 1305 2825 
Q 1016 2553 972 2059 
L 3022 2063 
z
" transform="scale(0.015625)"/>
       <path id="DejaVuSans-63" d="M 3122 3366 
L 3122 2828 
Q 2878 2963 2633 3030 
Q 2388 3097 2138 3097 
Q 1578 3097 1268 2742 
Q 959 2388 959 1747 
Q 959 1106 1268 751 
Q 1578 397 2138 397 
Q 2388 397 2633 464 
Q 2878 531 3122 666 
L 3122 134 
Q 2881 22 2623 -34 
Q 2366 -91 2075 -91 
Q 1284 -91 818 406 
Q 353 903 353 1747 
Q 353 2603 823 3093 
Q 1294 3584 2113 3584 
Q 2378 3584 2631 3529 
Q 2884 3475 3122 3366 
z
" transform="scale(0.015625)"/>
       <path id="DejaVuSans-74" d="M 1172 4494 
L 1172 3500 
L 2356 3500 
L 2356 3053 
L 1172 3053 
L 1172 1153 
Q 1172 725 1289 603 
Q 1406 481 1766 481 
L 2356 481 
L 2356 0 
L 1766 0 
Q 1100 0 847 248 
Q 594 497 594 1153 
L 594 3053 
L 172 3053 
L 172 3500 
L 594 3500 
L 594 4494 
L 1172 4494 
z
" transform="scale(0.015625)"/>
       <path id="DejaVuSans-6f" d="M 1959 3097 
Q 1497 3097 1228 2736 
Q 959 2375 959 1747 
Q 959 1119 1226 758 
Q 1494 397 1959 397 
Q 2419 397 2687 759 
Q 2956 1122 2956 1747 
Q 2956 2369 2687 2733 
Q 2419 3097 1959 3097 
z
M 1959 3584 
Q 2709 3584 3137 3096 
Q 3566 2609 3566 1747 
Q 3566 888 3137 398 
Q 2709 -91 1959 -91 
Q 1206 -91 779 398 
Q 353 888 353 1747 
Q 353 2609 779 3096 
Q 1206 3584 1959 3584 
z
" transform="scale(0.015625)"/>
       <path id="DejaVuSans-79" d="M 2059 -325 
Q 1816 -950 1584 -1140 
Q 1353 -1331 966 -1331 
L 506 -1331 
L 506 -850 
L 844 -850 
Q 1081 -850 1212 -737 
Q 1344 -625 1503 -206 
L 1606 56 
L 191 3500 
L 800 3500 
L 1894 763 
L 2988 3500 
L 3597 3500 
L 2059 -325 
z
" transform="scale(0.015625)"/>
      </defs>
      <use xlink:href="#DejaVuSans-54"/>
      <use xlink:href="#DejaVuSans-72" x="46.333984"/>
      <use xlink:href="#DejaVuSans-61" x="87.447266"/>
      <use xlink:href="#DejaVuSans-6a" x="148.726562"/>
      <use xlink:href="#DejaVuSans-65" x="176.509766"/>
      <use xlink:href="#DejaVuSans-63" x="238.033203"/>
      <use xlink:href="#DejaVuSans-74" x="293.013672"/>
      <use xlink:href="#DejaVuSans-6f" x="332.222656"/>
      <use xlink:href="#DejaVuSans-72" x="393.404297"/>
      <use xlink:href="#DejaVuSans-79" x="434.517578"/>
     </g>
    </g>
    <g id="line2d_26">
     <path d="M 244.591875 83.136844 
L 259.591875 83.136844 
L 274.591875 83.136844 
" style="fill: none; stroke: #000000; stroke-width: 1.5; stroke-linecap: square"/>
     <g>
      <use xlink:href="#me88c1fffb8" x="259.591875" y="83.136844" style="stroke: #000000"/>
     </g>
    </g>
    <g id="text_8">
     <!-- Start -->
     <g transform="translate(286.591875 88.386844)scale(0.15 -0.15)">
      <defs>
       <path id="DejaVuSans-53" d="M 3425 4513 
L 3425 3897 
Q 3066 4069 2747 4153 
Q 2428 4238 2131 4238 
Q 1616 4238 1336 4038 
Q 1056 3838 1056 3469 
Q 1056 3159 1242 3001 
Q 1428 2844 1947 2747 
L 2328 2669 
Q 3034 2534 3370 2195 
Q 3706 1856 3706 1288 
Q 3706 609 3251 259 
Q 2797 -91 1919 -91 
Q 1588 -91 1214 -16 
Q 841 59 441 206 
L 441 856 
Q 825 641 1194 531 
Q 1563 422 1919 422 
Q 2459 422 2753 634 
Q 3047 847 3047 1241 
Q 3047 1584 2836 1778 
Q 2625 1972 2144 2069 
L 1759 2144 
Q 1053 2284 737 2584 
Q 422 2884 422 3419 
Q 422 4038 858 4394 
Q 1294 4750 2059 4750 
Q 2388 4750 2728 4690 
Q 3069 4631 3425 4513 
z
" transform="scale(0.015625)"/>
      </defs>
      <use xlink:href="#DejaVuSans-53"/>
      <use xlink:href="#DejaVuSans-74" x="63.476562"/>
      <use xlink:href="#DejaVuSans-61" x="102.685547"/>
      <use xlink:href="#DejaVuSans-72" x="163.964844"/>
      <use xlink:href="#DejaVuSans-74" x="205.078125"/>
     </g>
    </g>
    <g id="line2d_27">
     <path d="M 244.591875 105.154031 
L 259.591875 105.154031 
L 274.591875 105.154031 
" style="fill: none; stroke: #000000; stroke-width: 1.5; stroke-linecap: square"/>
     <g>
      <use xlink:href="#m73b33723c2" x="259.591875" y="105.154031" style="stroke: #000000; stroke-linejoin: miter"/>
     </g>
    </g>
    <g id="text_9">
     <!-- End -->
     <g transform="translate(286.591875 110.404031)scale(0.15 -0.15)">
      <defs>
       <path id="DejaVuSans-45" d="M 628 4666 
L 3578 4666 
L 3578 4134 
L 1259 4134 
L 1259 2753 
L 3481 2753 
L 3481 2222 
L 1259 2222 
L 1259 531 
L 3634 531 
L 3634 0 
L 628 0 
L 628 4666 
z
" transform="scale(0.015625)"/>
       <path id="DejaVuSans-6e" d="M 3513 2113 
L 3513 0 
L 2938 0 
L 2938 2094 
Q 2938 2591 2744 2837 
Q 2550 3084 2163 3084 
Q 1697 3084 1428 2787 
Q 1159 2491 1159 1978 
L 1159 0 
L 581 0 
L 581 3500 
L 1159 3500 
L 1159 2956 
Q 1366 3272 1645 3428 
Q 1925 3584 2291 3584 
Q 2894 3584 3203 3211 
Q 3513 2838 3513 2113 
z
" transform="scale(0.015625)"/>
       <path id="DejaVuSans-64" d="M 2906 2969 
L 2906 4863 
L 3481 4863 
L 3481 0 
L 2906 0 
L 2906 525 
Q 2725 213 2448 61 
Q 2172 -91 1784 -91 
Q 1150 -91 751 415 
Q 353 922 353 1747 
Q 353 2572 751 3078 
Q 1150 3584 1784 3584 
Q 2172 3584 2448 3432 
Q 2725 3281 2906 2969 
z
M 947 1747 
Q 947 1113 1208 752 
Q 1469 391 1925 391 
Q 2381 391 2643 752 
Q 2906 1113 2906 1747 
Q 2906 2381 2643 2742 
Q 2381 3103 1925 3103 
Q 1469 3103 1208 2742 
Q 947 2381 947 1747 
z
" transform="scale(0.015625)"/>
      </defs>
      <use xlink:href="#DejaVuSans-45"/>
      <use xlink:href="#DejaVuSans-6e" x="63.183594"/>
      <use xlink:href="#DejaVuSans-64" x="126.5625"/>
     </g>
    </g>
    <g id="line2d_28">
     <path d="M 244.591875 127.171219 
L 259.591875 127.171219 
L 274.591875 127.171219 
" style="fill: none; stroke: #ff0000; stroke-width: 1.5; stroke-linecap: square"/>
     <g>
      <use xlink:href="#m9f10fca4f4" x="259.591875" y="127.171219" style="fill: #ff0000; stroke: #ff0000; stroke-linejoin: miter"/>
     </g>
    </g>
    <g id="text_10">
     <!-- Target Location -->
     <g transform="translate(286.591875 132.421219)scale(0.15 -0.15)">
      <defs>
       <path id="DejaVuSans-67" d="M 2906 1791 
Q 2906 2416 2648 2759 
Q 2391 3103 1925 3103 
Q 1463 3103 1205 2759 
Q 947 2416 947 1791 
Q 947 1169 1205 825 
Q 1463 481 1925 481 
Q 2391 481 2648 825 
Q 2906 1169 2906 1791 
z
M 3481 434 
Q 3481 -459 3084 -895 
Q 2688 -1331 1869 -1331 
Q 1566 -1331 1297 -1286 
Q 1028 -1241 775 -1147 
L 775 -588 
Q 1028 -725 1275 -790 
Q 1522 -856 1778 -856 
Q 2344 -856 2625 -561 
Q 2906 -266 2906 331 
L 2906 616 
Q 2728 306 2450 153 
Q 2172 0 1784 0 
Q 1141 0 747 490 
Q 353 981 353 1791 
Q 353 2603 747 3093 
Q 1141 3584 1784 3584 
Q 2172 3584 2450 3431 
Q 2728 3278 2906 2969 
L 2906 3500 
L 3481 3500 
L 3481 434 
z
" transform="scale(0.015625)"/>
       <path id="DejaVuSans-20" transform="scale(0.015625)"/>
       <path id="DejaVuSans-4c" d="M 628 4666 
L 1259 4666 
L 1259 531 
L 3531 531 
L 3531 0 
L 628 0 
L 628 4666 
z
" transform="scale(0.015625)"/>
       <path id="DejaVuSans-69" d="M 603 3500 
L 1178 3500 
L 1178 0 
L 603 0 
L 603 3500 
z
M 603 4863 
L 1178 4863 
L 1178 4134 
L 603 4134 
L 603 4863 
z
" transform="scale(0.015625)"/>
      </defs>
      <use xlink:href="#DejaVuSans-54"/>
      <use xlink:href="#DejaVuSans-61" x="44.583984"/>
      <use xlink:href="#DejaVuSans-72" x="105.863281"/>
      <use xlink:href="#DejaVuSans-67" x="145.226562"/>
      <use xlink:href="#DejaVuSans-65" x="208.703125"/>
      <use xlink:href="#DejaVuSans-74" x="270.226562"/>
      <use xlink:href="#DejaVuSans-20" x="309.435547"/>
      <use xlink:href="#DejaVuSans-4c" x="341.222656"/>
      <use xlink:href="#DejaVuSans-6f" x="395.185547"/>
      <use xlink:href="#DejaVuSans-63" x="456.367188"/>
      <use xlink:href="#DejaVuSans-61" x="511.347656"/>
      <use xlink:href="#DejaVuSans-74" x="572.626953"/>
      <use xlink:href="#DejaVuSans-69" x="611.835938"/>
      <use xlink:href="#DejaVuSans-6f" x="639.619141"/>
      <use xlink:href="#DejaVuSans-6e" x="700.800781"/>
     </g>
    </g>
   </g>
  </g>
 </g>
 <defs>
  <clipPath id="pd3e06d8580">
   <rect x="57.6" y="41.472" width="357.12" height="266.112"/>
  </clipPath>
 </defs>
</svg>
