<?xml version="1.0" encoding="utf-8" standalone="no"?>
<!DOCTYPE svg PUBLIC "-//W3C//DTD SVG 1.1//EN"
  "http://www.w3.org/Graphics/SVG/1.1/DTD/svg11.dtd">
<svg xmlns:xlink="http://www.w3.org/1999/xlink" width="460.8pt" height="345.6pt" viewBox="0 0 460.8 345.6" xmlns="http://www.w3.org/2000/svg" version="1.1">
 <metadata>
  <rdf:RDF xmlns:dc="http://purl.org/dc/elements/1.1/" xmlns:cc="http://creativecommons.org/ns#" xmlns:rdf="http://www.w3.org/1999/02/22-rdf-syntax-ns#">
   <cc:Work>
    <dc:type rdf:resource="http://purl.org/dc/dcmitype/StillImage"/>
    <dc:date>2024-02-20T18:22:17.397800</dc:date>
    <dc:format>image/svg+xml</dc:format>
    <dc:creator>
     <cc:Agent>
      <dc:title>Matplotlib v3.5.0, https://matplotlib.org/</dc:title>
     </cc:Agent>
    </dc:creator>
   </cc:Work>
  </rdf:RDF>
 </metadata>
 <defs>
  <style type="text/css">*{stroke-linejoin: round; stroke-linecap: butt}</style>
 </defs>
 <g id="figure_1">
  <g id="patch_1">
   <path d="M 0 345.6 
L 460.8 345.6 
L 460.8 0 
L 0 0 
z
" style="fill: #ffffff"/>
  </g>
  <g id="axes_1">
   <g id="patch_2">
    <path d="M 57.6 307.584 
L 414.72 307.584 
L 414.72 41.472 
L 57.6 41.472 
z
" style="fill: #ffffff"/>
   </g>
   <g id="matplotlib.axis_1">
    <g id="xtick_1">
     <g id="line2d_1">
      <defs>
       <path id="ma0d40a4eb3" d="M 0 0 
L 0 3.5 
" style="stroke: #000000; stroke-width: 0.8"/>
      </defs>
      <g>
       <use xlink:href="#ma0d40a4eb3" x="72.552969" y="307.584" style="stroke: #000000; stroke-width: 0.8"/>
      </g>
     </g>
     <g id="text_1">
      <!-- 0 -->
      <g transform="translate(66.190469 329.780875)scale(0.2 -0.2)">
       <defs>
        <path id="DejaVuSans-30" d="M 2034 4250 
Q 1547 4250 1301 3770 
Q 1056 3291 1056 2328 
Q 1056 1369 1301 889 
Q 1547 409 2034 409 
Q 2525 409 2770 889 
Q 3016 1369 3016 2328 
Q 3016 3291 2770 3770 
Q 2525 4250 2034 4250 
z
M 2034 4750 
Q 2819 4750 3233 4129 
Q 3647 3509 3647 2328 
Q 3647 1150 3233 529 
Q 2819 -91 2034 -91 
Q 1250 -91 836 529 
Q 422 1150 422 2328 
Q 422 3509 836 4129 
Q 1250 4750 2034 4750 
z
" transform="scale(0.015625)"/>
       </defs>
       <use xlink:href="#DejaVuSans-30"/>
      </g>
     </g>
    </g>
    <g id="xtick_2">
     <g id="line2d_2">
      <g>
       <use xlink:href="#ma0d40a4eb3" x="414.72" y="307.584" style="stroke: #000000; stroke-width: 0.8"/>
      </g>
     </g>
     <g id="text_2">
      <!-- 1 -->
      <g transform="translate(408.3575 329.780875)scale(0.2 -0.2)">
       <defs>
        <path id="DejaVuSans-31" d="M 794 531 
L 1825 531 
L 1825 4091 
L 703 3866 
L 703 4441 
L 1819 4666 
L 2450 4666 
L 2450 531 
L 3481 531 
L 3481 0 
L 794 0 
L 794 531 
z
" transform="scale(0.015625)"/>
       </defs>
       <use xlink:href="#DejaVuSans-31"/>
      </g>
     </g>
    </g>
    <g id="text_3">
     <!-- Normalised X position -->
     <g transform="translate(111.795937 353.137125)scale(0.2 -0.2)">
      <defs>
       <path id="DejaVuSans-Bold-4e" d="M 588 4666 
L 1931 4666 
L 3628 1466 
L 3628 4666 
L 4769 4666 
L 4769 0 
L 3425 0 
L 1728 3200 
L 1728 0 
L 588 0 
L 588 4666 
z
" transform="scale(0.015625)"/>
       <path id="DejaVuSans-Bold-6f" d="M 2203 2784 
Q 1831 2784 1636 2517 
Q 1441 2250 1441 1747 
Q 1441 1244 1636 976 
Q 1831 709 2203 709 
Q 2569 709 2762 976 
Q 2956 1244 2956 1747 
Q 2956 2250 2762 2517 
Q 2569 2784 2203 2784 
z
M 2203 3584 
Q 3106 3584 3614 3096 
Q 4122 2609 4122 1747 
Q 4122 884 3614 396 
Q 3106 -91 2203 -91 
Q 1297 -91 786 396 
Q 275 884 275 1747 
Q 275 2609 786 3096 
Q 1297 3584 2203 3584 
z
" transform="scale(0.015625)"/>
       <path id="DejaVuSans-Bold-72" d="M 3138 2547 
Q 2991 2616 2845 2648 
Q 2700 2681 2553 2681 
Q 2122 2681 1889 2404 
Q 1656 2128 1656 1613 
L 1656 0 
L 538 0 
L 538 3500 
L 1656 3500 
L 1656 2925 
Q 1872 3269 2151 3426 
Q 2431 3584 2822 3584 
Q 2878 3584 2943 3579 
Q 3009 3575 3134 3559 
L 3138 2547 
z
" transform="scale(0.015625)"/>
       <path id="DejaVuSans-Bold-6d" d="M 3781 2919 
Q 3994 3244 4286 3414 
Q 4578 3584 4928 3584 
Q 5531 3584 5847 3212 
Q 6163 2841 6163 2131 
L 6163 0 
L 5038 0 
L 5038 1825 
Q 5041 1866 5042 1909 
Q 5044 1953 5044 2034 
Q 5044 2406 4934 2573 
Q 4825 2741 4581 2741 
Q 4263 2741 4089 2478 
Q 3916 2216 3909 1719 
L 3909 0 
L 2784 0 
L 2784 1825 
Q 2784 2406 2684 2573 
Q 2584 2741 2328 2741 
Q 2006 2741 1831 2477 
Q 1656 2213 1656 1722 
L 1656 0 
L 531 0 
L 531 3500 
L 1656 3500 
L 1656 2988 
Q 1863 3284 2130 3434 
Q 2397 3584 2719 3584 
Q 3081 3584 3359 3409 
Q 3638 3234 3781 2919 
z
" transform="scale(0.015625)"/>
       <path id="DejaVuSans-Bold-61" d="M 2106 1575 
Q 1756 1575 1579 1456 
Q 1403 1338 1403 1106 
Q 1403 894 1545 773 
Q 1688 653 1941 653 
Q 2256 653 2472 879 
Q 2688 1106 2688 1447 
L 2688 1575 
L 2106 1575 
z
M 3816 1997 
L 3816 0 
L 2688 0 
L 2688 519 
Q 2463 200 2181 54 
Q 1900 -91 1497 -91 
Q 953 -91 614 226 
Q 275 544 275 1050 
Q 275 1666 698 1953 
Q 1122 2241 2028 2241 
L 2688 2241 
L 2688 2328 
Q 2688 2594 2478 2717 
Q 2269 2841 1825 2841 
Q 1466 2841 1156 2769 
Q 847 2697 581 2553 
L 581 3406 
Q 941 3494 1303 3539 
Q 1666 3584 2028 3584 
Q 2975 3584 3395 3211 
Q 3816 2838 3816 1997 
z
" transform="scale(0.015625)"/>
       <path id="DejaVuSans-Bold-6c" d="M 538 4863 
L 1656 4863 
L 1656 0 
L 538 0 
L 538 4863 
z
" transform="scale(0.015625)"/>
       <path id="DejaVuSans-Bold-69" d="M 538 3500 
L 1656 3500 
L 1656 0 
L 538 0 
L 538 3500 
z
M 538 4863 
L 1656 4863 
L 1656 3950 
L 538 3950 
L 538 4863 
z
" transform="scale(0.015625)"/>
       <path id="DejaVuSans-Bold-73" d="M 3272 3391 
L 3272 2541 
Q 2913 2691 2578 2766 
Q 2244 2841 1947 2841 
Q 1628 2841 1473 2761 
Q 1319 2681 1319 2516 
Q 1319 2381 1436 2309 
Q 1553 2238 1856 2203 
L 2053 2175 
Q 2913 2066 3209 1816 
Q 3506 1566 3506 1031 
Q 3506 472 3093 190 
Q 2681 -91 1863 -91 
Q 1516 -91 1145 -36 
Q 775 19 384 128 
L 384 978 
Q 719 816 1070 734 
Q 1422 653 1784 653 
Q 2113 653 2278 743 
Q 2444 834 2444 1013 
Q 2444 1163 2330 1236 
Q 2216 1309 1875 1350 
L 1678 1375 
Q 931 1469 631 1722 
Q 331 1975 331 2491 
Q 331 3047 712 3315 
Q 1094 3584 1881 3584 
Q 2191 3584 2531 3537 
Q 2872 3491 3272 3391 
z
" transform="scale(0.015625)"/>
       <path id="DejaVuSans-Bold-65" d="M 4031 1759 
L 4031 1441 
L 1416 1441 
Q 1456 1047 1700 850 
Q 1944 653 2381 653 
Q 2734 653 3104 758 
Q 3475 863 3866 1075 
L 3866 213 
Q 3469 63 3072 -14 
Q 2675 -91 2278 -91 
Q 1328 -91 801 392 
Q 275 875 275 1747 
Q 275 2603 792 3093 
Q 1309 3584 2216 3584 
Q 3041 3584 3536 3087 
Q 4031 2591 4031 1759 
z
M 2881 2131 
Q 2881 2450 2695 2645 
Q 2509 2841 2209 2841 
Q 1884 2841 1681 2658 
Q 1478 2475 1428 2131 
L 2881 2131 
z
" transform="scale(0.015625)"/>
       <path id="DejaVuSans-Bold-64" d="M 2919 2988 
L 2919 4863 
L 4044 4863 
L 4044 0 
L 2919 0 
L 2919 506 
Q 2688 197 2409 53 
Q 2131 -91 1766 -91 
Q 1119 -91 703 423 
Q 288 938 288 1747 
Q 288 2556 703 3070 
Q 1119 3584 1766 3584 
Q 2128 3584 2408 3439 
Q 2688 3294 2919 2988 
z
M 2181 722 
Q 2541 722 2730 984 
Q 2919 1247 2919 1747 
Q 2919 2247 2730 2509 
Q 2541 2772 2181 2772 
Q 1825 2772 1636 2509 
Q 1447 2247 1447 1747 
Q 1447 1247 1636 984 
Q 1825 722 2181 722 
z
" transform="scale(0.015625)"/>
       <path id="DejaVuSans-Bold-20" transform="scale(0.015625)"/>
       <path id="DejaVuSans-Bold-58" d="M 3188 2381 
L 4806 0 
L 3553 0 
L 2463 1594 
L 1381 0 
L 122 0 
L 1741 2381 
L 184 4666 
L 1441 4666 
L 2463 3163 
L 3481 4666 
L 4744 4666 
L 3188 2381 
z
" transform="scale(0.015625)"/>
       <path id="DejaVuSans-Bold-70" d="M 1656 506 
L 1656 -1331 
L 538 -1331 
L 538 3500 
L 1656 3500 
L 1656 2988 
Q 1888 3294 2169 3439 
Q 2450 3584 2816 3584 
Q 3463 3584 3878 3070 
Q 4294 2556 4294 1747 
Q 4294 938 3878 423 
Q 3463 -91 2816 -91 
Q 2450 -91 2169 54 
Q 1888 200 1656 506 
z
M 2400 2772 
Q 2041 2772 1848 2508 
Q 1656 2244 1656 1747 
Q 1656 1250 1848 986 
Q 2041 722 2400 722 
Q 2759 722 2948 984 
Q 3138 1247 3138 1747 
Q 3138 2247 2948 2509 
Q 2759 2772 2400 2772 
z
" transform="scale(0.015625)"/>
       <path id="DejaVuSans-Bold-74" d="M 1759 4494 
L 1759 3500 
L 2913 3500 
L 2913 2700 
L 1759 2700 
L 1759 1216 
Q 1759 972 1856 886 
Q 1953 800 2241 800 
L 2816 800 
L 2816 0 
L 1856 0 
Q 1194 0 917 276 
Q 641 553 641 1216 
L 641 2700 
L 84 2700 
L 84 3500 
L 641 3500 
L 641 4494 
L 1759 4494 
z
" transform="scale(0.015625)"/>
       <path id="DejaVuSans-Bold-6e" d="M 4056 2131 
L 4056 0 
L 2931 0 
L 2931 347 
L 2931 1631 
Q 2931 2084 2911 2256 
Q 2891 2428 2841 2509 
Q 2775 2619 2662 2680 
Q 2550 2741 2406 2741 
Q 2056 2741 1856 2470 
Q 1656 2200 1656 1722 
L 1656 0 
L 538 0 
L 538 3500 
L 1656 3500 
L 1656 2988 
Q 1909 3294 2193 3439 
Q 2478 3584 2822 3584 
Q 3428 3584 3742 3212 
Q 4056 2841 4056 2131 
z
" transform="scale(0.015625)"/>
      </defs>
      <use xlink:href="#DejaVuSans-Bold-4e"/>
      <use xlink:href="#DejaVuSans-Bold-6f" x="83.691406"/>
      <use xlink:href="#DejaVuSans-Bold-72" x="152.392578"/>
      <use xlink:href="#DejaVuSans-Bold-6d" x="201.708984"/>
      <use xlink:href="#DejaVuSans-Bold-61" x="305.908203"/>
      <use xlink:href="#DejaVuSans-Bold-6c" x="373.388672"/>
      <use xlink:href="#DejaVuSans-Bold-69" x="407.666016"/>
      <use xlink:href="#DejaVuSans-Bold-73" x="441.943359"/>
      <use xlink:href="#DejaVuSans-Bold-65" x="501.464844"/>
      <use xlink:href="#DejaVuSans-Bold-64" x="569.287109"/>
      <use xlink:href="#DejaVuSans-Bold-20" x="640.869141"/>
      <use xlink:href="#DejaVuSans-Bold-58" x="675.683594"/>
      <use xlink:href="#DejaVuSans-Bold-20" x="752.783203"/>
      <use xlink:href="#DejaVuSans-Bold-70" x="787.597656"/>
      <use xlink:href="#DejaVuSans-Bold-6f" x="859.179688"/>
      <use xlink:href="#DejaVuSans-Bold-73" x="927.880859"/>
      <use xlink:href="#DejaVuSans-Bold-69" x="987.402344"/>
      <use xlink:href="#DejaVuSans-Bold-74" x="1021.679688"/>
      <use xlink:href="#DejaVuSans-Bold-69" x="1069.482422"/>
      <use xlink:href="#DejaVuSans-Bold-6f" x="1103.759766"/>
      <use xlink:href="#DejaVuSans-Bold-6e" x="1172.460938"/>
     </g>
    </g>
   </g>
   <g id="matplotlib.axis_2">
    <g id="ytick_1">
     <g id="line2d_3">
      <defs>
       <path id="m42b0a64484" d="M 0 0 
L -3.5 0 
" style="stroke: #000000; stroke-width: 0.8"/>
      </defs>
      <g>
       <use xlink:href="#m42b0a64484" x="57.6" y="296.668098" style="stroke: #000000; stroke-width: 0.8"/>
      </g>
     </g>
     <g id="text_4">
      <!-- 0 -->
      <g transform="translate(37.875 304.266535)scale(0.2 -0.2)">
       <use xlink:href="#DejaVuSans-30"/>
      </g>
     </g>
    </g>
    <g id="ytick_2">
     <g id="line2d_4">
      <g>
       <use xlink:href="#m42b0a64484" x="57.6" y="53.568" style="stroke: #000000; stroke-width: 0.8"/>
      </g>
     </g>
     <g id="text_5">
      <!-- 1 -->
      <g transform="translate(37.875 61.166437)scale(0.2 -0.2)">
       <use xlink:href="#DejaVuSans-31"/>
      </g>
     </g>
    </g>
    <g id="text_6">
     <!-- Normalised Y position -->
     <g transform="translate(29.715625 298.423313)rotate(-90)scale(0.2 -0.2)">
      <defs>
       <path id="DejaVuSans-Bold-59" d="M -63 4666 
L 1253 4666 
L 2316 3003 
L 3378 4666 
L 4697 4666 
L 2919 1966 
L 2919 0 
L 1716 0 
L 1716 1966 
L -63 4666 
z
" transform="scale(0.015625)"/>
      </defs>
      <use xlink:href="#DejaVuSans-Bold-4e"/>
      <use xlink:href="#DejaVuSans-Bold-6f" x="83.691406"/>
      <use xlink:href="#DejaVuSans-Bold-72" x="152.392578"/>
      <use xlink:href="#DejaVuSans-Bold-6d" x="201.708984"/>
      <use xlink:href="#DejaVuSans-Bold-61" x="305.908203"/>
      <use xlink:href="#DejaVuSans-Bold-6c" x="373.388672"/>
      <use xlink:href="#DejaVuSans-Bold-69" x="407.666016"/>
      <use xlink:href="#DejaVuSans-Bold-73" x="441.943359"/>
      <use xlink:href="#DejaVuSans-Bold-65" x="501.464844"/>
      <use xlink:href="#DejaVuSans-Bold-64" x="569.287109"/>
      <use xlink:href="#DejaVuSans-Bold-20" x="640.869141"/>
      <use xlink:href="#DejaVuSans-Bold-59" x="675.683594"/>
      <use xlink:href="#DejaVuSans-Bold-20" x="748.095703"/>
      <use xlink:href="#DejaVuSans-Bold-70" x="782.910156"/>
      <use xlink:href="#DejaVuSans-Bold-6f" x="854.492188"/>
      <use xlink:href="#DejaVuSans-Bold-73" x="923.193359"/>
      <use xlink:href="#DejaVuSans-Bold-69" x="982.714844"/>
      <use xlink:href="#DejaVuSans-Bold-74" x="1016.992188"/>
      <use xlink:href="#DejaVuSans-Bold-69" x="1064.794922"/>
      <use xlink:href="#DejaVuSans-Bold-6f" x="1099.072266"/>
      <use xlink:href="#DejaVuSans-Bold-6e" x="1167.773438"/>
     </g>
    </g>
   </g>
   <g id="line2d_5">
    <path d="M 96.801026 141.367259 
L 98.597178 137.826966 
L 101.650637 133.578615 
L 105.961403 129.566283 
L 109.194478 125.317932 
L 111.34986 121.06958 
L 115.481011 118.001327 
L 118.714085 115.169093 
L 120.151007 113.280937 
L 121.049083 112.572878 
L 121.049083 112.572878 
L 123.743312 111.39278 
L 128.233693 111.39278 
L 128.592923 111.86482 
L 129.131769 112.808898 
L 128.592923 114.697054 
L 128.772539 116.821229 
L 125.71908 118.945405 
L 125.71908 121.54162 
L 128.413308 123.901815 
L 129.311384 126.26201 
L 130.029845 128.622205 
L 130.029845 130.74638 
L 131.646382 132.870556 
L 135.418303 137.590946 
L 135.238687 138.535024 
L 135.238687 139.479102 
L 135.597918 140.42318 
L 134.520226 141.839298 
L 134.160996 142.547356 
L 134.160996 143.255415 
L 132.544459 144.435512 
L 130.927922 145.37959 
L 130.927922 146.795707 
L 131.287152 149.863961 
L 129.491 151.516098 
L 127.515232 154.112312 
L 124.461773 157.416585 
L 122.126775 159.77678 
L 114.942165 162.372995 
L 113.146013 163.789112 
L 110.272169 164.025132 
L 104.524481 164.261151 
L 103.087559 163.553093 
L 98.597178 163.553093 
L 93.029106 163.317073 
L 90.514493 164.025132 
L 86.203727 164.025132 
L 81.892961 166.385327 
L 80.81527 167.329405 
L 77.582195 169.92562 
L 72.552969 174.64601 
L 72.552969 178.658341 
L 74.169506 180.074459 
L 76.684119 181.490576 
L 77.222965 181.254556 
L 74.887967 179.838439 
L 72.552969 179.13038 
L 72.552969 175.118049 
L 72.912199 176.062127 
L 73.091814 177.478244 
L 75.067582 179.838439 
L 84.766805 185.974946 
L 89.616416 189.751259 
L 95.364104 193.055532 
L 100.932177 196.123785 
L 104.344866 199.664078 
L 107.937171 202.496312 
L 111.709091 205.328546 
L 111.888706 208.16078 
L 111.709091 210.756995 
L 110.811015 213.589229 
L 110.272169 216.421463 
L 110.631399 219.253698 
L 110.451784 222.557971 
L 110.451784 225.626224 
L 110.272169 228.694478 
L 109.912939 231.762732 
L 109.733323 234.594966 
L 110.272169 237.19118 
L 109.912939 239.315356 
L 110.092554 241.203512 
L 110.092554 242.619629 
L 110.811015 243.327688 
L 111.709091 243.091668 
L 111.888706 243.327688 
L 112.966398 241.911571 
L 113.505243 242.14759 
L 114.044089 242.855649 
L 114.942165 243.327688 
L 115.660626 243.563707 
L 116.199472 244.271766 
L 117.097548 244.979824 
L 118.53447 245.451863 
L 120.869468 246.631961 
L 122.665621 247.34002 
L 128.413308 248.992156 
L 128.772539 248.756137 
L 128.233693 248.992156 
L 126.976386 249.464195 
L 124.282158 251.116332 
L 121.228699 252.296429 
L 117.995624 254.184585 
L 114.582935 256.308761 
L 108.296401 261.73721 
L 105.242942 268.109737 
L 101.650637 270.233912 
L 101.291407 274.246244 
L 100.752561 278.258576 
L 100.932177 282.270907 
L 98.417563 285.103141 
L 99.495255 289.351493 
L 98.776794 292.183727 
L 98.417563 295.25198 
L 99.854485 295.488 
L 137.753301 295.488 
L 147.632139 294.307902 
L 156.25367 292.655766 
L 157.870207 291.947707 
L 165.593663 289.115473 
L 170.084044 286.04722 
L 171.520966 284.867122 
L 175.652116 282.506927 
L 178.705575 279.674693 
L 181.759034 277.078478 
L 184.812493 274.246244 
L 187.147492 271.41401 
L 188.943644 268.345756 
L 191.637873 265.513522 
L 193.074794 262.209249 
L 194.152486 258.904976 
L 197.205945 255.364683 
L 199.361328 252.06041 
L 202.055556 248.756137 
L 204.031324 244.979824 
L 206.725553 241.203512 
L 208.70132 237.19118 
L 212.11401 232.47079 
L 214.089777 228.222439 
L 217.682082 219.253698 
L 219.298619 214.533307 
L 221.274387 209.340878 
L 222.172463 204.620488 
L 224.507461 194.943688 
L 224.327846 190.223298 
L 225.046307 185.738927 
L 223.609385 181.490576 
L 218.580158 170.397659 
L 218.939389 167.801444 
L 217.682082 165.677268 
L 216.604391 164.261151 
L 216.065545 164.025132 
L 214.449008 164.261151 
L 213.730547 164.497171 
L 213.012086 165.205229 
L 212.293625 166.621346 
L 206.545937 169.217561 
L 203.133248 171.341737 
L 201.875941 172.285815 
L 199.540943 173.229893 
L 199.002097 174.173971 
L 198.822482 175.118049 
L 199.181713 176.062127 
L 199.900174 177.006205 
L 201.15748 177.714263 
L 201.516711 178.658341 
L 201.875941 180.782517 
L 202.414787 181.962615 
L 202.414787 182.906693 
L 201.337095 185.266888 
L 199.720558 186.446985 
L 198.642867 187.391063 
L 197.02633 188.099122 
L 195.409793 189.0432 
L 193.61364 190.223298 
L 191.458257 191.167376 
L 188.584413 192.583493 
L 187.147492 193.527571 
L 182.657111 194.943688 
L 180.860958 195.887766 
L 178.705575 196.595824 
L 175.472501 198.247961 
L 173.317118 198.95602 
L 171.520966 199.428059 
L 170.622889 200.136117 
L 170.263659 200.608156 
L 170.263659 201.316215 
L 170.802505 201.788254 
L 171.700581 202.024273 
L 172.598657 202.496312 
L 176.011347 203.44039 
L 177.448269 203.912429 
L 180.860958 204.384468 
L 186.608646 205.564566 
L 191.458257 206.508644 
L 193.434025 206.980683 
L 195.409793 207.216702 
L 197.565175 207.688741 
L 199.900174 207.688741 
L 202.414787 207.924761 
L 209.779012 207.924761 
L 221.454002 207.216702 
L 225.585153 207.216702 
L 225.585153 207.216702 
" clip-path="url(#p72a89f9a70)" style="fill: none; stroke: #000000; stroke-width: 1.5; stroke-linecap: square"/>
   </g>
   <g id="line2d_6">
    <path d="M 96.801026 141.367259 
" clip-path="url(#p72a89f9a70)" style="fill: none; stroke: #000000; stroke-width: 1.5; stroke-linecap: square"/>
    <defs>
     <path id="mcd22cdce22" d="M 0 5 
C 1.326016 5 2.597899 4.473168 3.535534 3.535534 
C 4.473168 2.597899 5 1.326016 5 0 
C 5 -1.326016 4.473168 -2.597899 3.535534 -3.535534 
C 2.597899 -4.473168 1.326016 -5 0 -5 
C -1.326016 -5 -2.597899 -4.473168 -3.535534 -3.535534 
C -4.473168 -2.597899 -5 -1.326016 -5 0 
C -5 1.326016 -4.473168 2.597899 -3.535534 3.535534 
C -2.597899 4.473168 -1.326016 5 0 5 
z
" style="stroke: #000000"/>
    </defs>
    <g clip-path="url(#p72a89f9a70)">
     <use xlink:href="#mcd22cdce22" x="96.801026" y="141.367259" style="stroke: #000000"/>
    </g>
   </g>
   <g id="line2d_7">
    <path d="M 225.585153 207.216702 
" clip-path="url(#p72a89f9a70)" style="fill: none; stroke: #000000; stroke-width: 1.5; stroke-linecap: square"/>
    <defs>
     <path id="m71f60681b2" d="M -5 5 
L 5 5 
L 5 -5 
L -5 -5 
z
" style="stroke: #000000; stroke-linejoin: miter"/>
    </defs>
    <g clip-path="url(#p72a89f9a70)">
     <use xlink:href="#m71f60681b2" x="225.585153" y="207.216702" style="stroke: #000000; stroke-linejoin: miter"/>
    </g>
   </g>
   <g id="line2d_8">
    <path d="M 198.283636 208.868839 
L 199.181713 210.048937 
L 199.900174 211.229034 
L 200.79825 212.173112 
L 202.055556 215.241366 
L 200.79825 218.545639 
L 198.283636 222.321951 
L 195.230177 225.862244 
L 193.972871 227.51438 
L 193.074794 228.458459 
L 190.919412 231.290693 
L 190.919412 231.998751 
L 192.356333 231.998751 
L 192.356333 232.70681 
L 192.895179 233.178849 
L 194.152486 233.650888 
L 196.128253 233.650888 
L 198.104021 233.414868 
L 200.79825 232.942829 
L 205.109015 231.998751 
L 210.317857 231.290693 
L 213.191701 231.526712 
L 219.298619 233.414868 
L 221.992848 235.067005 
L 228.279381 237.899239 
L 228.818227 240.967493 
L 229.536688 246.395941 
L 224.327846 251.116332 
L 226.483229 257.488859 
L 225.046307 261.73721 
L 225.405538 266.69362 
L 226.303614 270.941971 
L 228.099766 274.954302 
L 229.177458 278.730615 
L 231.153225 282.034888 
L 234.027069 284.867122 
L 236.362067 286.519259 
L 238.337835 288.171395 
L 241.570909 288.879454 
L 243.187446 288.879454 
L 245.163214 288.171395 
L 248.935134 287.463337 
L 253.60513 285.8112 
L 255.042052 282.978966 
L 256.478974 279.674693 
L 257.37705 275.426341 
L 256.838204 270.941971 
L 254.682822 266.22158 
L 251.449747 261.73721 
L 248.755519 259.377015 
L 245.70206 257.252839 
L 238.337835 253.240507 
L 230.614379 250.644293 
L 222.172463 249.464195 
L 214.808238 249.464195 
L 209.779012 251.352351 
L 204.210939 253.004488 
L 199.540943 253.712546 
L 196.667099 253.476527 
L 196.667099 252.296429 
L 198.283636 250.408273 
L 201.516711 247.812059 
L 205.109015 245.451863 
L 210.138242 242.38361 
L 223.42977 235.303024 
L 230.793995 231.526712 
L 237.619374 227.7504 
L 248.037058 223.03001 
L 258.634357 215.477385 
L 264.202429 212.409132 
L 269.411271 210.048937 
L 276.955111 208.16078 
L 284.498951 208.16078 
L 291.503946 209.340878 
L 298.688555 210.284956 
L 306.771241 211.701073 
L 307.310087 211.465054 
L 307.310087 210.756995 
L 307.130472 209.812917 
L 307.848932 208.3968 
L 308.208163 206.744663 
L 308.747009 204.856507 
L 307.669317 202.732332 
L 305.873165 200.844176 
L 304.975089 199.192039 
L 303.897397 198.011941 
L 302.819706 198.247961 
L 301.562399 197.775922 
L 300.305092 198.011941 
L 300.484708 198.247961 
L 302.101245 198.72 
L 302.640091 199.428059 
L 302.819706 200.372137 
L 304.795473 202.968351 
L 305.69355 204.620488 
L 305.873165 206.744663 
L 306.771241 208.868839 
L 308.387778 211.229034 
L 309.645085 214.297288 
L 311.441237 216.893502 
L 314.135466 222.557971 
L 314.135466 225.626224 
L 315.572388 227.7504 
L 317.727771 230.582634 
L 320.78123 233.178849 
L 324.193919 235.775063 
L 333.174681 240.023415 
L 336.946601 241.675551 
L 341.975828 243.091668 
L 344.849672 244.979824 
L 342.873904 249.936234 
L 350.058514 248.756137 
L 355.626586 250.644293 
L 360.476198 250.644293 
L 363.350041 250.408273 
L 364.786963 249.700215 
L 367.301577 248.048078 
L 368.558883 246.86798 
L 369.81619 245.215844 
L 371.612343 241.911571 
L 371.073497 240.495454 
L 369.81619 238.371278 
L 369.097729 236.247102 
L 366.942346 234.358946 
L 365.325809 231.998751 
L 363.529657 229.638556 
L 362.811196 227.042341 
L 361.733504 224.210107 
L 361.374274 221.613893 
L 362.092735 218.545639 
L 363.350041 215.713405 
L 364.068502 213.11719 
L 364.786963 210.993015 
L 364.966579 209.104859 
L 364.248118 207.452722 
L 362.451965 205.800585 
L 361.374274 203.912429 
L 357.961584 200.372137 
L 357.602354 198.48398 
L 357.602354 196.831844 
L 358.320815 193.291551 
L 358.320815 191.639415 
L 357.602354 190.223298 
L 356.883893 188.335141 
L 355.446971 186.683005 
L 355.446971 186.683005 
" clip-path="url(#p72a89f9a70)" style="fill: none; stroke: #ffa07a; stroke-width: 1.5; stroke-linecap: square"/>
   </g>
   <g id="line2d_9">
    <path d="M 198.283636 208.868839 
" clip-path="url(#p72a89f9a70)" style="fill: none; stroke: #ffa07a; stroke-width: 1.5; stroke-linecap: square"/>
    <defs>
     <path id="m23e7f96b44" d="M 0 5 
C 1.326016 5 2.597899 4.473168 3.535534 3.535534 
C 4.473168 2.597899 5 1.326016 5 0 
C 5 -1.326016 4.473168 -2.597899 3.535534 -3.535534 
C 2.597899 -4.473168 1.326016 -5 0 -5 
C -1.326016 -5 -2.597899 -4.473168 -3.535534 -3.535534 
C -4.473168 -2.597899 -5 -1.326016 -5 0 
C -5 1.326016 -4.473168 2.597899 -3.535534 3.535534 
C -2.597899 4.473168 -1.326016 5 0 5 
z
" style="stroke: #ffa07a"/>
    </defs>
    <g clip-path="url(#p72a89f9a70)">
     <use xlink:href="#m23e7f96b44" x="198.283636" y="208.868839" style="fill: #ffa07a; stroke: #ffa07a"/>
    </g>
   </g>
   <g id="line2d_10">
    <path d="M 355.446971 186.683005 
" clip-path="url(#p72a89f9a70)" style="fill: none; stroke: #ffa07a; stroke-width: 1.5; stroke-linecap: square"/>
    <defs>
     <path id="m3bd51a4c9b" d="M -5 5 
L 5 5 
L 5 -5 
L -5 -5 
z
" style="stroke: #ffa07a; stroke-linejoin: miter"/>
    </defs>
    <g clip-path="url(#p72a89f9a70)">
     <use xlink:href="#m3bd51a4c9b" x="355.446971" y="186.683005" style="fill: #ffa07a; stroke: #ffa07a; stroke-linejoin: miter"/>
    </g>
   </g>
   <g id="line2d_11">
    <path d="M 174.215194 271.41401 
L 175.652116 269.761873 
L 176.011347 268.345756 
L 177.448269 266.69362 
L 177.987114 265.041483 
L 177.807499 262.917307 
L 178.52596 260.793132 
L 181.399804 256.54478 
L 182.836726 251.588371 
L 184.453263 249.464195 
L 185.530954 247.104 
L 186.249415 245.215844 
L 187.865952 242.855649 
L 187.865952 242.855649 
L 187.147492 243.327688 
L 185.71057 244.507785 
L 183.016341 246.395941 
L 180.322112 248.520117 
L 174.933655 250.880312 
L 170.98212 253.712546 
L 167.030585 259.613034 
L 165.054817 262.209249 
L 162.899434 266.22158 
L 162.540204 268.109737 
L 162.540204 269.997893 
L 163.079049 271.650029 
L 163.977126 273.302166 
L 165.234432 274.718283 
L 166.850969 276.1344 
L 172.598657 279.438673 
L 175.652116 280.85479 
L 177.627884 281.798868 
L 178.705575 282.270907 
L 180.322112 282.742946 
L 182.118265 282.978966 
L 183.734802 283.687024 
L 185.890185 284.159063 
L 187.865952 284.867122 
L 190.560181 285.339161 
L 195.948638 286.755278 
L 207.264398 289.115473 
L 209.599396 289.115473 
L 211.754779 288.643434 
L 214.089777 287.935376 
L 217.322852 286.519259 
L 220.196696 284.631102 
L 224.327846 282.270907 
L 228.279381 279.674693 
L 232.051301 276.842459 
L 236.362067 273.774205 
L 240.493218 270.469932 
L 244.803983 267.165659 
L 250.910902 263.153327 
L 258.275126 256.7808 
L 264.382045 250.644293 
L 264.382045 248.992156 
L 263.663584 248.048078 
L 262.406277 247.34002 
L 260.969355 246.86798 
L 260.430509 245.923902 
L 259.352818 244.979824 
L 258.993587 243.799727 
L 257.915896 241.203512 
L 257.197435 238.607298 
L 259.712048 236.719141 
L 260.78974 233.178849 
L 263.843199 230.582634 
L 265.998582 226.334283 
L 273.183191 219.489717 
L 280.188186 211.229034 
L 286.833949 202.024273 
L 290.785485 197.539902 
L 294.198174 193.291551 
L 297.610864 189.751259 
L 301.382784 186.919024 
L 307.669317 181.490576 
L 310.722776 179.13038 
L 313.23739 177.006205 
L 315.931618 175.590088 
L 317.36854 174.173971 
L 318.446232 173.701932 
L 319.164693 173.229893 
L 317.907386 171.577756 
L 319.523923 172.049795 
L 318.985077 171.577756 
L 320.78123 172.521834 
L 321.320075 173.229893 
L 323.116228 174.882029 
L 322.936613 175.826107 
L 323.116228 177.242224 
L 323.475458 178.658341 
L 324.014304 180.074459 
L 322.577382 183.142712 
L 321.679306 184.558829 
L 320.421999 186.210966 
L 319.344308 187.863102 
L 318.087001 189.27922 
L 317.188925 192.583493 
L 317.36854 193.527571 
L 317.727771 194.235629 
L 318.266616 194.707668 
L 319.344308 195.179707 
L 320.601614 195.415727 
L 322.397767 195.887766 
L 327.965839 195.887766 
L 331.558144 196.123785 
L 331.558144 196.123785 
" clip-path="url(#p72a89f9a70)" style="fill: none; stroke: #0000ff; stroke-width: 1.5; stroke-linecap: square"/>
   </g>
   <g id="line2d_12">
    <path d="M 174.215194 271.41401 
" clip-path="url(#p72a89f9a70)" style="fill: none; stroke: #0000ff; stroke-width: 1.5; stroke-linecap: square"/>
    <defs>
     <path id="m4425fffd25" d="M 0 5 
C 1.326016 5 2.597899 4.473168 3.535534 3.535534 
C 4.473168 2.597899 5 1.326016 5 0 
C 5 -1.326016 4.473168 -2.597899 3.535534 -3.535534 
C 2.597899 -4.473168 1.326016 -5 0 -5 
C -1.326016 -5 -2.597899 -4.473168 -3.535534 -3.535534 
C -4.473168 -2.597899 -5 -1.326016 -5 0 
C -5 1.326016 -4.473168 2.597899 -3.535534 3.535534 
C -2.597899 4.473168 -1.326016 5 0 5 
z
" style="stroke: #0000ff"/>
    </defs>
    <g clip-path="url(#p72a89f9a70)">
     <use xlink:href="#m4425fffd25" x="174.215194" y="271.41401" style="fill: #0000ff; stroke: #0000ff"/>
    </g>
   </g>
   <g id="line2d_13">
    <path d="M 331.558144 196.123785 
" clip-path="url(#p72a89f9a70)" style="fill: none; stroke: #0000ff; stroke-width: 1.5; stroke-linecap: square"/>
    <defs>
     <path id="macb3deb4bb" d="M -5 5 
L 5 5 
L 5 -5 
L -5 -5 
z
" style="stroke: #0000ff; stroke-linejoin: miter"/>
    </defs>
    <g clip-path="url(#p72a89f9a70)">
     <use xlink:href="#macb3deb4bb" x="331.558144" y="196.123785" style="fill: #0000ff; stroke: #0000ff; stroke-linejoin: miter"/>
    </g>
   </g>
   <g id="line2d_14">
    <path d="M 139.369838 209.340878 
L 139.190223 209.104859 
L 139.190223 208.868839 
L 139.010607 208.63282 
L 139.010607 208.3968 
L 139.729068 208.3968 
L 140.088299 208.63282 
L 140.986375 208.868839 
L 142.064066 209.340878 
L 143.141758 210.756995 
L 143.500988 211.701073 
L 143.321373 212.645151 
L 142.423297 214.533307 
L 142.962143 215.477385 
L 142.782527 216.185444 
L 143.141758 216.657483 
L 144.219449 216.893502 
L 145.117525 216.893502 
L 146.374832 216.421463 
L 147.452524 215.713405 
L 152.840981 212.645151 
L 156.792516 210.284956 
L 165.593663 204.384468 
L 171.700581 201.080195 
L 183.375571 194.943688 
L 189.123259 191.639415 
L 206.186707 183.142712 
L 211.215934 181.254556 
L 215.88593 179.838439 
L 219.119004 178.658341 
L 223.250155 177.714263 
L 225.046307 175.826107 
L 224.866692 176.298146 
L 223.250155 175.826107 
L 221.813233 175.826107 
L 220.196696 176.298146 
L 220.01708 175.826107 
L 221.454002 175.590088 
L 223.070539 174.64601 
L 224.507461 172.757854 
L 225.405538 172.521834 
L 227.56092 171.813776 
L 229.895919 170.397659 
L 232.051301 168.509502 
L 234.925145 164.497171 
L 235.823221 163.789112 
L 237.439759 160.0128 
L 239.954372 155.29241 
L 240.493218 152.224156 
L 241.750524 146.559688 
L 244.265138 142.783376 
L 246.959366 138.299005 
L 249.653595 132.162498 
L 253.964361 128.150166 
L 255.221667 127.206088 
L 262.765507 120.597541 
L 263.663584 118.709385 
L 266.178197 116.58521 
L 269.052041 115.169093 
L 270.488963 113.044917 
L 271.387039 113.044917 
L 272.1055 112.336859 
L 271.925885 112.336859 
L 271.746269 112.100839 
L 271.027808 112.100839 
L 270.848193 111.39278 
L 270.848193 108.796566 
L 272.1055 107.852488 
L 272.1055 105.728312 
L 272.823961 101.243941 
L 274.440498 97.23161 
L 277.314342 94.163356 
L 281.265877 91.331122 
L 285.217412 87.55481 
L 289.528178 80.002185 
L 294.198174 73.629659 
L 296.173942 72.213541 
L 299.227401 65.132956 
L 302.460475 59.940527 
L 303.897397 55.928195 
L 305.69355 53.568 
L 308.926624 53.568 
L 310.004315 54.040039 
L 311.261622 54.748098 
L 313.59662 55.456156 
L 314.674312 56.164215 
L 315.033542 57.816351 
L 316.470464 58.996449 
L 316.829694 59.704507 
L 318.985077 62.064702 
L 320.242384 63.00878 
L 320.960845 63.716839 
L 326.169687 64.660917 
L 335.509679 63.716839 
L 341.436982 63.2448 
L 344.490441 63.2448 
L 347.18467 63.48082 
L 350.776975 63.48082 
L 352.752742 63.952859 
L 353.650819 64.424898 
L 352.752742 66.077034 
L 351.854666 67.021112 
L 350.238129 68.20121 
L 344.670057 71.033444 
L 336.587371 74.101698 
L 334.611603 75.045776 
L 327.786224 79.530146 
L 324.014304 82.36238 
L 319.164693 85.666654 
L 311.800468 90.387044 
L 307.669317 92.51122 
L 300.484708 96.523551 
L 297.251633 97.939668 
L 294.73702 99.355785 
L 288.450487 102.18802 
L 288.091256 102.18802 
L 287.911641 102.424039 
L 288.989332 102.424039 
L 290.067024 101.71598 
L 292.042791 101.243941 
L 301.92163 99.355785 
L 306.591626 98.883746 
L 314.494696 97.23161 
L 318.985077 95.815493 
L 318.985077 95.815493 
" clip-path="url(#p72a89f9a70)" style="fill: none; stroke: #008000; stroke-width: 1.5; stroke-linecap: square"/>
   </g>
   <g id="line2d_15">
    <path d="M 139.369838 209.340878 
" clip-path="url(#p72a89f9a70)" style="fill: none; stroke: #008000; stroke-width: 1.5; stroke-linecap: square"/>
    <defs>
     <path id="mb2e1fd2824" d="M 0 5 
C 1.326016 5 2.597899 4.473168 3.535534 3.535534 
C 4.473168 2.597899 5 1.326016 5 0 
C 5 -1.326016 4.473168 -2.597899 3.535534 -3.535534 
C 2.597899 -4.473168 1.326016 -5 0 -5 
C -1.326016 -5 -2.597899 -4.473168 -3.535534 -3.535534 
C -4.473168 -2.597899 -5 -1.326016 -5 0 
C -5 1.326016 -4.473168 2.597899 -3.535534 3.535534 
C -2.597899 4.473168 -1.326016 5 0 5 
z
" style="stroke: #008000"/>
    </defs>
    <g clip-path="url(#p72a89f9a70)">
     <use xlink:href="#mb2e1fd2824" x="139.369838" y="209.340878" style="fill: #008000; stroke: #008000"/>
    </g>
   </g>
   <g id="line2d_16">
    <path d="M 318.985077 95.815493 
" clip-path="url(#p72a89f9a70)" style="fill: none; stroke: #008000; stroke-width: 1.5; stroke-linecap: square"/>
    <defs>
     <path id="m4c0aa6d264" d="M -5 5 
L 5 5 
L 5 -5 
L -5 -5 
z
" style="stroke: #008000; stroke-linejoin: miter"/>
    </defs>
    <g clip-path="url(#p72a89f9a70)">
     <use xlink:href="#m4c0aa6d264" x="318.985077" y="95.815493" style="fill: #008000; stroke: #008000; stroke-linejoin: miter"/>
    </g>
   </g>
   <g id="line2d_17">
    <path d="M 100.213716 254.420605 
L 100.213716 254.184585 
L 101.111792 253.712546 
L 102.728329 254.184585 
L 104.883712 254.184585 
L 106.320634 253.948566 
L 108.476017 253.948566 
L 110.092554 253.712546 
L 111.529476 252.768468 
L 113.505243 251.82439 
L 114.942165 250.880312 
L 116.199472 249.464195 
L 117.277163 248.284098 
L 118.17524 246.631961 
L 119.432546 245.215844 
L 121.049083 244.271766 
L 122.126775 242.855649 
L 123.384081 241.675551 
L 125.180234 240.731473 
L 126.257925 240.023415 
L 128.413308 239.315356 
L 130.209461 238.607298 
L 132.005613 238.135259 
L 133.801765 237.66322 
L 136.316379 236.483122 
L 139.549453 235.303024 
L 142.962143 233.414868 
L 147.272908 230.818654 
L 152.840981 227.278361 
L 160.02559 222.557971 
L 169.904429 215.005346 
L 176.011347 208.868839 
L 183.734802 200.844176 
L 190.919412 192.347473 
L 198.283636 183.378732 
L 205.468246 174.40999 
L 212.11401 166.149307 
L 218.220928 158.596683 
L 223.070539 151.752117 
L 227.381305 143.963473 
L 230.075534 137.590946 
L 231.512456 132.870556 
L 230.97361 128.858224 
L 230.793995 126.498029 
L 231.153225 125.317932 
L 232.590147 124.609873 
L 234.925145 123.665795 
L 238.337835 122.013659 
L 241.750524 120.833561 
L 244.983599 119.417444 
L 250.910902 118.473366 
L 253.066284 118.237346 
L 258.634357 119.417444 
L 260.071279 120.597541 
L 262.406277 123.193756 
L 264.022814 126.02599 
L 263.663584 129.094244 
L 263.124738 132.398517 
L 262.047046 135.93881 
L 260.610124 139.007063 
L 259.352818 141.839298 
L 258.813972 144.671532 
L 259.891664 146.795707 
L 262.226662 148.447844 
L 266.357812 149.391922 
L 270.488963 149.863961 
L 275.338574 150.09998 
L 278.930879 149.863961 
L 282.343568 149.627941 
L 286.833949 148.447844 
" clip-path="url(#p72a89f9a70)" style="fill: none; stroke: #ffd700; stroke-width: 1.5; stroke-linecap: square"/>
   </g>
   <g id="line2d_18">
    <path d="M 100.213716 254.420605 
" clip-path="url(#p72a89f9a70)" style="fill: none; stroke: #ffd700; stroke-width: 1.5; stroke-linecap: square"/>
    <defs>
     <path id="mabee4c23a7" d="M 0 5 
C 1.326016 5 2.597899 4.473168 3.535534 3.535534 
C 4.473168 2.597899 5 1.326016 5 0 
C 5 -1.326016 4.473168 -2.597899 3.535534 -3.535534 
C 2.597899 -4.473168 1.326016 -5 0 -5 
C -1.326016 -5 -2.597899 -4.473168 -3.535534 -3.535534 
C -4.473168 -2.597899 -5 -1.326016 -5 0 
C -5 1.326016 -4.473168 2.597899 -3.535534 3.535534 
C -2.597899 4.473168 -1.326016 5 0 5 
z
" style="stroke: #ffd700"/>
    </defs>
    <g clip-path="url(#p72a89f9a70)">
     <use xlink:href="#mabee4c23a7" x="100.213716" y="254.420605" style="fill: #ffd700; stroke: #ffd700"/>
    </g>
   </g>
   <g id="line2d_19">
    <path d="M 286.833949 148.447844 
" clip-path="url(#p72a89f9a70)" style="fill: none; stroke: #ffd700; stroke-width: 1.5; stroke-linecap: square"/>
    <defs>
     <path id="m1ae0556fa8" d="M -5 5 
L 5 5 
L 5 -5 
L -5 -5 
z
" style="stroke: #ffd700; stroke-linejoin: miter"/>
    </defs>
    <g clip-path="url(#p72a89f9a70)">
     <use xlink:href="#m1ae0556fa8" x="286.833949" y="148.447844" style="fill: #ffd700; stroke: #ffd700; stroke-linejoin: miter"/>
    </g>
   </g>
   <g id="line2d_20">
    <path d="M 154.816748 198.72 
L 154.816748 198.72 
L 154.996364 198.95602 
L 154.996364 199.192039 
L 155.355594 199.192039 
L 155.714825 199.192039 
L 156.074055 199.192039 
L 156.612901 199.192039 
L 156.972131 199.192039 
L 157.151747 199.192039 
L 157.331362 199.428059 
L 157.331362 199.664078 
L 157.331362 199.664078 
L 157.331362 199.900098 
L 157.510977 200.136117 
L 157.510977 200.372137 
L 157.151747 200.608156 
L 156.972131 200.608156 
L 156.972131 200.608156 
L 156.792516 200.372137 
L 157.331362 199.428059 
L 158.409053 198.011941 
L 160.744051 195.651746 
L 164.156741 192.819512 
L 169.006352 189.515239 
L 174.75404 185.502907 
L 181.220189 181.254556 
L 186.967876 177.478244 
L 192.176718 173.937951 
L 196.128253 171.105717 
L 199.900174 168.745522 
L 202.055556 167.093385 
L 203.312863 165.913288 
L 204.9294 164.96921 
L 204.749785 165.205229 
L 203.133248 166.385327 
L 201.516711 167.801444 
L 199.720558 168.273483 
L 197.565175 169.92562 
L 194.152486 171.105717 
L 190.919412 172.757854 
L 188.404798 174.64601 
L 187.686337 176.534166 
L 188.225183 178.186302 
L 188.943644 179.13038 
L 190.200951 179.838439 
L 191.817488 179.838439 
L 193.074794 179.60242 
L 193.61364 179.60242 
L 194.691332 178.658341 
L 194.152486 177.950283 
L 194.152486 177.478244 
L 193.61364 177.006205 
L 192.176718 176.298146 
L 191.099027 175.826107 
L 190.739796 175.590088 
L 190.560181 174.882029 
L 190.739796 174.173971 
L 191.637873 173.229893 
L 193.434025 171.813776 
L 195.769023 170.161639 
L 199.540943 167.801444 
L 203.133248 165.677268 
L 206.366322 163.317073 
L 210.317857 161.192898 
L 213.550932 159.068722 
L 217.143237 157.180566 
L 219.837465 155.764449 
L 223.250155 154.584351 
L 226.123998 153.640273 
L 228.818227 152.932215 
L 230.97361 152.932215 
L 232.051301 153.640273 
L 232.230917 154.820371 
L 232.230917 155.528429 
L 232.051301 156.944546 
L 231.871686 158.124644 
L 231.692071 159.304741 
L 231.512456 160.720859 
L 231.692071 161.428917 
L 231.692071 162.136976 
L 232.230917 162.136976 
L 233.667839 162.136976 
L 235.10476 161.900956 
L 236.541682 161.900956 
L 237.439759 161.192898 
L 238.51745 160.956878 
L 239.415526 160.24882 
L 240.313602 160.24882 
L 241.032063 159.77678 
L 241.211679 159.77678 
L 241.570909 159.304741 
L 241.93014 158.832702 
L 242.109755 158.360663 
L 242.109755 157.888624 
L 241.750524 157.180566 
L 241.211679 156.472507 
L 239.954372 156.000468 
L 239.595141 154.820371 
L 239.235911 153.404254 
L 240.133987 151.516098 
L 241.750524 149.391922 
L 243.367061 147.031727 
" clip-path="url(#p72a89f9a70)" style="fill: none; stroke: #800080; stroke-width: 1.5; stroke-linecap: square"/>
   </g>
   <g id="line2d_21">
    <path d="M 154.816748 198.72 
" clip-path="url(#p72a89f9a70)" style="fill: none; stroke: #800080; stroke-width: 1.5; stroke-linecap: square"/>
    <defs>
     <path id="m564121ccb2" d="M 0 5 
C 1.326016 5 2.597899 4.473168 3.535534 3.535534 
C 4.473168 2.597899 5 1.326016 5 0 
C 5 -1.326016 4.473168 -2.597899 3.535534 -3.535534 
C 2.597899 -4.473168 1.326016 -5 0 -5 
C -1.326016 -5 -2.597899 -4.473168 -3.535534 -3.535534 
C -4.473168 -2.597899 -5 -1.326016 -5 0 
C -5 1.326016 -4.473168 2.597899 -3.535534 3.535534 
C -2.597899 4.473168 -1.326016 5 0 5 
z
" style="stroke: #800080"/>
    </defs>
    <g clip-path="url(#p72a89f9a70)">
     <use xlink:href="#m564121ccb2" x="154.816748" y="198.72" style="fill: #800080; stroke: #800080"/>
    </g>
   </g>
   <g id="line2d_22">
    <path d="M 243.367061 147.031727 
" clip-path="url(#p72a89f9a70)" style="fill: none; stroke: #800080; stroke-width: 1.5; stroke-linecap: square"/>
    <defs>
     <path id="mf52bcc3ec1" d="M -5 5 
L 5 5 
L 5 -5 
L -5 -5 
z
" style="stroke: #800080; stroke-linejoin: miter"/>
    </defs>
    <g clip-path="url(#p72a89f9a70)">
     <use xlink:href="#mf52bcc3ec1" x="243.367061" y="147.031727" style="fill: #800080; stroke: #800080; stroke-linejoin: miter"/>
    </g>
   </g>
   <g id="line2d_23">
    <path d="M 169.545198 198.95602 
L 169.006352 198.95602 
L 169.006352 199.192039 
L 168.826737 199.428059 
L 168.826737 199.664078 
L 168.108276 199.900098 
L 167.928661 200.136117 
L 168.108276 200.372137 
L 167.928661 200.608156 
L 168.108276 200.844176 
L 167.749046 200.844176 
L 167.56943 201.080195 
L 167.030585 201.080195 
L 166.491739 200.844176 
L 165.773278 200.372137 
L 165.593663 199.664078 
L 165.054817 198.95602 
L 164.875202 198.48398 
L 165.414048 197.775922 
L 165.952893 197.775922 
L 167.928661 197.539902 
L 172.957888 197.539902 
L 174.75404 197.539902 
L 180.142497 197.539902 
L 185.171724 197.539902 
L 190.380566 197.303883 
L 194.332101 196.595824 
L 199.720558 196.831844 
L 203.312863 197.539902 
L 206.007092 198.72 
L 208.521705 198.95602 
L 210.677088 199.664078 
L 213.371316 199.900098 
L 216.604391 199.900098 
L 220.735541 198.95602 
L 224.507461 198.011941 
L 228.279381 196.595824 
L 231.153225 195.179707 
L 233.308608 193.99961 
L 235.284376 192.819512 
L 236.002837 191.875434 
L 236.002837 191.403395 
L 236.362067 190.459317 
L 236.002837 189.751259 
L 235.823221 188.571161 
L 234.565915 188.099122 
L 233.488223 186.919024 
L 232.051301 186.210966 
L 229.536688 185.738927 
L 228.099766 185.030868 
L 225.585153 184.794849 
L 223.609385 184.558829 
L 221.274387 184.794849 
L 216.424776 185.502907 
L 213.371316 186.210966 
L 211.395549 186.683005 
L 207.803244 187.155044 
L 202.055556 188.099122 
L 197.565175 188.80718 
L 194.691332 189.0432 
L 192.895179 189.0432 
L 189.302874 189.987278 
L 186.0698 189.751259 
L 184.992109 189.515239 
L 183.016341 189.27922 
L 181.399804 188.571161 
L 179.424036 187.863102 
L 178.88519 186.683005 
L 178.52596 186.210966 
L 178.346345 184.558829 
L 178.346345 182.906693 
L 178.88519 179.838439 
L 179.603651 178.422322 
L 180.322112 175.590088 
L 182.29788 172.285815 
L 184.632878 168.745522 
L 186.788261 165.205229 
L 189.662105 161.192898 
L 192.176718 157.180566 
L 194.870947 153.168234 
L 198.822482 147.031727 
L 199.720558 144.199493 
L 201.516711 139.951141 
L 203.851709 136.646868 
L 205.827476 133.342595 
L 206.725553 130.510361 
L 208.162475 127.914146 
L 209.779012 125.553951 
L 210.677088 123.665795 
L 212.293625 121.3056 
L 213.550932 119.653463 
L 213.910162 118.001327 
L 214.089777 116.58521 
L 213.730547 115.641132 
L 212.832471 114.461034 
L 211.754779 113.280937 
L 210.856703 112.808898 
L 209.599396 112.336859 
L 206.186707 111.39278 
L 205.109015 111.156761 
L 201.875941 110.684722 
L 199.361328 110.212683 
L 195.409793 110.212683 
L 192.535949 109.504624 
L 188.404798 108.560546 
L 185.890185 108.088507 
L 184.094032 107.852488 
L 180.501728 107.144429 
L 177.627884 105.964332 
L 174.574425 105.256273 
L 171.34135 104.312195 
L 168.647122 103.840156 
L 165.054817 104.076176 
L 163.079049 103.368117 
L 160.744051 102.896078 
L 158.588668 103.132098 
L 156.074055 103.840156 
L 154.457518 104.312195 
L 151.044828 105.256273 
L 148.170985 106.436371 
L 144.039834 108.088507 
L 140.986375 109.268605 
L 137.03484 111.156761 
L 132.005613 113.280937 
L 127.156002 114.697054 
L 121.767544 116.113171 
" clip-path="url(#p72a89f9a70)" style="fill: none; stroke: #ffa500; stroke-width: 1.5; stroke-linecap: square"/>
   </g>
   <g id="line2d_24">
    <path d="M 169.545198 198.95602 
" clip-path="url(#p72a89f9a70)" style="fill: none; stroke: #ffa500; stroke-width: 1.5; stroke-linecap: square"/>
    <defs>
     <path id="m26c265bda8" d="M 0 5 
C 1.326016 5 2.597899 4.473168 3.535534 3.535534 
C 4.473168 2.597899 5 1.326016 5 0 
C 5 -1.326016 4.473168 -2.597899 3.535534 -3.535534 
C 2.597899 -4.473168 1.326016 -5 0 -5 
C -1.326016 -5 -2.597899 -4.473168 -3.535534 -3.535534 
C -4.473168 -2.597899 -5 -1.326016 -5 0 
C -5 1.326016 -4.473168 2.597899 -3.535534 3.535534 
C -2.597899 4.473168 -1.326016 5 0 5 
z
" style="stroke: #ffa500"/>
    </defs>
    <g clip-path="url(#p72a89f9a70)">
     <use xlink:href="#m26c265bda8" x="169.545198" y="198.95602" style="fill: #ffa500; stroke: #ffa500"/>
    </g>
   </g>
   <g id="line2d_25">
    <path d="M 121.767544 116.113171 
" clip-path="url(#p72a89f9a70)" style="fill: none; stroke: #ffa500; stroke-width: 1.5; stroke-linecap: square"/>
    <defs>
     <path id="m8a59a6fe82" d="M -5 5 
L 5 5 
L 5 -5 
L -5 -5 
z
" style="stroke: #ffa500; stroke-linejoin: miter"/>
    </defs>
    <g clip-path="url(#p72a89f9a70)">
     <use xlink:href="#m8a59a6fe82" x="121.767544" y="116.113171" style="fill: #ffa500; stroke: #ffa500; stroke-linejoin: miter"/>
    </g>
   </g>
   <g id="line2d_26">
    <path d="M 190.021335 201.316215 
L 190.200951 201.080195 
L 190.021335 200.844176 
L 190.200951 200.608156 
L 189.84172 200.372137 
L 189.48249 200.372137 
L 188.584413 200.372137 
L 188.225183 200.372137 
L 187.327107 200.844176 
L 186.249415 200.844176 
L 185.171724 200.844176 
L 184.273648 200.844176 
L 183.195956 201.080195 
L 182.29788 201.080195 
L 181.579419 201.316215 
L 181.040573 201.316215 
L 180.501728 201.316215 
L 180.142497 201.316215 
L 179.424036 201.080195 
L 178.705575 201.080195 
L 178.16673 200.844176 
L 177.627884 200.608156 
L 176.909423 200.372137 
L 177.089038 199.900098 
L 177.089038 198.72 
L 177.448269 197.067863 
L 178.705575 194.707668 
L 180.322112 192.111454 
L 181.93865 189.515239 
L 183.555187 186.683005 
L 184.453263 183.614751 
L 184.453263 181.962615 
L 181.399804 177.950283 
L 179.064806 175.590088 
L 175.831731 172.993873 
L 172.059811 170.397659 
L 168.108276 168.981541 
L 163.258665 167.801444 
L 159.307129 167.329405 
L 155.89444 168.037463 
L 152.840981 169.217561 
L 152.12252 171.577756 
L 152.48175 173.937951 
L 154.098287 176.534166 
L 157.510977 179.13038 
L 160.564436 181.490576 
L 164.875202 183.142712 
L 167.2102 183.850771 
L 174.035579 184.794849 
L 175.831731 185.030868 
L 179.783267 185.266888 
L 185.890185 184.558829 
L 190.021335 183.142712 
L 194.332101 181.726595 
L 199.002097 180.074459 
L 201.337095 179.13038 
L 206.366322 177.006205 
L 213.012086 173.465912 
L 216.963621 170.633678 
L 220.376311 167.565424 
L 222.890924 164.96921 
L 224.148231 163.317073 
L 225.764768 160.720859 
L 227.20169 158.596683 
L 228.279381 156.236488 
L 229.357073 153.640273 
L 229.895919 150.57202 
L 229.716303 149.863961 
L 229.536688 148.211824 
L 228.279381 146.087649 
L 226.483229 144.907551 
L 224.327846 143.491434 
L 219.837465 142.075317 
L 218.041313 141.839298 
L 213.730547 142.075317 
L 207.803244 142.075317 
L 201.875941 143.019395 
L 195.769023 144.435512 
L 189.84172 145.61561 
L 184.812493 146.795707 
L 179.424036 147.739785 
L 176.370577 148.447844 
L 170.622889 149.863961 
L 164.336356 151.752117 
L 158.049823 152.932215 
L 151.942905 154.348332 
L 143.680604 155.764449 
L 138.292146 156.472507 
L 133.801765 156.944546 
L 128.772539 157.888624 
L 126.617156 158.124644 
L 122.30639 158.596683 
" clip-path="url(#p72a89f9a70)" style="fill: none; stroke: #ff69b4; stroke-width: 1.5; stroke-linecap: square"/>
   </g>
   <g id="line2d_27">
    <path d="M 190.021335 201.316215 
" clip-path="url(#p72a89f9a70)" style="fill: none; stroke: #ff69b4; stroke-width: 1.5; stroke-linecap: square"/>
    <defs>
     <path id="m33c861aa33" d="M 0 5 
C 1.326016 5 2.597899 4.473168 3.535534 3.535534 
C 4.473168 2.597899 5 1.326016 5 0 
C 5 -1.326016 4.473168 -2.597899 3.535534 -3.535534 
C 2.597899 -4.473168 1.326016 -5 0 -5 
C -1.326016 -5 -2.597899 -4.473168 -3.535534 -3.535534 
C -4.473168 -2.597899 -5 -1.326016 -5 0 
C -5 1.326016 -4.473168 2.597899 -3.535534 3.535534 
C -2.597899 4.473168 -1.326016 5 0 5 
z
" style="stroke: #ff69b4"/>
    </defs>
    <g clip-path="url(#p72a89f9a70)">
     <use xlink:href="#m33c861aa33" x="190.021335" y="201.316215" style="fill: #ff69b4; stroke: #ff69b4"/>
    </g>
   </g>
   <g id="line2d_28">
    <path d="M 122.30639 158.596683 
" clip-path="url(#p72a89f9a70)" style="fill: none; stroke: #ff69b4; stroke-width: 1.5; stroke-linecap: square"/>
    <defs>
     <path id="mb8ac529cf0" d="M -5 5 
L 5 5 
L 5 -5 
L -5 -5 
z
" style="stroke: #ff69b4; stroke-linejoin: miter"/>
    </defs>
    <g clip-path="url(#p72a89f9a70)">
     <use xlink:href="#mb8ac529cf0" x="122.30639" y="158.596683" style="fill: #ff69b4; stroke: #ff69b4; stroke-linejoin: miter"/>
    </g>
   </g>
   <g id="line2d_29">
    <path d="M 150.326367 166.857366 
L 149.607906 167.329405 
L 149.069061 168.037463 
L 148.70983 168.509502 
L 148.3506 169.217561 
L 148.170985 169.92562 
L 148.170985 170.397659 
L 147.991369 170.869698 
L 147.991369 171.105717 
L 148.3506 171.577756 
L 149.069061 171.577756 
L 149.607906 171.813776 
L 150.146752 171.813776 
L 150.865213 171.577756 
L 151.763289 171.105717 
L 152.661366 170.161639 
L 154.277903 168.981541 
L 155.89444 167.093385 
L 158.229438 164.497171 
L 161.282897 161.664937 
L 165.234432 158.124644 
L 169.724813 153.876293 
L 174.933655 149.391922 
L 183.375571 143.255415 
L 187.506722 138.299005 
L 193.793255 132.634537 
L 198.642867 127.206088 
L 202.953633 122.013659 
L 206.545937 117.529288 
L 210.677088 113.044917 
L 214.089777 108.796566 
L 216.424776 105.256273 
L 217.502467 105.020254 
L 219.119004 104.312195 
L 219.478235 105.256273 
L 218.939389 107.144429 
L 217.322852 110.212683 
L 215.167469 114.225015 
L 213.371316 118.473366 
L 211.215934 122.249678 
L 209.240166 126.02599 
L 207.084783 129.566283 
L 205.109015 132.634537 
L 203.492478 135.466771 
L 202.055556 137.590946 
L 201.696326 139.007063 
L 202.235172 139.715122 
L 202.594402 139.715122 
L 204.031324 139.715122 
L 205.468246 139.479102 
L 207.803244 139.007063 
L 209.419781 138.299005 
L 211.934395 137.590946 
L 212.47324 137.354927 
L 214.089777 136.646868 
L 216.963621 135.230751 
L 217.682082 134.758712 
L 218.939389 134.050654 
L 220.735541 132.162498 
L 222.711309 130.274341 
L 225.405538 128.386185 
L 228.099766 125.317932 
L 231.871686 122.485698 
L 236.182452 120.361522 
L 240.493218 116.58521 
L 244.983599 114.461034 
L 249.653595 112.100839 
L 253.425515 110.212683 
L 256.658589 108.324527 
L 259.173203 106.90841 
L 261.328585 105.728312 
L 263.483968 104.548215 
L 264.56166 103.840156 
L 264.92089 103.368117 
L 265.998582 103.132098 
L 266.357812 102.660059 
L 266.357812 102.660059 
L 266.357812 102.660059 
L 266.357812 102.660059 
L 267.615119 102.660059 
L 268.513195 101.479961 
L 270.668578 100.535883 
L 274.081267 98.883746 
L 276.595881 97.939668 
L 280.367801 96.051512 
L 285.756258 94.163356 
L 290.785485 92.2752 
L 297.790479 88.734907 
L 300.484708 88.970927 
L 301.92163 89.442966 
L 303.717782 89.442966 
L 305.69355 88.734907 
L 307.489702 88.970927 
L 309.8247 88.734907 
L 311.800468 88.734907 
L 313.23739 88.734907 
L 314.674312 89.442966 
L 316.111233 89.915005 
L 317.548155 90.387044 
L 318.446232 91.095102 
L 319.523923 92.03918 
L 320.242384 93.219278 
L 320.421999 94.871415 
L 320.421999 96.287532 
L 320.421999 98.411707 
L 319.523923 100.299863 
L 318.625847 103.604137 
L 318.446232 104.548215 
L 317.907386 105.964332 
L 317.548155 107.380449 
L 317.548155 108.324527 
L 318.087001 109.032585 
L 318.625847 109.504624 
L 320.242384 109.740644 
L 321.858921 109.740644 
L 322.936613 109.976663 
L 324.55315 109.976663 
" clip-path="url(#p72a89f9a70)" style="fill: none; stroke: #00ffff; stroke-width: 1.5; stroke-linecap: square"/>
   </g>
   <g id="line2d_30">
    <path d="M 150.326367 166.857366 
" clip-path="url(#p72a89f9a70)" style="fill: none; stroke: #00ffff; stroke-width: 1.5; stroke-linecap: square"/>
    <defs>
     <path id="m1739afa908" d="M 0 5 
C 1.326016 5 2.597899 4.473168 3.535534 3.535534 
C 4.473168 2.597899 5 1.326016 5 0 
C 5 -1.326016 4.473168 -2.597899 3.535534 -3.535534 
C 2.597899 -4.473168 1.326016 -5 0 -5 
C -1.326016 -5 -2.597899 -4.473168 -3.535534 -3.535534 
C -4.473168 -2.597899 -5 -1.326016 -5 0 
C -5 1.326016 -4.473168 2.597899 -3.535534 3.535534 
C -2.597899 4.473168 -1.326016 5 0 5 
z
" style="stroke: #00ffff"/>
    </defs>
    <g clip-path="url(#p72a89f9a70)">
     <use xlink:href="#m1739afa908" x="150.326367" y="166.857366" style="fill: #00ffff; stroke: #00ffff"/>
    </g>
   </g>
   <g id="line2d_31">
    <path d="M 324.55315 109.976663 
" clip-path="url(#p72a89f9a70)" style="fill: none; stroke: #00ffff; stroke-width: 1.5; stroke-linecap: square"/>
    <defs>
     <path id="m0cb2fd7bf9" d="M -5 5 
L 5 5 
L 5 -5 
L -5 -5 
z
" style="stroke: #00ffff; stroke-linejoin: miter"/>
    </defs>
    <g clip-path="url(#p72a89f9a70)">
     <use xlink:href="#m0cb2fd7bf9" x="324.55315" y="109.976663" style="fill: #00ffff; stroke: #00ffff; stroke-linejoin: miter"/>
    </g>
   </g>
   <g id="line2d_32">
    <path d="M 72.552969 294.307902 
L 72.552969 288.643434 
L 73.091814 287.699356 
L 74.528736 287.463337 
L 76.684119 286.519259 
L 79.019117 285.8112 
L 82.431807 284.631102 
L 84.227959 281.562849 
L 86.922188 280.146732 
L 89.796032 278.494595 
L 92.849491 276.606439 
L 103.44679 272.594107 
L 107.757556 271.17799 
L 117.277163 267.873717 
L 122.486005 265.749541 
L 126.976386 262.681288 
L 131.825998 259.849054 
L 137.39407 256.072741 
L 142.423297 251.82439 
L 148.70983 247.812059 
L 160.384821 239.315356 
L 172.419042 231.290693 
L 178.346345 228.222439 
L 183.375571 225.390205 
L 187.865952 222.321951 
L 191.278642 220.669815 
L 197.02633 216.657483 
L 200.079789 214.297288 
L 204.57017 209.812917 
L 207.084783 206.980683 
L 209.958627 202.732332 
L 212.47324 197.775922 
L 213.730547 192.347473 
L 215.347084 187.155044 
L 217.322852 182.906693 
L 220.376311 179.13038 
L 223.609385 176.534166 
L 231.871686 170.869698 
L 235.643606 169.217561 
L 239.235911 166.857366 
L 242.648601 165.677268 
L 244.444753 164.261151 
L 246.420521 164.025132 
L 247.498212 163.081054 
L 248.575903 163.317073 
L 249.114749 163.553093 
L 249.47398 164.261151 
L 250.192441 164.497171 
L 252.886669 165.913288 
L 253.60513 167.093385 
L 255.042052 167.329405 
L 255.401283 167.565424 
L 255.580898 168.509502 
L 255.580898 169.217561 
L 255.760513 169.6896 
L 256.299359 169.6896 
L 255.760513 168.981541 
L 255.580898 170.161639 
L 256.119743 171.105717 
L 256.119743 173.229893 
L 256.299359 174.40999 
L 256.658589 175.354068 
L 257.556665 176.298146 
L 258.275126 178.422322 
L 258.634357 179.838439 
L 259.532433 181.962615 
L 260.610124 183.614751 
L 261.14897 185.266888 
L 260.78974 187.155044 
L 260.250894 189.0432 
L 259.891664 190.931356 
L 258.813972 194.943688 
L 258.275126 197.067863 
L 257.915896 199.192039 
L 256.119743 203.44039 
L 255.042052 205.328546 
L 253.2459 207.452722 
L 248.935134 211.229034 
L 247.138982 213.11719 
L 246.420521 214.533307 
L 246.240905 215.477385 
L 248.396288 218.0736 
L 249.653595 218.30962 
L 251.270132 218.781659 
L 253.066284 218.781659 
L 261.508201 219.961756 
L 264.92089 218.781659 
L 269.231656 218.781659 
L 273.003576 218.30962 
L 276.595881 216.893502 
L 280.367801 215.949424 
L 284.139721 214.769327 
L 288.270871 213.825249 
L 292.222407 212.173112 
L 301.382784 207.924761 
L 306.05278 205.564566 
L 310.722776 202.968351 
L 314.674312 200.608156 
L 322.218152 195.651746 
L 325.451226 193.055532 
L 329.582376 188.335141 
L 331.917375 186.210966 
L 333.713527 184.794849 
L 335.330064 184.08679 
L 336.407756 183.378732 
L 337.126217 182.670673 
L 337.665062 181.962615 
L 337.665062 181.726595 
L 336.407756 182.198634 
L 334.611603 182.670673 
L 332.995066 182.670673 
L 331.378529 181.490576 
L 330.121222 180.782517 
L 329.043531 180.546498 
L 328.145455 180.546498 
L 325.990072 181.018537 
L 325.451226 181.018537 
L 324.732765 181.254556 
L 323.655074 181.490576 
L 322.756997 181.962615 
L 320.960845 182.434654 
L 320.421999 183.142712 
L 314.315081 185.030868 
L 311.261622 185.502907 
L 308.208163 186.210966 
L 303.358551 188.099122 
L 300.664323 189.0432 
L 298.14971 190.223298 
L 291.32433 193.055532 
L 289.528178 193.527571 
L 287.19318 193.99961 
L 284.678567 194.235629 
L 277.314342 194.235629 
L 273.183191 193.99961 
L 269.231656 193.291551 
L 265.459736 192.819512 
L 261.687816 192.111454 
L 258.993587 191.167376 
L 254.143976 188.80718 
L 253.066284 187.627083 
L 250.372056 185.030868 
L 249.294364 183.378732 
L 248.755519 181.726595 
L 249.47398 180.074459 
L 250.731286 177.950283 
L 252.707054 175.826107 
L 257.197435 171.341737 
L 259.891664 168.981541 
L 266.717043 163.553093 
L 275.158959 157.888624 
L 279.64934 154.820371 
L 289.348563 149.155902 
L 294.018559 146.559688 
L 299.407016 143.963473 
L 308.387778 139.951141 
L 311.980083 138.299005 
L 314.674312 136.882888 
L 318.625847 135.230751 
L 319.703538 134.994732 
L 320.78123 135.230751 
L 321.320075 135.70279 
L 320.960845 136.646868 
L 319.703538 137.826966 
L 313.955851 142.075317 
L 311.082007 144.671532 
L 308.747009 147.503766 
L 306.591626 150.57202 
L 304.436243 153.876293 
L 302.101245 156.708527 
L 300.125477 159.77678 
L 297.790479 166.149307 
L 296.892403 169.45358 
L 295.275866 172.757854 
L 293.838944 176.534166 
L 292.940868 180.310478 
L 291.863176 184.08679 
L 290.426254 188.099122 
L 290.9651 191.639415 
L 290.426254 195.415727 
L 289.707793 198.95602 
L 288.270871 202.024273 
L 287.732026 204.856507 
L 287.732026 209.812917 
L 288.091256 211.937093 
L 288.270871 214.061268 
L 288.270871 215.949424 
L 289.168948 217.601561 
L 289.348563 219.253698 
L 289.348563 220.669815 
L 288.989332 222.321951 
L 288.270871 223.502049 
L 287.732026 224.918166 
L 287.911641 226.098263 
L 288.630102 228.694478 
L 288.630102 230.346615 
L 288.450487 232.234771 
L 290.9651 232.70681 
L 291.683561 234.122927 
L 290.426254 236.483122 
L 289.707793 238.843317 
L 289.348563 242.855649 
L 289.887409 247.576039 
L 290.246639 248.992156 
L 290.785485 250.408273 
L 290.067024 253.240507 
L 289.168948 254.656624 
L 286.474719 257.724878 
L 284.858182 259.140995 
L 283.241645 260.321093 
L 281.804723 261.73721 
L 280.00857 263.153327 
L 278.930879 264.569444 
L 275.518189 267.401678 
L 274.081267 268.345756 
L 271.925885 269.053815 
L 270.129732 269.761873 
L 267.974349 270.469932 
L 266.717043 270.705951 
L 265.639351 270.705951 
L 264.382045 270.233912 
L 264.022814 269.289834 
L 264.382045 268.109737 
L 264.741275 266.4576 
L 266.357812 262.445268 
L 267.435504 259.849054 
L 268.69281 257.252839 
L 269.770502 254.656624 
L 270.668578 251.588371 
L 271.207424 248.756137 
L 271.207424 248.756137 
" clip-path="url(#p72a89f9a70)" style="fill: none; stroke: #8a2be2; stroke-width: 1.5; stroke-linecap: square"/>
   </g>
   <g id="line2d_33">
    <path d="M 72.552969 294.307902 
" clip-path="url(#p72a89f9a70)" style="fill: none; stroke: #8a2be2; stroke-width: 1.5; stroke-linecap: square"/>
    <defs>
     <path id="mdb252c9150" d="M 0 5 
C 1.326016 5 2.597899 4.473168 3.535534 3.535534 
C 4.473168 2.597899 5 1.326016 5 0 
C 5 -1.326016 4.473168 -2.597899 3.535534 -3.535534 
C 2.597899 -4.473168 1.326016 -5 0 -5 
C -1.326016 -5 -2.597899 -4.473168 -3.535534 -3.535534 
C -4.473168 -2.597899 -5 -1.326016 -5 0 
C -5 1.326016 -4.473168 2.597899 -3.535534 3.535534 
C -2.597899 4.473168 -1.326016 5 0 5 
z
" style="stroke: #8a2be2"/>
    </defs>
    <g clip-path="url(#p72a89f9a70)">
     <use xlink:href="#mdb252c9150" x="72.552969" y="294.307902" style="fill: #8a2be2; stroke: #8a2be2"/>
    </g>
   </g>
   <g id="line2d_34">
    <path d="M 271.207424 248.756137 
" clip-path="url(#p72a89f9a70)" style="fill: none; stroke: #8a2be2; stroke-width: 1.5; stroke-linecap: square"/>
    <defs>
     <path id="ma03c9a86be" d="M -5 5 
L 5 5 
L 5 -5 
L -5 -5 
z
" style="stroke: #8a2be2; stroke-linejoin: miter"/>
    </defs>
    <g clip-path="url(#p72a89f9a70)">
     <use xlink:href="#ma03c9a86be" x="271.207424" y="248.756137" style="fill: #8a2be2; stroke: #8a2be2; stroke-linejoin: miter"/>
    </g>
   </g>
   <g id="patch_3">
    <path d="M 57.6 307.584 
L 57.6 41.472 
" style="fill: none; stroke: #000000; stroke-width: 0.8; stroke-linejoin: miter; stroke-linecap: square"/>
   </g>
   <g id="patch_4">
    <path d="M 57.6 307.584 
L 414.72 307.584 
" style="fill: none; stroke: #000000; stroke-width: 0.8; stroke-linejoin: miter; stroke-linecap: square"/>
   </g>
   <g id="legend_1">
    <g id="patch_5">
     <path d="M 282.164531 119.523563 
L 404.22 119.523563 
Q 407.22 119.523563 407.22 116.523563 
L 407.22 51.972 
Q 407.22 48.972 404.22 48.972 
L 282.164531 48.972 
Q 279.164531 48.972 279.164531 51.972 
L 279.164531 116.523563 
Q 279.164531 119.523563 282.164531 119.523563 
z
" style="fill: #ffffff; opacity: 0.8; stroke: #cccccc; stroke-linejoin: miter"/>
    </g>
    <g id="line2d_35">
     <path d="M 285.164531 61.119656 
L 300.164531 61.119656 
L 315.164531 61.119656 
" style="fill: none; stroke: #000000; stroke-width: 1.5; stroke-linecap: square"/>
    </g>
    <g id="text_7">
     <!-- Trajectory -->
     <g transform="translate(327.164531 66.369656)scale(0.15 -0.15)">
      <defs>
       <path id="DejaVuSans-54" d="M -19 4666 
L 3928 4666 
L 3928 4134 
L 2272 4134 
L 2272 0 
L 1638 0 
L 1638 4134 
L -19 4134 
L -19 4666 
z
" transform="scale(0.015625)"/>
       <path id="DejaVuSans-72" d="M 2631 2963 
Q 2534 3019 2420 3045 
Q 2306 3072 2169 3072 
Q 1681 3072 1420 2755 
Q 1159 2438 1159 1844 
L 1159 0 
L 581 0 
L 581 3500 
L 1159 3500 
L 1159 2956 
Q 1341 3275 1631 3429 
Q 1922 3584 2338 3584 
Q 2397 3584 2469 3576 
Q 2541 3569 2628 3553 
L 2631 2963 
z
" transform="scale(0.015625)"/>
       <path id="DejaVuSans-61" d="M 2194 1759 
Q 1497 1759 1228 1600 
Q 959 1441 959 1056 
Q 959 750 1161 570 
Q 1363 391 1709 391 
Q 2188 391 2477 730 
Q 2766 1069 2766 1631 
L 2766 1759 
L 2194 1759 
z
M 3341 1997 
L 3341 0 
L 2766 0 
L 2766 531 
Q 2569 213 2275 61 
Q 1981 -91 1556 -91 
Q 1019 -91 701 211 
Q 384 513 384 1019 
Q 384 1609 779 1909 
Q 1175 2209 1959 2209 
L 2766 2209 
L 2766 2266 
Q 2766 2663 2505 2880 
Q 2244 3097 1772 3097 
Q 1472 3097 1187 3025 
Q 903 2953 641 2809 
L 641 3341 
Q 956 3463 1253 3523 
Q 1550 3584 1831 3584 
Q 2591 3584 2966 3190 
Q 3341 2797 3341 1997 
z
" transform="scale(0.015625)"/>
       <path id="DejaVuSans-6a" d="M 603 3500 
L 1178 3500 
L 1178 -63 
Q 1178 -731 923 -1031 
Q 669 -1331 103 -1331 
L -116 -1331 
L -116 -844 
L 38 -844 
Q 366 -844 484 -692 
Q 603 -541 603 -63 
L 603 3500 
z
M 603 4863 
L 1178 4863 
L 1178 4134 
L 603 4134 
L 603 4863 
z
" transform="scale(0.015625)"/>
       <path id="DejaVuSans-65" d="M 3597 1894 
L 3597 1613 
L 953 1613 
Q 991 1019 1311 708 
Q 1631 397 2203 397 
Q 2534 397 2845 478 
Q 3156 559 3463 722 
L 3463 178 
Q 3153 47 2828 -22 
Q 2503 -91 2169 -91 
Q 1331 -91 842 396 
Q 353 884 353 1716 
Q 353 2575 817 3079 
Q 1281 3584 2069 3584 
Q 2775 3584 3186 3129 
Q 3597 2675 3597 1894 
z
M 3022 2063 
Q 3016 2534 2758 2815 
Q 2500 3097 2075 3097 
Q 1594 3097 1305 2825 
Q 1016 2553 972 2059 
L 3022 2063 
z
" transform="scale(0.015625)"/>
       <path id="DejaVuSans-63" d="M 3122 3366 
L 3122 2828 
Q 2878 2963 2633 3030 
Q 2388 3097 2138 3097 
Q 1578 3097 1268 2742 
Q 959 2388 959 1747 
Q 959 1106 1268 751 
Q 1578 397 2138 397 
Q 2388 397 2633 464 
Q 2878 531 3122 666 
L 3122 134 
Q 2881 22 2623 -34 
Q 2366 -91 2075 -91 
Q 1284 -91 818 406 
Q 353 903 353 1747 
Q 353 2603 823 3093 
Q 1294 3584 2113 3584 
Q 2378 3584 2631 3529 
Q 2884 3475 3122 3366 
z
" transform="scale(0.015625)"/>
       <path id="DejaVuSans-74" d="M 1172 4494 
L 1172 3500 
L 2356 3500 
L 2356 3053 
L 1172 3053 
L 1172 1153 
Q 1172 725 1289 603 
Q 1406 481 1766 481 
L 2356 481 
L 2356 0 
L 1766 0 
Q 1100 0 847 248 
Q 594 497 594 1153 
L 594 3053 
L 172 3053 
L 172 3500 
L 594 3500 
L 594 4494 
L 1172 4494 
z
" transform="scale(0.015625)"/>
       <path id="DejaVuSans-6f" d="M 1959 3097 
Q 1497 3097 1228 2736 
Q 959 2375 959 1747 
Q 959 1119 1226 758 
Q 1494 397 1959 397 
Q 2419 397 2687 759 
Q 2956 1122 2956 1747 
Q 2956 2369 2687 2733 
Q 2419 3097 1959 3097 
z
M 1959 3584 
Q 2709 3584 3137 3096 
Q 3566 2609 3566 1747 
Q 3566 888 3137 398 
Q 2709 -91 1959 -91 
Q 1206 -91 779 398 
Q 353 888 353 1747 
Q 353 2609 779 3096 
Q 1206 3584 1959 3584 
z
" transform="scale(0.015625)"/>
       <path id="DejaVuSans-79" d="M 2059 -325 
Q 1816 -950 1584 -1140 
Q 1353 -1331 966 -1331 
L 506 -1331 
L 506 -850 
L 844 -850 
Q 1081 -850 1212 -737 
Q 1344 -625 1503 -206 
L 1606 56 
L 191 3500 
L 800 3500 
L 1894 763 
L 2988 3500 
L 3597 3500 
L 2059 -325 
z
" transform="scale(0.015625)"/>
      </defs>
      <use xlink:href="#DejaVuSans-54"/>
      <use xlink:href="#DejaVuSans-72" x="46.333984"/>
      <use xlink:href="#DejaVuSans-61" x="87.447266"/>
      <use xlink:href="#DejaVuSans-6a" x="148.726562"/>
      <use xlink:href="#DejaVuSans-65" x="176.509766"/>
      <use xlink:href="#DejaVuSans-63" x="238.033203"/>
      <use xlink:href="#DejaVuSans-74" x="293.013672"/>
      <use xlink:href="#DejaVuSans-6f" x="332.222656"/>
      <use xlink:href="#DejaVuSans-72" x="393.404297"/>
      <use xlink:href="#DejaVuSans-79" x="434.517578"/>
     </g>
    </g>
    <g id="line2d_36">
     <path d="M 285.164531 83.136844 
L 300.164531 83.136844 
L 315.164531 83.136844 
" style="fill: none; stroke: #000000; stroke-width: 1.5; stroke-linecap: square"/>
     <g>
      <use xlink:href="#mcd22cdce22" x="300.164531" y="83.136844" style="stroke: #000000"/>
     </g>
    </g>
    <g id="text_8">
     <!-- Start -->
     <g transform="translate(327.164531 88.386844)scale(0.15 -0.15)">
      <defs>
       <path id="DejaVuSans-53" d="M 3425 4513 
L 3425 3897 
Q 3066 4069 2747 4153 
Q 2428 4238 2131 4238 
Q 1616 4238 1336 4038 
Q 1056 3838 1056 3469 
Q 1056 3159 1242 3001 
Q 1428 2844 1947 2747 
L 2328 2669 
Q 3034 2534 3370 2195 
Q 3706 1856 3706 1288 
Q 3706 609 3251 259 
Q 2797 -91 1919 -91 
Q 1588 -91 1214 -16 
Q 841 59 441 206 
L 441 856 
Q 825 641 1194 531 
Q 1563 422 1919 422 
Q 2459 422 2753 634 
Q 3047 847 3047 1241 
Q 3047 1584 2836 1778 
Q 2625 1972 2144 2069 
L 1759 2144 
Q 1053 2284 737 2584 
Q 422 2884 422 3419 
Q 422 4038 858 4394 
Q 1294 4750 2059 4750 
Q 2388 4750 2728 4690 
Q 3069 4631 3425 4513 
z
" transform="scale(0.015625)"/>
      </defs>
      <use xlink:href="#DejaVuSans-53"/>
      <use xlink:href="#DejaVuSans-74" x="63.476562"/>
      <use xlink:href="#DejaVuSans-61" x="102.685547"/>
      <use xlink:href="#DejaVuSans-72" x="163.964844"/>
      <use xlink:href="#DejaVuSans-74" x="205.078125"/>
     </g>
    </g>
    <g id="line2d_37">
     <path d="M 285.164531 105.154031 
L 300.164531 105.154031 
L 315.164531 105.154031 
" style="fill: none; stroke: #000000; stroke-width: 1.5; stroke-linecap: square"/>
     <g>
      <use xlink:href="#m71f60681b2" x="300.164531" y="105.154031" style="stroke: #000000; stroke-linejoin: miter"/>
     </g>
    </g>
    <g id="text_9">
     <!-- End -->
     <g transform="translate(327.164531 110.404031)scale(0.15 -0.15)">
      <defs>
       <path id="DejaVuSans-45" d="M 628 4666 
L 3578 4666 
L 3578 4134 
L 1259 4134 
L 1259 2753 
L 3481 2753 
L 3481 2222 
L 1259 2222 
L 1259 531 
L 3634 531 
L 3634 0 
L 628 0 
L 628 4666 
z
" transform="scale(0.015625)"/>
       <path id="DejaVuSans-6e" d="M 3513 2113 
L 3513 0 
L 2938 0 
L 2938 2094 
Q 2938 2591 2744 2837 
Q 2550 3084 2163 3084 
Q 1697 3084 1428 2787 
Q 1159 2491 1159 1978 
L 1159 0 
L 581 0 
L 581 3500 
L 1159 3500 
L 1159 2956 
Q 1366 3272 1645 3428 
Q 1925 3584 2291 3584 
Q 2894 3584 3203 3211 
Q 3513 2838 3513 2113 
z
" transform="scale(0.015625)"/>
       <path id="DejaVuSans-64" d="M 2906 2969 
L 2906 4863 
L 3481 4863 
L 3481 0 
L 2906 0 
L 2906 525 
Q 2725 213 2448 61 
Q 2172 -91 1784 -91 
Q 1150 -91 751 415 
Q 353 922 353 1747 
Q 353 2572 751 3078 
Q 1150 3584 1784 3584 
Q 2172 3584 2448 3432 
Q 2725 3281 2906 2969 
z
M 947 1747 
Q 947 1113 1208 752 
Q 1469 391 1925 391 
Q 2381 391 2643 752 
Q 2906 1113 2906 1747 
Q 2906 2381 2643 2742 
Q 2381 3103 1925 3103 
Q 1469 3103 1208 2742 
Q 947 2381 947 1747 
z
" transform="scale(0.015625)"/>
      </defs>
      <use xlink:href="#DejaVuSans-45"/>
      <use xlink:href="#DejaVuSans-6e" x="63.183594"/>
      <use xlink:href="#DejaVuSans-64" x="126.5625"/>
     </g>
    </g>
   </g>
  </g>
 </g>
 <defs>
  <clipPath id="p72a89f9a70">
   <rect x="57.6" y="41.472" width="357.12" height="266.112"/>
  </clipPath>
 </defs>
</svg>
