<?xml version="1.0" encoding="utf-8" standalone="no"?>
<!DOCTYPE svg PUBLIC "-//W3C//DTD SVG 1.1//EN"
  "http://www.w3.org/Graphics/SVG/1.1/DTD/svg11.dtd">
<svg xmlns:xlink="http://www.w3.org/1999/xlink" width="460.8pt" height="345.6pt" viewBox="0 0 460.8 345.6" xmlns="http://www.w3.org/2000/svg" version="1.1">
 <metadata>
  <rdf:RDF xmlns:dc="http://purl.org/dc/elements/1.1/" xmlns:cc="http://creativecommons.org/ns#" xmlns:rdf="http://www.w3.org/1999/02/22-rdf-syntax-ns#">
   <cc:Work>
    <dc:type rdf:resource="http://purl.org/dc/dcmitype/StillImage"/>
    <dc:date>2024-02-20T18:22:10.032684</dc:date>
    <dc:format>image/svg+xml</dc:format>
    <dc:creator>
     <cc:Agent>
      <dc:title>Matplotlib v3.5.0, https://matplotlib.org/</dc:title>
     </cc:Agent>
    </dc:creator>
   </cc:Work>
  </rdf:RDF>
 </metadata>
 <defs>
  <style type="text/css">*{stroke-linejoin: round; stroke-linecap: butt}</style>
 </defs>
 <g id="figure_1">
  <g id="patch_1">
   <path d="M 0 345.6 
L 460.8 345.6 
L 460.8 0 
L 0 0 
z
" style="fill: #ffffff"/>
  </g>
  <g id="axes_1">
   <g id="patch_2">
    <path d="M 57.6 307.584 
L 414.72 307.584 
L 414.72 41.472 
L 57.6 41.472 
z
" style="fill: #ffffff"/>
   </g>
   <g id="matplotlib.axis_1">
    <g id="xtick_1">
     <g id="line2d_1">
      <defs>
       <path id="md6ef41774d" d="M 0 0 
L 0 3.5 
" style="stroke: #000000; stroke-width: 0.8"/>
      </defs>
      <g>
       <use xlink:href="#md6ef41774d" x="64.154678" y="307.584" style="stroke: #000000; stroke-width: 0.8"/>
      </g>
     </g>
     <g id="text_1">
      <!-- 0 -->
      <g transform="translate(57.792178 329.780875)scale(0.2 -0.2)">
       <defs>
        <path id="DejaVuSans-30" d="M 2034 4250 
Q 1547 4250 1301 3770 
Q 1056 3291 1056 2328 
Q 1056 1369 1301 889 
Q 1547 409 2034 409 
Q 2525 409 2770 889 
Q 3016 1369 3016 2328 
Q 3016 3291 2770 3770 
Q 2525 4250 2034 4250 
z
M 2034 4750 
Q 2819 4750 3233 4129 
Q 3647 3509 3647 2328 
Q 3647 1150 3233 529 
Q 2819 -91 2034 -91 
Q 1250 -91 836 529 
Q 422 1150 422 2328 
Q 422 3509 836 4129 
Q 1250 4750 2034 4750 
z
" transform="scale(0.015625)"/>
       </defs>
       <use xlink:href="#DejaVuSans-30"/>
      </g>
     </g>
    </g>
    <g id="xtick_2">
     <g id="line2d_2">
      <g>
       <use xlink:href="#md6ef41774d" x="399.367095" y="307.584" style="stroke: #000000; stroke-width: 0.8"/>
      </g>
     </g>
     <g id="text_2">
      <!-- 1 -->
      <g transform="translate(393.004595 329.780875)scale(0.2 -0.2)">
       <defs>
        <path id="DejaVuSans-31" d="M 794 531 
L 1825 531 
L 1825 4091 
L 703 3866 
L 703 4441 
L 1819 4666 
L 2450 4666 
L 2450 531 
L 3481 531 
L 3481 0 
L 794 0 
L 794 531 
z
" transform="scale(0.015625)"/>
       </defs>
       <use xlink:href="#DejaVuSans-31"/>
      </g>
     </g>
    </g>
    <g id="text_3">
     <!-- Normalised X position -->
     <g transform="translate(111.795937 353.137125)scale(0.2 -0.2)">
      <defs>
       <path id="DejaVuSans-Bold-4e" d="M 588 4666 
L 1931 4666 
L 3628 1466 
L 3628 4666 
L 4769 4666 
L 4769 0 
L 3425 0 
L 1728 3200 
L 1728 0 
L 588 0 
L 588 4666 
z
" transform="scale(0.015625)"/>
       <path id="DejaVuSans-Bold-6f" d="M 2203 2784 
Q 1831 2784 1636 2517 
Q 1441 2250 1441 1747 
Q 1441 1244 1636 976 
Q 1831 709 2203 709 
Q 2569 709 2762 976 
Q 2956 1244 2956 1747 
Q 2956 2250 2762 2517 
Q 2569 2784 2203 2784 
z
M 2203 3584 
Q 3106 3584 3614 3096 
Q 4122 2609 4122 1747 
Q 4122 884 3614 396 
Q 3106 -91 2203 -91 
Q 1297 -91 786 396 
Q 275 884 275 1747 
Q 275 2609 786 3096 
Q 1297 3584 2203 3584 
z
" transform="scale(0.015625)"/>
       <path id="DejaVuSans-Bold-72" d="M 3138 2547 
Q 2991 2616 2845 2648 
Q 2700 2681 2553 2681 
Q 2122 2681 1889 2404 
Q 1656 2128 1656 1613 
L 1656 0 
L 538 0 
L 538 3500 
L 1656 3500 
L 1656 2925 
Q 1872 3269 2151 3426 
Q 2431 3584 2822 3584 
Q 2878 3584 2943 3579 
Q 3009 3575 3134 3559 
L 3138 2547 
z
" transform="scale(0.015625)"/>
       <path id="DejaVuSans-Bold-6d" d="M 3781 2919 
Q 3994 3244 4286 3414 
Q 4578 3584 4928 3584 
Q 5531 3584 5847 3212 
Q 6163 2841 6163 2131 
L 6163 0 
L 5038 0 
L 5038 1825 
Q 5041 1866 5042 1909 
Q 5044 1953 5044 2034 
Q 5044 2406 4934 2573 
Q 4825 2741 4581 2741 
Q 4263 2741 4089 2478 
Q 3916 2216 3909 1719 
L 3909 0 
L 2784 0 
L 2784 1825 
Q 2784 2406 2684 2573 
Q 2584 2741 2328 2741 
Q 2006 2741 1831 2477 
Q 1656 2213 1656 1722 
L 1656 0 
L 531 0 
L 531 3500 
L 1656 3500 
L 1656 2988 
Q 1863 3284 2130 3434 
Q 2397 3584 2719 3584 
Q 3081 3584 3359 3409 
Q 3638 3234 3781 2919 
z
" transform="scale(0.015625)"/>
       <path id="DejaVuSans-Bold-61" d="M 2106 1575 
Q 1756 1575 1579 1456 
Q 1403 1338 1403 1106 
Q 1403 894 1545 773 
Q 1688 653 1941 653 
Q 2256 653 2472 879 
Q 2688 1106 2688 1447 
L 2688 1575 
L 2106 1575 
z
M 3816 1997 
L 3816 0 
L 2688 0 
L 2688 519 
Q 2463 200 2181 54 
Q 1900 -91 1497 -91 
Q 953 -91 614 226 
Q 275 544 275 1050 
Q 275 1666 698 1953 
Q 1122 2241 2028 2241 
L 2688 2241 
L 2688 2328 
Q 2688 2594 2478 2717 
Q 2269 2841 1825 2841 
Q 1466 2841 1156 2769 
Q 847 2697 581 2553 
L 581 3406 
Q 941 3494 1303 3539 
Q 1666 3584 2028 3584 
Q 2975 3584 3395 3211 
Q 3816 2838 3816 1997 
z
" transform="scale(0.015625)"/>
       <path id="DejaVuSans-Bold-6c" d="M 538 4863 
L 1656 4863 
L 1656 0 
L 538 0 
L 538 4863 
z
" transform="scale(0.015625)"/>
       <path id="DejaVuSans-Bold-69" d="M 538 3500 
L 1656 3500 
L 1656 0 
L 538 0 
L 538 3500 
z
M 538 4863 
L 1656 4863 
L 1656 3950 
L 538 3950 
L 538 4863 
z
" transform="scale(0.015625)"/>
       <path id="DejaVuSans-Bold-73" d="M 3272 3391 
L 3272 2541 
Q 2913 2691 2578 2766 
Q 2244 2841 1947 2841 
Q 1628 2841 1473 2761 
Q 1319 2681 1319 2516 
Q 1319 2381 1436 2309 
Q 1553 2238 1856 2203 
L 2053 2175 
Q 2913 2066 3209 1816 
Q 3506 1566 3506 1031 
Q 3506 472 3093 190 
Q 2681 -91 1863 -91 
Q 1516 -91 1145 -36 
Q 775 19 384 128 
L 384 978 
Q 719 816 1070 734 
Q 1422 653 1784 653 
Q 2113 653 2278 743 
Q 2444 834 2444 1013 
Q 2444 1163 2330 1236 
Q 2216 1309 1875 1350 
L 1678 1375 
Q 931 1469 631 1722 
Q 331 1975 331 2491 
Q 331 3047 712 3315 
Q 1094 3584 1881 3584 
Q 2191 3584 2531 3537 
Q 2872 3491 3272 3391 
z
" transform="scale(0.015625)"/>
       <path id="DejaVuSans-Bold-65" d="M 4031 1759 
L 4031 1441 
L 1416 1441 
Q 1456 1047 1700 850 
Q 1944 653 2381 653 
Q 2734 653 3104 758 
Q 3475 863 3866 1075 
L 3866 213 
Q 3469 63 3072 -14 
Q 2675 -91 2278 -91 
Q 1328 -91 801 392 
Q 275 875 275 1747 
Q 275 2603 792 3093 
Q 1309 3584 2216 3584 
Q 3041 3584 3536 3087 
Q 4031 2591 4031 1759 
z
M 2881 2131 
Q 2881 2450 2695 2645 
Q 2509 2841 2209 2841 
Q 1884 2841 1681 2658 
Q 1478 2475 1428 2131 
L 2881 2131 
z
" transform="scale(0.015625)"/>
       <path id="DejaVuSans-Bold-64" d="M 2919 2988 
L 2919 4863 
L 4044 4863 
L 4044 0 
L 2919 0 
L 2919 506 
Q 2688 197 2409 53 
Q 2131 -91 1766 -91 
Q 1119 -91 703 423 
Q 288 938 288 1747 
Q 288 2556 703 3070 
Q 1119 3584 1766 3584 
Q 2128 3584 2408 3439 
Q 2688 3294 2919 2988 
z
M 2181 722 
Q 2541 722 2730 984 
Q 2919 1247 2919 1747 
Q 2919 2247 2730 2509 
Q 2541 2772 2181 2772 
Q 1825 2772 1636 2509 
Q 1447 2247 1447 1747 
Q 1447 1247 1636 984 
Q 1825 722 2181 722 
z
" transform="scale(0.015625)"/>
       <path id="DejaVuSans-Bold-20" transform="scale(0.015625)"/>
       <path id="DejaVuSans-Bold-58" d="M 3188 2381 
L 4806 0 
L 3553 0 
L 2463 1594 
L 1381 0 
L 122 0 
L 1741 2381 
L 184 4666 
L 1441 4666 
L 2463 3163 
L 3481 4666 
L 4744 4666 
L 3188 2381 
z
" transform="scale(0.015625)"/>
       <path id="DejaVuSans-Bold-70" d="M 1656 506 
L 1656 -1331 
L 538 -1331 
L 538 3500 
L 1656 3500 
L 1656 2988 
Q 1888 3294 2169 3439 
Q 2450 3584 2816 3584 
Q 3463 3584 3878 3070 
Q 4294 2556 4294 1747 
Q 4294 938 3878 423 
Q 3463 -91 2816 -91 
Q 2450 -91 2169 54 
Q 1888 200 1656 506 
z
M 2400 2772 
Q 2041 2772 1848 2508 
Q 1656 2244 1656 1747 
Q 1656 1250 1848 986 
Q 2041 722 2400 722 
Q 2759 722 2948 984 
Q 3138 1247 3138 1747 
Q 3138 2247 2948 2509 
Q 2759 2772 2400 2772 
z
" transform="scale(0.015625)"/>
       <path id="DejaVuSans-Bold-74" d="M 1759 4494 
L 1759 3500 
L 2913 3500 
L 2913 2700 
L 1759 2700 
L 1759 1216 
Q 1759 972 1856 886 
Q 1953 800 2241 800 
L 2816 800 
L 2816 0 
L 1856 0 
Q 1194 0 917 276 
Q 641 553 641 1216 
L 641 2700 
L 84 2700 
L 84 3500 
L 641 3500 
L 641 4494 
L 1759 4494 
z
" transform="scale(0.015625)"/>
       <path id="DejaVuSans-Bold-6e" d="M 4056 2131 
L 4056 0 
L 2931 0 
L 2931 347 
L 2931 1631 
Q 2931 2084 2911 2256 
Q 2891 2428 2841 2509 
Q 2775 2619 2662 2680 
Q 2550 2741 2406 2741 
Q 2056 2741 1856 2470 
Q 1656 2200 1656 1722 
L 1656 0 
L 538 0 
L 538 3500 
L 1656 3500 
L 1656 2988 
Q 1909 3294 2193 3439 
Q 2478 3584 2822 3584 
Q 3428 3584 3742 3212 
Q 4056 2841 4056 2131 
z
" transform="scale(0.015625)"/>
      </defs>
      <use xlink:href="#DejaVuSans-Bold-4e"/>
      <use xlink:href="#DejaVuSans-Bold-6f" x="83.691406"/>
      <use xlink:href="#DejaVuSans-Bold-72" x="152.392578"/>
      <use xlink:href="#DejaVuSans-Bold-6d" x="201.708984"/>
      <use xlink:href="#DejaVuSans-Bold-61" x="305.908203"/>
      <use xlink:href="#DejaVuSans-Bold-6c" x="373.388672"/>
      <use xlink:href="#DejaVuSans-Bold-69" x="407.666016"/>
      <use xlink:href="#DejaVuSans-Bold-73" x="441.943359"/>
      <use xlink:href="#DejaVuSans-Bold-65" x="501.464844"/>
      <use xlink:href="#DejaVuSans-Bold-64" x="569.287109"/>
      <use xlink:href="#DejaVuSans-Bold-20" x="640.869141"/>
      <use xlink:href="#DejaVuSans-Bold-58" x="675.683594"/>
      <use xlink:href="#DejaVuSans-Bold-20" x="752.783203"/>
      <use xlink:href="#DejaVuSans-Bold-70" x="787.597656"/>
      <use xlink:href="#DejaVuSans-Bold-6f" x="859.179688"/>
      <use xlink:href="#DejaVuSans-Bold-73" x="927.880859"/>
      <use xlink:href="#DejaVuSans-Bold-69" x="987.402344"/>
      <use xlink:href="#DejaVuSans-Bold-74" x="1021.679688"/>
      <use xlink:href="#DejaVuSans-Bold-69" x="1069.482422"/>
      <use xlink:href="#DejaVuSans-Bold-6f" x="1103.759766"/>
      <use xlink:href="#DejaVuSans-Bold-6e" x="1172.460938"/>
     </g>
    </g>
   </g>
   <g id="matplotlib.axis_2">
    <g id="ytick_1">
     <g id="line2d_3">
      <defs>
       <path id="m5ec1df5f07" d="M 0 0 
L -3.5 0 
" style="stroke: #000000; stroke-width: 0.8"/>
      </defs>
      <g>
       <use xlink:href="#m5ec1df5f07" x="57.6" y="307.584" style="stroke: #000000; stroke-width: 0.8"/>
      </g>
     </g>
     <g id="text_4">
      <!-- 0 -->
      <g transform="translate(37.875 315.182437)scale(0.2 -0.2)">
       <use xlink:href="#DejaVuSans-30"/>
      </g>
     </g>
    </g>
    <g id="ytick_2">
     <g id="line2d_4">
      <g>
       <use xlink:href="#m5ec1df5f07" x="57.6" y="53.533245" style="stroke: #000000; stroke-width: 0.8"/>
      </g>
     </g>
     <g id="text_5">
      <!-- 1 -->
      <g transform="translate(37.875 61.131682)scale(0.2 -0.2)">
       <use xlink:href="#DejaVuSans-31"/>
      </g>
     </g>
    </g>
    <g id="text_6">
     <!-- Normalised Y position -->
     <g transform="translate(29.715625 298.423313)rotate(-90)scale(0.2 -0.2)">
      <defs>
       <path id="DejaVuSans-Bold-59" d="M -63 4666 
L 1253 4666 
L 2316 3003 
L 3378 4666 
L 4697 4666 
L 2919 1966 
L 2919 0 
L 1716 0 
L 1716 1966 
L -63 4666 
z
" transform="scale(0.015625)"/>
      </defs>
      <use xlink:href="#DejaVuSans-Bold-4e"/>
      <use xlink:href="#DejaVuSans-Bold-6f" x="83.691406"/>
      <use xlink:href="#DejaVuSans-Bold-72" x="152.392578"/>
      <use xlink:href="#DejaVuSans-Bold-6d" x="201.708984"/>
      <use xlink:href="#DejaVuSans-Bold-61" x="305.908203"/>
      <use xlink:href="#DejaVuSans-Bold-6c" x="373.388672"/>
      <use xlink:href="#DejaVuSans-Bold-69" x="407.666016"/>
      <use xlink:href="#DejaVuSans-Bold-73" x="441.943359"/>
      <use xlink:href="#DejaVuSans-Bold-65" x="501.464844"/>
      <use xlink:href="#DejaVuSans-Bold-64" x="569.287109"/>
      <use xlink:href="#DejaVuSans-Bold-20" x="640.869141"/>
      <use xlink:href="#DejaVuSans-Bold-59" x="675.683594"/>
      <use xlink:href="#DejaVuSans-Bold-20" x="748.095703"/>
      <use xlink:href="#DejaVuSans-Bold-70" x="782.910156"/>
      <use xlink:href="#DejaVuSans-Bold-6f" x="854.492188"/>
      <use xlink:href="#DejaVuSans-Bold-73" x="923.193359"/>
      <use xlink:href="#DejaVuSans-Bold-69" x="982.714844"/>
      <use xlink:href="#DejaVuSans-Bold-74" x="1016.992188"/>
      <use xlink:href="#DejaVuSans-Bold-69" x="1064.794922"/>
      <use xlink:href="#DejaVuSans-Bold-6f" x="1099.072266"/>
      <use xlink:href="#DejaVuSans-Bold-6e" x="1167.773438"/>
     </g>
    </g>
   </g>
   <g id="line2d_5">
    <path d="M 231.320976 179.818669 
L 264.402306 292.291624 
L 256.307938 290.318415 
L 249.621286 290.071763 
L 250.14918 294.758137 
L 250.677073 293.031578 
L 249.797251 291.551671 
L 246.629889 289.825112 
L 243.462528 284.645437 
L 236.95184 284.398785 
L 232.200798 278.725807 
L 226.393969 271.07962 
L 224.10643 268.859759 
L 220.763104 266.146595 
L 223.226608 266.146595 
L 221.818891 264.913339 
L 218.299601 263.926734 
L 211.964878 263.433432 
L 204.750333 263.186781 
L 196.48 263.186781 
L 186.625987 267.626503 
L 175.364257 264.666688 
L 162.166918 266.393246 
L 158.119734 265.899944 
L 154.952373 264.913339 
L 149.321508 262.940129 
L 137.35592 259.487012 
L 129.085588 255.293942 
L 115.360355 255.04729 
L 102.514945 253.814034 
L 100.40337 250.114266 
L 105.858271 244.93459 
L 109.553525 240.248217 
L 112.720887 237.288403 
L 113.60071 234.328588 
L 116.944035 233.095332 
L 121.519113 233.341983 
L 129.613481 240.001566 
L 130.669268 239.014961 
L 134.892417 240.248217 
L 146.68204 247.647754 
L 144.218537 246.661149 
L 147.385898 249.867615 
L 147.561863 248.634359 
L 145.802217 246.414498 
L 142.634856 242.221427 
L 137.883814 239.014961 
L 128.909623 235.808495 
L 120.287361 232.848681 
L 112.192993 230.875471 
L 111.841064 230.382169 
L 108.321774 230.382169 
L 106.386164 229.888866 
L 103.922661 229.642215 
L 101.635122 228.65561 
L 92.836896 228.902261 
L 92.309002 227.915656 
L 95.300399 228.902261 
L 101.283193 229.395564 
L 103.922661 228.408959 
L 106.914058 228.162308 
L 109.025632 226.929051 
L 114.832461 224.955842 
L 116.064213 223.475934 
L 117.12 222.735981 
L 117.12 222.242678 
L 115.712284 221.502725 
L 113.072816 220.762771 
L 109.377561 219.529515 
L 104.098625 218.049608 
L 96.708115 215.336444 
L 87.55796 212.129978 
L 80.16745 208.923512 
L 76.64816 206.703651 
L 73.832727 203.497186 
L 73.832727 201.523976 
L 75.416408 201.030673 
L 74.536585 199.797417 
L 77.879911 200.044069 
L 83.158847 199.550766 
L 87.206031 199.057464 
L 91.781109 198.810812 
L 97.236009 198.810812 
L 97.236009 198.810812 
" clip-path="url(#pd5576dc0d0)" style="fill: none; stroke: #000000; stroke-width: 1.5; stroke-linecap: square"/>
   </g>
   <g id="line2d_6">
    <path d="M 231.320976 179.818669 
" clip-path="url(#pd5576dc0d0)" style="fill: none; stroke: #000000; stroke-width: 1.5; stroke-linecap: square"/>
    <defs>
     <path id="mc451303554" d="M 0 5 
C 1.326016 5 2.597899 4.473168 3.535534 3.535534 
C 4.473168 2.597899 5 1.326016 5 0 
C 5 -1.326016 4.473168 -2.597899 3.535534 -3.535534 
C 2.597899 -4.473168 1.326016 -5 0 -5 
C -1.326016 -5 -2.597899 -4.473168 -3.535534 -3.535534 
C -4.473168 -2.597899 -5 -1.326016 -5 0 
C -5 1.326016 -4.473168 2.597899 -3.535534 3.535534 
C -2.597899 4.473168 -1.326016 5 0 5 
z
" style="stroke: #000000"/>
    </defs>
    <g clip-path="url(#pd5576dc0d0)">
     <use xlink:href="#mc451303554" x="231.320976" y="179.818669" style="stroke: #000000"/>
    </g>
   </g>
   <g id="line2d_7">
    <path d="M 97.236009 198.810812 
" clip-path="url(#pd5576dc0d0)" style="fill: none; stroke: #000000; stroke-width: 1.5; stroke-linecap: square"/>
    <defs>
     <path id="mfd326d10ec" d="M -5 5 
L 5 5 
L 5 -5 
L -5 -5 
z
" style="stroke: #000000; stroke-linejoin: miter"/>
    </defs>
    <g clip-path="url(#pd5576dc0d0)">
     <use xlink:href="#mfd326d10ec" x="97.236009" y="198.810812" style="stroke: #000000; stroke-linejoin: miter"/>
    </g>
   </g>
   <g id="line2d_8">
    <path d="M 137.707849 209.416815 
L 135.948204 209.663466 
L 134.892417 209.663466 
L 134.188559 210.156769 
L 135.596275 211.143373 
L 137.179956 211.883327 
L 138.587672 212.129978 
L 141.051175 212.129978 
L 142.634856 212.129978 
L 145.274324 213.116583 
L 148.441685 213.856537 
L 151.257118 214.843142 
L 153.368692 215.583095 
L 156.00816 216.323049 
L 159.351486 217.802956 
L 163.574634 217.802956 
L 168.501641 217.556305 
L 175.188293 219.036212 
L 183.282661 220.51612 
L 184.162483 219.282864 
L 188.913525 219.036212 
L 195.072284 219.282864 
L 200.35122 218.789561 
L 204.574368 218.049608 
L 209.677339 217.802956 
L 215.484169 217.063003 
L 218.65153 215.829747 
L 221.290998 214.349839 
L 226.393969 213.856537 
L 229.913259 213.116583 
L 230.089224 211.390025 
L 232.904656 211.143373 
L 239.767273 211.636676 
L 242.230776 211.143373 
L 245.574102 210.40342 
L 251.029002 211.143373 
L 253.492506 211.390025 
L 255.252151 211.143373 
L 258.771441 210.650071 
L 265.810022 210.40342 
L 268.625455 210.156769 
L 272.144745 209.663466 
L 276.543858 209.663466 
L 279.887184 209.416815 
L 279.887184 209.416815 
L 284.638226 210.156769 
L 287.629623 211.143373 
L 292.380665 212.37663 
L 296.603814 213.363234 
L 303.642395 214.349839 
L 306.633792 215.583095 
L 313.496408 217.802956 
L 318.24745 219.036212 
L 321.238847 219.529515 
L 326.341818 219.776166 
L 331.620754 220.762771 
L 336.195831 219.529515 
L 341.474767 219.776166 
L 347.281596 219.776166 
L 354.496142 220.269469 
L 361.534723 220.269469 
L 368.925233 220.762771 
L 368.04541 218.54291 
L 373.852239 219.282864 
L 383.530288 220.762771 
L 396.903592 223.475934 
L 398.487273 222.735981 
L 382.122572 217.309654 
L 378.603282 216.5697 
L 381.594678 217.309654 
L 389.337118 219.529515 
L 391.624656 220.022817 
L 391.624656 220.022817 
L 395.143947 221.256073 
L 392.680443 220.762771 
L 387.753437 219.776166 
L 384.586075 219.036212 
L 382.474501 218.789561 
L 381.770643 218.789561 
L 380.89082 218.54291 
L 380.714856 218.296259 
L 378.955211 217.556305 
L 378.075388 217.309654 
L 377.547494 216.816351 
L 378.075388 216.816351 
L 379.131175 216.816351 
L 380.010998 216.816351 
L 379.483104 216.5697 
L 380.186962 217.063003 
L 382.474501 218.049608 
L 384.410111 218.789561 
L 385.817827 219.529515 
L 385.817827 220.269469 
L 386.69765 220.51612 
L 386.69765 221.009422 
L 385.817827 221.502725 
L 385.993792 222.48933 
L 385.113969 223.229283 
L 384.938004 224.215888 
L 384.76204 225.202493 
L 384.586075 225.942447 
L 383.530288 226.6824 
L 383.178359 227.669005 
L 382.82643 228.408959 
L 382.474501 229.148912 
L 382.650466 229.642215 
L 383.002395 230.135517 
L 382.650466 230.875471 
L 382.474501 231.122122 
L 379.835033 231.122122 
L 381.066785 231.862076 
L 381.946608 232.355378 
L 380.89082 231.862076 
L 380.186962 231.615425 
L 379.483104 231.122122 
L 377.547494 230.382169 
L 377.899424 230.382169 
L 377.723459 230.135517 
L 378.075388 229.888866 
L 377.195565 229.888866 
L 376.491707 229.888866 
L 375.259956 229.888866 
L 373.852239 229.642215 
L 373.148381 230.135517 
" clip-path="url(#pd5576dc0d0)" style="fill: none; stroke: #ffa07a; stroke-width: 1.5; stroke-linecap: square"/>
   </g>
   <g id="line2d_9">
    <path d="M 137.707849 209.416815 
" clip-path="url(#pd5576dc0d0)" style="fill: none; stroke: #ffa07a; stroke-width: 1.5; stroke-linecap: square"/>
    <defs>
     <path id="m20e9fe40fd" d="M 0 5 
C 1.326016 5 2.597899 4.473168 3.535534 3.535534 
C 4.473168 2.597899 5 1.326016 5 0 
C 5 -1.326016 4.473168 -2.597899 3.535534 -3.535534 
C 2.597899 -4.473168 1.326016 -5 0 -5 
C -1.326016 -5 -2.597899 -4.473168 -3.535534 -3.535534 
C -4.473168 -2.597899 -5 -1.326016 -5 0 
C -5 1.326016 -4.473168 2.597899 -3.535534 3.535534 
C -2.597899 4.473168 -1.326016 5 0 5 
z
" style="stroke: #ffa07a"/>
    </defs>
    <g clip-path="url(#pd5576dc0d0)">
     <use xlink:href="#m20e9fe40fd" x="137.707849" y="209.416815" style="fill: #ffa07a; stroke: #ffa07a"/>
    </g>
   </g>
   <g id="line2d_10">
    <path d="M 373.148381 230.135517 
" clip-path="url(#pd5576dc0d0)" style="fill: none; stroke: #ffa07a; stroke-width: 1.5; stroke-linecap: square"/>
    <defs>
     <path id="ma70eace974" d="M -5 5 
L 5 5 
L 5 -5 
L -5 -5 
z
" style="stroke: #ffa07a; stroke-linejoin: miter"/>
    </defs>
    <g clip-path="url(#pd5576dc0d0)">
     <use xlink:href="#ma70eace974" x="373.148381" y="230.135517" style="fill: #ffa07a; stroke: #ffa07a; stroke-linejoin: miter"/>
    </g>
   </g>
   <g id="line2d_11">
    <path d="M 229.209401 213.856537 
L 232.728692 214.59649 
L 235.720089 215.089793 
L 238.359557 215.336444 
L 240.647095 215.336444 
L 242.230776 215.336444 
L 243.638492 215.089793 
L 246.27796 214.843142 
L 248.389534 214.59649 
L 250.14918 213.609886 
L 251.204967 212.623281 
L 252.788647 210.896722 
L 252.964612 209.416815 
L 254.196364 207.443605 
L 254.900222 205.963698 
L 257.715654 204.977093 
L 260.003193 203.990488 
L 262.114767 203.003883 
L 265.810022 202.510581 
L 269.329313 202.510581 
L 273.90439 203.003883 
L 278.655432 203.743837 
L 283.934368 204.730442 
L 289.213304 205.717047 
L 294.316275 206.457 
L 300.650998 206.950303 
L 308.393437 208.183559 
L 312.79255 206.950303 
L 317.367627 204.730442 
L 319.303237 201.523976 
L 323.174457 198.070859 
L 326.165854 194.617742 
L 330.389002 191.657927 
L 334.612151 188.20481 
L 339.187228 185.984949 
L 345.345987 184.258391 
L 352.032639 182.778483 
L 359.775078 181.545227 
L 367.693481 180.06532 
L 372.268559 178.832064 
L 378.427317 177.598808 
L 384.586075 176.612203 
L 389.865011 175.378947 
L 397.783415 174.145691 
L 398.487273 172.912435 
L 398.487273 170.939225 
L 398.487273 168.472713 
L 398.487273 165.512898 
L 398.487273 162.799735 
L 398.487273 160.333222 
L 398.487273 158.360013 
L 398.487273 155.8935 
L 398.487273 153.920291 
L 398.487273 152.687035 
L 396.551663 151.453778 
L 393.384302 150.220522 
L 390.040976 149.480569 
L 386.873614 149.480569 
L 383.178359 149.973871 
L 376.315743 150.713825 
L 372.092594 151.453778 
L 367.165588 151.453778 
L 360.830865 151.207127 
L 356.079823 151.947081 
L 351.32878 152.687035 
L 347.633525 153.920291 
L 344.114235 155.153547 
L 342.002661 156.880105 
L 338.131441 157.86671 
L 336.723725 158.606664 
L 334.788115 159.593269 
L 333.556364 160.086571 
L 333.732328 160.826525 
L 332.324612 161.566478 
L 332.324612 162.306432 
L 333.02847 163.046386 
L 332.500576 163.786339 
L 332.852506 164.032991 
L 334.084257 164.772944 
L 333.732328 165.266247 
L 332.148647 164.772944 
L 330.389002 164.526293 
L 326.693747 163.786339 
L 323.526386 163.293037 
" clip-path="url(#pd5576dc0d0)" style="fill: none; stroke: #0000ff; stroke-width: 1.5; stroke-linecap: square"/>
   </g>
   <g id="line2d_12">
    <path d="M 229.209401 213.856537 
" clip-path="url(#pd5576dc0d0)" style="fill: none; stroke: #0000ff; stroke-width: 1.5; stroke-linecap: square"/>
    <defs>
     <path id="m0b35c519fa" d="M 0 5 
C 1.326016 5 2.597899 4.473168 3.535534 3.535534 
C 4.473168 2.597899 5 1.326016 5 0 
C 5 -1.326016 4.473168 -2.597899 3.535534 -3.535534 
C 2.597899 -4.473168 1.326016 -5 0 -5 
C -1.326016 -5 -2.597899 -4.473168 -3.535534 -3.535534 
C -4.473168 -2.597899 -5 -1.326016 -5 0 
C -5 1.326016 -4.473168 2.597899 -3.535534 3.535534 
C -2.597899 4.473168 -1.326016 5 0 5 
z
" style="stroke: #0000ff"/>
    </defs>
    <g clip-path="url(#pd5576dc0d0)">
     <use xlink:href="#m0b35c519fa" x="229.209401" y="213.856537" style="fill: #0000ff; stroke: #0000ff"/>
    </g>
   </g>
   <g id="line2d_13">
    <path d="M 323.526386 163.293037 
" clip-path="url(#pd5576dc0d0)" style="fill: none; stroke: #0000ff; stroke-width: 1.5; stroke-linecap: square"/>
    <defs>
     <path id="m9cef288dfc" d="M -5 5 
L 5 5 
L 5 -5 
L -5 -5 
z
" style="stroke: #0000ff; stroke-linejoin: miter"/>
    </defs>
    <g clip-path="url(#pd5576dc0d0)">
     <use xlink:href="#m9cef288dfc" x="323.526386" y="163.293037" style="fill: #0000ff; stroke: #0000ff; stroke-linejoin: miter"/>
    </g>
   </g>
   <g id="line2d_14">
    <path d="M 144.394501 173.159086 
L 144.570466 173.899039 
L 149.145543 175.625598 
L 147.737827 179.572017 
L 152.312905 180.06532 
L 160.407273 179.818669 
L 174.132506 178.585413 
L 181.347051 177.845459 
L 188.209667 176.365552 
L 189.08949 175.625598 
L 191.904922 176.858854 
L 197.183858 178.832064 
L 205.278226 181.545227 
L 214.252417 184.998344 
L 222.698714 188.698113 
L 226.921863 190.917973 
L 229.56133 192.15123 
L 228.857472 191.904578 
L 224.634324 193.384486 
L 221.466962 193.384486 
L 221.642927 192.644532 
L 225.866075 192.15123 
L 228.329579 191.411276 
L 232.024834 191.411276 
L 237.479734 193.137834 
L 242.406741 195.357695 
L 246.629889 198.070859 
L 248.565499 201.030673 
L 253.140576 203.250534 
L 255.956009 205.963698 
L 260.003193 207.936908 
L 267.921596 210.156769 
L 274.256319 212.869932 
L 279.007361 216.323049 
L 281.2949 219.776166 
L 276.719823 222.48933 
L 272.496674 224.70919 
L 266.865809 226.435749 
L 254.196364 228.162308 
L 249.797251 227.669005 
L 245.222173 225.942447 
L 242.406741 223.475934 
L 240.82306 221.749376 
L 243.990421 221.996027 
L 249.093392 223.475934 
L 256.131973 225.942447 
L 262.99459 228.65561 
L 268.977384 231.615425 
L 273.90439 233.341983 
L 280.063149 235.315193 
L 281.470865 235.315193 
L 288.157517 228.902261 
L 283.582439 226.435749 
L 283.934368 219.776166 
L 281.2949 211.143373 
L 279.35929 202.757232 
L 273.376497 194.371091 
L 270.3851 188.944764 
L 269.857206 186.2316 
L 270.912993 184.998344 
L 273.376497 184.258391 
L 270.209135 181.051925 
L 262.642661 176.612203 
L 254.196364 171.185876 
L 251.73286 167.97941 
L 244.34235 162.553083 
L 241.702882 159.099966 
L 244.166386 157.373408 
L 251.556896 156.880105 
L 261.938803 157.620059 
L 271.616851 158.853315 
L 280.591042 159.83992 
L 288.68541 161.073176 
L 297.307672 161.81313 
L 296.603814 162.059781 
L 293.612417 161.566478 
L 292.204701 162.553083 
L 289.037339 162.553083 
L 287.981552 163.786339 
L 289.565233 164.772944 
L 292.908559 165.759549 
L 297.835565 166.992805 
L 303.642395 168.226061 
L 310.329047 169.95262 
L 317.895521 172.172481 
L 324.582173 174.638993 
L 330.213038 177.845459 
L 334.260222 180.805274 
L 339.715122 184.505042 
L 345.521951 188.20481 
L 351.32878 191.657927 
L 356.959645 194.617742 
L 362.59051 197.330905 
L 367.869446 200.044069 
L 372.620488 202.757232 
L 377.547494 205.717047 
L 382.474501 208.923512 
L 386.873614 211.390025 
L 390.392905 213.856537 
L 391.976585 216.5697 
L 394.616053 218.049608 
L 396.551663 219.776166 
L 397.431486 221.009422 
L 397.959379 222.735981 
L 398.487273 227.669005 
L 398.487273 215.583095 
L 398.487273 260.96692 
L 396.727627 263.186781 
L 391.448692 264.420037 
L 385.993792 265.15999 
L 379.30714 264.420037 
L 372.444523 263.186781 
L 365.405942 261.213571 
L 357.839468 258.747059 
L 349.921064 255.787244 
L 331.444789 248.387707 
L 324.406208 245.181242 
L 316.839734 241.974776 
L 308.393437 238.521659 
L 298.01153 234.82189 
L 287.101729 230.382169 
L 275.664035 226.189098 
L 265.282129 222.735981 
L 255.956009 220.269469 
L 237.479734 216.5697 
L 228.505543 215.089793 
L 220.411175 213.116583 
L 212.316807 211.636676 
L 204.574368 209.663466 
L 197.359823 208.183559 
L 192.256851 207.690256 
L 184.866341 206.703651 
L 177.651796 204.483791 
L 169.381463 202.26393 
L 161.814989 199.797417 
L 156.712018 198.31751 
L 146.68204 196.097649 
L 144.922395 195.850998 
L 145.450288 195.604347 
L 147.209933 195.850998 
L 148.969579 196.3443 
L 151.433082 197.824208 
L 154.248514 201.277325 
L 159.879379 206.703651 
L 168.85357 211.883327 
L 188.561596 221.749376 
L 198.767539 226.435749 
L 208.797517 230.382169 
L 219.355388 233.835286 
L 231.320976 237.288403 
L 243.638492 240.494868 
L 254.548293 243.701334 
L 264.402306 246.167847 
L 272.672639 248.387707 
L 279.35929 250.360917 
L 284.814191 251.347522 
L 289.917162 252.087476 
L 294.316275 252.087476 
L 298.539424 251.100871 
L 303.290466 249.620964 
L 316.135876 245.921195 
L 324.054279 244.441288 
L 335.491973 242.961381 
L 348.689313 241.974776 
L 359.599113 240.74152 
L 372.444523 240.248217 
L 385.289933 240.988171 
L 391.800621 239.508264 
L 395.143947 237.781705 
L 397.079557 233.341983 
L 397.255521 231.615425 
L 396.903592 229.888866 
L 396.199734 227.915656 
L 396.023769 226.435749 
L 397.255521 224.215888 
L 395.67184 220.762771 
L 394.264124 217.063003 
L 393.384302 212.869932 
L 396.199734 205.717047 
L 396.727627 202.26393 
L 397.959379 197.330905 
L 396.727627 195.850998 
L 395.143947 195.357695 
L 390.920798 194.371091 
L 390.040976 195.111044 
L 389.337118 196.590952 
L 388.28133 196.590952 
L 388.809224 195.357695 
L 390.040976 193.384486 
L 392.504479 190.917973 
L 395.495876 188.698113 
L 398.135344 184.011739 
L 398.311308 184.505042 
L 398.311308 186.2316 
L 398.487273 188.451461 
L 398.487273 199.304115 
L 398.487273 163.046386 
L 393.208337 159.593269 
L 379.659069 155.400198 
L 363.118404 149.72722 
L 351.856674 146.767405 
L 339.715122 144.054242 
L 328.453392 142.081032 
L 315.783947 140.354474 
L 304.346253 139.121218 
L 290.796984 137.394659 
L 287.277694 137.394659 
L 276.015965 136.408054 
L 265.634058 135.6681 
L 257.187761 136.161403 
L 249.269357 137.148008 
L 241.878847 138.381264 
L 237.831663 140.847776 
L 232.200798 142.574335 
L 229.913259 145.7808 
L 230.441153 149.480569 
L 232.024834 154.413593 
L 237.479734 162.059781 
L 241.350953 166.992805 
L 245.046208 170.692574 
L 250.501109 174.638993 
L 263.346519 182.778483 
L 270.209135 188.451461 
L 275.136142 193.137834 
L 280.942971 197.577556 
L 286.221907 201.770627 
L 289.389268 203.743837 
L 289.213304 205.717047 
L 286.925765 207.936908 
L 288.861375 208.923512 
L 289.037339 208.676861 
L 289.565233 209.416815 
L 290.269091 209.663466 
L 292.204701 209.170164 
L 294.316275 208.183559 
L 295.372062 205.963698 
L 296.251885 203.003883 
L 299.419246 198.810812 
L 303.290466 196.097649 
L 307.161685 193.631137 
L 312.440621 191.411276 
L 317.191663 188.944764 
L 320.359024 185.984949 
L 323.526386 182.778483 
L 325.813925 179.572017 
L 329.157251 176.858854 
L 331.09286 170.939225 
L 332.500576 168.966015 
L 332.324612 166.746154 
L 333.908293 165.759549 
L 334.260222 163.539688 
L 336.019867 161.566478 
L 336.019867 161.566478 
" clip-path="url(#pd5576dc0d0)" style="fill: none; stroke: #00fa9a; stroke-width: 1.5; stroke-linecap: square"/>
   </g>
   <g id="line2d_15">
    <path d="M 144.394501 173.159086 
" clip-path="url(#pd5576dc0d0)" style="fill: none; stroke: #00fa9a; stroke-width: 1.5; stroke-linecap: square"/>
    <defs>
     <path id="mdccbeb32c5" d="M 0 5 
C 1.326016 5 2.597899 4.473168 3.535534 3.535534 
C 4.473168 2.597899 5 1.326016 5 0 
C 5 -1.326016 4.473168 -2.597899 3.535534 -3.535534 
C 2.597899 -4.473168 1.326016 -5 0 -5 
C -1.326016 -5 -2.597899 -4.473168 -3.535534 -3.535534 
C -4.473168 -2.597899 -5 -1.326016 -5 0 
C -5 1.326016 -4.473168 2.597899 -3.535534 3.535534 
C -2.597899 4.473168 -1.326016 5 0 5 
z
" style="stroke: #00fa9a"/>
    </defs>
    <g clip-path="url(#pd5576dc0d0)">
     <use xlink:href="#mdccbeb32c5" x="144.394501" y="173.159086" style="fill: #00fa9a; stroke: #00fa9a"/>
    </g>
   </g>
   <g id="line2d_16">
    <path d="M 336.019867 161.566478 
" clip-path="url(#pd5576dc0d0)" style="fill: none; stroke: #00fa9a; stroke-width: 1.5; stroke-linecap: square"/>
    <defs>
     <path id="mdcb8cbb5cb" d="M -5 5 
L 5 5 
L 5 -5 
L -5 -5 
z
" style="stroke: #00fa9a; stroke-linejoin: miter"/>
    </defs>
    <g clip-path="url(#pd5576dc0d0)">
     <use xlink:href="#mdcb8cbb5cb" x="336.019867" y="161.566478" style="fill: #00fa9a; stroke: #00fa9a; stroke-linejoin: miter"/>
    </g>
   </g>
   <g id="line2d_17">
    <path d="M 198.239645 178.338761 
L 194.896319 176.612203 
L 191.0251 174.638993 
L 188.737561 173.652388 
L 187.505809 172.665783 
L 187.857738 172.665783 
L 188.561596 172.912435 
L 189.793348 173.159086 
L 191.377029 173.652388 
L 194.016497 174.145691 
L 194.720355 173.899039 
L 194.720355 173.405737 
L 194.192461 173.159086 
L 193.664568 172.665783 
L 193.664568 172.419132 
L 194.54439 172.665783 
L 194.896319 172.912435 
L 195.072284 172.912435 
L 195.776142 173.159086 
L 196.655965 173.405737 
L 198.063681 173.652388 
L 198.943503 173.899039 
L 200.879113 173.899039 
L 203.166652 174.145691 
L 205.80612 174.638993 
L 207.565765 175.378947 
L 208.093659 177.105505 
L 209.149446 178.338761 
L 211.788914 180.805274 
L 215.660133 184.751693 
L 219.355388 186.478252 
L 229.737295 198.070859 
L 235.36816 201.277325 
L 246.629889 210.896722 
L 260.531086 221.502725 
L 274.608248 232.848681 
L 290.972949 244.687939 
L 309.273259 258.253756 
L 327.221641 268.859759 
L 344.642129 275.519342 
L 359.775078 275.765993 
L 371.036807 268.859759 
L 376.667672 259.240361 
L 377.195565 249.620964 
L 375.787849 242.221427 
L 375.611885 238.028356 
L 377.899424 235.808495 
L 382.82643 234.081937 
L 386.69765 232.355378 
L 387.401508 228.162308 
L 390.21694 223.229283 
L 394.264124 218.296259 
L 396.375698 213.856537 
L 397.431486 210.896722 
L 397.959379 208.923512 
L 398.135344 207.196954 
L 398.311308 205.717047 
L 398.487273 203.743837 
L 398.487273 201.030673 
L 398.487273 196.837603 
L 398.487273 192.397881 
L 398.487273 187.464856 
L 398.487273 181.051925 
L 398.487273 174.885644 
L 398.487273 169.459317 
L 398.487273 163.293037 
L 398.487273 157.126757 
L 398.487273 150.960476 
L 398.487273 145.287498 
L 398.487273 140.354474 
L 398.487273 136.408054 
L 398.487273 133.694891 
L 398.487273 132.461635 
L 396.551663 131.721681 
L 393.912195 131.47503 
L 392.504479 131.721681 
L 389.865011 131.47503 
L 387.929401 130.981727 
L 385.113969 130.488425 
L 383.706253 129.995122 
L 379.30714 129.255169 
L 375.083991 128.515215 
L 368.749268 127.775261 
L 363.470333 127.281959 
L 358.543326 127.775261 
L 353.088426 128.761866 
L 349.921064 130.735076 
L 345.170022 132.954937 
L 342.002661 135.421449 
L 339.187228 137.887961 
L 337.251619 140.354474 
L 334.084257 142.081032 
L 332.148647 143.560939 
L 332.148647 146.274103 
L 331.620754 149.233918 
L 331.444789 152.933686 
" clip-path="url(#pd5576dc0d0)" style="fill: none; stroke: #008000; stroke-width: 1.5; stroke-linecap: square"/>
   </g>
   <g id="line2d_18">
    <path d="M 198.239645 178.338761 
" clip-path="url(#pd5576dc0d0)" style="fill: none; stroke: #008000; stroke-width: 1.5; stroke-linecap: square"/>
    <defs>
     <path id="m2371c43dde" d="M 0 5 
C 1.326016 5 2.597899 4.473168 3.535534 3.535534 
C 4.473168 2.597899 5 1.326016 5 0 
C 5 -1.326016 4.473168 -2.597899 3.535534 -3.535534 
C 2.597899 -4.473168 1.326016 -5 0 -5 
C -1.326016 -5 -2.597899 -4.473168 -3.535534 -3.535534 
C -4.473168 -2.597899 -5 -1.326016 -5 0 
C -5 1.326016 -4.473168 2.597899 -3.535534 3.535534 
C -2.597899 4.473168 -1.326016 5 0 5 
z
" style="stroke: #008000"/>
    </defs>
    <g clip-path="url(#pd5576dc0d0)">
     <use xlink:href="#m2371c43dde" x="198.239645" y="178.338761" style="fill: #008000; stroke: #008000"/>
    </g>
   </g>
   <g id="line2d_19">
    <path d="M 331.444789 152.933686 
" clip-path="url(#pd5576dc0d0)" style="fill: none; stroke: #008000; stroke-width: 1.5; stroke-linecap: square"/>
    <defs>
     <path id="md54676808c" d="M -5 5 
L 5 5 
L 5 -5 
L -5 -5 
z
" style="stroke: #008000; stroke-linejoin: miter"/>
    </defs>
    <g clip-path="url(#pd5576dc0d0)">
     <use xlink:href="#md54676808c" x="331.444789" y="152.933686" style="fill: #008000; stroke: #008000; stroke-linejoin: miter"/>
    </g>
   </g>
   <g id="line2d_20">
    <path d="M 187.681774 163.046386 
L 184.338448 160.826525 
L 181.171086 158.853315 
L 181.171086 158.360013 
L 182.050909 158.853315 
L 182.754767 159.099966 
L 182.754767 159.099966 
L 185.5702 160.579874 
L 186.977916 161.073176 
L 193.136674 162.799735 
L 194.368426 162.799735 
L 195.600177 163.046386 
L 196.48 163.046386 
L 197.711752 163.293037 
L 199.471397 163.786339 
L 204.398404 164.279642 
L 205.630155 164.032991 
L 206.861907 163.539688 
L 209.149446 162.799735 
L 213.372594 161.81313 
L 219.179424 161.566478 
L 226.921863 161.81313 
L 237.127805 162.799735 
L 250.325144 166.252852 
L 260.531086 166.0062 
L 271.616851 168.966015 
L 286.397871 171.432527 
L 288.861375 173.159086 
L 292.028736 174.638993 
L 293.612417 176.612203 
L 299.243282 179.572017 
L 309.449224 182.778483 
L 323.878315 184.751693 
L 343.586341 186.971554 
L 385.465898 193.137834 
L 392.15255 193.631137 
L 395.319911 194.124439 
L 396.903592 200.044069 
L 397.783415 206.703651 
L 398.135344 208.183559 
L 398.487273 214.59649 
L 398.487273 215.336444 
L 398.487273 53.533245 
L 398.487273 53.533245 
L 353.440355 53.533245 
L 353.26439 54.766501 
L 353.792284 60.68613 
L 354.496142 67.099062 
L 354.848071 74.251947 
L 351.152816 78.93832 
L 343.938271 85.104601 
L 336.89969 90.037625 
L 327.221641 94.970649 
L 318.599379 99.16372 
L 306.985721 103.603442 
L 273.90439 116.922608 
L 267.393703 118.895818 
L 261.234945 120.375725 
L 254.900222 121.36233 
L 248.389534 121.608981 
L 240.119202 122.348935 
L 235.720089 123.33554 
L 232.376763 124.568796 
L 232.376763 126.788657 
L 232.552727 127.775261 
L 230.617118 130.981727 
L 232.024834 134.434844 
L 236.599911 137.887961 
L 239.415344 141.834381 
L 245.398137 145.287498 
L 249.973215 149.72722 
L 255.252151 154.166942 
L 262.99459 157.373408 
L 270.209135 160.579874 
L 276.367894 165.512898 
L 285.869978 170.692574 
L 292.908559 173.159086 
L 297.835565 174.638993 
L 302.762572 175.872249 
L 306.985721 178.09211 
L 314.024302 179.325366 
L 320.886918 180.311971 
L 328.453392 180.805274 
L 335.316009 181.051925 
L 342.530554 181.051925 
L 354.320177 182.778483 
L 366.461729 185.244995 
L 372.444523 185.244995 
L 377.37153 184.998344 
L 381.770643 184.998344 
L 383.354324 183.765088 
L 384.586075 183.271786 
L 383.706253 181.791878 
L 381.770643 180.06532 
L 379.835033 178.585413 
L 376.315743 177.105505 
L 376.667672 176.858854 
L 374.204169 174.638993 
L 373.324346 171.92583 
L 370.508914 168.719364 
L 366.813659 165.019596 
L 357.13561 157.620059 
L 351.504745 154.166942 
L 345.697916 150.960476 
L 338.659335 147.75401 
L 328.277428 143.560939 
L 316.31184 139.121218 
L 311.912727 137.394659 
L 306.809756 135.6681 
L 302.410643 133.694891 
L 299.243282 131.721681 
L 295.899956 129.50182 
L 290.796984 126.295354 
L 287.101729 123.088888 
L 282.878581 120.375725 
L 280.415078 118.649166 
L 275.84 116.675957 
L 272.848603 115.689352 
L 269.153348 114.702747 
L 266.865809 114.456096 
L 267.569667 115.936003 
L 270.209135 117.662561 
L 273.90439 119.882422 
L 275.84 120.869027 
L 277.951574 121.608981 
L 277.951574 121.36233 
L 281.470865 120.622376 
L 283.934368 120.622376 
L 287.277694 121.36233 
L 295.723991 123.828842 
L 308.745366 127.035308 
L 324.054279 130.241774 
L 329.333215 130.981727 
L 335.140044 131.968332 
L 342.882483 134.681496 
L 349.569135 136.161403 
L 356.255787 135.914752 
L 362.766475 137.148008 
L 382.122572 142.327683 
L 387.401508 143.560939 
L 393.032373 147.014057 
L 395.847805 148.247313 
L 397.255521 148.493964 
L 398.311308 148.987266 
L 398.487273 148.247313 
L 398.487273 140.354474 
L 397.079557 138.874566 
L 392.328514 137.64131 
L 390.744834 137.394659 
L 376.843636 133.44824 
L 370.508914 131.228379 
L 364.174191 129.255169 
L 367.517517 131.228379 
L 365.229978 130.735076 
L 362.414545 129.995122 
L 359.951042 129.50182 
L 358.191397 129.008518 
L 350.272993 125.555401 
L 349.217206 124.568796 
L 349.7451 124.568796 
L 350.272993 125.062098 
L 350.624922 125.555401 
L 351.68071 126.048703 
L 352.912461 126.788657 
L 352.912461 127.281959 
L 354.672106 128.021913 
L 355.551929 128.515215 
L 359.599113 130.241774 
L 362.062616 130.241774 
L 363.118404 129.748471 
L 365.405942 129.748471 
L 366.989623 129.50182 
L 374.028204 131.721681 
L 380.362927 134.188193 
L 381.242749 133.941542 
L 384.058182 134.434844 
L 385.465898 134.434844 
L 386.521685 134.681496 
L 387.753437 134.681496 
L 387.401508 134.188193 
L 385.641863 133.44824 
L 384.938004 133.201588 
L 383.178359 132.954937 
L 380.89082 132.954937 
L 377.899424 132.461635 
L 374.028204 131.47503 
L 371.740665 130.981727 
L 365.405942 129.008518 
L 362.766475 128.021913 
L 354.672106 126.048703 
L 354.144213 126.295354 
L 353.088426 126.048703 
L 352.384568 126.295354 
L 352.032639 126.295354 
L 352.384568 126.295354 
L 352.560532 126.048703 
L 355.2 125.062098 
L 355.903858 123.582191 
L 356.607716 123.088888 
L 356.959645 122.102283 
L 355.551929 121.36233 
L 354.672106 120.622376 
L 353.616319 120.129074 
L 351.856674 119.635771 
L 351.32878 119.38912 
L 350.624922 119.38912 
L 350.624922 119.635771 
L 350.976851 119.635771 
L 351.856674 120.375725 
L 352.912461 120.869027 
L 353.616319 121.608981 
L 353.792284 121.855632 
L 355.375965 122.842237 
L 356.431752 123.33554 
L 357.839468 123.828842 
L 361.710687 124.815447 
L 364.702084 125.308749 
L 366.1098 125.555401 
L 368.749268 125.555401 
L 369.453126 125.308749 
L 370.156984 125.555401 
L 370.684878 125.308749 
L 371.212772 124.568796 
L 370.508914 123.582191 
L 369.629091 123.088888 
L 369.101197 122.348935 
L 366.813659 121.115679 
L 365.405942 120.622376 
L 363.646297 119.882422 
L 358.71929 118.402515 
L 355.903858 117.909213 
L 355.903858 117.909213 
" clip-path="url(#pd5576dc0d0)" style="fill: none; stroke: #ffd700; stroke-width: 1.5; stroke-linecap: square"/>
   </g>
   <g id="line2d_21">
    <path d="M 187.681774 163.046386 
" clip-path="url(#pd5576dc0d0)" style="fill: none; stroke: #ffd700; stroke-width: 1.5; stroke-linecap: square"/>
    <defs>
     <path id="m98668d558b" d="M 0 5 
C 1.326016 5 2.597899 4.473168 3.535534 3.535534 
C 4.473168 2.597899 5 1.326016 5 0 
C 5 -1.326016 4.473168 -2.597899 3.535534 -3.535534 
C 2.597899 -4.473168 1.326016 -5 0 -5 
C -1.326016 -5 -2.597899 -4.473168 -3.535534 -3.535534 
C -4.473168 -2.597899 -5 -1.326016 -5 0 
C -5 1.326016 -4.473168 2.597899 -3.535534 3.535534 
C -2.597899 4.473168 -1.326016 5 0 5 
z
" style="stroke: #ffd700"/>
    </defs>
    <g clip-path="url(#pd5576dc0d0)">
     <use xlink:href="#m98668d558b" x="187.681774" y="163.046386" style="fill: #ffd700; stroke: #ffd700"/>
    </g>
   </g>
   <g id="line2d_22">
    <path d="M 355.903858 117.909213 
" clip-path="url(#pd5576dc0d0)" style="fill: none; stroke: #ffd700; stroke-width: 1.5; stroke-linecap: square"/>
    <defs>
     <path id="mddc4c865c9" d="M -5 5 
L 5 5 
L 5 -5 
L -5 -5 
z
" style="stroke: #ffd700; stroke-linejoin: miter"/>
    </defs>
    <g clip-path="url(#pd5576dc0d0)">
     <use xlink:href="#mddc4c865c9" x="355.903858" y="117.909213" style="fill: #ffd700; stroke: #ffd700; stroke-linejoin: miter"/>
    </g>
   </g>
   <g id="line2d_23">
    <path d="M 326.869712 230.382169 
L 324.582173 229.148912 
L 322.822528 228.408959 
L 320.710953 227.422354 
L 318.775344 226.6824 
L 317.015698 226.189098 
L 315.432018 225.449144 
L 314.024302 225.449144 
L 313.320443 225.449144 
L 312.264656 225.449144 
L 311.032905 225.942447 
L 310.153082 226.435749 
L 309.097295 226.6824 
L 307.689579 227.175703 
L 305.753969 227.175703 
L 303.818359 226.929051 
L 301.882749 226.929051 
L 299.243282 226.435749 
L 296.07592 225.942447 
L 291.676807 224.955842 
L 286.7498 224.215888 
L 281.822794 223.229283 
L 276.895787 222.48933 
L 272.144745 221.749376 
L 267.217738 220.762771 
L 262.290732 219.776166 
L 257.363725 218.789561 
L 251.204967 217.063003 
L 244.34235 215.336444 
L 236.95184 213.116583 
L 228.681508 210.896722 
L 219.883282 208.43021 
L 211.788914 205.717047 
L 199.295432 203.990488 
L 189.793348 202.26393 
L 180.819157 201.030673 
L 173.604612 200.537371 
L 164.806386 201.277325 
L 158.999557 203.250534 
L 154.776408 205.717047 
L 152.488869 208.923512 
L 153.192727 212.623281 
L 154.952373 216.323049 
L 160.055344 218.54291 
L 166.91796 221.009422 
L 172.724789 223.722586 
L 176.947938 225.449144 
L 178.883548 226.929051 
L 176.947938 227.915656 
L 173.252683 227.175703 
L 171.493038 227.669005 
L 173.780576 228.902261 
L 177.827761 230.875471 
L 182.226874 233.341983 
L 181.347051 232.602029 
L 189.08949 236.055147 
L 192.432816 237.781705 
L 196.48 240.494868 
L 198.239645 242.714729 
L 197.887716 244.194637 
L 195.424213 245.181242 
L 192.784745 246.9078 
L 193.312639 248.88101 
L 189.265455 249.127661 
L 190.145277 251.100871 
L 199.295432 255.787244 
L 204.398404 258.747059 
L 207.741729 260.96692 
L 211.436984 263.926734 
L 214.252417 266.393246 
L 213.372594 267.873154 
L 209.501375 268.119805 
L 203.694545 267.379851 
L 197.183858 266.146595 
L 189.617384 264.173385 
L 182.226874 262.446827 
L 175.012328 260.720268 
" clip-path="url(#pd5576dc0d0)" style="fill: none; stroke: #800080; stroke-width: 1.5; stroke-linecap: square"/>
   </g>
   <g id="line2d_24">
    <path d="M 326.869712 230.382169 
" clip-path="url(#pd5576dc0d0)" style="fill: none; stroke: #800080; stroke-width: 1.5; stroke-linecap: square"/>
    <defs>
     <path id="mb30733808d" d="M 0 5 
C 1.326016 5 2.597899 4.473168 3.535534 3.535534 
C 4.473168 2.597899 5 1.326016 5 0 
C 5 -1.326016 4.473168 -2.597899 3.535534 -3.535534 
C 2.597899 -4.473168 1.326016 -5 0 -5 
C -1.326016 -5 -2.597899 -4.473168 -3.535534 -3.535534 
C -4.473168 -2.597899 -5 -1.326016 -5 0 
C -5 1.326016 -4.473168 2.597899 -3.535534 3.535534 
C -2.597899 4.473168 -1.326016 5 0 5 
z
" style="stroke: #800080"/>
    </defs>
    <g clip-path="url(#pd5576dc0d0)">
     <use xlink:href="#mb30733808d" x="326.869712" y="230.382169" style="fill: #800080; stroke: #800080"/>
    </g>
   </g>
   <g id="line2d_25">
    <path d="M 175.012328 260.720268 
" clip-path="url(#pd5576dc0d0)" style="fill: none; stroke: #800080; stroke-width: 1.5; stroke-linecap: square"/>
    <defs>
     <path id="m3969854fbb" d="M -5 5 
L 5 5 
L 5 -5 
L -5 -5 
z
" style="stroke: #800080; stroke-linejoin: miter"/>
    </defs>
    <g clip-path="url(#pd5576dc0d0)">
     <use xlink:href="#m3969854fbb" x="175.012328" y="260.720268" style="fill: #800080; stroke: #800080; stroke-linejoin: miter"/>
    </g>
   </g>
   <g id="line2d_26">
    <path d="M 247.861641 183.518437 
L 245.046208 182.285181 
L 241.702882 180.805274 
L 240.999024 179.572017 
L 246.629889 173.405737 
L 242.75867 172.172481 
L 239.591308 171.185876 
L 237.831663 170.445922 
L 233.608514 169.212666 
L 229.913259 167.97941 
L 226.921863 166.746154 
L 222.698714 166.0062 
L 218.65153 164.772944 
L 215.132239 164.032991 
L 211.436984 162.799735 
L 208.093659 161.566478 
L 204.398404 160.333222 
L 201.582971 159.346617 
L 198.41561 158.360013 
L 195.776142 157.86671 
L 193.136674 157.373408 
L 190.145277 157.126757 
L 186.450022 157.373408 
L 181.171086 157.373408 
L 175.364257 157.620059 
L 169.733392 158.360013 
L 164.278492 159.099966 
L 156.360089 159.099966 
L 150.905188 161.073176 
L 147.209933 163.539688 
L 143.162749 166.499503 
L 140.347317 169.95262 
L 139.643459 174.145691 
L 137.707849 178.338761 
L 136.300133 183.271786 
L 134.364523 188.698113 
L 132.252949 193.631137 
L 130.493304 199.057464 
L 128.909623 204.977093 
L 128.909623 211.143373 
L 126.622084 216.323049 
L 125.918226 221.502725 
L 127.501907 226.435749 
L 127.677871 230.875471 
L 130.317339 235.808495 
L 132.780843 240.001566 
L 136.828027 244.441288 
L 143.866608 250.114266 
L 149.849401 255.04729 
L 156.887982 259.487012 
L 164.102528 264.173385 
L 170.613215 267.873154 
L 176.771973 271.07962 
L 181.874945 273.546132 
L 185.5702 275.026039 
L 187.329845 275.765993 
L 188.033703 276.012644 
L 187.681774 275.27269 
L 187.505809 274.286085 
L 188.209667 273.546132 
L 186.977916 272.066224 
L 185.922129 270.093015 
L 184.338448 268.119805 
L 183.63459 266.146595 
L 181.874945 263.926734 
L 179.76337 261.213571 
L 176.947938 258.500407 
L 173.780576 255.540593 
L 170.261286 252.334127 
L 166.390067 249.127661 
L 162.870776 245.921195 
L 158.295698 242.468078 
" clip-path="url(#pd5576dc0d0)" style="fill: none; stroke: #87cefa; stroke-width: 1.5; stroke-linecap: square"/>
   </g>
   <g id="line2d_27">
    <path d="M 247.861641 183.518437 
" clip-path="url(#pd5576dc0d0)" style="fill: none; stroke: #87cefa; stroke-width: 1.5; stroke-linecap: square"/>
    <defs>
     <path id="m92577dd03b" d="M 0 5 
C 1.326016 5 2.597899 4.473168 3.535534 3.535534 
C 4.473168 2.597899 5 1.326016 5 0 
C 5 -1.326016 4.473168 -2.597899 3.535534 -3.535534 
C 2.597899 -4.473168 1.326016 -5 0 -5 
C -1.326016 -5 -2.597899 -4.473168 -3.535534 -3.535534 
C -4.473168 -2.597899 -5 -1.326016 -5 0 
C -5 1.326016 -4.473168 2.597899 -3.535534 3.535534 
C -2.597899 4.473168 -1.326016 5 0 5 
z
" style="stroke: #87cefa"/>
    </defs>
    <g clip-path="url(#pd5576dc0d0)">
     <use xlink:href="#m92577dd03b" x="247.861641" y="183.518437" style="fill: #87cefa; stroke: #87cefa"/>
    </g>
   </g>
   <g id="line2d_28">
    <path d="M 158.295698 242.468078 
" clip-path="url(#pd5576dc0d0)" style="fill: none; stroke: #87cefa; stroke-width: 1.5; stroke-linecap: square"/>
    <defs>
     <path id="maea06369c9" d="M -5 5 
L 5 5 
L 5 -5 
L -5 -5 
z
" style="stroke: #87cefa; stroke-linejoin: miter"/>
    </defs>
    <g clip-path="url(#pd5576dc0d0)">
     <use xlink:href="#maea06369c9" x="158.295698" y="242.468078" style="fill: #87cefa; stroke: #87cefa; stroke-linejoin: miter"/>
    </g>
   </g>
   <g id="line2d_29">
    <path d="M 303.642395 198.564161 
L 301.882749 198.810812 
L 299.595211 198.564161 
L 296.603814 198.31751 
L 293.964346 198.070859 
L 290.62102 197.577556 
L 287.277694 197.084254 
L 284.110333 196.590952 
L 280.942971 196.097649 
L 278.655432 195.604347 
L 275.488071 195.111044 
L 272.144745 194.617742 
L 268.273525 193.877788 
L 264.402306 192.891183 
L 260.003193 191.904578 
L 256.307938 191.164625 
L 252.612683 190.424671 
L 248.21357 189.438066 
L 244.34235 188.698113 
L 239.767273 187.464856 
L 234.840266 185.738298 
L 230.265188 184.011739 
L 224.634324 181.791878 
L 216.363991 179.325366 
L 207.741729 176.858854 
L 200.35122 174.638993 
L 192.432816 172.172481 
L 185.218271 169.459317 
L 176.068115 167.239456 
L 168.325676 165.266247 
L 162.166918 164.032991 
L 156.00816 163.293037 
L 151.081153 162.799735 
L 145.802217 162.553083 
L 142.282927 162.799735 
L 138.587672 162.799735 
L 135.772239 162.799735 
L 134.012594 163.293037 
L 132.428914 163.786339 
L 131.725055 164.279642 
L 130.669268 164.772944 
L 130.141375 164.772944 
L 129.789446 164.772944 
L 131.197162 164.279642 
L 135.772239 162.553083 
L 134.892417 161.566478 
L 132.604878 160.579874 
L 131.021197 159.83992 
L 128.0298 159.099966 
L 125.390333 158.853315 
L 124.51051 158.853315 
L 126.622084 159.593269 
L 130.669268 160.579874 
L 136.124169 161.319827 
L 139.467494 161.566478 
L 144.570466 162.553083 
L 150.553259 163.539688 
L 156.00816 164.279642 
L 161.990953 165.019596 
L 166.390067 165.512898 
L 170.78918 165.512898 
L 174.660399 165.759549 
L 177.651796 165.759549 
L 181.171086 166.0062 
L 183.986519 166.0062 
L 186.098093 166.0062 
L 188.033703 166.252852 
L 189.969313 166.499503 
L 190.673171 166.0062 
L 191.377029 166.252852 
L 192.080887 166.499503 
L 192.080887 166.746154 
L 192.080887 166.746154 
L 192.080887 166.992805 
L 192.080887 167.239456 
L 191.0251 167.239456 
L 190.497206 167.486108 
L 189.441419 167.486108 
L 188.385632 167.486108 
L 187.681774 167.239456 
L 187.329845 167.239456 
L 186.274058 166.992805 
L 185.746164 166.746154 
L 184.690377 166.499503 
L 183.63459 166.0062 
L 182.578803 165.759549 
L 181.523016 165.512898 
L 181.874945 165.512898 
L 181.874945 165.019596 
L 182.050909 164.526293 
" clip-path="url(#pd5576dc0d0)" style="fill: none; stroke: #ffa500; stroke-width: 1.5; stroke-linecap: square"/>
   </g>
   <g id="line2d_30">
    <path d="M 303.642395 198.564161 
" clip-path="url(#pd5576dc0d0)" style="fill: none; stroke: #ffa500; stroke-width: 1.5; stroke-linecap: square"/>
    <defs>
     <path id="m398cafc92d" d="M 0 5 
C 1.326016 5 2.597899 4.473168 3.535534 3.535534 
C 4.473168 2.597899 5 1.326016 5 0 
C 5 -1.326016 4.473168 -2.597899 3.535534 -3.535534 
C 2.597899 -4.473168 1.326016 -5 0 -5 
C -1.326016 -5 -2.597899 -4.473168 -3.535534 -3.535534 
C -4.473168 -2.597899 -5 -1.326016 -5 0 
C -5 1.326016 -4.473168 2.597899 -3.535534 3.535534 
C -2.597899 4.473168 -1.326016 5 0 5 
z
" style="stroke: #ffa500"/>
    </defs>
    <g clip-path="url(#pd5576dc0d0)">
     <use xlink:href="#m398cafc92d" x="303.642395" y="198.564161" style="fill: #ffa500; stroke: #ffa500"/>
    </g>
   </g>
   <g id="line2d_31">
    <path d="M 182.050909 164.526293 
" clip-path="url(#pd5576dc0d0)" style="fill: none; stroke: #ffa500; stroke-width: 1.5; stroke-linecap: square"/>
    <defs>
     <path id="m069893ca54" d="M -5 5 
L 5 5 
L 5 -5 
L -5 -5 
z
" style="stroke: #ffa500; stroke-linejoin: miter"/>
    </defs>
    <g clip-path="url(#pd5576dc0d0)">
     <use xlink:href="#m069893ca54" x="182.050909" y="164.526293" style="fill: #ffa500; stroke: #ffa500; stroke-linejoin: miter"/>
    </g>
   </g>
   <g id="patch_3">
    <path d="M 57.6 307.584 
L 57.6 41.472 
" style="fill: none; stroke: #000000; stroke-width: 0.8; stroke-linejoin: miter; stroke-linecap: square"/>
   </g>
   <g id="patch_4">
    <path d="M 57.6 307.584 
L 414.72 307.584 
" style="fill: none; stroke: #000000; stroke-width: 0.8; stroke-linejoin: miter; stroke-linecap: square"/>
   </g>
   <g id="legend_1">
    <g id="patch_5">
     <path d="M 282.164531 119.523563 
L 404.22 119.523563 
Q 407.22 119.523563 407.22 116.523563 
L 407.22 51.972 
Q 407.22 48.972 404.22 48.972 
L 282.164531 48.972 
Q 279.164531 48.972 279.164531 51.972 
L 279.164531 116.523563 
Q 279.164531 119.523563 282.164531 119.523563 
z
" style="fill: #ffffff; opacity: 0.8; stroke: #cccccc; stroke-linejoin: miter"/>
    </g>
    <g id="line2d_32">
     <path d="M 285.164531 61.119656 
L 300.164531 61.119656 
L 315.164531 61.119656 
" style="fill: none; stroke: #000000; stroke-width: 1.5; stroke-linecap: square"/>
    </g>
    <g id="text_7">
     <!-- Trajectory -->
     <g transform="translate(327.164531 66.369656)scale(0.15 -0.15)">
      <defs>
       <path id="DejaVuSans-54" d="M -19 4666 
L 3928 4666 
L 3928 4134 
L 2272 4134 
L 2272 0 
L 1638 0 
L 1638 4134 
L -19 4134 
L -19 4666 
z
" transform="scale(0.015625)"/>
       <path id="DejaVuSans-72" d="M 2631 2963 
Q 2534 3019 2420 3045 
Q 2306 3072 2169 3072 
Q 1681 3072 1420 2755 
Q 1159 2438 1159 1844 
L 1159 0 
L 581 0 
L 581 3500 
L 1159 3500 
L 1159 2956 
Q 1341 3275 1631 3429 
Q 1922 3584 2338 3584 
Q 2397 3584 2469 3576 
Q 2541 3569 2628 3553 
L 2631 2963 
z
" transform="scale(0.015625)"/>
       <path id="DejaVuSans-61" d="M 2194 1759 
Q 1497 1759 1228 1600 
Q 959 1441 959 1056 
Q 959 750 1161 570 
Q 1363 391 1709 391 
Q 2188 391 2477 730 
Q 2766 1069 2766 1631 
L 2766 1759 
L 2194 1759 
z
M 3341 1997 
L 3341 0 
L 2766 0 
L 2766 531 
Q 2569 213 2275 61 
Q 1981 -91 1556 -91 
Q 1019 -91 701 211 
Q 384 513 384 1019 
Q 384 1609 779 1909 
Q 1175 2209 1959 2209 
L 2766 2209 
L 2766 2266 
Q 2766 2663 2505 2880 
Q 2244 3097 1772 3097 
Q 1472 3097 1187 3025 
Q 903 2953 641 2809 
L 641 3341 
Q 956 3463 1253 3523 
Q 1550 3584 1831 3584 
Q 2591 3584 2966 3190 
Q 3341 2797 3341 1997 
z
" transform="scale(0.015625)"/>
       <path id="DejaVuSans-6a" d="M 603 3500 
L 1178 3500 
L 1178 -63 
Q 1178 -731 923 -1031 
Q 669 -1331 103 -1331 
L -116 -1331 
L -116 -844 
L 38 -844 
Q 366 -844 484 -692 
Q 603 -541 603 -63 
L 603 3500 
z
M 603 4863 
L 1178 4863 
L 1178 4134 
L 603 4134 
L 603 4863 
z
" transform="scale(0.015625)"/>
       <path id="DejaVuSans-65" d="M 3597 1894 
L 3597 1613 
L 953 1613 
Q 991 1019 1311 708 
Q 1631 397 2203 397 
Q 2534 397 2845 478 
Q 3156 559 3463 722 
L 3463 178 
Q 3153 47 2828 -22 
Q 2503 -91 2169 -91 
Q 1331 -91 842 396 
Q 353 884 353 1716 
Q 353 2575 817 3079 
Q 1281 3584 2069 3584 
Q 2775 3584 3186 3129 
Q 3597 2675 3597 1894 
z
M 3022 2063 
Q 3016 2534 2758 2815 
Q 2500 3097 2075 3097 
Q 1594 3097 1305 2825 
Q 1016 2553 972 2059 
L 3022 2063 
z
" transform="scale(0.015625)"/>
       <path id="DejaVuSans-63" d="M 3122 3366 
L 3122 2828 
Q 2878 2963 2633 3030 
Q 2388 3097 2138 3097 
Q 1578 3097 1268 2742 
Q 959 2388 959 1747 
Q 959 1106 1268 751 
Q 1578 397 2138 397 
Q 2388 397 2633 464 
Q 2878 531 3122 666 
L 3122 134 
Q 2881 22 2623 -34 
Q 2366 -91 2075 -91 
Q 1284 -91 818 406 
Q 353 903 353 1747 
Q 353 2603 823 3093 
Q 1294 3584 2113 3584 
Q 2378 3584 2631 3529 
Q 2884 3475 3122 3366 
z
" transform="scale(0.015625)"/>
       <path id="DejaVuSans-74" d="M 1172 4494 
L 1172 3500 
L 2356 3500 
L 2356 3053 
L 1172 3053 
L 1172 1153 
Q 1172 725 1289 603 
Q 1406 481 1766 481 
L 2356 481 
L 2356 0 
L 1766 0 
Q 1100 0 847 248 
Q 594 497 594 1153 
L 594 3053 
L 172 3053 
L 172 3500 
L 594 3500 
L 594 4494 
L 1172 4494 
z
" transform="scale(0.015625)"/>
       <path id="DejaVuSans-6f" d="M 1959 3097 
Q 1497 3097 1228 2736 
Q 959 2375 959 1747 
Q 959 1119 1226 758 
Q 1494 397 1959 397 
Q 2419 397 2687 759 
Q 2956 1122 2956 1747 
Q 2956 2369 2687 2733 
Q 2419 3097 1959 3097 
z
M 1959 3584 
Q 2709 3584 3137 3096 
Q 3566 2609 3566 1747 
Q 3566 888 3137 398 
Q 2709 -91 1959 -91 
Q 1206 -91 779 398 
Q 353 888 353 1747 
Q 353 2609 779 3096 
Q 1206 3584 1959 3584 
z
" transform="scale(0.015625)"/>
       <path id="DejaVuSans-79" d="M 2059 -325 
Q 1816 -950 1584 -1140 
Q 1353 -1331 966 -1331 
L 506 -1331 
L 506 -850 
L 844 -850 
Q 1081 -850 1212 -737 
Q 1344 -625 1503 -206 
L 1606 56 
L 191 3500 
L 800 3500 
L 1894 763 
L 2988 3500 
L 3597 3500 
L 2059 -325 
z
" transform="scale(0.015625)"/>
      </defs>
      <use xlink:href="#DejaVuSans-54"/>
      <use xlink:href="#DejaVuSans-72" x="46.333984"/>
      <use xlink:href="#DejaVuSans-61" x="87.447266"/>
      <use xlink:href="#DejaVuSans-6a" x="148.726562"/>
      <use xlink:href="#DejaVuSans-65" x="176.509766"/>
      <use xlink:href="#DejaVuSans-63" x="238.033203"/>
      <use xlink:href="#DejaVuSans-74" x="293.013672"/>
      <use xlink:href="#DejaVuSans-6f" x="332.222656"/>
      <use xlink:href="#DejaVuSans-72" x="393.404297"/>
      <use xlink:href="#DejaVuSans-79" x="434.517578"/>
     </g>
    </g>
    <g id="line2d_33">
     <path d="M 285.164531 83.136844 
L 300.164531 83.136844 
L 315.164531 83.136844 
" style="fill: none; stroke: #000000; stroke-width: 1.5; stroke-linecap: square"/>
     <g>
      <use xlink:href="#mc451303554" x="300.164531" y="83.136844" style="stroke: #000000"/>
     </g>
    </g>
    <g id="text_8">
     <!-- Start -->
     <g transform="translate(327.164531 88.386844)scale(0.15 -0.15)">
      <defs>
       <path id="DejaVuSans-53" d="M 3425 4513 
L 3425 3897 
Q 3066 4069 2747 4153 
Q 2428 4238 2131 4238 
Q 1616 4238 1336 4038 
Q 1056 3838 1056 3469 
Q 1056 3159 1242 3001 
Q 1428 2844 1947 2747 
L 2328 2669 
Q 3034 2534 3370 2195 
Q 3706 1856 3706 1288 
Q 3706 609 3251 259 
Q 2797 -91 1919 -91 
Q 1588 -91 1214 -16 
Q 841 59 441 206 
L 441 856 
Q 825 641 1194 531 
Q 1563 422 1919 422 
Q 2459 422 2753 634 
Q 3047 847 3047 1241 
Q 3047 1584 2836 1778 
Q 2625 1972 2144 2069 
L 1759 2144 
Q 1053 2284 737 2584 
Q 422 2884 422 3419 
Q 422 4038 858 4394 
Q 1294 4750 2059 4750 
Q 2388 4750 2728 4690 
Q 3069 4631 3425 4513 
z
" transform="scale(0.015625)"/>
      </defs>
      <use xlink:href="#DejaVuSans-53"/>
      <use xlink:href="#DejaVuSans-74" x="63.476562"/>
      <use xlink:href="#DejaVuSans-61" x="102.685547"/>
      <use xlink:href="#DejaVuSans-72" x="163.964844"/>
      <use xlink:href="#DejaVuSans-74" x="205.078125"/>
     </g>
    </g>
    <g id="line2d_34">
     <path d="M 285.164531 105.154031 
L 300.164531 105.154031 
L 315.164531 105.154031 
" style="fill: none; stroke: #000000; stroke-width: 1.5; stroke-linecap: square"/>
     <g>
      <use xlink:href="#mfd326d10ec" x="300.164531" y="105.154031" style="stroke: #000000; stroke-linejoin: miter"/>
     </g>
    </g>
    <g id="text_9">
     <!-- End -->
     <g transform="translate(327.164531 110.404031)scale(0.15 -0.15)">
      <defs>
       <path id="DejaVuSans-45" d="M 628 4666 
L 3578 4666 
L 3578 4134 
L 1259 4134 
L 1259 2753 
L 3481 2753 
L 3481 2222 
L 1259 2222 
L 1259 531 
L 3634 531 
L 3634 0 
L 628 0 
L 628 4666 
z
" transform="scale(0.015625)"/>
       <path id="DejaVuSans-6e" d="M 3513 2113 
L 3513 0 
L 2938 0 
L 2938 2094 
Q 2938 2591 2744 2837 
Q 2550 3084 2163 3084 
Q 1697 3084 1428 2787 
Q 1159 2491 1159 1978 
L 1159 0 
L 581 0 
L 581 3500 
L 1159 3500 
L 1159 2956 
Q 1366 3272 1645 3428 
Q 1925 3584 2291 3584 
Q 2894 3584 3203 3211 
Q 3513 2838 3513 2113 
z
" transform="scale(0.015625)"/>
       <path id="DejaVuSans-64" d="M 2906 2969 
L 2906 4863 
L 3481 4863 
L 3481 0 
L 2906 0 
L 2906 525 
Q 2725 213 2448 61 
Q 2172 -91 1784 -91 
Q 1150 -91 751 415 
Q 353 922 353 1747 
Q 353 2572 751 3078 
Q 1150 3584 1784 3584 
Q 2172 3584 2448 3432 
Q 2725 3281 2906 2969 
z
M 947 1747 
Q 947 1113 1208 752 
Q 1469 391 1925 391 
Q 2381 391 2643 752 
Q 2906 1113 2906 1747 
Q 2906 2381 2643 2742 
Q 2381 3103 1925 3103 
Q 1469 3103 1208 2742 
Q 947 2381 947 1747 
z
" transform="scale(0.015625)"/>
      </defs>
      <use xlink:href="#DejaVuSans-45"/>
      <use xlink:href="#DejaVuSans-6e" x="63.183594"/>
      <use xlink:href="#DejaVuSans-64" x="126.5625"/>
     </g>
    </g>
   </g>
  </g>
 </g>
 <defs>
  <clipPath id="pd5576dc0d0">
   <rect x="57.6" y="41.472" width="357.12" height="266.112"/>
  </clipPath>
 </defs>
</svg>
