<?xml version="1.0" encoding="utf-8" standalone="no"?>
<!DOCTYPE svg PUBLIC "-//W3C//DTD SVG 1.1//EN"
  "http://www.w3.org/Graphics/SVG/1.1/DTD/svg11.dtd">
<svg xmlns:xlink="http://www.w3.org/1999/xlink" width="460.8pt" height="345.6pt" viewBox="0 0 460.8 345.6" xmlns="http://www.w3.org/2000/svg" version="1.1">
 <metadata>
  <rdf:RDF xmlns:dc="http://purl.org/dc/elements/1.1/" xmlns:cc="http://creativecommons.org/ns#" xmlns:rdf="http://www.w3.org/1999/02/22-rdf-syntax-ns#">
   <cc:Work>
    <dc:type rdf:resource="http://purl.org/dc/dcmitype/StillImage"/>
    <dc:date>2024-02-20T18:22:10.713991</dc:date>
    <dc:format>image/svg+xml</dc:format>
    <dc:creator>
     <cc:Agent>
      <dc:title>Matplotlib v3.5.0, https://matplotlib.org/</dc:title>
     </cc:Agent>
    </dc:creator>
   </cc:Work>
  </rdf:RDF>
 </metadata>
 <defs>
  <style type="text/css">*{stroke-linejoin: round; stroke-linecap: butt}</style>
 </defs>
 <g id="figure_1">
  <g id="patch_1">
   <path d="M 0 345.6 
L 460.8 345.6 
L 460.8 0 
L 0 0 
z
" style="fill: #ffffff"/>
  </g>
  <g id="axes_1">
   <g id="patch_2">
    <path d="M 57.6 307.584 
L 414.72 307.584 
L 414.72 41.472 
L 57.6 41.472 
z
" style="fill: #ffffff"/>
   </g>
   <g id="matplotlib.axis_1">
    <g id="xtick_1">
     <g id="line2d_1">
      <defs>
       <path id="mb35d17903f" d="M 0 0 
L 0 3.5 
" style="stroke: #000000; stroke-width: 0.8"/>
      </defs>
      <g>
       <use xlink:href="#mb35d17903f" x="73.832727" y="307.584" style="stroke: #000000; stroke-width: 0.8"/>
      </g>
     </g>
     <g id="text_1">
      <!-- 0 -->
      <g transform="translate(67.470227 329.780875)scale(0.2 -0.2)">
       <defs>
        <path id="DejaVuSans-30" d="M 2034 4250 
Q 1547 4250 1301 3770 
Q 1056 3291 1056 2328 
Q 1056 1369 1301 889 
Q 1547 409 2034 409 
Q 2525 409 2770 889 
Q 3016 1369 3016 2328 
Q 3016 3291 2770 3770 
Q 2525 4250 2034 4250 
z
M 2034 4750 
Q 2819 4750 3233 4129 
Q 3647 3509 3647 2328 
Q 3647 1150 3233 529 
Q 2819 -91 2034 -91 
Q 1250 -91 836 529 
Q 422 1150 422 2328 
Q 422 3509 836 4129 
Q 1250 4750 2034 4750 
z
" transform="scale(0.015625)"/>
       </defs>
       <use xlink:href="#DejaVuSans-30"/>
      </g>
     </g>
    </g>
    <g id="xtick_2">
     <g id="line2d_2">
      <g>
       <use xlink:href="#mb35d17903f" x="399.341627" y="307.584" style="stroke: #000000; stroke-width: 0.8"/>
      </g>
     </g>
     <g id="text_2">
      <!-- 1 -->
      <g transform="translate(392.979127 329.780875)scale(0.2 -0.2)">
       <defs>
        <path id="DejaVuSans-31" d="M 794 531 
L 1825 531 
L 1825 4091 
L 703 3866 
L 703 4441 
L 1819 4666 
L 2450 4666 
L 2450 531 
L 3481 531 
L 3481 0 
L 794 0 
L 794 531 
z
" transform="scale(0.015625)"/>
       </defs>
       <use xlink:href="#DejaVuSans-31"/>
      </g>
     </g>
    </g>
    <g id="text_3">
     <!-- Normalised X position -->
     <g transform="translate(111.795937 353.137125)scale(0.2 -0.2)">
      <defs>
       <path id="DejaVuSans-Bold-4e" d="M 588 4666 
L 1931 4666 
L 3628 1466 
L 3628 4666 
L 4769 4666 
L 4769 0 
L 3425 0 
L 1728 3200 
L 1728 0 
L 588 0 
L 588 4666 
z
" transform="scale(0.015625)"/>
       <path id="DejaVuSans-Bold-6f" d="M 2203 2784 
Q 1831 2784 1636 2517 
Q 1441 2250 1441 1747 
Q 1441 1244 1636 976 
Q 1831 709 2203 709 
Q 2569 709 2762 976 
Q 2956 1244 2956 1747 
Q 2956 2250 2762 2517 
Q 2569 2784 2203 2784 
z
M 2203 3584 
Q 3106 3584 3614 3096 
Q 4122 2609 4122 1747 
Q 4122 884 3614 396 
Q 3106 -91 2203 -91 
Q 1297 -91 786 396 
Q 275 884 275 1747 
Q 275 2609 786 3096 
Q 1297 3584 2203 3584 
z
" transform="scale(0.015625)"/>
       <path id="DejaVuSans-Bold-72" d="M 3138 2547 
Q 2991 2616 2845 2648 
Q 2700 2681 2553 2681 
Q 2122 2681 1889 2404 
Q 1656 2128 1656 1613 
L 1656 0 
L 538 0 
L 538 3500 
L 1656 3500 
L 1656 2925 
Q 1872 3269 2151 3426 
Q 2431 3584 2822 3584 
Q 2878 3584 2943 3579 
Q 3009 3575 3134 3559 
L 3138 2547 
z
" transform="scale(0.015625)"/>
       <path id="DejaVuSans-Bold-6d" d="M 3781 2919 
Q 3994 3244 4286 3414 
Q 4578 3584 4928 3584 
Q 5531 3584 5847 3212 
Q 6163 2841 6163 2131 
L 6163 0 
L 5038 0 
L 5038 1825 
Q 5041 1866 5042 1909 
Q 5044 1953 5044 2034 
Q 5044 2406 4934 2573 
Q 4825 2741 4581 2741 
Q 4263 2741 4089 2478 
Q 3916 2216 3909 1719 
L 3909 0 
L 2784 0 
L 2784 1825 
Q 2784 2406 2684 2573 
Q 2584 2741 2328 2741 
Q 2006 2741 1831 2477 
Q 1656 2213 1656 1722 
L 1656 0 
L 531 0 
L 531 3500 
L 1656 3500 
L 1656 2988 
Q 1863 3284 2130 3434 
Q 2397 3584 2719 3584 
Q 3081 3584 3359 3409 
Q 3638 3234 3781 2919 
z
" transform="scale(0.015625)"/>
       <path id="DejaVuSans-Bold-61" d="M 2106 1575 
Q 1756 1575 1579 1456 
Q 1403 1338 1403 1106 
Q 1403 894 1545 773 
Q 1688 653 1941 653 
Q 2256 653 2472 879 
Q 2688 1106 2688 1447 
L 2688 1575 
L 2106 1575 
z
M 3816 1997 
L 3816 0 
L 2688 0 
L 2688 519 
Q 2463 200 2181 54 
Q 1900 -91 1497 -91 
Q 953 -91 614 226 
Q 275 544 275 1050 
Q 275 1666 698 1953 
Q 1122 2241 2028 2241 
L 2688 2241 
L 2688 2328 
Q 2688 2594 2478 2717 
Q 2269 2841 1825 2841 
Q 1466 2841 1156 2769 
Q 847 2697 581 2553 
L 581 3406 
Q 941 3494 1303 3539 
Q 1666 3584 2028 3584 
Q 2975 3584 3395 3211 
Q 3816 2838 3816 1997 
z
" transform="scale(0.015625)"/>
       <path id="DejaVuSans-Bold-6c" d="M 538 4863 
L 1656 4863 
L 1656 0 
L 538 0 
L 538 4863 
z
" transform="scale(0.015625)"/>
       <path id="DejaVuSans-Bold-69" d="M 538 3500 
L 1656 3500 
L 1656 0 
L 538 0 
L 538 3500 
z
M 538 4863 
L 1656 4863 
L 1656 3950 
L 538 3950 
L 538 4863 
z
" transform="scale(0.015625)"/>
       <path id="DejaVuSans-Bold-73" d="M 3272 3391 
L 3272 2541 
Q 2913 2691 2578 2766 
Q 2244 2841 1947 2841 
Q 1628 2841 1473 2761 
Q 1319 2681 1319 2516 
Q 1319 2381 1436 2309 
Q 1553 2238 1856 2203 
L 2053 2175 
Q 2913 2066 3209 1816 
Q 3506 1566 3506 1031 
Q 3506 472 3093 190 
Q 2681 -91 1863 -91 
Q 1516 -91 1145 -36 
Q 775 19 384 128 
L 384 978 
Q 719 816 1070 734 
Q 1422 653 1784 653 
Q 2113 653 2278 743 
Q 2444 834 2444 1013 
Q 2444 1163 2330 1236 
Q 2216 1309 1875 1350 
L 1678 1375 
Q 931 1469 631 1722 
Q 331 1975 331 2491 
Q 331 3047 712 3315 
Q 1094 3584 1881 3584 
Q 2191 3584 2531 3537 
Q 2872 3491 3272 3391 
z
" transform="scale(0.015625)"/>
       <path id="DejaVuSans-Bold-65" d="M 4031 1759 
L 4031 1441 
L 1416 1441 
Q 1456 1047 1700 850 
Q 1944 653 2381 653 
Q 2734 653 3104 758 
Q 3475 863 3866 1075 
L 3866 213 
Q 3469 63 3072 -14 
Q 2675 -91 2278 -91 
Q 1328 -91 801 392 
Q 275 875 275 1747 
Q 275 2603 792 3093 
Q 1309 3584 2216 3584 
Q 3041 3584 3536 3087 
Q 4031 2591 4031 1759 
z
M 2881 2131 
Q 2881 2450 2695 2645 
Q 2509 2841 2209 2841 
Q 1884 2841 1681 2658 
Q 1478 2475 1428 2131 
L 2881 2131 
z
" transform="scale(0.015625)"/>
       <path id="DejaVuSans-Bold-64" d="M 2919 2988 
L 2919 4863 
L 4044 4863 
L 4044 0 
L 2919 0 
L 2919 506 
Q 2688 197 2409 53 
Q 2131 -91 1766 -91 
Q 1119 -91 703 423 
Q 288 938 288 1747 
Q 288 2556 703 3070 
Q 1119 3584 1766 3584 
Q 2128 3584 2408 3439 
Q 2688 3294 2919 2988 
z
M 2181 722 
Q 2541 722 2730 984 
Q 2919 1247 2919 1747 
Q 2919 2247 2730 2509 
Q 2541 2772 2181 2772 
Q 1825 2772 1636 2509 
Q 1447 2247 1447 1747 
Q 1447 1247 1636 984 
Q 1825 722 2181 722 
z
" transform="scale(0.015625)"/>
       <path id="DejaVuSans-Bold-20" transform="scale(0.015625)"/>
       <path id="DejaVuSans-Bold-58" d="M 3188 2381 
L 4806 0 
L 3553 0 
L 2463 1594 
L 1381 0 
L 122 0 
L 1741 2381 
L 184 4666 
L 1441 4666 
L 2463 3163 
L 3481 4666 
L 4744 4666 
L 3188 2381 
z
" transform="scale(0.015625)"/>
       <path id="DejaVuSans-Bold-70" d="M 1656 506 
L 1656 -1331 
L 538 -1331 
L 538 3500 
L 1656 3500 
L 1656 2988 
Q 1888 3294 2169 3439 
Q 2450 3584 2816 3584 
Q 3463 3584 3878 3070 
Q 4294 2556 4294 1747 
Q 4294 938 3878 423 
Q 3463 -91 2816 -91 
Q 2450 -91 2169 54 
Q 1888 200 1656 506 
z
M 2400 2772 
Q 2041 2772 1848 2508 
Q 1656 2244 1656 1747 
Q 1656 1250 1848 986 
Q 2041 722 2400 722 
Q 2759 722 2948 984 
Q 3138 1247 3138 1747 
Q 3138 2247 2948 2509 
Q 2759 2772 2400 2772 
z
" transform="scale(0.015625)"/>
       <path id="DejaVuSans-Bold-74" d="M 1759 4494 
L 1759 3500 
L 2913 3500 
L 2913 2700 
L 1759 2700 
L 1759 1216 
Q 1759 972 1856 886 
Q 1953 800 2241 800 
L 2816 800 
L 2816 0 
L 1856 0 
Q 1194 0 917 276 
Q 641 553 641 1216 
L 641 2700 
L 84 2700 
L 84 3500 
L 641 3500 
L 641 4494 
L 1759 4494 
z
" transform="scale(0.015625)"/>
       <path id="DejaVuSans-Bold-6e" d="M 4056 2131 
L 4056 0 
L 2931 0 
L 2931 347 
L 2931 1631 
Q 2931 2084 2911 2256 
Q 2891 2428 2841 2509 
Q 2775 2619 2662 2680 
Q 2550 2741 2406 2741 
Q 2056 2741 1856 2470 
Q 1656 2200 1656 1722 
L 1656 0 
L 538 0 
L 538 3500 
L 1656 3500 
L 1656 2988 
Q 1909 3294 2193 3439 
Q 2478 3584 2822 3584 
Q 3428 3584 3742 3212 
Q 4056 2841 4056 2131 
z
" transform="scale(0.015625)"/>
      </defs>
      <use xlink:href="#DejaVuSans-Bold-4e"/>
      <use xlink:href="#DejaVuSans-Bold-6f" x="83.691406"/>
      <use xlink:href="#DejaVuSans-Bold-72" x="152.392578"/>
      <use xlink:href="#DejaVuSans-Bold-6d" x="201.708984"/>
      <use xlink:href="#DejaVuSans-Bold-61" x="305.908203"/>
      <use xlink:href="#DejaVuSans-Bold-6c" x="373.388672"/>
      <use xlink:href="#DejaVuSans-Bold-69" x="407.666016"/>
      <use xlink:href="#DejaVuSans-Bold-73" x="441.943359"/>
      <use xlink:href="#DejaVuSans-Bold-65" x="501.464844"/>
      <use xlink:href="#DejaVuSans-Bold-64" x="569.287109"/>
      <use xlink:href="#DejaVuSans-Bold-20" x="640.869141"/>
      <use xlink:href="#DejaVuSans-Bold-58" x="675.683594"/>
      <use xlink:href="#DejaVuSans-Bold-20" x="752.783203"/>
      <use xlink:href="#DejaVuSans-Bold-70" x="787.597656"/>
      <use xlink:href="#DejaVuSans-Bold-6f" x="859.179688"/>
      <use xlink:href="#DejaVuSans-Bold-73" x="927.880859"/>
      <use xlink:href="#DejaVuSans-Bold-69" x="987.402344"/>
      <use xlink:href="#DejaVuSans-Bold-74" x="1021.679688"/>
      <use xlink:href="#DejaVuSans-Bold-69" x="1069.482422"/>
      <use xlink:href="#DejaVuSans-Bold-6f" x="1103.759766"/>
      <use xlink:href="#DejaVuSans-Bold-6e" x="1172.460938"/>
     </g>
    </g>
   </g>
   <g id="matplotlib.axis_2">
    <g id="ytick_1">
     <g id="line2d_3">
      <defs>
       <path id="mc23d0ee8b1" d="M 0 0 
L -3.5 0 
" style="stroke: #000000; stroke-width: 0.8"/>
      </defs>
      <g>
       <use xlink:href="#mc23d0ee8b1" x="57.6" y="296.776918" style="stroke: #000000; stroke-width: 0.8"/>
      </g>
     </g>
     <g id="text_4">
      <!-- 0 -->
      <g transform="translate(37.875 304.375356)scale(0.2 -0.2)">
       <use xlink:href="#DejaVuSans-30"/>
      </g>
     </g>
    </g>
    <g id="ytick_2">
     <g id="line2d_4">
      <g>
       <use xlink:href="#mc23d0ee8b1" x="57.6" y="41.472" style="stroke: #000000; stroke-width: 0.8"/>
      </g>
     </g>
     <g id="text_5">
      <!-- 1 -->
      <g transform="translate(37.875 49.070437)scale(0.2 -0.2)">
       <use xlink:href="#DejaVuSans-31"/>
      </g>
     </g>
    </g>
    <g id="text_6">
     <!-- Normalised Y position -->
     <g transform="translate(29.715625 298.423313)rotate(-90)scale(0.2 -0.2)">
      <defs>
       <path id="DejaVuSans-Bold-59" d="M -63 4666 
L 1253 4666 
L 2316 3003 
L 3378 4666 
L 4697 4666 
L 2919 1966 
L 2919 0 
L 1716 0 
L 1716 1966 
L -63 4666 
z
" transform="scale(0.015625)"/>
      </defs>
      <use xlink:href="#DejaVuSans-Bold-4e"/>
      <use xlink:href="#DejaVuSans-Bold-6f" x="83.691406"/>
      <use xlink:href="#DejaVuSans-Bold-72" x="152.392578"/>
      <use xlink:href="#DejaVuSans-Bold-6d" x="201.708984"/>
      <use xlink:href="#DejaVuSans-Bold-61" x="305.908203"/>
      <use xlink:href="#DejaVuSans-Bold-6c" x="373.388672"/>
      <use xlink:href="#DejaVuSans-Bold-69" x="407.666016"/>
      <use xlink:href="#DejaVuSans-Bold-73" x="441.943359"/>
      <use xlink:href="#DejaVuSans-Bold-65" x="501.464844"/>
      <use xlink:href="#DejaVuSans-Bold-64" x="569.287109"/>
      <use xlink:href="#DejaVuSans-Bold-20" x="640.869141"/>
      <use xlink:href="#DejaVuSans-Bold-59" x="675.683594"/>
      <use xlink:href="#DejaVuSans-Bold-20" x="748.095703"/>
      <use xlink:href="#DejaVuSans-Bold-70" x="782.910156"/>
      <use xlink:href="#DejaVuSans-Bold-6f" x="854.492188"/>
      <use xlink:href="#DejaVuSans-Bold-73" x="923.193359"/>
      <use xlink:href="#DejaVuSans-Bold-69" x="982.714844"/>
      <use xlink:href="#DejaVuSans-Bold-74" x="1016.992188"/>
      <use xlink:href="#DejaVuSans-Bold-69" x="1064.794922"/>
      <use xlink:href="#DejaVuSans-Bold-6f" x="1099.072266"/>
      <use xlink:href="#DejaVuSans-Bold-6e" x="1167.773438"/>
     </g>
    </g>
   </g>
   <g id="line2d_5">
    <path d="M 215.484632 182.509377 
L 216.338986 181.270033 
L 217.364211 180.030689 
L 219.756402 179.534951 
L 219.927273 177.799869 
L 219.756402 176.560525 
L 222.490335 175.816918 
L 224.882526 175.569049 
L 222.832077 173.586098 
L 222.832077 171.851016 
L 225.224268 171.851016 
L 227.78733 171.603148 
L 227.958201 170.611672 
L 228.983426 169.868066 
L 229.666909 169.124459 
L 231.546488 168.628721 
L 233.596938 168.380852 
L 236.501742 168.380852 
L 240.773512 168.87659 
L 244.874411 168.628721 
L 252.392727 168.628721 
L 257.689722 168.380852 
L 263.670201 168.380852 
L 271.359388 168.87659 
L 280.928153 170.115934 
L 292.205627 172.098885 
L 315.95667 174.825443 
L 329.455464 176.064787 
L 345.34645 177.799869 
L 363.629627 181.76577 
L 386.013703 188.210361 
L 398.487273 195.894295 
L 398.487273 295.537574 
L 398.487273 286.118557 
L 397.632919 278.186754 
L 387.551541 273.229377 
L 381.229321 271.494295 
L 377.128421 271.246426 
L 373.027522 267.280525 
L 368.41401 264.306098 
L 363.117014 261.331672 
L 354.402603 256.126426 
L 344.833837 250.673311 
L 326.55066 239.519213 
L 317.665378 233.81823 
L 301.774392 224.151344 
L 288.61734 215.228066 
L 282.46599 210.766426 
L 258.373206 191.928393 
L 250.342278 184.988066 
L 240.2609 175.816918 
L 235.647388 171.355279 
L 228.470813 164.167082 
L 220.610756 156.731016 
L 207.111962 142.850361 
L 203.865416 138.884459 
L 205.574124 136.901508 
L 204.207158 134.670689 
L 207.282833 133.927082 
L 205.574124 131.696262 
L 204.5489 129.713311 
L 206.428478 129.217574 
L 206.599349 128.226098 
L 207.453703 127.234623 
L 208.991541 126.243148 
L 213.434182 124.508066 
L 213.605053 123.51659 
L 217.19334 120.294295 
L 219.243789 119.798557 
L 220.439885 119.30282 
L 222.661206 119.550689 
L 226.249493 120.542164 
L 229.154297 121.781508 
L 229.83778 122.277246 
L 230.863005 122.277246 
L 232.400842 122.772984 
L 235.305646 124.260197 
L 242.140478 126.986754 
L 245.045282 127.97823 
L 248.291828 128.473967 
L 250.85489 129.217574 
L 253.076211 129.217574 
L 255.981014 129.96118 
L 258.544077 130.456918 
L 260.423656 131.200525 
L 262.303234 131.696262 
L 264.524555 132.439869 
L 267.087617 133.927082 
L 267.7711 134.918557 
L 268.112842 135.910033 
L 268.112842 136.901508 
L 267.087617 138.140852 
L 265.54978 139.132328 
L 263.157589 140.371672 
L 260.594526 140.86741 
L 258.031464 141.115279 
L 255.810144 140.86741 
L 253.417952 141.115279 
L 251.196632 140.123803 
L 249.487923 138.884459 
L 248.120957 137.149377 
L 247.608344 136.901508 
L 246.924861 136.40577 
L 245.387024 134.918557 
L 242.823962 133.183475 
L 241.627866 131.200525 
L 241.456995 130.209049 
L 239.577416 128.969705 
L 239.577416 128.969705 
L 238.039579 127.234623 
L 237.868708 125.74741 
L 239.919158 126.491016 
L 242.994833 128.721836 
L 242.994833 130.209049 
L 243.678316 132.192 
L 243.849187 133.431344 
L 244.361799 134.670689 
L 244.53267 135.910033 
L 245.216153 136.901508 
L 244.703541 137.397246 
L 247.437474 140.86741 
L 249.317053 141.858885 
L 251.196632 143.09823 
L 252.050986 143.346098 
L 254.272306 144.585443 
L 260.765397 150.782164 
L 266.404134 155.243803 
L 267.7711 156.483148 
L 269.479809 157.226754 
L 271.701129 157.970361 
L 274.947675 159.457574 
L 279.219445 161.192656 
L 280.415541 162.184131 
L 281.782507 162.679869 
L 282.636861 161.440525 
L 283.491215 162.679869 
L 284.687311 164.167082 
L 288.788211 167.885115 
L 290.667789 169.124459 
L 291.522144 170.611672 
L 292.034756 172.346754 
L 292.376498 174.081836 
L 291.009531 175.073311 
L 289.471694 175.569049 
L 288.788211 175.569049 
L 288.788211 175.073311 
L 289.300823 174.825443 
L 290.83866 175.569049 
L 292.205627 176.064787 
L 293.572593 176.064787 
L 295.452172 176.808393 
L 296.819139 176.560525 
L 297.502622 177.552 
L 298.186105 179.534951 
L 298.698718 182.013639 
L 298.527847 184.988066 
L 297.673493 193.663475 
L 297.844364 195.150689 
L 296.819139 201.595279 
L 297.16088 203.57823 
L 298.186105 208.783475 
L 302.970488 220.433311 
L 304.508325 222.664131 
L 306.729646 225.14282 
L 309.63445 227.869377 
L 313.393608 229.108721 
L 316.127541 228.612984 
L 321.766278 228.612984 
L 328.088498 228.860852 
L 334.239847 228.860852 
L 339.536842 227.869377 
L 345.175579 227.373639 
L 355.256957 228.860852 
L 369.439234 232.578885 
L 379.691483 238.279869 
L 386.355445 245.468066 
L 390.627215 254.143475 
L 393.532019 264.05823 
L 395.240727 273.229377 
L 396.436823 280.665443 
L 397.120306 287.110033 
L 397.632919 294.29823 
L 397.97466 295.537574 
L 398.487273 295.537574 
L 398.487273 295.537574 
L 398.487273 249.433967 
L 391.994182 246.211672 
L 387.038928 243.485115 
L 373.540134 238.032 
L 365.338335 235.80118 
L 358.332632 236.049049 
L 355.769569 238.527738 
L 354.060861 240.014951 
L 354.231732 246.211672 
L 355.598699 251.169049 
L 358.161761 256.622164 
L 362.091789 262.818885 
L 366.021818 268.519869 
L 381.229321 287.110033 
L 386.868057 293.058885 
L 390.798086 295.537574 
L 394.898986 295.537574 
L 390.456344 295.537574 
L 387.551541 294.793967 
L 382.425416 295.289705 
L 378.153646 292.811016 
L 369.097493 292.06741 
L 359.016115 287.853639 
L 351.839541 284.631344 
L 345.004708 281.409049 
L 338.853359 277.443148 
L 331.676785 272.981508 
L 326.379789 268.767738 
L 322.449761 263.066754 
L 320.057569 261.331672 
L 316.469282 255.878557 
L 315.785799 251.416918 
L 314.077091 248.442492 
L 314.077091 243.732984 
L 313.564478 239.767082 
L 313.393608 236.049049 
L 312.710124 232.083148 
L 312.539254 228.365115 
L 313.051866 224.647082 
L 313.222737 220.68118 
L 312.880995 213.988721 
L 312.368383 211.262164 
L 311.172287 208.535607 
L 311.001416 207.544131 
L 311.172287 207.048393 
L 311.001416 208.783475 
L 309.976191 209.031344 
L 307.413129 207.544131 
L 302.970488 206.552656 
L 298.186105 204.321836 
L 291.693014 202.834623 
L 286.908632 200.108066 
L 279.902928 198.868721 
L 274.264191 197.133639 
L 269.82155 194.90282 
L 266.916746 193.167738 
L 263.49933 192.424131 
L 261.27801 191.432656 
L 255.639273 188.210361 
L 253.247081 187.218885 
L 251.538373 185.979541 
L 248.975311 183.252984 
L 247.095732 182.509377 
L 246.58312 181.517902 
L 245.045282 180.526426 
L 244.020057 178.791344 
L 242.311349 176.560525 
L 242.311349 175.073311 
L 241.969608 173.33823 
L 242.140478 171.603148 
L 243.165703 170.611672 
L 244.703541 168.380852 
L 246.58312 166.64577 
L 248.120957 164.66282 
L 249.658794 162.927738 
L 251.025761 161.688393 
L 252.563598 160.696918 
L 254.272306 160.449049 
L 254.955789 160.20118 
L 254.443177 159.705443 
L 256.151885 159.953311 
L 257.518852 159.705443 
L 259.569301 160.20118 
L 259.398431 160.20118 
L 260.936268 160.944787 
L 261.107139 161.440525 
L 260.594526 161.936262 
L 258.714947 161.440525 
L 257.347981 160.944787 
L 256.664498 160.449049 
L 255.639273 159.953311 
L 257.17711 162.679869 
L 255.468402 162.432 
L 254.272306 161.936262 
L 248.633569 158.961836 
L 247.779215 158.961836 
L 247.266603 159.457574 
L 248.633569 162.432 
L 247.095732 163.423475 
L 249.317053 166.397902 
L 248.80444 167.389377 
L 249.146182 172.594623 
L 248.120957 175.569049 
L 244.874411 177.552 
L 240.090029 179.287082 
L 226.762105 182.757246 
L 220.781627 185.235934 
L 208.308057 189.201836 
L 203.181933 191.432656 
L 198.739292 192.919869 
L 197.030584 195.894295 
L 193.784038 198.125115 
L 191.220976 200.851672 
L 190.366622 204.321836 
L 187.461818 206.304787 
L 183.360919 207.544131 
L 179.943502 209.279213 
L 176.013474 210.518557 
L 173.10867 212.253639 
L 171.912574 215.723803 
L 173.450411 219.193967 
L 175.15912 223.407738 
L 174.304766 226.877902 
L 172.766928 229.35659 
L 170.374737 230.843803 
L 166.957321 231.58741 
L 165.761225 233.074623 
L 164.394258 234.066098 
L 164.052517 235.305443 
L 163.027292 236.296918 
L 162.002067 237.536262 
L 157.388555 237.536262 
L 153.800268 236.544787 
L 150.382852 236.296918 
L 145.598469 233.81823 
L 140.814086 230.843803 
L 130.732708 221.920525 
L 124.9231 216.219541 
L 114.670852 205.56118 
L 109.373856 201.099541 
L 101.001187 192.672 
L 98.608995 189.449705 
L 97.925512 187.218885 
L 98.950737 186.475279 
L 100.830316 186.723148 
L 103.222507 187.218885 
L 105.95644 188.45823 
L 109.032115 189.449705 
L 119.967847 196.390033 
L 125.093971 198.372984 
L 128.853129 199.364459 
L 131.928804 199.612328 
L 134.491866 200.355934 
L 137.567541 202.834623 
L 145.598469 207.296262 
L 150.895464 208.535607 
L 162.856421 210.02282 
L 167.982545 210.270689 
L 177.893053 209.774951 
L 182.506565 209.279213 
L 186.607464 208.535607 
L 194.296651 206.800525 
L 198.055809 206.552656 
L 200.277129 205.56118 
L 202.327579 204.817574 
L 203.694545 204.073967 
L 204.207158 203.57823 
L 204.71977 202.834623 
L 202.840191 199.860197 
L 201.644096 198.372984 
L 197.201455 194.159213 
L 188.999656 188.45823 
L 186.094852 186.22741 
L 181.993952 182.757246 
L 182.164823 182.509377 
L 181.652211 182.509377 
L 180.968727 182.757246 
L 176.526086 182.757246 
L 175.842603 182.509377 
L 175.671732 182.757246 
L 175.671732 183.252984 
L 176.013474 183.500852 
L 176.355215 183.99659 
L 176.355215 184.492328 
L 176.526086 185.235934 
L 179.260019 188.210361 
L 180.456115 189.945443 
L 182.164823 191.432656 
L 183.70266 193.167738 
L 185.582239 194.654951 
L 187.290947 196.637902 
L 188.999656 198.372984 
L 190.537493 199.364459 
L 192.07533 199.860197 
L 191.391847 199.11659 
L 192.929684 199.11659 
L 193.954909 198.868721 
L 194.296651 198.372984 
L 196.859713 197.133639 
L 201.644096 197.133639 
L 203.011062 197.629377 
L 208.478928 199.11659 
L 210.529378 199.860197 
L 210.87112 200.108066 
L 213.775923 200.603803 
L 214.117665 200.851672 
L 215.313761 201.34741 
L 215.655502 201.34741 
L 216.338986 201.843148 
L 216.338986 201.843148 
L 215.826373 201.843148 
L 215.14289 201.595279 
L 214.630278 201.099541 
L 213.775923 200.603803 
L 214.459407 200.603803 
L 214.117665 200.108066 
L 214.459407 199.860197 
L 215.14289 199.860197 
L 215.313761 199.612328 
L 215.826373 199.364459 
L 216.680727 199.860197 
L 216.338986 199.364459 
L 216.338986 199.364459 
L 216.851598 199.364459 
L 216.851598 199.364459 
L 218.047694 199.860197 
L 218.731177 199.860197 
L 219.072919 200.355934 
L 219.585531 200.355934 
L 219.756402 200.603803 
L 219.585531 200.603803 
L 219.927273 200.851672 
L 219.585531 200.851672 
L 219.072919 200.603803 
L 219.072919 200.851672 
L 218.389435 200.603803 
L 218.047694 200.851672 
L 217.364211 200.603803 
L 216.851598 200.603803 
L 211.04199 198.620852 
L 210.016766 198.125115 
L 209.333282 197.629377 
L 209.162411 197.133639 
L 209.333282 196.88577 
L 211.04199 196.637902 
L 214.972019 194.159213 
L 219.243789 191.928393 
L 223.686431 189.201836 
L 234.280421 183.500852 
L 239.919158 180.774295 
L 246.241378 178.295607 
L 252.392727 176.312656 
L 258.885818 175.073311 
L 265.720651 174.577574 
L 272.384612 174.577574 
L 275.289416 179.534951 
L 281.269895 182.261508 
L 287.079502 186.475279 
L 294.085206 190.689049 
L 304.508325 197.133639 
L 308.267483 199.11659 
L 311.343158 200.108066 
L 311.172287 199.364459 
L 304.166584 193.415607 
L 299.382201 189.945443 
L 295.964785 186.22741 
L 294.085206 183.500852 
L 293.572593 181.022164 
L 293.914335 179.534951 
L 295.623043 179.287082 
L 298.356976 178.543475 
L 301.945263 178.047738 
L 307.242258 178.047738 
L 311.001416 177.552 
L 314.077091 177.304131 
L 317.152766 176.560525 
L 320.22844 176.064787 
L 321.937148 176.064787 
L 324.841952 176.560525 
L 329.455464 177.056262 
L 332.70201 177.552 
L 336.461167 178.295607 
L 337.486392 179.534951 
L 348.422124 182.509377 
L 352.523024 183.99659 
L 352.523024 183.99659 
" clip-path="url(#p749313823e)" style="fill: none; stroke: #000000; stroke-width: 1.5; stroke-linecap: square"/>
   </g>
   <g id="line2d_6">
    <path d="M 215.484632 182.509377 
" clip-path="url(#p749313823e)" style="fill: none; stroke: #000000; stroke-width: 1.5; stroke-linecap: square"/>
    <defs>
     <path id="me2cd2317ec" d="M 0 5 
C 1.326016 5 2.597899 4.473168 3.535534 3.535534 
C 4.473168 2.597899 5 1.326016 5 0 
C 5 -1.326016 4.473168 -2.597899 3.535534 -3.535534 
C 2.597899 -4.473168 1.326016 -5 0 -5 
C -1.326016 -5 -2.597899 -4.473168 -3.535534 -3.535534 
C -4.473168 -2.597899 -5 -1.326016 -5 0 
C -5 1.326016 -4.473168 2.597899 -3.535534 3.535534 
C -2.597899 4.473168 -1.326016 5 0 5 
z
" style="stroke: #000000"/>
    </defs>
    <g clip-path="url(#p749313823e)">
     <use xlink:href="#me2cd2317ec" x="215.484632" y="182.509377" style="stroke: #000000"/>
    </g>
   </g>
   <g id="line2d_7">
    <path d="M 352.523024 183.99659 
" clip-path="url(#p749313823e)" style="fill: none; stroke: #000000; stroke-width: 1.5; stroke-linecap: square"/>
    <defs>
     <path id="mab3e6b9369" d="M -5 5 
L 5 5 
L 5 -5 
L -5 -5 
z
" style="stroke: #000000; stroke-linejoin: miter"/>
    </defs>
    <g clip-path="url(#p749313823e)">
     <use xlink:href="#mab3e6b9369" x="352.523024" y="183.99659" style="stroke: #000000; stroke-linejoin: miter"/>
    </g>
   </g>
   <g id="line2d_8">
    <path d="M 218.731177 138.388721 
L 219.072919 137.892984 
L 219.585531 137.892984 
L 219.756402 137.645115 
L 219.585531 137.645115 
L 219.927273 137.397246 
L 219.585531 137.397246 
L 219.072919 137.645115 
L 219.072919 137.397246 
L 218.389435 137.645115 
L 218.047694 137.397246 
L 217.364211 137.645115 
L 216.851598 137.645115 
L 211.04199 139.628066 
L 210.016766 140.123803 
L 209.333282 140.619541 
L 209.162411 141.115279 
L 209.333282 141.363148 
L 211.04199 141.611016 
L 214.972019 144.089705 
L 219.243789 146.320525 
L 223.686431 149.047082 
L 234.280421 154.748066 
L 239.919158 157.474623 
L 246.241378 159.953311 
L 252.392727 161.936262 
L 258.885818 163.175607 
L 265.720651 163.671344 
L 272.384612 163.671344 
L 275.289416 158.713967 
L 281.269895 155.98741 
L 287.079502 151.773639 
L 294.085206 147.559869 
L 304.508325 141.115279 
L 308.267483 139.132328 
L 311.343158 138.140852 
L 311.172287 138.884459 
L 304.166584 144.833311 
L 299.382201 148.303475 
L 295.964785 152.021508 
L 294.085206 154.748066 
L 293.572593 157.226754 
L 293.914335 158.713967 
L 295.623043 158.961836 
L 298.356976 159.705443 
L 301.945263 160.20118 
L 307.242258 160.20118 
L 311.001416 160.696918 
L 314.077091 160.944787 
L 317.152766 161.688393 
L 320.22844 162.184131 
L 321.937148 162.184131 
L 324.841952 161.688393 
L 329.455464 161.192656 
L 332.70201 160.696918 
L 336.461167 159.953311 
L 337.486392 158.713967 
L 348.422124 155.739541 
L 352.523024 154.252328 
L 356.794794 184.988066 
L 358.674373 185.731672 
L 362.775273 186.475279 
L 366.192689 187.218885 
L 367.901397 186.723148 
L 366.192689 184.988066 
L 366.021818 183.99659 
L 364.825722 182.757246 
L 359.528727 178.543475 
L 357.136536 176.808393 
L 355.256957 174.825443 
L 348.080383 169.372328 
L 346.029933 167.885115 
L 343.296 166.64577 
L 336.802909 164.167082 
L 336.632038 162.927738 
L 336.802909 161.936262 
L 335.094201 161.192656 
L 331.847656 159.953311 
L 330.309818 158.713967 
L 330.138947 157.970361 
L 331.164172 157.970361 
L 331.676785 157.226754 
L 333.556364 156.235279 
L 334.239847 155.491672 
L 335.094201 154.995934 
L 335.265072 154.252328 
L 334.410718 153.012984 
L 333.556364 152.021508 
L 333.556364 151.773639 
L 332.189397 151.277902 
L 329.455464 150.782164 
L 323.816727 150.286426 
L 319.886699 149.54282 
L 316.640153 149.047082 
L 312.539254 148.303475 
L 308.267483 146.816262 
L 302.116134 145.576918 
L 298.698718 144.337574 
L 295.623043 143.346098 
L 293.230852 142.106754 
L 290.667789 141.115279 
L 288.61734 139.875934 
L 286.054278 138.63659 
L 284.51644 137.397246 
L 282.978603 136.40577 
L 280.757282 134.42282 
L 278.535962 133.183475 
L 275.460287 131.696262 
L 272.213742 130.704787 
L 268.112842 129.217574 
L 263.49933 127.97823 
L 261.790622 127.234623 
L 260.765397 128.226098 
L 255.639273 126.491016 
L 247.266603 123.268721 
L 246.924861 124.508066 
L 245.216153 125.251672 
L 239.577416 123.268721 
L 230.521263 119.054951 
L 219.756402 115.584787 
L 203.694545 113.106098 
L 196.859713 111.618885 
L 195.492746 111.866754 
L 193.442297 111.618885 
L 186.607464 108.148721 
L 187.120077 106.413639 
L 185.923981 103.934951 
L 185.923981 101.456262 
L 187.290947 101.456262 
L 185.411368 97.73823 
L 187.120077 96.994623 
L 188.487043 96.251016 
L 190.195751 96.003148 
L 190.537493 95.259541 
L 191.050105 95.259541 
L 191.220976 95.011672 
L 191.562718 94.763803 
L 193.613167 94.763803 
L 197.372325 93.772328 
L 199.935388 93.27659 
L 204.036287 93.772328 
L 206.257608 94.268066 
L 208.478928 95.011672 
L 209.333282 95.50741 
L 210.529378 96.003148 
L 211.383732 96.746754 
L 212.067215 97.73823 
L 212.921569 98.481836 
L 212.921569 98.729705 
L 213.09244 99.225443 
L 214.117665 97.986098 
L 214.801148 98.233967 
L 218.902048 100.712656 
L 219.243789 101.456262 
L 220.439885 102.199869 
L 221.294239 102.943475 
L 221.46511 103.687082 
L 221.46511 104.430689 
L 221.977722 105.670033 
L 222.490335 108.148721 
L 222.490335 109.388066 
L 222.319464 110.131672 
L 223.344689 112.610361 
L 224.199043 113.849705 
L 224.540785 115.089049 
L 224.028172 116.080525 
L 223.002947 118.807082 
L 222.148593 120.046426 
L 220.952498 121.28577 
L 219.072919 122.277246 
L 217.535081 123.268721 
L 215.655502 123.764459 
L 212.579828 123.020852 
L 211.383732 124.508066 
L 212.579828 125.995279 
L 217.022469 128.226098 
L 219.585531 130.456918 
L 220.439885 130.952656 
L 221.806852 131.448393 
L 223.344689 132.192 
L 224.711656 131.696262 
L 226.249493 131.448393 
L 228.983426 131.448393 
L 229.325167 130.952656 
L 230.350392 131.448393 
L 231.375617 131.696262 
L 238.381321 136.157902 
L 240.602641 137.397246 
L 241.798737 138.388721 
L 247.608344 140.123803 
L 254.101435 142.354623 
L 258.885818 144.585443 
L 267.087617 145.824787 
L 278.365091 149.047082 
L 280.928153 150.286426 
L 286.908632 152.269377 
L 289.813435 153.75659 
L 291.863885 155.243803 
L 292.034756 155.739541 
L 291.180402 156.483148 
L 289.642565 157.722492 
L 286.054278 158.466098 
L 278.365091 158.21823 
L 262.303234 155.243803 
L 246.241378 151.030033 
L 240.43177 149.294951 
L 230.179522 145.08118 
L 230.179522 144.585443 
L 231.88823 144.833311 
L 234.451292 145.08118 
L 239.235675 144.585443 
L 242.140478 143.593967 
L 243.507445 142.850361 
L 247.437474 140.123803 
L 251.025761 138.63659 
L 256.151885 138.884459 
L 258.202335 138.140852 
L 259.22756 138.140852 
L 261.790622 138.388721 
L 261.107139 140.619541 
L 267.60023 142.850361 
L 272.726354 147.064131 
L 272.726354 147.807738 
L 268.112842 143.841836 
L 267.60023 142.850361 
L 267.941971 141.611016 
L 270.846775 141.115279 
L 275.289416 141.363148 
L 281.440766 140.86741 
L 294.426947 142.106754 
L 311.85577 144.337574 
L 316.640153 144.585443 
L 325.183694 146.320525 
L 341.24555 150.286426 
L 352.523024 155.98741 
L 360.212211 158.961836 
L 375.248842 162.679869 
L 382.767158 163.919213 
L 388.405895 164.167082 
L 391.994182 163.175607 
L 394.215502 162.679869 
L 395.75334 162.184131 
L 396.778565 161.688393 
L 397.291177 161.936262 
L 397.803789 162.679869 
L 398.145531 164.167082 
L 398.316402 164.167082 
L 398.316402 165.158557 
L 398.487273 166.893639 
L 398.487273 295.537574 
L 398.487273 295.537574 
L 273.068096 295.537574 
L 259.740172 293.306754 
L 248.633569 285.127082 
L 241.286124 276.699541 
L 233.255196 268.024131 
L 222.661206 259.100852 
L 210.187636 249.681836 
L 198.39755 241.254295 
L 182.335694 232.826754 
L 166.615579 225.14282 
L 153.629397 219.937574 
L 139.959732 213.492984 
L 124.581359 210.02282 
L 108.177761 206.800525 
L 97.071158 203.826098 
L 88.356746 201.099541 
L 82.88888 198.868721 
L 79.642335 196.390033 
L 78.446239 193.911344 
L 80.838431 191.928393 
L 83.743234 189.201836 
L 85.793684 185.979541 
L 89.2111 182.757246 
L 93.141129 180.278557 
L 96.216804 177.799869 
L 97.58377 175.816918 
L 100.830316 174.329705 
L 105.785569 173.090361 
L 113.645627 172.098885 
L 123.214392 171.603148 
L 127.827904 168.87659 
L 131.757933 166.150033 
L 129.024 161.688393 
L 123.556134 156.978885 
L 115.012593 152.269377 
L 110.740823 149.047082 
L 97.925512 143.841836 
L 83.059751 139.132328 
L 73.832727 137.645115 
L 73.832727 132.439869 
L 73.832727 135.414295 
L 78.958852 140.86741 
L 86.477167 145.329049 
L 94.678967 148.799213 
L 96.900287 149.54282 
L 98.096383 150.534295 
L 100.488574 151.52577 
L 102.197282 152.021508 
L 99.292478 150.038557 
L 97.071158 149.294951 
L 92.115904 147.807738 
L 87.844134 147.064131 
L 85.281072 147.559869 
L 81.351043 147.559869 
L 77.421014 147.807738 
L 73.832727 147.559869 
L 73.832727 147.559869 
L 73.832727 146.816262 
L 73.832727 149.54282 
L 74.174469 149.294951 
L 74.857952 149.54282 
L 73.832727 150.038557 
L 73.832727 154.995934 
L 75.541435 156.731016 
L 79.471464 158.713967 
L 84.084976 160.449049 
L 89.04023 162.432 
L 94.849837 164.167082 
L 101.172057 165.654295 
L 107.323407 166.893639 
L 113.987368 167.637246 
L 121.676555 168.628721 
L 129.707483 169.124459 
L 136.371445 168.87659 
L 142.522794 168.132984 
L 146.452823 166.893639 
L 150.553722 166.397902 
L 153.800268 165.654295 
L 158.072038 165.158557 
L 160.805971 164.414951 
L 163.027292 162.927738 
L 165.419483 161.936262 
L 169.349512 160.944787 
L 173.450411 160.449049 
L 178.405665 159.705443 
L 181.652211 159.457574 
L 184.044402 158.961836 
L 185.069627 159.209705 
L 184.215273 158.961836 
L 181.310469 159.209705 
L 178.405665 159.705443 
L 170.887349 160.696918 
L 164.565129 160.696918 
L 159.097263 160.449049 
L 156.021589 160.944787 
L 153.287656 160.944787 
L 151.749818 176.560525 
L 151.920689 175.816918 
L 156.36333 174.081836 
L 154.996364 170.115934 
L 159.439005 169.620197 
L 167.299062 169.868066 
L 180.626986 171.10741 
L 187.632689 171.851016 
L 194.296651 173.33823 
L 195.151005 174.081836 
L 197.884938 172.842492 
L 203.011062 170.859541 
L 210.87112 168.132984 
L 219.585531 164.66282 
L 227.78733 160.944787 
L 231.88823 158.713967 
L 234.451292 157.474623 
L 233.767809 157.722492 
L 229.666909 156.235279 
L 226.591234 156.235279 
L 226.762105 156.978885 
L 230.863005 157.474623 
L 233.255196 158.21823 
L 236.843483 158.21823 
L 242.140478 156.483148 
L 246.924861 154.252328 
L 251.025761 151.52577 
L 252.90534 148.551344 
L 257.347981 146.320525 
L 260.081914 143.593967 
L 264.011943 141.611016 
L 271.701129 139.380197 
L 277.852478 136.653639 
L 282.46599 133.183475 
L 284.687311 129.713311 
L 280.24467 126.986754 
L 276.14377 124.755934 
L 270.675904 123.020852 
L 258.373206 121.28577 
L 254.101435 121.781508 
L 249.658794 123.51659 
L 246.924861 125.995279 
L 245.387024 127.730361 
L 248.462699 127.482492 
L 253.417952 125.995279 
L 260.252785 123.51659 
L 266.916746 120.790033 
L 272.726354 117.815607 
L 277.510737 116.080525 
L 283.491215 114.097574 
L 284.858182 114.097574 
L 291.351273 120.542164 
L 286.908632 123.020852 
L 287.250373 129.713311 
L 284.687311 138.388721 
L 282.807732 146.816262 
L 276.998124 155.243803 
L 274.093321 160.696918 
L 273.580708 163.423475 
L 274.605933 164.66282 
L 276.998124 165.406426 
L 273.92245 168.628721 
L 266.575005 173.090361 
L 258.373206 178.543475 
L 255.981014 181.76577 
L 248.80444 187.218885 
L 246.241378 190.689049 
L 248.633569 192.424131 
L 248.633569 192.424131 
" clip-path="url(#p749313823e)" style="fill: none; stroke: #ffa07a; stroke-width: 1.5; stroke-linecap: square"/>
   </g>
   <g id="line2d_9">
    <path d="M 218.731177 138.388721 
" clip-path="url(#p749313823e)" style="fill: none; stroke: #ffa07a; stroke-width: 1.5; stroke-linecap: square"/>
    <defs>
     <path id="m1cb069f609" d="M 0 5 
C 1.326016 5 2.597899 4.473168 3.535534 3.535534 
C 4.473168 2.597899 5 1.326016 5 0 
C 5 -1.326016 4.473168 -2.597899 3.535534 -3.535534 
C 2.597899 -4.473168 1.326016 -5 0 -5 
C -1.326016 -5 -2.597899 -4.473168 -3.535534 -3.535534 
C -4.473168 -2.597899 -5 -1.326016 -5 0 
C -5 1.326016 -4.473168 2.597899 -3.535534 3.535534 
C -2.597899 4.473168 -1.326016 5 0 5 
z
" style="stroke: #ffa07a"/>
    </defs>
    <g clip-path="url(#p749313823e)">
     <use xlink:href="#m1cb069f609" x="218.731177" y="138.388721" style="fill: #ffa07a; stroke: #ffa07a"/>
    </g>
   </g>
   <g id="line2d_10">
    <path d="M 248.633569 192.424131 
" clip-path="url(#p749313823e)" style="fill: none; stroke: #ffa07a; stroke-width: 1.5; stroke-linecap: square"/>
    <defs>
     <path id="m7cfcbbb3c2" d="M -5 5 
L 5 5 
L 5 -5 
L -5 -5 
z
" style="stroke: #ffa07a; stroke-linejoin: miter"/>
    </defs>
    <g clip-path="url(#p749313823e)">
     <use xlink:href="#m7cfcbbb3c2" x="248.633569" y="192.424131" style="fill: #ffa07a; stroke: #ffa07a; stroke-linejoin: miter"/>
    </g>
   </g>
   <g id="line2d_11">
    <path d="M 196.17623 159.705443 
L 187.974431 158.21823 
L 179.089148 156.235279 
L 177.209569 155.739541 
L 176.013474 154.748066 
L 176.355215 154.500197 
L 176.013474 154.004459 
L 176.867828 153.75659 
L 183.360919 154.748066 
L 185.582239 154.995934 
L 187.80356 154.995934 
L 194.296651 155.739541 
L 195.321876 155.98741 
L 195.663617 156.235279 
L 195.151005 156.235279 
L 194.980134 156.483148 
L 193.954909 156.731016 
L 188.999656 155.98741 
L 172.937799 151.773639 
L 171.570833 151.773639 
L 174.133895 152.517246 
L 180.456115 154.748066 
L 188.999656 157.970361 
L 196.517971 162.184131 
L 201.473225 166.893639 
L 200.448 172.098885 
L 196.517971 177.304131 
L 193.100555 182.261508 
L 191.562718 187.218885 
L 190.537493 191.432656 
L 185.411368 193.167738 
L 178.063923 193.167738 
L 162.343809 191.680525 
L 154.654622 190.44118 
L 146.452823 188.953967 
L 136.884057 186.971016 
L 128.682258 185.731672 
L 121.163943 184.740197 
L 115.354335 184.492328 
L 112.449531 185.235934 
L 115.866947 186.971016 
L 124.581359 189.697574 
L 139.61799 193.415607 
L 157.901167 198.125115 
L 196.688842 209.031344 
L 212.921569 213.492984 
L 225.053397 215.228066 
L 233.596938 215.475934 
L 242.653091 216.715279 
L 253.247081 219.441836 
L 262.132364 222.416262 
L 268.967196 225.390689 
L 276.14377 227.869377 
L 276.314641 228.117246 
L 271.872 225.886426 
L 268.625455 223.655607 
L 265.891522 220.929049 
L 262.132364 217.954623 
L 257.347981 213.988721 
L 250.85489 209.774951 
L 244.874411 205.065443 
L 240.944383 201.34741 
L 242.140478 200.355934 
L 246.241378 198.372984 
L 248.120957 198.125115 
L 251.196632 197.877246 
L 252.392727 197.629377 
L 251.538373 197.133639 
L 249.146182 196.390033 
L 245.216153 195.398557 
L 240.43177 194.407082 
L 236.501742 193.415607 
L 232.742584 192.919869 
L 228.470813 191.928393 
L 226.762105 191.680525 
L 224.882526 191.184787 
L 223.344689 190.193311 
L 221.806852 189.449705 
L 219.927273 187.714623 
L 220.098144 187.218885 
L 220.952498 186.723148 
L 226.078622 186.723148 
L 230.521263 187.218885 
L 233.767809 187.714623 
L 237.526967 187.962492 
L 239.406545 186.971016 
L 242.140478 189.201836 
L 245.387024 189.945443 
L 248.80444 190.936918 
L 252.221856 192.424131 
L 255.981014 193.663475 
L 259.398431 195.150689 
L 266.062392 198.372984 
L 266.745876 199.364459 
L 267.60023 200.108066 
L 268.283713 200.851672 
L 269.650679 202.834623 
L 269.650679 203.826098 
L 269.82155 204.817574 
L 268.967196 205.313311 
L 268.796325 206.056918 
L 266.916746 206.552656 
L 264.011943 208.039869 
L 262.644976 209.279213 
L 255.12666 211.262164 
L 254.101435 212.501508 
L 253.930565 213.740852 
L 255.297531 215.475934 
L 259.911043 220.185443 
L 262.644976 222.912 
L 261.44888 223.903475 
L 256.835368 224.399213 
L 252.734469 224.647082 
L 249.658794 226.382164 
L 248.80444 227.12577 
L 247.095732 227.12577 
L 245.899636 227.373639 
L 245.899636 228.365115 
L 245.387024 229.35659 
L 249.317053 232.083148 
L 255.12666 235.305443 
L 278.877703 246.955279 
L 288.61734 251.664787 
L 296.306526 257.117902 
L 301.26178 262.075279 
L 302.457876 266.784787 
L 299.723943 271.742164 
L 292.376498 275.708066 
L 287.933856 277.443148 
L 278.706833 283.639869 
L 275.9729 285.62282 
L 269.992421 289.340852 
L 266.404134 292.06741 
L 264.866297 294.29823 
L 265.037167 295.041836 
L 264.524555 295.289705 
L 262.644976 295.537574 
L 258.373206 295.537574 
L 263.670201 295.537574 
L 270.163292 291.819541 
L 279.561187 286.862164 
L 288.959081 280.913311 
L 297.844364 273.972984 
L 305.875292 268.024131 
L 309.292708 263.066754 
L 321.253665 254.887082 
L 325.867177 250.425443 
L 331.335043 246.955279 
L 336.97378 242.741508 
L 341.416421 237.288393 
L 354.402603 228.365115 
L 361.408306 218.202492 
L 365.338335 213.988721 
L 372.344038 209.279213 
L 374.223617 207.544131 
L 377.128421 207.048393 
L 379.178871 207.296262 
L 379.862354 208.287738 
L 379.691483 209.774951 
L 378.666258 211.510033 
L 376.103196 212.997246 
L 372.514909 214.484459 
L 368.41401 215.971672 
L 364.483981 216.963148 
L 361.408306 218.202492 
L 358.674373 219.441836 
L 357.478278 221.176918 
L 357.820019 222.664131 
L 368.755751 229.108721 
L 372.856651 231.835279 
L 375.419713 233.81823 
L 381.05845 235.80118 
L 383.963254 239.023475 
L 385.671962 242.741508 
L 387.038928 246.955279 
L 388.064153 250.92118 
L 388.576766 254.639213 
L 390.285474 262.571016 
L 391.481569 266.289049 
L 393.873761 268.024131 
L 395.240727 269.511344 
L 395.924211 272.981508 
L 396.436823 278.682492 
L 397.120306 280.913311 
L 397.803789 282.648393 
L 397.120306 280.913311 
L 397.803789 280.417574 
L 398.145531 280.417574 
L 398.487273 277.938885 
L 398.487273 250.92118 
L 392.677665 246.70741 
L 378.153646 241.254295 
L 359.870469 233.570361 
L 342.099904 225.390689 
L 323.816727 215.723803 
L 299.382201 203.826098 
L 286.56689 196.88577 
L 278.365091 192.672 
L 272.384612 188.210361 
L 267.258488 183.99659 
L 262.303234 180.526426 
L 259.740172 177.799869 
L 258.885818 175.816918 
L 259.740172 175.569049 
L 259.569301 176.808393 
L 260.252785 178.791344 
L 260.081914 179.78282 
L 260.594526 182.757246 
L 262.474105 183.99659 
L 265.891522 185.235934 
L 270.334163 186.22741 
L 276.14377 187.218885 
L 282.636861 188.210361 
L 287.250373 188.210361 
L 288.446469 187.466754 
L 295.452172 187.714623 
L 297.844364 188.953967 
L 298.015234 189.945443 
L 297.331751 190.936918 
L 295.623043 191.928393 
L 291.863885 193.663475 
L 290.326048 194.654951 
L 289.129952 195.150689 
L 295.793914 199.11659 
L 295.281301 199.364459 
L 295.623043 199.860197 
L 295.793914 200.355934 
L 294.597818 201.099541 
L 293.230852 201.595279 
L 291.522144 201.843148 
L 288.959081 202.338885 
L 291.522144 202.586754 
L 289.300823 204.073967 
L 288.446469 205.56118 
L 288.959081 207.544131 
L 289.984306 208.783475 
L 298.527847 212.501508 
L 306.217033 216.46741 
L 312.710124 220.68118 
L 322.27889 225.14282 
L 326.208919 228.365115 
L 329.626335 229.852328 
L 330.138947 230.595934 
L 329.968077 231.58741 
L 327.746756 231.58741 
L 324.671081 230.100197 
L 319.544957 229.35659 
L 313.564478 228.365115 
L 305.362679 227.12577 
L 299.894813 226.134295 
L 294.93956 225.390689 
L 285.199923 222.912 
L 285.199923 222.664131 
L 285.712536 222.664131 
L 289.300823 223.903475 
L 292.205627 224.894951 
L 294.426947 226.134295 
L 297.844364 227.373639 
L 301.090909 228.860852 
L 304.508325 229.35659 
L 308.096612 230.100197 
L 311.172287 231.58741 
L 313.393608 232.826754 
L 315.273187 234.066098 
L 317.152766 235.80118 
L 319.203215 237.536262 
L 320.911923 240.014951 
L 322.791502 241.502164 
L 327.575885 244.972328 
L 330.309818 246.459541 
L 332.70201 247.451016 
L 336.461167 248.442492 
L 339.707713 248.93823 
L 342.954258 248.690361 
L 344.492096 248.442492 
L 345.34645 247.203148 
L 345.175579 245.715934 
L 344.662967 243.980852 
L 344.662967 241.254295 
L 343.808612 238.527738 
L 341.929033 236.049049 
L 338.682488 232.578885 
L 337.486392 228.860852 
L 338.511617 226.134295 
L 339.878584 223.159869 
L 339.365971 220.68118 
L 339.878584 218.69823 
L 338.853359 216.46741 
L 337.315522 214.980197 
L 335.265072 212.501508 
L 334.581589 210.766426 
L 335.094201 209.031344 
L 338.169876 206.552656 
L 340.391196 206.056918 
L 342.099904 206.304787 
L 341.758163 208.039869 
L 329.797206 215.971672 
L 325.183694 219.193967 
L 321.082794 222.664131 
L 316.469282 229.35659 
L 313.90622 234.561836 
L 309.805321 247.203148 
L 306.900517 253.895607 
L 302.970488 260.340197 
L 299.723943 266.784787 
L 296.99001 273.229377 
L 295.964785 276.451672 
L 291.863885 285.62282 
L 291.863885 288.597246 
L 292.88911 293.058885 
L 294.768689 294.793967 
L 297.844364 295.289705 
L 301.432651 295.537574 
L 371.660555 295.537574 
L 345.688191 295.537574 
L 340.562067 291.075934 
L 334.239847 286.862164 
L 315.785799 277.443148 
L 295.110431 264.801836 
L 284.174699 258.605115 
L 273.92245 252.160525 
L 262.644976 246.211672 
L 251.367502 240.510689 
L 239.577416 235.305443 
L 230.350392 227.869377 
L 223.857301 222.416262 
L 218.902048 217.706754 
L 216.338986 212.997246 
L 218.047694 209.279213 
L 225.053397 203.826098 
L 228.129072 201.099541 
L 229.154297 197.629377 
L 234.963904 196.637902 
L 240.43177 195.150689 
L 242.653091 194.159213 
L 248.633569 191.680525 
L 251.367502 191.432656 
L 258.373206 191.680525 
L 276.485512 193.663475 
L 283.662086 193.911344 
L 294.93956 195.150689 
L 312.880995 197.877246 
L 325.867177 199.11659 
L 358.845244 200.108066 
L 393.361148 200.603803 
L 395.924211 199.612328 
L 397.291177 201.099541 
L 397.97466 203.57823 
L 398.487273 212.997246 
L 398.487273 234.561836 
L 398.487273 233.570361 
L 394.728115 233.81823 
L 383.621512 232.331016 
L 377.470163 232.083148 
L 366.36356 230.348066 
L 357.307407 229.852328 
L 347.3969 230.348066 
L 339.536842 229.852328 
L 335.094201 230.595934 
L 331.164172 231.835279 
L 327.405014 232.331016 
L 322.620632 232.083148 
L 309.805321 229.108721 
L 302.970488 227.621508 
L 299.723943 226.630033 
L 288.788211 222.664131 
L 286.396019 222.168393 
L 286.908632 222.416262 
L 297.16088 224.894951 
L 305.191809 227.12577 
L 314.418833 230.348066 
L 322.108019 232.578885 
L 338.853359 237.040525 
L 346.371675 239.767082 
L 356.111311 243.732984 
L 361.750048 245.715934 
L 366.705301 247.203148 
L 368.58488 246.955279 
L 367.559656 245.468066 
L 366.705301 244.972328 
L 367.388785 245.715934 
L 366.876172 245.963803 
L 364.825722 245.220197 
L 359.870469 242.989377 
L 354.744344 241.006426 
L 346.884287 237.536262 
L 342.783388 236.049049 
L 340.391196 235.553311 
L 338.169876 234.809705 
L 336.290297 234.313967 
L 333.385493 233.074623 
L 330.993301 232.331016 
L 328.259368 231.091672 
L 325.012823 230.100197 
L 320.741053 228.365115 
L 312.026641 225.14282 
L 309.121837 224.151344 
L 306.046163 222.912 
L 304.508325 221.920525 
L 303.995713 221.424787 
L 301.603522 219.937574 
L 299.553072 218.450361 
L 298.527847 217.458885 
L 298.527847 216.715279 
L 298.698718 215.971672 
L 299.553072 215.228066 
L 302.116134 215.475934 
L 302.457876 214.484459 
L 304.508325 214.484459 
L 311.514029 215.723803 
L 321.253665 218.69823 
L 329.284593 220.929049 
L 330.993301 220.929049 
L 331.164172 220.68118 
L 330.309818 220.185443 
L 328.942852 119.054951 
L 326.721531 120.294295 
L 321.082794 122.772984 
L 319.374086 123.268721 
L 317.836249 124.012328 
L 314.760574 124.012328 
L 313.564478 123.51659 
L 312.710124 123.020852 
L 311.6849 122.772984 
L 310.317933 122.277246 
L 308.438354 122.277246 
L 306.558775 122.525115 
L 304.679196 122.525115 
L 294.768689 124.508066 
L 289.984306 125.251672 
L 285.199923 126.243148 
L 275.802029 127.730361 
L 261.44888 130.704787 
L 255.468402 132.439869 
L 248.80444 134.174951 
L 241.627866 136.40577 
L 225.053397 141.115279 
L 217.19334 143.841836 
L 205.061512 145.576918 
L 195.834488 147.312 
L 187.120077 148.551344 
L 180.114373 149.047082 
L 171.570833 148.303475 
L 165.932096 146.320525 
L 161.831196 143.841836 
L 159.609876 140.619541 
L 160.293359 136.901508 
L 162.002067 133.183475 
L 166.957321 130.952656 
L 173.621282 128.473967 
L 179.260019 125.74741 
L 183.360919 124.012328 
L 185.240498 122.525115 
L 183.360919 121.533639 
L 179.772632 122.277246 
L 178.063923 121.781508 
L 180.285244 120.542164 
L 184.215273 118.559213 
L 188.487043 116.080525 
L 187.632689 116.824131 
L 195.151005 113.353967 
L 198.39755 111.618885 
L 202.327579 108.892328 
L 204.036287 106.661508 
L 203.694545 105.174295 
L 201.302354 104.18282 
L 198.739292 102.447738 
L 199.251904 100.464787 
L 195.321876 100.216918 
L 196.17623 98.233967 
L 205.061512 93.524459 
L 210.016766 90.550033 
L 213.263311 88.319213 
L 216.851598 85.344787 
L 216.851598 85.344787 
" clip-path="url(#p749313823e)" style="fill: none; stroke: #0000ff; stroke-width: 1.5; stroke-linecap: square"/>
   </g>
   <g id="line2d_12">
    <path d="M 196.17623 159.705443 
" clip-path="url(#p749313823e)" style="fill: none; stroke: #0000ff; stroke-width: 1.5; stroke-linecap: square"/>
    <defs>
     <path id="m7ff44e50aa" d="M 0 5 
C 1.326016 5 2.597899 4.473168 3.535534 3.535534 
C 4.473168 2.597899 5 1.326016 5 0 
C 5 -1.326016 4.473168 -2.597899 3.535534 -3.535534 
C 2.597899 -4.473168 1.326016 -5 0 -5 
C -1.326016 -5 -2.597899 -4.473168 -3.535534 -3.535534 
C -4.473168 -2.597899 -5 -1.326016 -5 0 
C -5 1.326016 -4.473168 2.597899 -3.535534 3.535534 
C -2.597899 4.473168 -1.326016 5 0 5 
z
" style="stroke: #0000ff"/>
    </defs>
    <g clip-path="url(#p749313823e)">
     <use xlink:href="#m7ff44e50aa" x="196.17623" y="159.705443" style="fill: #0000ff; stroke: #0000ff"/>
    </g>
   </g>
   <g id="line2d_13">
    <path d="M 216.851598 85.344787 
" clip-path="url(#p749313823e)" style="fill: none; stroke: #0000ff; stroke-width: 1.5; stroke-linecap: square"/>
    <defs>
     <path id="mda14367e17" d="M -5 5 
L 5 5 
L 5 -5 
L -5 -5 
z
" style="stroke: #0000ff; stroke-linejoin: miter"/>
    </defs>
    <g clip-path="url(#p749313823e)">
     <use xlink:href="#mda14367e17" x="216.851598" y="85.344787" style="fill: #0000ff; stroke: #0000ff; stroke-linejoin: miter"/>
    </g>
   </g>
   <g id="line2d_14">
    <path d="M 232.571713 187.466754 
L 234.280421 187.466754 
L 234.622163 187.714623 
L 235.305646 187.962492 
L 237.185225 187.962492 
L 237.868708 188.210361 
L 239.748287 188.210361 
L 240.43177 187.714623 
L 240.773512 187.714623 
L 241.627866 187.218885 
L 241.798737 187.218885 
L 240.2609 186.475279 
L 238.381321 186.22741 
L 232.0591 184.988066 
L 213.946794 181.517902 
L 197.714067 177.056262 
L 188.487043 173.33823 
L 188.145301 172.098885 
L 191.391847 171.355279 
L 197.884938 170.363803 
L 207.111962 169.868066 
L 217.364211 169.620197 
L 225.053397 168.87659 
L 228.641684 168.380852 
L 228.470813 167.885115 
L 226.078622 168.628721 
L 225.053397 170.859541 
L 224.882526 172.098885 
L 225.56601 176.064787 
L 227.274718 177.799869 
L 235.647388 184.740197 
L 233.767809 185.235934 
L 230.521263 184.492328 
L 225.907751 183.005115 
L 218.047694 179.534951 
L 212.750699 177.056262 
L 210.016766 175.073311 
L 211.554603 173.090361 
L 216.338986 171.10741 
L 223.51556 169.124459 
L 231.546488 166.64577 
L 237.526967 163.423475 
L 241.627866 159.209705 
L 250.684019 156.235279 
L 252.734469 156.235279 
L 254.443177 156.731016 
L 255.810144 157.970361 
L 256.664498 158.466098 
L 256.835368 158.21823 
L 256.835368 157.970361 
L 255.468402 157.226754 
L 252.90534 156.235279 
L 250.85489 155.243803 
L 248.462699 154.748066 
L 246.75399 154.995934 
L 246.412249 155.739541 
L 248.120957 157.970361 
L 248.975311 159.209705 
L 251.025761 160.696918 
L 252.050986 161.688393 
L 249.829665 163.175607 
L 249.829665 164.414951 
L 250.000536 165.902164 
L 250.342278 167.637246 
L 252.90534 169.124459 
L 254.272306 170.611672 
L 255.981014 171.851016 
L 258.373206 172.842492 
L 261.790622 173.833967 
L 267.258488 175.073311 
L 273.580708 176.312656 
L 280.24467 177.056262 
L 286.054278 177.304131 
L 290.326048 177.056262 
L 293.230852 176.064787 
L 294.426947 174.825443 
L 294.426947 173.090361 
L 294.597818 172.098885 
L 295.452172 171.603148 
L 295.623043 172.098885 
L 295.623043 172.594623 
L 295.793914 173.586098 
L 296.648268 174.081836 
L 295.452172 173.33823 
L 295.452172 173.586098 
L 295.623043 173.833967 
L 295.623043 174.329705 
L 295.281301 174.329705 
L 295.110431 174.081836 
L 293.914335 173.586098 
L 287.933856 169.372328 
L 280.415541 166.397902 
L 263.841072 161.440525 
L 255.810144 159.457574 
L 249.317053 156.731016 
L 247.095732 155.243803 
L 244.53267 154.004459 
L 242.823962 152.765115 
L 241.969608 151.030033 
L 242.311349 149.294951 
L 241.115254 148.799213 
L 247.608344 147.064131 
L 251.025761 145.824787 
L 256.664498 146.320525 
L 261.961493 147.064131 
L 266.745876 148.055607 
L 268.454584 148.055607 
L 274.093321 147.807738 
L 277.168995 147.064131 
L 278.706833 145.824787 
L 280.073799 143.841836 
L 282.124249 143.593967 
L 282.636861 141.363148 
L 280.928153 139.628066 
L 278.19422 138.140852 
L 274.605933 136.901508 
L 272.555483 136.40577 
L 266.745876 134.174951 
L 256.322756 131.944131 
L 253.588823 131.200525 
L 247.437474 129.713311 
L 238.723062 127.97823 
L 233.938679 126.738885 
L 232.229971 126.491016 
L 222.319464 123.51659 
L 219.756402 122.525115 
L 217.364211 122.525115 
L 217.022469 123.020852 
L 216.168115 123.764459 
L 217.19334 124.508066 
L 217.022469 125.003803 
L 218.218565 126.243148 
L 223.344689 130.456918 
L 224.882526 131.944131 
L 225.224268 133.183475 
L 224.882526 135.414295 
L 224.369914 136.157902 
L 221.635981 137.892984 
L 219.072919 139.132328 
L 216.851598 142.354623 
L 216.680727 143.346098 
L 217.19334 146.072656 
L 218.389435 147.559869 
L 219.243789 149.790689 
L 218.047694 150.286426 
L 215.484632 150.782164 
L 213.434182 150.534295 
L 212.238086 150.782164 
L 209.845895 150.286426 
L 207.624574 150.038557 
L 201.302354 149.047082 
L 194.980134 147.559869 
L 192.246201 147.064131 
L 188.487043 145.824787 
L 186.265722 145.329049 
L 184.557014 144.833311 
L 182.335694 144.337574 
L 181.139598 144.337574 
L 180.114373 144.089705 
L 179.260019 144.089705 
L 177.038699 143.346098 
L 169.349512 141.363148 
L 166.102967 140.619541 
L 162.514679 139.628066 
L 158.41378 138.884459 
L 153.629397 138.140852 
L 149.528498 136.653639 
L 143.377148 135.166426 
L 137.567541 133.183475 
L 130.220096 131.200525 
L 115.866947 125.499541 
L 99.805091 121.28577 
L 92.457646 119.30282 
L 84.93933 117.072 
L 79.129722 115.089049 
L 76.395789 113.353967 
L 75.028823 111.618885 
L 74.516211 110.131672 
L 74.174469 108.39659 
L 73.832727 105.422164 
L 73.832727 98.233967 
L 73.832727 126.243148 
L 76.054048 126.738885 
L 79.471464 127.730361 
L 82.71801 128.473967 
L 89.723713 130.456918 
L 91.090679 131.448393 
L 90.578067 132.192 
L 91.432421 132.935607 
L 93.995483 133.679213 
L 97.071158 133.927082 
L 103.222507 135.166426 
L 105.272957 135.910033 
L 107.665148 137.149377 
L 108.861244 137.645115 
L 110.569952 137.892984 
L 111.766048 138.388721 
L 112.791273 138.63659 
L 116.721301 140.371672 
L 117.917397 140.86741 
L 119.626105 141.611016 
L 120.309589 141.611016 
L 121.676555 142.106754 
L 122.70178 142.354623 
L 123.556134 142.354623 
L 123.556134 142.354623 
L 123.385263 142.106754 
L 122.189167 141.611016 
L 121.334813 141.611016 
L 116.208689 140.371672 
L 115.012593 140.371672 
L 112.27866 139.875934 
L 111.082565 139.875934 
L 109.373856 139.628066 
L 107.494278 139.132328 
L 105.95644 138.884459 
L 104.760344 138.884459 
L 103.564249 138.63659 
L 103.564249 138.388721 
L 103.564249 138.388721 
L 104.076861 138.63659 
L 103.90599 138.388721 
L 103.393378 137.892984 
L 103.393378 137.892984 
L 104.076861 138.140852 
L 106.810794 138.884459 
L 108.861244 139.628066 
L 110.05734 140.123803 
L 110.228211 140.371672 
L 109.715598 140.371672 
L 109.715598 140.619541 
L 109.886469 140.86741 
L 110.399081 141.115279 
L 110.399081 141.363148 
L 110.569952 141.611016 
L 111.082565 141.858885 
L 111.595177 141.858885 
L 111.936919 142.106754 
L 112.27866 142.106754 
L 112.27866 142.106754 
L 112.620402 142.354623 
L 113.816498 142.850361 
L 114.158239 143.09823 
L 113.987368 143.346098 
L 111.766048 143.346098 
L 110.399081 143.09823 
L 109.032115 143.09823 
L 108.519502 143.346098 
L 108.177761 143.346098 
L 107.152536 142.850361 
L 106.981665 142.354623 
L 106.981665 141.115279 
L 107.494278 140.619541 
L 108.519502 140.123803 
L 111.253435 139.628066 
L 114.841722 139.628066 
L 116.550431 139.875934 
L 120.309589 140.123803 
L 121.847426 140.123803 
L 121.847426 140.123803 
L 121.847426 140.371672 
L 121.847426 140.371672 
L 121.163943 139.628066 
L 121.334813 139.380197 
L 121.163943 138.884459 
L 120.138718 138.140852 
L 118.43001 137.149377 
L 108.00689 132.439869 
L 105.443828 131.448393 
L 104.418603 131.448393 
L 101.68467 130.952656 
L 98.267254 129.96118 
L 95.875062 129.96118 
L 94.508096 130.209049 
L 92.799388 129.465443 
L 92.970258 129.713311 
L 93.995483 129.465443 
L 96.045933 130.456918 
L 97.242029 130.704787 
L 97.754641 131.200525 
L 98.779866 131.696262 
L 99.463349 132.192 
L 101.001187 132.439869 
L 110.569952 134.42282 
L 117.746526 135.662164 
L 137.738411 139.380197 
L 149.186756 141.115279 
L 159.268134 142.354623 
L 167.982545 142.602492 
L 174.475636 141.115279 
L 183.70266 139.875934 
L 197.030584 140.619541 
L 217.705952 144.585443 
L 267.087617 155.98741 
L 293.401722 163.423475 
L 328.60111 168.380852 
L 359.357856 175.32118 
L 379.520612 184.988066 
L 389.260249 192.672 
L 394.044632 198.868721 
L 396.265952 204.321836 
L 397.97466 213.492984 
L 398.316402 223.903475 
L 398.316402 233.81823 
L 398.487273 239.023475 
L 398.487273 275.212328 
L 398.487273 215.971672 
L 395.75334 213.740852 
L 388.747636 212.997246 
L 382.596287 213.245115 
L 379.691483 212.00577 
L 389.260249 205.065443 
L 392.506794 198.868721 
L 391.139828 196.142164 
L 377.811904 192.176262 
L 369.097493 192.176262 
L 357.307407 190.689049 
L 352.523024 189.201836 
L 340.562067 184.740197 
L 313.393608 175.073311 
L 292.205627 167.637246 
L 269.992421 160.449049 
L 265.891522 159.705443 
L 264.695426 160.20118 
L 266.404134 161.936262 
L 269.308938 164.66282 
L 273.409837 167.885115 
L 276.14377 170.859541 
L 278.19422 172.594623 
L 275.9729 176.808393 
L 273.068096 178.543475 
L 271.188517 179.534951 
L 260.765397 182.757246 
L 255.12666 183.500852 
L 248.975311 183.99659 
L 237.185225 184.492328 
L 232.0591 184.244459 
L 227.445589 184.244459 
L 222.148593 187.714623 
L 219.072919 187.962492 
L 218.218565 187.466754 
L 217.876823 186.723148 
L 221.977722 186.22741 
L 225.395139 186.723148 
L 228.641684 186.475279 
L 231.717359 186.723148 
L 235.647388 186.723148 
L 238.381321 186.475279 
L 240.602641 185.979541 
L 243.507445 185.483803 
L 246.412249 184.244459 
L 248.975311 183.500852 
L 254.443177 183.005115 
L 256.835368 183.005115 
L 259.398431 182.757246 
L 263.670201 181.76577 
L 264.353684 180.774295 
L 264.695426 179.78282 
L 264.182813 178.791344 
L 263.49933 177.799869 
L 261.790622 176.560525 
L 259.398431 175.32118 
L 257.17711 174.329705 
L 254.784919 173.090361 
L 252.221856 166.150033 
L 246.241378 168.87659 
L 245.557895 170.115934 
L 251.025761 176.312656 
L 244.190928 178.543475 
L 242.48222 179.287082 
L 238.381321 180.526426 
L 234.793033 181.76577 
L 231.88823 183.005115 
L 227.78733 183.748721 
L 223.857301 184.988066 
L 220.439885 185.731672 
L 216.851598 186.971016 
L 213.605053 188.210361 
L 204.207158 191.432656 
L 199.081033 192.424131 
L 196.17623 192.672 
L 192.587943 192.424131 
L 187.461818 192.424131 
L 181.823081 192.176262 
L 171.05822 190.689049 
L 163.369033 190.689049 
L 158.072038 188.706098 
L 154.483751 186.22741 
L 150.553722 183.252984 
L 147.819789 179.78282 
L 147.136306 175.569049 
L 145.256727 171.355279 
L 143.889761 166.397902 
L 142.010182 160.944787 
L 139.959732 155.98741 
L 138.251024 150.534295 
L 136.713187 144.585443 
L 136.713187 138.388721 
L 134.491866 133.183475 
L 133.808383 127.97823 
L 135.34622 123.020852 
L 135.517091 118.559213 
L 138.080153 113.601836 
L 140.472344 109.388066 
L 144.402373 104.926426 
L 157.046813 94.268066 
L 163.881646 89.806426 
L 170.887349 85.096918 
L 177.209569 81.378885 
L 183.190048 78.15659 
L 188.145301 75.677902 
L 194.12578 73.199213 
L 193.784038 73.94282 
L 193.613167 74.934295 
L 194.296651 75.677902 
L 193.100555 77.165115 
L 192.07533 79.148066 
L 190.537493 81.131016 
L 189.85401 83.113967 
L 186.094852 88.071344 
L 180.285244 93.772328 
L 176.867828 96.994623 
L 173.10867 100.216918 
L 173.10867 100.216918 
" clip-path="url(#p749313823e)" style="fill: none; stroke: #00fa9a; stroke-width: 1.5; stroke-linecap: square"/>
   </g>
   <g id="line2d_15">
    <path d="M 232.571713 187.466754 
" clip-path="url(#p749313823e)" style="fill: none; stroke: #00fa9a; stroke-width: 1.5; stroke-linecap: square"/>
    <defs>
     <path id="m920f7c7399" d="M 0 5 
C 1.326016 5 2.597899 4.473168 3.535534 3.535534 
C 4.473168 2.597899 5 1.326016 5 0 
C 5 -1.326016 4.473168 -2.597899 3.535534 -3.535534 
C 2.597899 -4.473168 1.326016 -5 0 -5 
C -1.326016 -5 -2.597899 -4.473168 -3.535534 -3.535534 
C -4.473168 -2.597899 -5 -1.326016 -5 0 
C -5 1.326016 -4.473168 2.597899 -3.535534 3.535534 
C -2.597899 4.473168 -1.326016 5 0 5 
z
" style="stroke: #00fa9a"/>
    </defs>
    <g clip-path="url(#p749313823e)">
     <use xlink:href="#m920f7c7399" x="232.571713" y="187.466754" style="fill: #00fa9a; stroke: #00fa9a"/>
    </g>
   </g>
   <g id="line2d_16">
    <path d="M 173.10867 100.216918 
" clip-path="url(#p749313823e)" style="fill: none; stroke: #00fa9a; stroke-width: 1.5; stroke-linecap: square"/>
    <defs>
     <path id="m4ce7ade4cc" d="M -5 5 
L 5 5 
L 5 -5 
L -5 -5 
z
" style="stroke: #00fa9a; stroke-linejoin: miter"/>
    </defs>
    <g clip-path="url(#p749313823e)">
     <use xlink:href="#m4ce7ade4cc" x="173.10867" y="100.216918" style="fill: #00fa9a; stroke: #00fa9a; stroke-linejoin: miter"/>
    </g>
   </g>
   <g id="line2d_17">
    <path d="M 221.46511 141.363148 
L 221.635981 141.363148 
L 221.977722 141.858885 
L 221.977722 142.106754 
L 222.490335 142.354623 
L 221.806852 142.602492 
L 221.977722 142.602492 
L 222.319464 142.602492 
L 223.002947 142.850361 
L 225.053397 143.346098 
L 226.078622 143.841836 
L 227.103847 144.089705 
L 228.299943 144.089705 
L 228.983426 144.337574 
L 228.641684 144.089705 
L 228.641684 143.841836 
L 227.445589 143.09823 
L 225.56601 142.354623 
L 223.344689 141.858885 
L 218.902048 140.619541 
L 217.535081 140.619541 
L 216.168115 139.628066 
L 214.459407 138.884459 
L 211.896344 138.388721 
L 208.478928 138.140852 
L 205.744995 140.619541 
L 201.814967 141.363148 
L 197.543196 142.850361 
L 186.778335 145.576918 
L 184.727885 146.568393 
L 178.747407 147.559869 
L 175.15912 147.807738 
L 169.349512 147.807738 
L 165.590354 148.055607 
L 161.831196 148.551344 
L 157.046813 148.799213 
L 152.262431 149.294951 
L 148.845014 149.294951 
L 142.864536 148.799213 
L 137.567541 148.799213 
L 135.175349 148.303475 
L 131.757933 147.807738 
L 125.264842 148.055607 
L 119.626105 147.312 
L 110.911694 146.816262 
L 108.861244 146.320525 
L 106.981665 147.312 
L 104.589474 147.559869 
L 103.051636 148.551344 
L 101.342928 150.782164 
L 100.659445 151.773639 
L 101.001187 153.260852 
L 101.001187 154.252328 
L 100.659445 155.491672 
L 101.342928 156.235279 
L 101.68467 156.978885 
L 103.90599 157.722492 
L 106.127311 157.970361 
L 107.665148 158.961836 
L 111.082565 157.970361 
L 113.133014 156.731016 
L 114.670852 155.739541 
L 115.354335 155.491672 
L 115.354335 154.500197 
L 115.696077 153.75659 
L 116.550431 152.765115 
L 113.474756 151.277902 
L 112.27866 150.534295 
L 112.962144 150.286426 
L 113.816498 150.534295 
L 110.911694 149.790689 
L 108.177761 149.54282 
L 104.076861 149.54282 
L 99.805091 150.286426 
L 96.558545 150.286426 
L 93.482871 151.030033 
L 90.236325 151.030033 
L 87.160651 150.782164 
L 82.034526 149.047082 
L 79.984077 148.551344 
L 76.737531 147.312 
L 75.199694 146.568393 
L 74.516211 145.824787 
L 74.003598 145.824787 
L 73.832727 145.576918 
L 73.832727 135.910033 
L 73.832727 148.055607 
L 76.395789 148.551344 
L 79.813206 148.799213 
L 85.281072 149.047082 
L 87.160651 149.294951 
L 94.849837 149.790689 
L 99.975962 150.286426 
L 103.393378 150.038557 
L 105.272957 149.047082 
L 106.469053 147.312 
L 109.032115 147.064131 
L 113.474756 147.312 
L 116.550431 147.064131 
L 128.169646 147.064131 
L 130.903579 146.568393 
L 133.979254 146.320525 
L 137.39667 146.320525 
L 143.206278 146.816262 
L 145.598469 146.568393 
L 145.256727 145.08118 
L 145.940211 144.089705 
L 146.111081 143.346098 
L 145.256727 142.602492 
L 144.231502 141.363148 
L 142.351923 141.115279 
L 141.326699 140.619541 
L 141.839311 139.628066 
L 141.326699 139.380197 
L 137.225799 138.884459 
L 137.225799 139.875934 
L 136.713187 140.123803 
L 135.34622 140.123803 
L 132.783158 139.628066 
L 132.099675 139.628066 
L 123.897876 137.149377 
L 120.138718 135.662164 
L 119.796976 135.910033 
L 119.455234 135.910033 
L 117.917397 135.414295 
L 116.208689 134.670689 
L 115.354335 134.174951 
L 115.354335 133.679213 
L 114.841722 133.183475 
L 112.962144 131.944131 
L 113.303885 131.696262 
L 112.791273 131.200525 
L 113.303885 130.456918 
L 112.962144 130.209049 
L 112.620402 129.713311 
L 112.962144 129.465443 
L 114.670852 129.713311 
L 115.866947 129.465443 
L 116.550431 129.465443 
L 116.892172 128.969705 
L 118.43001 128.473967 
L 119.455234 128.721836 
L 118.942622 128.473967 
L 119.113493 128.721836 
L 119.113493 129.217574 
L 118.43001 129.217574 
L 118.088268 129.465443 
L 115.183464 129.465443 
L 114.670852 129.96118 
L 112.449531 129.465443 
L 110.228211 128.721836 
L 110.228211 128.969705 
L 109.544727 128.721836 
L 106.639923 128.226098 
L 106.469053 128.226098 
L 106.469053 128.226098 
L 107.323407 128.473967 
L 107.494278 128.473967 
L 108.177761 128.969705 
L 109.032115 129.217574 
L 110.228211 129.217574 
L 113.303885 129.713311 
L 114.499981 129.713311 
L 116.892172 130.209049 
L 119.113493 130.456918 
L 121.334813 130.952656 
L 122.360038 130.952656 
L 123.385263 131.448393 
L 124.410488 131.696262 
L 125.606584 131.696262 
L 127.144421 132.192 
L 126.460938 132.687738 
L 126.802679 133.431344 
L 126.802679 133.927082 
L 122.189167 132.192 
L 121.505684 131.696262 
L 121.847426 131.200525 
L 121.334813 130.704787 
L 121.334813 129.713311 
L 122.018297 128.969705 
L 122.189167 127.730361 
L 122.018297 126.243148 
L 122.530909 125.251672 
L 122.872651 123.020852 
L 123.897876 122.029377 
L 123.556134 121.533639 
L 124.068746 121.28577 
L 124.068746 121.28577 
L 123.556134 121.28577 
L 122.872651 121.037902 
L 122.189167 121.037902 
L 122.872651 122.029377 
L 123.727005 122.029377 
L 124.581359 121.037902 
L 124.9231 120.294295 
L 126.119196 119.798557 
L 126.460938 118.807082 
L 126.802679 118.311344 
L 126.802679 117.319869 
L 127.657033 116.576262 
L 127.998775 115.832656 
L 128.511388 115.336918 
L 129.365742 115.089049 
L 131.245321 114.097574 
L 131.587062 113.601836 
L 131.757933 112.85823 
L 132.441416 112.114623 
L 133.1249 109.883803 
L 133.808383 109.635934 
L 134.662737 109.140197 
L 135.004478 108.644459 
L 135.004478 107.900852 
L 135.517091 107.652984 
L 134.150124 106.413639 
L 133.466641 105.917902 
L 132.099675 105.174295 
L 131.07445 104.430689 
L 129.878354 103.191344 
L 129.536612 102.447738 
L 130.049225 101.456262 
L 129.194871 98.729705 
L 129.536612 97.986098 
L 130.049225 97.490361 
L 130.220096 96.251016 
L 131.07445 95.50741 
L 131.245321 95.011672 
L 131.757933 94.515934 
L 132.441416 94.268066 
L 133.808383 94.020197 
L 135.004478 93.524459 
L 135.687962 93.27659 
L 136.713187 93.27659 
L 138.592766 93.524459 
L 139.61799 92.780852 
L 142.864536 92.037246 
L 144.402373 91.789377 
L 144.060632 91.293639 
L 143.71889 91.541508 
L 143.377148 91.541508 
L 142.351923 91.789377 
L 142.522794 92.037246 
L 141.66844 91.541508 
L 141.326699 89.558557 
L 141.497569 88.319213 
L 142.181053 87.079869 
L 144.060632 86.584131 
L 145.256727 85.840525 
L 147.307177 85.096918 
L 144.914986 84.60118 
L 142.522794 83.857574 
L 140.472344 83.609705 
L 139.105378 83.857574 
L 137.567541 83.609705 
L 136.029703 82.61823 
L 137.39667 82.370361 
L 138.251024 81.874623 
L 139.44712 80.883148 
L 140.472344 79.395934 
L 141.326699 77.660852 
L 142.693665 75.92577 
L 144.914986 74.438557 
L 149.699368 72.455607 
L 151.749818 71.464131 
L 153.800268 70.224787 
L 156.021589 68.241836 
L 158.926392 67.993967 
L 161.147713 67.993967 
L 164.394258 68.737574 
L 172.083445 69.729049 
L 178.405665 69.729049 
L 180.968727 68.985443 
L 184.215273 68.241836 
L 187.974431 67.49823 
L 190.879234 66.011016 
L 193.442297 61.797246 
L 191.733589 58.82282 
L 188.657914 55.104787 
L 187.290947 54.609049 
L 185.75311 55.352656 
L 184.557014 57.335607 
L 187.974431 62.045115 
L 197.372325 71.712 
L 186.436593 76.421508 
L 177.38044 83.857574 
L 170.032995 91.293639 
L 160.976842 98.233967 
L 156.192459 103.934951 
L 157.730297 109.388066 
L 162.856421 111.371016 
L 176.526086 113.849705 
L 193.271426 115.584787 
L 200.618871 116.824131 
L 208.137187 117.319869 
L 217.022469 119.30282 
L 224.199043 119.798557 
L 234.10955 121.037902 
L 248.120957 123.764459 
L 264.695426 129.217574 
L 279.219445 134.42282 
L 293.230852 142.106754 
L 304.679196 149.047082 
L 316.469282 154.995934 
L 328.771981 160.20118 
L 339.02423 165.158557 
L 353.035636 169.868066 
L 363.287885 173.586098 
L 368.755751 178.543475 
L 371.147943 183.500852 
L 369.951847 188.706098 
L 361.237435 193.167738 
L 350.643445 198.372984 
L 342.954258 203.826098 
L 326.55066 208.783475 
L 316.298411 213.988721 
L 301.603522 220.433311 
L 295.281301 227.373639 
L 292.205627 236.792656 
L 291.180402 245.715934 
L 296.648268 255.878557 
L 296.819139 267.280525 
L 291.180402 280.169705 
L 285.370794 290.332328 
L 282.978603 293.802492 
L 286.56689 295.041836 
L 286.225148 295.289705 
L 291.009531 295.537574 
L 369.780976 295.537574 
L 103.90599 295.537574 
L 88.527617 283.887738 
L 81.009301 269.015607 
L 75.541435 248.194623 
L 74.174469 215.971672 
L 74.003598 205.56118 
L 74.003598 197.133639 
L 73.832727 190.936918 
L 73.832727 162.432 
L 73.832727 212.997246 
L 83.230622 218.450361 
L 100.317703 226.134295 
L 111.595177 230.843803 
L 119.113493 234.809705 
L 125.435713 238.279869 
L 129.878354 241.502164 
L 137.909282 245.715934 
L 137.738411 245.715934 
L 139.61799 248.194623 
L 141.839311 250.92118 
L 143.035407 253.152 
L 143.889761 254.391344 
L 144.914986 255.134951 
L 146.281952 255.38282 
L 147.478048 255.38282 
L 147.307177 255.878557 
L 146.281952 255.878557 
L 143.035407 255.38282 
L 135.687962 253.647738 
L 128.853129 252.160525 
L 119.967847 249.681836 
L 110.399081 246.70741 
L 107.323407 245.963803 
L 106.810794 245.220197 
L 111.082565 245.468066 
L 114.32911 244.47659 
L 116.37956 243.237246 
L 118.259139 242.493639 
L 119.455234 241.750033 
L 118.60088 240.26282 
L 116.721301 239.023475 
L 111.936919 236.792656 
L 106.639923 235.305443 
L 103.051636 233.81823 
L 103.564249 233.074623 
L 110.05734 233.570361 
L 113.645627 233.570361 
L 122.530909 234.313967 
L 137.054928 235.305443 
L 146.281952 235.553311 
L 155.167234 236.544787 
L 161.318584 237.040525 
L 167.469933 238.279869 
L 173.450411 238.032 
L 180.797856 236.792656 
L 191.220976 235.80118 
L 201.644096 234.561836 
L 210.700249 233.322492 
L 227.445589 235.80118 
L 238.893933 236.544787 
L 245.899636 235.80118 
L 253.759694 234.809705 
L 261.790622 235.057574 
L 272.384612 234.561836 
L 281.099024 233.81823 
L 286.908632 234.066098 
L 300.407426 234.313967 
L 308.780096 233.322492 
L 314.418833 232.083148 
L 318.17799 230.348066 
L 316.811024 228.860852 
L 314.589703 226.134295 
L 309.292708 221.672656 
L 305.191809 218.946098 
L 299.894813 215.723803 
L 285.370794 209.031344 
L 276.998124 205.56118 
L 268.796325 202.586754 
L 253.588823 196.390033 
L 246.924861 193.167738 
L 234.963904 186.971016 
L 223.002947 180.526426 
L 217.876823 177.304131 
L 206.428478 169.124459 
L 204.5489 167.389377 
L 202.840191 165.158557 
L 200.960612 161.440525 
L 198.739292 157.970361 
L 198.739292 157.970361 
" clip-path="url(#p749313823e)" style="fill: none; stroke: #008000; stroke-width: 1.5; stroke-linecap: square"/>
   </g>
   <g id="line2d_18">
    <path d="M 221.46511 141.363148 
" clip-path="url(#p749313823e)" style="fill: none; stroke: #008000; stroke-width: 1.5; stroke-linecap: square"/>
    <defs>
     <path id="m2031393b20" d="M 0 5 
C 1.326016 5 2.597899 4.473168 3.535534 3.535534 
C 4.473168 2.597899 5 1.326016 5 0 
C 5 -1.326016 4.473168 -2.597899 3.535534 -3.535534 
C 2.597899 -4.473168 1.326016 -5 0 -5 
C -1.326016 -5 -2.597899 -4.473168 -3.535534 -3.535534 
C -4.473168 -2.597899 -5 -1.326016 -5 0 
C -5 1.326016 -4.473168 2.597899 -3.535534 3.535534 
C -2.597899 4.473168 -1.326016 5 0 5 
z
" style="stroke: #008000"/>
    </defs>
    <g clip-path="url(#p749313823e)">
     <use xlink:href="#m2031393b20" x="221.46511" y="141.363148" style="fill: #008000; stroke: #008000"/>
    </g>
   </g>
   <g id="line2d_19">
    <path d="M 198.739292 157.970361 
" clip-path="url(#p749313823e)" style="fill: none; stroke: #008000; stroke-width: 1.5; stroke-linecap: square"/>
    <defs>
     <path id="m165a71767e" d="M -5 5 
L 5 5 
L 5 -5 
L -5 -5 
z
" style="stroke: #008000; stroke-linejoin: miter"/>
    </defs>
    <g clip-path="url(#p749313823e)">
     <use xlink:href="#m165a71767e" x="198.739292" y="157.970361" style="fill: #008000; stroke: #008000; stroke-linejoin: miter"/>
    </g>
   </g>
   <g id="line2d_20">
    <path d="M 349.83001 229.027711 
" clip-path="url(#p749313823e)" style="fill: none; stroke: #ff0000; stroke-width: 1.5; stroke-linecap: square"/>
    <defs>
     <path id="m16f48ebc89" d="M -2.5 5 
L 0 2.5 
L 2.5 5 
L 5 2.5 
L 2.5 0 
L 5 -2.5 
L 2.5 -5 
L 0 -2.5 
L -2.5 -5 
L -5 -2.5 
L -2.5 0 
L -5 2.5 
z
" style="stroke: #ff0000; stroke-linejoin: miter"/>
    </defs>
    <g clip-path="url(#p749313823e)">
     <use xlink:href="#m16f48ebc89" x="349.83001" y="229.027711" style="fill: #ff0000; stroke: #ff0000; stroke-linejoin: miter"/>
    </g>
   </g>
   <g id="line2d_21">
    <path d="M 323.617978 225.540619 
" clip-path="url(#p749313823e)" style="fill: none; stroke: #ffa07a; stroke-width: 1.5; stroke-linecap: square"/>
    <defs>
     <path id="mbf7829215d" d="M -2.5 5 
L 0 2.5 
L 2.5 5 
L 5 2.5 
L 2.5 0 
L 5 -2.5 
L 2.5 -5 
L 0 -2.5 
L -2.5 -5 
L -5 -2.5 
L -2.5 0 
L -5 2.5 
z
" style="stroke: #ffa07a; stroke-linejoin: miter"/>
    </defs>
    <g clip-path="url(#p749313823e)">
     <use xlink:href="#mbf7829215d" x="323.617978" y="225.540619" style="fill: #ffa07a; stroke: #ffa07a; stroke-linejoin: miter"/>
    </g>
   </g>
   <g id="line2d_22">
    <path d="M 103.128528 199.885588 
" clip-path="url(#p749313823e)" style="fill: none; stroke: #0000ff; stroke-width: 1.5; stroke-linecap: square"/>
    <defs>
     <path id="m659b5bcd52" d="M -2.5 5 
L 0 2.5 
L 2.5 5 
L 5 2.5 
L 2.5 0 
L 5 -2.5 
L 2.5 -5 
L 0 -2.5 
L -2.5 -5 
L -5 -2.5 
L -2.5 0 
L -5 2.5 
z
" style="stroke: #0000ff; stroke-linejoin: miter"/>
    </defs>
    <g clip-path="url(#p749313823e)">
     <use xlink:href="#m659b5bcd52" x="103.128528" y="199.885588" style="fill: #0000ff; stroke: #0000ff; stroke-linejoin: miter"/>
    </g>
   </g>
   <g id="line2d_23">
    <path d="M 135.165457 231.269412 
" clip-path="url(#p749313823e)" style="fill: none; stroke: #00fa9a; stroke-width: 1.5; stroke-linecap: square"/>
    <defs>
     <path id="mc5a73b5af0" d="M -2.5 5 
L 0 2.5 
L 2.5 5 
L 5 2.5 
L 2.5 0 
L 5 -2.5 
L 2.5 -5 
L 0 -2.5 
L -2.5 -5 
L -5 -2.5 
L -2.5 0 
L -5 2.5 
z
" style="stroke: #00fa9a; stroke-linejoin: miter"/>
    </defs>
    <g clip-path="url(#p749313823e)">
     <use xlink:href="#mc5a73b5af0" x="135.165457" y="231.269412" style="fill: #00fa9a; stroke: #00fa9a; stroke-linejoin: miter"/>
    </g>
   </g>
   <g id="line2d_24">
    <path d="M 112.208513 235.25466 
" clip-path="url(#p749313823e)" style="fill: none; stroke: #008000; stroke-width: 1.5; stroke-linecap: square"/>
    <defs>
     <path id="m8d4030ff1c" d="M -2.5 5 
L 0 2.5 
L 2.5 5 
L 5 2.5 
L 2.5 0 
L 5 -2.5 
L 2.5 -5 
L 0 -2.5 
L -2.5 -5 
L -5 -2.5 
L -2.5 0 
L -5 2.5 
z
" style="stroke: #008000; stroke-linejoin: miter"/>
    </defs>
    <g clip-path="url(#p749313823e)">
     <use xlink:href="#m8d4030ff1c" x="112.208513" y="235.25466" style="fill: #008000; stroke: #008000; stroke-linejoin: miter"/>
    </g>
   </g>
   <g id="patch_3">
    <path d="M 57.6 307.584 
L 57.6 41.472 
" style="fill: none; stroke: #000000; stroke-width: 0.8; stroke-linejoin: miter; stroke-linecap: square"/>
   </g>
   <g id="patch_4">
    <path d="M 57.6 307.584 
L 414.72 307.584 
" style="fill: none; stroke: #000000; stroke-width: 0.8; stroke-linejoin: miter; stroke-linecap: square"/>
   </g>
   <g id="legend_1">
    <g id="patch_5">
     <path d="M 241.591875 141.54075 
L 404.22 141.54075 
Q 407.22 141.54075 407.22 138.54075 
L 407.22 51.972 
Q 407.22 48.972 404.22 48.972 
L 241.591875 48.972 
Q 238.591875 48.972 238.591875 51.972 
L 238.591875 138.54075 
Q 238.591875 141.54075 241.591875 141.54075 
z
" style="fill: #ffffff; opacity: 0.8; stroke: #cccccc; stroke-linejoin: miter"/>
    </g>
    <g id="line2d_25">
     <path d="M 244.591875 61.119656 
L 259.591875 61.119656 
L 274.591875 61.119656 
" style="fill: none; stroke: #000000; stroke-width: 1.5; stroke-linecap: square"/>
    </g>
    <g id="text_7">
     <!-- Trajectory -->
     <g transform="translate(286.591875 66.369656)scale(0.15 -0.15)">
      <defs>
       <path id="DejaVuSans-54" d="M -19 4666 
L 3928 4666 
L 3928 4134 
L 2272 4134 
L 2272 0 
L 1638 0 
L 1638 4134 
L -19 4134 
L -19 4666 
z
" transform="scale(0.015625)"/>
       <path id="DejaVuSans-72" d="M 2631 2963 
Q 2534 3019 2420 3045 
Q 2306 3072 2169 3072 
Q 1681 3072 1420 2755 
Q 1159 2438 1159 1844 
L 1159 0 
L 581 0 
L 581 3500 
L 1159 3500 
L 1159 2956 
Q 1341 3275 1631 3429 
Q 1922 3584 2338 3584 
Q 2397 3584 2469 3576 
Q 2541 3569 2628 3553 
L 2631 2963 
z
" transform="scale(0.015625)"/>
       <path id="DejaVuSans-61" d="M 2194 1759 
Q 1497 1759 1228 1600 
Q 959 1441 959 1056 
Q 959 750 1161 570 
Q 1363 391 1709 391 
Q 2188 391 2477 730 
Q 2766 1069 2766 1631 
L 2766 1759 
L 2194 1759 
z
M 3341 1997 
L 3341 0 
L 2766 0 
L 2766 531 
Q 2569 213 2275 61 
Q 1981 -91 1556 -91 
Q 1019 -91 701 211 
Q 384 513 384 1019 
Q 384 1609 779 1909 
Q 1175 2209 1959 2209 
L 2766 2209 
L 2766 2266 
Q 2766 2663 2505 2880 
Q 2244 3097 1772 3097 
Q 1472 3097 1187 3025 
Q 903 2953 641 2809 
L 641 3341 
Q 956 3463 1253 3523 
Q 1550 3584 1831 3584 
Q 2591 3584 2966 3190 
Q 3341 2797 3341 1997 
z
" transform="scale(0.015625)"/>
       <path id="DejaVuSans-6a" d="M 603 3500 
L 1178 3500 
L 1178 -63 
Q 1178 -731 923 -1031 
Q 669 -1331 103 -1331 
L -116 -1331 
L -116 -844 
L 38 -844 
Q 366 -844 484 -692 
Q 603 -541 603 -63 
L 603 3500 
z
M 603 4863 
L 1178 4863 
L 1178 4134 
L 603 4134 
L 603 4863 
z
" transform="scale(0.015625)"/>
       <path id="DejaVuSans-65" d="M 3597 1894 
L 3597 1613 
L 953 1613 
Q 991 1019 1311 708 
Q 1631 397 2203 397 
Q 2534 397 2845 478 
Q 3156 559 3463 722 
L 3463 178 
Q 3153 47 2828 -22 
Q 2503 -91 2169 -91 
Q 1331 -91 842 396 
Q 353 884 353 1716 
Q 353 2575 817 3079 
Q 1281 3584 2069 3584 
Q 2775 3584 3186 3129 
Q 3597 2675 3597 1894 
z
M 3022 2063 
Q 3016 2534 2758 2815 
Q 2500 3097 2075 3097 
Q 1594 3097 1305 2825 
Q 1016 2553 972 2059 
L 3022 2063 
z
" transform="scale(0.015625)"/>
       <path id="DejaVuSans-63" d="M 3122 3366 
L 3122 2828 
Q 2878 2963 2633 3030 
Q 2388 3097 2138 3097 
Q 1578 3097 1268 2742 
Q 959 2388 959 1747 
Q 959 1106 1268 751 
Q 1578 397 2138 397 
Q 2388 397 2633 464 
Q 2878 531 3122 666 
L 3122 134 
Q 2881 22 2623 -34 
Q 2366 -91 2075 -91 
Q 1284 -91 818 406 
Q 353 903 353 1747 
Q 353 2603 823 3093 
Q 1294 3584 2113 3584 
Q 2378 3584 2631 3529 
Q 2884 3475 3122 3366 
z
" transform="scale(0.015625)"/>
       <path id="DejaVuSans-74" d="M 1172 4494 
L 1172 3500 
L 2356 3500 
L 2356 3053 
L 1172 3053 
L 1172 1153 
Q 1172 725 1289 603 
Q 1406 481 1766 481 
L 2356 481 
L 2356 0 
L 1766 0 
Q 1100 0 847 248 
Q 594 497 594 1153 
L 594 3053 
L 172 3053 
L 172 3500 
L 594 3500 
L 594 4494 
L 1172 4494 
z
" transform="scale(0.015625)"/>
       <path id="DejaVuSans-6f" d="M 1959 3097 
Q 1497 3097 1228 2736 
Q 959 2375 959 1747 
Q 959 1119 1226 758 
Q 1494 397 1959 397 
Q 2419 397 2687 759 
Q 2956 1122 2956 1747 
Q 2956 2369 2687 2733 
Q 2419 3097 1959 3097 
z
M 1959 3584 
Q 2709 3584 3137 3096 
Q 3566 2609 3566 1747 
Q 3566 888 3137 398 
Q 2709 -91 1959 -91 
Q 1206 -91 779 398 
Q 353 888 353 1747 
Q 353 2609 779 3096 
Q 1206 3584 1959 3584 
z
" transform="scale(0.015625)"/>
       <path id="DejaVuSans-79" d="M 2059 -325 
Q 1816 -950 1584 -1140 
Q 1353 -1331 966 -1331 
L 506 -1331 
L 506 -850 
L 844 -850 
Q 1081 -850 1212 -737 
Q 1344 -625 1503 -206 
L 1606 56 
L 191 3500 
L 800 3500 
L 1894 763 
L 2988 3500 
L 3597 3500 
L 2059 -325 
z
" transform="scale(0.015625)"/>
      </defs>
      <use xlink:href="#DejaVuSans-54"/>
      <use xlink:href="#DejaVuSans-72" x="46.333984"/>
      <use xlink:href="#DejaVuSans-61" x="87.447266"/>
      <use xlink:href="#DejaVuSans-6a" x="148.726562"/>
      <use xlink:href="#DejaVuSans-65" x="176.509766"/>
      <use xlink:href="#DejaVuSans-63" x="238.033203"/>
      <use xlink:href="#DejaVuSans-74" x="293.013672"/>
      <use xlink:href="#DejaVuSans-6f" x="332.222656"/>
      <use xlink:href="#DejaVuSans-72" x="393.404297"/>
      <use xlink:href="#DejaVuSans-79" x="434.517578"/>
     </g>
    </g>
    <g id="line2d_26">
     <path d="M 244.591875 83.136844 
L 259.591875 83.136844 
L 274.591875 83.136844 
" style="fill: none; stroke: #000000; stroke-width: 1.5; stroke-linecap: square"/>
     <g>
      <use xlink:href="#me2cd2317ec" x="259.591875" y="83.136844" style="stroke: #000000"/>
     </g>
    </g>
    <g id="text_8">
     <!-- Start -->
     <g transform="translate(286.591875 88.386844)scale(0.15 -0.15)">
      <defs>
       <path id="DejaVuSans-53" d="M 3425 4513 
L 3425 3897 
Q 3066 4069 2747 4153 
Q 2428 4238 2131 4238 
Q 1616 4238 1336 4038 
Q 1056 3838 1056 3469 
Q 1056 3159 1242 3001 
Q 1428 2844 1947 2747 
L 2328 2669 
Q 3034 2534 3370 2195 
Q 3706 1856 3706 1288 
Q 3706 609 3251 259 
Q 2797 -91 1919 -91 
Q 1588 -91 1214 -16 
Q 841 59 441 206 
L 441 856 
Q 825 641 1194 531 
Q 1563 422 1919 422 
Q 2459 422 2753 634 
Q 3047 847 3047 1241 
Q 3047 1584 2836 1778 
Q 2625 1972 2144 2069 
L 1759 2144 
Q 1053 2284 737 2584 
Q 422 2884 422 3419 
Q 422 4038 858 4394 
Q 1294 4750 2059 4750 
Q 2388 4750 2728 4690 
Q 3069 4631 3425 4513 
z
" transform="scale(0.015625)"/>
      </defs>
      <use xlink:href="#DejaVuSans-53"/>
      <use xlink:href="#DejaVuSans-74" x="63.476562"/>
      <use xlink:href="#DejaVuSans-61" x="102.685547"/>
      <use xlink:href="#DejaVuSans-72" x="163.964844"/>
      <use xlink:href="#DejaVuSans-74" x="205.078125"/>
     </g>
    </g>
    <g id="line2d_27">
     <path d="M 244.591875 105.154031 
L 259.591875 105.154031 
L 274.591875 105.154031 
" style="fill: none; stroke: #000000; stroke-width: 1.5; stroke-linecap: square"/>
     <g>
      <use xlink:href="#mab3e6b9369" x="259.591875" y="105.154031" style="stroke: #000000; stroke-linejoin: miter"/>
     </g>
    </g>
    <g id="text_9">
     <!-- End -->
     <g transform="translate(286.591875 110.404031)scale(0.15 -0.15)">
      <defs>
       <path id="DejaVuSans-45" d="M 628 4666 
L 3578 4666 
L 3578 4134 
L 1259 4134 
L 1259 2753 
L 3481 2753 
L 3481 2222 
L 1259 2222 
L 1259 531 
L 3634 531 
L 3634 0 
L 628 0 
L 628 4666 
z
" transform="scale(0.015625)"/>
       <path id="DejaVuSans-6e" d="M 3513 2113 
L 3513 0 
L 2938 0 
L 2938 2094 
Q 2938 2591 2744 2837 
Q 2550 3084 2163 3084 
Q 1697 3084 1428 2787 
Q 1159 2491 1159 1978 
L 1159 0 
L 581 0 
L 581 3500 
L 1159 3500 
L 1159 2956 
Q 1366 3272 1645 3428 
Q 1925 3584 2291 3584 
Q 2894 3584 3203 3211 
Q 3513 2838 3513 2113 
z
" transform="scale(0.015625)"/>
       <path id="DejaVuSans-64" d="M 2906 2969 
L 2906 4863 
L 3481 4863 
L 3481 0 
L 2906 0 
L 2906 525 
Q 2725 213 2448 61 
Q 2172 -91 1784 -91 
Q 1150 -91 751 415 
Q 353 922 353 1747 
Q 353 2572 751 3078 
Q 1150 3584 1784 3584 
Q 2172 3584 2448 3432 
Q 2725 3281 2906 2969 
z
M 947 1747 
Q 947 1113 1208 752 
Q 1469 391 1925 391 
Q 2381 391 2643 752 
Q 2906 1113 2906 1747 
Q 2906 2381 2643 2742 
Q 2381 3103 1925 3103 
Q 1469 3103 1208 2742 
Q 947 2381 947 1747 
z
" transform="scale(0.015625)"/>
      </defs>
      <use xlink:href="#DejaVuSans-45"/>
      <use xlink:href="#DejaVuSans-6e" x="63.183594"/>
      <use xlink:href="#DejaVuSans-64" x="126.5625"/>
     </g>
    </g>
    <g id="line2d_28">
     <path d="M 244.591875 127.171219 
L 259.591875 127.171219 
L 274.591875 127.171219 
" style="fill: none; stroke: #ff0000; stroke-width: 1.5; stroke-linecap: square"/>
     <g>
      <use xlink:href="#m16f48ebc89" x="259.591875" y="127.171219" style="fill: #ff0000; stroke: #ff0000; stroke-linejoin: miter"/>
     </g>
    </g>
    <g id="text_10">
     <!-- Target Location -->
     <g transform="translate(286.591875 132.421219)scale(0.15 -0.15)">
      <defs>
       <path id="DejaVuSans-67" d="M 2906 1791 
Q 2906 2416 2648 2759 
Q 2391 3103 1925 3103 
Q 1463 3103 1205 2759 
Q 947 2416 947 1791 
Q 947 1169 1205 825 
Q 1463 481 1925 481 
Q 2391 481 2648 825 
Q 2906 1169 2906 1791 
z
M 3481 434 
Q 3481 -459 3084 -895 
Q 2688 -1331 1869 -1331 
Q 1566 -1331 1297 -1286 
Q 1028 -1241 775 -1147 
L 775 -588 
Q 1028 -725 1275 -790 
Q 1522 -856 1778 -856 
Q 2344 -856 2625 -561 
Q 2906 -266 2906 331 
L 2906 616 
Q 2728 306 2450 153 
Q 2172 0 1784 0 
Q 1141 0 747 490 
Q 353 981 353 1791 
Q 353 2603 747 3093 
Q 1141 3584 1784 3584 
Q 2172 3584 2450 3431 
Q 2728 3278 2906 2969 
L 2906 3500 
L 3481 3500 
L 3481 434 
z
" transform="scale(0.015625)"/>
       <path id="DejaVuSans-20" transform="scale(0.015625)"/>
       <path id="DejaVuSans-4c" d="M 628 4666 
L 1259 4666 
L 1259 531 
L 3531 531 
L 3531 0 
L 628 0 
L 628 4666 
z
" transform="scale(0.015625)"/>
       <path id="DejaVuSans-69" d="M 603 3500 
L 1178 3500 
L 1178 0 
L 603 0 
L 603 3500 
z
M 603 4863 
L 1178 4863 
L 1178 4134 
L 603 4134 
L 603 4863 
z
" transform="scale(0.015625)"/>
      </defs>
      <use xlink:href="#DejaVuSans-54"/>
      <use xlink:href="#DejaVuSans-61" x="44.583984"/>
      <use xlink:href="#DejaVuSans-72" x="105.863281"/>
      <use xlink:href="#DejaVuSans-67" x="145.226562"/>
      <use xlink:href="#DejaVuSans-65" x="208.703125"/>
      <use xlink:href="#DejaVuSans-74" x="270.226562"/>
      <use xlink:href="#DejaVuSans-20" x="309.435547"/>
      <use xlink:href="#DejaVuSans-4c" x="341.222656"/>
      <use xlink:href="#DejaVuSans-6f" x="395.185547"/>
      <use xlink:href="#DejaVuSans-63" x="456.367188"/>
      <use xlink:href="#DejaVuSans-61" x="511.347656"/>
      <use xlink:href="#DejaVuSans-74" x="572.626953"/>
      <use xlink:href="#DejaVuSans-69" x="611.835938"/>
      <use xlink:href="#DejaVuSans-6f" x="639.619141"/>
      <use xlink:href="#DejaVuSans-6e" x="700.800781"/>
     </g>
    </g>
   </g>
  </g>
 </g>
 <defs>
  <clipPath id="p749313823e">
   <rect x="57.6" y="41.472" width="357.12" height="266.112"/>
  </clipPath>
 </defs>
</svg>
