<?xml version="1.0" encoding="utf-8" standalone="no"?>
<!DOCTYPE svg PUBLIC "-//W3C//DTD SVG 1.1//EN"
  "http://www.w3.org/Graphics/SVG/1.1/DTD/svg11.dtd">
<svg xmlns:xlink="http://www.w3.org/1999/xlink" width="460.8pt" height="345.6pt" viewBox="0 0 460.8 345.6" xmlns="http://www.w3.org/2000/svg" version="1.1">
 <metadata>
  <rdf:RDF xmlns:dc="http://purl.org/dc/elements/1.1/" xmlns:cc="http://creativecommons.org/ns#" xmlns:rdf="http://www.w3.org/1999/02/22-rdf-syntax-ns#">
   <cc:Work>
    <dc:type rdf:resource="http://purl.org/dc/dcmitype/StillImage"/>
    <dc:date>2024-02-20T18:22:15.425202</dc:date>
    <dc:format>image/svg+xml</dc:format>
    <dc:creator>
     <cc:Agent>
      <dc:title>Matplotlib v3.5.0, https://matplotlib.org/</dc:title>
     </cc:Agent>
    </dc:creator>
   </cc:Work>
  </rdf:RDF>
 </metadata>
 <defs>
  <style type="text/css">*{stroke-linejoin: round; stroke-linecap: butt}</style>
 </defs>
 <g id="figure_1">
  <g id="patch_1">
   <path d="M 0 345.6 
L 460.8 345.6 
L 460.8 0 
L 0 0 
z
" style="fill: #ffffff"/>
  </g>
  <g id="axes_1">
   <g id="patch_2">
    <path d="M 57.6 307.584 
L 414.72 307.584 
L 414.72 41.472 
L 57.6 41.472 
z
" style="fill: #ffffff"/>
   </g>
   <g id="matplotlib.axis_1">
    <g id="xtick_1">
     <g id="line2d_1">
      <defs>
       <path id="mc24bd9860c" d="M 0 0 
L 0 3.5 
" style="stroke: #000000; stroke-width: 0.8"/>
      </defs>
      <g>
       <use xlink:href="#mc24bd9860c" x="73.832727" y="307.584" style="stroke: #000000; stroke-width: 0.8"/>
      </g>
     </g>
     <g id="text_1">
      <!-- 0 -->
      <g transform="translate(67.470227 329.780875)scale(0.2 -0.2)">
       <defs>
        <path id="DejaVuSans-30" d="M 2034 4250 
Q 1547 4250 1301 3770 
Q 1056 3291 1056 2328 
Q 1056 1369 1301 889 
Q 1547 409 2034 409 
Q 2525 409 2770 889 
Q 3016 1369 3016 2328 
Q 3016 3291 2770 3770 
Q 2525 4250 2034 4250 
z
M 2034 4750 
Q 2819 4750 3233 4129 
Q 3647 3509 3647 2328 
Q 3647 1150 3233 529 
Q 2819 -91 2034 -91 
Q 1250 -91 836 529 
Q 422 1150 422 2328 
Q 422 3509 836 4129 
Q 1250 4750 2034 4750 
z
" transform="scale(0.015625)"/>
       </defs>
       <use xlink:href="#DejaVuSans-30"/>
      </g>
     </g>
    </g>
    <g id="xtick_2">
     <g id="line2d_2">
      <g>
       <use xlink:href="#mc24bd9860c" x="399.341627" y="307.584" style="stroke: #000000; stroke-width: 0.8"/>
      </g>
     </g>
     <g id="text_2">
      <!-- 1 -->
      <g transform="translate(392.979127 329.780875)scale(0.2 -0.2)">
       <defs>
        <path id="DejaVuSans-31" d="M 794 531 
L 1825 531 
L 1825 4091 
L 703 3866 
L 703 4441 
L 1819 4666 
L 2450 4666 
L 2450 531 
L 3481 531 
L 3481 0 
L 794 0 
L 794 531 
z
" transform="scale(0.015625)"/>
       </defs>
       <use xlink:href="#DejaVuSans-31"/>
      </g>
     </g>
    </g>
    <g id="text_3">
     <!-- Normalised X position -->
     <g transform="translate(111.795937 353.137125)scale(0.2 -0.2)">
      <defs>
       <path id="DejaVuSans-Bold-4e" d="M 588 4666 
L 1931 4666 
L 3628 1466 
L 3628 4666 
L 4769 4666 
L 4769 0 
L 3425 0 
L 1728 3200 
L 1728 0 
L 588 0 
L 588 4666 
z
" transform="scale(0.015625)"/>
       <path id="DejaVuSans-Bold-6f" d="M 2203 2784 
Q 1831 2784 1636 2517 
Q 1441 2250 1441 1747 
Q 1441 1244 1636 976 
Q 1831 709 2203 709 
Q 2569 709 2762 976 
Q 2956 1244 2956 1747 
Q 2956 2250 2762 2517 
Q 2569 2784 2203 2784 
z
M 2203 3584 
Q 3106 3584 3614 3096 
Q 4122 2609 4122 1747 
Q 4122 884 3614 396 
Q 3106 -91 2203 -91 
Q 1297 -91 786 396 
Q 275 884 275 1747 
Q 275 2609 786 3096 
Q 1297 3584 2203 3584 
z
" transform="scale(0.015625)"/>
       <path id="DejaVuSans-Bold-72" d="M 3138 2547 
Q 2991 2616 2845 2648 
Q 2700 2681 2553 2681 
Q 2122 2681 1889 2404 
Q 1656 2128 1656 1613 
L 1656 0 
L 538 0 
L 538 3500 
L 1656 3500 
L 1656 2925 
Q 1872 3269 2151 3426 
Q 2431 3584 2822 3584 
Q 2878 3584 2943 3579 
Q 3009 3575 3134 3559 
L 3138 2547 
z
" transform="scale(0.015625)"/>
       <path id="DejaVuSans-Bold-6d" d="M 3781 2919 
Q 3994 3244 4286 3414 
Q 4578 3584 4928 3584 
Q 5531 3584 5847 3212 
Q 6163 2841 6163 2131 
L 6163 0 
L 5038 0 
L 5038 1825 
Q 5041 1866 5042 1909 
Q 5044 1953 5044 2034 
Q 5044 2406 4934 2573 
Q 4825 2741 4581 2741 
Q 4263 2741 4089 2478 
Q 3916 2216 3909 1719 
L 3909 0 
L 2784 0 
L 2784 1825 
Q 2784 2406 2684 2573 
Q 2584 2741 2328 2741 
Q 2006 2741 1831 2477 
Q 1656 2213 1656 1722 
L 1656 0 
L 531 0 
L 531 3500 
L 1656 3500 
L 1656 2988 
Q 1863 3284 2130 3434 
Q 2397 3584 2719 3584 
Q 3081 3584 3359 3409 
Q 3638 3234 3781 2919 
z
" transform="scale(0.015625)"/>
       <path id="DejaVuSans-Bold-61" d="M 2106 1575 
Q 1756 1575 1579 1456 
Q 1403 1338 1403 1106 
Q 1403 894 1545 773 
Q 1688 653 1941 653 
Q 2256 653 2472 879 
Q 2688 1106 2688 1447 
L 2688 1575 
L 2106 1575 
z
M 3816 1997 
L 3816 0 
L 2688 0 
L 2688 519 
Q 2463 200 2181 54 
Q 1900 -91 1497 -91 
Q 953 -91 614 226 
Q 275 544 275 1050 
Q 275 1666 698 1953 
Q 1122 2241 2028 2241 
L 2688 2241 
L 2688 2328 
Q 2688 2594 2478 2717 
Q 2269 2841 1825 2841 
Q 1466 2841 1156 2769 
Q 847 2697 581 2553 
L 581 3406 
Q 941 3494 1303 3539 
Q 1666 3584 2028 3584 
Q 2975 3584 3395 3211 
Q 3816 2838 3816 1997 
z
" transform="scale(0.015625)"/>
       <path id="DejaVuSans-Bold-6c" d="M 538 4863 
L 1656 4863 
L 1656 0 
L 538 0 
L 538 4863 
z
" transform="scale(0.015625)"/>
       <path id="DejaVuSans-Bold-69" d="M 538 3500 
L 1656 3500 
L 1656 0 
L 538 0 
L 538 3500 
z
M 538 4863 
L 1656 4863 
L 1656 3950 
L 538 3950 
L 538 4863 
z
" transform="scale(0.015625)"/>
       <path id="DejaVuSans-Bold-73" d="M 3272 3391 
L 3272 2541 
Q 2913 2691 2578 2766 
Q 2244 2841 1947 2841 
Q 1628 2841 1473 2761 
Q 1319 2681 1319 2516 
Q 1319 2381 1436 2309 
Q 1553 2238 1856 2203 
L 2053 2175 
Q 2913 2066 3209 1816 
Q 3506 1566 3506 1031 
Q 3506 472 3093 190 
Q 2681 -91 1863 -91 
Q 1516 -91 1145 -36 
Q 775 19 384 128 
L 384 978 
Q 719 816 1070 734 
Q 1422 653 1784 653 
Q 2113 653 2278 743 
Q 2444 834 2444 1013 
Q 2444 1163 2330 1236 
Q 2216 1309 1875 1350 
L 1678 1375 
Q 931 1469 631 1722 
Q 331 1975 331 2491 
Q 331 3047 712 3315 
Q 1094 3584 1881 3584 
Q 2191 3584 2531 3537 
Q 2872 3491 3272 3391 
z
" transform="scale(0.015625)"/>
       <path id="DejaVuSans-Bold-65" d="M 4031 1759 
L 4031 1441 
L 1416 1441 
Q 1456 1047 1700 850 
Q 1944 653 2381 653 
Q 2734 653 3104 758 
Q 3475 863 3866 1075 
L 3866 213 
Q 3469 63 3072 -14 
Q 2675 -91 2278 -91 
Q 1328 -91 801 392 
Q 275 875 275 1747 
Q 275 2603 792 3093 
Q 1309 3584 2216 3584 
Q 3041 3584 3536 3087 
Q 4031 2591 4031 1759 
z
M 2881 2131 
Q 2881 2450 2695 2645 
Q 2509 2841 2209 2841 
Q 1884 2841 1681 2658 
Q 1478 2475 1428 2131 
L 2881 2131 
z
" transform="scale(0.015625)"/>
       <path id="DejaVuSans-Bold-64" d="M 2919 2988 
L 2919 4863 
L 4044 4863 
L 4044 0 
L 2919 0 
L 2919 506 
Q 2688 197 2409 53 
Q 2131 -91 1766 -91 
Q 1119 -91 703 423 
Q 288 938 288 1747 
Q 288 2556 703 3070 
Q 1119 3584 1766 3584 
Q 2128 3584 2408 3439 
Q 2688 3294 2919 2988 
z
M 2181 722 
Q 2541 722 2730 984 
Q 2919 1247 2919 1747 
Q 2919 2247 2730 2509 
Q 2541 2772 2181 2772 
Q 1825 2772 1636 2509 
Q 1447 2247 1447 1747 
Q 1447 1247 1636 984 
Q 1825 722 2181 722 
z
" transform="scale(0.015625)"/>
       <path id="DejaVuSans-Bold-20" transform="scale(0.015625)"/>
       <path id="DejaVuSans-Bold-58" d="M 3188 2381 
L 4806 0 
L 3553 0 
L 2463 1594 
L 1381 0 
L 122 0 
L 1741 2381 
L 184 4666 
L 1441 4666 
L 2463 3163 
L 3481 4666 
L 4744 4666 
L 3188 2381 
z
" transform="scale(0.015625)"/>
       <path id="DejaVuSans-Bold-70" d="M 1656 506 
L 1656 -1331 
L 538 -1331 
L 538 3500 
L 1656 3500 
L 1656 2988 
Q 1888 3294 2169 3439 
Q 2450 3584 2816 3584 
Q 3463 3584 3878 3070 
Q 4294 2556 4294 1747 
Q 4294 938 3878 423 
Q 3463 -91 2816 -91 
Q 2450 -91 2169 54 
Q 1888 200 1656 506 
z
M 2400 2772 
Q 2041 2772 1848 2508 
Q 1656 2244 1656 1747 
Q 1656 1250 1848 986 
Q 2041 722 2400 722 
Q 2759 722 2948 984 
Q 3138 1247 3138 1747 
Q 3138 2247 2948 2509 
Q 2759 2772 2400 2772 
z
" transform="scale(0.015625)"/>
       <path id="DejaVuSans-Bold-74" d="M 1759 4494 
L 1759 3500 
L 2913 3500 
L 2913 2700 
L 1759 2700 
L 1759 1216 
Q 1759 972 1856 886 
Q 1953 800 2241 800 
L 2816 800 
L 2816 0 
L 1856 0 
Q 1194 0 917 276 
Q 641 553 641 1216 
L 641 2700 
L 84 2700 
L 84 3500 
L 641 3500 
L 641 4494 
L 1759 4494 
z
" transform="scale(0.015625)"/>
       <path id="DejaVuSans-Bold-6e" d="M 4056 2131 
L 4056 0 
L 2931 0 
L 2931 347 
L 2931 1631 
Q 2931 2084 2911 2256 
Q 2891 2428 2841 2509 
Q 2775 2619 2662 2680 
Q 2550 2741 2406 2741 
Q 2056 2741 1856 2470 
Q 1656 2200 1656 1722 
L 1656 0 
L 538 0 
L 538 3500 
L 1656 3500 
L 1656 2988 
Q 1909 3294 2193 3439 
Q 2478 3584 2822 3584 
Q 3428 3584 3742 3212 
Q 4056 2841 4056 2131 
z
" transform="scale(0.015625)"/>
      </defs>
      <use xlink:href="#DejaVuSans-Bold-4e"/>
      <use xlink:href="#DejaVuSans-Bold-6f" x="83.691406"/>
      <use xlink:href="#DejaVuSans-Bold-72" x="152.392578"/>
      <use xlink:href="#DejaVuSans-Bold-6d" x="201.708984"/>
      <use xlink:href="#DejaVuSans-Bold-61" x="305.908203"/>
      <use xlink:href="#DejaVuSans-Bold-6c" x="373.388672"/>
      <use xlink:href="#DejaVuSans-Bold-69" x="407.666016"/>
      <use xlink:href="#DejaVuSans-Bold-73" x="441.943359"/>
      <use xlink:href="#DejaVuSans-Bold-65" x="501.464844"/>
      <use xlink:href="#DejaVuSans-Bold-64" x="569.287109"/>
      <use xlink:href="#DejaVuSans-Bold-20" x="640.869141"/>
      <use xlink:href="#DejaVuSans-Bold-58" x="675.683594"/>
      <use xlink:href="#DejaVuSans-Bold-20" x="752.783203"/>
      <use xlink:href="#DejaVuSans-Bold-70" x="787.597656"/>
      <use xlink:href="#DejaVuSans-Bold-6f" x="859.179688"/>
      <use xlink:href="#DejaVuSans-Bold-73" x="927.880859"/>
      <use xlink:href="#DejaVuSans-Bold-69" x="987.402344"/>
      <use xlink:href="#DejaVuSans-Bold-74" x="1021.679688"/>
      <use xlink:href="#DejaVuSans-Bold-69" x="1069.482422"/>
      <use xlink:href="#DejaVuSans-Bold-6f" x="1103.759766"/>
      <use xlink:href="#DejaVuSans-Bold-6e" x="1172.460938"/>
     </g>
    </g>
   </g>
   <g id="matplotlib.axis_2">
    <g id="ytick_1">
     <g id="line2d_3">
      <defs>
       <path id="m33f470db74" d="M 0 0 
L -3.5 0 
" style="stroke: #000000; stroke-width: 0.8"/>
      </defs>
      <g>
       <use xlink:href="#m33f470db74" x="57.6" y="296.668098" style="stroke: #000000; stroke-width: 0.8"/>
      </g>
     </g>
     <g id="text_4">
      <!-- 0 -->
      <g transform="translate(37.875 304.266535)scale(0.2 -0.2)">
       <use xlink:href="#DejaVuSans-30"/>
      </g>
     </g>
    </g>
    <g id="ytick_2">
     <g id="line2d_4">
      <g>
       <use xlink:href="#m33f470db74" x="57.6" y="53.568" style="stroke: #000000; stroke-width: 0.8"/>
      </g>
     </g>
     <g id="text_5">
      <!-- 1 -->
      <g transform="translate(37.875 61.166437)scale(0.2 -0.2)">
       <use xlink:href="#DejaVuSans-31"/>
      </g>
     </g>
    </g>
    <g id="text_6">
     <!-- Normalised Y position -->
     <g transform="translate(29.715625 298.423313)rotate(-90)scale(0.2 -0.2)">
      <defs>
       <path id="DejaVuSans-Bold-59" d="M -63 4666 
L 1253 4666 
L 2316 3003 
L 3378 4666 
L 4697 4666 
L 2919 1966 
L 2919 0 
L 1716 0 
L 1716 1966 
L -63 4666 
z
" transform="scale(0.015625)"/>
      </defs>
      <use xlink:href="#DejaVuSans-Bold-4e"/>
      <use xlink:href="#DejaVuSans-Bold-6f" x="83.691406"/>
      <use xlink:href="#DejaVuSans-Bold-72" x="152.392578"/>
      <use xlink:href="#DejaVuSans-Bold-6d" x="201.708984"/>
      <use xlink:href="#DejaVuSans-Bold-61" x="305.908203"/>
      <use xlink:href="#DejaVuSans-Bold-6c" x="373.388672"/>
      <use xlink:href="#DejaVuSans-Bold-69" x="407.666016"/>
      <use xlink:href="#DejaVuSans-Bold-73" x="441.943359"/>
      <use xlink:href="#DejaVuSans-Bold-65" x="501.464844"/>
      <use xlink:href="#DejaVuSans-Bold-64" x="569.287109"/>
      <use xlink:href="#DejaVuSans-Bold-20" x="640.869141"/>
      <use xlink:href="#DejaVuSans-Bold-59" x="675.683594"/>
      <use xlink:href="#DejaVuSans-Bold-20" x="748.095703"/>
      <use xlink:href="#DejaVuSans-Bold-70" x="782.910156"/>
      <use xlink:href="#DejaVuSans-Bold-6f" x="854.492188"/>
      <use xlink:href="#DejaVuSans-Bold-73" x="923.193359"/>
      <use xlink:href="#DejaVuSans-Bold-69" x="982.714844"/>
      <use xlink:href="#DejaVuSans-Bold-74" x="1016.992188"/>
      <use xlink:href="#DejaVuSans-Bold-69" x="1064.794922"/>
      <use xlink:href="#DejaVuSans-Bold-6f" x="1099.072266"/>
      <use xlink:href="#DejaVuSans-Bold-6e" x="1167.773438"/>
     </g>
    </g>
   </g>
   <g id="line2d_5">
    <path d="M 236.16 174.40999 
L 346.713416 282.034888 
L 345.175579 266.69362 
L 343.466871 258.432937 
L 341.416421 250.880312 
L 338.340746 245.215844 
L 336.119426 240.259434 
L 335.094201 236.011083 
L 330.309818 227.98642 
L 327.917627 223.03001 
L 324.841952 219.017678 
L 316.811024 206.036605 
L 305.362679 191.167376 
L 302.970488 185.974946 
L 299.723943 179.838439 
L 296.819139 169.6896 
L 288.446469 157.652605 
L 280.073799 147.975805 
L 269.138067 136.882888 
L 260.936268 128.386185 
L 253.247081 121.06958 
L 247.266603 114.697054 
L 241.627866 109.032585 
L 237.185225 103.368117 
L 233.084325 99.355785 
L 229.496038 97.703649 
L 223.857301 96.759571 
L 221.294239 96.99559 
L 218.047694 96.051512 
L 214.801148 95.343454 
L 210.87112 95.343454 
L 208.649799 95.579473 
L 204.71977 95.815493 
L 199.422775 97.703649 
L 195.492746 101.007922 
L 193.954909 101.952 
L 191.220976 104.548215 
L 188.145301 109.976663 
L 185.923981 113.516956 
L 184.215273 118.001327 
L 183.019177 125.317932 
L 179.772632 136.882888 
L 175.15912 149.863961 
L 172.766928 157.416585 
L 169.520383 164.96921 
L 166.615579 171.341737 
L 164.052517 176.298146 
L 160.805971 183.850771 
L 158.926392 185.974946 
L 156.36333 193.527571 
L 154.654622 195.651746 
L 154.654622 197.539902 
L 156.021589 199.428059 
L 158.072038 200.608156 
L 160.46423 201.080195 
L 163.369033 199.900098 
L 164.565129 197.775922 
L 165.932096 196.359805 
L 168.666029 194.943688 
L 167.982545 191.875434 
L 165.077742 188.80718 
L 161.489455 186.683005 
L 156.192459 185.266888 
L 150.04111 190.931356 
L 143.035407 206.036605 
L 130.903579 219.961756 
L 112.962144 233.414868 
L 90.578067 245.687883 
L 73.832727 251.82439 
L 73.832727 249.228176 
L 73.832727 295.488 
L 73.832727 254.656624 
L 85.281072 248.756137 
L 102.709895 240.259434 
L 109.032115 237.19118 
L 118.60088 231.762732 
L 121.676555 229.874576 
L 124.75223 227.7504 
L 127.486163 225.626224 
L 129.365742 223.974088 
L 130.903579 222.085932 
L 132.099675 219.725737 
L 132.954029 217.601561 
L 133.466641 215.477385 
L 133.808383 213.35321 
L 137.909282 207.216702 
L 142.693665 202.496312 
L 145.76934 198.48398 
L 150.553722 193.055532 
L 154.654622 187.863102 
L 158.755522 182.906693 
L 161.660325 178.894361 
L 165.590354 174.173971 
L 167.469933 171.105717 
L 167.811675 169.217561 
L 167.982545 167.565424 
L 166.444708 168.037463 
L 165.761225 167.329405 
L 166.102967 166.149307 
L 165.932096 166.149307 
L 167.128191 164.261151 
L 172.083445 158.832702 
L 174.133895 155.764449 
L 175.842603 152.932215 
L 177.38044 149.863961 
L 178.747407 146.795707 
L 179.772632 143.963473 
L 180.285244 141.367259 
L 181.652211 135.70279 
L 181.310469 133.814634 
L 181.993952 131.454439 
L 183.019177 128.858224 
L 184.727885 125.553951 
L 186.607464 122.485698 
L 190.195751 117.765307 
L 194.809263 112.572878 
L 200.618871 106.67239 
L 215.14289 93.219278 
L 221.806852 85.194615 
L 231.88823 73.865678 
L 237.014354 66.077034 
L 240.2609 59.940527 
L 242.140478 55.692176 
L 241.798737 54.748098 
L 240.944383 53.80402 
L 239.235675 54.040039 
L 237.526967 54.512078 
L 235.305646 55.456156 
L 227.78733 59.468488 
L 226.078622 60.884605 
L 224.711656 61.828683 
L 223.51556 63.48082 
L 222.148593 65.841015 
L 220.781627 67.96519 
L 219.41466 71.269463 
L 218.560306 74.101698 
L 218.047694 76.225873 
L 217.19334 79.058107 
L 216.680727 82.36238 
L 215.826373 85.666654 
L 214.972019 88.498888 
L 214.459407 90.859083 
L 214.288536 92.747239 
L 214.459407 94.399376 
L 214.459407 95.579473 
L 214.801148 96.523551 
L 215.313761 97.23161 
L 215.826373 97.703649 
L 216.509856 98.175688 
L 217.364211 98.411707 
L 218.218565 98.411707 
L 219.41466 97.939668 
L 220.439885 97.23161 
L 221.635981 96.759571 
L 227.445589 92.2752 
L 226.762105 89.915005 
L 228.470813 89.206946 
L 227.616459 87.31879 
L 229.666909 86.138693 
L 228.812555 85.430634 
L 228.470813 84.014517 
L 228.470813 82.5984 
L 229.496038 82.126361 
L 232.400842 82.126361 
L 232.0591 80.002185 
L 232.913455 76.933932 
L 237.356096 72.213541 
L 238.381321 70.325385 
L 240.602641 63.00878 
L 241.115254 60.176546 
L 241.969608 58.052371 
L 242.140478 55.928195 
L 242.48222 55.220137 
L 242.653091 53.568 
L 242.823962 53.568 
L 241.115254 53.568 
L 240.2609 55.220137 
L 239.235675 55.928195 
L 237.185225 56.872273 
L 235.647388 57.816351 
L 233.596938 58.760429 
L 229.496038 59.940527 
L 225.56601 61.120624 
L 223.51556 62.300722 
L 220.269014 63.952859 
L 216.851598 66.313054 
L 214.117665 67.96519 
L 211.725474 69.617327 
L 209.675024 70.561405 
L 207.453703 70.325385 
L 206.086737 69.853346 
L 205.061512 69.145288 
L 204.036287 67.96519 
L 203.181933 66.549073 
L 201.985837 65.132956 
L 201.131483 63.2448 
L 200.106258 61.592663 
L 198.739292 59.940527 
L 196.688842 59.232468 
L 194.12578 58.760429 
L 191.220976 58.996449 
L 180.626986 61.120624 
L 177.893053 62.300722 
L 172.425187 64.188878 
L 165.590354 65.841015 
L 162.343809 67.257132 
L 159.780746 68.437229 
L 156.534201 70.089366 
L 148.674144 75.281795 
L 143.377148 78.350049 
L 130.903579 86.610732 
L 123.556134 91.803161 
L 123.556134 91.803161 
" clip-path="url(#p130fdcf170)" style="fill: none; stroke: #000000; stroke-width: 1.5; stroke-linecap: square"/>
   </g>
   <g id="line2d_6">
    <path d="M 236.16 174.40999 
" clip-path="url(#p130fdcf170)" style="fill: none; stroke: #000000; stroke-width: 1.5; stroke-linecap: square"/>
    <defs>
     <path id="m24d956fcd7" d="M 0 5 
C 1.326016 5 2.597899 4.473168 3.535534 3.535534 
C 4.473168 2.597899 5 1.326016 5 0 
C 5 -1.326016 4.473168 -2.597899 3.535534 -3.535534 
C 2.597899 -4.473168 1.326016 -5 0 -5 
C -1.326016 -5 -2.597899 -4.473168 -3.535534 -3.535534 
C -4.473168 -2.597899 -5 -1.326016 -5 0 
C -5 1.326016 -4.473168 2.597899 -3.535534 3.535534 
C -2.597899 4.473168 -1.326016 5 0 5 
z
" style="stroke: #000000"/>
    </defs>
    <g clip-path="url(#p130fdcf170)">
     <use xlink:href="#m24d956fcd7" x="236.16" y="174.40999" style="stroke: #000000"/>
    </g>
   </g>
   <g id="line2d_7">
    <path d="M 123.556134 91.803161 
" clip-path="url(#p130fdcf170)" style="fill: none; stroke: #000000; stroke-width: 1.5; stroke-linecap: square"/>
    <defs>
     <path id="ma7c7686ad3" d="M -5 5 
L 5 5 
L 5 -5 
L -5 -5 
z
" style="stroke: #000000; stroke-linejoin: miter"/>
    </defs>
    <g clip-path="url(#p130fdcf170)">
     <use xlink:href="#ma7c7686ad3" x="123.556134" y="91.803161" style="stroke: #000000; stroke-linejoin: miter"/>
    </g>
   </g>
   <g id="line2d_8">
    <path d="M 277.681608 120.833561 
L 276.485512 125.789971 
L 276.14377 126.498029 
L 276.14377 127.678127 
L 276.314641 127.914146 
L 276.656383 128.622205 
L 276.998124 130.510361 
L 277.510737 132.162498 
L 277.852478 133.342595 
L 278.19422 133.814634 
L 278.535962 134.050654 
L 280.073799 133.578615 
L 280.415541 135.230751 
L 280.415541 136.174829 
L 278.877703 136.882888 
L 275.802029 140.42318 
L 274.264191 141.603278 
L 273.068096 142.311337 
L 272.384612 143.019395 
L 272.042871 143.727454 
L 272.042871 144.435512 
L 272.726354 144.907551 
L 273.751579 145.37959 
L 274.264191 147.975805 
L 273.751579 150.09998 
L 274.605933 150.336 
L 275.631158 151.752117 
L 276.656383 151.044059 
L 276.314641 151.516098 
L 277.681608 150.336 
L 279.048574 149.627941 
L 280.586411 148.683863 
L 281.611636 148.447844 
L 282.46599 148.447844 
L 284.51644 150.09998 
L 284.858182 149.627941 
L 284.858182 151.516098 
L 285.199923 152.224156 
L 284.687311 154.112312 
L 284.687311 156.000468 
L 284.858182 157.888624 
L 287.250373 161.900956 
L 287.421244 165.205229 
L 288.275598 168.745522 
L 292.88911 173.229893 
L 299.040459 175.354068 
L 300.920038 176.770185 
L 306.729646 177.950283 
L 315.102316 178.658341 
L 320.22844 176.298146 
L 324.841952 172.049795 
L 325.867177 175.826107 
L 326.892402 178.658341 
L 330.309818 189.987278 
L 337.315522 195.415727 
L 341.416421 200.608156 
L 343.466871 206.980683 
L 343.979483 210.993015 
L 343.979483 213.589229 
L 341.929033 215.713405 
L 339.02423 219.017678 
L 333.556364 221.849912 
L 327.575885 227.98642 
L 322.620632 233.414868 
L 319.203215 236.719141 
L 309.805321 244.979824 
L 309.805321 244.979824 
L 294.085206 255.364683 
L 278.19422 263.625366 
L 259.911043 272.594107 
L 253.417952 274.010224 
L 245.557895 277.550517 
L 237.868708 278.966634 
L 223.686431 282.506927 
L 218.731177 283.214985 
L 210.529378 283.214985 
L 206.086737 282.978966 
L 201.302354 282.506927 
L 196.005359 281.798868 
L 189.85401 281.562849 
L 184.898756 280.618771 
L 178.918278 280.146732 
L 173.279541 279.910712 
L 167.811675 279.910712 
L 163.881646 279.674693 
L 160.46423 278.966634 
L 156.705072 278.730615 
L 152.09156 279.438673 
L 148.332402 280.146732 
L 143.548019 280.382751 
L 135.004478 281.798868 
L 132.441416 279.202654 
L 132.270545 274.482263 
L 131.757933 272.594107 
L 131.587062 272.830127 
L 131.757933 272.830127 
L 132.099675 272.358088 
L 132.441416 270.941971 
L 132.441416 268.109737 
L 131.928804 265.513522 
L 130.903579 263.625366 
L 129.365742 262.209249 
L 128.511388 260.793132 
L 127.315292 259.849054 
L 125.948325 258.196917 
L 122.189167 254.420605 
L 120.138718 252.768468 
L 117.746526 251.352351 
L 112.791273 248.992156 
L 105.443828 247.576039 
L 103.393378 247.576039 
L 101.855541 246.631961 
L 103.90599 244.743805 
L 106.639923 243.091668 
L 109.373856 241.911571 
L 111.253435 240.967493 
L 114.158239 239.315356 
L 117.063043 236.955161 
L 122.018297 234.122927 
L 123.556134 233.414868 
L 127.827904 230.346615 
L 129.536612 228.930498 
L 132.099675 228.930498 
L 133.808383 227.98642 
L 135.858833 227.042341 
L 143.71889 222.79399 
L 149.699368 220.197776 
L 158.41378 216.893502 
L 160.6351 216.185444 
L 162.856421 215.949424 
L 164.565129 215.949424 
L 171.912574 214.061268 
L 175.500861 213.589229 
L 177.722182 213.11719 
L 180.114373 213.11719 
L 181.139598 212.645151 
L 182.335694 212.881171 
L 183.360919 212.645151 
L 184.386144 212.173112 
L 189.85401 210.284956 
L 195.834488 209.104859 
L 196.517971 209.104859 
L 197.884938 209.812917 
L 198.910163 210.756995 
L 199.251904 211.229034 
L 199.593646 211.937093 
L 199.593646 213.35321 
L 199.422775 214.297288 
L 199.081033 215.005346 
L 198.39755 215.949424 
L 197.884938 217.129522 
L 198.055809 218.30962 
L 197.201455 219.725737 
L 196.517971 221.141854 
L 194.809263 222.321951 
L 193.784038 223.738068 
L 192.758813 224.918166 
L 191.050105 226.334283 
L 190.366622 227.7504 
L 189.512268 229.166517 
L 187.120077 231.998751 
L 185.582239 233.414868 
L 181.652211 236.483122 
L 181.652211 236.483122 
" clip-path="url(#p130fdcf170)" style="fill: none; stroke: #ffa07a; stroke-width: 1.5; stroke-linecap: square"/>
   </g>
   <g id="line2d_9">
    <path d="M 277.681608 120.833561 
" clip-path="url(#p130fdcf170)" style="fill: none; stroke: #ffa07a; stroke-width: 1.5; stroke-linecap: square"/>
    <defs>
     <path id="m911f2279c3" d="M 0 5 
C 1.326016 5 2.597899 4.473168 3.535534 3.535534 
C 4.473168 2.597899 5 1.326016 5 0 
C 5 -1.326016 4.473168 -2.597899 3.535534 -3.535534 
C 2.597899 -4.473168 1.326016 -5 0 -5 
C -1.326016 -5 -2.597899 -4.473168 -3.535534 -3.535534 
C -4.473168 -2.597899 -5 -1.326016 -5 0 
C -5 1.326016 -4.473168 2.597899 -3.535534 3.535534 
C -2.597899 4.473168 -1.326016 5 0 5 
z
" style="stroke: #ffa07a"/>
    </defs>
    <g clip-path="url(#p130fdcf170)">
     <use xlink:href="#m911f2279c3" x="277.681608" y="120.833561" style="fill: #ffa07a; stroke: #ffa07a"/>
    </g>
   </g>
   <g id="line2d_10">
    <path d="M 181.652211 236.483122 
" clip-path="url(#p130fdcf170)" style="fill: none; stroke: #ffa07a; stroke-width: 1.5; stroke-linecap: square"/>
    <defs>
     <path id="md470e6ef37" d="M -5 5 
L 5 5 
L 5 -5 
L -5 -5 
z
" style="stroke: #ffa07a; stroke-linejoin: miter"/>
    </defs>
    <g clip-path="url(#p130fdcf170)">
     <use xlink:href="#md470e6ef37" x="181.652211" y="236.483122" style="fill: #ffa07a; stroke: #ffa07a; stroke-linejoin: miter"/>
    </g>
   </g>
   <g id="line2d_11">
    <path d="M 310.488804 112.100839 
L 311.001416 112.572878 
L 311.343158 113.044917 
L 311.85577 113.988995 
L 313.564478 114.697054 
L 314.418833 114.933073 
L 314.931445 114.933073 
L 315.273187 115.877151 
L 315.95667 116.821229 
L 315.785799 117.057249 
L 315.273187 117.057249 
L 315.444057 117.057249 
L 315.102316 117.293268 
L 314.077091 117.529288 
L 313.90622 117.057249 
L 313.393608 116.34919 
L 312.880995 115.877151 
L 312.197512 115.405112 
L 311.001416 114.933073 
L 309.805321 114.697054 
L 308.267483 114.697054 
L 306.558775 114.461034 
L 304.850067 113.752976 
L 303.141359 113.280937 
L 301.432651 113.044917 
L 297.16088 113.044917 
L 296.819139 113.280937 
L 296.648268 113.988995 
L 296.648268 113.516956 
L 296.306526 111.156761 
L 296.99001 110.684722 
L 298.356976 110.212683 
L 300.578297 110.212683 
L 302.628746 110.684722 
L 307.925742 110.684722 
L 310.488804 111.86482 
L 313.051866 113.280937 
L 315.273187 114.933073 
L 319.032344 118.945405 
L 321.253665 122.485698 
L 322.27889 125.553951 
L 322.962373 127.206088 
L 323.133244 127.442107 
L 323.133244 127.442107 
L 322.962373 126.734049 
L 322.620632 126.02599 
L 322.449761 124.137834 
L 321.766278 122.957737 
L 321.253665 123.429776 
L 320.741053 123.193756 
L 320.570182 122.957737 
L 320.741053 122.957737 
L 320.911923 122.721717 
L 322.27889 123.665795 
L 322.962373 123.665795 
L 323.304115 123.901815 
L 323.645856 123.665795 
L 324.158469 123.901815 
L 324.841952 125.081912 
L 325.354565 125.553951 
L 325.696306 125.317932 
L 326.038048 126.26201 
L 326.208919 124.845893 
L 325.696306 123.901815 
L 325.012823 123.665795 
L 324.671081 123.901815 
L 322.620632 124.373854 
L 319.886699 125.081912 
L 317.152766 125.553951 
L 316.640153 126.26201 
L 315.95667 127.442107 
L 313.051866 130.74638 
L 311.172287 131.21842 
L 309.121837 132.398517 
L 306.729646 134.994732 
L 303.995713 137.354927 
L 301.432651 139.951141 
L 298.356976 144.199493 
L 295.964785 145.37959 
L 283.662086 153.876293 
L 279.902928 156.000468 
L 275.802029 158.124644 
L 267.429359 160.484839 
L 263.328459 162.136976 
L 259.056689 163.317073 
L 246.75399 167.093385 
L 241.286124 169.217561 
L 236.501742 171.341737 
L 231.88823 172.049795 
L 228.299943 172.049795 
L 224.540785 172.285815 
L 222.490335 171.813776 
L 218.902048 172.757854 
L 217.19334 172.521834 
L 214.117665 173.229893 
L 212.579828 171.813776 
L 210.016766 171.105717 
L 206.086737 171.341737 
L 202.49845 172.049795 
L 198.055809 173.937951 
L 184.727885 179.13038 
L 176.526086 182.198634 
L 167.128191 185.974946 
L 157.388555 189.751259 
L 125.093971 202.732332 
L 110.399081 207.924761 
L 105.443828 209.104859 
L 103.564249 209.104859 
L 103.73512 208.3968 
L 114.499981 200.372137 
L 116.037818 199.192039 
L 116.037818 198.48398 
L 114.841722 198.48398 
L 112.791273 198.95602 
L 110.228211 199.664078 
L 107.152536 201.080195 
L 103.051636 202.260293 
L 98.608995 204.148449 
L 90.748938 206.980683 
L 89.552842 207.688741 
L 89.723713 208.868839 
L 86.306297 212.409132 
L 90.748938 211.229034 
L 95.191579 209.576898 
L 100.146833 208.3968 
L 104.931215 206.744663 
L 119.626105 202.024273 
L 121.334813 201.316215 
L 124.9231 199.664078 
L 128.340517 198.48398 
L 131.245321 197.303883 
L 133.979254 196.595824 
L 137.225799 195.179707 
L 140.472344 194.471649 
L 143.71889 193.291551 
L 147.307177 191.639415 
L 159.609876 185.502907 
L 163.539904 182.670673 
L 168.666029 179.838439 
L 173.10867 177.242224 
L 177.722182 174.173971 
L 181.652211 171.105717 
L 185.75311 166.857366 
L 187.974431 164.73319 
L 187.974431 164.73319 
" clip-path="url(#p130fdcf170)" style="fill: none; stroke: #0000ff; stroke-width: 1.5; stroke-linecap: square"/>
   </g>
   <g id="line2d_12">
    <path d="M 310.488804 112.100839 
" clip-path="url(#p130fdcf170)" style="fill: none; stroke: #0000ff; stroke-width: 1.5; stroke-linecap: square"/>
    <defs>
     <path id="m587657ef4d" d="M 0 5 
C 1.326016 5 2.597899 4.473168 3.535534 3.535534 
C 4.473168 2.597899 5 1.326016 5 0 
C 5 -1.326016 4.473168 -2.597899 3.535534 -3.535534 
C 2.597899 -4.473168 1.326016 -5 0 -5 
C -1.326016 -5 -2.597899 -4.473168 -3.535534 -3.535534 
C -4.473168 -2.597899 -5 -1.326016 -5 0 
C -5 1.326016 -4.473168 2.597899 -3.535534 3.535534 
C -2.597899 4.473168 -1.326016 5 0 5 
z
" style="stroke: #0000ff"/>
    </defs>
    <g clip-path="url(#p130fdcf170)">
     <use xlink:href="#m587657ef4d" x="310.488804" y="112.100839" style="fill: #0000ff; stroke: #0000ff"/>
    </g>
   </g>
   <g id="line2d_13">
    <path d="M 187.974431 164.73319 
" clip-path="url(#p130fdcf170)" style="fill: none; stroke: #0000ff; stroke-width: 1.5; stroke-linecap: square"/>
    <defs>
     <path id="m40bc02ceec" d="M -5 5 
L 5 5 
L 5 -5 
L -5 -5 
z
" style="stroke: #0000ff; stroke-linejoin: miter"/>
    </defs>
    <g clip-path="url(#p130fdcf170)">
     <use xlink:href="#m40bc02ceec" x="187.974431" y="164.73319" style="fill: #0000ff; stroke: #0000ff; stroke-linejoin: miter"/>
    </g>
   </g>
   <g id="line2d_14">
    <path d="M 130.903579 185.738927 
L 113.987368 190.223298 
L 102.026411 194.943688 
L 93.653742 198.95602 
L 87.844134 202.496312 
L 83.572364 205.564566 
L 78.61711 210.048937 
L 77.250144 211.701073 
L 76.224919 212.645151 
L 75.541435 212.881171 
L 75.028823 212.173112 
L 74.687081 209.812917 
L 74.34534 208.63282 
L 74.174469 206.272624 
L 74.174469 201.316215 
L 74.003598 197.775922 
L 89.04023 194.471649 
L 114.499981 190.931356 
L 167.811675 184.32281 
L 195.492746 181.254556 
L 222.832077 178.658341 
L 248.291828 176.770185 
L 269.992421 175.590088 
L 287.762986 175.354068 
L 302.116134 175.590088 
L 310.317933 176.062127 
L 314.418833 177.950283 
L 315.95667 179.60242 
L 315.273187 181.490576 
L 310.830545 183.850771 
L 306.387904 185.266888 
L 302.287005 185.266888 
L 303.995713 184.794849 
L 306.387904 183.378732 
L 313.735349 177.714263 
L 317.494507 174.173971 
L 322.108019 170.397659 
L 324.671081 167.565424 
L 325.696306 166.149307 
L 325.867177 164.73319 
L 325.354565 163.789112 
L 325.354565 163.317073 
L 325.867177 162.845034 
L 326.721531 162.372995 
L 328.259368 162.136976 
L 329.626335 159.77678 
L 329.455464 156.944546 
L 329.284593 156.236488 
L 329.797206 156.472507 
L 329.797206 157.416585 
L 330.138947 156.944546 
L 330.65156 157.180566 
L 330.480689 157.652605 
L 328.942852 158.124644 
L 324.500211 158.596683 
L 318.348861 158.596683 
L 282.46599 159.77678 
L 279.732057 159.77678 
L 279.219445 160.24882 
L 280.24467 160.720859 
L 282.807732 160.720859 
L 284.51644 160.484839 
L 285.370794 160.24882 
L 285.199923 159.540761 
L 285.370794 159.304741 
L 284.51644 158.832702 
L 281.269895 158.832702 
L 279.390316 159.068722 
L 277.681608 159.540761 
L 275.118545 159.540761 
L 272.384612 160.24882 
L 268.796325 160.720859 
L 264.695426 161.428917 
L 257.347981 160.956878 
L 252.90534 161.428917 
L 251.538373 162.136976 
L 249.829665 163.789112 
L 250.342278 164.025132 
L 251.880115 164.261151 
L 253.759694 164.261151 
L 255.981014 164.497171 
L 258.885818 164.497171 
L 262.303234 164.73319 
L 264.182813 164.497171 
L 268.454584 164.497171 
L 278.19422 164.025132 
L 301.603522 162.136976 
L 325.867177 160.484839 
L 334.92333 160.24882 
L 339.707713 160.0128 
L 345.175579 159.540761 
L 350.301703 159.304741 
L 355.086086 158.832702 
L 360.895694 158.596683 
L 374.394488 158.360663 
L 378.324517 158.596683 
L 384.475866 158.596683 
L 386.697187 158.832702 
L 389.772861 158.832702 
L 390.798086 159.068722 
L 391.994182 159.068722 
L 393.019407 159.304741 
L 393.361148 159.540761 
L 393.190278 159.540761 
L 392.506794 159.304741 
L 391.823311 159.304741 
L 391.139828 159.068722 
L 389.943732 158.832702 
L 388.405895 158.832702 
L 386.868057 158.360663 
L 385.33022 158.124644 
L 383.450641 157.652605 
L 381.912804 156.944546 
L 379.691483 156.708527 
L 376.615809 156.236488 
L 372.856651 156.000468 
L 368.58488 155.528429 
L 363.117014 155.528429 
L 356.623923 155.29241 
L 349.789091 154.820371 
L 342.441646 155.05639 
L 315.95667 157.416585 
L 307.242258 158.832702 
L 291.522144 161.664937 
L 284.174699 163.317073 
L 276.314641 165.205229 
L 260.081914 169.92562 
L 251.709244 172.521834 
L 239.919158 175.118049 
L 221.635981 180.782517 
L 213.09244 183.850771 
L 204.71977 187.155044 
L 197.543196 189.751259 
L 191.391847 192.111454 
L 176.184344 196.359805 
L 174.475636 196.595824 
L 174.133895 196.123785 
L 177.722182 193.99961 
L 180.114373 192.583493 
L 183.360919 191.403395 
L 187.974431 190.223298 
L 192.587943 189.27922 
L 197.030584 189.27922 
L 199.081033 189.515239 
L 200.960612 189.987278 
L 202.840191 190.695337 
L 209.845895 194.235629 
L 218.218565 197.775922 
L 221.123368 199.428059 
L 222.319464 200.372137 
L 223.51556 201.552234 
L 225.053397 202.260293 
L 226.762105 203.204371 
L 232.400842 205.092527 
L 234.793033 205.564566 
L 237.014354 206.272624 
L 239.064804 206.744663 
L 241.286124 206.744663 
L 246.58312 207.216702 
L 252.90534 207.216702 
L 256.493627 206.980683 
L 260.423656 206.980683 
L 264.353684 206.744663 
L 264.353684 206.744663 
" clip-path="url(#p130fdcf170)" style="fill: none; stroke: #00fa9a; stroke-width: 1.5; stroke-linecap: square"/>
   </g>
   <g id="line2d_15">
    <path d="M 130.903579 185.738927 
" clip-path="url(#p130fdcf170)" style="fill: none; stroke: #00fa9a; stroke-width: 1.5; stroke-linecap: square"/>
    <defs>
     <path id="m079e15a63a" d="M 0 5 
C 1.326016 5 2.597899 4.473168 3.535534 3.535534 
C 4.473168 2.597899 5 1.326016 5 0 
C 5 -1.326016 4.473168 -2.597899 3.535534 -3.535534 
C 2.597899 -4.473168 1.326016 -5 0 -5 
C -1.326016 -5 -2.597899 -4.473168 -3.535534 -3.535534 
C -4.473168 -2.597899 -5 -1.326016 -5 0 
C -5 1.326016 -4.473168 2.597899 -3.535534 3.535534 
C -2.597899 4.473168 -1.326016 5 0 5 
z
" style="stroke: #00fa9a"/>
    </defs>
    <g clip-path="url(#p130fdcf170)">
     <use xlink:href="#m079e15a63a" x="130.903579" y="185.738927" style="fill: #00fa9a; stroke: #00fa9a"/>
    </g>
   </g>
   <g id="line2d_16">
    <path d="M 264.353684 206.744663 
" clip-path="url(#p130fdcf170)" style="fill: none; stroke: #00fa9a; stroke-width: 1.5; stroke-linecap: square"/>
    <defs>
     <path id="m81dca4c59f" d="M -5 5 
L 5 5 
L 5 -5 
L -5 -5 
z
" style="stroke: #00fa9a; stroke-linejoin: miter"/>
    </defs>
    <g clip-path="url(#p130fdcf170)">
     <use xlink:href="#m81dca4c59f" x="264.353684" y="206.744663" style="fill: #00fa9a; stroke: #00fa9a; stroke-linejoin: miter"/>
    </g>
   </g>
   <g id="line2d_17">
    <path d="M 300.407426 165.677268 
L 300.920038 165.913288 
L 301.603522 166.149307 
L 302.116134 166.385327 
L 302.799617 166.621346 
L 303.4831 167.093385 
L 304.337455 167.329405 
L 305.020938 167.801444 
L 306.046163 168.273483 
L 307.071388 168.981541 
L 308.267483 169.6896 
L 309.63445 170.633678 
L 310.830545 171.577756 
L 312.026641 172.757854 
L 313.051866 174.173971 
L 314.247962 175.590088 
L 315.444057 177.006205 
L 316.127541 178.422322 
L 318.17799 180.310478 
L 319.544957 181.018537 
L 320.741053 181.490576 
L 321.766278 181.726595 
L 322.620632 181.490576 
L 322.962373 180.782517 
L 322.620632 179.60242 
L 321.424536 178.422322 
L 318.861474 177.478244 
L 313.90622 177.242224 
L 304.679196 177.478244 
L 285.199923 177.714263 
L 276.827254 177.714263 
L 256.835368 177.478244 
L 240.43177 178.658341 
L 222.490335 182.434654 
L 214.288536 185.974946 
L 210.87112 188.099122 
L 210.700249 187.863102 
L 218.389435 184.08679 
L 226.420364 180.310478 
L 226.762105 178.658341 
L 220.098144 177.950283 
L 211.725474 177.714263 
L 202.840191 177.478244 
L 195.151005 176.534166 
L 188.657914 174.882029 
L 182.677435 173.465912 
L 177.893053 172.049795 
L 173.792153 170.633678 
L 170.032995 169.217561 
L 165.590354 168.037463 
L 160.46423 167.565424 
L 154.825493 167.329405 
L 149.015885 167.093385 
L 143.548019 167.093385 
L 138.934507 167.093385 
L 135.517091 166.857366 
L 133.808383 166.621346 
L 130.903579 166.149307 
L 128.853129 165.205229 
L 126.290067 164.497171 
L 123.897876 163.553093 
L 120.993072 162.845034 
L 117.233914 162.136976 
L 113.303885 161.664937 
L 106.639923 161.192898 
L 104.760344 160.956878 
L 99.975962 160.484839 
L 97.925512 160.0128 
L 96.558545 159.77678 
L 95.875062 159.068722 
L 96.387675 158.360663 
L 97.58377 157.652605 
L 98.950737 156.708527 
L 100.317703 156.236488 
L 100.830316 156.000468 
L 101.855541 155.764449 
L 103.393378 155.29241 
L 105.102086 155.05639 
L 105.95644 154.820371 
L 108.00689 154.584351 
L 112.107789 154.112312 
L 115.354335 153.640273 
L 116.892172 153.404254 
L 122.530909 152.460176 
L 125.948325 151.988137 
L 130.049225 151.752117 
L 134.320995 151.280078 
L 137.39667 151.280078 
L 140.472344 151.280078 
L 142.864536 151.752117 
L 144.231502 151.988137 
L 145.598469 152.696195 
L 148.161531 153.640273 
L 150.211981 154.584351 
L 150.724593 155.05639 
L 152.604172 156.944546 
L 153.629397 157.888624 
L 154.996364 159.540761 
L 156.192459 161.664937 
L 156.705072 163.317073 
L 158.242909 164.96921 
L 159.439005 167.093385 
L 160.122488 168.273483 
L 161.147713 170.633678 
L 161.660325 173.701932 
L 161.147713 177.006205 
" clip-path="url(#p130fdcf170)" style="fill: none; stroke: #008000; stroke-width: 1.5; stroke-linecap: square"/>
   </g>
   <g id="line2d_18">
    <path d="M 300.407426 165.677268 
" clip-path="url(#p130fdcf170)" style="fill: none; stroke: #008000; stroke-width: 1.5; stroke-linecap: square"/>
    <defs>
     <path id="m9b942cf4ce" d="M 0 5 
C 1.326016 5 2.597899 4.473168 3.535534 3.535534 
C 4.473168 2.597899 5 1.326016 5 0 
C 5 -1.326016 4.473168 -2.597899 3.535534 -3.535534 
C 2.597899 -4.473168 1.326016 -5 0 -5 
C -1.326016 -5 -2.597899 -4.473168 -3.535534 -3.535534 
C -4.473168 -2.597899 -5 -1.326016 -5 0 
C -5 1.326016 -4.473168 2.597899 -3.535534 3.535534 
C -2.597899 4.473168 -1.326016 5 0 5 
z
" style="stroke: #008000"/>
    </defs>
    <g clip-path="url(#p130fdcf170)">
     <use xlink:href="#m9b942cf4ce" x="300.407426" y="165.677268" style="fill: #008000; stroke: #008000"/>
    </g>
   </g>
   <g id="line2d_19">
    <path d="M 161.147713 177.006205 
" clip-path="url(#p130fdcf170)" style="fill: none; stroke: #008000; stroke-width: 1.5; stroke-linecap: square"/>
    <defs>
     <path id="mb1ea514912" d="M -5 5 
L 5 5 
L 5 -5 
L -5 -5 
z
" style="stroke: #008000; stroke-linejoin: miter"/>
    </defs>
    <g clip-path="url(#p130fdcf170)">
     <use xlink:href="#mb1ea514912" x="161.147713" y="177.006205" style="fill: #008000; stroke: #008000; stroke-linejoin: miter"/>
    </g>
   </g>
   <g id="line2d_20">
    <path d="M 260.081914 130.274341 
L 265.208038 130.9824 
L 266.062392 131.21842 
L 267.258488 131.21842 
L 269.992421 131.454439 
L 271.188517 131.454439 
L 272.384612 131.690459 
L 274.605933 131.690459 
L 275.802029 131.926478 
L 277.681608 131.926478 
L 278.706833 132.162498 
L 280.928153 132.162498 
L 284.003828 132.634537 
L 284.345569 132.870556 
L 282.978603 133.578615 
L 260.594526 138.062985 
L 227.445589 144.199493 
L 188.999656 149.863961 
L 152.775043 175.118049 
L 127.998775 180.546498 
L 111.082565 185.502907 
L 99.292478 187.627083 
L 91.26155 188.335141 
L 85.793684 196.123785 
L 82.034526 199.900098 
L 79.471464 202.260293 
L 77.762756 203.44039 
L 75.712306 208.3968 
L 74.34534 212.409132 
L 74.174469 212.409132 
L 74.174469 211.229034 
L 74.003598 206.744663 
L 74.003598 203.912429 
L 73.832727 200.844176 
L 73.832727 160.720859 
L 78.446239 157.416585 
L 84.768459 155.05639 
L 98.096383 151.044059 
L 112.107789 147.739785 
L 145.76934 142.311337 
L 192.758813 136.646868 
L 258.031464 130.274341 
L 288.61734 128.386185 
L 329.968077 126.26201 
L 360.212211 125.789971 
L 395.240727 127.206088 
L 398.487273 128.622205 
L 398.487273 132.634537 
L 398.487273 119.417444 
L 398.316402 119.181424 
L 397.97466 118.945405 
L 397.803789 118.237346 
L 397.462048 117.529288 
L 396.949435 116.821229 
L 396.095081 116.113171 
L 394.898986 115.405112 
L 393.361148 115.169093 
L 389.089378 115.169093 
L 387.551541 115.405112 
L 387.551541 116.113171 
L 387.722411 116.58521 
L 388.747636 117.293268 
L 389.260249 118.473366 
L 388.747636 119.653463 
L 387.38067 121.06958 
L 382.083675 122.485698 
L 379.178871 122.721717 
L 376.444938 123.429776 
L 375.932325 122.957737 
L 374.9071 122.485698 
L 373.369263 122.249678 
L 371.489684 121.54162 
L 370.464459 121.3056 
L 362.946144 119.889483 
L 361.066565 120.361522 
L 358.161761 121.54162 
L 357.136536 122.485698 
L 356.623923 123.193756 
L 356.623923 123.429776 
L 356.794794 123.901815 
L 356.794794 124.609873 
L 356.965665 125.081912 
L 356.965665 125.789971 
L 354.915215 127.206088 
L 353.548249 127.914146 
L 352.352153 128.386185 
L 350.814316 128.858224 
L 349.105608 129.802302 
L 347.738641 130.274341 
L 346.200804 130.274341 
L 345.517321 129.330263 
L 344.150354 130.274341 
L 339.1951 132.162498 
L 336.97378 132.870556 
L 334.752459 133.342595 
L 329.113722 135.70279 
L 327.234144 137.354927 
L 327.746756 138.062985 
L 328.430239 138.062985 
L 329.113722 138.299005 
L 330.993301 138.771044 
L 332.189397 138.771044 
L 334.581589 139.243083 
L 335.435943 139.715122 
L 336.119426 140.42318 
L 336.461167 141.131239 
L 336.632038 142.075317 
L 337.315522 143.491434 
L 337.828134 144.907551 
L 339.02423 145.851629 
L 341.758163 146.323668 
L 342.099904 146.323668 
L 342.441646 146.559688 
L 343.125129 146.323668 
L 346.884287 146.795707 
L 348.592995 147.267746 
L 349.61822 147.739785 
L 349.789091 147.975805 
L 351.326928 148.211824 
L 352.010411 148.447844 
L 354.744344 149.155902 
L 358.332632 149.155902 
L 362.433531 149.863961 
L 364.825722 150.336 
L 366.36356 150.808039 
L 368.072268 151.044059 
L 369.439234 151.516098 
L 370.977072 151.752117 
L 372.344038 152.224156 
L 373.881876 152.460176 
L 375.419713 152.460176 
L 378.495388 152.696195 
L 380.033225 152.460176 
L 382.596287 152.224156 
L 383.450641 151.752117 
L 384.988478 151.516098 
L 386.355445 150.808039 
L 387.209799 150.808039 
L 392.335923 149.391922 
L 393.019407 148.919883 
L 393.019407 148.447844 
L 392.848536 148.211824 
L 391.65244 147.739785 
L 388.064153 147.267746 
L 386.013703 147.503766 
L 382.254545 147.739785 
L 379.178871 148.211824 
L 376.103196 148.447844 
L 362.775273 151.516098 
L 360.212211 151.988137 
L 357.820019 152.224156 
L 350.643445 153.640273 
L 346.884287 154.584351 
L 345.175579 155.29241 
L 344.150354 156.000468 
L 343.637742 156.708527 
L 342.270775 157.416585 
L 342.099904 158.124644 
L 342.783388 158.832702 
L 343.979483 159.540761 
L 347.909512 161.192898 
L 349.276478 161.428917 
L 354.231732 162.845034 
L 357.99089 163.789112 
L 359.870469 164.497171 
L 364.142239 165.441249 
L 368.072268 166.857366 
L 371.831426 167.801444 
L 375.590584 168.745522 
L 382.596287 169.6896 
L 386.013703 169.6896 
L 387.551541 169.92562 
L 390.798086 169.92562 
L 392.335923 170.161639 
L 398.487273 170.161639 
L 398.487273 170.397659 
L 398.487273 169.92562 
L 398.316402 169.92562 
L 397.97466 169.6896 
L 397.632919 169.6896 
L 397.120306 169.45358 
L 396.436823 169.45358 
L 396.265952 169.217561 
L 395.924211 169.217561 
L 395.924211 168.981541 
L 395.582469 168.981541 
L 394.728115 169.45358 
L 393.70289 169.6896 
L 392.506794 170.161639 
L 391.310699 170.397659 
L 389.60199 170.869698 
L 388.064153 171.105717 
L 386.697187 171.577756 
L 385.501091 171.813776 
L 382.425416 171.813776 
L 381.229321 172.049795 
L 379.862354 172.049795 
L 378.153646 172.285815 
L 373.881876 173.229893 
L 373.881876 173.229893 
" clip-path="url(#p130fdcf170)" style="fill: none; stroke: #ffd700; stroke-width: 1.5; stroke-linecap: square"/>
   </g>
   <g id="line2d_21">
    <path d="M 260.081914 130.274341 
" clip-path="url(#p130fdcf170)" style="fill: none; stroke: #ffd700; stroke-width: 1.5; stroke-linecap: square"/>
    <defs>
     <path id="m623bdbcd5b" d="M 0 5 
C 1.326016 5 2.597899 4.473168 3.535534 3.535534 
C 4.473168 2.597899 5 1.326016 5 0 
C 5 -1.326016 4.473168 -2.597899 3.535534 -3.535534 
C 2.597899 -4.473168 1.326016 -5 0 -5 
C -1.326016 -5 -2.597899 -4.473168 -3.535534 -3.535534 
C -4.473168 -2.597899 -5 -1.326016 -5 0 
C -5 1.326016 -4.473168 2.597899 -3.535534 3.535534 
C -2.597899 4.473168 -1.326016 5 0 5 
z
" style="stroke: #ffd700"/>
    </defs>
    <g clip-path="url(#p130fdcf170)">
     <use xlink:href="#m623bdbcd5b" x="260.081914" y="130.274341" style="fill: #ffd700; stroke: #ffd700"/>
    </g>
   </g>
   <g id="line2d_22">
    <path d="M 373.881876 173.229893 
" clip-path="url(#p130fdcf170)" style="fill: none; stroke: #ffd700; stroke-width: 1.5; stroke-linecap: square"/>
    <defs>
     <path id="ma6dcec38f4" d="M -5 5 
L 5 5 
L 5 -5 
L -5 -5 
z
" style="stroke: #ffd700; stroke-linejoin: miter"/>
    </defs>
    <g clip-path="url(#p130fdcf170)">
     <use xlink:href="#ma6dcec38f4" x="373.881876" y="173.229893" style="fill: #ffd700; stroke: #ffd700; stroke-linejoin: miter"/>
    </g>
   </g>
   <g id="line2d_23">
    <path d="M 271.530258 116.113171 
L 271.359388 116.34919 
L 271.188517 116.34919 
L 270.846775 116.58521 
L 270.334163 116.821229 
L 269.308938 117.057249 
L 268.454584 117.057249 
L 267.60023 117.293268 
L 266.745876 117.529288 
L 265.720651 117.765307 
L 264.695426 118.001327 
L 263.49933 118.001327 
L 262.815847 118.001327 
L 260.594526 118.001327 
L 258.714947 118.001327 
L 257.518852 118.001327 
L 253.930565 117.293268 
L 252.392727 117.057249 
L 246.924861 116.113171 
L 242.311349 115.641132 
L 233.426067 115.169093 
L 231.546488 114.933073 
L 222.661206 113.752976 
L 216.338986 113.280937 
L 211.896344 113.280937 
L 206.086737 113.752976 
L 199.251904 115.405112 
L 191.733589 118.237346 
L 185.411368 121.777639 
L 179.601761 126.970068 
L 172.425187 132.634537 
L 157.559426 142.783376 
L 149.699368 149.627941 
L 144.231502 149.627941 
L 134.150124 150.57202 
L 124.9231 151.280078 
L 120.993072 151.752117 
L 115.012593 151.988137 
L 111.253435 151.044059 
L 110.569952 148.919883 
L 112.27866 144.671532 
L 115.183464 139.715122 
L 117.746526 135.466771 
L 119.455234 130.74638 
L 119.796976 129.094244 
L 119.284364 127.914146 
L 117.917397 127.678127 
L 116.208689 127.678127 
L 114.499981 127.678127 
L 113.474756 126.970068 
L 113.133014 125.553951 
L 112.791273 123.665795 
L 112.107789 122.249678 
L 111.082565 121.777639 
L 110.399081 120.597541 
L 110.399081 120.125502 
L 110.569952 119.181424 
L 111.253435 118.001327 
L 111.595177 117.765307 
L 112.620402 116.821229 
L 112.962144 116.58521 
L 113.816498 115.641132 
L 114.841722 114.933073 
L 115.696077 114.225015 
L 116.721301 113.280937 
L 117.575656 112.572878 
L 118.60088 111.6288 
L 119.626105 110.684722 
L 120.822201 109.976663 
L 121.163943 109.740644 
L 122.360038 109.268605 
L 123.043522 109.032585 
L 123.385263 109.032585 
L 123.897876 108.796566 
L 124.581359 109.032585 
L 125.093971 109.268605 
L 125.777455 109.504624 
L 126.119196 110.212683 
L 126.631809 110.684722 
L 126.97355 111.156761 
L 127.315292 111.6288 
L 127.827904 112.100839 
L 128.340517 112.572878 
L 129.024 113.044917 
L 129.707483 113.280937 
L 130.561837 113.752976 
L 131.928804 114.225015 
L 133.466641 114.461034 
L 135.175349 114.461034 
L 136.713187 114.225015 
L 138.421895 114.225015 
L 140.130603 113.988995 
L 141.326699 113.516956 
L 142.864536 113.280937 
L 144.914986 113.044917 
" clip-path="url(#p130fdcf170)" style="fill: none; stroke: #800080; stroke-width: 1.5; stroke-linecap: square"/>
   </g>
   <g id="line2d_24">
    <path d="M 271.530258 116.113171 
" clip-path="url(#p130fdcf170)" style="fill: none; stroke: #800080; stroke-width: 1.5; stroke-linecap: square"/>
    <defs>
     <path id="mfe81cec500" d="M 0 5 
C 1.326016 5 2.597899 4.473168 3.535534 3.535534 
C 4.473168 2.597899 5 1.326016 5 0 
C 5 -1.326016 4.473168 -2.597899 3.535534 -3.535534 
C 2.597899 -4.473168 1.326016 -5 0 -5 
C -1.326016 -5 -2.597899 -4.473168 -3.535534 -3.535534 
C -4.473168 -2.597899 -5 -1.326016 -5 0 
C -5 1.326016 -4.473168 2.597899 -3.535534 3.535534 
C -2.597899 4.473168 -1.326016 5 0 5 
z
" style="stroke: #800080"/>
    </defs>
    <g clip-path="url(#p130fdcf170)">
     <use xlink:href="#mfe81cec500" x="271.530258" y="116.113171" style="fill: #800080; stroke: #800080"/>
    </g>
   </g>
   <g id="line2d_25">
    <path d="M 144.914986 113.044917 
" clip-path="url(#p130fdcf170)" style="fill: none; stroke: #800080; stroke-width: 1.5; stroke-linecap: square"/>
    <defs>
     <path id="mbe39efea28" d="M -5 5 
L 5 5 
L 5 -5 
L -5 -5 
z
" style="stroke: #800080; stroke-linejoin: miter"/>
    </defs>
    <g clip-path="url(#p130fdcf170)">
     <use xlink:href="#mbe39efea28" x="144.914986" y="113.044917" style="fill: #800080; stroke: #800080; stroke-linejoin: miter"/>
    </g>
   </g>
   <g id="patch_3">
    <path d="M 57.6 307.584 
L 57.6 41.472 
" style="fill: none; stroke: #000000; stroke-width: 0.8; stroke-linejoin: miter; stroke-linecap: square"/>
   </g>
   <g id="patch_4">
    <path d="M 57.6 307.584 
L 414.72 307.584 
" style="fill: none; stroke: #000000; stroke-width: 0.8; stroke-linejoin: miter; stroke-linecap: square"/>
   </g>
   <g id="legend_1">
    <g id="patch_5">
     <path d="M 282.164531 119.523563 
L 404.22 119.523563 
Q 407.22 119.523563 407.22 116.523563 
L 407.22 51.972 
Q 407.22 48.972 404.22 48.972 
L 282.164531 48.972 
Q 279.164531 48.972 279.164531 51.972 
L 279.164531 116.523563 
Q 279.164531 119.523563 282.164531 119.523563 
z
" style="fill: #ffffff; opacity: 0.8; stroke: #cccccc; stroke-linejoin: miter"/>
    </g>
    <g id="line2d_26">
     <path d="M 285.164531 61.119656 
L 300.164531 61.119656 
L 315.164531 61.119656 
" style="fill: none; stroke: #000000; stroke-width: 1.5; stroke-linecap: square"/>
    </g>
    <g id="text_7">
     <!-- Trajectory -->
     <g transform="translate(327.164531 66.369656)scale(0.15 -0.15)">
      <defs>
       <path id="DejaVuSans-54" d="M -19 4666 
L 3928 4666 
L 3928 4134 
L 2272 4134 
L 2272 0 
L 1638 0 
L 1638 4134 
L -19 4134 
L -19 4666 
z
" transform="scale(0.015625)"/>
       <path id="DejaVuSans-72" d="M 2631 2963 
Q 2534 3019 2420 3045 
Q 2306 3072 2169 3072 
Q 1681 3072 1420 2755 
Q 1159 2438 1159 1844 
L 1159 0 
L 581 0 
L 581 3500 
L 1159 3500 
L 1159 2956 
Q 1341 3275 1631 3429 
Q 1922 3584 2338 3584 
Q 2397 3584 2469 3576 
Q 2541 3569 2628 3553 
L 2631 2963 
z
" transform="scale(0.015625)"/>
       <path id="DejaVuSans-61" d="M 2194 1759 
Q 1497 1759 1228 1600 
Q 959 1441 959 1056 
Q 959 750 1161 570 
Q 1363 391 1709 391 
Q 2188 391 2477 730 
Q 2766 1069 2766 1631 
L 2766 1759 
L 2194 1759 
z
M 3341 1997 
L 3341 0 
L 2766 0 
L 2766 531 
Q 2569 213 2275 61 
Q 1981 -91 1556 -91 
Q 1019 -91 701 211 
Q 384 513 384 1019 
Q 384 1609 779 1909 
Q 1175 2209 1959 2209 
L 2766 2209 
L 2766 2266 
Q 2766 2663 2505 2880 
Q 2244 3097 1772 3097 
Q 1472 3097 1187 3025 
Q 903 2953 641 2809 
L 641 3341 
Q 956 3463 1253 3523 
Q 1550 3584 1831 3584 
Q 2591 3584 2966 3190 
Q 3341 2797 3341 1997 
z
" transform="scale(0.015625)"/>
       <path id="DejaVuSans-6a" d="M 603 3500 
L 1178 3500 
L 1178 -63 
Q 1178 -731 923 -1031 
Q 669 -1331 103 -1331 
L -116 -1331 
L -116 -844 
L 38 -844 
Q 366 -844 484 -692 
Q 603 -541 603 -63 
L 603 3500 
z
M 603 4863 
L 1178 4863 
L 1178 4134 
L 603 4134 
L 603 4863 
z
" transform="scale(0.015625)"/>
       <path id="DejaVuSans-65" d="M 3597 1894 
L 3597 1613 
L 953 1613 
Q 991 1019 1311 708 
Q 1631 397 2203 397 
Q 2534 397 2845 478 
Q 3156 559 3463 722 
L 3463 178 
Q 3153 47 2828 -22 
Q 2503 -91 2169 -91 
Q 1331 -91 842 396 
Q 353 884 353 1716 
Q 353 2575 817 3079 
Q 1281 3584 2069 3584 
Q 2775 3584 3186 3129 
Q 3597 2675 3597 1894 
z
M 3022 2063 
Q 3016 2534 2758 2815 
Q 2500 3097 2075 3097 
Q 1594 3097 1305 2825 
Q 1016 2553 972 2059 
L 3022 2063 
z
" transform="scale(0.015625)"/>
       <path id="DejaVuSans-63" d="M 3122 3366 
L 3122 2828 
Q 2878 2963 2633 3030 
Q 2388 3097 2138 3097 
Q 1578 3097 1268 2742 
Q 959 2388 959 1747 
Q 959 1106 1268 751 
Q 1578 397 2138 397 
Q 2388 397 2633 464 
Q 2878 531 3122 666 
L 3122 134 
Q 2881 22 2623 -34 
Q 2366 -91 2075 -91 
Q 1284 -91 818 406 
Q 353 903 353 1747 
Q 353 2603 823 3093 
Q 1294 3584 2113 3584 
Q 2378 3584 2631 3529 
Q 2884 3475 3122 3366 
z
" transform="scale(0.015625)"/>
       <path id="DejaVuSans-74" d="M 1172 4494 
L 1172 3500 
L 2356 3500 
L 2356 3053 
L 1172 3053 
L 1172 1153 
Q 1172 725 1289 603 
Q 1406 481 1766 481 
L 2356 481 
L 2356 0 
L 1766 0 
Q 1100 0 847 248 
Q 594 497 594 1153 
L 594 3053 
L 172 3053 
L 172 3500 
L 594 3500 
L 594 4494 
L 1172 4494 
z
" transform="scale(0.015625)"/>
       <path id="DejaVuSans-6f" d="M 1959 3097 
Q 1497 3097 1228 2736 
Q 959 2375 959 1747 
Q 959 1119 1226 758 
Q 1494 397 1959 397 
Q 2419 397 2687 759 
Q 2956 1122 2956 1747 
Q 2956 2369 2687 2733 
Q 2419 3097 1959 3097 
z
M 1959 3584 
Q 2709 3584 3137 3096 
Q 3566 2609 3566 1747 
Q 3566 888 3137 398 
Q 2709 -91 1959 -91 
Q 1206 -91 779 398 
Q 353 888 353 1747 
Q 353 2609 779 3096 
Q 1206 3584 1959 3584 
z
" transform="scale(0.015625)"/>
       <path id="DejaVuSans-79" d="M 2059 -325 
Q 1816 -950 1584 -1140 
Q 1353 -1331 966 -1331 
L 506 -1331 
L 506 -850 
L 844 -850 
Q 1081 -850 1212 -737 
Q 1344 -625 1503 -206 
L 1606 56 
L 191 3500 
L 800 3500 
L 1894 763 
L 2988 3500 
L 3597 3500 
L 2059 -325 
z
" transform="scale(0.015625)"/>
      </defs>
      <use xlink:href="#DejaVuSans-54"/>
      <use xlink:href="#DejaVuSans-72" x="46.333984"/>
      <use xlink:href="#DejaVuSans-61" x="87.447266"/>
      <use xlink:href="#DejaVuSans-6a" x="148.726562"/>
      <use xlink:href="#DejaVuSans-65" x="176.509766"/>
      <use xlink:href="#DejaVuSans-63" x="238.033203"/>
      <use xlink:href="#DejaVuSans-74" x="293.013672"/>
      <use xlink:href="#DejaVuSans-6f" x="332.222656"/>
      <use xlink:href="#DejaVuSans-72" x="393.404297"/>
      <use xlink:href="#DejaVuSans-79" x="434.517578"/>
     </g>
    </g>
    <g id="line2d_27">
     <path d="M 285.164531 83.136844 
L 300.164531 83.136844 
L 315.164531 83.136844 
" style="fill: none; stroke: #000000; stroke-width: 1.5; stroke-linecap: square"/>
     <g>
      <use xlink:href="#m24d956fcd7" x="300.164531" y="83.136844" style="stroke: #000000"/>
     </g>
    </g>
    <g id="text_8">
     <!-- Start -->
     <g transform="translate(327.164531 88.386844)scale(0.15 -0.15)">
      <defs>
       <path id="DejaVuSans-53" d="M 3425 4513 
L 3425 3897 
Q 3066 4069 2747 4153 
Q 2428 4238 2131 4238 
Q 1616 4238 1336 4038 
Q 1056 3838 1056 3469 
Q 1056 3159 1242 3001 
Q 1428 2844 1947 2747 
L 2328 2669 
Q 3034 2534 3370 2195 
Q 3706 1856 3706 1288 
Q 3706 609 3251 259 
Q 2797 -91 1919 -91 
Q 1588 -91 1214 -16 
Q 841 59 441 206 
L 441 856 
Q 825 641 1194 531 
Q 1563 422 1919 422 
Q 2459 422 2753 634 
Q 3047 847 3047 1241 
Q 3047 1584 2836 1778 
Q 2625 1972 2144 2069 
L 1759 2144 
Q 1053 2284 737 2584 
Q 422 2884 422 3419 
Q 422 4038 858 4394 
Q 1294 4750 2059 4750 
Q 2388 4750 2728 4690 
Q 3069 4631 3425 4513 
z
" transform="scale(0.015625)"/>
      </defs>
      <use xlink:href="#DejaVuSans-53"/>
      <use xlink:href="#DejaVuSans-74" x="63.476562"/>
      <use xlink:href="#DejaVuSans-61" x="102.685547"/>
      <use xlink:href="#DejaVuSans-72" x="163.964844"/>
      <use xlink:href="#DejaVuSans-74" x="205.078125"/>
     </g>
    </g>
    <g id="line2d_28">
     <path d="M 285.164531 105.154031 
L 300.164531 105.154031 
L 315.164531 105.154031 
" style="fill: none; stroke: #000000; stroke-width: 1.5; stroke-linecap: square"/>
     <g>
      <use xlink:href="#ma7c7686ad3" x="300.164531" y="105.154031" style="stroke: #000000; stroke-linejoin: miter"/>
     </g>
    </g>
    <g id="text_9">
     <!-- End -->
     <g transform="translate(327.164531 110.404031)scale(0.15 -0.15)">
      <defs>
       <path id="DejaVuSans-45" d="M 628 4666 
L 3578 4666 
L 3578 4134 
L 1259 4134 
L 1259 2753 
L 3481 2753 
L 3481 2222 
L 1259 2222 
L 1259 531 
L 3634 531 
L 3634 0 
L 628 0 
L 628 4666 
z
" transform="scale(0.015625)"/>
       <path id="DejaVuSans-6e" d="M 3513 2113 
L 3513 0 
L 2938 0 
L 2938 2094 
Q 2938 2591 2744 2837 
Q 2550 3084 2163 3084 
Q 1697 3084 1428 2787 
Q 1159 2491 1159 1978 
L 1159 0 
L 581 0 
L 581 3500 
L 1159 3500 
L 1159 2956 
Q 1366 3272 1645 3428 
Q 1925 3584 2291 3584 
Q 2894 3584 3203 3211 
Q 3513 2838 3513 2113 
z
" transform="scale(0.015625)"/>
       <path id="DejaVuSans-64" d="M 2906 2969 
L 2906 4863 
L 3481 4863 
L 3481 0 
L 2906 0 
L 2906 525 
Q 2725 213 2448 61 
Q 2172 -91 1784 -91 
Q 1150 -91 751 415 
Q 353 922 353 1747 
Q 353 2572 751 3078 
Q 1150 3584 1784 3584 
Q 2172 3584 2448 3432 
Q 2725 3281 2906 2969 
z
M 947 1747 
Q 947 1113 1208 752 
Q 1469 391 1925 391 
Q 2381 391 2643 752 
Q 2906 1113 2906 1747 
Q 2906 2381 2643 2742 
Q 2381 3103 1925 3103 
Q 1469 3103 1208 2742 
Q 947 2381 947 1747 
z
" transform="scale(0.015625)"/>
      </defs>
      <use xlink:href="#DejaVuSans-45"/>
      <use xlink:href="#DejaVuSans-6e" x="63.183594"/>
      <use xlink:href="#DejaVuSans-64" x="126.5625"/>
     </g>
    </g>
   </g>
  </g>
 </g>
 <defs>
  <clipPath id="p130fdcf170">
   <rect x="57.6" y="41.472" width="357.12" height="266.112"/>
  </clipPath>
 </defs>
</svg>
