<?xml version="1.0" encoding="utf-8" standalone="no"?>
<!DOCTYPE svg PUBLIC "-//W3C//DTD SVG 1.1//EN"
  "http://www.w3.org/Graphics/SVG/1.1/DTD/svg11.dtd">
<svg xmlns:xlink="http://www.w3.org/1999/xlink" width="460.8pt" height="345.6pt" viewBox="0 0 460.8 345.6" xmlns="http://www.w3.org/2000/svg" version="1.1">
 <metadata>
  <rdf:RDF xmlns:dc="http://purl.org/dc/elements/1.1/" xmlns:cc="http://creativecommons.org/ns#" xmlns:rdf="http://www.w3.org/1999/02/22-rdf-syntax-ns#">
   <cc:Work>
    <dc:type rdf:resource="http://purl.org/dc/dcmitype/StillImage"/>
    <dc:date>2024-02-20T18:22:18.007457</dc:date>
    <dc:format>image/svg+xml</dc:format>
    <dc:creator>
     <cc:Agent>
      <dc:title>Matplotlib v3.5.0, https://matplotlib.org/</dc:title>
     </cc:Agent>
    </dc:creator>
   </cc:Work>
  </rdf:RDF>
 </metadata>
 <defs>
  <style type="text/css">*{stroke-linejoin: round; stroke-linecap: butt}</style>
 </defs>
 <g id="figure_1">
  <g id="patch_1">
   <path d="M 0 345.6 
L 460.8 345.6 
L 460.8 0 
L 0 0 
z
" style="fill: #ffffff"/>
  </g>
  <g id="axes_1">
   <g id="patch_2">
    <path d="M 57.6 307.584 
L 414.72 307.584 
L 414.72 41.472 
L 57.6 41.472 
z
" style="fill: #ffffff"/>
   </g>
   <g id="matplotlib.axis_1">
    <g id="xtick_1">
     <g id="line2d_1">
      <defs>
       <path id="m486098900e" d="M 0 0 
L 0 3.5 
" style="stroke: #000000; stroke-width: 0.8"/>
      </defs>
      <g>
       <use xlink:href="#m486098900e" x="73.832727" y="307.584" style="stroke: #000000; stroke-width: 0.8"/>
      </g>
     </g>
     <g id="text_1">
      <!-- 0 -->
      <g transform="translate(67.470227 329.780875)scale(0.2 -0.2)">
       <defs>
        <path id="DejaVuSans-30" d="M 2034 4250 
Q 1547 4250 1301 3770 
Q 1056 3291 1056 2328 
Q 1056 1369 1301 889 
Q 1547 409 2034 409 
Q 2525 409 2770 889 
Q 3016 1369 3016 2328 
Q 3016 3291 2770 3770 
Q 2525 4250 2034 4250 
z
M 2034 4750 
Q 2819 4750 3233 4129 
Q 3647 3509 3647 2328 
Q 3647 1150 3233 529 
Q 2819 -91 2034 -91 
Q 1250 -91 836 529 
Q 422 1150 422 2328 
Q 422 3509 836 4129 
Q 1250 4750 2034 4750 
z
" transform="scale(0.015625)"/>
       </defs>
       <use xlink:href="#DejaVuSans-30"/>
      </g>
     </g>
    </g>
    <g id="xtick_2">
     <g id="line2d_2">
      <g>
       <use xlink:href="#m486098900e" x="399.341627" y="307.584" style="stroke: #000000; stroke-width: 0.8"/>
      </g>
     </g>
     <g id="text_2">
      <!-- 1 -->
      <g transform="translate(392.979127 329.780875)scale(0.2 -0.2)">
       <defs>
        <path id="DejaVuSans-31" d="M 794 531 
L 1825 531 
L 1825 4091 
L 703 3866 
L 703 4441 
L 1819 4666 
L 2450 4666 
L 2450 531 
L 3481 531 
L 3481 0 
L 794 0 
L 794 531 
z
" transform="scale(0.015625)"/>
       </defs>
       <use xlink:href="#DejaVuSans-31"/>
      </g>
     </g>
    </g>
    <g id="text_3">
     <!-- Normalised X position -->
     <g transform="translate(111.795937 353.137125)scale(0.2 -0.2)">
      <defs>
       <path id="DejaVuSans-Bold-4e" d="M 588 4666 
L 1931 4666 
L 3628 1466 
L 3628 4666 
L 4769 4666 
L 4769 0 
L 3425 0 
L 1728 3200 
L 1728 0 
L 588 0 
L 588 4666 
z
" transform="scale(0.015625)"/>
       <path id="DejaVuSans-Bold-6f" d="M 2203 2784 
Q 1831 2784 1636 2517 
Q 1441 2250 1441 1747 
Q 1441 1244 1636 976 
Q 1831 709 2203 709 
Q 2569 709 2762 976 
Q 2956 1244 2956 1747 
Q 2956 2250 2762 2517 
Q 2569 2784 2203 2784 
z
M 2203 3584 
Q 3106 3584 3614 3096 
Q 4122 2609 4122 1747 
Q 4122 884 3614 396 
Q 3106 -91 2203 -91 
Q 1297 -91 786 396 
Q 275 884 275 1747 
Q 275 2609 786 3096 
Q 1297 3584 2203 3584 
z
" transform="scale(0.015625)"/>
       <path id="DejaVuSans-Bold-72" d="M 3138 2547 
Q 2991 2616 2845 2648 
Q 2700 2681 2553 2681 
Q 2122 2681 1889 2404 
Q 1656 2128 1656 1613 
L 1656 0 
L 538 0 
L 538 3500 
L 1656 3500 
L 1656 2925 
Q 1872 3269 2151 3426 
Q 2431 3584 2822 3584 
Q 2878 3584 2943 3579 
Q 3009 3575 3134 3559 
L 3138 2547 
z
" transform="scale(0.015625)"/>
       <path id="DejaVuSans-Bold-6d" d="M 3781 2919 
Q 3994 3244 4286 3414 
Q 4578 3584 4928 3584 
Q 5531 3584 5847 3212 
Q 6163 2841 6163 2131 
L 6163 0 
L 5038 0 
L 5038 1825 
Q 5041 1866 5042 1909 
Q 5044 1953 5044 2034 
Q 5044 2406 4934 2573 
Q 4825 2741 4581 2741 
Q 4263 2741 4089 2478 
Q 3916 2216 3909 1719 
L 3909 0 
L 2784 0 
L 2784 1825 
Q 2784 2406 2684 2573 
Q 2584 2741 2328 2741 
Q 2006 2741 1831 2477 
Q 1656 2213 1656 1722 
L 1656 0 
L 531 0 
L 531 3500 
L 1656 3500 
L 1656 2988 
Q 1863 3284 2130 3434 
Q 2397 3584 2719 3584 
Q 3081 3584 3359 3409 
Q 3638 3234 3781 2919 
z
" transform="scale(0.015625)"/>
       <path id="DejaVuSans-Bold-61" d="M 2106 1575 
Q 1756 1575 1579 1456 
Q 1403 1338 1403 1106 
Q 1403 894 1545 773 
Q 1688 653 1941 653 
Q 2256 653 2472 879 
Q 2688 1106 2688 1447 
L 2688 1575 
L 2106 1575 
z
M 3816 1997 
L 3816 0 
L 2688 0 
L 2688 519 
Q 2463 200 2181 54 
Q 1900 -91 1497 -91 
Q 953 -91 614 226 
Q 275 544 275 1050 
Q 275 1666 698 1953 
Q 1122 2241 2028 2241 
L 2688 2241 
L 2688 2328 
Q 2688 2594 2478 2717 
Q 2269 2841 1825 2841 
Q 1466 2841 1156 2769 
Q 847 2697 581 2553 
L 581 3406 
Q 941 3494 1303 3539 
Q 1666 3584 2028 3584 
Q 2975 3584 3395 3211 
Q 3816 2838 3816 1997 
z
" transform="scale(0.015625)"/>
       <path id="DejaVuSans-Bold-6c" d="M 538 4863 
L 1656 4863 
L 1656 0 
L 538 0 
L 538 4863 
z
" transform="scale(0.015625)"/>
       <path id="DejaVuSans-Bold-69" d="M 538 3500 
L 1656 3500 
L 1656 0 
L 538 0 
L 538 3500 
z
M 538 4863 
L 1656 4863 
L 1656 3950 
L 538 3950 
L 538 4863 
z
" transform="scale(0.015625)"/>
       <path id="DejaVuSans-Bold-73" d="M 3272 3391 
L 3272 2541 
Q 2913 2691 2578 2766 
Q 2244 2841 1947 2841 
Q 1628 2841 1473 2761 
Q 1319 2681 1319 2516 
Q 1319 2381 1436 2309 
Q 1553 2238 1856 2203 
L 2053 2175 
Q 2913 2066 3209 1816 
Q 3506 1566 3506 1031 
Q 3506 472 3093 190 
Q 2681 -91 1863 -91 
Q 1516 -91 1145 -36 
Q 775 19 384 128 
L 384 978 
Q 719 816 1070 734 
Q 1422 653 1784 653 
Q 2113 653 2278 743 
Q 2444 834 2444 1013 
Q 2444 1163 2330 1236 
Q 2216 1309 1875 1350 
L 1678 1375 
Q 931 1469 631 1722 
Q 331 1975 331 2491 
Q 331 3047 712 3315 
Q 1094 3584 1881 3584 
Q 2191 3584 2531 3537 
Q 2872 3491 3272 3391 
z
" transform="scale(0.015625)"/>
       <path id="DejaVuSans-Bold-65" d="M 4031 1759 
L 4031 1441 
L 1416 1441 
Q 1456 1047 1700 850 
Q 1944 653 2381 653 
Q 2734 653 3104 758 
Q 3475 863 3866 1075 
L 3866 213 
Q 3469 63 3072 -14 
Q 2675 -91 2278 -91 
Q 1328 -91 801 392 
Q 275 875 275 1747 
Q 275 2603 792 3093 
Q 1309 3584 2216 3584 
Q 3041 3584 3536 3087 
Q 4031 2591 4031 1759 
z
M 2881 2131 
Q 2881 2450 2695 2645 
Q 2509 2841 2209 2841 
Q 1884 2841 1681 2658 
Q 1478 2475 1428 2131 
L 2881 2131 
z
" transform="scale(0.015625)"/>
       <path id="DejaVuSans-Bold-64" d="M 2919 2988 
L 2919 4863 
L 4044 4863 
L 4044 0 
L 2919 0 
L 2919 506 
Q 2688 197 2409 53 
Q 2131 -91 1766 -91 
Q 1119 -91 703 423 
Q 288 938 288 1747 
Q 288 2556 703 3070 
Q 1119 3584 1766 3584 
Q 2128 3584 2408 3439 
Q 2688 3294 2919 2988 
z
M 2181 722 
Q 2541 722 2730 984 
Q 2919 1247 2919 1747 
Q 2919 2247 2730 2509 
Q 2541 2772 2181 2772 
Q 1825 2772 1636 2509 
Q 1447 2247 1447 1747 
Q 1447 1247 1636 984 
Q 1825 722 2181 722 
z
" transform="scale(0.015625)"/>
       <path id="DejaVuSans-Bold-20" transform="scale(0.015625)"/>
       <path id="DejaVuSans-Bold-58" d="M 3188 2381 
L 4806 0 
L 3553 0 
L 2463 1594 
L 1381 0 
L 122 0 
L 1741 2381 
L 184 4666 
L 1441 4666 
L 2463 3163 
L 3481 4666 
L 4744 4666 
L 3188 2381 
z
" transform="scale(0.015625)"/>
       <path id="DejaVuSans-Bold-70" d="M 1656 506 
L 1656 -1331 
L 538 -1331 
L 538 3500 
L 1656 3500 
L 1656 2988 
Q 1888 3294 2169 3439 
Q 2450 3584 2816 3584 
Q 3463 3584 3878 3070 
Q 4294 2556 4294 1747 
Q 4294 938 3878 423 
Q 3463 -91 2816 -91 
Q 2450 -91 2169 54 
Q 1888 200 1656 506 
z
M 2400 2772 
Q 2041 2772 1848 2508 
Q 1656 2244 1656 1747 
Q 1656 1250 1848 986 
Q 2041 722 2400 722 
Q 2759 722 2948 984 
Q 3138 1247 3138 1747 
Q 3138 2247 2948 2509 
Q 2759 2772 2400 2772 
z
" transform="scale(0.015625)"/>
       <path id="DejaVuSans-Bold-74" d="M 1759 4494 
L 1759 3500 
L 2913 3500 
L 2913 2700 
L 1759 2700 
L 1759 1216 
Q 1759 972 1856 886 
Q 1953 800 2241 800 
L 2816 800 
L 2816 0 
L 1856 0 
Q 1194 0 917 276 
Q 641 553 641 1216 
L 641 2700 
L 84 2700 
L 84 3500 
L 641 3500 
L 641 4494 
L 1759 4494 
z
" transform="scale(0.015625)"/>
       <path id="DejaVuSans-Bold-6e" d="M 4056 2131 
L 4056 0 
L 2931 0 
L 2931 347 
L 2931 1631 
Q 2931 2084 2911 2256 
Q 2891 2428 2841 2509 
Q 2775 2619 2662 2680 
Q 2550 2741 2406 2741 
Q 2056 2741 1856 2470 
Q 1656 2200 1656 1722 
L 1656 0 
L 538 0 
L 538 3500 
L 1656 3500 
L 1656 2988 
Q 1909 3294 2193 3439 
Q 2478 3584 2822 3584 
Q 3428 3584 3742 3212 
Q 4056 2841 4056 2131 
z
" transform="scale(0.015625)"/>
      </defs>
      <use xlink:href="#DejaVuSans-Bold-4e"/>
      <use xlink:href="#DejaVuSans-Bold-6f" x="83.691406"/>
      <use xlink:href="#DejaVuSans-Bold-72" x="152.392578"/>
      <use xlink:href="#DejaVuSans-Bold-6d" x="201.708984"/>
      <use xlink:href="#DejaVuSans-Bold-61" x="305.908203"/>
      <use xlink:href="#DejaVuSans-Bold-6c" x="373.388672"/>
      <use xlink:href="#DejaVuSans-Bold-69" x="407.666016"/>
      <use xlink:href="#DejaVuSans-Bold-73" x="441.943359"/>
      <use xlink:href="#DejaVuSans-Bold-65" x="501.464844"/>
      <use xlink:href="#DejaVuSans-Bold-64" x="569.287109"/>
      <use xlink:href="#DejaVuSans-Bold-20" x="640.869141"/>
      <use xlink:href="#DejaVuSans-Bold-58" x="675.683594"/>
      <use xlink:href="#DejaVuSans-Bold-20" x="752.783203"/>
      <use xlink:href="#DejaVuSans-Bold-70" x="787.597656"/>
      <use xlink:href="#DejaVuSans-Bold-6f" x="859.179688"/>
      <use xlink:href="#DejaVuSans-Bold-73" x="927.880859"/>
      <use xlink:href="#DejaVuSans-Bold-69" x="987.402344"/>
      <use xlink:href="#DejaVuSans-Bold-74" x="1021.679688"/>
      <use xlink:href="#DejaVuSans-Bold-69" x="1069.482422"/>
      <use xlink:href="#DejaVuSans-Bold-6f" x="1103.759766"/>
      <use xlink:href="#DejaVuSans-Bold-6e" x="1172.460938"/>
     </g>
    </g>
   </g>
   <g id="matplotlib.axis_2">
    <g id="ytick_1">
     <g id="line2d_3">
      <defs>
       <path id="m3be4c4b89a" d="M 0 0 
L -3.5 0 
" style="stroke: #000000; stroke-width: 0.8"/>
      </defs>
      <g>
       <use xlink:href="#m3be4c4b89a" x="57.6" y="296.668098" style="stroke: #000000; stroke-width: 0.8"/>
      </g>
     </g>
     <g id="text_4">
      <!-- 0 -->
      <g transform="translate(37.875 304.266535)scale(0.2 -0.2)">
       <use xlink:href="#DejaVuSans-30"/>
      </g>
     </g>
    </g>
    <g id="ytick_2">
     <g id="line2d_4">
      <g>
       <use xlink:href="#m3be4c4b89a" x="57.6" y="53.568" style="stroke: #000000; stroke-width: 0.8"/>
      </g>
     </g>
     <g id="text_5">
      <!-- 1 -->
      <g transform="translate(37.875 61.166437)scale(0.2 -0.2)">
       <use xlink:href="#DejaVuSans-31"/>
      </g>
     </g>
    </g>
    <g id="text_6">
     <!-- Normalised Y position -->
     <g transform="translate(29.715625 298.423313)rotate(-90)scale(0.2 -0.2)">
      <defs>
       <path id="DejaVuSans-Bold-59" d="M -63 4666 
L 1253 4666 
L 2316 3003 
L 3378 4666 
L 4697 4666 
L 2919 1966 
L 2919 0 
L 1716 0 
L 1716 1966 
L -63 4666 
z
" transform="scale(0.015625)"/>
      </defs>
      <use xlink:href="#DejaVuSans-Bold-4e"/>
      <use xlink:href="#DejaVuSans-Bold-6f" x="83.691406"/>
      <use xlink:href="#DejaVuSans-Bold-72" x="152.392578"/>
      <use xlink:href="#DejaVuSans-Bold-6d" x="201.708984"/>
      <use xlink:href="#DejaVuSans-Bold-61" x="305.908203"/>
      <use xlink:href="#DejaVuSans-Bold-6c" x="373.388672"/>
      <use xlink:href="#DejaVuSans-Bold-69" x="407.666016"/>
      <use xlink:href="#DejaVuSans-Bold-73" x="441.943359"/>
      <use xlink:href="#DejaVuSans-Bold-65" x="501.464844"/>
      <use xlink:href="#DejaVuSans-Bold-64" x="569.287109"/>
      <use xlink:href="#DejaVuSans-Bold-20" x="640.869141"/>
      <use xlink:href="#DejaVuSans-Bold-59" x="675.683594"/>
      <use xlink:href="#DejaVuSans-Bold-20" x="748.095703"/>
      <use xlink:href="#DejaVuSans-Bold-70" x="782.910156"/>
      <use xlink:href="#DejaVuSans-Bold-6f" x="854.492188"/>
      <use xlink:href="#DejaVuSans-Bold-73" x="923.193359"/>
      <use xlink:href="#DejaVuSans-Bold-69" x="982.714844"/>
      <use xlink:href="#DejaVuSans-Bold-74" x="1016.992188"/>
      <use xlink:href="#DejaVuSans-Bold-69" x="1064.794922"/>
      <use xlink:href="#DejaVuSans-Bold-6f" x="1099.072266"/>
      <use xlink:href="#DejaVuSans-Bold-6e" x="1167.773438"/>
     </g>
    </g>
   </g>
   <g id="line2d_5">
    <path d="M 165.077742 220.669815 
L 165.248612 219.253698 
L 165.077742 218.545639 
L 164.394258 217.601561 
L 164.052517 216.421463 
L 164.223388 215.949424 
L 164.223388 215.241366 
L 165.077742 214.769327 
L 169.00777 214.769327 
L 173.621282 215.241366 
L 174.817378 215.241366 
L 176.013474 214.769327 
L 176.867828 214.061268 
L 179.43089 212.173112 
L 181.993952 210.993015 
L 189.85401 206.744663 
L 191.050105 205.564566 
L 192.417072 205.800585 
L 193.954909 206.272624 
L 194.980134 205.800585 
L 197.714067 208.868839 
L 199.422775 210.048937 
L 200.618871 212.409132 
L 200.618871 217.83758 
L 201.131483 220.669815 
L 203.523675 223.266029 
L 205.915866 224.918166 
L 209.333282 226.334283 
L 213.263311 227.278361 
L 221.294239 228.694478 
L 224.711656 228.458459 
L 228.983426 227.51438 
L 232.742584 228.458459 
L 239.064804 226.570302 
L 244.874411 225.626224 
L 251.367502 223.502049 
L 257.347981 222.79399 
L 263.157589 220.669815 
L 269.138067 221.141854 
L 275.802029 220.669815 
L 283.662086 219.961756 
L 290.496919 219.489717 
L 296.306526 218.781659 
L 301.945263 218.30962 
L 308.096612 217.601561 
L 312.197512 215.949424 
L 322.108019 212.881171 
L 326.208919 215.005346 
L 333.214622 212.645151 
L 341.074679 210.756995 
L 348.934737 209.812917 
L 357.136536 207.924761 
L 365.509206 205.800585 
L 373.027522 204.148449 
L 380.716708 202.968351 
L 388.405895 202.260293 
L 395.069856 201.788254 
L 398.487273 202.024273 
L 398.487273 203.44039 
L 398.487273 194.707668 
L 398.316402 193.99961 
L 398.316402 193.055532 
L 397.120306 192.583493 
L 395.582469 191.639415 
L 390.798086 190.223298 
L 388.576766 189.27922 
L 386.013703 188.335141 
L 383.621512 187.155044 
L 381.229321 186.210966 
L 378.153646 185.502907 
L 376.103196 184.558829 
L 370.63533 183.142712 
L 367.217914 182.906693 
L 363.629627 182.906693 
L 359.357856 183.142712 
L 355.086086 183.850771 
L 349.61822 184.558829 
L 344.150354 185.738927 
L 339.365971 186.210966 
L 334.068976 187.627083 
L 324.671081 190.459317 
L 319.886699 192.111454 
L 316.127541 193.99961 
L 311.514029 197.067863 
L 301.945263 201.788254 
L 299.21133 203.67641 
L 297.502622 205.328546 
L 295.964785 206.508644 
L 295.452172 207.452722 
L 295.452172 208.3968 
L 296.477397 209.340878 
L 297.844364 210.048937 
L 300.065684 210.756995 
L 303.31223 211.229034 
L 307.413129 211.465054 
L 309.121837 211.701073 
L 315.102316 212.173112 
L 320.399311 212.173112 
L 322.962373 211.937093 
L 327.917627 211.701073 
L 339.707713 210.756995 
L 345.859062 210.048937 
L 351.326928 209.576898 
L 357.649148 208.63282 
L 368.243139 207.688741 
L 374.052746 206.744663 
L 392.848536 204.384468 
L 398.487273 203.912429 
L 398.487273 203.912429 
L 398.487273 200.844176 
L 398.487273 200.844176 
L 397.97466 200.608156 
L 397.97466 200.608156 
L 394.728115 200.608156 
L 394.728115 200.608156 
L 392.848536 200.372137 
L 392.848536 200.372137 
L 388.576766 200.372137 
L 387.38067 200.136117 
L 387.38067 200.136117 
L 386.013703 200.136117 
L 386.013703 200.136117 
L 384.475866 199.900098 
L 384.475866 199.900098 
L 383.792383 199.664078 
L 382.254545 199.428059 
L 380.887579 198.95602 
L 380.887579 198.95602 
L 379.862354 198.72 
L 377.470163 198.011941 
L 375.077971 197.067863 
L 373.369263 195.887766 
L 372.68578 194.707668 
L 372.173167 193.291551 
L 371.831426 190.931356 
L 372.344038 186.210966 
L 372.856651 184.32281 
L 374.565359 181.962615 
L 375.932325 180.546498 
L 376.444938 179.60242 
L 377.128421 179.3664 
L 377.128421 179.3664 
L 377.470163 179.3664 
L 377.641033 179.60242 
L 378.324517 179.60242 
L 378.495388 179.838439 
L 379.520612 179.60242 
L 380.545837 178.894361 
L 381.400191 178.894361 
L 383.450641 177.950283 
L 386.184574 176.298146 
L 387.209799 175.118049 
L 386.868057 174.40999 
L 385.842833 172.993873 
L 384.646737 172.521834 
L 382.767158 171.105717 
L 380.545837 169.92562 
L 378.666258 168.745522 
L 376.615809 168.273483 
L 373.027522 167.565424 
L 366.876172 165.913288 
L 359.016115 165.205229 
L 353.71912 164.261151 
L 350.814316 162.845034 
L 345.688191 161.664937 
L 336.97378 157.416585 
L 334.752459 154.584351 
L 334.239847 149.627941 
L 333.385493 145.851629 
L 331.335043 143.491434 
L 330.993301 140.6592 
L 330.993301 138.299005 
L 329.455464 133.814634 
L 327.405014 129.802302 
L 323.474986 127.914146 
L 321.766278 126.26201 
L 317.665378 122.721717 
L 315.102316 121.06958 
L 311.6849 118.473366 
L 308.096612 115.405112 
L 303.995713 113.044917 
L 301.090909 109.976663 
L 297.844364 109.032585 
L 296.306526 107.852488 
L 295.281301 106.67239 
L 294.597818 106.436371 
L 294.597818 106.436371 
L 293.743464 106.436371 
L 290.667789 106.90841 
L 284.51644 109.268605 
L 282.807732 109.740644 
L 276.827254 112.572878 
L 271.188517 116.58521 
L 268.796325 118.001327 
L 264.695426 121.06958 
L 256.151885 127.206088 
L 244.53267 135.93881 
L 226.249493 148.447844 
L 219.243789 152.696195 
L 199.764517 161.900956 
L 194.980134 163.789112 
L 190.537493 165.205229 
L 186.607464 165.441249 
L 184.898756 165.205229 
L 183.360919 163.789112 
L 183.360919 162.372995 
L 181.139598 160.720859 
L 179.772632 158.360663 
L 179.260019 157.180566 
L 178.747407 154.584351 
L 179.260019 151.044059 
L 179.943502 148.683863 
L 179.943502 147.031727 
L 180.968727 144.199493 
L 181.139598 142.311337 
L 180.968727 140.89522 
L 181.48134 139.243083 
L 181.310469 138.299005 
L 180.456115 137.826966 
L 183.190048 133.578615 
L 185.411368 131.21842 
L 187.974431 127.206088 
L 189.512268 125.317932 
L 191.904459 122.013659 
L 197.372325 116.113171 
L 200.618871 112.808898 
L 205.744995 108.088507 
L 216.851598 98.647727 
L 221.806852 94.871415 
L 228.641684 88.970927 
L 249.146182 72.449561 
L 254.443177 68.437229 
L 262.303234 63.48082 
L 268.283713 60.176546 
L 275.631158 56.872273 
L 283.662086 54.748098 
L 292.034756 53.568 
L 398.487273 53.568 
L 396.949435 53.568 
L 386.355445 56.872273 
L 354.573474 68.909268 
L 327.234144 78.114029 
L 316.469282 82.36238 
L 304.166584 87.082771 
L 300.578297 86.610732 
L 299.040459 86.610732 
L 300.236555 85.666654 
L 303.31223 84.014517 
L 304.337455 84.014517 
L 302.799617 86.610732 
L 298.698718 91.567141 
L 292.88911 97.23161 
L 280.24467 106.436371 
L 260.936268 116.34919 
L 246.58312 124.137834 
L 232.742584 132.634537 
L 210.358507 144.907551 
L 192.246201 152.696195 
L 170.203866 161.664937 
L 139.959732 173.701932 
L 130.903579 179.3664 
L 126.97355 184.794849 
L 127.486163 189.751259 
L 130.220096 193.527571 
L 133.979254 196.359805 
L 139.105378 197.539902 
L 143.548019 198.72 
L 147.99066 202.260293 
L 149.186756 206.508644 
L 148.845014 210.520976 
L 147.136306 213.825249 
L 147.819789 215.005346 
L 149.015885 214.769327 
L 152.433301 214.533307 
L 153.629397 212.645151 
L 152.945914 211.937093 
L 151.408077 211.465054 
L 148.503273 211.229034 
L 144.402373 211.465054 
L 139.61799 208.868839 
L 138.421895 205.092527 
L 140.301474 202.024273 
L 144.914986 196.359805 
L 148.161531 193.527571 
L 149.015885 190.459317 
L 148.503273 187.155044 
L 143.889761 184.08679 
L 141.497569 183.142712 
L 141.497569 182.434654 
L 141.839311 181.254556 
L 143.71889 179.3664 
L 148.161531 177.714263 
L 149.870239 176.770185 
L 150.211981 177.242224 
L 150.211981 178.422322 
L 147.478048 181.018537 
L 145.940211 184.32281 
L 144.231502 186.446985 
L 142.864536 188.571161 
L 140.301474 194.471649 
L 140.130603 195.415727 
L 139.61799 196.123785 
L 138.934507 197.303883 
L 137.909282 198.48398 
L 137.738411 199.428059 
L 138.251024 203.44039 
L 138.080153 204.384468 
L 137.567541 205.800585 
L 138.251024 206.272624 
L 137.567541 206.980683 
L 136.884057 207.924761 
L 134.833608 208.63282 
L 133.979254 208.63282 
L 136.029703 208.63282 
L 136.542316 208.868839 
L 137.39667 209.104859 
L 138.592766 209.104859 
L 138.592766 209.576898 
L 138.251024 209.576898 
L 137.567541 209.812917 
L 137.225799 209.812917 
L 136.884057 210.048937 
L 137.39667 209.576898 
L 137.39667 140.89522 
L 137.39667 140.89522 
L 137.225799 141.131239 
L 137.225799 141.367259 
L 137.054928 141.603278 
L 137.054928 141.839298 
L 137.738411 141.839298 
L 138.080153 141.603278 
L 138.934507 141.367259 
L 139.959732 140.89522 
L 140.984957 139.479102 
L 141.326699 138.535024 
L 141.155828 137.590946 
L 140.301474 135.70279 
L 140.814086 134.758712 
L 140.643215 134.050654 
L 140.984957 133.578615 
L 142.010182 133.342595 
L 142.864536 133.342595 
L 144.060632 133.814634 
L 145.085856 134.522693 
L 150.211981 137.590946 
L 153.971139 139.951141 
L 162.343809 145.851629 
L 168.153416 149.155902 
L 179.260019 155.29241 
L 184.727885 158.596683 
L 200.960612 167.093385 
L 205.744995 168.981541 
L 210.187636 170.397659 
L 213.263311 171.577756 
L 217.19334 172.521834 
L 218.902048 174.40999 
L 218.731177 173.937951 
L 217.19334 174.40999 
L 215.826373 174.40999 
L 214.288536 173.937951 
L 214.117665 174.40999 
L 215.484632 174.64601 
L 217.022469 175.590088 
L 218.389435 177.478244 
L 219.243789 177.714263 
L 221.294239 178.422322 
L 223.51556 179.838439 
L 225.56601 181.726595 
L 228.299943 185.738927 
L 229.154297 186.446985 
L 230.692134 190.223298 
L 233.084325 194.943688 
L 233.596938 198.011941 
L 234.793033 203.67641 
L 237.185225 207.452722 
L 239.748287 211.937093 
L 242.311349 218.0736 
L 246.412249 222.085932 
L 247.608344 223.03001 
L 254.784919 229.638556 
L 255.639273 231.526712 
L 258.031464 233.650888 
L 260.765397 235.067005 
L 260.765397 235.067005 
" clip-path="url(#p9ac6b72eea)" style="fill: none; stroke: #000000; stroke-width: 1.5; stroke-linecap: square"/>
   </g>
   <g id="line2d_6">
    <path d="M 165.077742 220.669815 
" clip-path="url(#p9ac6b72eea)" style="fill: none; stroke: #000000; stroke-width: 1.5; stroke-linecap: square"/>
    <defs>
     <path id="m73163dc3be" d="M 0 5 
C 1.326016 5 2.597899 4.473168 3.535534 3.535534 
C 4.473168 2.597899 5 1.326016 5 0 
C 5 -1.326016 4.473168 -2.597899 3.535534 -3.535534 
C 2.597899 -4.473168 1.326016 -5 0 -5 
C -1.326016 -5 -2.597899 -4.473168 -3.535534 -3.535534 
C -4.473168 -2.597899 -5 -1.326016 -5 0 
C -5 1.326016 -4.473168 2.597899 -3.535534 3.535534 
C -2.597899 4.473168 -1.326016 5 0 5 
z
" style="stroke: #000000"/>
    </defs>
    <g clip-path="url(#p9ac6b72eea)">
     <use xlink:href="#m73163dc3be" x="165.077742" y="220.669815" style="stroke: #000000"/>
    </g>
   </g>
   <g id="line2d_7">
    <path d="M 260.765397 235.067005 
" clip-path="url(#p9ac6b72eea)" style="fill: none; stroke: #000000; stroke-width: 1.5; stroke-linecap: square"/>
    <defs>
     <path id="m59eeb2aea1" d="M -5 5 
L 5 5 
L 5 -5 
L -5 -5 
z
" style="stroke: #000000; stroke-linejoin: miter"/>
    </defs>
    <g clip-path="url(#p9ac6b72eea)">
     <use xlink:href="#m59eeb2aea1" x="260.765397" y="235.067005" style="stroke: #000000; stroke-linejoin: miter"/>
    </g>
   </g>
   <g id="line2d_8">
    <path d="M 156.534201 206.036605 
L 156.192459 206.508644 
L 155.679847 206.980683 
L 155.679847 207.452722 
L 155.508976 207.688741 
L 155.508976 207.924761 
L 155.508976 207.924761 
L 156.36333 207.688741 
L 156.021589 207.688741 
L 157.046813 207.216702 
L 157.217684 206.744663 
L 157.901167 206.508644 
L 158.755522 206.036605 
L 159.780746 205.328546 
L 160.805971 204.384468 
L 164.906871 199.428059 
L 165.932096 197.303883 
L 166.102967 195.651746 
L 164.906871 193.76359 
L 162.002067 190.223298 
L 162.002067 189.27922 
L 162.68555 187.863102 
L 164.223388 187.391063 
L 166.78645 187.627083 
L 169.178641 188.335141 
L 170.887349 189.27922 
L 171.912574 190.223298 
L 171.570833 192.111454 
L 171.229091 193.291551 
L 170.032995 193.527571 
L 168.8369 194.471649 
L 167.299062 195.179707 
L 167.299062 195.887766 
L 166.615579 196.831844 
L 166.615579 197.539902 
L 167.128191 198.72 
L 168.153416 199.900098 
L 168.153416 202.496312 
L 168.495158 203.912429 
L 169.178641 205.328546 
L 169.178641 206.980683 
L 169.349512 208.3968 
L 168.8369 210.993015 
L 169.862124 212.881171 
L 170.716478 213.35321 
L 172.425187 213.35321 
L 174.475636 213.589229 
L 176.867828 213.11719 
L 179.43089 212.881171 
L 183.360919 210.993015 
L 186.778335 210.520976 
L 191.050105 208.868839 
L 194.467522 208.3968 
L 199.764517 206.508644 
L 204.890641 204.384468 
L 213.605053 202.260293 
L 223.857301 198.72 
L 231.204746 196.595824 
L 233.938679 195.887766 
L 235.818258 195.179707 
L 237.356096 193.527571 
L 238.552191 193.055532 
L 240.090029 191.403395 
L 242.311349 190.459317 
L 247.779215 186.683005 
L 250.513148 185.266888 
L 253.076211 183.614751 
L 255.981014 181.962615 
L 259.056689 180.546498 
L 261.961493 178.658341 
L 265.378909 177.242224 
L 269.138067 176.062127 
L 284.858182 171.813776 
L 287.250373 171.341737 
L 291.009531 168.509502 
L 294.085206 164.73319 
L 299.382201 161.192898 
L 300.578297 160.720859 
L 301.26178 160.24882 
L 301.945263 160.0128 
L 302.116134 159.304741 
L 302.457876 158.832702 
L 303.653971 158.360663 
L 304.337455 158.124644 
L 304.679196 158.124644 
L 304.508325 158.124644 
L 302.970488 158.596683 
L 302.116134 159.068722 
L 301.774392 159.77678 
L 300.920038 160.720859 
L 298.186105 162.845034 
L 295.281301 164.73319 
L 293.572593 165.441249 
L 291.180402 166.621346 
L 289.813435 167.093385 
L 288.788211 167.329405 
L 288.275598 167.093385 
L 287.421244 166.857366 
L 286.737761 166.857366 
L 286.737761 166.385327 
L 288.275598 164.261151 
L 289.300823 163.789112 
L 290.83866 162.136976 
L 291.009531 161.664937 
L 291.522144 161.428917 
L 290.83866 161.192898 
L 289.813435 161.192898 
L 289.642565 161.428917 
L 289.129952 161.664937 
L 289.129952 162.136976 
L 289.813435 162.372995 
L 290.155177 162.609015 
L 290.83866 162.845034 
L 292.376498 162.845034 
L 293.572593 162.609015 
L 294.597818 162.609015 
L 301.432651 160.484839 
L 302.287005 160.0128 
L 307.584 158.596683 
L 311.514029 157.180566 
L 313.564478 156.708527 
L 315.614928 156.000468 
L 319.203215 155.05639 
L 321.253665 154.348332 
L 322.27889 153.876293 
L 325.525435 152.696195 
L 325.183694 152.224156 
L 326.892402 151.280078 
L 326.55066 150.808039 
L 324.671081 150.09998 
L 323.474986 149.863961 
L 319.032344 149.863961 
L 317.323636 150.09998 
L 315.273187 150.57202 
L 312.880995 150.808039 
L 310.659675 151.280078 
L 305.362679 152.932215 
L 302.970488 153.404254 
L 296.477397 155.05639 
L 286.225148 157.180566 
L 279.902928 158.124644 
L 276.998124 158.360663 
L 273.751579 159.068722 
L 267.429359 160.0128 
L 260.765397 161.428917 
L 257.689722 162.136976 
L 254.101435 163.317073 
L 251.025761 164.025132 
L 248.120957 164.96921 
L 240.43177 166.857366 
L 237.356096 166.857366 
L 236.843483 166.385327 
L 236.843483 165.677268 
L 237.185225 164.96921 
L 238.21045 163.789112 
L 239.577416 162.609015 
L 241.969608 161.428917 
L 243.678316 160.24882 
L 246.58312 158.832702 
L 248.633569 157.652605 
L 257.17711 153.876293 
L 259.911043 152.460176 
L 263.49933 150.808039 
L 267.60023 148.683863 
L 271.701129 147.031727 
L 287.592115 141.367259 
L 311.6849 133.814634 
L 315.95667 132.162498 
L 320.399311 130.9824 
L 329.968077 127.678127 
L 338.853359 125.317932 
L 342.099904 125.081912 
L 344.150354 125.081912 
L 345.175579 124.845893 
L 344.321225 125.553951 
L 342.270775 126.734049 
L 340.220325 128.150166 
L 338.853359 129.566283 
L 336.802909 130.74638 
L 334.752459 132.162498 
L 331.676785 133.578615 
L 326.892402 135.230751 
L 322.962373 136.174829 
L 319.203215 136.882888 
L 312.539254 136.882888 
L 309.463579 135.93881 
L 304.508325 133.578615 
L 302.628746 132.398517 
L 301.945263 130.9824 
L 300.920038 129.802302 
L 299.553072 129.094244 
L 298.356976 128.622205 
L 296.477397 128.150166 
L 294.256077 127.914146 
L 291.693014 127.914146 
L 287.592115 127.206088 
L 285.370794 126.970068 
L 283.832957 126.498029 
L 282.29512 125.789971 
L 281.782507 124.373854 
L 282.124249 122.957737 
L 283.149474 120.833561 
L 285.199923 118.709385 
L 287.762986 116.58521 
L 291.351273 113.988995 
L 294.426947 111.156761 
L 299.894813 108.560546 
L 305.191809 105.492293 
L 310.147062 102.896078 
L 315.614928 100.535883 
L 321.766278 98.411707 
L 328.088498 96.759571 
L 348.422124 91.803161 
L 356.623923 90.387044 
L 364.825722 88.498888 
L 373.027522 86.374712 
L 381.912804 84.722576 
L 389.943732 83.070439 
L 398.487273 80.946263 
L 398.487273 74.101698 
L 398.487273 77.169951 
L 396.607694 79.530146 
L 395.582469 81.654322 
L 391.823311 84.486556 
L 386.868057 88.026849 
L 380.716708 91.331122 
L 373.540134 95.343454 
L 360.04134 104.548215 
L 338.511617 119.417444 
L 330.822431 124.373854 
L 323.474986 129.802302 
L 316.127541 135.466771 
L 301.432651 146.323668 
L 294.426947 151.280078 
L 279.902928 162.136976 
L 266.062392 172.993873 
L 260.081914 177.714263 
L 254.955789 182.434654 
L 247.095732 191.167376 
L 242.311349 195.415727 
L 239.406545 199.900098 
L 236.501742 206.980683 
L 233.255196 213.11719 
L 231.204746 215.949424 
L 230.692134 218.545639 
L 229.325167 221.141854 
L 227.103847 227.51438 
L 228.470813 227.278361 
L 230.863005 225.862244 
L 233.938679 223.738068 
L 237.526967 220.905834 
L 245.899636 213.589229 
L 250.342278 209.576898 
L 254.614048 205.328546 
L 259.056689 200.608156 
L 262.986718 196.123785 
L 267.087617 191.639415 
L 270.846775 186.919024 
L 275.289416 182.434654 
L 279.390316 177.950283 
L 284.345569 172.757854 
L 289.300823 167.329405 
L 295.281301 161.664937 
L 300.920038 156.000468 
L 307.242258 150.336 
L 313.393608 145.143571 
L 316.811024 142.547356 
L 326.55066 135.93881 
L 332.360268 132.398517 
L 340.732938 127.914146 
L 341.929033 127.206088 
L 344.150354 124.845893 
L 344.150354 124.373854 
L 343.296 123.665795 
L 341.929033 123.193756 
L 337.657263 122.957737 
L 329.968077 122.957737 
L 328.430239 122.721717 
L 325.183694 122.721717 
L 319.374086 122.957737 
L 310.317933 122.957737 
L 305.362679 123.901815 
L 300.578297 124.373854 
L 295.452172 125.553951 
L 290.667789 125.553951 
L 285.199923 126.498029 
L 278.877703 128.386185 
L 273.238967 130.274341 
L 267.60023 131.690459 
L 262.303234 133.578615 
L 251.367502 136.882888 
L 245.899636 138.535024 
L 241.115254 139.479102 
L 235.818258 140.6592 
L 231.033876 142.311337 
L 217.876823 148.211824 
L 209.504153 152.932215 
L 205.403254 155.764449 
L 198.055809 161.192898 
L 189.85401 169.45358 
L 187.80356 171.577756 
L 182.335694 176.298146 
L 178.576536 179.838439 
L 176.013474 181.490576 
L 171.741703 185.502907 
L 169.520383 187.155044 
L 166.102967 190.931356 
L 165.077742 192.819512 
L 162.002067 196.123785 
L 160.6351 197.539902 
L 159.268134 199.192039 
L 155.679847 202.968351 
L 155.167234 203.912429 
L 154.31288 204.384468 
L 153.116785 204.384468 
L 151.066335 204.856507 
L 149.699368 205.328546 
L 149.699368 205.800585 
L 148.503273 206.036605 
L 146.794565 206.508644 
L 142.693665 206.508644 
L 140.984957 206.272624 
L 139.788861 205.564566 
L 138.934507 205.328546 
L 137.738411 203.67641 
L 137.39667 202.732332 
L 137.054928 200.608156 
L 137.054928 198.95602 
L 137.567541 197.775922 
L 137.909282 194.707668 
L 139.276249 189.515239 
L 139.959732 187.627083 
L 140.814086 186.210966 
L 140.643215 184.794849 
L 141.326699 182.434654 
L 141.326699 180.546498 
L 140.814086 179.60242 
L 141.497569 178.422322 
L 142.181053 178.186302 
L 142.522794 177.478244 
L 144.231502 176.298146 
L 145.256727 175.826107 
L 145.940211 175.354068 
L 146.623694 174.173971 
L 147.136306 173.937951 
L 151.066335 171.577756 
L 152.775043 169.6896 
L 158.584651 165.677268 
L 161.318584 164.73319 
L 165.248612 164.025132 
L 167.299062 164.025132 
L 170.203866 165.677268 
L 171.229091 166.385327 
L 172.766928 167.093385 
L 173.450411 168.037463 
L 174.646507 168.745522 
L 175.32999 169.45358 
L 176.355215 169.92562 
L 176.355215 170.397659 
L 176.184344 170.633678 
L 176.184344 170.633678 
L 176.013474 169.6896 
L 175.32999 169.217561 
L 175.15912 168.273483 
L 175.15912 167.093385 
L 174.646507 167.093385 
L 174.304766 166.857366 
L 173.792153 167.093385 
L 172.766928 168.273483 
L 171.05822 169.6896 
L 167.982545 171.577756 
L 164.052517 173.465912 
L 159.780746 175.354068 
L 151.749818 179.3664 
L 146.111081 182.670673 
L 138.763636 189.751259 
L 131.587062 194.235629 
L 127.827904 201.080195 
L 123.727005 203.912429 
L 119.455234 211.701073 
L 115.012593 222.79399 
L 109.373856 232.942829 
L 103.393378 243.327688 
L 97.58377 253.712546 
L 91.945033 263.153327 
L 81.863656 278.258576 
L 73.832727 287.935376 
L 73.832727 295.488 
L 73.832727 55.928195 
L 73.832727 61.592663 
L 74.34534 62.536741 
L 75.712306 62.772761 
L 77.762756 63.716839 
L 79.984077 64.424898 
L 83.230622 65.604995 
L 84.93933 68.673249 
L 87.502392 70.089366 
L 90.236325 71.741502 
L 93.141129 73.629659 
L 103.222507 77.64199 
L 107.323407 79.058107 
L 116.37956 82.36238 
L 121.334813 84.486556 
L 125.606584 87.55481 
L 130.220096 90.387044 
L 135.517091 94.163356 
L 140.301474 98.411707 
L 146.281952 102.424039 
L 157.388555 110.920741 
L 168.8369 118.945405 
L 174.475636 122.013659 
L 179.260019 124.845893 
L 183.531789 127.914146 
L 186.778335 129.566283 
L 192.246201 133.578615 
L 195.151005 135.93881 
L 199.422775 140.42318 
L 201.814967 143.255415 
L 204.5489 147.503766 
L 206.941091 152.460176 
L 208.137187 157.888624 
L 209.675024 163.081054 
L 211.554603 167.329405 
L 214.459407 171.105717 
L 217.535081 173.701932 
L 225.395139 179.3664 
L 228.983426 181.018537 
L 232.400842 183.378732 
L 235.647388 184.558829 
L 237.356096 185.974946 
L 239.235675 186.210966 
L 240.2609 187.155044 
L 241.286124 186.919024 
L 241.798737 186.683005 
L 242.140478 185.974946 
L 242.823962 185.738927 
L 245.387024 184.32281 
L 246.070507 183.142712 
L 247.437474 182.906693 
L 247.779215 182.670673 
L 247.950086 181.726595 
L 247.950086 181.018537 
L 248.120957 180.546498 
L 248.633569 180.546498 
L 248.633569 180.546498 
" clip-path="url(#p9ac6b72eea)" style="fill: none; stroke: #ffa07a; stroke-width: 1.5; stroke-linecap: square"/>
   </g>
   <g id="line2d_9">
    <path d="M 156.534201 206.036605 
" clip-path="url(#p9ac6b72eea)" style="fill: none; stroke: #ffa07a; stroke-width: 1.5; stroke-linecap: square"/>
    <defs>
     <path id="m9b4e58938a" d="M 0 5 
C 1.326016 5 2.597899 4.473168 3.535534 3.535534 
C 4.473168 2.597899 5 1.326016 5 0 
C 5 -1.326016 4.473168 -2.597899 3.535534 -3.535534 
C 2.597899 -4.473168 1.326016 -5 0 -5 
C -1.326016 -5 -2.597899 -4.473168 -3.535534 -3.535534 
C -4.473168 -2.597899 -5 -1.326016 -5 0 
C -5 1.326016 -4.473168 2.597899 -3.535534 3.535534 
C -2.597899 4.473168 -1.326016 5 0 5 
z
" style="stroke: #ffa07a"/>
    </defs>
    <g clip-path="url(#p9ac6b72eea)">
     <use xlink:href="#m9b4e58938a" x="156.534201" y="206.036605" style="fill: #ffa07a; stroke: #ffa07a"/>
    </g>
   </g>
   <g id="line2d_10">
    <path d="M 248.633569 180.546498 
" clip-path="url(#p9ac6b72eea)" style="fill: none; stroke: #ffa07a; stroke-width: 1.5; stroke-linecap: square"/>
    <defs>
     <path id="m8d51c0fbc7" d="M -5 5 
L 5 5 
L 5 -5 
L -5 -5 
z
" style="stroke: #ffa07a; stroke-linejoin: miter"/>
    </defs>
    <g clip-path="url(#p9ac6b72eea)">
     <use xlink:href="#m8d51c0fbc7" x="248.633569" y="180.546498" style="fill: #ffa07a; stroke: #ffa07a; stroke-linejoin: miter"/>
    </g>
   </g>
   <g id="line2d_11">
    <path d="M 208.991541 260.793132 
L 204.036287 264.569444 
L 199.251904 267.873717 
L 193.442297 270.705951 
L 188.145301 273.066146 
L 182.677435 274.718283 
L 177.38044 274.954302 
L 172.083445 275.89838 
L 168.495158 275.662361 
L 161.660325 275.662361 
L 158.584651 276.1344 
L 157.388555 276.1344 
L 157.388555 276.1344 
L 158.072038 275.89838 
L 159.780746 275.662361 
L 162.172938 275.662361 
L 169.00777 276.1344 
L 173.279541 276.37042 
L 177.38044 277.078478 
L 180.968727 275.662361 
L 187.290947 277.078478 
L 191.391847 276.842459 
L 196.688842 277.078478 
L 200.277129 275.426341 
L 206.086737 273.774205 
L 211.04199 270.941971 
L 217.705952 266.22158 
L 223.686431 260.321093 
L 230.521263 253.948566 
L 237.356096 247.34002 
L 244.874411 239.787395 
L 252.221856 231.998751 
L 259.22756 224.210107 
L 272.384612 208.63282 
L 282.978603 194.943688 
L 291.351273 178.894361 
L 294.426947 171.577756 
L 296.819139 164.96921 
L 298.015234 158.596683 
L 298.869589 150.808039 
L 298.527847 148.447844 
L 298.186105 147.503766 
L 297.331751 146.323668 
L 296.648268 144.671532 
L 296.477397 142.783376 
L 296.477397 140.42318 
L 298.869589 136.882888 
L 299.723943 134.758712 
L 298.527847 134.522693 
L 292.547368 136.882888 
L 291.693014 137.354927 
L 289.984306 137.826966 
L 289.642565 138.062985 
L 288.959081 138.062985 
L 288.61734 137.826966 
L 288.275598 137.826966 
L 287.933856 137.590946 
L 288.104727 137.118907 
L 288.61734 136.174829 
L 289.300823 135.230751 
L 290.155177 133.578615 
L 291.693014 132.162498 
L 293.743464 127.206088 
L 296.477397 122.249678 
L 298.698718 119.417444 
L 299.723943 117.293268 
L 300.065684 114.933073 
L 301.26178 112.336859 
L 302.799617 105.256273 
L 303.824842 102.660059 
L 305.362679 100.063844 
L 306.217033 98.175688 
L 307.754871 95.815493 
L 310.488804 92.03918 
L 311.85577 90.387044 
L 313.051866 89.442966 
L 319.203215 83.306459 
L 321.253665 81.654322 
L 323.133244 79.766166 
L 327.746756 75.989854 
L 330.309818 73.629659 
L 333.043751 71.269463 
L 335.606813 69.381307 
L 338.169876 67.257132 
L 342.612517 64.188878 
L 344.321225 63.2448 
L 345.004708 63.48082 
L 345.34645 64.188878 
L 345.004708 65.841015 
L 344.150354 67.96519 
L 341.929033 70.797424 
L 336.290297 77.169951 
L 333.385493 80.002185 
L 330.138947 82.5984 
L 327.063273 84.722576 
L 324.671081 86.138693 
L 323.304115 87.55481 
L 322.449761 89.206946 
L 320.911923 90.623063 
L 319.544957 91.567141 
L 318.690603 91.803161 
L 317.494507 91.331122 
L 315.785799 90.859083 
L 314.931445 89.678985 
L 314.931445 88.026849 
L 315.614928 85.194615 
L 318.00712 78.822088 
L 322.27889 66.077034 
L 324.841952 59.704507 
L 326.208919 55.692176 
L 327.063273 53.568 
L 379.008 53.568 
L 380.204096 53.80402 
L 381.912804 54.984117 
L 382.767158 55.928195 
L 383.963254 60.648585 
L 384.988478 62.300722 
L 385.501091 64.660917 
L 386.184574 66.785093 
L 386.868057 69.381307 
L 386.868057 72.449561 
L 387.038928 75.517815 
L 387.038928 78.822088 
L 387.551541 82.36238 
L 386.697187 86.138693 
L 387.722411 88.026849 
L 387.038928 91.803161 
L 387.551541 95.579473 
L 388.747636 100.771902 
L 390.456344 103.840156 
L 390.798086 106.90841 
L 393.019407 109.504624 
L 395.75334 112.100839 
L 397.120306 114.461034 
L 398.487273 116.113171 
L 398.487273 129.802302 
L 398.316402 131.21842 
L 397.120306 132.870556 
L 395.411598 134.286673 
L 392.335923 135.93881 
L 389.943732 136.882888 
L 387.209799 137.826966 
L 380.374967 140.42318 
L 371.318813 143.491434 
L 366.192689 145.143571 
L 360.383081 147.267746 
L 344.150354 152.224156 
L 339.365971 153.404254 
L 326.379789 156.000468 
L 320.570182 156.472507 
L 317.665378 156.472507 
L 312.368383 157.416585 
L 309.976191 157.652605 
L 308.780096 157.888624 
L 307.925742 157.652605 
L 306.900517 157.652605 
L 304.850067 157.180566 
L 304.850067 156.944546 
L 305.020938 156.708527 
L 305.191809 156.236488 
L 305.704421 155.764449 
L 307.242258 153.876293 
L 308.267483 152.460176 
L 310.830545 149.627941 
L 314.760574 146.323668 
L 319.203215 141.839298 
L 331.164172 130.74638 
L 336.290297 126.26201 
L 338.511617 123.901815 
L 340.732938 121.777639 
L 343.979483 119.181424 
L 349.447349 114.225015 
L 352.523024 111.39278 
L 354.573474 108.796566 
L 356.453053 106.67239 
L 358.674373 104.548215 
L 360.383081 102.660059 
L 362.604402 100.771902 
L 365.338335 97.939668 
L 369.780976 94.163356 
L 370.464459 93.927337 
L 370.293589 94.163356 
L 370.293589 94.163356 
L 370.464459 94.399376 
L 370.293589 94.635395 
L 369.780976 95.107434 
L 369.268364 95.107434 
L 369.097493 95.343454 
L 368.072268 95.815493 
L 367.217914 95.815493 
L 366.705301 95.579473 
L 364.142239 95.343454 
L 361.408306 94.635395 
L 360.553952 94.399376 
L 358.503502 93.455298 
L 354.231732 90.387044 
L 353.206507 89.206946 
L 352.523024 88.026849 
L 352.010411 86.846751 
L 352.010411 85.666654 
L 352.693895 84.250537 
L 353.377378 83.306459 
L 354.231732 82.36238 
L 356.282182 80.946263 
L 357.478278 80.474224 
L 360.895694 80.474224 
L 362.26266 80.946263 
L 363.458756 81.182283 
L 364.483981 81.654322 
L 365.167464 82.36238 
L 365.680077 83.070439 
L 366.534431 84.014517 
L 367.217914 84.958595 
L 368.072268 85.902673 
L 369.780976 88.262868 
L 370.464459 89.678985 
L 370.63533 91.095102 
L 371.660555 92.51122 
L 374.052746 95.343454 
L 374.052746 96.759571 
L 374.394488 98.175688 
L 374.052746 99.591805 
L 372.856651 100.535883 
L 371.318813 101.479961 
L 369.610105 102.18802 
L 367.901397 102.660059 
L 365.680077 103.132098 
L 363.629627 103.368117 
L 361.750048 103.368117 
L 360.383081 103.132098 
L 358.674373 102.660059 
L 356.282182 100.771902 
L 355.256957 97.703649 
L 355.086086 95.815493 
L 355.256957 93.927337 
L 355.769569 92.03918 
L 356.965665 89.678985 
L 357.649148 87.55481 
L 358.845244 85.430634 
L 360.04134 83.542478 
L 361.579177 81.654322 
L 366.021818 78.114029 
L 372.856651 73.865678 
L 375.077971 72.9216 
L 379.178871 71.505483 
L 381.229321 71.269463 
L 383.27977 71.269463 
L 384.988478 71.505483 
L 387.551541 72.449561 
L 391.139828 73.393639 
L 392.677665 73.865678 
L 393.70289 74.573737 
L 395.069856 75.045776 
L 397.97466 76.225873 
L 398.487273 76.933932 
L 398.487273 79.766166 
L 398.145531 81.418302 
L 393.361148 86.846751 
L 392.335923 90.623063 
L 389.60199 94.399376 
L 385.842833 98.175688 
L 381.571062 101.71598 
L 378.495388 103.604137 
L 369.268364 108.796566 
L 357.820019 114.461034 
L 320.911923 130.74638 
L 294.256077 143.491434 
L 270.675904 153.640273 
L 260.765397 157.652605 
L 251.880115 161.428917 
L 241.969608 165.205229 
L 233.255196 168.981541 
L 225.224268 172.757854 
L 218.560306 176.534166 
L 207.111962 184.08679 
L 197.714067 191.639415 
L 194.12578 194.943688 
L 191.220976 198.247961 
L 188.487043 201.080195 
L 185.75311 203.67641 
L 182.848306 206.036605 
L 180.114373 207.924761 
L 177.38044 210.048937 
L 171.05822 214.297288 
L 168.8369 215.477385 
L 161.489455 220.433795 
L 160.122488 221.141854 
L 159.439005 220.905834 
L 158.926392 220.905834 
L 157.046813 220.433795 
L 156.36333 220.669815 
L 155.850718 220.669815 
L 154.825493 220.905834 
L 152.945914 221.141854 
L 151.578947 221.141854 
L 150.211981 220.905834 
L 148.161531 220.669815 
L 147.648919 220.433795 
L 145.940211 220.433795 
L 145.427598 218.545639 
L 144.402373 216.657483 
L 142.864536 212.881171 
L 141.839311 211.465054 
L 140.472344 209.812917 
L 137.225799 208.16078 
L 133.1249 206.744663 
L 130.049225 204.856507 
L 124.581359 200.844176 
L 121.505684 198.247961 
L 118.43001 196.123785 
L 114.841722 193.99961 
L 110.911694 191.167376 
L 106.298182 188.571161 
L 100.317703 186.446985 
L 87.673263 182.434654 
L 80.838431 179.838439 
L 74.516211 177.714263 
L 73.832727 175.354068 
L 73.832727 172.049795 
L 73.832727 183.850771 
L 75.028823 188.571161 
L 77.250144 194.235629 
L 81.180172 200.136117 
L 85.793684 206.272624 
L 94.849837 217.83758 
L 103.90599 230.346615 
L 109.715598 236.483122 
L 116.208689 242.619629 
L 123.043522 248.756137 
L 138.080153 260.321093 
L 145.085856 266.929639 
L 153.116785 273.302166 
L 161.831196 280.618771 
L 169.00777 283.687024 
L 176.184344 287.227317 
L 182.677435 290.059551 
L 189.341397 291.947707 
L 195.663617 292.183727 
L 201.985837 291.711688 
L 207.966316 290.059551 
L 213.775923 287.463337 
L 219.756402 284.631102 
L 225.907751 280.618771 
L 231.88823 276.1344 
L 237.185225 271.17799 
L 242.140478 265.985561 
L 246.58312 260.793132 
L 250.342278 254.892644 
L 253.417952 249.700215 
L 257.860593 241.439532 
L 263.328459 229.402537 
L 266.062392 222.085932 
L 266.575005 219.725737 
L 268.967196 215.949424 
L 268.283713 214.533307 
L 268.112842 213.589229 
L 267.429359 213.35321 
L 266.916746 213.589229 
L 266.404134 214.061268 
L 265.54978 215.241366 
L 264.182813 216.893502 
L 262.815847 219.253698 
L 262.815847 219.961756 
L 262.303234 222.085932 
L 260.423656 225.154185 
L 258.714947 228.222439 
L 255.297531 236.483122 
L 253.247081 241.203512 
L 250.513148 246.395941 
L 247.095732 251.82439 
L 242.994833 257.252839 
L 238.381321 262.917307 
L 234.793033 268.581776 
L 231.546488 274.246244 
L 222.148593 288.407415 
L 219.072919 292.655766 
L 215.826373 295.488 
L 164.565129 295.488 
L 161.660325 294.779941 
L 159.097263 293.363824 
L 156.875943 291.239649 
L 156.534201 290.059551 
L 157.046813 288.643434 
L 157.730297 62.300722 
L 159.097263 63.48082 
L 160.293359 65.368976 
L 164.736 68.673249 
L 169.00777 71.269463 
L 170.374737 72.449561 
L 173.621282 73.865678 
L 176.184344 76.697912 
L 179.601761 78.822088 
L 183.019177 81.182283 
L 186.265722 83.778498 
L 189.683139 86.138693 
L 195.151005 89.678985 
L 197.884938 92.747239 
L 199.593646 94.163356 
L 202.49845 97.467629 
L 209.504153 107.852488 
L 211.896344 111.86482 
L 214.117665 116.34919 
L 218.218565 125.789971 
L 220.610756 133.342595 
L 221.806852 138.535024 
L 222.661206 143.491434 
L 223.686431 150.57202 
L 224.028172 155.05639 
L 224.028172 159.068722 
L 223.344689 163.081054 
L 223.173818 166.385327 
L 222.319464 169.45358 
L 221.977722 172.285815 
L 220.781627 173.937951 
L 219.41466 175.354068 
L 218.560306 175.826107 
L 216.851598 177.006205 
L 213.946794 177.950283 
L 212.579828 178.186302 
L 210.187636 178.186302 
L 205.061512 177.714263 
L 200.960612 177.242224 
L 198.055809 176.770185 
L 194.467522 175.590088 
L 190.537493 174.173971 
L 185.411368 173.701932 
L 177.038699 168.981541 
L 172.937799 167.801444 
L 168.324287 166.857366 
L 166.273837 165.441249 
L 163.539904 164.96921 
L 160.6351 165.205229 
L 157.559426 165.205229 
L 147.307177 165.913288 
L 144.060632 166.385327 
L 140.814086 166.621346 
L 138.592766 167.565424 
L 136.029703 168.981541 
L 133.979254 169.92562 
L 131.928804 170.397659 
L 130.049225 178.894361 
L 124.75223 175.590088 
L 123.043522 174.173971 
L 123.043522 174.173971 
" clip-path="url(#p9ac6b72eea)" style="fill: none; stroke: #0000ff; stroke-width: 1.5; stroke-linecap: square"/>
   </g>
   <g id="line2d_12">
    <path d="M 208.991541 260.793132 
" clip-path="url(#p9ac6b72eea)" style="fill: none; stroke: #0000ff; stroke-width: 1.5; stroke-linecap: square"/>
    <defs>
     <path id="m7354e709b4" d="M 0 5 
C 1.326016 5 2.597899 4.473168 3.535534 3.535534 
C 4.473168 2.597899 5 1.326016 5 0 
C 5 -1.326016 4.473168 -2.597899 3.535534 -3.535534 
C 2.597899 -4.473168 1.326016 -5 0 -5 
C -1.326016 -5 -2.597899 -4.473168 -3.535534 -3.535534 
C -4.473168 -2.597899 -5 -1.326016 -5 0 
C -5 1.326016 -4.473168 2.597899 -3.535534 3.535534 
C -2.597899 4.473168 -1.326016 5 0 5 
z
" style="stroke: #0000ff"/>
    </defs>
    <g clip-path="url(#p9ac6b72eea)">
     <use xlink:href="#m7354e709b4" x="208.991541" y="260.793132" style="fill: #0000ff; stroke: #0000ff"/>
    </g>
   </g>
   <g id="line2d_13">
    <path d="M 123.043522 174.173971 
" clip-path="url(#p9ac6b72eea)" style="fill: none; stroke: #0000ff; stroke-width: 1.5; stroke-linecap: square"/>
    <defs>
     <path id="m05b3f4d090" d="M -5 5 
L 5 5 
L 5 -5 
L -5 -5 
z
" style="stroke: #0000ff; stroke-linejoin: miter"/>
    </defs>
    <g clip-path="url(#p9ac6b72eea)">
     <use xlink:href="#m05b3f4d090" x="123.043522" y="174.173971" style="fill: #0000ff; stroke: #0000ff; stroke-linejoin: miter"/>
    </g>
   </g>
   <g id="line2d_14">
    <path d="M 354.113022 119.738661 
" clip-path="url(#p9ac6b72eea)" style="fill: none; stroke: #ff0000; stroke-width: 1.5; stroke-linecap: square"/>
    <defs>
     <path id="m749ff9f7ae" d="M -2.5 5 
L 0 2.5 
L 2.5 5 
L 5 2.5 
L 2.5 0 
L 5 -2.5 
L 2.5 -5 
L 0 -2.5 
L -2.5 -5 
L -5 -2.5 
L -2.5 0 
L -5 2.5 
z
" style="stroke: #ff0000; stroke-linejoin: miter"/>
    </defs>
    <g clip-path="url(#p9ac6b72eea)">
     <use xlink:href="#m749ff9f7ae" x="354.113022" y="119.738661" style="fill: #ff0000; stroke: #ff0000; stroke-linejoin: miter"/>
    </g>
   </g>
   <g id="line2d_15">
    <path d="M 267.596183 162.192239 
" clip-path="url(#p9ac6b72eea)" style="fill: none; stroke: #ffa07a; stroke-width: 1.5; stroke-linecap: square"/>
    <defs>
     <path id="ma18ebaa141" d="M -2.5 5 
L 0 2.5 
L 2.5 5 
L 5 2.5 
L 2.5 0 
L 5 -2.5 
L 2.5 -5 
L 0 -2.5 
L -2.5 -5 
L -5 -2.5 
L -2.5 0 
L -5 2.5 
z
" style="stroke: #ffa07a; stroke-linejoin: miter"/>
    </defs>
    <g clip-path="url(#p9ac6b72eea)">
     <use xlink:href="#ma18ebaa141" x="267.596183" y="162.192239" style="fill: #ffa07a; stroke: #ffa07a; stroke-linejoin: miter"/>
    </g>
   </g>
   <g id="line2d_16">
    <path d="M 354.455663 216.741529 
" clip-path="url(#p9ac6b72eea)" style="fill: none; stroke: #0000ff; stroke-width: 1.5; stroke-linecap: square"/>
    <defs>
     <path id="m436c24a9f6" d="M -2.5 5 
L 0 2.5 
L 2.5 5 
L 5 2.5 
L 2.5 0 
L 5 -2.5 
L 2.5 -5 
L 0 -2.5 
L -2.5 -5 
L -5 -2.5 
L -2.5 0 
L -5 2.5 
z
" style="stroke: #0000ff; stroke-linejoin: miter"/>
    </defs>
    <g clip-path="url(#p9ac6b72eea)">
     <use xlink:href="#m436c24a9f6" x="354.455663" y="216.741529" style="fill: #0000ff; stroke: #0000ff; stroke-linejoin: miter"/>
    </g>
   </g>
   <g id="patch_3">
    <path d="M 57.6 307.584 
L 57.6 41.472 
" style="fill: none; stroke: #000000; stroke-width: 0.8; stroke-linejoin: miter; stroke-linecap: square"/>
   </g>
   <g id="patch_4">
    <path d="M 57.6 307.584 
L 414.72 307.584 
" style="fill: none; stroke: #000000; stroke-width: 0.8; stroke-linejoin: miter; stroke-linecap: square"/>
   </g>
   <g id="legend_1">
    <g id="patch_5">
     <path d="M 241.591875 141.54075 
L 404.22 141.54075 
Q 407.22 141.54075 407.22 138.54075 
L 407.22 51.972 
Q 407.22 48.972 404.22 48.972 
L 241.591875 48.972 
Q 238.591875 48.972 238.591875 51.972 
L 238.591875 138.54075 
Q 238.591875 141.54075 241.591875 141.54075 
z
" style="fill: #ffffff; opacity: 0.8; stroke: #cccccc; stroke-linejoin: miter"/>
    </g>
    <g id="line2d_17">
     <path d="M 244.591875 61.119656 
L 259.591875 61.119656 
L 274.591875 61.119656 
" style="fill: none; stroke: #000000; stroke-width: 1.5; stroke-linecap: square"/>
    </g>
    <g id="text_7">
     <!-- Trajectory -->
     <g transform="translate(286.591875 66.369656)scale(0.15 -0.15)">
      <defs>
       <path id="DejaVuSans-54" d="M -19 4666 
L 3928 4666 
L 3928 4134 
L 2272 4134 
L 2272 0 
L 1638 0 
L 1638 4134 
L -19 4134 
L -19 4666 
z
" transform="scale(0.015625)"/>
       <path id="DejaVuSans-72" d="M 2631 2963 
Q 2534 3019 2420 3045 
Q 2306 3072 2169 3072 
Q 1681 3072 1420 2755 
Q 1159 2438 1159 1844 
L 1159 0 
L 581 0 
L 581 3500 
L 1159 3500 
L 1159 2956 
Q 1341 3275 1631 3429 
Q 1922 3584 2338 3584 
Q 2397 3584 2469 3576 
Q 2541 3569 2628 3553 
L 2631 2963 
z
" transform="scale(0.015625)"/>
       <path id="DejaVuSans-61" d="M 2194 1759 
Q 1497 1759 1228 1600 
Q 959 1441 959 1056 
Q 959 750 1161 570 
Q 1363 391 1709 391 
Q 2188 391 2477 730 
Q 2766 1069 2766 1631 
L 2766 1759 
L 2194 1759 
z
M 3341 1997 
L 3341 0 
L 2766 0 
L 2766 531 
Q 2569 213 2275 61 
Q 1981 -91 1556 -91 
Q 1019 -91 701 211 
Q 384 513 384 1019 
Q 384 1609 779 1909 
Q 1175 2209 1959 2209 
L 2766 2209 
L 2766 2266 
Q 2766 2663 2505 2880 
Q 2244 3097 1772 3097 
Q 1472 3097 1187 3025 
Q 903 2953 641 2809 
L 641 3341 
Q 956 3463 1253 3523 
Q 1550 3584 1831 3584 
Q 2591 3584 2966 3190 
Q 3341 2797 3341 1997 
z
" transform="scale(0.015625)"/>
       <path id="DejaVuSans-6a" d="M 603 3500 
L 1178 3500 
L 1178 -63 
Q 1178 -731 923 -1031 
Q 669 -1331 103 -1331 
L -116 -1331 
L -116 -844 
L 38 -844 
Q 366 -844 484 -692 
Q 603 -541 603 -63 
L 603 3500 
z
M 603 4863 
L 1178 4863 
L 1178 4134 
L 603 4134 
L 603 4863 
z
" transform="scale(0.015625)"/>
       <path id="DejaVuSans-65" d="M 3597 1894 
L 3597 1613 
L 953 1613 
Q 991 1019 1311 708 
Q 1631 397 2203 397 
Q 2534 397 2845 478 
Q 3156 559 3463 722 
L 3463 178 
Q 3153 47 2828 -22 
Q 2503 -91 2169 -91 
Q 1331 -91 842 396 
Q 353 884 353 1716 
Q 353 2575 817 3079 
Q 1281 3584 2069 3584 
Q 2775 3584 3186 3129 
Q 3597 2675 3597 1894 
z
M 3022 2063 
Q 3016 2534 2758 2815 
Q 2500 3097 2075 3097 
Q 1594 3097 1305 2825 
Q 1016 2553 972 2059 
L 3022 2063 
z
" transform="scale(0.015625)"/>
       <path id="DejaVuSans-63" d="M 3122 3366 
L 3122 2828 
Q 2878 2963 2633 3030 
Q 2388 3097 2138 3097 
Q 1578 3097 1268 2742 
Q 959 2388 959 1747 
Q 959 1106 1268 751 
Q 1578 397 2138 397 
Q 2388 397 2633 464 
Q 2878 531 3122 666 
L 3122 134 
Q 2881 22 2623 -34 
Q 2366 -91 2075 -91 
Q 1284 -91 818 406 
Q 353 903 353 1747 
Q 353 2603 823 3093 
Q 1294 3584 2113 3584 
Q 2378 3584 2631 3529 
Q 2884 3475 3122 3366 
z
" transform="scale(0.015625)"/>
       <path id="DejaVuSans-74" d="M 1172 4494 
L 1172 3500 
L 2356 3500 
L 2356 3053 
L 1172 3053 
L 1172 1153 
Q 1172 725 1289 603 
Q 1406 481 1766 481 
L 2356 481 
L 2356 0 
L 1766 0 
Q 1100 0 847 248 
Q 594 497 594 1153 
L 594 3053 
L 172 3053 
L 172 3500 
L 594 3500 
L 594 4494 
L 1172 4494 
z
" transform="scale(0.015625)"/>
       <path id="DejaVuSans-6f" d="M 1959 3097 
Q 1497 3097 1228 2736 
Q 959 2375 959 1747 
Q 959 1119 1226 758 
Q 1494 397 1959 397 
Q 2419 397 2687 759 
Q 2956 1122 2956 1747 
Q 2956 2369 2687 2733 
Q 2419 3097 1959 3097 
z
M 1959 3584 
Q 2709 3584 3137 3096 
Q 3566 2609 3566 1747 
Q 3566 888 3137 398 
Q 2709 -91 1959 -91 
Q 1206 -91 779 398 
Q 353 888 353 1747 
Q 353 2609 779 3096 
Q 1206 3584 1959 3584 
z
" transform="scale(0.015625)"/>
       <path id="DejaVuSans-79" d="M 2059 -325 
Q 1816 -950 1584 -1140 
Q 1353 -1331 966 -1331 
L 506 -1331 
L 506 -850 
L 844 -850 
Q 1081 -850 1212 -737 
Q 1344 -625 1503 -206 
L 1606 56 
L 191 3500 
L 800 3500 
L 1894 763 
L 2988 3500 
L 3597 3500 
L 2059 -325 
z
" transform="scale(0.015625)"/>
      </defs>
      <use xlink:href="#DejaVuSans-54"/>
      <use xlink:href="#DejaVuSans-72" x="46.333984"/>
      <use xlink:href="#DejaVuSans-61" x="87.447266"/>
      <use xlink:href="#DejaVuSans-6a" x="148.726562"/>
      <use xlink:href="#DejaVuSans-65" x="176.509766"/>
      <use xlink:href="#DejaVuSans-63" x="238.033203"/>
      <use xlink:href="#DejaVuSans-74" x="293.013672"/>
      <use xlink:href="#DejaVuSans-6f" x="332.222656"/>
      <use xlink:href="#DejaVuSans-72" x="393.404297"/>
      <use xlink:href="#DejaVuSans-79" x="434.517578"/>
     </g>
    </g>
    <g id="line2d_18">
     <path d="M 244.591875 83.136844 
L 259.591875 83.136844 
L 274.591875 83.136844 
" style="fill: none; stroke: #000000; stroke-width: 1.5; stroke-linecap: square"/>
     <g>
      <use xlink:href="#m73163dc3be" x="259.591875" y="83.136844" style="stroke: #000000"/>
     </g>
    </g>
    <g id="text_8">
     <!-- Start -->
     <g transform="translate(286.591875 88.386844)scale(0.15 -0.15)">
      <defs>
       <path id="DejaVuSans-53" d="M 3425 4513 
L 3425 3897 
Q 3066 4069 2747 4153 
Q 2428 4238 2131 4238 
Q 1616 4238 1336 4038 
Q 1056 3838 1056 3469 
Q 1056 3159 1242 3001 
Q 1428 2844 1947 2747 
L 2328 2669 
Q 3034 2534 3370 2195 
Q 3706 1856 3706 1288 
Q 3706 609 3251 259 
Q 2797 -91 1919 -91 
Q 1588 -91 1214 -16 
Q 841 59 441 206 
L 441 856 
Q 825 641 1194 531 
Q 1563 422 1919 422 
Q 2459 422 2753 634 
Q 3047 847 3047 1241 
Q 3047 1584 2836 1778 
Q 2625 1972 2144 2069 
L 1759 2144 
Q 1053 2284 737 2584 
Q 422 2884 422 3419 
Q 422 4038 858 4394 
Q 1294 4750 2059 4750 
Q 2388 4750 2728 4690 
Q 3069 4631 3425 4513 
z
" transform="scale(0.015625)"/>
      </defs>
      <use xlink:href="#DejaVuSans-53"/>
      <use xlink:href="#DejaVuSans-74" x="63.476562"/>
      <use xlink:href="#DejaVuSans-61" x="102.685547"/>
      <use xlink:href="#DejaVuSans-72" x="163.964844"/>
      <use xlink:href="#DejaVuSans-74" x="205.078125"/>
     </g>
    </g>
    <g id="line2d_19">
     <path d="M 244.591875 105.154031 
L 259.591875 105.154031 
L 274.591875 105.154031 
" style="fill: none; stroke: #000000; stroke-width: 1.5; stroke-linecap: square"/>
     <g>
      <use xlink:href="#m59eeb2aea1" x="259.591875" y="105.154031" style="stroke: #000000; stroke-linejoin: miter"/>
     </g>
    </g>
    <g id="text_9">
     <!-- End -->
     <g transform="translate(286.591875 110.404031)scale(0.15 -0.15)">
      <defs>
       <path id="DejaVuSans-45" d="M 628 4666 
L 3578 4666 
L 3578 4134 
L 1259 4134 
L 1259 2753 
L 3481 2753 
L 3481 2222 
L 1259 2222 
L 1259 531 
L 3634 531 
L 3634 0 
L 628 0 
L 628 4666 
z
" transform="scale(0.015625)"/>
       <path id="DejaVuSans-6e" d="M 3513 2113 
L 3513 0 
L 2938 0 
L 2938 2094 
Q 2938 2591 2744 2837 
Q 2550 3084 2163 3084 
Q 1697 3084 1428 2787 
Q 1159 2491 1159 1978 
L 1159 0 
L 581 0 
L 581 3500 
L 1159 3500 
L 1159 2956 
Q 1366 3272 1645 3428 
Q 1925 3584 2291 3584 
Q 2894 3584 3203 3211 
Q 3513 2838 3513 2113 
z
" transform="scale(0.015625)"/>
       <path id="DejaVuSans-64" d="M 2906 2969 
L 2906 4863 
L 3481 4863 
L 3481 0 
L 2906 0 
L 2906 525 
Q 2725 213 2448 61 
Q 2172 -91 1784 -91 
Q 1150 -91 751 415 
Q 353 922 353 1747 
Q 353 2572 751 3078 
Q 1150 3584 1784 3584 
Q 2172 3584 2448 3432 
Q 2725 3281 2906 2969 
z
M 947 1747 
Q 947 1113 1208 752 
Q 1469 391 1925 391 
Q 2381 391 2643 752 
Q 2906 1113 2906 1747 
Q 2906 2381 2643 2742 
Q 2381 3103 1925 3103 
Q 1469 3103 1208 2742 
Q 947 2381 947 1747 
z
" transform="scale(0.015625)"/>
      </defs>
      <use xlink:href="#DejaVuSans-45"/>
      <use xlink:href="#DejaVuSans-6e" x="63.183594"/>
      <use xlink:href="#DejaVuSans-64" x="126.5625"/>
     </g>
    </g>
    <g id="line2d_20">
     <path d="M 244.591875 127.171219 
L 259.591875 127.171219 
L 274.591875 127.171219 
" style="fill: none; stroke: #ff0000; stroke-width: 1.5; stroke-linecap: square"/>
     <g>
      <use xlink:href="#m749ff9f7ae" x="259.591875" y="127.171219" style="fill: #ff0000; stroke: #ff0000; stroke-linejoin: miter"/>
     </g>
    </g>
    <g id="text_10">
     <!-- Target Location -->
     <g transform="translate(286.591875 132.421219)scale(0.15 -0.15)">
      <defs>
       <path id="DejaVuSans-67" d="M 2906 1791 
Q 2906 2416 2648 2759 
Q 2391 3103 1925 3103 
Q 1463 3103 1205 2759 
Q 947 2416 947 1791 
Q 947 1169 1205 825 
Q 1463 481 1925 481 
Q 2391 481 2648 825 
Q 2906 1169 2906 1791 
z
M 3481 434 
Q 3481 -459 3084 -895 
Q 2688 -1331 1869 -1331 
Q 1566 -1331 1297 -1286 
Q 1028 -1241 775 -1147 
L 775 -588 
Q 1028 -725 1275 -790 
Q 1522 -856 1778 -856 
Q 2344 -856 2625 -561 
Q 2906 -266 2906 331 
L 2906 616 
Q 2728 306 2450 153 
Q 2172 0 1784 0 
Q 1141 0 747 490 
Q 353 981 353 1791 
Q 353 2603 747 3093 
Q 1141 3584 1784 3584 
Q 2172 3584 2450 3431 
Q 2728 3278 2906 2969 
L 2906 3500 
L 3481 3500 
L 3481 434 
z
" transform="scale(0.015625)"/>
       <path id="DejaVuSans-20" transform="scale(0.015625)"/>
       <path id="DejaVuSans-4c" d="M 628 4666 
L 1259 4666 
L 1259 531 
L 3531 531 
L 3531 0 
L 628 0 
L 628 4666 
z
" transform="scale(0.015625)"/>
       <path id="DejaVuSans-69" d="M 603 3500 
L 1178 3500 
L 1178 0 
L 603 0 
L 603 3500 
z
M 603 4863 
L 1178 4863 
L 1178 4134 
L 603 4134 
L 603 4863 
z
" transform="scale(0.015625)"/>
      </defs>
      <use xlink:href="#DejaVuSans-54"/>
      <use xlink:href="#DejaVuSans-61" x="44.583984"/>
      <use xlink:href="#DejaVuSans-72" x="105.863281"/>
      <use xlink:href="#DejaVuSans-67" x="145.226562"/>
      <use xlink:href="#DejaVuSans-65" x="208.703125"/>
      <use xlink:href="#DejaVuSans-74" x="270.226562"/>
      <use xlink:href="#DejaVuSans-20" x="309.435547"/>
      <use xlink:href="#DejaVuSans-4c" x="341.222656"/>
      <use xlink:href="#DejaVuSans-6f" x="395.185547"/>
      <use xlink:href="#DejaVuSans-63" x="456.367188"/>
      <use xlink:href="#DejaVuSans-61" x="511.347656"/>
      <use xlink:href="#DejaVuSans-74" x="572.626953"/>
      <use xlink:href="#DejaVuSans-69" x="611.835938"/>
      <use xlink:href="#DejaVuSans-6f" x="639.619141"/>
      <use xlink:href="#DejaVuSans-6e" x="700.800781"/>
     </g>
    </g>
   </g>
  </g>
 </g>
 <defs>
  <clipPath id="p9ac6b72eea">
   <rect x="57.6" y="41.472" width="357.12" height="266.112"/>
  </clipPath>
 </defs>
</svg>
