<?xml version="1.0" encoding="utf-8" standalone="no"?>
<!DOCTYPE svg PUBLIC "-//W3C//DTD SVG 1.1//EN"
  "http://www.w3.org/Graphics/SVG/1.1/DTD/svg11.dtd">
<svg xmlns:xlink="http://www.w3.org/1999/xlink" width="460.8pt" height="345.6pt" viewBox="0 0 460.8 345.6" xmlns="http://www.w3.org/2000/svg" version="1.1">
 <metadata>
  <rdf:RDF xmlns:dc="http://purl.org/dc/elements/1.1/" xmlns:cc="http://creativecommons.org/ns#" xmlns:rdf="http://www.w3.org/1999/02/22-rdf-syntax-ns#">
   <cc:Work>
    <dc:type rdf:resource="http://purl.org/dc/dcmitype/StillImage"/>
    <dc:date>2024-02-20T18:22:19.710313</dc:date>
    <dc:format>image/svg+xml</dc:format>
    <dc:creator>
     <cc:Agent>
      <dc:title>Matplotlib v3.5.0, https://matplotlib.org/</dc:title>
     </cc:Agent>
    </dc:creator>
   </cc:Work>
  </rdf:RDF>
 </metadata>
 <defs>
  <style type="text/css">*{stroke-linejoin: round; stroke-linecap: butt}</style>
 </defs>
 <g id="figure_1">
  <g id="patch_1">
   <path d="M 0 345.6 
L 460.8 345.6 
L 460.8 0 
L 0 0 
z
" style="fill: #ffffff"/>
  </g>
  <g id="axes_1">
   <g id="patch_2">
    <path d="M 57.6 307.584 
L 414.72 307.584 
L 414.72 41.472 
L 57.6 41.472 
z
" style="fill: #ffffff"/>
   </g>
   <g id="matplotlib.axis_1">
    <g id="xtick_1">
     <g id="line2d_1">
      <defs>
       <path id="m86c0755088" d="M 0 0 
L 0 3.5 
" style="stroke: #000000; stroke-width: 0.8"/>
      </defs>
      <g>
       <use xlink:href="#m86c0755088" x="73.832727" y="307.584" style="stroke: #000000; stroke-width: 0.8"/>
      </g>
     </g>
     <g id="text_1">
      <!-- 0 -->
      <g transform="translate(67.470227 329.780875)scale(0.2 -0.2)">
       <defs>
        <path id="DejaVuSans-30" d="M 2034 4250 
Q 1547 4250 1301 3770 
Q 1056 3291 1056 2328 
Q 1056 1369 1301 889 
Q 1547 409 2034 409 
Q 2525 409 2770 889 
Q 3016 1369 3016 2328 
Q 3016 3291 2770 3770 
Q 2525 4250 2034 4250 
z
M 2034 4750 
Q 2819 4750 3233 4129 
Q 3647 3509 3647 2328 
Q 3647 1150 3233 529 
Q 2819 -91 2034 -91 
Q 1250 -91 836 529 
Q 422 1150 422 2328 
Q 422 3509 836 4129 
Q 1250 4750 2034 4750 
z
" transform="scale(0.015625)"/>
       </defs>
       <use xlink:href="#DejaVuSans-30"/>
      </g>
     </g>
    </g>
    <g id="xtick_2">
     <g id="line2d_2">
      <g>
       <use xlink:href="#m86c0755088" x="399.341627" y="307.584" style="stroke: #000000; stroke-width: 0.8"/>
      </g>
     </g>
     <g id="text_2">
      <!-- 1 -->
      <g transform="translate(392.979127 329.780875)scale(0.2 -0.2)">
       <defs>
        <path id="DejaVuSans-31" d="M 794 531 
L 1825 531 
L 1825 4091 
L 703 3866 
L 703 4441 
L 1819 4666 
L 2450 4666 
L 2450 531 
L 3481 531 
L 3481 0 
L 794 0 
L 794 531 
z
" transform="scale(0.015625)"/>
       </defs>
       <use xlink:href="#DejaVuSans-31"/>
      </g>
     </g>
    </g>
    <g id="text_3">
     <!-- Normalised X position -->
     <g transform="translate(111.795937 353.137125)scale(0.2 -0.2)">
      <defs>
       <path id="DejaVuSans-Bold-4e" d="M 588 4666 
L 1931 4666 
L 3628 1466 
L 3628 4666 
L 4769 4666 
L 4769 0 
L 3425 0 
L 1728 3200 
L 1728 0 
L 588 0 
L 588 4666 
z
" transform="scale(0.015625)"/>
       <path id="DejaVuSans-Bold-6f" d="M 2203 2784 
Q 1831 2784 1636 2517 
Q 1441 2250 1441 1747 
Q 1441 1244 1636 976 
Q 1831 709 2203 709 
Q 2569 709 2762 976 
Q 2956 1244 2956 1747 
Q 2956 2250 2762 2517 
Q 2569 2784 2203 2784 
z
M 2203 3584 
Q 3106 3584 3614 3096 
Q 4122 2609 4122 1747 
Q 4122 884 3614 396 
Q 3106 -91 2203 -91 
Q 1297 -91 786 396 
Q 275 884 275 1747 
Q 275 2609 786 3096 
Q 1297 3584 2203 3584 
z
" transform="scale(0.015625)"/>
       <path id="DejaVuSans-Bold-72" d="M 3138 2547 
Q 2991 2616 2845 2648 
Q 2700 2681 2553 2681 
Q 2122 2681 1889 2404 
Q 1656 2128 1656 1613 
L 1656 0 
L 538 0 
L 538 3500 
L 1656 3500 
L 1656 2925 
Q 1872 3269 2151 3426 
Q 2431 3584 2822 3584 
Q 2878 3584 2943 3579 
Q 3009 3575 3134 3559 
L 3138 2547 
z
" transform="scale(0.015625)"/>
       <path id="DejaVuSans-Bold-6d" d="M 3781 2919 
Q 3994 3244 4286 3414 
Q 4578 3584 4928 3584 
Q 5531 3584 5847 3212 
Q 6163 2841 6163 2131 
L 6163 0 
L 5038 0 
L 5038 1825 
Q 5041 1866 5042 1909 
Q 5044 1953 5044 2034 
Q 5044 2406 4934 2573 
Q 4825 2741 4581 2741 
Q 4263 2741 4089 2478 
Q 3916 2216 3909 1719 
L 3909 0 
L 2784 0 
L 2784 1825 
Q 2784 2406 2684 2573 
Q 2584 2741 2328 2741 
Q 2006 2741 1831 2477 
Q 1656 2213 1656 1722 
L 1656 0 
L 531 0 
L 531 3500 
L 1656 3500 
L 1656 2988 
Q 1863 3284 2130 3434 
Q 2397 3584 2719 3584 
Q 3081 3584 3359 3409 
Q 3638 3234 3781 2919 
z
" transform="scale(0.015625)"/>
       <path id="DejaVuSans-Bold-61" d="M 2106 1575 
Q 1756 1575 1579 1456 
Q 1403 1338 1403 1106 
Q 1403 894 1545 773 
Q 1688 653 1941 653 
Q 2256 653 2472 879 
Q 2688 1106 2688 1447 
L 2688 1575 
L 2106 1575 
z
M 3816 1997 
L 3816 0 
L 2688 0 
L 2688 519 
Q 2463 200 2181 54 
Q 1900 -91 1497 -91 
Q 953 -91 614 226 
Q 275 544 275 1050 
Q 275 1666 698 1953 
Q 1122 2241 2028 2241 
L 2688 2241 
L 2688 2328 
Q 2688 2594 2478 2717 
Q 2269 2841 1825 2841 
Q 1466 2841 1156 2769 
Q 847 2697 581 2553 
L 581 3406 
Q 941 3494 1303 3539 
Q 1666 3584 2028 3584 
Q 2975 3584 3395 3211 
Q 3816 2838 3816 1997 
z
" transform="scale(0.015625)"/>
       <path id="DejaVuSans-Bold-6c" d="M 538 4863 
L 1656 4863 
L 1656 0 
L 538 0 
L 538 4863 
z
" transform="scale(0.015625)"/>
       <path id="DejaVuSans-Bold-69" d="M 538 3500 
L 1656 3500 
L 1656 0 
L 538 0 
L 538 3500 
z
M 538 4863 
L 1656 4863 
L 1656 3950 
L 538 3950 
L 538 4863 
z
" transform="scale(0.015625)"/>
       <path id="DejaVuSans-Bold-73" d="M 3272 3391 
L 3272 2541 
Q 2913 2691 2578 2766 
Q 2244 2841 1947 2841 
Q 1628 2841 1473 2761 
Q 1319 2681 1319 2516 
Q 1319 2381 1436 2309 
Q 1553 2238 1856 2203 
L 2053 2175 
Q 2913 2066 3209 1816 
Q 3506 1566 3506 1031 
Q 3506 472 3093 190 
Q 2681 -91 1863 -91 
Q 1516 -91 1145 -36 
Q 775 19 384 128 
L 384 978 
Q 719 816 1070 734 
Q 1422 653 1784 653 
Q 2113 653 2278 743 
Q 2444 834 2444 1013 
Q 2444 1163 2330 1236 
Q 2216 1309 1875 1350 
L 1678 1375 
Q 931 1469 631 1722 
Q 331 1975 331 2491 
Q 331 3047 712 3315 
Q 1094 3584 1881 3584 
Q 2191 3584 2531 3537 
Q 2872 3491 3272 3391 
z
" transform="scale(0.015625)"/>
       <path id="DejaVuSans-Bold-65" d="M 4031 1759 
L 4031 1441 
L 1416 1441 
Q 1456 1047 1700 850 
Q 1944 653 2381 653 
Q 2734 653 3104 758 
Q 3475 863 3866 1075 
L 3866 213 
Q 3469 63 3072 -14 
Q 2675 -91 2278 -91 
Q 1328 -91 801 392 
Q 275 875 275 1747 
Q 275 2603 792 3093 
Q 1309 3584 2216 3584 
Q 3041 3584 3536 3087 
Q 4031 2591 4031 1759 
z
M 2881 2131 
Q 2881 2450 2695 2645 
Q 2509 2841 2209 2841 
Q 1884 2841 1681 2658 
Q 1478 2475 1428 2131 
L 2881 2131 
z
" transform="scale(0.015625)"/>
       <path id="DejaVuSans-Bold-64" d="M 2919 2988 
L 2919 4863 
L 4044 4863 
L 4044 0 
L 2919 0 
L 2919 506 
Q 2688 197 2409 53 
Q 2131 -91 1766 -91 
Q 1119 -91 703 423 
Q 288 938 288 1747 
Q 288 2556 703 3070 
Q 1119 3584 1766 3584 
Q 2128 3584 2408 3439 
Q 2688 3294 2919 2988 
z
M 2181 722 
Q 2541 722 2730 984 
Q 2919 1247 2919 1747 
Q 2919 2247 2730 2509 
Q 2541 2772 2181 2772 
Q 1825 2772 1636 2509 
Q 1447 2247 1447 1747 
Q 1447 1247 1636 984 
Q 1825 722 2181 722 
z
" transform="scale(0.015625)"/>
       <path id="DejaVuSans-Bold-20" transform="scale(0.015625)"/>
       <path id="DejaVuSans-Bold-58" d="M 3188 2381 
L 4806 0 
L 3553 0 
L 2463 1594 
L 1381 0 
L 122 0 
L 1741 2381 
L 184 4666 
L 1441 4666 
L 2463 3163 
L 3481 4666 
L 4744 4666 
L 3188 2381 
z
" transform="scale(0.015625)"/>
       <path id="DejaVuSans-Bold-70" d="M 1656 506 
L 1656 -1331 
L 538 -1331 
L 538 3500 
L 1656 3500 
L 1656 2988 
Q 1888 3294 2169 3439 
Q 2450 3584 2816 3584 
Q 3463 3584 3878 3070 
Q 4294 2556 4294 1747 
Q 4294 938 3878 423 
Q 3463 -91 2816 -91 
Q 2450 -91 2169 54 
Q 1888 200 1656 506 
z
M 2400 2772 
Q 2041 2772 1848 2508 
Q 1656 2244 1656 1747 
Q 1656 1250 1848 986 
Q 2041 722 2400 722 
Q 2759 722 2948 984 
Q 3138 1247 3138 1747 
Q 3138 2247 2948 2509 
Q 2759 2772 2400 2772 
z
" transform="scale(0.015625)"/>
       <path id="DejaVuSans-Bold-74" d="M 1759 4494 
L 1759 3500 
L 2913 3500 
L 2913 2700 
L 1759 2700 
L 1759 1216 
Q 1759 972 1856 886 
Q 1953 800 2241 800 
L 2816 800 
L 2816 0 
L 1856 0 
Q 1194 0 917 276 
Q 641 553 641 1216 
L 641 2700 
L 84 2700 
L 84 3500 
L 641 3500 
L 641 4494 
L 1759 4494 
z
" transform="scale(0.015625)"/>
       <path id="DejaVuSans-Bold-6e" d="M 4056 2131 
L 4056 0 
L 2931 0 
L 2931 347 
L 2931 1631 
Q 2931 2084 2911 2256 
Q 2891 2428 2841 2509 
Q 2775 2619 2662 2680 
Q 2550 2741 2406 2741 
Q 2056 2741 1856 2470 
Q 1656 2200 1656 1722 
L 1656 0 
L 538 0 
L 538 3500 
L 1656 3500 
L 1656 2988 
Q 1909 3294 2193 3439 
Q 2478 3584 2822 3584 
Q 3428 3584 3742 3212 
Q 4056 2841 4056 2131 
z
" transform="scale(0.015625)"/>
      </defs>
      <use xlink:href="#DejaVuSans-Bold-4e"/>
      <use xlink:href="#DejaVuSans-Bold-6f" x="83.691406"/>
      <use xlink:href="#DejaVuSans-Bold-72" x="152.392578"/>
      <use xlink:href="#DejaVuSans-Bold-6d" x="201.708984"/>
      <use xlink:href="#DejaVuSans-Bold-61" x="305.908203"/>
      <use xlink:href="#DejaVuSans-Bold-6c" x="373.388672"/>
      <use xlink:href="#DejaVuSans-Bold-69" x="407.666016"/>
      <use xlink:href="#DejaVuSans-Bold-73" x="441.943359"/>
      <use xlink:href="#DejaVuSans-Bold-65" x="501.464844"/>
      <use xlink:href="#DejaVuSans-Bold-64" x="569.287109"/>
      <use xlink:href="#DejaVuSans-Bold-20" x="640.869141"/>
      <use xlink:href="#DejaVuSans-Bold-58" x="675.683594"/>
      <use xlink:href="#DejaVuSans-Bold-20" x="752.783203"/>
      <use xlink:href="#DejaVuSans-Bold-70" x="787.597656"/>
      <use xlink:href="#DejaVuSans-Bold-6f" x="859.179688"/>
      <use xlink:href="#DejaVuSans-Bold-73" x="927.880859"/>
      <use xlink:href="#DejaVuSans-Bold-69" x="987.402344"/>
      <use xlink:href="#DejaVuSans-Bold-74" x="1021.679688"/>
      <use xlink:href="#DejaVuSans-Bold-69" x="1069.482422"/>
      <use xlink:href="#DejaVuSans-Bold-6f" x="1103.759766"/>
      <use xlink:href="#DejaVuSans-Bold-6e" x="1172.460938"/>
     </g>
    </g>
   </g>
   <g id="matplotlib.axis_2">
    <g id="ytick_1">
     <g id="line2d_3">
      <defs>
       <path id="maa6046efb1" d="M 0 0 
L -3.5 0 
" style="stroke: #000000; stroke-width: 0.8"/>
      </defs>
      <g>
       <use xlink:href="#maa6046efb1" x="57.6" y="295.488" style="stroke: #000000; stroke-width: 0.8"/>
      </g>
     </g>
     <g id="text_4">
      <!-- 0 -->
      <g transform="translate(37.875 303.086437)scale(0.2 -0.2)">
       <use xlink:href="#DejaVuSans-30"/>
      </g>
     </g>
    </g>
    <g id="ytick_2">
     <g id="line2d_4">
      <g>
       <use xlink:href="#maa6046efb1" x="57.6" y="53.568" style="stroke: #000000; stroke-width: 0.8"/>
      </g>
     </g>
     <g id="text_5">
      <!-- 1 -->
      <g transform="translate(37.875 61.166438)scale(0.2 -0.2)">
       <use xlink:href="#DejaVuSans-31"/>
      </g>
     </g>
    </g>
    <g id="text_6">
     <!-- Normalised Y position -->
     <g transform="translate(29.715625 298.423313)rotate(-90)scale(0.2 -0.2)">
      <defs>
       <path id="DejaVuSans-Bold-59" d="M -63 4666 
L 1253 4666 
L 2316 3003 
L 3378 4666 
L 4697 4666 
L 2919 1966 
L 2919 0 
L 1716 0 
L 1716 1966 
L -63 4666 
z
" transform="scale(0.015625)"/>
      </defs>
      <use xlink:href="#DejaVuSans-Bold-4e"/>
      <use xlink:href="#DejaVuSans-Bold-6f" x="83.691406"/>
      <use xlink:href="#DejaVuSans-Bold-72" x="152.392578"/>
      <use xlink:href="#DejaVuSans-Bold-6d" x="201.708984"/>
      <use xlink:href="#DejaVuSans-Bold-61" x="305.908203"/>
      <use xlink:href="#DejaVuSans-Bold-6c" x="373.388672"/>
      <use xlink:href="#DejaVuSans-Bold-69" x="407.666016"/>
      <use xlink:href="#DejaVuSans-Bold-73" x="441.943359"/>
      <use xlink:href="#DejaVuSans-Bold-65" x="501.464844"/>
      <use xlink:href="#DejaVuSans-Bold-64" x="569.287109"/>
      <use xlink:href="#DejaVuSans-Bold-20" x="640.869141"/>
      <use xlink:href="#DejaVuSans-Bold-59" x="675.683594"/>
      <use xlink:href="#DejaVuSans-Bold-20" x="748.095703"/>
      <use xlink:href="#DejaVuSans-Bold-70" x="782.910156"/>
      <use xlink:href="#DejaVuSans-Bold-6f" x="854.492188"/>
      <use xlink:href="#DejaVuSans-Bold-73" x="923.193359"/>
      <use xlink:href="#DejaVuSans-Bold-69" x="982.714844"/>
      <use xlink:href="#DejaVuSans-Bold-74" x="1016.992188"/>
      <use xlink:href="#DejaVuSans-Bold-69" x="1064.794922"/>
      <use xlink:href="#DejaVuSans-Bold-6f" x="1099.072266"/>
      <use xlink:href="#DejaVuSans-Bold-6e" x="1167.773438"/>
     </g>
    </g>
   </g>
   <g id="line2d_5">
    <path d="M 321.937148 248.278369 
L 326.892402 248.513243 
L 332.018526 248.278369 
L 352.181282 245.459883 
L 355.427828 245.22501 
L 361.920919 244.520388 
L 367.901397 244.285515 
L 373.198392 244.990136 
L 376.786679 247.808621 
L 381.05845 252.975845 
L 384.988478 261.901049 
L 388.064153 274.349359 
L 390.456344 291.025398 
L 392.165053 294.313631 
L 398.487273 294.313631 
L 398.487273 294.313631 
L 387.722411 273.409864 
L 375.590584 248.043495 
L 364.483981 224.086369 
L 357.307407 201.068738 
L 351.156057 180.164971 
L 348.763866 170.770019 
L 343.125129 145.168777 
L 342.954258 137.887689 
L 342.954258 124.499883 
L 346.200804 113.225942 
L 350.130833 103.83099 
L 355.769569 96.315029 
L 362.091789 90.208311 
L 376.615809 78.229748 
L 381.571062 75.176388 
L 385.33022 72.592777 
L 388.235024 68.834796 
L 390.627215 67.425553 
L 392.335923 64.841942 
L 395.582469 53.568 
L 396.778565 53.568 
L 301.774392 53.568 
L 291.522144 54.037748 
L 282.807732 54.742369 
L 276.656383 55.916738 
L 273.238967 57.560854 
L 271.359388 59.909592 
L 270.163292 62.493204 
L 273.068096 65.781437 
L 278.365091 70.244039 
L 282.636861 76.115883 
L 288.61734 82.69235 
L 294.768689 90.443184 
L 299.040459 99.133515 
L 303.141359 108.293592 
L 307.413129 117.218796 
L 310.488804 126.613748 
L 314.247962 136.008699 
L 317.836249 145.40365 
L 320.911923 154.328854 
L 322.620632 161.844816 
L 322.27889 167.481786 
L 321.937148 169.830524 
L 319.544957 172.64901 
L 315.614928 173.353631 
L 309.63445 172.414136 
L 301.945263 169.59565 
L 294.426947 165.133049 
L 281.099024 155.26835 
L 274.435062 149.866252 
L 269.650679 144.933903 
L 268.112842 139.062058 
L 267.087617 137.417942 
L 266.062392 133.894835 
L 266.062392 131.07635 
L 266.404134 128.257864 
L 267.60023 126.378874 
L 269.650679 124.499883 
L 272.384612 123.325515 
L 275.631158 122.151146 
L 284.003828 121.21165 
L 293.914335 120.272155 
L 300.407426 119.33266 
L 305.191809 118.158291 
L 306.046163 116.749049 
L 309.292708 114.870058 
L 312.026641 114.165437 
L 315.102316 112.051573 
L 317.665378 110.877204 
L 321.253665 109.467961 
L 329.968077 107.823845 
L 339.707713 107.823845 
L 346.371675 108.998214 
L 348.251254 109.937709 
L 351.66867 112.051573 
L 352.693895 113.695689 
L 358.503502 118.393165 
L 363.287885 121.21165 
L 368.243139 124.734757 
L 372.68578 128.257864 
L 376.103196 131.780971 
L 379.520612 135.069204 
L 381.741933 138.122563 
L 382.425416 141.175922 
L 381.741933 143.759534 
L 379.862354 148.222136 
L 378.153646 150.101126 
L 375.590584 151.510369 
L 373.711005 153.624233 
L 373.027522 155.503223 
L 377.811904 156.912466 
L 380.374967 158.321709 
L 382.425416 159.965825 
L 385.501091 160.435573 
L 388.405895 161.375068 
L 390.627215 161.140194 
L 393.70289 160.200699 
L 394.898986 159.496078 
L 395.582469 158.791456 
L 396.265952 158.321709 
L 397.120306 156.442718 
L 397.462048 156.207845 
L 397.632919 155.738097 
L 397.97466 154.093981 
L 398.145531 153.859107 
L 398.145531 152.919612 
L 398.316402 151.980117 
L 398.316402 149.631379 
L 398.487273 148.691883 
L 398.487273 149.396505 
L 398.487273 133.894835 
L 398.487273 182.748583 
L 394.044632 184.392699 
L 378.837129 185.567068 
L 362.775273 186.506563 
L 346.884287 186.976311 
L 329.113722 188.15068 
L 310.830545 188.620427 
L 273.92245 186.741437 
L 254.272306 186.506563 
L 230.008651 187.211184 
L 207.111962 188.385553 
L 190.537493 190.02967 
L 175.842603 191.673786 
L 148.845014 194.257398 
L 128.682258 197.545631 
L 120.138718 199.424621 
L 111.595177 202.243107 
L 102.197282 205.061592 
L 91.26155 207.645204 
L 80.154947 209.993942 
L 73.832727 212.577553 
L 73.832727 227.374602 
L 75.199694 228.314097 
L 84.768459 228.783845 
L 102.539024 228.314097 
L 114.499981 227.609476 
L 126.97355 227.139728 
L 140.814086 226.435107 
L 154.654622 225.260738 
L 169.178641 223.146874 
L 183.873531 220.563262 
L 199.081033 217.040155 
L 213.775923 212.812427 
L 230.008651 208.349825 
L 243.678316 205.061592 
L 255.468402 200.59899 
L 271.701129 195.196893 
L 288.61734 190.02967 
L 307.413129 185.332194 
L 324.841952 181.104466 
L 343.466871 176.40699 
L 361.237435 172.179262 
L 373.369263 168.421282 
L 381.400191 164.898175 
L 387.038928 160.90532 
L 390.627215 158.556583 
L 393.190278 156.442718 
L 394.898986 155.26835 
L 396.095081 155.033476 
L 397.97466 155.738097 
L 398.316402 156.912466 
L 398.316402 157.851961 
L 398.487273 158.791456 
L 398.487273 292.434641 
L 398.487273 279.98633 
L 386.697187 275.993476 
L 368.41401 270.826252 
L 342.270775 264.719534 
L 317.665378 256.264078 
L 281.440766 245.22501 
L 266.062392 240.057786 
L 253.759694 235.595184 
L 242.823962 230.897709 
L 231.375617 226.435107 
L 219.927273 220.798136 
L 210.187636 216.335534 
L 200.448 212.577553 
L 190.879234 209.524194 
L 183.70266 206.705709 
L 176.867828 203.887223 
L 168.666029 201.068738 
L 160.805971 197.780505 
L 156.192459 195.196893 
L 152.09156 191.673786 
L 149.528498 188.855301 
L 146.794565 185.567068 
L 143.035407 180.634718 
L 141.497569 177.581359 
L 135.175349 166.072544 
L 134.150124 164.428427 
L 128.853129 159.496078 
L 129.707483 156.677592 
L 129.536612 152.684738 
L 129.194871 149.866252 
L 128.511388 147.517515 
L 124.410488 145.638524 
L 124.239617 143.289786 
L 119.967847 141.175922 
L 117.063043 139.531806 
L 111.766048 137.887689 
L 105.443828 136.478447 
L 98.779866 134.83433 
L 91.603292 133.425087 
L 88.185876 132.95534 
L 77.421014 130.841476 
L 73.832727 129.432233 
L 73.832727 53.568 
L 73.832727 110.877204 
L 88.869359 115.104932 
L 98.608995 118.862913 
L 105.785569 122.386019 
L 111.595177 125.909126 
L 124.068746 134.83433 
L 130.049225 139.76668 
L 134.150124 143.759534 
L 139.276249 149.631379 
L 142.693665 154.798602 
L 146.281952 160.435573 
L 150.895464 166.542291 
L 155.167234 172.414136 
L 163.710775 182.748583 
L 169.349512 190.264544 
L 171.570833 193.317903 
L 174.475636 197.545631 
L 175.671732 199.189748 
L 175.671732 199.189748 
L 176.013474 198.954874 
L 177.038699 199.189748 
L 177.551311 199.189748 
L 177.722182 198.015379 
L 178.234794 197.545631 
L 178.405665 196.84101 
L 179.089148 196.136388 
L 177.551311 193.083029 
L 175.842603 190.02967 
L 173.279541 188.385553 
L 169.862124 185.801942 
L 166.273837 183.688078 
L 163.539904 181.809087 
L 159.780746 179.695223 
L 155.850718 178.051107 
L 153.287656 177.346485 
L 150.553722 176.40699 
L 146.281952 175.232621 
L 143.71889 174.997748 
L 141.497569 174.997748 
L 140.301474 175.937243 
L 139.788861 176.876738 
L 139.61799 177.581359 
L 140.472344 178.755728 
L 141.155828 179.225476 
L 143.035407 179.46035 
L 145.085856 179.930097 
L 147.648919 179.930097 
L 149.357627 180.399845 
L 158.072038 180.399845 
L 158.072038 179.930097 
L 157.901167 179.225476 
L 158.072038 178.990602 
L 158.41378 178.755728 
L 158.41378 178.285981 
L 158.242909 178.051107 
L 158.072038 178.051107 
L 158.072038 178.285981 
L 158.41378 178.520854 
L 161.660325 179.930097 
L 163.710775 180.634718 
L 165.419483 181.574214 
L 166.615579 182.513709 
L 167.982545 183.21833 
L 173.621282 184.862447 
L 173.621282 186.506563 
L 175.500861 187.211184 
L 180.456115 187.446058 
L 185.411368 187.915806 
L 189.85401 187.915806 
L 195.321876 188.15068 
L 202.327579 187.915806 
L 204.378029 188.855301 
L 201.473225 190.264544 
L 202.327579 189.794796 
L 193.613167 190.02967 
L 188.999656 189.794796 
L 180.797856 189.090175 
L 164.736 186.036816 
L 153.800268 183.688078 
L 135.34622 177.111612 
L 123.385263 173.353631 
L 105.102086 164.193553 
L 94.678967 160.435573 
L 83.914105 151.980117 
L 78.787981 147.517515 
L 75.028823 135.773825 
L 74.34534 131.311223 
L 73.832727 114.870058 
L 73.832727 66.016311 
L 73.832727 66.016311 
" clip-path="url(#pb9222ca3f5)" style="fill: none; stroke: #000000; stroke-width: 1.5; stroke-linecap: square"/>
   </g>
   <g id="line2d_6">
    <path d="M 321.937148 248.278369 
" clip-path="url(#pb9222ca3f5)" style="fill: none; stroke: #000000; stroke-width: 1.5; stroke-linecap: square"/>
    <defs>
     <path id="m0573308e29" d="M 0 5 
C 1.326016 5 2.597899 4.473168 3.535534 3.535534 
C 4.473168 2.597899 5 1.326016 5 0 
C 5 -1.326016 4.473168 -2.597899 3.535534 -3.535534 
C 2.597899 -4.473168 1.326016 -5 0 -5 
C -1.326016 -5 -2.597899 -4.473168 -3.535534 -3.535534 
C -4.473168 -2.597899 -5 -1.326016 -5 0 
C -5 1.326016 -4.473168 2.597899 -3.535534 3.535534 
C -2.597899 4.473168 -1.326016 5 0 5 
z
" style="stroke: #000000"/>
    </defs>
    <g clip-path="url(#pb9222ca3f5)">
     <use xlink:href="#m0573308e29" x="321.937148" y="248.278369" style="stroke: #000000"/>
    </g>
   </g>
   <g id="line2d_7">
    <path d="M 73.832727 66.016311 
" clip-path="url(#pb9222ca3f5)" style="fill: none; stroke: #000000; stroke-width: 1.5; stroke-linecap: square"/>
    <defs>
     <path id="me1423fe8ac" d="M -5 5 
L 5 5 
L 5 -5 
L -5 -5 
z
" style="stroke: #000000; stroke-linejoin: miter"/>
    </defs>
    <g clip-path="url(#pb9222ca3f5)">
     <use xlink:href="#me1423fe8ac" x="73.832727" y="66.016311" style="stroke: #000000; stroke-linejoin: miter"/>
    </g>
   </g>
   <g id="line2d_8">
    <path d="M 143.71889 174.058252 
L 141.497569 174.058252 
L 140.301474 173.118757 
L 139.788861 172.179262 
L 139.61799 171.474641 
L 140.472344 170.300272 
L 141.155828 169.830524 
L 143.035407 169.59565 
L 145.085856 169.125903 
L 147.648919 169.125903 
L 149.357627 168.656155 
L 158.072038 168.656155 
L 158.072038 169.125903 
L 157.901167 169.830524 
L 158.072038 170.065398 
L 158.41378 170.300272 
L 158.41378 170.770019 
L 158.242909 171.004893 
L 158.072038 171.004893 
L 158.072038 170.770019 
L 158.41378 170.535146 
L 161.660325 169.125903 
L 163.710775 168.421282 
L 165.419483 167.481786 
L 166.615579 166.542291 
L 167.982545 165.83767 
L 173.621282 164.193553 
L 173.621282 162.549437 
L 175.500861 161.844816 
L 180.456115 161.609942 
L 185.411368 161.140194 
L 189.85401 161.140194 
L 195.321876 160.90532 
L 202.327579 161.140194 
L 204.378029 160.200699 
L 201.473225 158.791456 
L 202.327579 159.261204 
L 193.613167 159.02633 
L 188.999656 159.261204 
L 180.797856 159.965825 
L 164.736 163.019184 
L 153.800268 165.367922 
L 135.34622 171.944388 
L 123.385263 175.702369 
L 105.102086 184.862447 
L 94.678967 188.620427 
L 83.914105 197.075883 
L 78.787981 201.538485 
L 75.028823 213.282175 
L 74.34534 217.744777 
L 73.832727 234.185942 
L 73.832727 283.039689 
L 73.832727 53.568 
L 73.832727 53.568 
L 106.639923 53.568 
L 111.253435 54.507495 
L 115.525206 57.795728 
L 119.113493 60.144466 
L 123.556134 62.728078 
L 127.998775 65.781437 
L 131.07445 68.130175 
L 133.29577 68.834796 
L 135.175349 68.599922 
L 136.884057 67.895301 
L 137.909282 66.486058 
L 138.763636 64.372194 
L 140.472344 62.023456 
L 142.010182 61.083961 
L 142.693665 60.144466 
L 143.377148 59.674718 
L 143.71889 59.204971 
L 144.060632 58.970097 
L 144.060632 58.735223 
L 143.889761 58.265476 
L 143.889761 57.795728 
L 143.889761 57.795728 
L 144.060632 58.030602 
L 143.206278 57.795728 
L 143.71889 57.325981 
L 143.889761 56.856233 
L 144.573244 56.386485 
L 146.111081 56.386485 
L 147.648919 57.091107 
L 149.870239 57.560854 
L 152.604172 58.50035 
L 152.945914 58.265476 
L 152.775043 57.091107 
L 152.262431 55.44699 
L 151.408077 54.272621 
L 148.503273 53.568 
L 109.373856 53.568 
L 140.984957 53.568 
L 149.699368 57.325981 
L 159.609876 64.607068 
L 169.349512 68.599922 
L 178.918278 69.06967 
L 187.80356 66.486058 
L 196.005359 61.553709 
L 203.181933 56.151612 
L 208.649799 54.507495 
L 214.801148 53.802874 
L 222.319464 53.568 
L 320.057569 53.568 
L 320.22844 58.970097 
L 318.861474 64.372194 
L 314.418833 68.130175 
L 309.63445 68.365049 
L 302.628746 65.076816 
L 294.426947 58.030602 
L 284.687311 55.212117 
L 273.068096 54.037748 
L 247.266603 53.568 
L 180.968727 53.568 
L 294.426947 53.568 
L 300.920038 58.50035 
L 305.875292 64.372194 
L 314.077091 72.123029 
L 315.273187 73.532272 
L 314.760574 73.767146 
L 311.85577 74.002019 
L 306.729646 74.002019 
L 300.578297 73.062524 
L 292.547368 71.653282 
L 283.320344 69.539417 
L 272.555483 66.251184 
L 260.936268 62.023456 
L 248.291828 57.091107 
L 234.451292 54.742369 
L 220.952498 54.037748 
L 192.417072 53.568 
L 123.897876 53.568 
L 184.215273 53.568 
L 184.727885 54.507495 
L 185.069627 66.720932 
L 184.727885 78.699495 
L 183.531789 89.973437 
L 181.993952 101.012505 
L 180.114373 110.877204 
L 173.450411 131.546097 
L 169.178641 141.410796 
L 163.881646 148.691883 
L 157.901167 153.624233 
L 152.604172 155.972971 
L 147.307177 155.972971 
L 142.010182 154.093981 
L 136.713187 150.805748 
L 131.245321 147.047767 
L 125.948325 142.350291 
L 129.536612 141.410796 
L 130.903579 135.538951 
L 122.189167 124.734757 
L 117.063043 116.514175 
L 111.595177 108.998214 
L 106.639923 101.247379 
L 103.222507 95.14066 
L 101.001187 90.208311 
L 100.146833 87.624699 
L 100.317703 85.041087 
L 100.830316 82.69235 
L 102.026411 82.222602 
L 103.393378 82.927223 
L 105.102086 85.041087 
L 107.323407 88.32932 
L 109.715598 93.496544 
L 112.107789 100.307883 
L 114.158239 106.88435 
L 114.670852 115.339806 
L 115.012593 117.923417 
L 113.987368 120.976777 
L 112.107789 120.976777 
L 110.05734 118.628039 
L 107.152536 115.809553 
L 103.051636 111.581825 
L 99.975962 106.88435 
L 92.457646 94.905786 
L 90.065455 89.268816 
L 86.98978 83.631845 
L 86.306297 80.813359 
L 84.597589 70.713786 
L 84.93933 65.311689 
L 85.622813 58.970097 
L 86.98978 55.44699 
L 89.04023 54.272621 
L 91.090679 53.802874 
L 93.653742 53.568 
L 109.715598 53.568 
L 73.832727 53.568 
L 73.832727 53.568 
L 73.832727 141.175922 
L 76.908402 146.108272 
L 87.160651 151.040621 
L 125.777455 164.898175 
L 133.979254 168.186408 
L 141.326699 170.770019 
L 149.186756 173.823379 
L 157.388555 176.40699 
L 166.444708 178.755728 
L 175.500861 180.634718 
L 209.162411 184.392699 
L 222.661206 185.801942 
L 236.843483 186.976311 
L 263.670201 190.734291 
L 279.390316 193.083029 
L 290.667789 195.666641 
L 303.141359 198.72 
L 324.671081 204.591845 
L 341.416421 208.819573 
L 347.055158 209.993942 
L 355.94044 212.34268 
L 365.338335 213.282175 
L 368.926622 213.047301 
L 371.660555 213.047301 
L 374.223617 212.34268 
L 376.786679 211.872932 
L 379.520612 211.168311 
L 386.013703 209.054447 
L 388.235024 208.584699 
L 391.823311 208.584699 
L 394.044632 209.28932 
L 395.582469 210.463689 
L 396.095081 212.107806 
L 395.582469 214.22167 
L 394.728115 215.630913 
L 393.190278 216.805282 
L 391.994182 217.97965 
L 388.576766 219.623767 
L 387.209799 220.093515 
L 383.963254 220.093515 
L 381.400191 220.563262 
L 377.982775 220.798136 
L 374.9071 220.798136 
L 372.68578 221.03301 
L 370.977072 221.03301 
L 369.097493 221.502757 
L 367.559656 221.737631 
L 367.047043 221.972505 
L 366.021818 222.207379 
L 364.996593 222.677126 
L 365.167464 222.912 
L 365.850947 223.146874 
L 371.147943 223.146874 
L 372.68578 222.912 
L 372.856651 222.442252 
L 375.419713 220.328388 
L 376.274067 220.093515 
L 376.786679 219.388893 
L 377.299292 218.919146 
L 378.153646 217.275029 
L 378.837129 216.805282 
L 379.008 216.335534 
L 378.666258 215.161165 
L 378.153646 214.691417 
L 377.641033 213.986796 
L 376.103196 213.047301 
L 375.248842 212.107806 
L 374.9071 211.403184 
L 372.68578 209.993942 
L 372.002297 209.759068 
L 371.318813 209.759068 
L 371.831426 209.993942 
L 372.002297 209.524194 
L 371.660555 209.28932 
L 372.002297 207.41033 
L 371.489684 206.235961 
L 372.173167 205.061592 
L 372.173167 201.773359 
L 372.344038 200.129243 
L 373.369263 197.780505 
L 373.711005 196.371262 
L 374.9071 194.257398 
L 375.932325 193.552777 
L 377.299292 193.083029 
L 380.033225 191.204039 
L 380.887579 190.264544 
L 381.229321 189.559922 
L 381.741933 188.855301 
L 381.741933 187.680932 
L 382.425416 186.976311 
L 382.254545 186.506563 
L 382.767158 185.801942 
L 383.1089 185.09732 
L 383.792383 184.392699 
L 384.134124 183.453204 
L 384.304995 182.278835 
L 384.134124 181.33934 
L 383.621512 180.399845 
L 382.083675 179.225476 
L 380.374967 178.520854 
L 376.786679 176.40699 
L 374.565359 175.232621 
L 375.419713 174.997748 
L 376.274067 175.232621 
L 376.615809 175.467495 
L 377.299292 176.172117 
L 378.666258 176.172117 
L 379.520612 176.40699 
L 381.05845 177.111612 
L 383.1089 177.816233 
L 385.159349 178.285981 
L 387.551541 178.990602 
L 389.772861 179.46035 
L 391.139828 179.930097 
L 394.898986 180.399845 
L 395.75334 180.634718 
L 394.728115 180.399845 
L 389.43112 176.172117 
L 387.038928 174.058252 
L 379.520612 169.59565 
L 375.590584 168.421282 
L 367.388785 165.367922 
L 352.010411 161.609942 
L 338.853359 159.02633 
L 334.92333 159.02633 
L 334.92333 159.02633 
L 326.55066 157.382214 
L 323.133244 157.617087 
L 311.85577 155.972971 
L 305.53355 155.26835 
L 302.970488 156.442718 
L 302.970488 156.442718 
" clip-path="url(#pb9222ca3f5)" style="fill: none; stroke: #ffa07a; stroke-width: 1.5; stroke-linecap: square"/>
   </g>
   <g id="line2d_9">
    <path d="M 143.71889 174.058252 
" clip-path="url(#pb9222ca3f5)" style="fill: none; stroke: #ffa07a; stroke-width: 1.5; stroke-linecap: square"/>
    <defs>
     <path id="m6530b02d73" d="M 0 5 
C 1.326016 5 2.597899 4.473168 3.535534 3.535534 
C 4.473168 2.597899 5 1.326016 5 0 
C 5 -1.326016 4.473168 -2.597899 3.535534 -3.535534 
C 2.597899 -4.473168 1.326016 -5 0 -5 
C -1.326016 -5 -2.597899 -4.473168 -3.535534 -3.535534 
C -4.473168 -2.597899 -5 -1.326016 -5 0 
C -5 1.326016 -4.473168 2.597899 -3.535534 3.535534 
C -2.597899 4.473168 -1.326016 5 0 5 
z
" style="stroke: #ffa07a"/>
    </defs>
    <g clip-path="url(#pb9222ca3f5)">
     <use xlink:href="#m6530b02d73" x="143.71889" y="174.058252" style="fill: #ffa07a; stroke: #ffa07a"/>
    </g>
   </g>
   <g id="line2d_10">
    <path d="M 302.970488 156.442718 
" clip-path="url(#pb9222ca3f5)" style="fill: none; stroke: #ffa07a; stroke-width: 1.5; stroke-linecap: square"/>
    <defs>
     <path id="m4f1b49b558" d="M -5 5 
L 5 5 
L 5 -5 
L -5 -5 
z
" style="stroke: #ffa07a; stroke-linejoin: miter"/>
    </defs>
    <g clip-path="url(#pb9222ca3f5)">
     <use xlink:href="#m4f1b49b558" x="302.970488" y="156.442718" style="fill: #ffa07a; stroke: #ffa07a; stroke-linejoin: miter"/>
    </g>
   </g>
   <g id="line2d_11">
    <path d="M 372.002297 141.64567 
L 371.489684 142.820039 
L 372.173167 143.994408 
L 372.173167 147.282641 
L 372.344038 148.926757 
L 373.369263 151.275495 
L 373.711005 152.684738 
L 374.9071 154.798602 
L 375.932325 155.503223 
L 377.299292 155.972971 
L 380.033225 157.851961 
L 380.887579 158.791456 
L 381.229321 159.496078 
L 381.741933 160.200699 
L 381.741933 161.375068 
L 382.425416 162.079689 
L 382.254545 162.549437 
L 382.767158 163.254058 
L 383.1089 163.95868 
L 383.792383 164.663301 
L 384.134124 165.602796 
L 384.304995 166.777165 
L 384.134124 167.71666 
L 383.621512 168.656155 
L 382.083675 169.830524 
L 380.374967 170.535146 
L 376.786679 172.64901 
L 374.565359 173.823379 
L 375.419713 174.058252 
L 376.274067 173.823379 
L 376.615809 173.588505 
L 377.299292 172.883883 
L 378.666258 172.883883 
L 379.520612 172.64901 
L 381.05845 171.944388 
L 383.1089 171.239767 
L 385.159349 170.770019 
L 387.551541 170.065398 
L 389.772861 169.59565 
L 391.139828 169.125903 
L 394.898986 168.656155 
L 395.75334 168.421282 
L 394.728115 168.656155 
L 389.43112 172.883883 
L 387.038928 174.997748 
L 379.520612 179.46035 
L 375.590584 180.634718 
L 367.388785 183.688078 
L 352.010411 187.446058 
L 338.853359 190.02967 
L 334.92333 190.02967 
L 334.92333 190.02967 
L 326.55066 191.673786 
L 323.133244 191.438913 
L 311.85577 193.083029 
L 305.53355 193.78765 
L 302.970488 192.613282 
L 301.432651 156.442718 
L 304.850067 157.851961 
L 312.368383 158.086835 
L 335.948555 157.617087 
L 341.24555 158.086835 
L 352.181282 157.382214 
L 356.111311 157.14734 
L 359.870469 155.738097 
L 360.724823 157.382214 
L 359.357856 157.851961 
L 357.99089 161.140194 
L 354.744344 164.428427 
L 349.276478 168.891029 
L 295.452172 181.574214 
L 252.392727 181.104466 
L 235.134775 177.346485 
L 224.540785 175.232621 
L 216.680727 174.528 
L 212.067215 173.588505 
L 213.263311 174.293126 
L 213.263311 174.997748 
L 212.579828 175.937243 
L 211.383732 176.876738 
L 210.016766 178.285981 
L 209.333282 179.695223 
L 206.941091 181.33934 
L 206.257608 182.278835 
L 204.890641 183.21833 
L 205.232383 183.453204 
L 205.232383 183.453204 
L 215.484632 182.513709 
L 223.002947 181.104466 
L 226.591234 181.33934 
L 231.88823 181.574214 
L 236.501742 181.33934 
L 241.286124 180.634718 
L 246.924861 179.225476 
L 252.392727 178.755728 
L 259.398431 177.346485 
L 268.454584 174.762874 
L 273.751579 173.588505 
L 278.706833 171.944388 
L 285.029053 170.770019 
L 297.16088 167.951534 
L 302.970488 166.777165 
L 308.096612 165.602796 
L 313.564478 164.193553 
L 317.494507 163.019184 
L 320.399311 160.670447 
L 323.304115 159.965825 
L 325.696306 158.791456 
L 327.405014 158.556583 
L 326.892402 158.791456 
L 326.038048 159.02633 
L 324.671081 159.730951 
L 322.108019 160.435573 
L 318.348861 162.079689 
L 315.273187 162.549437 
L 313.564478 163.95868 
L 310.830545 165.83767 
L 309.463579 167.481786 
L 311.343158 169.125903 
L 314.418833 170.770019 
L 318.690603 171.709515 
L 325.525435 172.414136 
L 333.214622 172.414136 
L 342.441646 171.709515 
L 349.447349 170.300272 
L 362.604402 165.367922 
L 370.122718 163.95868 
L 380.374967 161.844816 
L 386.013703 162.784311 
L 390.627215 163.95868 
L 394.728115 165.83767 
L 396.607694 167.951534 
L 397.632919 169.59565 
L 397.97466 171.474641 
L 398.316402 172.64901 
L 398.316402 173.823379 
L 398.487273 173.823379 
L 398.487273 169.360777 
L 396.949435 169.59565 
L 397.632919 165.602796 
L 391.310699 165.602796 
L 381.05845 164.428427 
L 371.489684 163.95868 
L 362.604402 164.193553 
L 348.763866 167.481786 
L 341.758163 170.535146 
L 329.968077 176.876738 
L 322.108019 182.513709 
L 319.374086 186.036816 
L 315.95667 190.969165 
L 312.197512 197.310757 
L 307.584 204.356971 
L 301.774392 211.638058 
L 295.110431 218.684272 
L 274.264191 241.467029 
L 267.7711 249.217864 
L 261.107139 256.733825 
L 254.614048 264.48466 
L 249.487923 272.000621 
L 245.387024 279.281709 
L 241.456995 285.858175 
L 238.723062 291.495146 
L 235.476517 293.374136 
L 231.375617 294.313631 
L 375.590584 294.313631 
L 125.948325 294.313631 
L 236.501742 294.313631 
L 270.846775 290.320777 
L 308.438354 278.577087 
L 342.612517 267.538019 
L 371.318813 259.082563 
L 385.159349 252.975845 
L 391.994182 247.104 
L 395.411598 240.762408 
L 396.949435 235.360311 
L 397.803789 229.72334 
L 398.145531 223.381748 
L 398.316402 216.805282 
L 398.316402 208.584699 
L 398.487273 199.189748 
L 398.487273 151.980117 
L 398.487273 213.047301 
L 398.487273 189.559922 
L 394.215502 182.278835 
L 387.893282 177.111612 
L 379.349742 172.414136 
L 368.41401 168.656155 
L 359.528727 166.072544 
L 355.086086 164.898175 
L 338.682488 161.375068 
L 333.043751 161.375068 
L 335.948555 159.261204 
L 340.049455 157.617087 
L 341.758163 157.14734 
L 345.004708 157.14734 
L 347.055158 156.677592 
L 346.542545 155.033476 
L 349.276478 154.328854 
L 350.472574 152.449864 
L 349.447349 148.926757 
L 348.763866 144.699029 
L 345.517321 139.296932 
L 339.707713 131.311223 
L 335.435943 128.02299 
L 330.993301 122.855767 
L 332.189397 121.446524 
L 334.92333 120.741903 
L 338.682488 121.681398 
L 342.783388 124.030136 
L 342.270775 126.613748 
L 340.903809 129.901981 
L 338.340746 133.659961 
L 335.777684 137.887689 
L 332.360268 141.410796 
L 327.234144 144.229282 
L 319.544957 146.578019 
L 313.393608 148.926757 
L 311.514029 150.570874 
L 305.191809 151.275495 
L 300.578297 152.21499 
L 294.256077 153.624233 
L 285.883407 155.033476 
L 256.322756 162.314563 
L 244.874411 166.072544 
L 233.255196 171.004893 
L 224.540785 176.172117 
L 215.826373 180.164971 
L 209.162411 183.922951 
L 204.890641 187.915806 
L 201.644096 193.552777 
L 195.834488 199.189748 
L 187.290947 204.826718 
L 174.646507 213.986796 
L 162.002067 222.442252 
L 156.534201 225.730485 
L 151.749818 228.079223 
L 146.794565 229.72334 
L 144.231502 231.60233 
L 140.643215 233.951068 
L 138.251024 236.53468 
L 134.320995 238.648544 
L 130.561837 239.822913 
L 126.802679 241.701903 
L 123.214392 243.111146 
L 118.259139 244.285515 
L 114.32911 246.399379 
L 108.861244 248.278369 
L 104.760344 249.922485 
L 100.830316 251.331728 
L 99.292478 252.975845 
L 99.463349 254.854835 
L 99.292478 257.67332 
L 99.975962 262.840544 
L 101.513799 270.356505 
L 104.418603 280.221204 
L 108.861244 289.616155 
L 114.670852 292.669515 
L 127.315292 293.843883 
L 166.273837 294.313631 
L 398.487273 294.313631 
L 370.806201 294.313631 
L 352.864766 284.448932 
L 340.732938 270.591379 
L 331.505914 261.196427 
L 323.304115 251.801476 
L 316.298411 241.232155 
L 305.020938 227.374602 
L 296.306526 211.403184 
L 289.300823 197.310757 
L 284.858182 184.862447 
L 282.46599 173.118757 
L 283.320344 161.140194 
L 285.541665 147.047767 
L 291.180402 130.136854 
L 311.514029 91.147806 
L 318.348861 79.873864 
L 331.676785 62.493204 
L 343.637742 56.621359 
L 357.820019 54.507495 
L 364.31311 53.802874 
L 379.008 53.568 
L 396.265952 53.568 
L 73.832727 53.568 
L 73.832727 53.568 
L 73.832727 141.175922 
L 73.832727 133.894835 
L 105.443828 130.606602 
L 133.637512 128.02299 
L 146.794565 221.972505 
L 171.399962 223.381748 
L 191.220976 223.616621 
L 205.232383 221.03301 
L 220.269014 215.630913 
L 231.033876 210.698563 
L 247.095732 200.59899 
L 252.221856 196.371262 
L 267.60023 183.453204 
L 281.611636 174.293126 
L 295.623043 166.072544 
L 308.438354 157.382214 
L 320.741053 147.987262 
L 332.018526 138.827184 
L 336.632038 134.83433 
L 348.763866 122.620893 
L 352.864766 116.749049 
L 352.523024 113.695689 
L 353.88999 111.112078 
L 356.794794 109.467961 
L 359.186986 107.588971 
L 361.579177 105.240233 
L 362.775273 101.717126 
L 365.167464 97.959146 
L 365.509206 93.731417 
L 363.629627 91.852427 
L 356.282182 85.041087 
L 354.402603 82.457476 
L 348.080383 76.820505 
L 338.340746 68.365049 
L 331.505914 65.076816 
L 315.95667 59.204971 
L 306.900517 57.091107 
L 298.869589 55.681864 
L 285.541665 54.742369 
L 238.723062 54.742369 
L 233.426067 58.030602 
L 230.692134 60.37934 
L 224.711656 67.895301 
L 223.51556 70.94866 
L 222.319464 79.63899 
L 224.199043 84.57134 
L 226.591234 89.268816 
L 229.154297 93.731417 
L 230.521263 98.428893 
L 230.863005 104.065864 
L 233.084325 109.702835 
L 235.818258 116.044427 
L 237.526967 123.325515 
L 239.406545 130.371728 
L 241.969608 138.122563 
L 245.216153 146.108272 
L 250.000536 153.859107 
L 254.101435 161.140194 
L 257.689722 168.421282 
L 269.650679 185.567068 
L 271.188517 188.15068 
L 274.605933 193.083029 
L 282.29512 202.947728 
L 288.275598 207.880078 
L 291.180402 209.524194 
L 291.180402 209.524194 
" clip-path="url(#pb9222ca3f5)" style="fill: none; stroke: #0000ff; stroke-width: 1.5; stroke-linecap: square"/>
   </g>
   <g id="line2d_12">
    <path d="M 372.002297 141.64567 
" clip-path="url(#pb9222ca3f5)" style="fill: none; stroke: #0000ff; stroke-width: 1.5; stroke-linecap: square"/>
    <defs>
     <path id="m0ba277c3a4" d="M 0 5 
C 1.326016 5 2.597899 4.473168 3.535534 3.535534 
C 4.473168 2.597899 5 1.326016 5 0 
C 5 -1.326016 4.473168 -2.597899 3.535534 -3.535534 
C 2.597899 -4.473168 1.326016 -5 0 -5 
C -1.326016 -5 -2.597899 -4.473168 -3.535534 -3.535534 
C -4.473168 -2.597899 -5 -1.326016 -5 0 
C -5 1.326016 -4.473168 2.597899 -3.535534 3.535534 
C -2.597899 4.473168 -1.326016 5 0 5 
z
" style="stroke: #0000ff"/>
    </defs>
    <g clip-path="url(#pb9222ca3f5)">
     <use xlink:href="#m0ba277c3a4" x="372.002297" y="141.64567" style="fill: #0000ff; stroke: #0000ff"/>
    </g>
   </g>
   <g id="line2d_13">
    <path d="M 291.180402 209.524194 
" clip-path="url(#pb9222ca3f5)" style="fill: none; stroke: #0000ff; stroke-width: 1.5; stroke-linecap: square"/>
    <defs>
     <path id="mc94218b592" d="M -5 5 
L 5 5 
L 5 -5 
L -5 -5 
z
" style="stroke: #0000ff; stroke-linejoin: miter"/>
    </defs>
    <g clip-path="url(#pb9222ca3f5)">
     <use xlink:href="#mc94218b592" x="291.180402" y="209.524194" style="fill: #0000ff; stroke: #0000ff; stroke-linejoin: miter"/>
    </g>
   </g>
   <g id="line2d_14">
    <path d="M 398.487273 236.53468 
L 398.487273 205.061592 
L 398.487273 206.235961 
L 367.901397 210.228816 
L 352.010411 210.228816 
L 338.511617 211.638058 
L 324.158469 213.517049 
L 314.077091 214.22167 
L 308.780096 215.630913 
L 303.4831 216.805282 
L 296.648268 218.919146 
L 294.085206 220.798136 
L 289.300823 221.267883 
L 291.522144 222.442252 
L 299.723943 223.851495 
L 300.920038 223.146874 
L 304.166584 223.381748 
L 307.413129 222.912 
L 316.469282 223.146874 
L 330.309818 222.677126 
L 346.371675 222.677126 
L 357.136536 221.737631 
L 362.775273 221.502757 
L 367.730526 221.03301 
L 372.856651 221.267883 
L 380.374967 221.972505 
L 389.60199 223.146874 
L 394.215502 223.616621 
L 396.436823 224.79099 
L 397.97466 226.435107 
L 398.487273 228.079223 
L 398.487273 205.766214 
L 398.487273 205.766214 
L 391.994182 206.470835 
L 389.43112 207.175456 
L 387.551541 206.940583 
L 384.304995 207.645204 
L 382.083675 208.349825 
L 380.545837 208.584699 
L 379.349742 207.880078 
L 375.590584 207.175456 
L 372.173167 208.114951 
L 370.806201 208.349825 
L 369.097493 208.819573 
L 364.142239 209.28932 
L 361.066565 209.054447 
L 358.161761 209.28932 
L 355.427828 210.228816 
L 353.548249 211.638058 
L 352.181282 213.047301 
L 351.839541 214.456544 
L 352.181282 216.10066 
L 351.839541 217.275029 
L 353.035636 218.449398 
L 354.744344 219.623767 
L 355.769569 220.798136 
L 356.794794 221.737631 
L 359.016115 222.442252 
L 362.946144 224.321243 
L 364.996593 225.495612 
L 366.021818 226.435107 
L 367.047043 227.609476 
L 364.654852 230.897709 
L 364.825722 232.776699 
L 363.629627 234.655689 
L 361.237435 236.064932 
L 359.528727 237.709049 
L 357.99089 239.588039 
L 356.111311 242.17165 
L 354.231732 243.346019 
L 353.206507 244.285515 
L 353.548249 245.694757 
L 355.086086 246.869126 
L 357.136536 247.573748 
L 360.04134 248.748117 
L 362.604402 248.98299 
L 365.680077 250.157359 
L 367.559656 251.331728 
L 369.439234 251.331728 
L 371.660555 250.861981 
L 373.198392 249.687612 
L 379.520612 247.338874 
L 382.938029 245.694757 
L 386.697187 244.050641 
L 394.898986 241.232155 
L 396.778565 239.588039 
L 397.632919 238.41367 
L 398.145531 236.769553 
L 398.316402 234.890563 
L 398.316402 233.246447 
L 398.487273 231.60233 
L 398.487273 201.303612 
L 398.487273 217.275029 
L 396.949435 219.154019 
L 395.924211 221.502757 
L 395.411598 223.851495 
L 395.069856 226.904854 
L 393.873761 230.193087 
L 390.968957 233.48132 
L 384.988478 237.709049 
L 376.444938 242.641398 
L 366.192689 247.808621 
L 355.598699 253.445592 
L 339.707713 264.249786 
L 328.942852 268.477515 
L 322.27889 271.296 
L 317.152766 274.584233 
L 313.564478 277.402718 
L 311.343158 279.516583 
L 310.147062 281.160699 
L 309.121837 283.744311 
L 309.463579 284.683806 
L 309.976191 285.623301 
L 310.317933 285.858175 
L 309.63445 285.623301 
L 307.754871 283.509437 
L 307.925742 281.86532 
L 310.147062 279.751456 
L 314.760574 278.811961 
L 320.741053 278.577087 
L 329.113722 278.811961 
L 336.632038 280.221204 
L 348.763866 280.690951 
L 359.186986 281.86532 
L 372.344038 281.395573 
L 383.450641 281.160699 
L 391.139828 278.342214 
L 394.898986 276.22835 
L 396.778565 270.356505 
L 397.632919 266.598524 
L 398.145531 262.370796 
L 398.316402 258.143068 
L 398.316402 248.043495 
L 398.487273 242.406524 
L 398.487273 294.313631 
L 398.487273 138.592311 
L 397.120306 136.71332 
L 387.209799 130.841476 
L 377.641033 127.553243 
L 368.072268 126.144 
L 357.649148 123.795262 
L 346.884287 120.507029 
L 334.068976 116.044427 
L 328.942852 116.514175 
L 319.886699 112.051573 
L 313.222737 107.823845 
L 313.90622 107.119223 
L 306.217033 95.375534 
L 312.880995 95.610408 
L 320.399311 97.254524 
L 326.379789 98.898641 
L 332.360268 99.838136 
L 334.752459 99.603262 
L 343.125129 101.717126 
L 346.029933 102.891495 
L 348.422124 105.240233 
L 354.744344 108.76334 
L 359.870469 112.52132 
L 366.876172 117.218796 
L 373.198392 121.681398 
L 377.641033 125.204505 
L 380.887579 128.02299 
L 374.73623 129.432233 
L 372.514909 136.478447 
L 371.660555 139.76668 
L 369.780976 142.820039 
L 363.629627 148.45701 
L 360.553952 151.040621 
L 357.307407 154.093981 
L 355.086086 157.382214 
L 353.035636 160.670447 
L 348.080383 170.770019 
L 347.3969 173.353631 
L 347.226029 175.467495 
L 347.226029 177.111612 
L 348.251254 179.46035 
L 347.226029 179.46035 
L 346.029933 179.930097 
L 341.758163 179.930097 
L 338.682488 179.225476 
L 336.290297 179.225476 
L 334.239847 179.695223 
L 332.531139 180.399845 
L 331.164172 181.33934 
L 329.797206 183.922951 
L 328.430239 184.157825 
L 328.259368 185.332194 
L 327.917627 186.271689 
L 328.088498 186.741437 
L 327.917627 187.915806 
L 327.234144 188.855301 
L 327.405014 189.325049 
L 328.259368 189.794796 
L 328.430239 190.02967 
L 328.942852 190.02967 
L 329.455464 190.264544 
L 329.797206 158.556583 
L 329.797206 158.556583 
L 329.968077 158.556583 
L 328.259368 159.02633 
L 327.405014 159.730951 
L 326.038048 159.965825 
L 324.32934 161.844816 
L 323.474986 163.254058 
L 323.645856 164.193553 
L 323.133244 164.898175 
L 322.620632 165.367922 
L 321.424536 169.125903 
L 321.424536 170.535146 
L 321.595407 171.239767 
L 321.595407 171.239767 
L 321.424536 172.179262 
L 322.620632 174.058252 
L 323.816727 178.990602 
L 323.987598 181.574214 
L 323.816727 184.862447 
L 320.399311 189.794796 
L 312.539254 199.424621 
L 309.463579 202.243107 
L 304.166584 206.235961 
L 298.186105 209.993942 
L 292.718239 214.22167 
L 287.421244 218.919146 
L 277.168995 229.253592 
L 271.872 234.420816 
L 265.720651 241.232155 
L 257.006239 251.801476 
L 253.417952 258.143068 
L 246.75399 269.41701 
L 239.748287 280.690951 
L 235.818258 286.79767 
L 229.666909 292.669515 
L 224.882526 294.548505 
L 217.535081 295.253126 
L 212.408957 295.488 
L 74.516211 295.488 
L 74.516211 295.488 
" clip-path="url(#pb9222ca3f5)" style="fill: none; stroke: #00fa9a; stroke-width: 1.5; stroke-linecap: square"/>
   </g>
   <g id="line2d_15">
    <path d="M 398.487273 236.53468 
" clip-path="url(#pb9222ca3f5)" style="fill: none; stroke: #00fa9a; stroke-width: 1.5; stroke-linecap: square"/>
    <defs>
     <path id="mb810160b7b" d="M 0 5 
C 1.326016 5 2.597899 4.473168 3.535534 3.535534 
C 4.473168 2.597899 5 1.326016 5 0 
C 5 -1.326016 4.473168 -2.597899 3.535534 -3.535534 
C 2.597899 -4.473168 1.326016 -5 0 -5 
C -1.326016 -5 -2.597899 -4.473168 -3.535534 -3.535534 
C -4.473168 -2.597899 -5 -1.326016 -5 0 
C -5 1.326016 -4.473168 2.597899 -3.535534 3.535534 
C -2.597899 4.473168 -1.326016 5 0 5 
z
" style="stroke: #00fa9a"/>
    </defs>
    <g clip-path="url(#pb9222ca3f5)">
     <use xlink:href="#mb810160b7b" x="398.487273" y="236.53468" style="fill: #00fa9a; stroke: #00fa9a"/>
    </g>
   </g>
   <g id="line2d_16">
    <path d="M 74.516211 295.488 
" clip-path="url(#pb9222ca3f5)" style="fill: none; stroke: #00fa9a; stroke-width: 1.5; stroke-linecap: square"/>
    <defs>
     <path id="m18d49dd90c" d="M -5 5 
L 5 5 
L 5 -5 
L -5 -5 
z
" style="stroke: #00fa9a; stroke-linejoin: miter"/>
    </defs>
    <g clip-path="url(#pb9222ca3f5)">
     <use xlink:href="#m18d49dd90c" x="74.516211" y="295.488" style="fill: #00fa9a; stroke: #00fa9a; stroke-linejoin: miter"/>
    </g>
   </g>
   <g id="line2d_17">
    <path d="M 165.590354 143.52466 
L 163.369033 142.820039 
L 159.097263 141.880544 
L 157.388555 141.410796 
L 153.971139 141.410796 
L 152.775043 140.706175 
L 151.408077 139.76668 
L 149.015885 139.296932 
L 147.819789 138.827184 
L 146.281952 138.357437 
L 145.427598 137.652816 
L 144.573244 137.183068 
L 143.548019 136.478447 
L 143.035407 135.773825 
L 142.864536 135.304078 
L 142.693665 134.129709 
L 143.377148 134.129709 
L 144.402373 133.659961 
L 146.111081 133.659961 
L 147.819789 133.894835 
L 152.433301 135.538951 
L 152.09156 135.304078 
L 151.408077 135.773825 
L 150.382852 135.304078 
L 150.04111 134.83433 
L 149.357627 135.069204 
L 149.699368 135.773825 
L 150.895464 135.773825 
L 151.066335 135.304078 
L 151.578947 135.069204 
L 151.408077 135.069204 
L 150.895464 135.069204 
L 150.211981 135.538951 
L 148.674144 135.069204 
L 148.503273 135.304078 
L 148.503273 135.773825 
L 148.332402 135.773825 
L 148.332402 135.773825 
L 149.186756 136.243573 
L 149.699368 136.243573 
L 149.699368 135.773825 
L 151.237206 134.83433 
L 152.09156 133.894835 
L 151.578947 133.425087 
L 151.408077 132.485592 
L 151.578947 132.015845 
L 152.09156 131.546097 
L 152.262431 130.841476 
L 152.945914 130.371728 
L 154.14201 130.136854 
L 155.167234 129.197359 
L 156.192459 129.197359 
L 158.584651 128.492738 
L 160.122488 128.257864 
L 161.831196 128.257864 
L 166.957321 127.553243 
L 168.8369 127.083495 
L 171.912574 126.144 
L 173.279541 126.144 
L 174.133895 125.674252 
L 175.15912 125.439379 
L 176.013474 124.969631 
L 176.184344 124.26501 
L 175.842603 122.386019 
L 175.500861 121.446524 
L 171.399962 120.037282 
L 167.469933 118.158291 
L 163.710775 116.044427 
L 162.002067 113.930563 
L 161.831196 113.225942 
L 162.172938 112.52132 
L 163.710775 111.581825 
L 164.394258 110.64233 
L 164.736 109.702835 
L 164.736 108.293592 
L 165.077742 107.119223 
L 166.444708 106.88435 
L 168.153416 106.179728 
L 182.848306 106.649476 
L 187.461818 104.065864 
L 187.80356 101.247379 
L 187.80356 99.838136 
L 188.487043 99.133515 
L 188.487043 99.133515 
L 187.632689 98.663767 
L 187.461818 98.898641 
L 187.632689 99.368388 
L 187.290947 99.603262 
L 186.094852 99.603262 
L 186.265722 99.368388 
L 186.607464 99.603262 
L 186.265722 99.838136 
L 186.778335 99.603262 
L 186.607464 99.603262 
L 185.923981 99.368388 
L 184.727885 98.663767 
L 183.360919 98.194019 
L 182.848306 97.724272 
L 179.43089 96.549903 
L 178.405665 96.784777 
L 177.038699 96.784777 
L 175.671732 96.549903 
L 173.792153 96.080155 
L 165.932096 92.791922 
L 163.710775 92.087301 
L 158.41378 88.799068 
L 154.996364 87.154951 
L 152.945914 85.980583 
L 150.724593 85.275961 
L 146.794565 83.396971 
L 144.744115 82.457476 
L 140.472344 79.404117 
L 138.080153 76.820505 
L 135.858833 75.176388 
L 131.757933 70.713786 
L 128.853129 67.425553 
L 126.460938 65.076816 
L 125.435713 63.432699 
L 123.556134 62.023456 
L 122.018297 61.318835 
L 119.967847 60.144466 
L 117.575656 58.265476 
L 116.892172 57.560854 
L 115.525206 56.856233 
L 112.791273 54.742369 
L 110.569952 54.977243 
L 112.107789 54.977243 
L 111.766048 54.742369 
L 110.399081 54.037748 
L 111.253435 53.568 
L 140.643215 53.568 
L 140.472344 53.568 
L 140.472344 54.272621 
L 141.155828 55.681864 
L 141.66844 57.091107 
L 139.959732 58.50035 
L 137.39667 59.439845 
L 136.542316 59.909592 
L 137.39667 61.083961 
L 136.884057 62.25833 
L 135.517091 63.197825 
L 135.858833 64.13732 
L 134.491866 64.372194 
L 135.175349 65.311689 
L 133.808383 66.016311 
L 132.612287 66.251184 
L 132.099675 66.486058 
L 131.928804 66.251184 
L 132.612287 66.251184 
L 132.783158 66.720932 
L 131.245321 66.720932 
L 133.1249 67.425553 
L 133.1249 68.365049 
L 134.150124 68.834796 
L 134.491866 70.713786 
L 135.517091 72.123029 
L 135.858833 73.297398 
L 136.713187 74.706641 
L 136.371445 75.646136 
L 136.713187 76.585631 
L 138.421895 77.76 
L 137.909282 78.229748 
L 138.934507 79.404117 
L 137.738411 80.108738 
L 136.029703 80.578485 
L 133.637512 81.752854 
L 131.587062 82.457476 
L 126.119196 83.866718 
L 124.75223 86.215456 
L 123.043522 87.624699 
L 120.65133 88.799068 
L 119.967847 89.973437 
L 118.60088 90.912932 
L 118.088268 91.617553 
L 116.550431 92.322175 
L 113.987368 93.026796 
L 112.449531 93.731417 
L 109.373856 93.966291 
L 107.836019 95.375534 
L 105.785569 96.784777 
L 103.051636 97.959146 
L 99.975962 99.603262 
L 99.805091 100.07301 
L 97.4129 101.952 
L 97.4129 103.361243 
L 98.096383 104.300738 
L 98.096383 105.240233 
L 95.020708 104.770485 
L 92.286775 103.596117 
L 90.236325 102.421748 
L 87.502392 101.247379 
L 87.160651 101.247379 
L 86.648038 101.952 
L 86.477167 102.656621 
L 85.793684 103.361243 
L 83.059751 104.065864 
L 78.787981 104.065864 
L 76.224919 103.596117 
L 75.028823 102.656621 
L 74.34534 101.247379 
L 73.832727 94.436039 
L 73.832727 53.568 
L 73.832727 106.414602 
L 74.857952 110.172583 
L 77.250144 113.460816 
L 80.496689 116.514175 
L 82.71801 119.802408 
L 85.793684 122.855767 
L 87.160651 125.204505 
L 88.015005 127.318369 
L 87.844134 130.136854 
L 80.66756 131.546097 
L 77.250144 131.311223 
L 75.541435 132.95534 
L 74.687081 135.304078 
L 74.174469 138.357437 
L 74.003598 140.941049 
L 74.003598 142.820039 
L 73.832727 145.168777 
L 73.832727 195.666641 
L 78.275368 197.545631 
L 84.255847 198.485126 
L 89.723713 198.72 
L 96.387675 198.250252 
L 101.001187 197.310757 
L 103.564249 196.136388 
L 105.102086 195.196893 
L 108.177761 192.613282 
L 112.107789 188.855301 
L 115.866947 186.036816 
L 118.259139 184.392699 
L 120.65133 182.043961 
L 125.093971 179.695223 
L 127.144421 180.164971 
L 129.194871 180.164971 
L 139.788861 180.634718 
L 147.819789 181.33934 
L 151.578947 181.104466 
L 155.338105 181.574214 
L 158.41378 180.869592 
L 160.976842 180.399845 
L 165.419483 179.930097 
L 173.450411 178.520854 
L 176.526086 178.285981 
L 178.405665 177.581359 
L 180.114373 177.111612 
L 185.069627 176.641864 
L 192.758813 175.232621 
L 194.809263 174.528 
L 195.834488 173.823379 
L 197.201455 173.118757 
L 197.543196 172.179262 
L 197.714067 171.004893 
L 198.055809 169.59565 
L 198.739292 168.656155 
L 199.764517 167.012039 
L 203.011062 164.193553 
L 205.744995 162.314563 
L 206.599349 161.375068 
L 209.504153 159.730951 
L 215.313761 156.677592 
L 217.705952 156.442718 
L 217.022469 156.677592 
L 217.022469 156.442718 
L 217.19334 156.207845 
L 217.535081 155.972971 
L 217.19334 155.972971 
L 216.509856 156.207845 
L 215.14289 156.207845 
L 213.946794 156.677592 
L 211.896344 156.677592 
L 199.251904 161.844816 
L 196.517971 162.784311 
L 193.442297 163.488932 
L 190.879234 164.663301 
L 187.974431 165.83767 
L 184.727885 166.777165 
L 182.164823 167.951534 
L 179.089148 169.125903 
L 176.013474 171.004893 
L 172.596057 172.179262 
L 169.520383 173.823379 
L 166.273837 175.232621 
L 162.68555 176.40699 
L 158.926392 177.816233 
L 156.021589 179.225476 
L 153.287656 180.164971 
L 150.382852 181.33934 
L 147.99066 182.513709 
L 145.76934 183.453204 
L 143.206278 184.157825 
L 140.643215 184.627573 
L 139.276249 185.332194 
L 138.080153 185.801942 
L 137.39667 185.801942 
L 136.371445 186.036816 
L 133.637512 185.567068 
L 131.587062 185.567068 
L 128.853129 185.801942 
L 125.606584 185.09732 
L 122.360038 184.627573 
L 115.525206 182.513709 
L 110.569952 180.869592 
L 101.001187 176.172117 
L 94.678967 173.823379 
L 88.698488 171.474641 
L 82.376268 169.125903 
L 78.104498 167.012039 
L 75.883177 165.133049 
L 74.857952 163.254058 
L 74.34534 161.609942 
L 74.003598 159.965825 
L 74.003598 158.791456 
L 73.832727 156.207845 
L 73.832727 139.062058 
L 73.832727 139.062058 
" clip-path="url(#pb9222ca3f5)" style="fill: none; stroke: #008000; stroke-width: 1.5; stroke-linecap: square"/>
   </g>
   <g id="line2d_18">
    <path d="M 165.590354 143.52466 
" clip-path="url(#pb9222ca3f5)" style="fill: none; stroke: #008000; stroke-width: 1.5; stroke-linecap: square"/>
    <defs>
     <path id="ma7b04e9ff7" d="M 0 5 
C 1.326016 5 2.597899 4.473168 3.535534 3.535534 
C 4.473168 2.597899 5 1.326016 5 0 
C 5 -1.326016 4.473168 -2.597899 3.535534 -3.535534 
C 2.597899 -4.473168 1.326016 -5 0 -5 
C -1.326016 -5 -2.597899 -4.473168 -3.535534 -3.535534 
C -4.473168 -2.597899 -5 -1.326016 -5 0 
C -5 1.326016 -4.473168 2.597899 -3.535534 3.535534 
C -2.597899 4.473168 -1.326016 5 0 5 
z
" style="stroke: #008000"/>
    </defs>
    <g clip-path="url(#pb9222ca3f5)">
     <use xlink:href="#ma7b04e9ff7" x="165.590354" y="143.52466" style="fill: #008000; stroke: #008000"/>
    </g>
   </g>
   <g id="line2d_19">
    <path d="M 73.832727 139.062058 
" clip-path="url(#pb9222ca3f5)" style="fill: none; stroke: #008000; stroke-width: 1.5; stroke-linecap: square"/>
    <defs>
     <path id="m16f6d9e522" d="M -5 5 
L 5 5 
L 5 -5 
L -5 -5 
z
" style="stroke: #008000; stroke-linejoin: miter"/>
    </defs>
    <g clip-path="url(#pb9222ca3f5)">
     <use xlink:href="#m16f6d9e522" x="73.832727" y="139.062058" style="fill: #008000; stroke: #008000; stroke-linejoin: miter"/>
    </g>
   </g>
   <g id="line2d_20">
    <path d="M 217.570604 259.377015 
" clip-path="url(#pb9222ca3f5)" style="fill: none; stroke: #ff0000; stroke-width: 1.5; stroke-linecap: square"/>
    <defs>
     <path id="ma1ec197cad" d="M -2.5 5 
L 0 2.5 
L 2.5 5 
L 5 2.5 
L 2.5 0 
L 5 -2.5 
L 2.5 -5 
L 0 -2.5 
L -2.5 -5 
L -5 -2.5 
L -2.5 0 
L -5 2.5 
z
" style="stroke: #ff0000; stroke-linejoin: miter"/>
    </defs>
    <g clip-path="url(#pb9222ca3f5)">
     <use xlink:href="#ma1ec197cad" x="217.570604" y="259.377015" style="fill: #ff0000; stroke: #ff0000; stroke-linejoin: miter"/>
    </g>
   </g>
   <g id="line2d_21">
    <path d="M 350.515292 152.932215 
" clip-path="url(#pb9222ca3f5)" style="fill: none; stroke: #ffa07a; stroke-width: 1.5; stroke-linecap: square"/>
    <defs>
     <path id="m818183ccaa" d="M -2.5 5 
L 0 2.5 
L 2.5 5 
L 5 2.5 
L 2.5 0 
L 5 -2.5 
L 2.5 -5 
L 0 -2.5 
L -2.5 -5 
L -5 -2.5 
L -2.5 0 
L -5 2.5 
z
" style="stroke: #ffa07a; stroke-linejoin: miter"/>
    </defs>
    <g clip-path="url(#pb9222ca3f5)">
     <use xlink:href="#m818183ccaa" x="350.515292" y="152.932215" style="fill: #ffa07a; stroke: #ffa07a; stroke-linejoin: miter"/>
    </g>
   </g>
   <g id="line2d_22">
    <path d="M 150.92694 234.122927 
" clip-path="url(#pb9222ca3f5)" style="fill: none; stroke: #0000ff; stroke-width: 1.5; stroke-linecap: square"/>
    <defs>
     <path id="m45e4e671af" d="M -2.5 5 
L 0 2.5 
L 2.5 5 
L 5 2.5 
L 2.5 0 
L 5 -2.5 
L 2.5 -5 
L 0 -2.5 
L -2.5 -5 
L -5 -2.5 
L -2.5 0 
L -5 2.5 
z
" style="stroke: #0000ff; stroke-linejoin: miter"/>
    </defs>
    <g clip-path="url(#pb9222ca3f5)">
     <use xlink:href="#m45e4e671af" x="150.92694" y="234.122927" style="fill: #0000ff; stroke: #0000ff; stroke-linejoin: miter"/>
    </g>
   </g>
   <g id="line2d_23">
    <path d="M 236.929818 203.67641 
" clip-path="url(#pb9222ca3f5)" style="fill: none; stroke: #00fa9a; stroke-width: 1.5; stroke-linecap: square"/>
    <defs>
     <path id="me596113cad" d="M -2.5 5 
L 0 2.5 
L 2.5 5 
L 5 2.5 
L 2.5 0 
L 5 -2.5 
L 2.5 -5 
L 0 -2.5 
L -2.5 -5 
L -5 -2.5 
L -2.5 0 
L -5 2.5 
z
" style="stroke: #00fa9a; stroke-linejoin: miter"/>
    </defs>
    <g clip-path="url(#pb9222ca3f5)">
     <use xlink:href="#me596113cad" x="236.929818" y="203.67641" style="fill: #00fa9a; stroke: #00fa9a; stroke-linejoin: miter"/>
    </g>
   </g>
   <g id="line2d_24">
    <path d="M 255.60375 239.079337 
" clip-path="url(#pb9222ca3f5)" style="fill: none; stroke: #008000; stroke-width: 1.5; stroke-linecap: square"/>
    <defs>
     <path id="mbb8a159c07" d="M -2.5 5 
L 0 2.5 
L 2.5 5 
L 5 2.5 
L 2.5 0 
L 5 -2.5 
L 2.5 -5 
L 0 -2.5 
L -2.5 -5 
L -5 -2.5 
L -2.5 0 
L -5 2.5 
z
" style="stroke: #008000; stroke-linejoin: miter"/>
    </defs>
    <g clip-path="url(#pb9222ca3f5)">
     <use xlink:href="#mbb8a159c07" x="255.60375" y="239.079337" style="fill: #008000; stroke: #008000; stroke-linejoin: miter"/>
    </g>
   </g>
   <g id="patch_3">
    <path d="M 57.6 307.584 
L 57.6 41.472 
" style="fill: none; stroke: #000000; stroke-width: 0.8; stroke-linejoin: miter; stroke-linecap: square"/>
   </g>
   <g id="patch_4">
    <path d="M 57.6 307.584 
L 414.72 307.584 
" style="fill: none; stroke: #000000; stroke-width: 0.8; stroke-linejoin: miter; stroke-linecap: square"/>
   </g>
   <g id="legend_1">
    <g id="patch_5">
     <path d="M 241.591875 141.54075 
L 404.22 141.54075 
Q 407.22 141.54075 407.22 138.54075 
L 407.22 51.972 
Q 407.22 48.972 404.22 48.972 
L 241.591875 48.972 
Q 238.591875 48.972 238.591875 51.972 
L 238.591875 138.54075 
Q 238.591875 141.54075 241.591875 141.54075 
z
" style="fill: #ffffff; opacity: 0.8; stroke: #cccccc; stroke-linejoin: miter"/>
    </g>
    <g id="line2d_25">
     <path d="M 244.591875 61.119656 
L 259.591875 61.119656 
L 274.591875 61.119656 
" style="fill: none; stroke: #000000; stroke-width: 1.5; stroke-linecap: square"/>
    </g>
    <g id="text_7">
     <!-- Trajectory -->
     <g transform="translate(286.591875 66.369656)scale(0.15 -0.15)">
      <defs>
       <path id="DejaVuSans-54" d="M -19 4666 
L 3928 4666 
L 3928 4134 
L 2272 4134 
L 2272 0 
L 1638 0 
L 1638 4134 
L -19 4134 
L -19 4666 
z
" transform="scale(0.015625)"/>
       <path id="DejaVuSans-72" d="M 2631 2963 
Q 2534 3019 2420 3045 
Q 2306 3072 2169 3072 
Q 1681 3072 1420 2755 
Q 1159 2438 1159 1844 
L 1159 0 
L 581 0 
L 581 3500 
L 1159 3500 
L 1159 2956 
Q 1341 3275 1631 3429 
Q 1922 3584 2338 3584 
Q 2397 3584 2469 3576 
Q 2541 3569 2628 3553 
L 2631 2963 
z
" transform="scale(0.015625)"/>
       <path id="DejaVuSans-61" d="M 2194 1759 
Q 1497 1759 1228 1600 
Q 959 1441 959 1056 
Q 959 750 1161 570 
Q 1363 391 1709 391 
Q 2188 391 2477 730 
Q 2766 1069 2766 1631 
L 2766 1759 
L 2194 1759 
z
M 3341 1997 
L 3341 0 
L 2766 0 
L 2766 531 
Q 2569 213 2275 61 
Q 1981 -91 1556 -91 
Q 1019 -91 701 211 
Q 384 513 384 1019 
Q 384 1609 779 1909 
Q 1175 2209 1959 2209 
L 2766 2209 
L 2766 2266 
Q 2766 2663 2505 2880 
Q 2244 3097 1772 3097 
Q 1472 3097 1187 3025 
Q 903 2953 641 2809 
L 641 3341 
Q 956 3463 1253 3523 
Q 1550 3584 1831 3584 
Q 2591 3584 2966 3190 
Q 3341 2797 3341 1997 
z
" transform="scale(0.015625)"/>
       <path id="DejaVuSans-6a" d="M 603 3500 
L 1178 3500 
L 1178 -63 
Q 1178 -731 923 -1031 
Q 669 -1331 103 -1331 
L -116 -1331 
L -116 -844 
L 38 -844 
Q 366 -844 484 -692 
Q 603 -541 603 -63 
L 603 3500 
z
M 603 4863 
L 1178 4863 
L 1178 4134 
L 603 4134 
L 603 4863 
z
" transform="scale(0.015625)"/>
       <path id="DejaVuSans-65" d="M 3597 1894 
L 3597 1613 
L 953 1613 
Q 991 1019 1311 708 
Q 1631 397 2203 397 
Q 2534 397 2845 478 
Q 3156 559 3463 722 
L 3463 178 
Q 3153 47 2828 -22 
Q 2503 -91 2169 -91 
Q 1331 -91 842 396 
Q 353 884 353 1716 
Q 353 2575 817 3079 
Q 1281 3584 2069 3584 
Q 2775 3584 3186 3129 
Q 3597 2675 3597 1894 
z
M 3022 2063 
Q 3016 2534 2758 2815 
Q 2500 3097 2075 3097 
Q 1594 3097 1305 2825 
Q 1016 2553 972 2059 
L 3022 2063 
z
" transform="scale(0.015625)"/>
       <path id="DejaVuSans-63" d="M 3122 3366 
L 3122 2828 
Q 2878 2963 2633 3030 
Q 2388 3097 2138 3097 
Q 1578 3097 1268 2742 
Q 959 2388 959 1747 
Q 959 1106 1268 751 
Q 1578 397 2138 397 
Q 2388 397 2633 464 
Q 2878 531 3122 666 
L 3122 134 
Q 2881 22 2623 -34 
Q 2366 -91 2075 -91 
Q 1284 -91 818 406 
Q 353 903 353 1747 
Q 353 2603 823 3093 
Q 1294 3584 2113 3584 
Q 2378 3584 2631 3529 
Q 2884 3475 3122 3366 
z
" transform="scale(0.015625)"/>
       <path id="DejaVuSans-74" d="M 1172 4494 
L 1172 3500 
L 2356 3500 
L 2356 3053 
L 1172 3053 
L 1172 1153 
Q 1172 725 1289 603 
Q 1406 481 1766 481 
L 2356 481 
L 2356 0 
L 1766 0 
Q 1100 0 847 248 
Q 594 497 594 1153 
L 594 3053 
L 172 3053 
L 172 3500 
L 594 3500 
L 594 4494 
L 1172 4494 
z
" transform="scale(0.015625)"/>
       <path id="DejaVuSans-6f" d="M 1959 3097 
Q 1497 3097 1228 2736 
Q 959 2375 959 1747 
Q 959 1119 1226 758 
Q 1494 397 1959 397 
Q 2419 397 2687 759 
Q 2956 1122 2956 1747 
Q 2956 2369 2687 2733 
Q 2419 3097 1959 3097 
z
M 1959 3584 
Q 2709 3584 3137 3096 
Q 3566 2609 3566 1747 
Q 3566 888 3137 398 
Q 2709 -91 1959 -91 
Q 1206 -91 779 398 
Q 353 888 353 1747 
Q 353 2609 779 3096 
Q 1206 3584 1959 3584 
z
" transform="scale(0.015625)"/>
       <path id="DejaVuSans-79" d="M 2059 -325 
Q 1816 -950 1584 -1140 
Q 1353 -1331 966 -1331 
L 506 -1331 
L 506 -850 
L 844 -850 
Q 1081 -850 1212 -737 
Q 1344 -625 1503 -206 
L 1606 56 
L 191 3500 
L 800 3500 
L 1894 763 
L 2988 3500 
L 3597 3500 
L 2059 -325 
z
" transform="scale(0.015625)"/>
      </defs>
      <use xlink:href="#DejaVuSans-54"/>
      <use xlink:href="#DejaVuSans-72" x="46.333984"/>
      <use xlink:href="#DejaVuSans-61" x="87.447266"/>
      <use xlink:href="#DejaVuSans-6a" x="148.726562"/>
      <use xlink:href="#DejaVuSans-65" x="176.509766"/>
      <use xlink:href="#DejaVuSans-63" x="238.033203"/>
      <use xlink:href="#DejaVuSans-74" x="293.013672"/>
      <use xlink:href="#DejaVuSans-6f" x="332.222656"/>
      <use xlink:href="#DejaVuSans-72" x="393.404297"/>
      <use xlink:href="#DejaVuSans-79" x="434.517578"/>
     </g>
    </g>
    <g id="line2d_26">
     <path d="M 244.591875 83.136844 
L 259.591875 83.136844 
L 274.591875 83.136844 
" style="fill: none; stroke: #000000; stroke-width: 1.5; stroke-linecap: square"/>
     <g>
      <use xlink:href="#m0573308e29" x="259.591875" y="83.136844" style="stroke: #000000"/>
     </g>
    </g>
    <g id="text_8">
     <!-- Start -->
     <g transform="translate(286.591875 88.386844)scale(0.15 -0.15)">
      <defs>
       <path id="DejaVuSans-53" d="M 3425 4513 
L 3425 3897 
Q 3066 4069 2747 4153 
Q 2428 4238 2131 4238 
Q 1616 4238 1336 4038 
Q 1056 3838 1056 3469 
Q 1056 3159 1242 3001 
Q 1428 2844 1947 2747 
L 2328 2669 
Q 3034 2534 3370 2195 
Q 3706 1856 3706 1288 
Q 3706 609 3251 259 
Q 2797 -91 1919 -91 
Q 1588 -91 1214 -16 
Q 841 59 441 206 
L 441 856 
Q 825 641 1194 531 
Q 1563 422 1919 422 
Q 2459 422 2753 634 
Q 3047 847 3047 1241 
Q 3047 1584 2836 1778 
Q 2625 1972 2144 2069 
L 1759 2144 
Q 1053 2284 737 2584 
Q 422 2884 422 3419 
Q 422 4038 858 4394 
Q 1294 4750 2059 4750 
Q 2388 4750 2728 4690 
Q 3069 4631 3425 4513 
z
" transform="scale(0.015625)"/>
      </defs>
      <use xlink:href="#DejaVuSans-53"/>
      <use xlink:href="#DejaVuSans-74" x="63.476562"/>
      <use xlink:href="#DejaVuSans-61" x="102.685547"/>
      <use xlink:href="#DejaVuSans-72" x="163.964844"/>
      <use xlink:href="#DejaVuSans-74" x="205.078125"/>
     </g>
    </g>
    <g id="line2d_27">
     <path d="M 244.591875 105.154031 
L 259.591875 105.154031 
L 274.591875 105.154031 
" style="fill: none; stroke: #000000; stroke-width: 1.5; stroke-linecap: square"/>
     <g>
      <use xlink:href="#me1423fe8ac" x="259.591875" y="105.154031" style="stroke: #000000; stroke-linejoin: miter"/>
     </g>
    </g>
    <g id="text_9">
     <!-- End -->
     <g transform="translate(286.591875 110.404031)scale(0.15 -0.15)">
      <defs>
       <path id="DejaVuSans-45" d="M 628 4666 
L 3578 4666 
L 3578 4134 
L 1259 4134 
L 1259 2753 
L 3481 2753 
L 3481 2222 
L 1259 2222 
L 1259 531 
L 3634 531 
L 3634 0 
L 628 0 
L 628 4666 
z
" transform="scale(0.015625)"/>
       <path id="DejaVuSans-6e" d="M 3513 2113 
L 3513 0 
L 2938 0 
L 2938 2094 
Q 2938 2591 2744 2837 
Q 2550 3084 2163 3084 
Q 1697 3084 1428 2787 
Q 1159 2491 1159 1978 
L 1159 0 
L 581 0 
L 581 3500 
L 1159 3500 
L 1159 2956 
Q 1366 3272 1645 3428 
Q 1925 3584 2291 3584 
Q 2894 3584 3203 3211 
Q 3513 2838 3513 2113 
z
" transform="scale(0.015625)"/>
       <path id="DejaVuSans-64" d="M 2906 2969 
L 2906 4863 
L 3481 4863 
L 3481 0 
L 2906 0 
L 2906 525 
Q 2725 213 2448 61 
Q 2172 -91 1784 -91 
Q 1150 -91 751 415 
Q 353 922 353 1747 
Q 353 2572 751 3078 
Q 1150 3584 1784 3584 
Q 2172 3584 2448 3432 
Q 2725 3281 2906 2969 
z
M 947 1747 
Q 947 1113 1208 752 
Q 1469 391 1925 391 
Q 2381 391 2643 752 
Q 2906 1113 2906 1747 
Q 2906 2381 2643 2742 
Q 2381 3103 1925 3103 
Q 1469 3103 1208 2742 
Q 947 2381 947 1747 
z
" transform="scale(0.015625)"/>
      </defs>
      <use xlink:href="#DejaVuSans-45"/>
      <use xlink:href="#DejaVuSans-6e" x="63.183594"/>
      <use xlink:href="#DejaVuSans-64" x="126.5625"/>
     </g>
    </g>
    <g id="line2d_28">
     <path d="M 244.591875 127.171219 
L 259.591875 127.171219 
L 274.591875 127.171219 
" style="fill: none; stroke: #ff0000; stroke-width: 1.5; stroke-linecap: square"/>
     <g>
      <use xlink:href="#ma1ec197cad" x="259.591875" y="127.171219" style="fill: #ff0000; stroke: #ff0000; stroke-linejoin: miter"/>
     </g>
    </g>
    <g id="text_10">
     <!-- Target Location -->
     <g transform="translate(286.591875 132.421219)scale(0.15 -0.15)">
      <defs>
       <path id="DejaVuSans-67" d="M 2906 1791 
Q 2906 2416 2648 2759 
Q 2391 3103 1925 3103 
Q 1463 3103 1205 2759 
Q 947 2416 947 1791 
Q 947 1169 1205 825 
Q 1463 481 1925 481 
Q 2391 481 2648 825 
Q 2906 1169 2906 1791 
z
M 3481 434 
Q 3481 -459 3084 -895 
Q 2688 -1331 1869 -1331 
Q 1566 -1331 1297 -1286 
Q 1028 -1241 775 -1147 
L 775 -588 
Q 1028 -725 1275 -790 
Q 1522 -856 1778 -856 
Q 2344 -856 2625 -561 
Q 2906 -266 2906 331 
L 2906 616 
Q 2728 306 2450 153 
Q 2172 0 1784 0 
Q 1141 0 747 490 
Q 353 981 353 1791 
Q 353 2603 747 3093 
Q 1141 3584 1784 3584 
Q 2172 3584 2450 3431 
Q 2728 3278 2906 2969 
L 2906 3500 
L 3481 3500 
L 3481 434 
z
" transform="scale(0.015625)"/>
       <path id="DejaVuSans-20" transform="scale(0.015625)"/>
       <path id="DejaVuSans-4c" d="M 628 4666 
L 1259 4666 
L 1259 531 
L 3531 531 
L 3531 0 
L 628 0 
L 628 4666 
z
" transform="scale(0.015625)"/>
       <path id="DejaVuSans-69" d="M 603 3500 
L 1178 3500 
L 1178 0 
L 603 0 
L 603 3500 
z
M 603 4863 
L 1178 4863 
L 1178 4134 
L 603 4134 
L 603 4863 
z
" transform="scale(0.015625)"/>
      </defs>
      <use xlink:href="#DejaVuSans-54"/>
      <use xlink:href="#DejaVuSans-61" x="44.583984"/>
      <use xlink:href="#DejaVuSans-72" x="105.863281"/>
      <use xlink:href="#DejaVuSans-67" x="145.226562"/>
      <use xlink:href="#DejaVuSans-65" x="208.703125"/>
      <use xlink:href="#DejaVuSans-74" x="270.226562"/>
      <use xlink:href="#DejaVuSans-20" x="309.435547"/>
      <use xlink:href="#DejaVuSans-4c" x="341.222656"/>
      <use xlink:href="#DejaVuSans-6f" x="395.185547"/>
      <use xlink:href="#DejaVuSans-63" x="456.367188"/>
      <use xlink:href="#DejaVuSans-61" x="511.347656"/>
      <use xlink:href="#DejaVuSans-74" x="572.626953"/>
      <use xlink:href="#DejaVuSans-69" x="611.835938"/>
      <use xlink:href="#DejaVuSans-6f" x="639.619141"/>
      <use xlink:href="#DejaVuSans-6e" x="700.800781"/>
     </g>
    </g>
   </g>
  </g>
 </g>
 <defs>
  <clipPath id="pb9222ca3f5">
   <rect x="57.6" y="41.472" width="357.12" height="266.112"/>
  </clipPath>
 </defs>
</svg>
